%TF.GenerationSoftware,KiCad,Pcbnew,9.0.8+dfsg-1*%
%TF.CreationDate,2026-09-09T01:07:17+05:30*%
%TF.ProjectId,STM32F401_Minimal_DevBoard,53544d33-3246-4343-9031-5f4d696e696d,rev?*%
%TF.SameCoordinates,Original*%
%TF.FileFunction,Copper,L1,Top*%
%TF.FilePolarity,Positive*%
%FSLAX46Y46*%
G04 Gerber Fmt 4.6, Leading zero omitted, Abs format (unit mm)*
G04 Created by KiCad (PCBNEW 9.0.8+dfsg-1) date 2026-09-09 01:07:17*
%MOMM*%
%LPD*%
G01*
G04 APERTURE LIST*
G04 Aperture macros list*
%AMRoundRect*
0 Rectangle with rounded corners*
0 $1 Rounding radius*
0 $2 $3 $4 $5 $6 $7 $8 $9 X,Y pos of 4 corners*
0 Add a 4 corners polygon primitive as box body*
4,1,4,$2,$3,$4,$5,$6,$7,$8,$9,$2,$3,0*
0 Add four circle primitives for the rounded corners*
1,1,$1+$1,$2,$3*
1,1,$1+$1,$4,$5*
1,1,$1+$1,$6,$7*
1,1,$1+$1,$8,$9*
0 Add four rect primitives between the rounded corners*
20,1,$1+$1,$2,$3,$4,$5,0*
20,1,$1+$1,$4,$5,$6,$7,0*
20,1,$1+$1,$6,$7,$8,$9,0*
20,1,$1+$1,$8,$9,$2,$3,0*%
%AMRotRect*
0 Rectangle, with rotation*
0 The origin of the aperture is its center*
0 $1 length*
0 $2 width*
0 $3 Rotation angle, in degrees counterclockwise*
0 Add horizontal line*
21,1,$1,$2,0,0,$3*%
G04 Aperture macros list end*
%TA.AperFunction,HeatsinkPad*%
%ADD10O,1.000000X1.700000*%
%TD*%
%TA.AperFunction,SMDPad,CuDef*%
%ADD11RoundRect,0.225000X0.225000X0.575000X-0.225000X0.575000X-0.225000X-0.575000X0.225000X-0.575000X0*%
%TD*%
%TA.AperFunction,SMDPad,CuDef*%
%ADD12RoundRect,0.200000X0.200000X0.600000X-0.200000X0.600000X-0.200000X-0.600000X0.200000X-0.600000X0*%
%TD*%
%TA.AperFunction,SMDPad,CuDef*%
%ADD13RoundRect,0.175000X0.175000X0.625000X-0.175000X0.625000X-0.175000X-0.625000X0.175000X-0.625000X0*%
%TD*%
%TA.AperFunction,ComponentPad*%
%ADD14C,1.700000*%
%TD*%
%TA.AperFunction,ComponentPad*%
%ADD15R,1.700000X1.700000*%
%TD*%
%TA.AperFunction,SMDPad,CuDef*%
%ADD16RoundRect,0.250000X0.070711X0.565685X-0.565685X-0.070711X-0.070711X-0.565685X0.565685X0.070711X0*%
%TD*%
%TA.AperFunction,SMDPad,CuDef*%
%ADD17RoundRect,0.062500X0.309359X-0.220971X-0.220971X0.309359X-0.309359X0.220971X0.220971X-0.309359X0*%
%TD*%
%TA.AperFunction,SMDPad,CuDef*%
%ADD18RoundRect,0.062500X0.309359X0.220971X0.220971X0.309359X-0.309359X-0.220971X-0.220971X-0.309359X0*%
%TD*%
%TA.AperFunction,HeatsinkPad*%
%ADD19RotRect,5.600000X5.600000X135.000000*%
%TD*%
%TA.AperFunction,SMDPad,CuDef*%
%ADD20RoundRect,0.150000X-0.150000X0.512500X-0.150000X-0.512500X0.150000X-0.512500X0.150000X0.512500X0*%
%TD*%
%TA.AperFunction,ComponentPad*%
%ADD21RoundRect,0.225000X-0.225000X-0.475000X0.225000X-0.475000X0.225000X0.475000X-0.225000X0.475000X0*%
%TD*%
%TA.AperFunction,ComponentPad*%
%ADD22O,0.900000X1.400000*%
%TD*%
%TA.AperFunction,SMDPad,CuDef*%
%ADD23R,1.700000X0.900000*%
%TD*%
%TA.AperFunction,SMDPad,CuDef*%
%ADD24RoundRect,0.200000X-0.275000X0.200000X-0.275000X-0.200000X0.275000X-0.200000X0.275000X0.200000X0*%
%TD*%
%TA.AperFunction,SMDPad,CuDef*%
%ADD25RoundRect,0.200000X0.275000X-0.200000X0.275000X0.200000X-0.275000X0.200000X-0.275000X-0.200000X0*%
%TD*%
%TA.AperFunction,ComponentPad*%
%ADD26RoundRect,0.250000X-0.750000X0.600000X-0.750000X-0.600000X0.750000X-0.600000X0.750000X0.600000X0*%
%TD*%
%TA.AperFunction,ComponentPad*%
%ADD27O,2.000000X1.700000*%
%TD*%
%TA.AperFunction,SMDPad,CuDef*%
%ADD28RoundRect,0.218750X0.256250X-0.218750X0.256250X0.218750X-0.256250X0.218750X-0.256250X-0.218750X0*%
%TD*%
%TA.AperFunction,SMDPad,CuDef*%
%ADD29RoundRect,0.225000X0.250000X-0.225000X0.250000X0.225000X-0.250000X0.225000X-0.250000X-0.225000X0*%
%TD*%
%TA.AperFunction,SMDPad,CuDef*%
%ADD30RoundRect,0.225000X0.335876X0.017678X0.017678X0.335876X-0.335876X-0.017678X-0.017678X-0.335876X0*%
%TD*%
%TA.AperFunction,SMDPad,CuDef*%
%ADD31RoundRect,0.225000X-0.335876X-0.017678X-0.017678X-0.335876X0.335876X0.017678X0.017678X0.335876X0*%
%TD*%
%TA.AperFunction,SMDPad,CuDef*%
%ADD32RoundRect,0.225000X0.017678X-0.335876X0.335876X-0.017678X-0.017678X0.335876X-0.335876X0.017678X0*%
%TD*%
%TA.AperFunction,SMDPad,CuDef*%
%ADD33RoundRect,0.225000X-0.017678X0.335876X-0.335876X0.017678X0.017678X-0.335876X0.335876X-0.017678X0*%
%TD*%
%TA.AperFunction,ViaPad*%
%ADD34C,0.600000*%
%TD*%
%TA.AperFunction,Conductor*%
%ADD35C,0.200000*%
%TD*%
%TA.AperFunction,Conductor*%
%ADD36C,0.400000*%
%TD*%
G04 APERTURE END LIST*
D10*
%TO.P,P1,S1,SHIELD*%
%TO.N,GND*%
X131710000Y-79160000D03*
X131710000Y-82960000D03*
X140350000Y-79160000D03*
X140350000Y-82960000D03*
D11*
%TO.P,P1,B12,GND*%
X138780000Y-83140000D03*
D12*
%TO.P,P1,B9,VBUS*%
%TO.N,+5V*%
X137550000Y-83140000D03*
D13*
%TO.P,P1,B5,VCONN*%
%TO.N,GND*%
X135530000Y-83140000D03*
D11*
%TO.P,P1,A12,GND*%
X133280000Y-83140000D03*
D12*
%TO.P,P1,A9,VBUS*%
%TO.N,+5V*%
X134510000Y-83140000D03*
D13*
%TO.P,P1,A5,CC*%
%TO.N,Net-(P1-CC)*%
X136530000Y-83140000D03*
%TD*%
D14*
%TO.P,J2,20,Pin_20*%
%TO.N,+3.3V*%
X127350000Y-127480000D03*
%TO.P,J2,19,Pin_19*%
%TO.N,/G*%
X127350000Y-124940000D03*
%TO.P,J2,18,Pin_18*%
X127350000Y-122400000D03*
%TO.P,J2,17,Pin_17*%
%TO.N,/PB9*%
X127350000Y-119860000D03*
%TO.P,J2,16,Pin_16*%
%TO.N,/PB8*%
X127350000Y-117320000D03*
%TO.P,J2,15,Pin_15*%
%TO.N,/PB7*%
X127350000Y-114780000D03*
%TO.P,J2,14,Pin_14*%
%TO.N,/PB6*%
X127350000Y-112240000D03*
%TO.P,J2,13,Pin_13*%
%TO.N,/PB5*%
X127350000Y-109700000D03*
%TO.P,J2,12,Pin_12*%
%TO.N,/PB4*%
X127350000Y-107160000D03*
%TO.P,J2,11,Pin_11*%
%TO.N,/PB3*%
X127350000Y-104620000D03*
%TO.P,J2,10,Pin_10*%
%TO.N,/PA15*%
X127350000Y-102080000D03*
%TO.P,J2,9,Pin_9*%
%TO.N,/PA12*%
X127350000Y-99540000D03*
%TO.P,J2,8,Pin_8*%
%TO.N,/PA11*%
X127350000Y-97000000D03*
%TO.P,J2,7,Pin_7*%
%TO.N,/PA10*%
X127350000Y-94460000D03*
%TO.P,J2,6,Pin_6*%
%TO.N,/PA9*%
X127350000Y-91920000D03*
%TO.P,J2,5,Pin_5*%
%TO.N,/PA8*%
X127350000Y-89380000D03*
%TO.P,J2,4,Pin_4*%
%TO.N,/PB15*%
X127350000Y-86840000D03*
%TO.P,J2,3,Pin_3*%
%TO.N,/PB14*%
X127350000Y-84300000D03*
%TO.P,J2,2,Pin_2*%
%TO.N,/PB13*%
X127350000Y-81760000D03*
D15*
%TO.P,J2,1,Pin_1*%
%TO.N,/PB12*%
X127350000Y-79220000D03*
%TD*%
D16*
%TO.P,Y1,4*%
%TO.N,N/C*%
X140275000Y-111350000D03*
%TO.P,Y1,3*%
X138719365Y-112905635D03*
%TO.P,Y1,2,2*%
%TO.N,Net-(U2-PH0)*%
X137517284Y-111703554D03*
%TO.P,Y1,1,1*%
%TO.N,Net-(U2-PH1)*%
X139072919Y-110147919D03*
%TD*%
D17*
%TO.P,U2,1,VBAT*%
%TO.N,+3.3V*%
X137023636Y-107975223D03*
%TO.P,U2,2,PC13*%
%TO.N,/PC13*%
X137377189Y-107621670D03*
%TO.P,U2,3,PC14*%
%TO.N,/PC14*%
X137730743Y-107268116D03*
%TO.P,U2,4,PC15*%
%TO.N,/PC15*%
X138084296Y-106914563D03*
%TO.P,U2,5,PH0*%
%TO.N,Net-(U2-PH0)*%
X138437849Y-106561010D03*
%TO.P,U2,6,PH1*%
%TO.N,Net-(U2-PH1)*%
X138791403Y-106207456D03*
%TO.P,U2,7,NRST*%
%TO.N,Net-(U2-NRST)*%
X139144956Y-105853903D03*
%TO.P,U2,8,VSSA*%
%TO.N,GND*%
X139498510Y-105500349D03*
%TO.P,U2,9,VREF+*%
%TO.N,+3.3V*%
X139852063Y-105146796D03*
%TO.P,U2,10,PA0*%
%TO.N,/PA0*%
X140205616Y-104793243D03*
%TO.P,U2,11,PA1*%
%TO.N,/PA1*%
X140559170Y-104439689D03*
%TO.P,U2,12,PA2*%
%TO.N,/PA2*%
X140912723Y-104086136D03*
D18*
%TO.P,U2,13,PA3*%
%TO.N,/PA3*%
X140912723Y-103113864D03*
%TO.P,U2,14,PA4*%
%TO.N,/PA4*%
X140559170Y-102760311D03*
%TO.P,U2,15,PA5*%
%TO.N,/PA5*%
X140205616Y-102406757D03*
%TO.P,U2,16,PA6*%
%TO.N,/PA6*%
X139852063Y-102053204D03*
%TO.P,U2,17,PA7*%
%TO.N,/PA7*%
X139498510Y-101699651D03*
%TO.P,U2,18,PB0*%
%TO.N,/PB0*%
X139144956Y-101346097D03*
%TO.P,U2,19,PB1*%
%TO.N,/PB1*%
X138791403Y-100992544D03*
%TO.P,U2,20,PB2*%
%TO.N,/PB2*%
X138437849Y-100638990D03*
%TO.P,U2,21,PB10*%
%TO.N,/PB10*%
X138084296Y-100285437D03*
%TO.P,U2,22,VCAP1*%
%TO.N,Net-(U2-VCAP1)*%
X137730743Y-99931884D03*
%TO.P,U2,23,VSS*%
%TO.N,GND*%
X137377189Y-99578330D03*
%TO.P,U2,24,VDD*%
%TO.N,+3.3V*%
X137023636Y-99224777D03*
D17*
%TO.P,U2,25,PB12*%
%TO.N,/PB12*%
X136051364Y-99224777D03*
%TO.P,U2,26,PB13*%
%TO.N,/PB13*%
X135697811Y-99578330D03*
%TO.P,U2,27,PB14*%
%TO.N,/PB14*%
X135344257Y-99931884D03*
%TO.P,U2,28,PB15*%
%TO.N,/PB15*%
X134990704Y-100285437D03*
%TO.P,U2,29,PA8*%
%TO.N,/PA8*%
X134637151Y-100638990D03*
%TO.P,U2,30,PA9*%
%TO.N,/PA9*%
X134283597Y-100992544D03*
%TO.P,U2,31,PA10*%
%TO.N,/PA10*%
X133930044Y-101346097D03*
%TO.P,U2,32,PA11*%
%TO.N,/PA11*%
X133576490Y-101699651D03*
%TO.P,U2,33,PA12*%
%TO.N,/PA12*%
X133222937Y-102053204D03*
%TO.P,U2,34,PA13*%
%TO.N,/PA13*%
X132869384Y-102406757D03*
%TO.P,U2,35,VSS*%
%TO.N,GND*%
X132515830Y-102760311D03*
%TO.P,U2,36,VDD*%
%TO.N,+3.3V*%
X132162277Y-103113864D03*
D18*
%TO.P,U2,37,PA14*%
%TO.N,/PA14*%
X132162277Y-104086136D03*
%TO.P,U2,38,PA15*%
%TO.N,/PA15*%
X132515830Y-104439689D03*
%TO.P,U2,39,PB3*%
%TO.N,/PB3*%
X132869384Y-104793243D03*
%TO.P,U2,40,PB4*%
%TO.N,/PB4*%
X133222937Y-105146796D03*
%TO.P,U2,41,PB5*%
%TO.N,/PB5*%
X133576490Y-105500349D03*
%TO.P,U2,42,PB6*%
%TO.N,/PB6*%
X133930044Y-105853903D03*
%TO.P,U2,43,PB7*%
%TO.N,/PB7*%
X134283597Y-106207456D03*
%TO.P,U2,44,BOOT0*%
%TO.N,Net-(U2-BOOT0)*%
X134637151Y-106561010D03*
%TO.P,U2,45,PB8*%
%TO.N,/PB8*%
X134990704Y-106914563D03*
%TO.P,U2,46,PB9*%
%TO.N,/PB9*%
X135344257Y-107268116D03*
%TO.P,U2,47,VSS*%
%TO.N,GND*%
X135697811Y-107621670D03*
%TO.P,U2,48,VDD*%
%TO.N,+3.3V*%
X136051364Y-107975223D03*
D19*
%TO.P,U2,49,VSS*%
%TO.N,GND*%
X136537500Y-103600000D03*
%TD*%
D20*
%TO.P,U1,5,VOUT*%
%TO.N,+3.3V*%
X135150000Y-88190000D03*
%TO.P,U1,4,NC*%
%TO.N,unconnected-(U1-NC-Pad4)*%
X133250000Y-88190000D03*
%TO.P,U1,3,EN*%
%TO.N,/5V*%
X133250000Y-85915000D03*
%TO.P,U1,2,GND*%
%TO.N,Net-(J1-GND)*%
X134200000Y-85915000D03*
%TO.P,U1,1,VIN*%
%TO.N,/5V*%
X135150000Y-85915000D03*
%TD*%
D21*
%TO.P,SWD,1,Pin_1*%
%TO.N,+3.3V*%
X134725000Y-127450000D03*
D22*
%TO.P,SWD,2,Pin_2*%
%TO.N,/PA13*%
X135975000Y-127450000D03*
%TO.P,SWD,3,Pin_3*%
%TO.N,/PA14*%
X137225000Y-127450000D03*
%TO.P,SWD,4,Pin_4*%
%TO.N,GND*%
X138475000Y-127450000D03*
%TD*%
D23*
%TO.P,BOOT0,1,1*%
%TO.N,BOOT0*%
X132800000Y-123180000D03*
%TO.P,BOOT0,2,2*%
%TO.N,Net-(U2-BOOT0)*%
X132800000Y-119780000D03*
%TD*%
%TO.P,NRST,1,1*%
%TO.N,RESET*%
X140340000Y-123170000D03*
%TO.P,NRST,2,2*%
%TO.N,Net-(U2-NRST)*%
X140340000Y-119770000D03*
%TD*%
D24*
%TO.P,R5,1*%
%TO.N,Net-(P1-CC)*%
X131120000Y-85530000D03*
%TO.P,R5,2*%
%TO.N,GND*%
X131120000Y-87180000D03*
%TD*%
D25*
%TO.P,R4,1*%
%TO.N,/PA5*%
X141520000Y-95625000D03*
%TO.P,R4,2*%
%TO.N,Net-(D1-A)*%
X141520000Y-93975000D03*
%TD*%
D24*
%TO.P,R2,1*%
%TO.N,BOOT0*%
X131580000Y-125415000D03*
%TO.P,R2,2*%
%TO.N,GND*%
X131580000Y-127065000D03*
%TD*%
D25*
%TO.P,R1,1*%
%TO.N,+3.3V*%
X141850000Y-126975000D03*
%TO.P,R1,2*%
%TO.N,RESET*%
X141850000Y-125325000D03*
%TD*%
D15*
%TO.P,J3,1,Pin_1*%
%TO.N,/5V*%
X145225000Y-79140000D03*
D14*
%TO.P,J3,2,Pin_2*%
%TO.N,/G*%
X145225000Y-81680000D03*
%TO.P,J3,3,Pin_3*%
%TO.N,+3.3V*%
X145225000Y-84220000D03*
%TO.P,J3,4,Pin_4*%
%TO.N,/PB10*%
X145225000Y-86760000D03*
%TO.P,J3,5,Pin_5*%
%TO.N,/PB2*%
X145225000Y-89300000D03*
%TO.P,J3,6,Pin_6*%
%TO.N,/PB1*%
X145225000Y-91840000D03*
%TO.P,J3,7,Pin_7*%
%TO.N,/PB0*%
X145225000Y-94380000D03*
%TO.P,J3,8,Pin_8*%
%TO.N,/PA7*%
X145225000Y-96920000D03*
%TO.P,J3,9,Pin_9*%
%TO.N,/PA6*%
X145225000Y-99460000D03*
%TO.P,J3,10,Pin_10*%
%TO.N,/PA5*%
X145225000Y-102000000D03*
%TO.P,J3,11,Pin_11*%
%TO.N,/PA4*%
X145225000Y-104540000D03*
%TO.P,J3,12,Pin_12*%
%TO.N,/PA3*%
X145225000Y-107080000D03*
%TO.P,J3,13,Pin_13*%
%TO.N,/PA2*%
X145225000Y-109620000D03*
%TO.P,J3,14,Pin_14*%
%TO.N,/PA1*%
X145225000Y-112160000D03*
%TO.P,J3,15,Pin_15*%
%TO.N,/PA0*%
X145225000Y-114700000D03*
%TO.P,J3,16,Pin_16*%
%TO.N,RESET*%
X145225000Y-117240000D03*
%TO.P,J3,17,Pin_17*%
%TO.N,/PC15*%
X145225000Y-119780000D03*
%TO.P,J3,18,Pin_18*%
%TO.N,/PC14*%
X145225000Y-122320000D03*
%TO.P,J3,19,Pin_19*%
%TO.N,/PC13*%
X145225000Y-124860000D03*
%TO.P,J3,20,Pin_20*%
%TO.N,+3.3V*%
X145225000Y-127400000D03*
%TD*%
D26*
%TO.P,J1,1,5V*%
%TO.N,/5V*%
X138870000Y-87740000D03*
D27*
%TO.P,J1,2,GND*%
%TO.N,Net-(J1-GND)*%
X138870000Y-90240000D03*
%TD*%
D28*
%TO.P,D1,1,K*%
%TO.N,GND*%
X135270000Y-95617500D03*
%TO.P,D1,2,A*%
%TO.N,Net-(D1-A)*%
X135270000Y-94042500D03*
%TD*%
D29*
%TO.P,C13,1*%
%TO.N,GND*%
X136410000Y-121920000D03*
%TO.P,C13,2*%
%TO.N,+3.3V*%
X136410000Y-120370000D03*
%TD*%
D30*
%TO.P,C12,1*%
%TO.N,GND*%
X139908008Y-98798008D03*
%TO.P,C12,2*%
%TO.N,+3.3V*%
X138811992Y-97701992D03*
%TD*%
D31*
%TO.P,C11,1*%
%TO.N,GND*%
X133441992Y-108651992D03*
%TO.P,C11,2*%
%TO.N,+3.3V*%
X134538008Y-109748008D03*
%TD*%
D32*
%TO.P,C10,1*%
%TO.N,GND*%
X141153984Y-106956016D03*
%TO.P,C10,2*%
%TO.N,+3.3V*%
X142250000Y-105860000D03*
%TD*%
%TO.P,C9,1*%
%TO.N,+3.3V*%
X132991992Y-98808008D03*
%TO.P,C9,2*%
%TO.N,GND*%
X134088008Y-97711992D03*
%TD*%
D31*
%TO.P,C8,1*%
%TO.N,Net-(U2-PH1)*%
X140501992Y-108811992D03*
%TO.P,C8,2*%
%TO.N,GND*%
X141598008Y-109908008D03*
%TD*%
%TO.P,C7,1*%
%TO.N,Net-(U2-PH0)*%
X135991992Y-113171992D03*
%TO.P,C7,2*%
%TO.N,GND*%
X137088008Y-114268008D03*
%TD*%
D29*
%TO.P,C6,1*%
%TO.N,+3.3V*%
X132670000Y-118115000D03*
%TO.P,C6,2*%
%TO.N,GND*%
X132670000Y-116565000D03*
%TD*%
%TO.P,C5,1*%
%TO.N,GND*%
X142020000Y-86960000D03*
%TO.P,C5,2*%
%TO.N,/5V*%
X142020000Y-85410000D03*
%TD*%
%TO.P,C4,1*%
%TO.N,+3.3V*%
X136340000Y-118290000D03*
%TO.P,C4,2*%
%TO.N,GND*%
X136340000Y-116740000D03*
%TD*%
%TO.P,C3,1*%
%TO.N,GND*%
X140570000Y-118135000D03*
%TO.P,C3,2*%
%TO.N,RESET*%
X140570000Y-116585000D03*
%TD*%
D33*
%TO.P,C2,1*%
%TO.N,GND*%
X131878008Y-100231992D03*
%TO.P,C2,2*%
%TO.N,+3.3V*%
X130781992Y-101328008D03*
%TD*%
D29*
%TO.P,C1,1*%
%TO.N,GND*%
X138350000Y-95685000D03*
%TO.P,C1,2*%
%TO.N,Net-(U2-VCAP1)*%
X138350000Y-94135000D03*
%TD*%
D34*
%TO.N,GND*%
X137860000Y-98410000D03*
X133990000Y-107760000D03*
X135710000Y-110670000D03*
X134380000Y-91140000D03*
X135870000Y-80020000D03*
%TO.N,+3.3V*%
X142213000Y-108800000D03*
X136860000Y-110480000D03*
X131840000Y-103540000D03*
X131404290Y-107807680D03*
%TO.N,Net-(U2-NRST)*%
X142881063Y-111158937D03*
X139814619Y-106485381D03*
%TO.N,GND*%
X129880000Y-77630000D03*
X142580000Y-77610000D03*
X130270000Y-123990000D03*
X133610000Y-114780000D03*
X142990000Y-92760000D03*
X130210000Y-95910000D03*
%TO.N,+3.3V*%
X130850000Y-98890000D03*
X132110000Y-98240000D03*
X139133000Y-96680000D03*
X137250000Y-96640000D03*
%TO.N,Net-(P1-CC)*%
X132479184Y-84026236D03*
X136570000Y-84737000D03*
%TO.N,/PB12*%
X135983000Y-97015664D03*
%TO.N,/PB13*%
X129060000Y-83830000D03*
X135643000Y-97700000D03*
%TO.N,/PA5*%
X142770000Y-101280000D03*
X143302290Y-98933000D03*
%TO.N,Net-(U2-VCAP1)*%
X138875014Y-98906398D03*
X139670000Y-94740000D03*
%TO.N,+5V*%
X134360000Y-83423000D03*
X137440000Y-84110000D03*
%TO.N,Net-(J1-GND)*%
X136230000Y-90530000D03*
X132210000Y-85000000D03*
%TO.N,/G*%
X130110000Y-119390000D03*
X142320000Y-83490000D03*
%TO.N,/PC13*%
X137606849Y-108614597D03*
%TO.N,/PC14*%
X138257947Y-108291172D03*
%TO.N,/PC15*%
X138667000Y-107690166D03*
%TO.N,/PA0*%
X140822916Y-105237625D03*
%TO.N,/PA1*%
X141947354Y-104372646D03*
%TO.N,/PA7*%
X142161427Y-100397990D03*
%TO.N,/PB0*%
X140864708Y-100264708D03*
%TO.N,/PB1*%
X140057062Y-100327062D03*
%TO.N,/PB2*%
X139542993Y-99812993D03*
%TO.N,/PB10*%
X142510000Y-91080000D03*
X138817728Y-99762760D03*
%TO.N,/PA10*%
X132874534Y-100091284D03*
%TO.N,/PA11*%
X132878190Y-101086424D03*
%TO.N,/PA12*%
X132363632Y-101600000D03*
%TO.N,/PB9*%
X132507000Y-114150000D03*
X134775509Y-107741563D03*
%TO.N,/PB8*%
X132670000Y-113000000D03*
X132440000Y-107334540D03*
%TO.N,Net-(U2-BOOT0)*%
X135540000Y-119200000D03*
X131217000Y-109490000D03*
%TO.N,/PA14*%
X137180000Y-125900000D03*
X130690000Y-104150000D03*
%TO.N,/PA9*%
X133536440Y-99790597D03*
%TO.N,/PA8*%
X134050064Y-99276084D03*
%TO.N,/PB15*%
X134405418Y-98641847D03*
%TO.N,/PB14*%
X135143000Y-98246831D03*
%TO.N,+3.3V*%
X143250000Y-85620000D03*
X135120000Y-89700000D03*
X136760000Y-94140000D03*
%TO.N,/PA13*%
X131665173Y-101801713D03*
X135585204Y-126826344D03*
%TD*%
D35*
%TO.N,RESET*%
X140340000Y-123170000D02*
X140340000Y-122125000D01*
X140340000Y-122125000D02*
X145225000Y-117240000D01*
%TO.N,+3.3V*%
X142213000Y-108800000D02*
X142220000Y-108800000D01*
X142220000Y-108800000D02*
X143460000Y-107560000D01*
X143460000Y-107560000D02*
X143460000Y-106990000D01*
X143460000Y-106990000D02*
X142330000Y-105860000D01*
X142330000Y-105860000D02*
X142250000Y-105860000D01*
X135728008Y-108558008D02*
X136051364Y-108234652D01*
X135728008Y-108558008D02*
X135339708Y-108946308D01*
X135339708Y-108946308D02*
X135339708Y-108959708D01*
X135339708Y-108959708D02*
X136860000Y-110480000D01*
X131840000Y-103540000D02*
X131840000Y-103436141D01*
X131840000Y-103436141D02*
X132162277Y-103113864D01*
X131600000Y-108421992D02*
X131600000Y-108003390D01*
X131600000Y-108003390D02*
X131404290Y-107807680D01*
%TO.N,Net-(U2-BOOT0)*%
X131217000Y-109490000D02*
X130497000Y-108770000D01*
X130497000Y-108770000D02*
X130497000Y-106892792D01*
X130497000Y-106892792D02*
X130582252Y-106807540D01*
X130582252Y-106807540D02*
X134181317Y-106807540D01*
X134427847Y-106561010D02*
X134637151Y-106561010D01*
X134181317Y-106807540D02*
X134427847Y-106561010D01*
%TO.N,/PB7*%
X134283597Y-106207456D02*
X134074295Y-106207456D01*
X130170000Y-106757344D02*
X130170000Y-110960000D01*
X134074295Y-106207456D02*
X133827764Y-106453987D01*
X133827764Y-106453987D02*
X130473357Y-106453987D01*
X130473357Y-106453987D02*
X130170000Y-106757344D01*
X130170000Y-110960000D02*
X127350000Y-113780000D01*
X127350000Y-113780000D02*
X127350000Y-114780000D01*
%TO.N,/PB6*%
X133930044Y-105853903D02*
X133720740Y-105853903D01*
X133720740Y-105853903D02*
X133474210Y-106100433D01*
X130364463Y-106100433D02*
X129817000Y-106647896D01*
X129810000Y-108830000D02*
X127350000Y-111290000D01*
X133474210Y-106100433D02*
X130364463Y-106100433D01*
X129817000Y-106647896D02*
X129817000Y-108095448D01*
X129817000Y-108095448D02*
X129810000Y-108102448D01*
X129810000Y-108102448D02*
X129810000Y-108830000D01*
X127350000Y-111290000D02*
X127350000Y-112240000D01*
%TO.N,/PB5*%
X133576490Y-105500349D02*
X133367188Y-105500349D01*
X133367188Y-105500349D02*
X133120657Y-105746880D01*
X133120657Y-105746880D02*
X132875999Y-105746880D01*
X132875999Y-105746880D02*
X132875879Y-105747000D01*
X127750000Y-109700000D02*
X127350000Y-109700000D01*
X132875879Y-105747000D02*
X130255448Y-105747000D01*
X130255448Y-105747000D02*
X129490000Y-106512448D01*
X129490000Y-106512448D02*
X129490000Y-107960000D01*
X129490000Y-107960000D02*
X127750000Y-109700000D01*
%TO.N,+3.3V*%
X134538008Y-111360000D02*
X131600000Y-108421992D01*
X134538008Y-109748008D02*
X134538008Y-111360000D01*
%TO.N,GND*%
X132515830Y-102760311D02*
X133355519Y-103600000D01*
X133355519Y-103600000D02*
X136537500Y-103600000D01*
X139498510Y-105500349D02*
X139698317Y-105500349D01*
X139698317Y-105500349D02*
X141153984Y-106956016D01*
%TO.N,Net-(U2-NRST)*%
X142881063Y-111158937D02*
X139760000Y-114280000D01*
X139760000Y-114280000D02*
X139750000Y-114280000D01*
X139144956Y-105853903D02*
X139183141Y-105853903D01*
X139183141Y-105853903D02*
X139814619Y-106485381D01*
%TO.N,/PA0*%
X140689433Y-105277060D02*
X140205616Y-104793243D01*
X140822916Y-105237625D02*
X140783481Y-105277060D01*
X140783481Y-105277060D02*
X140689433Y-105277060D01*
%TO.N,/PA1*%
X141947354Y-104372646D02*
X141610000Y-104710000D01*
X141610000Y-104710000D02*
X140990000Y-104710000D01*
X140990000Y-104710000D02*
X140719689Y-104439689D01*
X140719689Y-104439689D02*
X140559170Y-104439689D01*
%TO.N,/PA2*%
X140912723Y-104086136D02*
X141388859Y-103610000D01*
X141388859Y-103610000D02*
X141930000Y-103610000D01*
X141930000Y-103610000D02*
X144148000Y-105828000D01*
X144148000Y-105828000D02*
X144148000Y-108543000D01*
X144148000Y-108543000D02*
X145225000Y-109620000D01*
%TO.N,/PB9*%
X134775509Y-107741563D02*
X134855532Y-107661540D01*
X134855532Y-107661540D02*
X134950833Y-107661540D01*
X134950833Y-107661540D02*
X135344257Y-107268116D01*
%TO.N,/PB4*%
X133222937Y-105146796D02*
X133013635Y-105146796D01*
X133013635Y-105146796D02*
X132740431Y-105420000D01*
X132740431Y-105420000D02*
X130120000Y-105420000D01*
X130120000Y-105420000D02*
X128380000Y-107160000D01*
X128380000Y-107160000D02*
X127350000Y-107160000D01*
%TO.N,/PB3*%
X132869384Y-104793243D02*
X132612627Y-105050000D01*
X132612627Y-105050000D02*
X127780000Y-105050000D01*
X127780000Y-105050000D02*
X127350000Y-104620000D01*
%TO.N,/PA15*%
X132515830Y-104439689D02*
X132269299Y-104686220D01*
X132269299Y-104686220D02*
X129956220Y-104686220D01*
X129956220Y-104686220D02*
X127350000Y-102080000D01*
%TO.N,/PB8*%
X132440000Y-107334540D02*
X132554540Y-107220000D01*
X132554540Y-107220000D02*
X134700000Y-107220000D01*
X134700000Y-107220000D02*
X134990704Y-106929296D01*
X134990704Y-106929296D02*
X134990704Y-106914563D01*
%TO.N,+3.3V*%
X134538008Y-109748008D02*
X135728008Y-108558008D01*
X136051364Y-108234652D02*
X136051364Y-107975223D01*
%TO.N,/PA12*%
X132363632Y-101600000D02*
X132760000Y-101600000D01*
X132760000Y-101600000D02*
X133213204Y-102053204D01*
X133213204Y-102053204D02*
X133222937Y-102053204D01*
%TO.N,/PA11*%
X132878190Y-101086424D02*
X132878190Y-101218190D01*
X132878190Y-101218190D02*
X133113120Y-101453120D01*
X133113120Y-101453120D02*
X133120657Y-101453120D01*
X133120657Y-101453120D02*
X133367188Y-101699651D01*
X133367188Y-101699651D02*
X133576490Y-101699651D01*
%TO.N,/PA10*%
X132874534Y-100091284D02*
X132874534Y-100337478D01*
X133883153Y-101346097D02*
X133930044Y-101346097D01*
X132874534Y-100337478D02*
X133883153Y-101346097D01*
%TO.N,+3.3V*%
X132220000Y-98240000D02*
X132110000Y-98240000D01*
X130850000Y-98890000D02*
X130781992Y-98958008D01*
X130781992Y-98958008D02*
X130781992Y-101328008D01*
X132788008Y-98808008D02*
X132220000Y-98240000D01*
X132991992Y-98808008D02*
X132788008Y-98808008D01*
%TO.N,/PA9*%
X133536440Y-99790597D02*
X133536440Y-100238989D01*
X133536440Y-100238989D02*
X134037066Y-100739615D01*
X134037066Y-100739615D02*
X134037066Y-100746013D01*
X134037066Y-100746013D02*
X134283597Y-100992544D01*
%TO.N,/PA8*%
X134050064Y-99276084D02*
X134050064Y-99670064D01*
X134050064Y-99670064D02*
X134270281Y-99890281D01*
X134270281Y-99890281D02*
X134270281Y-100272120D01*
X134270281Y-100272120D02*
X134637151Y-100638990D01*
%TO.N,/PB15*%
X134405418Y-98641847D02*
X134597281Y-98833710D01*
X134597281Y-98833710D02*
X134597281Y-99892014D01*
X134597281Y-99892014D02*
X134990704Y-100285437D01*
%TO.N,/PB14*%
X135331884Y-99931884D02*
X135344257Y-99931884D01*
X134924281Y-99524281D02*
X135331884Y-99931884D01*
X135143000Y-98515382D02*
X134924281Y-98734101D01*
X134924281Y-98734101D02*
X134924281Y-99524281D01*
X135143000Y-98246831D02*
X135143000Y-98515382D01*
%TO.N,/PB13*%
X135643000Y-97700000D02*
X135670000Y-97727000D01*
X135670000Y-97727000D02*
X135670000Y-98666397D01*
X135451280Y-98885117D02*
X135451280Y-99331799D01*
X135670000Y-98666397D02*
X135451280Y-98885117D01*
X135451280Y-99331799D02*
X135697811Y-99578330D01*
%TO.N,/PB12*%
X135983000Y-97015664D02*
X136170000Y-97202664D01*
X136170000Y-97202664D02*
X136170000Y-99106141D01*
X136170000Y-99106141D02*
X136051364Y-99224777D01*
%TO.N,+3.3V*%
X137023636Y-99224777D02*
X137023636Y-96866364D01*
X137023636Y-96866364D02*
X137250000Y-96640000D01*
X136760000Y-96633984D02*
X137243984Y-96633984D01*
X137243984Y-96633984D02*
X137250000Y-96640000D01*
X139133000Y-96680000D02*
X139133000Y-97380984D01*
X139133000Y-97380984D02*
X138811992Y-97701992D01*
%TO.N,Net-(U2-VCAP1)*%
X138875014Y-98906398D02*
X138756229Y-98906398D01*
X138756229Y-98906398D02*
X137730743Y-99931884D01*
%TO.N,/PB10*%
X138817728Y-99762760D02*
X138817728Y-99724176D01*
X138134563Y-100285437D02*
X138084296Y-100285437D01*
X138817728Y-99724176D02*
X138763552Y-99670000D01*
X138763552Y-99670000D02*
X138750000Y-99670000D01*
X138750000Y-99670000D02*
X138134563Y-100285437D01*
%TO.N,/PB2*%
X139542993Y-99812993D02*
X139470000Y-99885986D01*
X139470000Y-99885986D02*
X139470000Y-100250000D01*
X139430000Y-100290000D02*
X139000000Y-100290000D01*
X139000000Y-100290000D02*
X138863161Y-100426839D01*
X138863161Y-100426839D02*
X138650000Y-100426839D01*
X138650000Y-100426839D02*
X138437849Y-100638990D01*
%TO.N,/PB1*%
X140057062Y-100327062D02*
X140057062Y-100342938D01*
X140057062Y-100342938D02*
X139777000Y-100623000D01*
X139584552Y-100623000D02*
X139574004Y-100633548D01*
X139777000Y-100623000D02*
X139584552Y-100623000D01*
X139574004Y-100633548D02*
X139150399Y-100633548D01*
X139150399Y-100633548D02*
X138791403Y-100992544D01*
%TO.N,/PB0*%
X140864708Y-100264708D02*
X140179416Y-100950000D01*
X140179416Y-100950000D02*
X139720000Y-100950000D01*
X139720000Y-100950000D02*
X139323903Y-101346097D01*
X139323903Y-101346097D02*
X139144956Y-101346097D01*
%TO.N,/PA5*%
X141520000Y-95625000D02*
X141520000Y-97150710D01*
X141520000Y-97150710D02*
X143302290Y-98933000D01*
%TO.N,/PA7*%
X140592152Y-101282556D02*
X139915605Y-101282556D01*
X142161427Y-100397990D02*
X141476718Y-100397990D01*
X141476718Y-100397990D02*
X140592152Y-101282556D01*
X139915605Y-101282556D02*
X139498510Y-101699651D01*
%TO.N,/PA6*%
X139852063Y-102053204D02*
X140061365Y-102053204D01*
X143860000Y-99460000D02*
X145225000Y-99460000D01*
X140061365Y-102053204D02*
X140307896Y-101806673D01*
X140307896Y-101806673D02*
X141513327Y-101806673D01*
X141513327Y-101806673D02*
X142243000Y-101077000D01*
X142243000Y-101061709D02*
X142551709Y-100753000D01*
X142243000Y-101077000D02*
X142243000Y-101061709D01*
X142551709Y-100753000D02*
X142567000Y-100753000D01*
X142567000Y-100753000D02*
X143860000Y-99460000D01*
D36*
%TO.N,/5V*%
X133380000Y-85605000D02*
X133380000Y-86550000D01*
X133380000Y-86550000D02*
X133840000Y-87010000D01*
X133840000Y-87010000D02*
X134960000Y-87010000D01*
X134960000Y-87010000D02*
X135280000Y-86690000D01*
X135280000Y-86690000D02*
X135280000Y-85605000D01*
D35*
%TO.N,Net-(J1-GND)*%
X132210000Y-85000000D02*
X132280000Y-84930000D01*
X132280000Y-84930000D02*
X132380000Y-84930000D01*
X132380000Y-84930000D02*
X132470000Y-84840000D01*
X132470000Y-84840000D02*
X133814816Y-84840000D01*
X133814816Y-84840000D02*
X133904816Y-84930000D01*
X133910000Y-84930000D02*
X134325000Y-85345000D01*
X133904816Y-84930000D02*
X133910000Y-84930000D01*
X134325000Y-85345000D02*
X134340000Y-85345000D01*
D36*
%TO.N,+3.3V*%
X135290000Y-89530000D02*
X135120000Y-89700000D01*
X135290000Y-87620000D02*
X135290000Y-89530000D01*
D35*
X132991992Y-91568008D02*
X132991992Y-98808008D01*
X134860000Y-89700000D02*
X132991992Y-91568008D01*
X135120000Y-89700000D02*
X134860000Y-89700000D01*
%TO.N,/5V*%
X142020000Y-85410000D02*
X142020000Y-84430000D01*
X142020000Y-84430000D02*
X141256644Y-83666644D01*
D36*
X135290000Y-85736236D02*
X135290000Y-85345000D01*
X135290000Y-85345000D02*
X137365000Y-87420000D01*
X137365000Y-87420000D02*
X138860000Y-87420000D01*
X138860000Y-87420000D02*
X138860000Y-85505000D01*
X139715000Y-85505000D02*
X141256644Y-83963356D01*
X138860000Y-85505000D02*
X139715000Y-85505000D01*
X141256644Y-83963356D02*
X141256644Y-83666644D01*
X141256644Y-83666644D02*
X145225000Y-79698288D01*
X145225000Y-79698288D02*
X145225000Y-79140000D01*
D35*
%TO.N,Net-(P1-CC)*%
X132479184Y-84122972D02*
X132432156Y-84170000D01*
X136530000Y-83140000D02*
X136530000Y-84697000D01*
X136530000Y-84697000D02*
X136570000Y-84737000D01*
X132479184Y-84026236D02*
X132479184Y-84122972D01*
X132432156Y-84170000D02*
X132065000Y-84170000D01*
X132065000Y-84170000D02*
X131120000Y-85115000D01*
%TO.N,/PB13*%
X129060000Y-83470000D02*
X127350000Y-81760000D01*
X129060000Y-83830000D02*
X129060000Y-83470000D01*
%TO.N,+3.3V*%
X142250000Y-105860000D02*
X142220000Y-105830000D01*
X142220000Y-105830000D02*
X140670000Y-105830000D01*
X140670000Y-105830000D02*
X139986796Y-105146796D01*
X139986796Y-105146796D02*
X139852063Y-105146796D01*
%TO.N,/PA3*%
X140912723Y-103113864D02*
X142123864Y-103113864D01*
X142123864Y-103113864D02*
X145225000Y-106215000D01*
X145225000Y-106215000D02*
X145225000Y-107080000D01*
%TO.N,/PA5*%
X140452146Y-102160227D02*
X142670000Y-102160227D01*
X142770000Y-101280000D02*
X142770000Y-102060227D01*
X142770000Y-102060227D02*
X142670000Y-102160227D01*
%TO.N,Net-(U2-VCAP1)*%
X138370000Y-93985000D02*
X138915000Y-93985000D01*
X138915000Y-93985000D02*
X139670000Y-94740000D01*
%TO.N,Net-(D1-A)*%
X141520000Y-93975000D02*
X140853000Y-93308000D01*
X140853000Y-93308000D02*
X136004500Y-93308000D01*
X136004500Y-93308000D02*
X135270000Y-94042500D01*
D36*
%TO.N,+5V*%
X137565000Y-82530000D02*
X137565000Y-83985000D01*
X137565000Y-83985000D02*
X137440000Y-84110000D01*
X134360000Y-83423000D02*
X134360000Y-82695000D01*
X134360000Y-82695000D02*
X134525000Y-82530000D01*
D35*
%TO.N,Net-(J1-GND)*%
X136510000Y-90530000D02*
X137120000Y-89920000D01*
X137120000Y-89920000D02*
X138860000Y-89920000D01*
X136230000Y-90530000D02*
X136510000Y-90530000D01*
D36*
%TO.N,/G*%
X130110000Y-119640000D02*
X130110000Y-119390000D01*
X127350000Y-122400000D02*
X130110000Y-119640000D01*
X142320000Y-83490000D02*
X143415000Y-83490000D01*
X143415000Y-83490000D02*
X145225000Y-81680000D01*
X127350000Y-122400000D02*
X127350000Y-124940000D01*
D35*
%TO.N,BOOT0*%
X132800000Y-123180000D02*
X132800000Y-124195000D01*
X132800000Y-124195000D02*
X131580000Y-125415000D01*
%TO.N,Net-(U2-PH1)*%
X139072919Y-110147919D02*
X139166065Y-110147919D01*
X139166065Y-110147919D02*
X140501992Y-108811992D01*
%TO.N,Net-(U2-PH0)*%
X135991992Y-113171992D02*
X137460430Y-111703554D01*
X137460430Y-111703554D02*
X137517284Y-111703554D01*
%TO.N,+3.3V*%
X134538008Y-111360000D02*
X134538008Y-116488008D01*
X134538008Y-116488008D02*
X136340000Y-118290000D01*
X142250000Y-105860000D02*
X142310000Y-105860000D01*
%TO.N,Net-(U2-NRST)*%
X140340000Y-119770000D02*
X139750000Y-119180000D01*
X139750000Y-119180000D02*
X139750000Y-114280000D01*
%TO.N,RESET*%
X140570000Y-116585000D02*
X144570000Y-116585000D01*
X144570000Y-116585000D02*
X145225000Y-117240000D01*
X140340000Y-123170000D02*
X141850000Y-124680000D01*
X141850000Y-124680000D02*
X141850000Y-125325000D01*
D36*
%TO.N,+3.3V*%
X141850000Y-126975000D02*
X140348000Y-128477000D01*
X140348000Y-128477000D02*
X135052000Y-128477000D01*
X135052000Y-128477000D02*
X134725000Y-128150000D01*
X134725000Y-128150000D02*
X134725000Y-127450000D01*
X145225000Y-127400000D02*
X142275000Y-127400000D01*
X142275000Y-127400000D02*
X141850000Y-126975000D01*
X127350000Y-127480000D02*
X128200000Y-128330000D01*
X133845000Y-128330000D02*
X134725000Y-127450000D01*
X128200000Y-128330000D02*
X133845000Y-128330000D01*
D35*
X134725000Y-127450000D02*
X134725000Y-122055000D01*
X134725000Y-122055000D02*
X136410000Y-120370000D01*
X136410000Y-120370000D02*
X136410000Y-118360000D01*
X136410000Y-118360000D02*
X136340000Y-118290000D01*
X132670000Y-118115000D02*
X136165000Y-118115000D01*
X136165000Y-118115000D02*
X136340000Y-118290000D01*
%TO.N,/PC13*%
X137606849Y-108614597D02*
X137469314Y-108477062D01*
X137469314Y-108477062D02*
X137469314Y-108469289D01*
X137469314Y-108469289D02*
X137623720Y-108314883D01*
X137623720Y-108314883D02*
X137623720Y-107868201D01*
X137623720Y-107868201D02*
X137377189Y-107621670D01*
%TO.N,/PC14*%
X138257947Y-108291172D02*
X138140000Y-108173225D01*
X138140000Y-108173225D02*
X138140000Y-107677373D01*
X138140000Y-107677373D02*
X137730743Y-107268116D01*
%TO.N,/PC15*%
X138667000Y-107690166D02*
X138660166Y-107690166D01*
X138660166Y-107690166D02*
X138084296Y-107114296D01*
X138084296Y-107114296D02*
X138084296Y-106914563D01*
%TO.N,Net-(U2-PH0)*%
X138437849Y-106561010D02*
X139616839Y-107740000D01*
X139630000Y-107740000D02*
X139630000Y-108010000D01*
X139616839Y-107740000D02*
X139630000Y-107740000D01*
X139630000Y-108010000D02*
X137517284Y-110122716D01*
X137517284Y-110122716D02*
X137517284Y-111703554D01*
%TO.N,/PA4*%
X140559170Y-102760311D02*
X140805701Y-102513780D01*
X140805701Y-102513780D02*
X143198780Y-102513780D01*
X143198780Y-102513780D02*
X145225000Y-104540000D01*
%TO.N,/PA5*%
X140205616Y-102406757D02*
X140452146Y-102160227D01*
X142670000Y-102160227D02*
X145064773Y-102160227D01*
X145064773Y-102160227D02*
X145225000Y-102000000D01*
%TO.N,/PB10*%
X142510000Y-91080000D02*
X142510000Y-89475000D01*
X142510000Y-89475000D02*
X145225000Y-86760000D01*
%TO.N,+3.3V*%
X136051364Y-107975223D02*
X137023636Y-107975223D01*
%TO.N,/PB9*%
X132507000Y-114150000D02*
X132307000Y-114350000D01*
X132307000Y-114350000D02*
X132307000Y-114903000D01*
X132307000Y-114903000D02*
X127350000Y-119860000D01*
%TO.N,/PB8*%
X129710000Y-115960000D02*
X128710000Y-115960000D01*
X132670000Y-113000000D02*
X129710000Y-115960000D01*
X128710000Y-115960000D02*
X127350000Y-117320000D01*
%TO.N,Net-(U2-BOOT0)*%
X135540000Y-119200000D02*
X134960000Y-119780000D01*
X134960000Y-119780000D02*
X132800000Y-119780000D01*
%TO.N,/PA14*%
X132162277Y-104086136D02*
X130753864Y-104086136D01*
X137180000Y-125900000D02*
X137180000Y-127405000D01*
X130753864Y-104086136D02*
X130690000Y-104150000D01*
X137180000Y-127405000D02*
X137225000Y-127450000D01*
%TO.N,+3.3V*%
X130781992Y-101328008D02*
X130781992Y-101733579D01*
X130781992Y-101733579D02*
X132162277Y-103113864D01*
D36*
X143250000Y-85620000D02*
X143825000Y-85620000D01*
X143825000Y-85620000D02*
X145225000Y-84220000D01*
%TO.N,/5V*%
X133390000Y-86007499D02*
X133390000Y-85345000D01*
D35*
%TO.N,Net-(U2-PH1)*%
X138791403Y-106207456D02*
X140501992Y-107918045D01*
X140501992Y-107918045D02*
X140501992Y-108811992D01*
%TO.N,+3.3V*%
X136760000Y-96633984D02*
X136760000Y-94140000D01*
%TO.N,/PA13*%
X135585204Y-126826344D02*
X135585204Y-127060204D01*
X132013460Y-102150000D02*
X131665173Y-101801713D01*
X135585204Y-127060204D02*
X135975000Y-127450000D01*
X132612627Y-102150000D02*
X132013460Y-102150000D01*
X132869384Y-102406757D02*
X132612627Y-102150000D01*
%TD*%
%TA.AperFunction,Conductor*%
%TO.N,GND*%
G36*
X143766834Y-107780650D02*
G01*
X143822767Y-107822522D01*
X143847184Y-107887986D01*
X143847500Y-107896832D01*
X143847500Y-108582562D01*
X143858543Y-108623773D01*
X143867979Y-108658990D01*
X143874553Y-108670376D01*
X143901772Y-108717520D01*
X143901773Y-108717524D01*
X143907535Y-108727504D01*
X143907541Y-108727512D01*
X144237924Y-109057895D01*
X144271409Y-109119218D01*
X144266425Y-109188910D01*
X144264804Y-109193029D01*
X144214870Y-109313579D01*
X144214868Y-109313587D01*
X144174500Y-109516530D01*
X144174500Y-109723469D01*
X144214868Y-109926412D01*
X144214870Y-109926420D01*
X144270567Y-110060885D01*
X144294059Y-110117598D01*
X144345160Y-110194076D01*
X144409024Y-110289657D01*
X144555342Y-110435975D01*
X144555345Y-110435977D01*
X144727402Y-110550941D01*
X144918580Y-110630130D01*
X145060890Y-110658437D01*
X145121530Y-110670499D01*
X145121534Y-110670500D01*
X145121535Y-110670500D01*
X145328466Y-110670500D01*
X145328467Y-110670499D01*
X145531420Y-110630130D01*
X145722598Y-110550941D01*
X145894655Y-110435977D01*
X146040977Y-110289655D01*
X146155941Y-110117598D01*
X146210939Y-109984820D01*
X146254780Y-109930418D01*
X146321074Y-109908353D01*
X146388773Y-109925632D01*
X146436384Y-109976769D01*
X146449500Y-110032274D01*
X146449500Y-111747725D01*
X146429815Y-111814764D01*
X146377011Y-111860519D01*
X146307853Y-111870463D01*
X146244297Y-111841438D01*
X146210939Y-111795178D01*
X146155942Y-111662403D01*
X146040975Y-111490342D01*
X145894657Y-111344024D01*
X145754151Y-111250142D01*
X145722598Y-111229059D01*
X145712381Y-111224827D01*
X145531420Y-111149870D01*
X145531412Y-111149868D01*
X145328469Y-111109500D01*
X145328465Y-111109500D01*
X145121535Y-111109500D01*
X145121530Y-111109500D01*
X144918587Y-111149868D01*
X144918579Y-111149870D01*
X144727403Y-111229058D01*
X144555342Y-111344024D01*
X144409024Y-111490342D01*
X144294058Y-111662403D01*
X144214870Y-111853579D01*
X144214868Y-111853587D01*
X144174500Y-112056530D01*
X144174500Y-112263469D01*
X144214868Y-112466412D01*
X144214870Y-112466420D01*
X144251453Y-112554740D01*
X144294059Y-112657598D01*
X144332215Y-112714703D01*
X144409024Y-112829657D01*
X144555342Y-112975975D01*
X144555345Y-112975977D01*
X144727402Y-113090941D01*
X144918580Y-113170130D01*
X145121530Y-113210499D01*
X145121534Y-113210500D01*
X145121535Y-113210500D01*
X145328466Y-113210500D01*
X145328467Y-113210499D01*
X145531420Y-113170130D01*
X145722598Y-113090941D01*
X145894655Y-112975977D01*
X146040977Y-112829655D01*
X146155941Y-112657598D01*
X146210939Y-112524820D01*
X146254780Y-112470418D01*
X146321074Y-112448353D01*
X146388773Y-112465632D01*
X146436384Y-112516769D01*
X146449500Y-112572274D01*
X146449500Y-114287725D01*
X146429815Y-114354764D01*
X146377011Y-114400519D01*
X146307853Y-114410463D01*
X146244297Y-114381438D01*
X146210939Y-114335178D01*
X146155942Y-114202403D01*
X146040975Y-114030342D01*
X145894657Y-113884024D01*
X145726073Y-113771381D01*
X145722598Y-113769059D01*
X145531420Y-113689870D01*
X145531412Y-113689868D01*
X145328469Y-113649500D01*
X145328465Y-113649500D01*
X145121535Y-113649500D01*
X145121530Y-113649500D01*
X144918587Y-113689868D01*
X144918579Y-113689870D01*
X144727403Y-113769058D01*
X144555342Y-113884024D01*
X144409024Y-114030342D01*
X144294058Y-114202403D01*
X144214870Y-114393579D01*
X144214868Y-114393587D01*
X144174500Y-114596530D01*
X144174500Y-114803469D01*
X144214868Y-115006412D01*
X144214870Y-115006420D01*
X144294058Y-115197596D01*
X144409024Y-115369657D01*
X144555342Y-115515975D01*
X144555345Y-115515977D01*
X144727402Y-115630941D01*
X144918580Y-115710130D01*
X145121530Y-115750499D01*
X145121534Y-115750500D01*
X145121535Y-115750500D01*
X145328466Y-115750500D01*
X145328467Y-115750499D01*
X145531420Y-115710130D01*
X145722598Y-115630941D01*
X145894655Y-115515977D01*
X146040977Y-115369655D01*
X146155941Y-115197598D01*
X146210939Y-115064820D01*
X146254780Y-115010418D01*
X146321074Y-114988353D01*
X146388773Y-115005632D01*
X146436384Y-115056769D01*
X146449500Y-115112274D01*
X146449500Y-116827725D01*
X146429815Y-116894764D01*
X146377011Y-116940519D01*
X146307853Y-116950463D01*
X146244297Y-116921438D01*
X146210939Y-116875178D01*
X146155942Y-116742403D01*
X146040975Y-116570342D01*
X145894657Y-116424024D01*
X145758313Y-116332923D01*
X145722598Y-116309059D01*
X145712026Y-116304680D01*
X145531420Y-116229870D01*
X145531412Y-116229868D01*
X145328469Y-116189500D01*
X145328465Y-116189500D01*
X145121535Y-116189500D01*
X145121530Y-116189500D01*
X144918587Y-116229868D01*
X144918579Y-116229870D01*
X144756004Y-116297211D01*
X144686534Y-116304680D01*
X144676460Y-116302425D01*
X144609562Y-116284500D01*
X144609560Y-116284500D01*
X141335068Y-116284500D01*
X141268029Y-116264815D01*
X141224583Y-116216795D01*
X141216259Y-116200458D01*
X141168528Y-116106780D01*
X141168524Y-116106776D01*
X141168523Y-116106774D01*
X141073225Y-116011476D01*
X141073221Y-116011473D01*
X141073220Y-116011472D01*
X140953126Y-115950281D01*
X140953124Y-115950280D01*
X140953121Y-115950279D01*
X140853493Y-115934500D01*
X140853488Y-115934500D01*
X140286512Y-115934500D01*
X140193897Y-115949168D01*
X140124604Y-115940212D01*
X140071152Y-115895215D01*
X140050513Y-115828464D01*
X140050500Y-115826694D01*
X140050500Y-114465832D01*
X140070185Y-114398793D01*
X140086814Y-114378156D01*
X142769214Y-111695755D01*
X142830537Y-111662271D01*
X142856895Y-111659437D01*
X142946953Y-111659437D01*
X142946955Y-111659437D01*
X143074249Y-111625329D01*
X143188377Y-111559437D01*
X143281563Y-111466251D01*
X143347455Y-111352123D01*
X143381563Y-111224829D01*
X143381563Y-111093045D01*
X143347455Y-110965751D01*
X143281563Y-110851623D01*
X143188377Y-110758437D01*
X143104709Y-110710131D01*
X143074250Y-110692545D01*
X143002003Y-110673187D01*
X142946955Y-110658437D01*
X142815171Y-110658437D01*
X142687875Y-110692545D01*
X142573749Y-110758437D01*
X142573746Y-110758439D01*
X142480565Y-110851620D01*
X142480563Y-110851623D01*
X142414671Y-110965749D01*
X142380563Y-111093045D01*
X142380563Y-111183103D01*
X142360878Y-111250142D01*
X142344244Y-111270784D01*
X139600691Y-114014336D01*
X139575014Y-114034040D01*
X139565489Y-114039539D01*
X139509538Y-114095491D01*
X139509535Y-114095495D01*
X139469982Y-114164004D01*
X139469979Y-114164009D01*
X139459692Y-114202402D01*
X139456078Y-114215891D01*
X139449500Y-114240439D01*
X139449500Y-119039642D01*
X139429815Y-119106681D01*
X139394392Y-119142743D01*
X139345448Y-119175446D01*
X139301132Y-119241769D01*
X139301131Y-119241770D01*
X139289500Y-119300247D01*
X139289500Y-120239752D01*
X139301131Y-120298229D01*
X139301132Y-120298230D01*
X139345447Y-120364552D01*
X139411769Y-120408867D01*
X139411770Y-120408868D01*
X139470247Y-120420499D01*
X139470250Y-120420500D01*
X139470252Y-120420500D01*
X141209750Y-120420500D01*
X141209751Y-120420499D01*
X141224568Y-120417552D01*
X141268229Y-120408868D01*
X141268231Y-120408867D01*
X141334552Y-120364552D01*
X141378867Y-120298231D01*
X141378867Y-120298230D01*
X141378868Y-120298229D01*
X141390499Y-120239752D01*
X141390500Y-120239750D01*
X141390500Y-119300249D01*
X141390499Y-119300247D01*
X141378868Y-119241770D01*
X141378867Y-119241769D01*
X141334552Y-119175447D01*
X141268230Y-119131132D01*
X141268229Y-119131131D01*
X141209752Y-119119500D01*
X141209748Y-119119500D01*
X140174500Y-119119500D01*
X140107461Y-119099815D01*
X140061706Y-119047011D01*
X140050500Y-118995500D01*
X140050500Y-118945040D01*
X140070185Y-118878001D01*
X140122989Y-118832246D01*
X140192147Y-118822302D01*
X140217846Y-118828863D01*
X140217994Y-118828918D01*
X140274555Y-118834999D01*
X140419999Y-118834999D01*
X140720000Y-118834999D01*
X140865433Y-118834999D01*
X140865439Y-118834998D01*
X140922007Y-118828918D01*
X141049981Y-118781186D01*
X141049984Y-118781184D01*
X141159329Y-118699329D01*
X141241184Y-118589984D01*
X141241185Y-118589983D01*
X141288916Y-118462010D01*
X141294999Y-118405428D01*
X141295000Y-118405427D01*
X141295000Y-118285000D01*
X140720000Y-118285000D01*
X140720000Y-118834999D01*
X140419999Y-118834999D01*
X140420000Y-118834998D01*
X140420000Y-118259000D01*
X140422550Y-118250314D01*
X140421262Y-118241353D01*
X140432240Y-118217312D01*
X140439685Y-118191961D01*
X140446525Y-118186033D01*
X140450287Y-118177797D01*
X140472521Y-118163507D01*
X140492489Y-118146206D01*
X140503003Y-118143918D01*
X140509065Y-118140023D01*
X140544000Y-118135000D01*
X140570000Y-118135000D01*
X140570000Y-118109000D01*
X140589685Y-118041961D01*
X140642489Y-117996206D01*
X140694000Y-117985000D01*
X141294999Y-117985000D01*
X141294999Y-117864566D01*
X141294998Y-117864560D01*
X141288918Y-117807992D01*
X141241186Y-117680018D01*
X141241184Y-117680015D01*
X141159329Y-117570670D01*
X141049984Y-117488815D01*
X141049982Y-117488814D01*
X140952428Y-117452428D01*
X140896495Y-117410556D01*
X140872078Y-117345092D01*
X140886930Y-117276819D01*
X140936335Y-117227414D01*
X140947280Y-117222696D01*
X140953121Y-117219719D01*
X140953126Y-117219719D01*
X141073220Y-117158528D01*
X141168528Y-117063220D01*
X141224584Y-116953203D01*
X141272558Y-116902409D01*
X141335068Y-116885500D01*
X144073339Y-116885500D01*
X144093553Y-116891435D01*
X144114591Y-116892563D01*
X144126405Y-116901082D01*
X144140378Y-116905185D01*
X144154172Y-116921104D01*
X144171264Y-116933429D01*
X144176597Y-116946984D01*
X144186133Y-116957989D01*
X144189131Y-116978841D01*
X144196845Y-116998447D01*
X144195515Y-117023244D01*
X144196077Y-117027147D01*
X144194956Y-117033691D01*
X144174500Y-117136530D01*
X144174500Y-117343469D01*
X144214868Y-117546412D01*
X144214871Y-117546424D01*
X144264803Y-117666971D01*
X144272272Y-117736440D01*
X144240997Y-117798919D01*
X144237923Y-117802104D01*
X141538285Y-120501743D01*
X141471743Y-120568285D01*
X140155489Y-121884540D01*
X140099541Y-121940487D01*
X140099535Y-121940495D01*
X140059982Y-122009004D01*
X140059979Y-122009009D01*
X140039500Y-122085439D01*
X140039500Y-122395500D01*
X140019815Y-122462539D01*
X139967011Y-122508294D01*
X139915500Y-122519500D01*
X139470247Y-122519500D01*
X139411770Y-122531131D01*
X139411769Y-122531132D01*
X139345447Y-122575447D01*
X139301132Y-122641769D01*
X139301131Y-122641770D01*
X139289500Y-122700247D01*
X139289500Y-123639752D01*
X139301131Y-123698229D01*
X139301132Y-123698230D01*
X139345447Y-123764552D01*
X139411769Y-123808867D01*
X139411770Y-123808868D01*
X139470247Y-123820499D01*
X139470250Y-123820500D01*
X139470252Y-123820500D01*
X140514167Y-123820500D01*
X140581206Y-123840185D01*
X140601848Y-123856819D01*
X141352916Y-124607887D01*
X141386401Y-124669210D01*
X141381417Y-124738902D01*
X141343312Y-124789803D01*
X141343558Y-124790049D01*
X141341846Y-124791760D01*
X141339545Y-124794835D01*
X141338127Y-124795881D01*
X141336660Y-124796946D01*
X141246954Y-124886652D01*
X141246951Y-124886657D01*
X141246950Y-124886658D01*
X141227751Y-124924337D01*
X141189352Y-124999698D01*
X141174500Y-125093475D01*
X141174500Y-125556517D01*
X141180228Y-125592683D01*
X141189354Y-125650304D01*
X141246950Y-125763342D01*
X141246952Y-125763344D01*
X141246954Y-125763347D01*
X141336652Y-125853045D01*
X141336654Y-125853046D01*
X141336658Y-125853050D01*
X141449694Y-125910645D01*
X141449698Y-125910647D01*
X141543475Y-125925499D01*
X141543481Y-125925500D01*
X142156518Y-125925499D01*
X142250304Y-125910646D01*
X142363342Y-125853050D01*
X142453050Y-125763342D01*
X142510646Y-125650304D01*
X142510646Y-125650302D01*
X142510647Y-125650301D01*
X142525499Y-125556524D01*
X142525500Y-125556519D01*
X142525499Y-125093482D01*
X142510646Y-124999696D01*
X142453050Y-124886658D01*
X142453046Y-124886654D01*
X142453045Y-124886652D01*
X142363347Y-124796954D01*
X142363344Y-124796952D01*
X142363342Y-124796950D01*
X142286517Y-124757805D01*
X142250301Y-124739352D01*
X142241020Y-124736337D01*
X142241660Y-124734366D01*
X142189984Y-124709862D01*
X142153059Y-124650546D01*
X142152586Y-124648227D01*
X142150500Y-124640441D01*
X142150500Y-124640438D01*
X142130021Y-124564011D01*
X142116989Y-124541438D01*
X142090464Y-124495495D01*
X142090458Y-124495487D01*
X141411521Y-123816550D01*
X141378036Y-123755227D01*
X141377585Y-123704677D01*
X141390500Y-123639750D01*
X141390500Y-122700249D01*
X141390499Y-122700247D01*
X141378868Y-122641770D01*
X141378867Y-122641769D01*
X141334552Y-122575447D01*
X141268230Y-122531132D01*
X141268229Y-122531131D01*
X141209752Y-122519500D01*
X141209748Y-122519500D01*
X140764500Y-122519500D01*
X140755814Y-122516949D01*
X140746853Y-122518238D01*
X140722812Y-122507259D01*
X140697461Y-122499815D01*
X140691533Y-122492974D01*
X140683297Y-122489213D01*
X140669007Y-122466978D01*
X140651706Y-122447011D01*
X140649418Y-122436496D01*
X140645523Y-122430435D01*
X140640500Y-122395500D01*
X140640500Y-122300832D01*
X140660185Y-122233793D01*
X140676814Y-122213156D01*
X144662896Y-118227073D01*
X144724217Y-118193590D01*
X144793909Y-118198574D01*
X144798007Y-118200186D01*
X144918580Y-118250130D01*
X145121530Y-118290499D01*
X145121534Y-118290500D01*
X145121535Y-118290500D01*
X145328466Y-118290500D01*
X145328467Y-118290499D01*
X145531420Y-118250130D01*
X145722598Y-118170941D01*
X145894655Y-118055977D01*
X146040977Y-117909655D01*
X146155941Y-117737598D01*
X146210939Y-117604820D01*
X146254780Y-117550418D01*
X146321074Y-117528353D01*
X146388773Y-117545632D01*
X146436384Y-117596769D01*
X146449500Y-117652274D01*
X146449500Y-119367725D01*
X146429815Y-119434764D01*
X146377011Y-119480519D01*
X146307853Y-119490463D01*
X146244297Y-119461438D01*
X146210939Y-119415178D01*
X146155942Y-119282403D01*
X146040975Y-119110342D01*
X145894657Y-118964024D01*
X145758313Y-118872923D01*
X145722598Y-118849059D01*
X145688654Y-118834999D01*
X145531420Y-118769870D01*
X145531412Y-118769868D01*
X145328469Y-118729500D01*
X145328465Y-118729500D01*
X145121535Y-118729500D01*
X145121530Y-118729500D01*
X144918587Y-118769868D01*
X144918579Y-118769870D01*
X144727403Y-118849058D01*
X144555342Y-118964024D01*
X144409024Y-119110342D01*
X144294058Y-119282403D01*
X144214870Y-119473579D01*
X144214868Y-119473587D01*
X144174500Y-119676530D01*
X144174500Y-119883469D01*
X144214868Y-120086412D01*
X144214870Y-120086420D01*
X144278382Y-120239752D01*
X144294059Y-120277598D01*
X144314526Y-120308229D01*
X144409024Y-120449657D01*
X144555342Y-120595975D01*
X144555345Y-120595977D01*
X144727402Y-120710941D01*
X144918580Y-120790130D01*
X145121530Y-120830499D01*
X145121534Y-120830500D01*
X145121535Y-120830500D01*
X145328466Y-120830500D01*
X145328467Y-120830499D01*
X145531420Y-120790130D01*
X145722598Y-120710941D01*
X145894655Y-120595977D01*
X146040977Y-120449655D01*
X146155941Y-120277598D01*
X146210939Y-120144820D01*
X146254780Y-120090418D01*
X146321074Y-120068353D01*
X146388773Y-120085632D01*
X146436384Y-120136769D01*
X146449500Y-120192274D01*
X146449500Y-121907725D01*
X146429815Y-121974764D01*
X146377011Y-122020519D01*
X146307853Y-122030463D01*
X146244297Y-122001438D01*
X146210939Y-121955178D01*
X146155942Y-121822403D01*
X146040975Y-121650342D01*
X145894657Y-121504024D01*
X145736551Y-121398382D01*
X145722598Y-121389059D01*
X145641990Y-121355670D01*
X145531420Y-121309870D01*
X145531412Y-121309868D01*
X145328469Y-121269500D01*
X145328465Y-121269500D01*
X145121535Y-121269500D01*
X145121530Y-121269500D01*
X144918587Y-121309868D01*
X144918579Y-121309870D01*
X144727403Y-121389058D01*
X144555342Y-121504024D01*
X144409024Y-121650342D01*
X144294058Y-121822403D01*
X144214870Y-122013579D01*
X144214868Y-122013587D01*
X144174500Y-122216530D01*
X144174500Y-122423469D01*
X144214868Y-122626412D01*
X144214870Y-122626420D01*
X144294058Y-122817596D01*
X144409024Y-122989657D01*
X144555342Y-123135975D01*
X144555345Y-123135977D01*
X144727402Y-123250941D01*
X144918580Y-123330130D01*
X145121530Y-123370499D01*
X145121534Y-123370500D01*
X145121535Y-123370500D01*
X145328466Y-123370500D01*
X145328467Y-123370499D01*
X145531420Y-123330130D01*
X145722598Y-123250941D01*
X145894655Y-123135977D01*
X146040977Y-122989655D01*
X146155941Y-122817598D01*
X146210939Y-122684820D01*
X146254780Y-122630418D01*
X146321074Y-122608353D01*
X146388773Y-122625632D01*
X146436384Y-122676769D01*
X146449500Y-122732274D01*
X146449500Y-124447725D01*
X146429815Y-124514764D01*
X146377011Y-124560519D01*
X146307853Y-124570463D01*
X146244297Y-124541438D01*
X146210939Y-124495178D01*
X146155942Y-124362403D01*
X146040975Y-124190342D01*
X145894657Y-124044024D01*
X145758464Y-123953024D01*
X145722598Y-123929059D01*
X145531420Y-123849870D01*
X145531412Y-123849868D01*
X145328469Y-123809500D01*
X145328465Y-123809500D01*
X145121535Y-123809500D01*
X145121530Y-123809500D01*
X144918587Y-123849868D01*
X144918579Y-123849870D01*
X144727403Y-123929058D01*
X144555342Y-124044024D01*
X144409024Y-124190342D01*
X144294058Y-124362403D01*
X144214870Y-124553579D01*
X144214868Y-124553587D01*
X144174500Y-124756530D01*
X144174500Y-124963469D01*
X144214868Y-125166412D01*
X144214870Y-125166420D01*
X144294058Y-125357596D01*
X144409024Y-125529657D01*
X144555342Y-125675975D01*
X144555345Y-125675977D01*
X144727402Y-125790941D01*
X144918580Y-125870130D01*
X145121530Y-125910499D01*
X145121534Y-125910500D01*
X145121535Y-125910500D01*
X145328466Y-125910500D01*
X145328467Y-125910499D01*
X145531420Y-125870130D01*
X145722598Y-125790941D01*
X145894655Y-125675977D01*
X146040977Y-125529655D01*
X146155941Y-125357598D01*
X146210939Y-125224820D01*
X146254780Y-125170418D01*
X146321074Y-125148353D01*
X146388773Y-125165632D01*
X146436384Y-125216769D01*
X146449500Y-125272274D01*
X146449500Y-126987725D01*
X146429815Y-127054764D01*
X146377011Y-127100519D01*
X146307853Y-127110463D01*
X146244297Y-127081438D01*
X146210939Y-127035178D01*
X146155942Y-126902403D01*
X146040975Y-126730342D01*
X145894657Y-126584024D01*
X145796990Y-126518766D01*
X145722598Y-126469059D01*
X145669222Y-126446950D01*
X145531420Y-126389870D01*
X145531412Y-126389868D01*
X145328469Y-126349500D01*
X145328465Y-126349500D01*
X145121535Y-126349500D01*
X145121530Y-126349500D01*
X144918587Y-126389868D01*
X144918579Y-126389870D01*
X144727403Y-126469058D01*
X144555342Y-126584024D01*
X144409022Y-126730344D01*
X144294062Y-126902395D01*
X144294059Y-126902402D01*
X144285546Y-126922954D01*
X144241704Y-126977357D01*
X144175410Y-126999421D01*
X144170985Y-126999500D01*
X142649500Y-126999500D01*
X142582461Y-126979815D01*
X142536706Y-126927011D01*
X142525500Y-126875501D01*
X142525499Y-126743482D01*
X142522062Y-126721780D01*
X142510646Y-126649696D01*
X142453050Y-126536658D01*
X142453046Y-126536654D01*
X142453045Y-126536652D01*
X142363347Y-126446954D01*
X142363344Y-126446952D01*
X142363342Y-126446950D01*
X142286517Y-126407805D01*
X142250301Y-126389352D01*
X142156524Y-126374500D01*
X141543482Y-126374500D01*
X141462519Y-126387323D01*
X141449696Y-126389354D01*
X141336658Y-126446950D01*
X141336657Y-126446951D01*
X141336652Y-126446954D01*
X141246954Y-126536652D01*
X141246951Y-126536657D01*
X141246950Y-126536658D01*
X141233933Y-126562205D01*
X141189352Y-126649698D01*
X141174500Y-126743475D01*
X141174500Y-127032744D01*
X141154815Y-127099783D01*
X141138181Y-127120425D01*
X140218426Y-128040181D01*
X140157103Y-128073666D01*
X140130745Y-128076500D01*
X139262302Y-128076500D01*
X139195263Y-128056815D01*
X139149508Y-128004011D01*
X139139564Y-127934853D01*
X139146375Y-127910022D01*
X139146331Y-127910009D01*
X139146832Y-127908355D01*
X139147738Y-127905055D01*
X139148096Y-127904189D01*
X139148100Y-127904176D01*
X139175000Y-127768946D01*
X139175000Y-127600000D01*
X138734808Y-127600000D01*
X138754556Y-127565796D01*
X138775000Y-127489496D01*
X138775000Y-127410504D01*
X138754556Y-127334204D01*
X138734808Y-127300000D01*
X139175000Y-127300000D01*
X139175000Y-127131053D01*
X139148100Y-126995823D01*
X139148097Y-126995813D01*
X139095335Y-126868433D01*
X139095328Y-126868420D01*
X139018724Y-126753773D01*
X138921226Y-126656275D01*
X138806579Y-126579671D01*
X138806566Y-126579664D01*
X138679184Y-126526901D01*
X138679176Y-126526899D01*
X138625000Y-126516122D01*
X138625000Y-127190191D01*
X138590796Y-127170444D01*
X138514496Y-127150000D01*
X138435504Y-127150000D01*
X138359204Y-127170444D01*
X138325000Y-127190191D01*
X138325000Y-126516123D01*
X138324999Y-126516122D01*
X138270823Y-126526899D01*
X138270815Y-126526901D01*
X138143433Y-126579664D01*
X138143420Y-126579671D01*
X138028773Y-126656275D01*
X137931275Y-126753773D01*
X137922070Y-126767551D01*
X137868457Y-126812356D01*
X137799132Y-126821063D01*
X137736105Y-126790908D01*
X137731287Y-126786341D01*
X137639672Y-126694726D01*
X137639668Y-126694723D01*
X137535609Y-126625192D01*
X137530518Y-126619101D01*
X137523297Y-126615803D01*
X137508431Y-126592672D01*
X137490804Y-126571579D01*
X137488852Y-126562205D01*
X137485523Y-126557025D01*
X137480500Y-126522090D01*
X137480500Y-126358676D01*
X137500185Y-126291637D01*
X137516819Y-126270995D01*
X137580500Y-126207314D01*
X137646392Y-126093186D01*
X137680500Y-125965892D01*
X137680500Y-125834108D01*
X137646392Y-125706814D01*
X137580500Y-125592686D01*
X137487314Y-125499500D01*
X137430250Y-125466554D01*
X137373187Y-125433608D01*
X137309539Y-125416554D01*
X137245892Y-125399500D01*
X137114108Y-125399500D01*
X136986812Y-125433608D01*
X136872686Y-125499500D01*
X136872683Y-125499502D01*
X136779502Y-125592683D01*
X136779500Y-125592686D01*
X136713608Y-125706812D01*
X136698460Y-125763347D01*
X136679500Y-125834108D01*
X136679500Y-125965892D01*
X136692792Y-126015499D01*
X136713608Y-126093187D01*
X136746554Y-126150250D01*
X136779500Y-126207314D01*
X136779502Y-126207316D01*
X136843181Y-126270995D01*
X136857884Y-126297922D01*
X136874477Y-126323741D01*
X136875368Y-126329941D01*
X136876666Y-126332318D01*
X136879500Y-126358676D01*
X136879500Y-126582227D01*
X136859815Y-126649266D01*
X136824396Y-126685325D01*
X136810626Y-126694526D01*
X136810325Y-126694728D01*
X136810324Y-126694730D01*
X136719726Y-126785327D01*
X136719721Y-126785334D01*
X136703101Y-126810207D01*
X136649488Y-126855012D01*
X136580163Y-126863718D01*
X136517136Y-126833562D01*
X136496899Y-126810207D01*
X136480278Y-126785334D01*
X136480273Y-126785327D01*
X136389672Y-126694726D01*
X136389668Y-126694723D01*
X136283133Y-126623538D01*
X136283124Y-126623533D01*
X136164744Y-126574499D01*
X136164738Y-126574497D01*
X136047379Y-126551152D01*
X135985468Y-126518766D01*
X135983890Y-126517216D01*
X135892520Y-126425846D01*
X135892518Y-126425844D01*
X135826482Y-126387718D01*
X135778391Y-126359952D01*
X135714743Y-126342898D01*
X135651096Y-126325844D01*
X135519312Y-126325844D01*
X135392016Y-126359952D01*
X135277890Y-126425844D01*
X135277887Y-126425846D01*
X135237181Y-126466553D01*
X135175858Y-126500038D01*
X135106166Y-126495054D01*
X135050233Y-126453182D01*
X135025816Y-126387718D01*
X135025500Y-126378872D01*
X135025500Y-122230832D01*
X135037361Y-122190439D01*
X135685001Y-122190439D01*
X135691081Y-122247007D01*
X135738813Y-122374981D01*
X135738815Y-122374984D01*
X135820670Y-122484329D01*
X135930015Y-122566184D01*
X135930016Y-122566185D01*
X136057991Y-122613917D01*
X136057994Y-122613918D01*
X136114555Y-122619999D01*
X136259999Y-122619999D01*
X136560000Y-122619999D01*
X136705433Y-122619999D01*
X136705439Y-122619998D01*
X136762007Y-122613918D01*
X136889981Y-122566186D01*
X136889984Y-122566184D01*
X136999329Y-122484329D01*
X137081184Y-122374984D01*
X137081185Y-122374983D01*
X137128916Y-122247010D01*
X137134999Y-122190428D01*
X137135000Y-122190427D01*
X137135000Y-122070000D01*
X136560000Y-122070000D01*
X136560000Y-122619999D01*
X136259999Y-122619999D01*
X136260000Y-122619998D01*
X136260000Y-122070000D01*
X135685001Y-122070000D01*
X135685001Y-122190439D01*
X135037361Y-122190439D01*
X135045185Y-122163793D01*
X135061814Y-122143156D01*
X135473321Y-121731649D01*
X135492752Y-121721039D01*
X135509488Y-121706538D01*
X135522820Y-121704620D01*
X135534642Y-121698166D01*
X135556728Y-121699745D01*
X135578646Y-121696594D01*
X135590897Y-121702189D01*
X135604334Y-121703150D01*
X135622062Y-121716421D01*
X135642202Y-121725619D01*
X135647890Y-121734471D01*
X135648681Y-121733681D01*
X135659292Y-121744292D01*
X135660267Y-121745022D01*
X135660412Y-121745412D01*
X135685000Y-121770000D01*
X137134999Y-121770000D01*
X137134999Y-121649566D01*
X137134998Y-121649560D01*
X137128918Y-121592992D01*
X137081186Y-121465018D01*
X137081184Y-121465015D01*
X136999329Y-121355670D01*
X136889984Y-121273815D01*
X136889982Y-121273814D01*
X136792428Y-121237428D01*
X136736495Y-121195556D01*
X136712078Y-121130092D01*
X136726930Y-121061819D01*
X136776335Y-121012414D01*
X136787280Y-121007696D01*
X136793121Y-121004719D01*
X136793126Y-121004719D01*
X136913220Y-120943528D01*
X137008528Y-120848220D01*
X137069719Y-120728126D01*
X137077979Y-120675975D01*
X137085500Y-120628493D01*
X137085500Y-120111506D01*
X137069720Y-120011878D01*
X137069719Y-120011876D01*
X137069719Y-120011874D01*
X137008528Y-119891780D01*
X137008524Y-119891776D01*
X137008523Y-119891774D01*
X136913225Y-119796476D01*
X136913222Y-119796474D01*
X136913220Y-119796472D01*
X136793126Y-119735281D01*
X136793124Y-119735280D01*
X136784431Y-119730851D01*
X136785416Y-119728916D01*
X136738494Y-119696821D01*
X136711306Y-119632458D01*
X136710500Y-119618342D01*
X136710500Y-119007139D01*
X136730185Y-118940100D01*
X136778202Y-118896655D01*
X136843220Y-118863528D01*
X136938528Y-118768220D01*
X136999719Y-118648126D01*
X136999720Y-118648121D01*
X137015500Y-118548493D01*
X137015500Y-118031506D01*
X136999720Y-117931878D01*
X136999719Y-117931876D01*
X136999719Y-117931874D01*
X136938528Y-117811780D01*
X136938526Y-117811778D01*
X136938523Y-117811774D01*
X136843225Y-117716476D01*
X136843221Y-117716473D01*
X136843220Y-117716472D01*
X136723126Y-117655281D01*
X136723123Y-117655280D01*
X136714430Y-117650851D01*
X136715587Y-117648578D01*
X136669762Y-117617239D01*
X136642569Y-117552878D01*
X136654489Y-117484033D01*
X136701737Y-117432561D01*
X136722429Y-117422571D01*
X136819981Y-117386186D01*
X136819984Y-117386184D01*
X136929329Y-117304329D01*
X137011184Y-117194984D01*
X137011185Y-117194983D01*
X137058916Y-117067010D01*
X137064999Y-117010428D01*
X137065000Y-117010427D01*
X137065000Y-116890000D01*
X135615001Y-116890000D01*
X135578682Y-116926319D01*
X135576432Y-116924069D01*
X135542512Y-116953462D01*
X135473354Y-116963406D01*
X135409798Y-116934381D01*
X135403320Y-116928349D01*
X134944542Y-116469571D01*
X135615000Y-116469571D01*
X135615000Y-116590000D01*
X136190000Y-116590000D01*
X136490000Y-116590000D01*
X137064999Y-116590000D01*
X137064999Y-116469566D01*
X137064998Y-116469560D01*
X137058918Y-116412992D01*
X137011186Y-116285018D01*
X137011184Y-116285015D01*
X136929329Y-116175670D01*
X136819984Y-116093815D01*
X136819983Y-116093814D01*
X136692010Y-116046083D01*
X136635428Y-116040000D01*
X136490000Y-116040000D01*
X136490000Y-116590000D01*
X136190000Y-116590000D01*
X136190000Y-116040000D01*
X136044566Y-116040000D01*
X136044559Y-116040001D01*
X135987992Y-116046081D01*
X135860018Y-116093813D01*
X135860015Y-116093815D01*
X135750670Y-116175670D01*
X135668815Y-116285015D01*
X135668814Y-116285016D01*
X135621083Y-116412989D01*
X135615000Y-116469571D01*
X134944542Y-116469571D01*
X134874827Y-116399856D01*
X134841342Y-116338533D01*
X134838508Y-116312175D01*
X134838508Y-114886725D01*
X136681421Y-114886725D01*
X136766587Y-114971890D01*
X136810886Y-115007589D01*
X136810891Y-115007592D01*
X136935128Y-115064329D01*
X137070330Y-115083768D01*
X137205529Y-115064330D01*
X137205536Y-115064328D01*
X137329769Y-115007592D01*
X137329774Y-115007589D01*
X137374077Y-114971887D01*
X137476916Y-114869047D01*
X137088009Y-114480140D01*
X137088008Y-114480140D01*
X136681421Y-114886725D01*
X134838508Y-114886725D01*
X134838508Y-110418816D01*
X134858193Y-110351777D01*
X134874827Y-110331135D01*
X135020835Y-110185127D01*
X135198437Y-110007525D01*
X135257733Y-109925911D01*
X135299384Y-109797723D01*
X135299384Y-109662937D01*
X135299382Y-109662932D01*
X135299130Y-109661339D01*
X135299384Y-109659373D01*
X135299384Y-109653178D01*
X135300184Y-109653178D01*
X135308083Y-109592045D01*
X135353077Y-109538591D01*
X135419828Y-109517949D01*
X135487142Y-109536671D01*
X135509284Y-109554255D01*
X136323181Y-110368152D01*
X136356666Y-110429475D01*
X136359500Y-110455833D01*
X136359500Y-110545891D01*
X136393608Y-110673187D01*
X136414938Y-110710131D01*
X136459500Y-110787314D01*
X136552686Y-110880500D01*
X136666814Y-110946392D01*
X136794108Y-110980500D01*
X136794110Y-110980500D01*
X136808898Y-110980500D01*
X136875937Y-111000185D01*
X136921692Y-111052989D01*
X136931636Y-111122147D01*
X136902611Y-111185703D01*
X136896579Y-111192181D01*
X136594679Y-111494080D01*
X136575173Y-111517622D01*
X136516251Y-111639977D01*
X136500813Y-111742403D01*
X136496010Y-111774265D01*
X136516251Y-111908552D01*
X136575174Y-112030907D01*
X136578448Y-112037705D01*
X136576390Y-112038695D01*
X136592844Y-112094916D01*
X136573100Y-112161938D01*
X136556525Y-112182487D01*
X136320490Y-112418521D01*
X136259167Y-112452006D01*
X136194490Y-112448771D01*
X136101392Y-112418521D01*
X136077064Y-112410616D01*
X136077063Y-112410616D01*
X135942277Y-112410616D01*
X135942275Y-112410616D01*
X135814089Y-112452267D01*
X135814086Y-112452268D01*
X135732478Y-112511560D01*
X135732472Y-112511565D01*
X135331565Y-112912472D01*
X135331560Y-112912478D01*
X135272268Y-112994086D01*
X135272267Y-112994089D01*
X135230616Y-113122275D01*
X135230616Y-113257064D01*
X135272267Y-113385249D01*
X135272268Y-113385252D01*
X135305876Y-113431509D01*
X135331563Y-113466864D01*
X135697120Y-113832421D01*
X135778734Y-113891717D01*
X135906921Y-113933368D01*
X135906922Y-113933368D01*
X136041706Y-113933368D01*
X136041707Y-113933368D01*
X136169895Y-113891717D01*
X136169896Y-113891716D01*
X136179176Y-113888701D01*
X136179965Y-113891130D01*
X136234493Y-113880878D01*
X136299239Y-113907141D01*
X136339508Y-113964239D01*
X136342514Y-114034044D01*
X136334939Y-114055773D01*
X136291686Y-114150485D01*
X136291685Y-114150486D01*
X136272247Y-114285686D01*
X136291685Y-114420885D01*
X136348425Y-114545127D01*
X136348428Y-114545132D01*
X136384124Y-114589428D01*
X136469289Y-114674593D01*
X136875877Y-114268007D01*
X137300140Y-114268007D01*
X137300140Y-114268008D01*
X137689047Y-114656915D01*
X137791887Y-114554076D01*
X137827588Y-114509776D01*
X137827593Y-114509767D01*
X137884328Y-114385536D01*
X137884330Y-114385529D01*
X137903768Y-114250330D01*
X137884330Y-114115130D01*
X137827590Y-113990888D01*
X137827587Y-113990883D01*
X137791889Y-113946584D01*
X137706726Y-113861421D01*
X137706725Y-113861421D01*
X137300140Y-114268007D01*
X136875877Y-114268007D01*
X136981942Y-114161942D01*
X137014919Y-114128965D01*
X137494594Y-113649289D01*
X137409428Y-113564125D01*
X137365129Y-113528426D01*
X137365124Y-113528423D01*
X137240887Y-113471686D01*
X137105686Y-113452247D01*
X136970486Y-113471685D01*
X136970485Y-113471686D01*
X136875773Y-113514939D01*
X136806614Y-113524882D01*
X136743058Y-113495856D01*
X136705285Y-113437078D01*
X136705285Y-113367208D01*
X136709689Y-113356132D01*
X136711714Y-113349898D01*
X136711717Y-113349895D01*
X136753368Y-113221707D01*
X136753368Y-113086921D01*
X136715211Y-112969490D01*
X136713217Y-112899650D01*
X136745460Y-112843493D01*
X136976914Y-112612039D01*
X137038234Y-112578557D01*
X137107926Y-112583541D01*
X137152273Y-112612042D01*
X137166394Y-112626163D01*
X137189931Y-112645664D01*
X137312286Y-112704587D01*
X137446573Y-112724828D01*
X137576593Y-112705230D01*
X137645816Y-112714703D01*
X137698930Y-112760097D01*
X137719070Y-112827001D01*
X137717688Y-112846326D01*
X137698091Y-112976345D01*
X137698091Y-112976346D01*
X137718332Y-113110633D01*
X137746707Y-113169555D01*
X137777254Y-113232987D01*
X137777255Y-113232988D01*
X137796756Y-113256525D01*
X138368475Y-113828244D01*
X138392012Y-113847745D01*
X138514367Y-113906668D01*
X138648654Y-113926909D01*
X138782942Y-113906668D01*
X138905297Y-113847745D01*
X138928834Y-113828244D01*
X139641974Y-113115104D01*
X139661475Y-113091567D01*
X139720398Y-112969212D01*
X139740639Y-112834924D01*
X139720398Y-112700637D01*
X139661475Y-112578282D01*
X139641974Y-112554745D01*
X139070255Y-111983026D01*
X139046718Y-111963525D01*
X139046717Y-111963524D01*
X138941849Y-111913023D01*
X138924363Y-111904602D01*
X138790076Y-111884361D01*
X138790075Y-111884361D01*
X138660056Y-111903958D01*
X138590832Y-111894485D01*
X138537718Y-111849090D01*
X138517578Y-111782186D01*
X138518959Y-111762868D01*
X138538558Y-111632843D01*
X138518317Y-111498556D01*
X138459394Y-111376201D01*
X138439893Y-111352664D01*
X137868174Y-110780945D01*
X137866652Y-110779684D01*
X137862664Y-110776379D01*
X137823605Y-110718446D01*
X137817784Y-110680901D01*
X137817784Y-110321726D01*
X137837469Y-110254687D01*
X137890273Y-110208932D01*
X137959431Y-110198988D01*
X138022987Y-110228013D01*
X138060761Y-110286791D01*
X138064398Y-110303241D01*
X138071886Y-110352917D01*
X138078887Y-110367454D01*
X138130808Y-110475271D01*
X138130809Y-110475272D01*
X138150310Y-110498809D01*
X138722029Y-111070528D01*
X138745566Y-111090029D01*
X138867921Y-111148952D01*
X139002208Y-111169193D01*
X139132228Y-111149595D01*
X139201451Y-111159068D01*
X139254565Y-111204462D01*
X139274705Y-111271366D01*
X139273323Y-111290691D01*
X139263438Y-111356277D01*
X139253726Y-111420711D01*
X139273967Y-111554998D01*
X139281358Y-111570345D01*
X139332889Y-111677352D01*
X139332890Y-111677353D01*
X139352391Y-111700890D01*
X139924110Y-112272609D01*
X139947647Y-112292110D01*
X140070002Y-112351033D01*
X140204289Y-112371274D01*
X140338577Y-112351033D01*
X140460932Y-112292110D01*
X140484469Y-112272609D01*
X141197609Y-111559469D01*
X141217110Y-111535932D01*
X141276033Y-111413577D01*
X141296274Y-111279289D01*
X141276033Y-111145002D01*
X141217110Y-111022647D01*
X141197609Y-110999110D01*
X140725224Y-110526725D01*
X141191421Y-110526725D01*
X141276587Y-110611890D01*
X141320886Y-110647589D01*
X141320891Y-110647592D01*
X141445128Y-110704329D01*
X141580330Y-110723768D01*
X141715529Y-110704330D01*
X141715536Y-110704328D01*
X141839769Y-110647592D01*
X141839774Y-110647589D01*
X141884077Y-110611887D01*
X141986916Y-110509047D01*
X141598007Y-110120138D01*
X141191421Y-110526725D01*
X140725224Y-110526725D01*
X140625890Y-110427391D01*
X140602353Y-110407890D01*
X140602352Y-110407889D01*
X140519836Y-110368152D01*
X140479998Y-110348967D01*
X140345711Y-110328726D01*
X140345710Y-110328726D01*
X140215691Y-110348323D01*
X140146467Y-110338850D01*
X140093353Y-110293455D01*
X140073213Y-110226551D01*
X140074594Y-110207233D01*
X140094193Y-110077208D01*
X140073952Y-109942921D01*
X140021789Y-109834604D01*
X140017992Y-109811547D01*
X140009826Y-109789651D01*
X140012422Y-109777716D01*
X140010438Y-109765666D01*
X140019710Y-109744215D01*
X140024678Y-109721378D01*
X140036281Y-109705877D01*
X140038160Y-109701531D01*
X140045800Y-109693153D01*
X140173494Y-109565459D01*
X140234815Y-109531977D01*
X140299490Y-109535211D01*
X140416921Y-109573368D01*
X140416922Y-109573368D01*
X140551706Y-109573368D01*
X140551707Y-109573368D01*
X140679895Y-109531717D01*
X140679896Y-109531716D01*
X140689176Y-109528701D01*
X140689965Y-109531130D01*
X140744493Y-109520878D01*
X140809239Y-109547141D01*
X140849508Y-109604239D01*
X140852514Y-109674044D01*
X140844939Y-109695773D01*
X140801686Y-109790485D01*
X140801685Y-109790486D01*
X140782247Y-109925686D01*
X140801685Y-110060885D01*
X140858425Y-110185127D01*
X140858428Y-110185132D01*
X140894124Y-110229428D01*
X140979289Y-110314593D01*
X141404260Y-109889622D01*
X141412205Y-109885283D01*
X141417631Y-109878036D01*
X141442390Y-109868801D01*
X141465583Y-109856137D01*
X141474612Y-109856782D01*
X141483095Y-109853619D01*
X141508915Y-109859235D01*
X141535274Y-109861121D01*
X141544327Y-109866939D01*
X141551368Y-109868471D01*
X141579622Y-109889622D01*
X141598007Y-109908007D01*
X141616394Y-109889622D01*
X141677718Y-109856137D01*
X141747409Y-109861123D01*
X141791755Y-109889623D01*
X142199047Y-110296915D01*
X142301887Y-110194076D01*
X142337588Y-110149776D01*
X142337593Y-110149767D01*
X142394328Y-110025536D01*
X142394330Y-110025529D01*
X142413768Y-109890330D01*
X142394330Y-109755130D01*
X142337590Y-109630888D01*
X142337587Y-109630883D01*
X142301889Y-109586584D01*
X142223269Y-109507964D01*
X142189784Y-109446641D01*
X142194768Y-109376949D01*
X142236640Y-109321016D01*
X142278858Y-109300508D01*
X142278888Y-109300500D01*
X142278892Y-109300500D01*
X142406186Y-109266392D01*
X142520314Y-109200500D01*
X142613500Y-109107314D01*
X142679392Y-108993186D01*
X142713500Y-108865892D01*
X142713500Y-108782832D01*
X142733185Y-108715793D01*
X142749819Y-108695151D01*
X143202908Y-108242062D01*
X143635821Y-107809149D01*
X143697142Y-107775666D01*
X143766834Y-107780650D01*
G37*
%TD.AperFunction*%
%TA.AperFunction,Conductor*%
G36*
X131846693Y-109093706D02*
G01*
X131848805Y-109095769D01*
X134201189Y-111448152D01*
X134234674Y-111509475D01*
X134237508Y-111535833D01*
X134237508Y-116527570D01*
X134248969Y-116570342D01*
X134257987Y-116603998D01*
X134257990Y-116604003D01*
X134297543Y-116672512D01*
X134297549Y-116672520D01*
X135227848Y-117602819D01*
X135261333Y-117664142D01*
X135256349Y-117733834D01*
X135214477Y-117789767D01*
X135149013Y-117814184D01*
X135140167Y-117814500D01*
X133435068Y-117814500D01*
X133368029Y-117794815D01*
X133324583Y-117746795D01*
X133319307Y-117736440D01*
X133268528Y-117636780D01*
X133268524Y-117636776D01*
X133268523Y-117636774D01*
X133173225Y-117541476D01*
X133173221Y-117541473D01*
X133173220Y-117541472D01*
X133053126Y-117480281D01*
X133053123Y-117480280D01*
X133044430Y-117475851D01*
X133045587Y-117473578D01*
X132999762Y-117442239D01*
X132972569Y-117377878D01*
X132984489Y-117309033D01*
X133031737Y-117257561D01*
X133052429Y-117247571D01*
X133149981Y-117211186D01*
X133149984Y-117211184D01*
X133259329Y-117129329D01*
X133341184Y-117019984D01*
X133341185Y-117019983D01*
X133388916Y-116892010D01*
X133394999Y-116835428D01*
X133395000Y-116835427D01*
X133395000Y-116715000D01*
X131945001Y-116715000D01*
X131945001Y-116835439D01*
X131951081Y-116892007D01*
X131998813Y-117019981D01*
X131998815Y-117019984D01*
X132080670Y-117129329D01*
X132190015Y-117211184D01*
X132190018Y-117211186D01*
X132287570Y-117247571D01*
X132343504Y-117289442D01*
X132367921Y-117354907D01*
X132353069Y-117423180D01*
X132303664Y-117472585D01*
X132292717Y-117477304D01*
X132286874Y-117480280D01*
X132286874Y-117480281D01*
X132180203Y-117534632D01*
X132166778Y-117541473D01*
X132166774Y-117541476D01*
X132071476Y-117636774D01*
X132071473Y-117636778D01*
X132071472Y-117636780D01*
X132022021Y-117733834D01*
X132010279Y-117756878D01*
X131994500Y-117856506D01*
X131994500Y-118373493D01*
X132010279Y-118473121D01*
X132010280Y-118473124D01*
X132010281Y-118473126D01*
X132071472Y-118593220D01*
X132071473Y-118593221D01*
X132071476Y-118593225D01*
X132166774Y-118688523D01*
X132166778Y-118688526D01*
X132166780Y-118688528D01*
X132286874Y-118749719D01*
X132286876Y-118749719D01*
X132286878Y-118749720D01*
X132386507Y-118765500D01*
X132386512Y-118765500D01*
X132953493Y-118765500D01*
X133053121Y-118749720D01*
X133053121Y-118749719D01*
X133053126Y-118749719D01*
X133173220Y-118688528D01*
X133268528Y-118593220D01*
X133324584Y-118483203D01*
X133372558Y-118432409D01*
X133435068Y-118415500D01*
X135540500Y-118415500D01*
X135544619Y-118416709D01*
X135548809Y-118415779D01*
X135577852Y-118426468D01*
X135607539Y-118435185D01*
X135610348Y-118438427D01*
X135614379Y-118439911D01*
X135633036Y-118464610D01*
X135653294Y-118487989D01*
X135654638Y-118493207D01*
X135656492Y-118495662D01*
X135659472Y-118511980D01*
X135664144Y-118530117D01*
X135664500Y-118534808D01*
X135664500Y-118548488D01*
X135666493Y-118561072D01*
X135666876Y-118566117D01*
X135660607Y-118595549D01*
X135656750Y-118625396D01*
X135653403Y-118629371D01*
X135652321Y-118634454D01*
X135631135Y-118655824D01*
X135611754Y-118678848D01*
X135606788Y-118680383D01*
X135603131Y-118684073D01*
X135573753Y-118690597D01*
X135545002Y-118699487D01*
X135543232Y-118699500D01*
X135474108Y-118699500D01*
X135346812Y-118733608D01*
X135232686Y-118799500D01*
X135232683Y-118799502D01*
X135139502Y-118892683D01*
X135139500Y-118892686D01*
X135073608Y-119006812D01*
X135039500Y-119134108D01*
X135039500Y-119224166D01*
X135030854Y-119253609D01*
X135024332Y-119283592D01*
X135020577Y-119288607D01*
X135019815Y-119291205D01*
X135003185Y-119311842D01*
X134871846Y-119443182D01*
X134810526Y-119476666D01*
X134784167Y-119479500D01*
X133974500Y-119479500D01*
X133907461Y-119459815D01*
X133861706Y-119407011D01*
X133850500Y-119355500D01*
X133850500Y-119310249D01*
X133850499Y-119310247D01*
X133838868Y-119251770D01*
X133838867Y-119251769D01*
X133794552Y-119185447D01*
X133728230Y-119141132D01*
X133728229Y-119141131D01*
X133669752Y-119129500D01*
X133669748Y-119129500D01*
X131930252Y-119129500D01*
X131930247Y-119129500D01*
X131871770Y-119141131D01*
X131871769Y-119141132D01*
X131805447Y-119185447D01*
X131761132Y-119251769D01*
X131761131Y-119251770D01*
X131749500Y-119310247D01*
X131749500Y-120249752D01*
X131761131Y-120308229D01*
X131761132Y-120308230D01*
X131805447Y-120374552D01*
X131871769Y-120418867D01*
X131871770Y-120418868D01*
X131930247Y-120430499D01*
X131930250Y-120430500D01*
X131930252Y-120430500D01*
X133669750Y-120430500D01*
X133669751Y-120430499D01*
X133684568Y-120427552D01*
X133728229Y-120418868D01*
X133728229Y-120418867D01*
X133728231Y-120418867D01*
X133794552Y-120374552D01*
X133838867Y-120308231D01*
X133838867Y-120308229D01*
X133838868Y-120308229D01*
X133850499Y-120249752D01*
X133850500Y-120249750D01*
X133850500Y-120204500D01*
X133870185Y-120137461D01*
X133922989Y-120091706D01*
X133974500Y-120080500D01*
X134999560Y-120080500D01*
X134999562Y-120080500D01*
X135075989Y-120060021D01*
X135144511Y-120020460D01*
X135200460Y-119964511D01*
X135428151Y-119736818D01*
X135447947Y-119726009D01*
X135465099Y-119711353D01*
X135481029Y-119707945D01*
X135489474Y-119703334D01*
X135499031Y-119701643D01*
X135507389Y-119700500D01*
X135605892Y-119700500D01*
X135708568Y-119672988D01*
X135716299Y-119671931D01*
X135743430Y-119676023D01*
X135770856Y-119676676D01*
X135777478Y-119681158D01*
X135785387Y-119682351D01*
X135805998Y-119700460D01*
X135828718Y-119715838D01*
X135831866Y-119723189D01*
X135837875Y-119728469D01*
X135845423Y-119754847D01*
X135856223Y-119780066D01*
X135854896Y-119787953D01*
X135857097Y-119795642D01*
X135849186Y-119821911D01*
X135844637Y-119848969D01*
X135838402Y-119857724D01*
X135836951Y-119862545D01*
X135831891Y-119866868D01*
X135820784Y-119882467D01*
X135811474Y-119891776D01*
X135811473Y-119891778D01*
X135750279Y-120011878D01*
X135734500Y-120111506D01*
X135734500Y-120569167D01*
X135714815Y-120636206D01*
X135698181Y-120656848D01*
X134484541Y-121870487D01*
X134484535Y-121870495D01*
X134444982Y-121939004D01*
X134444979Y-121939009D01*
X134424500Y-122015439D01*
X134424500Y-126459932D01*
X134404815Y-126526971D01*
X134356796Y-126570415D01*
X134246780Y-126626472D01*
X134246779Y-126626473D01*
X134246774Y-126626476D01*
X134151476Y-126721774D01*
X134151473Y-126721778D01*
X134151472Y-126721780D01*
X134106113Y-126810803D01*
X134090279Y-126841878D01*
X134074500Y-126941506D01*
X134074500Y-127482745D01*
X134054815Y-127549784D01*
X134038181Y-127570426D01*
X133715426Y-127893181D01*
X133654103Y-127926666D01*
X133627745Y-127929500D01*
X132048264Y-127929500D01*
X131981225Y-127909815D01*
X131935470Y-127857011D01*
X131925526Y-127787853D01*
X131954551Y-127724297D01*
X132007310Y-127688458D01*
X132067645Y-127667346D01*
X132176792Y-127586792D01*
X132257346Y-127477645D01*
X132302149Y-127349604D01*
X132302149Y-127349600D01*
X132305000Y-127319206D01*
X132305000Y-127215000D01*
X130855001Y-127215000D01*
X130855001Y-127319196D01*
X130857851Y-127349606D01*
X130902653Y-127477645D01*
X130983207Y-127586792D01*
X131092354Y-127667346D01*
X131152689Y-127688458D01*
X131209465Y-127729180D01*
X131235213Y-127794132D01*
X131221757Y-127862694D01*
X131173370Y-127913097D01*
X131111735Y-127929500D01*
X128482764Y-127929500D01*
X128415725Y-127909815D01*
X128369970Y-127857011D01*
X128360026Y-127787853D01*
X128361147Y-127781309D01*
X128397462Y-127598738D01*
X128400500Y-127583465D01*
X128400500Y-127376535D01*
X128360130Y-127173580D01*
X128280941Y-126982402D01*
X128279212Y-126979815D01*
X128210374Y-126876790D01*
X128210372Y-126876788D01*
X128209512Y-126875501D01*
X128166276Y-126810793D01*
X130855000Y-126810793D01*
X130855000Y-126915000D01*
X131430000Y-126915000D01*
X131730000Y-126915000D01*
X132304999Y-126915000D01*
X132304999Y-126810803D01*
X132302148Y-126780393D01*
X132257346Y-126652354D01*
X132176792Y-126543207D01*
X132067645Y-126462653D01*
X131939602Y-126417850D01*
X131909207Y-126415000D01*
X131730000Y-126415000D01*
X131730000Y-126915000D01*
X131430000Y-126915000D01*
X131430000Y-126415000D01*
X131250804Y-126415000D01*
X131220393Y-126417851D01*
X131092354Y-126462653D01*
X130983207Y-126543207D01*
X130902653Y-126652354D01*
X130857850Y-126780395D01*
X130857850Y-126780399D01*
X130855000Y-126810793D01*
X128166276Y-126810793D01*
X128165977Y-126810345D01*
X128165975Y-126810342D01*
X128019657Y-126664024D01*
X127899927Y-126584024D01*
X127847598Y-126549059D01*
X127794099Y-126526899D01*
X127656420Y-126469870D01*
X127656412Y-126469868D01*
X127453469Y-126429500D01*
X127453465Y-126429500D01*
X127246535Y-126429500D01*
X127246530Y-126429500D01*
X127043587Y-126469868D01*
X127043579Y-126469870D01*
X126852403Y-126549058D01*
X126680342Y-126664024D01*
X126534024Y-126810342D01*
X126419057Y-126982403D01*
X126339061Y-127175533D01*
X126295220Y-127229936D01*
X126228926Y-127252001D01*
X126161226Y-127234722D01*
X126113616Y-127183584D01*
X126100500Y-127128080D01*
X126100500Y-125291919D01*
X126120185Y-125224880D01*
X126172989Y-125179125D01*
X126242147Y-125169181D01*
X126305703Y-125198206D01*
X126339061Y-125244466D01*
X126339869Y-125246418D01*
X126339870Y-125246420D01*
X126385921Y-125357596D01*
X126419058Y-125437596D01*
X126534024Y-125609657D01*
X126680342Y-125755975D01*
X126680345Y-125755977D01*
X126852402Y-125870941D01*
X127043580Y-125950130D01*
X127246530Y-125990499D01*
X127246534Y-125990500D01*
X127246535Y-125990500D01*
X127453466Y-125990500D01*
X127453467Y-125990499D01*
X127656420Y-125950130D01*
X127847598Y-125870941D01*
X128019655Y-125755977D01*
X128165977Y-125609655D01*
X128280941Y-125437598D01*
X128360130Y-125246420D01*
X128372649Y-125183482D01*
X128372650Y-125183475D01*
X130904500Y-125183475D01*
X130904500Y-125646517D01*
X130909166Y-125675975D01*
X130919354Y-125740304D01*
X130976950Y-125853342D01*
X130976952Y-125853344D01*
X130976954Y-125853347D01*
X131066652Y-125943045D01*
X131066654Y-125943046D01*
X131066658Y-125943050D01*
X131179694Y-126000645D01*
X131179698Y-126000647D01*
X131273475Y-126015499D01*
X131273481Y-126015500D01*
X131886518Y-126015499D01*
X131980304Y-126000646D01*
X132093342Y-125943050D01*
X132183050Y-125853342D01*
X132240646Y-125740304D01*
X132240646Y-125740302D01*
X132240647Y-125740301D01*
X132251282Y-125673147D01*
X132255500Y-125646519D01*
X132255499Y-125215831D01*
X132275183Y-125148793D01*
X132291813Y-125128156D01*
X133040460Y-124379511D01*
X133080022Y-124310988D01*
X133100500Y-124234562D01*
X133100500Y-124155438D01*
X133100500Y-123954500D01*
X133120185Y-123887461D01*
X133172989Y-123841706D01*
X133224500Y-123830500D01*
X133669750Y-123830500D01*
X133669751Y-123830499D01*
X133684568Y-123827552D01*
X133728229Y-123818868D01*
X133728229Y-123818867D01*
X133728231Y-123818867D01*
X133794552Y-123774552D01*
X133838867Y-123708231D01*
X133838867Y-123708229D01*
X133838868Y-123708229D01*
X133850499Y-123649752D01*
X133850500Y-123649750D01*
X133850500Y-122710249D01*
X133850499Y-122710247D01*
X133838868Y-122651770D01*
X133838867Y-122651769D01*
X133794552Y-122585447D01*
X133728230Y-122541132D01*
X133728229Y-122541131D01*
X133669752Y-122529500D01*
X133669748Y-122529500D01*
X131930252Y-122529500D01*
X131930247Y-122529500D01*
X131871770Y-122541131D01*
X131871769Y-122541132D01*
X131805447Y-122585447D01*
X131761132Y-122651769D01*
X131761131Y-122651770D01*
X131749500Y-122710247D01*
X131749500Y-123649752D01*
X131761131Y-123708229D01*
X131761132Y-123708230D01*
X131805447Y-123774552D01*
X131871769Y-123818867D01*
X131871770Y-123818868D01*
X131930247Y-123830499D01*
X131930250Y-123830500D01*
X131930252Y-123830500D01*
X132375500Y-123830500D01*
X132384185Y-123833050D01*
X132393147Y-123831762D01*
X132417187Y-123842740D01*
X132442539Y-123850185D01*
X132448466Y-123857025D01*
X132456703Y-123860787D01*
X132470992Y-123883021D01*
X132488294Y-123902989D01*
X132490581Y-123913503D01*
X132494477Y-123919565D01*
X132499500Y-123954500D01*
X132499500Y-124019166D01*
X132479815Y-124086205D01*
X132463181Y-124106847D01*
X131791846Y-124778181D01*
X131730523Y-124811666D01*
X131704165Y-124814500D01*
X131273482Y-124814500D01*
X131192519Y-124827323D01*
X131179696Y-124829354D01*
X131066658Y-124886950D01*
X131066657Y-124886951D01*
X131066652Y-124886954D01*
X130976954Y-124976652D01*
X130976951Y-124976657D01*
X130976950Y-124976658D01*
X130957751Y-125014337D01*
X130919352Y-125089698D01*
X130904500Y-125183475D01*
X128372650Y-125183475D01*
X128378431Y-125154418D01*
X128400499Y-125043469D01*
X128400500Y-125043466D01*
X128400500Y-124836534D01*
X128400499Y-124836530D01*
X128384586Y-124756530D01*
X128360130Y-124633580D01*
X128280941Y-124442402D01*
X128165977Y-124270345D01*
X128165975Y-124270342D01*
X128019655Y-124124022D01*
X127847604Y-124009062D01*
X127847599Y-124009060D01*
X127847598Y-124009059D01*
X127827045Y-124000545D01*
X127772643Y-123956704D01*
X127750579Y-123890410D01*
X127750500Y-123885985D01*
X127750500Y-123454014D01*
X127770185Y-123386975D01*
X127822989Y-123341220D01*
X127827048Y-123339453D01*
X127847598Y-123330941D01*
X128019655Y-123215977D01*
X128165977Y-123069655D01*
X128280941Y-122897598D01*
X128360130Y-122706420D01*
X128400500Y-122503465D01*
X128400500Y-122296535D01*
X128360130Y-122093580D01*
X128356758Y-122085439D01*
X128351617Y-122073027D01*
X128344148Y-122003558D01*
X128375423Y-121941079D01*
X128378468Y-121937923D01*
X130430480Y-119885913D01*
X130468282Y-119820438D01*
X130483207Y-119794587D01*
X130503981Y-119717052D01*
X130516366Y-119687153D01*
X130576392Y-119583186D01*
X130610500Y-119455892D01*
X130610500Y-119324108D01*
X130576392Y-119196814D01*
X130510500Y-119082686D01*
X130417314Y-118989500D01*
X130360250Y-118956554D01*
X130303187Y-118923608D01*
X130220393Y-118901424D01*
X130175892Y-118889500D01*
X130044108Y-118889500D01*
X129916812Y-118923608D01*
X129802686Y-118989500D01*
X129802683Y-118989502D01*
X129709502Y-119082683D01*
X129709500Y-119082686D01*
X129643608Y-119196812D01*
X129609500Y-119324108D01*
X129609500Y-119455891D01*
X129615953Y-119479976D01*
X129614288Y-119549826D01*
X129583858Y-119599747D01*
X127812103Y-121371502D01*
X127750780Y-121404987D01*
X127681088Y-121400003D01*
X127676983Y-121398387D01*
X127656420Y-121389870D01*
X127656412Y-121389868D01*
X127453469Y-121349500D01*
X127453465Y-121349500D01*
X127246535Y-121349500D01*
X127246530Y-121349500D01*
X127043587Y-121389868D01*
X127043579Y-121389870D01*
X126852403Y-121469058D01*
X126680342Y-121584024D01*
X126534024Y-121730342D01*
X126419057Y-121902403D01*
X126339061Y-122095533D01*
X126295220Y-122149936D01*
X126228926Y-122172001D01*
X126161226Y-122154722D01*
X126113616Y-122103584D01*
X126100500Y-122048080D01*
X126100500Y-120211919D01*
X126120185Y-120144880D01*
X126172989Y-120099125D01*
X126242147Y-120089181D01*
X126305703Y-120118206D01*
X126339061Y-120164466D01*
X126339869Y-120166418D01*
X126339870Y-120166420D01*
X126419059Y-120357598D01*
X126467770Y-120430499D01*
X126534024Y-120529657D01*
X126680342Y-120675975D01*
X126680345Y-120675977D01*
X126852402Y-120790941D01*
X127043580Y-120870130D01*
X127246530Y-120910499D01*
X127246534Y-120910500D01*
X127246535Y-120910500D01*
X127453466Y-120910500D01*
X127453467Y-120910499D01*
X127656420Y-120870130D01*
X127847598Y-120790941D01*
X128019655Y-120675977D01*
X128165977Y-120529655D01*
X128280941Y-120357598D01*
X128360130Y-120166420D01*
X128400500Y-119963465D01*
X128400500Y-119756535D01*
X128360130Y-119553580D01*
X128310194Y-119433026D01*
X128302726Y-119363559D01*
X128334001Y-119301080D01*
X128337047Y-119297922D01*
X131340399Y-116294571D01*
X131945000Y-116294571D01*
X131945000Y-116415000D01*
X132520000Y-116415000D01*
X132820000Y-116415000D01*
X133394999Y-116415000D01*
X133394999Y-116294566D01*
X133394998Y-116294560D01*
X133388918Y-116237992D01*
X133341186Y-116110018D01*
X133341184Y-116110015D01*
X133259329Y-116000670D01*
X133149984Y-115918815D01*
X133149983Y-115918814D01*
X133022010Y-115871083D01*
X132965428Y-115865000D01*
X132820000Y-115865000D01*
X132820000Y-116415000D01*
X132520000Y-116415000D01*
X132520000Y-115865000D01*
X132374566Y-115865000D01*
X132374559Y-115865001D01*
X132317992Y-115871081D01*
X132190018Y-115918813D01*
X132190015Y-115918815D01*
X132080670Y-116000670D01*
X131998815Y-116110015D01*
X131998814Y-116110016D01*
X131951083Y-116237989D01*
X131945000Y-116294571D01*
X131340399Y-116294571D01*
X132547460Y-115087511D01*
X132587022Y-115018988D01*
X132607500Y-114942562D01*
X132607500Y-114863438D01*
X132607500Y-114736375D01*
X132627185Y-114669336D01*
X132679989Y-114623581D01*
X132699410Y-114616599D01*
X132700186Y-114616392D01*
X132814314Y-114550500D01*
X132907500Y-114457314D01*
X132973392Y-114343186D01*
X133007500Y-114215892D01*
X133007500Y-114084108D01*
X132973392Y-113956814D01*
X132907500Y-113842686D01*
X132814314Y-113749500D01*
X132754138Y-113714757D01*
X132705924Y-113664190D01*
X132692702Y-113595583D01*
X132718670Y-113530719D01*
X132775584Y-113490191D01*
X132784028Y-113487602D01*
X132863186Y-113466392D01*
X132977314Y-113400500D01*
X133070500Y-113307314D01*
X133136392Y-113193186D01*
X133170500Y-113065892D01*
X133170500Y-112934108D01*
X133136392Y-112806814D01*
X133070500Y-112692686D01*
X132977314Y-112599500D01*
X132920250Y-112566554D01*
X132863187Y-112533608D01*
X132799539Y-112516554D01*
X132735892Y-112499500D01*
X132604108Y-112499500D01*
X132476812Y-112533608D01*
X132362686Y-112599500D01*
X132362683Y-112599502D01*
X132269502Y-112692683D01*
X132269500Y-112692686D01*
X132203608Y-112806812D01*
X132169500Y-112934108D01*
X132169500Y-113024166D01*
X132149815Y-113091205D01*
X132133181Y-113111847D01*
X129621848Y-115623181D01*
X129560525Y-115656666D01*
X129534167Y-115659500D01*
X128670438Y-115659500D01*
X128639867Y-115667691D01*
X128594008Y-115679979D01*
X128594007Y-115679980D01*
X128541789Y-115710129D01*
X128541788Y-115710130D01*
X128525490Y-115719539D01*
X128525487Y-115719541D01*
X127912104Y-116332923D01*
X127850781Y-116366408D01*
X127781089Y-116361424D01*
X127776971Y-116359803D01*
X127656424Y-116309871D01*
X127656412Y-116309868D01*
X127453469Y-116269500D01*
X127453465Y-116269500D01*
X127246535Y-116269500D01*
X127246530Y-116269500D01*
X127043587Y-116309868D01*
X127043579Y-116309870D01*
X126852403Y-116389058D01*
X126680342Y-116504024D01*
X126534024Y-116650342D01*
X126419057Y-116822403D01*
X126339061Y-117015533D01*
X126295220Y-117069936D01*
X126228926Y-117092001D01*
X126161226Y-117074722D01*
X126113616Y-117023584D01*
X126100500Y-116968080D01*
X126100500Y-115131919D01*
X126120185Y-115064880D01*
X126172989Y-115019125D01*
X126242147Y-115009181D01*
X126305703Y-115038206D01*
X126339061Y-115084466D01*
X126339869Y-115086418D01*
X126339870Y-115086420D01*
X126385921Y-115197596D01*
X126419058Y-115277596D01*
X126534024Y-115449657D01*
X126680342Y-115595975D01*
X126680345Y-115595977D01*
X126852402Y-115710941D01*
X127043580Y-115790130D01*
X127227401Y-115826694D01*
X127246530Y-115830499D01*
X127246534Y-115830500D01*
X127246535Y-115830500D01*
X127453466Y-115830500D01*
X127453467Y-115830499D01*
X127656420Y-115790130D01*
X127847598Y-115710941D01*
X128019655Y-115595977D01*
X128165977Y-115449655D01*
X128280941Y-115277598D01*
X128360130Y-115086420D01*
X128400500Y-114883465D01*
X128400500Y-114676535D01*
X128360130Y-114473580D01*
X128280941Y-114282402D01*
X128165977Y-114110345D01*
X128165975Y-114110342D01*
X128019658Y-113964025D01*
X128019654Y-113964022D01*
X127888293Y-113876249D01*
X127843488Y-113822637D01*
X127834781Y-113753312D01*
X127864936Y-113690284D01*
X127869483Y-113685486D01*
X130410460Y-111144511D01*
X130424972Y-111119375D01*
X130450021Y-111075989D01*
X130470500Y-110999562D01*
X130470500Y-109579208D01*
X130490185Y-109512169D01*
X130542989Y-109466414D01*
X130612147Y-109456470D01*
X130675703Y-109485495D01*
X130713477Y-109544273D01*
X130714280Y-109548073D01*
X130714397Y-109548042D01*
X130716500Y-109555890D01*
X130716500Y-109555892D01*
X130731131Y-109610495D01*
X130750608Y-109683187D01*
X130772658Y-109721378D01*
X130816500Y-109797314D01*
X130909686Y-109890500D01*
X131023814Y-109956392D01*
X131151108Y-109990500D01*
X131151110Y-109990500D01*
X131282890Y-109990500D01*
X131282892Y-109990500D01*
X131410186Y-109956392D01*
X131524314Y-109890500D01*
X131617500Y-109797314D01*
X131683392Y-109683186D01*
X131717500Y-109555892D01*
X131717500Y-109424108D01*
X131683392Y-109296814D01*
X131653736Y-109245449D01*
X131637264Y-109177551D01*
X131660116Y-109111524D01*
X131715037Y-109068333D01*
X131784590Y-109061691D01*
X131846693Y-109093706D01*
G37*
%TD.AperFunction*%
%TA.AperFunction,Conductor*%
G36*
X140205017Y-105827102D02*
G01*
X140214523Y-105826506D01*
X140237211Y-105839154D01*
X140261535Y-105848260D01*
X140274785Y-105859756D01*
X140429540Y-106014511D01*
X140485489Y-106070460D01*
X140485491Y-106070461D01*
X140485495Y-106070464D01*
X140510470Y-106084883D01*
X140554011Y-106110021D01*
X140630438Y-106130500D01*
X140654831Y-106130500D01*
X140721870Y-106150185D01*
X140767625Y-106202989D01*
X140777569Y-106272147D01*
X140748544Y-106335703D01*
X140747397Y-106336934D01*
X140747397Y-106337297D01*
X141772702Y-107362602D01*
X141857859Y-107277444D01*
X141857866Y-107277437D01*
X141893565Y-107233137D01*
X141893568Y-107233132D01*
X141950305Y-107108895D01*
X141950305Y-107108894D01*
X141969744Y-106973694D01*
X141950306Y-106838494D01*
X141950304Y-106838487D01*
X141907053Y-106743781D01*
X141897109Y-106674623D01*
X141926134Y-106611067D01*
X141984912Y-106573293D01*
X142054782Y-106573293D01*
X142065858Y-106577697D01*
X142072095Y-106579723D01*
X142072097Y-106579725D01*
X142200285Y-106621376D01*
X142200286Y-106621376D01*
X142335070Y-106621376D01*
X142335071Y-106621376D01*
X142463258Y-106579725D01*
X142471115Y-106574016D01*
X142536913Y-106550536D01*
X142604968Y-106566357D01*
X142631681Y-106586652D01*
X143123181Y-107078152D01*
X143137884Y-107105079D01*
X143154477Y-107130898D01*
X143155368Y-107137098D01*
X143156666Y-107139475D01*
X143159500Y-107165833D01*
X143159500Y-107384166D01*
X143139815Y-107451205D01*
X143123181Y-107471847D01*
X142331847Y-108263181D01*
X142270524Y-108296666D01*
X142244166Y-108299500D01*
X142147108Y-108299500D01*
X142019812Y-108333608D01*
X141905686Y-108399500D01*
X141905683Y-108399502D01*
X141812502Y-108492683D01*
X141812500Y-108492686D01*
X141746608Y-108606812D01*
X141714268Y-108727511D01*
X141712500Y-108734108D01*
X141712500Y-108865892D01*
X141731326Y-108936155D01*
X141729664Y-109006003D01*
X141690502Y-109063866D01*
X141626273Y-109091370D01*
X141618611Y-109091826D01*
X141480486Y-109111685D01*
X141480485Y-109111686D01*
X141385773Y-109154939D01*
X141316614Y-109164882D01*
X141253058Y-109135856D01*
X141215285Y-109077078D01*
X141215285Y-109007208D01*
X141219689Y-108996132D01*
X141221714Y-108989898D01*
X141221717Y-108989895D01*
X141263368Y-108861707D01*
X141263368Y-108726921D01*
X141221717Y-108598734D01*
X141162421Y-108517120D01*
X140838811Y-108193510D01*
X140805326Y-108132187D01*
X140802492Y-108105829D01*
X140802492Y-107878484D01*
X140802492Y-107878483D01*
X140799474Y-107867219D01*
X140801137Y-107797370D01*
X140840300Y-107739508D01*
X140904528Y-107712004D01*
X140970762Y-107722333D01*
X141036462Y-107752337D01*
X141036462Y-107752338D01*
X141171662Y-107771776D01*
X141306861Y-107752338D01*
X141431103Y-107695598D01*
X141431108Y-107695595D01*
X141475404Y-107659899D01*
X141560570Y-107574733D01*
X141047918Y-107062082D01*
X140535265Y-106549429D01*
X140535264Y-106549429D01*
X140526801Y-106557892D01*
X140465478Y-106591378D01*
X140395787Y-106586394D01*
X140339853Y-106544524D01*
X140315435Y-106479059D01*
X140315119Y-106470212D01*
X140315119Y-106419491D01*
X140315119Y-106419489D01*
X140281011Y-106292195D01*
X140215119Y-106178067D01*
X140121933Y-106084881D01*
X140108221Y-106076964D01*
X140096550Y-106064724D01*
X140081778Y-106056489D01*
X140072941Y-106039963D01*
X140060008Y-106026399D01*
X140056807Y-106009789D01*
X140048832Y-105994875D01*
X140050332Y-105976193D01*
X140046786Y-105957791D01*
X140053106Y-105941651D01*
X140054426Y-105925229D01*
X140071465Y-105894777D01*
X140071612Y-105894402D01*
X140088492Y-105872260D01*
X140109419Y-105856878D01*
X140127809Y-105838533D01*
X140137116Y-105836520D01*
X140144790Y-105830880D01*
X140170715Y-105829253D01*
X140196100Y-105823764D01*
X140205017Y-105827102D01*
G37*
%TD.AperFunction*%
%TA.AperFunction,Conductor*%
G36*
X134178970Y-107527542D02*
G01*
X134203794Y-107530509D01*
X134211919Y-107537217D01*
X134222026Y-107540185D01*
X134238393Y-107559074D01*
X134257674Y-107574992D01*
X134260882Y-107585028D01*
X134267781Y-107592989D01*
X134271338Y-107617730D01*
X134278952Y-107641543D01*
X134277050Y-107657453D01*
X134277725Y-107662147D01*
X134275113Y-107674878D01*
X134275009Y-107675669D01*
X134275009Y-107675671D01*
X134275009Y-107807455D01*
X134286732Y-107851205D01*
X134309117Y-107934750D01*
X134325904Y-107963825D01*
X134375009Y-108048877D01*
X134468195Y-108142063D01*
X134582323Y-108207955D01*
X134709617Y-108242063D01*
X134709619Y-108242063D01*
X134841399Y-108242063D01*
X134841401Y-108242063D01*
X134968695Y-108207955D01*
X135082823Y-108142063D01*
X135092262Y-108132623D01*
X135153582Y-108099138D01*
X135223274Y-108104120D01*
X135256438Y-108122709D01*
X135416453Y-108248128D01*
X135425751Y-108261141D01*
X135438632Y-108270625D01*
X135445646Y-108288984D01*
X135457073Y-108304976D01*
X135457860Y-108320950D01*
X135463569Y-108335893D01*
X135459543Y-108355130D01*
X135460511Y-108374761D01*
X135452535Y-108388626D01*
X135449260Y-108404282D01*
X135427640Y-108433403D01*
X134866506Y-108994537D01*
X134805183Y-109028022D01*
X134740506Y-109024787D01*
X134647408Y-108994537D01*
X134623080Y-108986632D01*
X134623079Y-108986632D01*
X134488293Y-108986632D01*
X134488291Y-108986632D01*
X134407640Y-109012838D01*
X134360105Y-109028283D01*
X134360104Y-109028283D01*
X134350824Y-109031299D01*
X134350035Y-109028873D01*
X134295474Y-109039117D01*
X134230735Y-109012838D01*
X134190481Y-108955729D01*
X134187492Y-108885924D01*
X134195061Y-108864225D01*
X134238313Y-108769517D01*
X134238314Y-108769513D01*
X134257752Y-108634314D01*
X134238314Y-108499114D01*
X134181574Y-108374872D01*
X134181571Y-108374867D01*
X134145873Y-108330568D01*
X134060710Y-108245405D01*
X134060709Y-108245405D01*
X133635738Y-108670376D01*
X133627792Y-108674714D01*
X133622367Y-108681962D01*
X133597607Y-108691196D01*
X133574415Y-108703861D01*
X133565385Y-108703215D01*
X133556903Y-108706379D01*
X133531082Y-108700762D01*
X133504723Y-108698877D01*
X133495669Y-108693058D01*
X133488630Y-108691527D01*
X133460376Y-108670376D01*
X133441992Y-108651992D01*
X133423607Y-108670377D01*
X133362284Y-108703862D01*
X133292592Y-108698878D01*
X133248245Y-108670377D01*
X132840951Y-108263083D01*
X132738118Y-108365917D01*
X132738108Y-108365929D01*
X132702411Y-108410223D01*
X132702406Y-108410232D01*
X132645671Y-108534463D01*
X132645669Y-108534470D01*
X132626231Y-108669670D01*
X132632584Y-108713859D01*
X132622640Y-108783017D01*
X132576885Y-108835821D01*
X132509845Y-108855505D01*
X132442806Y-108835820D01*
X132422165Y-108819186D01*
X131936819Y-108333840D01*
X131903334Y-108272517D01*
X131900500Y-108246159D01*
X131900500Y-108050951D01*
X133053083Y-108050951D01*
X133441991Y-108439859D01*
X133848578Y-108033273D01*
X133763412Y-107948109D01*
X133719113Y-107912410D01*
X133719108Y-107912407D01*
X133594871Y-107855670D01*
X133459670Y-107836231D01*
X133324470Y-107855669D01*
X133324463Y-107855671D01*
X133200230Y-107912407D01*
X133200225Y-107912410D01*
X133155927Y-107948108D01*
X133053083Y-108050951D01*
X131900500Y-108050951D01*
X131900500Y-107963829D01*
X131900499Y-107963825D01*
X131899152Y-107958796D01*
X131895342Y-107916563D01*
X131896256Y-107905419D01*
X131904790Y-107873572D01*
X131904790Y-107801422D01*
X131905205Y-107796365D01*
X131916006Y-107768306D01*
X131924475Y-107739467D01*
X131928427Y-107736042D01*
X131930307Y-107731160D01*
X131954562Y-107713395D01*
X131977279Y-107693712D01*
X131982455Y-107692967D01*
X131986676Y-107689877D01*
X132016683Y-107688046D01*
X132046437Y-107683768D01*
X132051194Y-107685940D01*
X132056416Y-107685622D01*
X132082650Y-107700305D01*
X132109993Y-107712793D01*
X132116471Y-107718825D01*
X132132686Y-107735040D01*
X132246814Y-107800932D01*
X132374108Y-107835040D01*
X132374110Y-107835040D01*
X132505890Y-107835040D01*
X132505892Y-107835040D01*
X132633186Y-107800932D01*
X132747314Y-107735040D01*
X132840500Y-107641854D01*
X132874768Y-107582499D01*
X132925335Y-107534284D01*
X132982155Y-107520500D01*
X134154987Y-107520500D01*
X134178970Y-107527542D01*
G37*
%TD.AperFunction*%
%TA.AperFunction,Conductor*%
G36*
X141519045Y-84369862D02*
G01*
X141563392Y-84398363D01*
X141683181Y-84518152D01*
X141716666Y-84579475D01*
X141719500Y-84605833D01*
X141719500Y-84658342D01*
X141699815Y-84725381D01*
X141647011Y-84771136D01*
X141638518Y-84774443D01*
X141593078Y-84797596D01*
X141516780Y-84836472D01*
X141516779Y-84836473D01*
X141516774Y-84836476D01*
X141421476Y-84931774D01*
X141421473Y-84931778D01*
X141360279Y-85051878D01*
X141344500Y-85151506D01*
X141344500Y-85668493D01*
X141360279Y-85768121D01*
X141360280Y-85768124D01*
X141360281Y-85768126D01*
X141421472Y-85888220D01*
X141421473Y-85888221D01*
X141421476Y-85888225D01*
X141516774Y-85983523D01*
X141516778Y-85983526D01*
X141516780Y-85983528D01*
X141636874Y-86044719D01*
X141636876Y-86044719D01*
X141645570Y-86049149D01*
X141644411Y-86051422D01*
X141690227Y-86082748D01*
X141717428Y-86147105D01*
X141705517Y-86215952D01*
X141658275Y-86267430D01*
X141637571Y-86277427D01*
X141540022Y-86313811D01*
X141540015Y-86313815D01*
X141430670Y-86395670D01*
X141348815Y-86505015D01*
X141348814Y-86505016D01*
X141301083Y-86632989D01*
X141295000Y-86689571D01*
X141295000Y-86810000D01*
X142744999Y-86810000D01*
X142744999Y-86689566D01*
X142744998Y-86689560D01*
X142738918Y-86632992D01*
X142691186Y-86505018D01*
X142691184Y-86505015D01*
X142609329Y-86395670D01*
X142499984Y-86313815D01*
X142499982Y-86313814D01*
X142402428Y-86277428D01*
X142346495Y-86235556D01*
X142322078Y-86170092D01*
X142336930Y-86101819D01*
X142386335Y-86052414D01*
X142397280Y-86047696D01*
X142403121Y-86044719D01*
X142403126Y-86044719D01*
X142523220Y-85983528D01*
X142618528Y-85888220D01*
X142618531Y-85888213D01*
X142622411Y-85882874D01*
X142677737Y-85840204D01*
X142747350Y-85834219D01*
X142809148Y-85866819D01*
X142830121Y-85893748D01*
X142849500Y-85927314D01*
X142942686Y-86020500D01*
X143011968Y-86060500D01*
X143056810Y-86086390D01*
X143056814Y-86086392D01*
X143184108Y-86120500D01*
X143184110Y-86120500D01*
X143315890Y-86120500D01*
X143315892Y-86120500D01*
X143443186Y-86086392D01*
X143492284Y-86058045D01*
X143528540Y-86037113D01*
X143590540Y-86020500D01*
X143877725Y-86020500D01*
X143877727Y-86020500D01*
X143979588Y-85993207D01*
X144070913Y-85940480D01*
X144762896Y-85248495D01*
X144824217Y-85215012D01*
X144893908Y-85219996D01*
X144898027Y-85221617D01*
X144918575Y-85230128D01*
X144918580Y-85230130D01*
X145064148Y-85259085D01*
X145121530Y-85270499D01*
X145121534Y-85270500D01*
X145121535Y-85270500D01*
X145328466Y-85270500D01*
X145328467Y-85270499D01*
X145531420Y-85230130D01*
X145722598Y-85150941D01*
X145894655Y-85035977D01*
X146040977Y-84889655D01*
X146155941Y-84717598D01*
X146210939Y-84584820D01*
X146254780Y-84530418D01*
X146321074Y-84508353D01*
X146388773Y-84525632D01*
X146436384Y-84576769D01*
X146449500Y-84632274D01*
X146449500Y-86347725D01*
X146429815Y-86414764D01*
X146377011Y-86460519D01*
X146307853Y-86470463D01*
X146244297Y-86441438D01*
X146210939Y-86395178D01*
X146155942Y-86262403D01*
X146040975Y-86090342D01*
X145894657Y-85944024D01*
X145779110Y-85866819D01*
X145722598Y-85829059D01*
X145713955Y-85825479D01*
X145531420Y-85749870D01*
X145531412Y-85749868D01*
X145328469Y-85709500D01*
X145328465Y-85709500D01*
X145121535Y-85709500D01*
X145121530Y-85709500D01*
X144918587Y-85749868D01*
X144918579Y-85749870D01*
X144727403Y-85829058D01*
X144555342Y-85944024D01*
X144409024Y-86090342D01*
X144294058Y-86262403D01*
X144214870Y-86453579D01*
X144214868Y-86453587D01*
X144174500Y-86656530D01*
X144174500Y-86863469D01*
X144214868Y-87066412D01*
X144214871Y-87066424D01*
X144264803Y-87186971D01*
X144272272Y-87256440D01*
X144240997Y-87318919D01*
X144237923Y-87322104D01*
X142325489Y-89234540D01*
X142269541Y-89290487D01*
X142269535Y-89290495D01*
X142229982Y-89359004D01*
X142229979Y-89359009D01*
X142220955Y-89392689D01*
X142212559Y-89424024D01*
X142209500Y-89435439D01*
X142209500Y-90621323D01*
X142189815Y-90688362D01*
X142173182Y-90709004D01*
X142109500Y-90772686D01*
X142043608Y-90886812D01*
X142009500Y-91014108D01*
X142009500Y-91145891D01*
X142043608Y-91273187D01*
X142053604Y-91290500D01*
X142109500Y-91387314D01*
X142202686Y-91480500D01*
X142316814Y-91546392D01*
X142444108Y-91580500D01*
X142444110Y-91580500D01*
X142575890Y-91580500D01*
X142575892Y-91580500D01*
X142703186Y-91546392D01*
X142817314Y-91480500D01*
X142910500Y-91387314D01*
X142976392Y-91273186D01*
X143010500Y-91145892D01*
X143010500Y-91014108D01*
X142976392Y-90886814D01*
X142910500Y-90772686D01*
X142846818Y-90709004D01*
X142813334Y-90647680D01*
X142810500Y-90621323D01*
X142810500Y-89650832D01*
X142830185Y-89583793D01*
X142846814Y-89563156D01*
X144662896Y-87747073D01*
X144724217Y-87713590D01*
X144793909Y-87718574D01*
X144798007Y-87720186D01*
X144918580Y-87770130D01*
X145121530Y-87810499D01*
X145121534Y-87810500D01*
X145121535Y-87810500D01*
X145328466Y-87810500D01*
X145328467Y-87810499D01*
X145531420Y-87770130D01*
X145722598Y-87690941D01*
X145894655Y-87575977D01*
X146040977Y-87429655D01*
X146155941Y-87257598D01*
X146210939Y-87124820D01*
X146254780Y-87070418D01*
X146321074Y-87048353D01*
X146388773Y-87065632D01*
X146436384Y-87116769D01*
X146449500Y-87172274D01*
X146449500Y-88887725D01*
X146429815Y-88954764D01*
X146377011Y-89000519D01*
X146307853Y-89010463D01*
X146244297Y-88981438D01*
X146210939Y-88935178D01*
X146155942Y-88802403D01*
X146040975Y-88630342D01*
X145894657Y-88484024D01*
X145805870Y-88424699D01*
X145722598Y-88369059D01*
X145531420Y-88289870D01*
X145531412Y-88289868D01*
X145328469Y-88249500D01*
X145328465Y-88249500D01*
X145121535Y-88249500D01*
X145121530Y-88249500D01*
X144918587Y-88289868D01*
X144918579Y-88289870D01*
X144727403Y-88369058D01*
X144555342Y-88484024D01*
X144409024Y-88630342D01*
X144294058Y-88802403D01*
X144214870Y-88993579D01*
X144214868Y-88993587D01*
X144174500Y-89196530D01*
X144174500Y-89403469D01*
X144214868Y-89606412D01*
X144214870Y-89606420D01*
X144294058Y-89797596D01*
X144409024Y-89969657D01*
X144555342Y-90115975D01*
X144555345Y-90115977D01*
X144727402Y-90230941D01*
X144918580Y-90310130D01*
X145086188Y-90343469D01*
X145121530Y-90350499D01*
X145121534Y-90350500D01*
X145121535Y-90350500D01*
X145328466Y-90350500D01*
X145328467Y-90350499D01*
X145531420Y-90310130D01*
X145722598Y-90230941D01*
X145894655Y-90115977D01*
X146040977Y-89969655D01*
X146155941Y-89797598D01*
X146210939Y-89664820D01*
X146254780Y-89610418D01*
X146321074Y-89588353D01*
X146388773Y-89605632D01*
X146436384Y-89656769D01*
X146449500Y-89712274D01*
X146449500Y-91427725D01*
X146429815Y-91494764D01*
X146377011Y-91540519D01*
X146307853Y-91550463D01*
X146244297Y-91521438D01*
X146210939Y-91475178D01*
X146155942Y-91342403D01*
X146040975Y-91170342D01*
X145894657Y-91024024D01*
X145754682Y-90930497D01*
X145722598Y-90909059D01*
X145668889Y-90886812D01*
X145531420Y-90829870D01*
X145531412Y-90829868D01*
X145328469Y-90789500D01*
X145328465Y-90789500D01*
X145121535Y-90789500D01*
X145121530Y-90789500D01*
X144918587Y-90829868D01*
X144918579Y-90829870D01*
X144727403Y-90909058D01*
X144555342Y-91024024D01*
X144409024Y-91170342D01*
X144294058Y-91342403D01*
X144214870Y-91533579D01*
X144214868Y-91533587D01*
X144174500Y-91736530D01*
X144174500Y-91943469D01*
X144214868Y-92146412D01*
X144214870Y-92146420D01*
X144294058Y-92337596D01*
X144409024Y-92509657D01*
X144555342Y-92655975D01*
X144555345Y-92655977D01*
X144727402Y-92770941D01*
X144918580Y-92850130D01*
X145121530Y-92890499D01*
X145121534Y-92890500D01*
X145121535Y-92890500D01*
X145328466Y-92890500D01*
X145328467Y-92890499D01*
X145531420Y-92850130D01*
X145722598Y-92770941D01*
X145894655Y-92655977D01*
X146040977Y-92509655D01*
X146155941Y-92337598D01*
X146210939Y-92204820D01*
X146254780Y-92150418D01*
X146321074Y-92128353D01*
X146388773Y-92145632D01*
X146436384Y-92196769D01*
X146449500Y-92252274D01*
X146449500Y-93967725D01*
X146429815Y-94034764D01*
X146377011Y-94080519D01*
X146307853Y-94090463D01*
X146244297Y-94061438D01*
X146210939Y-94015178D01*
X146155942Y-93882403D01*
X146040975Y-93710342D01*
X145894657Y-93564024D01*
X145808626Y-93506541D01*
X145722598Y-93449059D01*
X145717516Y-93446954D01*
X145531420Y-93369870D01*
X145531412Y-93369868D01*
X145328469Y-93329500D01*
X145328465Y-93329500D01*
X145121535Y-93329500D01*
X145121530Y-93329500D01*
X144918587Y-93369868D01*
X144918579Y-93369870D01*
X144727403Y-93449058D01*
X144555342Y-93564024D01*
X144409024Y-93710342D01*
X144294058Y-93882403D01*
X144214870Y-94073579D01*
X144214868Y-94073587D01*
X144174500Y-94276530D01*
X144174500Y-94483469D01*
X144214868Y-94686412D01*
X144214870Y-94686420D01*
X144273025Y-94826819D01*
X144294059Y-94877598D01*
X144347512Y-94957596D01*
X144409024Y-95049657D01*
X144555342Y-95195975D01*
X144555345Y-95195977D01*
X144727402Y-95310941D01*
X144918580Y-95390130D01*
X145121530Y-95430499D01*
X145121534Y-95430500D01*
X145121535Y-95430500D01*
X145328466Y-95430500D01*
X145328467Y-95430499D01*
X145531420Y-95390130D01*
X145722598Y-95310941D01*
X145894655Y-95195977D01*
X146040977Y-95049655D01*
X146155941Y-94877598D01*
X146210939Y-94744820D01*
X146254780Y-94690418D01*
X146321074Y-94668353D01*
X146388773Y-94685632D01*
X146436384Y-94736769D01*
X146449500Y-94792274D01*
X146449500Y-96507725D01*
X146429815Y-96574764D01*
X146377011Y-96620519D01*
X146307853Y-96630463D01*
X146244297Y-96601438D01*
X146210939Y-96555178D01*
X146155942Y-96422403D01*
X146040975Y-96250342D01*
X145894657Y-96104024D01*
X145756942Y-96012007D01*
X145722598Y-95989059D01*
X145629028Y-95950301D01*
X145531420Y-95909870D01*
X145531412Y-95909868D01*
X145328469Y-95869500D01*
X145328465Y-95869500D01*
X145121535Y-95869500D01*
X145121530Y-95869500D01*
X144918587Y-95909868D01*
X144918579Y-95909870D01*
X144727403Y-95989058D01*
X144555342Y-96104024D01*
X144409024Y-96250342D01*
X144294058Y-96422403D01*
X144214870Y-96613579D01*
X144214868Y-96613587D01*
X144174500Y-96816530D01*
X144174500Y-97023469D01*
X144214868Y-97226412D01*
X144214870Y-97226420D01*
X144294058Y-97417596D01*
X144409024Y-97589657D01*
X144555342Y-97735975D01*
X144555345Y-97735977D01*
X144727402Y-97850941D01*
X144918580Y-97930130D01*
X145121530Y-97970499D01*
X145121534Y-97970500D01*
X145121535Y-97970500D01*
X145328466Y-97970500D01*
X145328467Y-97970499D01*
X145531420Y-97930130D01*
X145722598Y-97850941D01*
X145894655Y-97735977D01*
X146040977Y-97589655D01*
X146155941Y-97417598D01*
X146210939Y-97284820D01*
X146254780Y-97230418D01*
X146321074Y-97208353D01*
X146388773Y-97225632D01*
X146436384Y-97276769D01*
X146449500Y-97332274D01*
X146449500Y-99047725D01*
X146429815Y-99114764D01*
X146377011Y-99160519D01*
X146307853Y-99170463D01*
X146244297Y-99141438D01*
X146210939Y-99095178D01*
X146155942Y-98962403D01*
X146040975Y-98790342D01*
X145894657Y-98644024D01*
X145751680Y-98548491D01*
X145722598Y-98529059D01*
X145531420Y-98449870D01*
X145531412Y-98449868D01*
X145328469Y-98409500D01*
X145328465Y-98409500D01*
X145121535Y-98409500D01*
X145121530Y-98409500D01*
X144918587Y-98449868D01*
X144918579Y-98449870D01*
X144727403Y-98529058D01*
X144555342Y-98644024D01*
X144409024Y-98790342D01*
X144294058Y-98962403D01*
X144244125Y-99082953D01*
X144231581Y-99098518D01*
X144223277Y-99116703D01*
X144210106Y-99125167D01*
X144200284Y-99137356D01*
X144181316Y-99143668D01*
X144164499Y-99154477D01*
X144136938Y-99158439D01*
X144133990Y-99159421D01*
X144129564Y-99159500D01*
X143921355Y-99159500D01*
X143854316Y-99139815D01*
X143808561Y-99087011D01*
X143798617Y-99017853D01*
X143801580Y-99003408D01*
X143801652Y-99003135D01*
X143802790Y-98998892D01*
X143802790Y-98867108D01*
X143768682Y-98739814D01*
X143702790Y-98625686D01*
X143609604Y-98532500D01*
X143541325Y-98493079D01*
X143495477Y-98466608D01*
X143416994Y-98445579D01*
X143368182Y-98432500D01*
X143278123Y-98432500D01*
X143211084Y-98412815D01*
X143190442Y-98396181D01*
X141856819Y-97062558D01*
X141823334Y-97001235D01*
X141820500Y-96974877D01*
X141820500Y-96332359D01*
X141840185Y-96265320D01*
X141892989Y-96219565D01*
X141911157Y-96214089D01*
X141911019Y-96213663D01*
X141920300Y-96210647D01*
X141920301Y-96210646D01*
X141920304Y-96210646D01*
X142033342Y-96153050D01*
X142123050Y-96063342D01*
X142180646Y-95950304D01*
X142180646Y-95950302D01*
X142180647Y-95950301D01*
X142195499Y-95856524D01*
X142195500Y-95856519D01*
X142195499Y-95393482D01*
X142180646Y-95299696D01*
X142123050Y-95186658D01*
X142123046Y-95186654D01*
X142123045Y-95186652D01*
X142033347Y-95096954D01*
X142033344Y-95096952D01*
X142033342Y-95096950D01*
X141940521Y-95049655D01*
X141920301Y-95039352D01*
X141826524Y-95024500D01*
X141213482Y-95024500D01*
X141132519Y-95037323D01*
X141119696Y-95039354D01*
X141006658Y-95096950D01*
X141006657Y-95096951D01*
X141006652Y-95096954D01*
X140916954Y-95186652D01*
X140916951Y-95186657D01*
X140916950Y-95186658D01*
X140906895Y-95206392D01*
X140859352Y-95299698D01*
X140844500Y-95393475D01*
X140844500Y-95856517D01*
X140852950Y-95909868D01*
X140859354Y-95950304D01*
X140916950Y-96063342D01*
X140916952Y-96063344D01*
X140916954Y-96063347D01*
X141006652Y-96153045D01*
X141006654Y-96153046D01*
X141006658Y-96153050D01*
X141119696Y-96210646D01*
X141119698Y-96210647D01*
X141128980Y-96213663D01*
X141128162Y-96216177D01*
X141178019Y-96239803D01*
X141214959Y-96299109D01*
X141219500Y-96332359D01*
X141219500Y-97190272D01*
X141224345Y-97208353D01*
X141239978Y-97266697D01*
X141258918Y-97299502D01*
X141279539Y-97335219D01*
X141279541Y-97335222D01*
X142765471Y-98821152D01*
X142798956Y-98882475D01*
X142801790Y-98908833D01*
X142801790Y-98998892D01*
X142812742Y-99039767D01*
X142835898Y-99126187D01*
X142845991Y-99143668D01*
X142901790Y-99240314D01*
X142994976Y-99333500D01*
X143109104Y-99399392D01*
X143206498Y-99425488D01*
X143266156Y-99461851D01*
X143296686Y-99524698D01*
X143288392Y-99594074D01*
X143262084Y-99632943D01*
X142764928Y-100130099D01*
X142703605Y-100163584D01*
X142633913Y-100158600D01*
X142577980Y-100116728D01*
X142569863Y-100104422D01*
X142561927Y-100090676D01*
X142468741Y-99997490D01*
X142399288Y-99957391D01*
X142354614Y-99931598D01*
X142263218Y-99907109D01*
X142227319Y-99897490D01*
X142095535Y-99897490D01*
X141968239Y-99931598D01*
X141854113Y-99997490D01*
X141854110Y-99997492D01*
X141790432Y-100061171D01*
X141729109Y-100094656D01*
X141702751Y-100097490D01*
X141437154Y-100097490D01*
X141434670Y-100097817D01*
X141432573Y-100097490D01*
X141429028Y-100097490D01*
X141429028Y-100096937D01*
X141365635Y-100087051D01*
X141313379Y-100040671D01*
X141311098Y-100036878D01*
X141265208Y-99957394D01*
X141172022Y-99864208D01*
X141109826Y-99828299D01*
X141057895Y-99798316D01*
X140994247Y-99781262D01*
X140930600Y-99764208D01*
X140798816Y-99764208D01*
X140671520Y-99798316D01*
X140557394Y-99864208D01*
X140557390Y-99864211D01*
X140514492Y-99907109D01*
X140453169Y-99940593D01*
X140383477Y-99935608D01*
X140364811Y-99926814D01*
X140364378Y-99926564D01*
X140364376Y-99926562D01*
X140250248Y-99860670D01*
X140129435Y-99828298D01*
X140119186Y-99822051D01*
X140107350Y-99820061D01*
X140089906Y-99804204D01*
X140069776Y-99791934D01*
X140063238Y-99779962D01*
X140055649Y-99773063D01*
X140041758Y-99740626D01*
X140032209Y-99704988D01*
X140033872Y-99635144D01*
X140073034Y-99577281D01*
X140100474Y-99560104D01*
X140149773Y-99537590D01*
X140149774Y-99537589D01*
X140194077Y-99501887D01*
X140296916Y-99399047D01*
X139889623Y-98991754D01*
X139885284Y-98983808D01*
X139878036Y-98978382D01*
X139868801Y-98953622D01*
X139856138Y-98930431D01*
X139856783Y-98921400D01*
X139853620Y-98912917D01*
X139859236Y-98887098D01*
X139861122Y-98860739D01*
X139866941Y-98851683D01*
X139868473Y-98844645D01*
X139889624Y-98816391D01*
X139908007Y-98798007D01*
X140120139Y-98798007D01*
X140509047Y-99186915D01*
X140611887Y-99084076D01*
X140647588Y-99039776D01*
X140647593Y-99039767D01*
X140704328Y-98915536D01*
X140704330Y-98915529D01*
X140723768Y-98780330D01*
X140704330Y-98645130D01*
X140647590Y-98520888D01*
X140647587Y-98520883D01*
X140611889Y-98476584D01*
X140526726Y-98391421D01*
X140526725Y-98391421D01*
X140120139Y-98798007D01*
X139908007Y-98798007D01*
X139889622Y-98779622D01*
X139856137Y-98718299D01*
X139861121Y-98648607D01*
X139889622Y-98604260D01*
X140314593Y-98179289D01*
X140229428Y-98094125D01*
X140185129Y-98058426D01*
X140185124Y-98058423D01*
X140060887Y-98001686D01*
X139925686Y-97982247D01*
X139790486Y-98001685D01*
X139790485Y-98001686D01*
X139695773Y-98044939D01*
X139626614Y-98054882D01*
X139563058Y-98025856D01*
X139525285Y-97967078D01*
X139525285Y-97897208D01*
X139529689Y-97886132D01*
X139531714Y-97879898D01*
X139531717Y-97879895D01*
X139573368Y-97751707D01*
X139573368Y-97616921D01*
X139531717Y-97488734D01*
X139518269Y-97470225D01*
X139472423Y-97407123D01*
X139472418Y-97407117D01*
X139469819Y-97404518D01*
X139455115Y-97377590D01*
X139438523Y-97351772D01*
X139437631Y-97345571D01*
X139436334Y-97343195D01*
X139433500Y-97316837D01*
X139433500Y-97138676D01*
X139453185Y-97071637D01*
X139469819Y-97050995D01*
X139497349Y-97023465D01*
X139533500Y-96987314D01*
X139599392Y-96873186D01*
X139633500Y-96745892D01*
X139633500Y-96614108D01*
X139599392Y-96486814D01*
X139533500Y-96372686D01*
X139440314Y-96279500D01*
X139371032Y-96239500D01*
X139326187Y-96213608D01*
X139247536Y-96192534D01*
X139198892Y-96179500D01*
X139185041Y-96179500D01*
X139118002Y-96159815D01*
X139072247Y-96107011D01*
X139062303Y-96037853D01*
X139068859Y-96012168D01*
X139068915Y-96012015D01*
X139068916Y-96012012D01*
X139074999Y-95955428D01*
X139075000Y-95955427D01*
X139075000Y-95835000D01*
X138500000Y-95835000D01*
X138500000Y-96384999D01*
X138532290Y-96384999D01*
X138599329Y-96404684D01*
X138645084Y-96457488D01*
X138655028Y-96526646D01*
X138652067Y-96541079D01*
X138632500Y-96614108D01*
X138632500Y-96745892D01*
X138634866Y-96754722D01*
X138663717Y-96862397D01*
X138662054Y-96932247D01*
X138622891Y-96990109D01*
X138616831Y-96994805D01*
X138552475Y-97041563D01*
X138552473Y-97041565D01*
X138552472Y-97041565D01*
X138151565Y-97442472D01*
X138151560Y-97442478D01*
X138092268Y-97524086D01*
X138092267Y-97524089D01*
X138050616Y-97652275D01*
X138050616Y-97787064D01*
X138092267Y-97915249D01*
X138092268Y-97915252D01*
X138151560Y-97996860D01*
X138151565Y-97996866D01*
X138517120Y-98362421D01*
X138519789Y-98364701D01*
X138520520Y-98365821D01*
X138520565Y-98365866D01*
X138520555Y-98365875D01*
X138557978Y-98423212D01*
X138558471Y-98493079D01*
X138526932Y-98546665D01*
X138474517Y-98599080D01*
X138474514Y-98599084D01*
X138412560Y-98706392D01*
X138408622Y-98713212D01*
X138382771Y-98809692D01*
X138374828Y-98839334D01*
X138342734Y-98894922D01*
X138087910Y-99149744D01*
X138026587Y-99183228D01*
X137992120Y-99185797D01*
X137949303Y-99182991D01*
X136981850Y-100150444D01*
X136981850Y-100150445D01*
X136997557Y-100162497D01*
X136997560Y-100162499D01*
X137109999Y-100203422D01*
X137166263Y-100244847D01*
X137170693Y-100251055D01*
X137173643Y-100255471D01*
X137173644Y-100255472D01*
X137185864Y-100273760D01*
X137217098Y-100320507D01*
X137342119Y-100445527D01*
X137374636Y-100467254D01*
X137407155Y-100488983D01*
X137426016Y-100492734D01*
X137487927Y-100525117D01*
X137522503Y-100585832D01*
X137523444Y-100590161D01*
X137527195Y-100609020D01*
X137527196Y-100609023D01*
X137570653Y-100674062D01*
X137695672Y-100799080D01*
X137707350Y-100806883D01*
X137760708Y-100842536D01*
X137779569Y-100846287D01*
X137841480Y-100878670D01*
X137876056Y-100939385D01*
X137876997Y-100943714D01*
X137880748Y-100962572D01*
X137880749Y-100962576D01*
X137880749Y-100962577D01*
X137880750Y-100962578D01*
X137898986Y-100989870D01*
X137924206Y-101027615D01*
X138049225Y-101152633D01*
X138114260Y-101196088D01*
X138114259Y-101196088D01*
X138114261Y-101196089D01*
X138133123Y-101199841D01*
X138195033Y-101232224D01*
X138229609Y-101292939D01*
X138230550Y-101297264D01*
X138234302Y-101316128D01*
X138234303Y-101316130D01*
X138234303Y-101316131D01*
X138234304Y-101316132D01*
X138243519Y-101329923D01*
X138277760Y-101381169D01*
X138402779Y-101506187D01*
X138435296Y-101527914D01*
X138467815Y-101549643D01*
X138486676Y-101553394D01*
X138548587Y-101585777D01*
X138583163Y-101646492D01*
X138584104Y-101650821D01*
X138587855Y-101669680D01*
X138587856Y-101669683D01*
X138587856Y-101669684D01*
X138587857Y-101669685D01*
X138615104Y-101710463D01*
X138631313Y-101734722D01*
X138756332Y-101859740D01*
X138788849Y-101881467D01*
X138811399Y-101896535D01*
X138821367Y-101903195D01*
X138821366Y-101903195D01*
X138821368Y-101903196D01*
X138840230Y-101906948D01*
X138902140Y-101939331D01*
X138936716Y-102000046D01*
X138937657Y-102004371D01*
X138941409Y-102023235D01*
X138941410Y-102023237D01*
X138984867Y-102088276D01*
X139109886Y-102213294D01*
X139142403Y-102235021D01*
X139174922Y-102256750D01*
X139193783Y-102260501D01*
X139255694Y-102292884D01*
X139290270Y-102353599D01*
X139291211Y-102357928D01*
X139294962Y-102376787D01*
X139294963Y-102376790D01*
X139294963Y-102376791D01*
X139294964Y-102376792D01*
X139338419Y-102441827D01*
X139338420Y-102441829D01*
X139463439Y-102566847D01*
X139479526Y-102577596D01*
X139528475Y-102610303D01*
X139547336Y-102614054D01*
X139609247Y-102646437D01*
X139643823Y-102707152D01*
X139644764Y-102711481D01*
X139648515Y-102730340D01*
X139648516Y-102730343D01*
X139648516Y-102730344D01*
X139648517Y-102730345D01*
X139669012Y-102761018D01*
X139691973Y-102795382D01*
X139816992Y-102920400D01*
X139882027Y-102963855D01*
X139882026Y-102963855D01*
X139882028Y-102963856D01*
X139900890Y-102967608D01*
X139962800Y-102999991D01*
X139997376Y-103060706D01*
X139998317Y-103065031D01*
X140002069Y-103083895D01*
X140002070Y-103083897D01*
X140002070Y-103083898D01*
X140002071Y-103083899D01*
X140045527Y-103148936D01*
X140170545Y-103273953D01*
X140235582Y-103317410D01*
X140254443Y-103321161D01*
X140316354Y-103353544D01*
X140337581Y-103380675D01*
X140347865Y-103398448D01*
X140355624Y-103437452D01*
X140399080Y-103502489D01*
X140420408Y-103523817D01*
X140428555Y-103537896D01*
X140433130Y-103556677D01*
X140442394Y-103573642D01*
X140441229Y-103589922D01*
X140445093Y-103605781D01*
X140438788Y-103624052D01*
X140437410Y-103643334D01*
X140426023Y-103661052D01*
X140422305Y-103671830D01*
X140415807Y-103676949D01*
X140408915Y-103687675D01*
X140399084Y-103697506D01*
X140399078Y-103697514D01*
X140355624Y-103762546D01*
X140355623Y-103762549D01*
X140351870Y-103781415D01*
X140319483Y-103843325D01*
X140258766Y-103877897D01*
X140254450Y-103878836D01*
X140235584Y-103882589D01*
X140235583Y-103882589D01*
X140170544Y-103926046D01*
X140045526Y-104051065D01*
X140002070Y-104116100D01*
X139998317Y-104134969D01*
X139965929Y-104196878D01*
X139905212Y-104231450D01*
X139900896Y-104232390D01*
X139882030Y-104236143D01*
X139882029Y-104236143D01*
X139816990Y-104279600D01*
X139691972Y-104404619D01*
X139648517Y-104469653D01*
X139648516Y-104469656D01*
X139644763Y-104488522D01*
X139612376Y-104550432D01*
X139551659Y-104585004D01*
X139547343Y-104585943D01*
X139528477Y-104589696D01*
X139528476Y-104589696D01*
X139463437Y-104633153D01*
X139338421Y-104758170D01*
X139292012Y-104827626D01*
X139238399Y-104872430D01*
X139231320Y-104875256D01*
X139118877Y-104916181D01*
X139103171Y-104928232D01*
X139103171Y-104928233D01*
X139499217Y-105324279D01*
X139503555Y-105332224D01*
X139510803Y-105337650D01*
X139520037Y-105362409D01*
X139532702Y-105385602D01*
X139532056Y-105394631D01*
X139535220Y-105403114D01*
X139529603Y-105428934D01*
X139527718Y-105455294D01*
X139521899Y-105464347D01*
X139520368Y-105471387D01*
X139499217Y-105499641D01*
X139497802Y-105501056D01*
X139436479Y-105534541D01*
X139366787Y-105529557D01*
X139322440Y-105501056D01*
X138926394Y-105105010D01*
X138926393Y-105105010D01*
X138914342Y-105120716D01*
X138873417Y-105233160D01*
X138831991Y-105289424D01*
X138825785Y-105293853D01*
X138756330Y-105340260D01*
X138631312Y-105465279D01*
X138587857Y-105530313D01*
X138587856Y-105530316D01*
X138584103Y-105549182D01*
X138551716Y-105611092D01*
X138490999Y-105645664D01*
X138486683Y-105646603D01*
X138467817Y-105650356D01*
X138467816Y-105650356D01*
X138402777Y-105693813D01*
X138277759Y-105818832D01*
X138234303Y-105883867D01*
X138230550Y-105902736D01*
X138198162Y-105964645D01*
X138137445Y-105999217D01*
X138133129Y-106000157D01*
X138114263Y-106003910D01*
X138114262Y-106003910D01*
X138049223Y-106047367D01*
X137924205Y-106172386D01*
X137880750Y-106237420D01*
X137880749Y-106237423D01*
X137876996Y-106256289D01*
X137844609Y-106318199D01*
X137783892Y-106352771D01*
X137779576Y-106353710D01*
X137760710Y-106357463D01*
X137760709Y-106357463D01*
X137695670Y-106400920D01*
X137570652Y-106525939D01*
X137527197Y-106590973D01*
X137527196Y-106590976D01*
X137523443Y-106609842D01*
X137491056Y-106671752D01*
X137430339Y-106706324D01*
X137426023Y-106707263D01*
X137407157Y-106711016D01*
X137407156Y-106711016D01*
X137342117Y-106754473D01*
X137217099Y-106879492D01*
X137173643Y-106944527D01*
X137169890Y-106963396D01*
X137137502Y-107025305D01*
X137076785Y-107059877D01*
X137072469Y-107060817D01*
X137053603Y-107064570D01*
X137053602Y-107064570D01*
X136988563Y-107108027D01*
X136863545Y-107233046D01*
X136820090Y-107298080D01*
X136820089Y-107298083D01*
X136816336Y-107316949D01*
X136783949Y-107378859D01*
X136756824Y-107400080D01*
X136739047Y-107410366D01*
X136700048Y-107418124D01*
X136635011Y-107461580D01*
X136613683Y-107482907D01*
X136599603Y-107491055D01*
X136580820Y-107495630D01*
X136563853Y-107504895D01*
X136547574Y-107503730D01*
X136531719Y-107507593D01*
X136513444Y-107501287D01*
X136494161Y-107499908D01*
X136476446Y-107488523D01*
X136465670Y-107484805D01*
X136460548Y-107478305D01*
X136449818Y-107471409D01*
X136439992Y-107461583D01*
X136439988Y-107461580D01*
X136370534Y-107415172D01*
X136325729Y-107361560D01*
X136322903Y-107354479D01*
X136281980Y-107242041D01*
X136281978Y-107242038D01*
X136269926Y-107226331D01*
X136269925Y-107226331D01*
X135786199Y-107710058D01*
X135452146Y-108044110D01*
X135449462Y-108045575D01*
X135447872Y-108048185D01*
X135418992Y-108062213D01*
X135390823Y-108077595D01*
X135387775Y-108077377D01*
X135385025Y-108078713D01*
X135353148Y-108074900D01*
X135321131Y-108072611D01*
X135318683Y-108070778D01*
X135315649Y-108070416D01*
X135290896Y-108049977D01*
X135265198Y-108030739D01*
X135264129Y-108027875D01*
X135261773Y-108025929D01*
X135251999Y-107995351D01*
X135240781Y-107965275D01*
X135241150Y-107961410D01*
X135240500Y-107959377D01*
X135244690Y-107924340D01*
X135245729Y-107920462D01*
X135277820Y-107864881D01*
X135609423Y-107533281D01*
X136093149Y-107049554D01*
X136077439Y-107037500D01*
X135965000Y-106996577D01*
X135908735Y-106955152D01*
X135904306Y-106948944D01*
X135901356Y-106944529D01*
X135901356Y-106944528D01*
X135857900Y-106879491D01*
X135732882Y-106754474D01*
X135732881Y-106754473D01*
X135732880Y-106754472D01*
X135667844Y-106711016D01*
X135667843Y-106711015D01*
X135648981Y-106707264D01*
X135587070Y-106674879D01*
X135552496Y-106614164D01*
X135551561Y-106609871D01*
X135547803Y-106590975D01*
X135544914Y-106586652D01*
X135504348Y-106525939D01*
X135379327Y-106400919D01*
X135314291Y-106357463D01*
X135314290Y-106357462D01*
X135295428Y-106353711D01*
X135233517Y-106321326D01*
X135198943Y-106260611D01*
X135198008Y-106256318D01*
X135194250Y-106237422D01*
X135188661Y-106229058D01*
X135150795Y-106172386D01*
X135025774Y-106047366D01*
X134960738Y-106003910D01*
X134941871Y-106000157D01*
X134879961Y-105967770D01*
X134845388Y-105907054D01*
X134844449Y-105902736D01*
X134840696Y-105883868D01*
X134827067Y-105863471D01*
X134797241Y-105818832D01*
X134672220Y-105693812D01*
X134607184Y-105650356D01*
X134607183Y-105650355D01*
X134588321Y-105646604D01*
X134526410Y-105614219D01*
X134491836Y-105553504D01*
X134490901Y-105549211D01*
X134487143Y-105530315D01*
X134486598Y-105529500D01*
X134443688Y-105465279D01*
X134318667Y-105340259D01*
X134253631Y-105296803D01*
X134234764Y-105293050D01*
X134172854Y-105260663D01*
X134138281Y-105199947D01*
X134137347Y-105195655D01*
X134133589Y-105176761D01*
X134130229Y-105171733D01*
X134090134Y-105111725D01*
X133965113Y-104986705D01*
X133900077Y-104943249D01*
X133900076Y-104943248D01*
X133881214Y-104939497D01*
X133819303Y-104907112D01*
X133784729Y-104846397D01*
X133783794Y-104842104D01*
X133780036Y-104823208D01*
X133746585Y-104773145D01*
X133736581Y-104758172D01*
X133611560Y-104633152D01*
X133546524Y-104589696D01*
X133546523Y-104589695D01*
X133527661Y-104585944D01*
X133465750Y-104553559D01*
X133431176Y-104492844D01*
X133430241Y-104488551D01*
X133426483Y-104469655D01*
X133383027Y-104404618D01*
X133258009Y-104279601D01*
X133258008Y-104279600D01*
X133258007Y-104279599D01*
X133192971Y-104236143D01*
X133174104Y-104232390D01*
X133112194Y-104200003D01*
X133077621Y-104139287D01*
X133076682Y-104134969D01*
X133072929Y-104116101D01*
X133070876Y-104113029D01*
X133029474Y-104051065D01*
X132904453Y-103926045D01*
X132839417Y-103882589D01*
X132839416Y-103882588D01*
X132820554Y-103878837D01*
X132758643Y-103846452D01*
X132737418Y-103819324D01*
X132727134Y-103801551D01*
X132719376Y-103762548D01*
X132675920Y-103697511D01*
X132654590Y-103676181D01*
X132646444Y-103662103D01*
X132641868Y-103643321D01*
X132632605Y-103626357D01*
X132633769Y-103610076D01*
X132629906Y-103594218D01*
X132636210Y-103575946D01*
X132637589Y-103556665D01*
X132648974Y-103538950D01*
X132652694Y-103528169D01*
X132659196Y-103523045D01*
X132666093Y-103512315D01*
X132675914Y-103502494D01*
X132675919Y-103502489D01*
X132719376Y-103437452D01*
X132719376Y-103437449D01*
X132722327Y-103433034D01*
X132775939Y-103388229D01*
X132783020Y-103385403D01*
X132895459Y-103344479D01*
X132895461Y-103344478D01*
X132911167Y-103332426D01*
X132911167Y-103332425D01*
X132515122Y-102936380D01*
X132510783Y-102928434D01*
X132503536Y-102923009D01*
X132494301Y-102898249D01*
X132481637Y-102875057D01*
X132482282Y-102866027D01*
X132479119Y-102857545D01*
X132484735Y-102831724D01*
X132486621Y-102805365D01*
X132492439Y-102796311D01*
X132493971Y-102789272D01*
X132515122Y-102761018D01*
X132516537Y-102759603D01*
X132577860Y-102726118D01*
X132647552Y-102731102D01*
X132691899Y-102759603D01*
X133087944Y-103155648D01*
X133087945Y-103155648D01*
X133099997Y-103139942D01*
X133140922Y-103027501D01*
X133182348Y-102971237D01*
X133188554Y-102966809D01*
X133254104Y-102923009D01*
X133258009Y-102920400D01*
X133383026Y-102795382D01*
X133426483Y-102730345D01*
X133430235Y-102711482D01*
X133462617Y-102649572D01*
X133523332Y-102614996D01*
X133527630Y-102614061D01*
X133546525Y-102610303D01*
X133611562Y-102566847D01*
X133736579Y-102441829D01*
X133780036Y-102376792D01*
X133783788Y-102357929D01*
X133816170Y-102296019D01*
X133876885Y-102261443D01*
X133881183Y-102260508D01*
X133900078Y-102256750D01*
X133965115Y-102213294D01*
X134090132Y-102088276D01*
X134133589Y-102023239D01*
X134137340Y-102004376D01*
X134169723Y-101942466D01*
X134230437Y-101907889D01*
X134234738Y-101906953D01*
X134253632Y-101903196D01*
X134318669Y-101859740D01*
X134443686Y-101734722D01*
X134487143Y-101669685D01*
X134490895Y-101650822D01*
X134523277Y-101588912D01*
X134583992Y-101554336D01*
X134588290Y-101553401D01*
X134607185Y-101549643D01*
X134672222Y-101506187D01*
X134797239Y-101381169D01*
X134840696Y-101316132D01*
X134844447Y-101297269D01*
X134876830Y-101235359D01*
X134937544Y-101200782D01*
X134941845Y-101199846D01*
X134960739Y-101196089D01*
X135025776Y-101152633D01*
X135150793Y-101027615D01*
X135194250Y-100962578D01*
X135198002Y-100943715D01*
X135230384Y-100881805D01*
X135291099Y-100847229D01*
X135295397Y-100846294D01*
X135314292Y-100842536D01*
X135379329Y-100799080D01*
X135504346Y-100674062D01*
X135547803Y-100609025D01*
X135551555Y-100590162D01*
X135583937Y-100528252D01*
X135644652Y-100493676D01*
X135648950Y-100492741D01*
X135667845Y-100488983D01*
X135732882Y-100445527D01*
X135857899Y-100320509D01*
X135901356Y-100255472D01*
X135905107Y-100236609D01*
X135937490Y-100174699D01*
X135998204Y-100140122D01*
X136002505Y-100139186D01*
X136021399Y-100135429D01*
X136086436Y-100091973D01*
X136211453Y-99966955D01*
X136254910Y-99901918D01*
X136258662Y-99883055D01*
X136291044Y-99821145D01*
X136318175Y-99799918D01*
X136335946Y-99789634D01*
X136374952Y-99781876D01*
X136439989Y-99738420D01*
X136461322Y-99717085D01*
X136475395Y-99708943D01*
X136494171Y-99704368D01*
X136511132Y-99695106D01*
X136527416Y-99696269D01*
X136543279Y-99692405D01*
X136561547Y-99698707D01*
X136580824Y-99700085D01*
X136598544Y-99711472D01*
X136609328Y-99715193D01*
X136614450Y-99721694D01*
X136625180Y-99728589D01*
X136635007Y-99738416D01*
X136635011Y-99738419D01*
X136700048Y-99781876D01*
X136704465Y-99784827D01*
X136749270Y-99838439D01*
X136752096Y-99845519D01*
X136793019Y-99957958D01*
X136805073Y-99973668D01*
X137288801Y-99489942D01*
X137772527Y-99006214D01*
X137756817Y-98994160D01*
X137644379Y-98953237D01*
X137588115Y-98911811D01*
X137583687Y-98905606D01*
X137537280Y-98836153D01*
X137412260Y-98711134D01*
X137379243Y-98689072D01*
X137334439Y-98635459D01*
X137324136Y-98585971D01*
X137324136Y-97233439D01*
X137343821Y-97166400D01*
X137396625Y-97120645D01*
X137416037Y-97113666D01*
X137443186Y-97106392D01*
X137557314Y-97040500D01*
X137650500Y-96947314D01*
X137716392Y-96833186D01*
X137750500Y-96705892D01*
X137750500Y-96574108D01*
X137727163Y-96487012D01*
X137728826Y-96417166D01*
X137767988Y-96359303D01*
X137832217Y-96331799D01*
X137890272Y-96338740D01*
X137997991Y-96378917D01*
X137997994Y-96378918D01*
X138054555Y-96384999D01*
X138199999Y-96384999D01*
X138200000Y-96384998D01*
X138200000Y-95835000D01*
X137625001Y-95835000D01*
X137625001Y-95955439D01*
X137631081Y-96012007D01*
X137638919Y-96033020D01*
X137643903Y-96102712D01*
X137610418Y-96164035D01*
X137549094Y-96197519D01*
X137479402Y-96192534D01*
X137460739Y-96183741D01*
X137443191Y-96173610D01*
X137443188Y-96173609D01*
X137443187Y-96173608D01*
X137443186Y-96173608D01*
X137315892Y-96139500D01*
X137184500Y-96139500D01*
X137117461Y-96119815D01*
X137071706Y-96067011D01*
X137060500Y-96015500D01*
X137060500Y-94598676D01*
X137080185Y-94531637D01*
X137096819Y-94510995D01*
X137124349Y-94483465D01*
X137160500Y-94447314D01*
X137226392Y-94333186D01*
X137260500Y-94205892D01*
X137260500Y-94074108D01*
X137226392Y-93946814D01*
X137160500Y-93832686D01*
X137147995Y-93820181D01*
X137114510Y-93758858D01*
X137119494Y-93689166D01*
X137161366Y-93633233D01*
X137226830Y-93608816D01*
X137235676Y-93608500D01*
X137574318Y-93608500D01*
X137641357Y-93628185D01*
X137687112Y-93680989D01*
X137697056Y-93750147D01*
X137692247Y-93770823D01*
X137690280Y-93776875D01*
X137674500Y-93876506D01*
X137674500Y-94393493D01*
X137690279Y-94493121D01*
X137690280Y-94493124D01*
X137690281Y-94493126D01*
X137751472Y-94613220D01*
X137751473Y-94613221D01*
X137751476Y-94613225D01*
X137846774Y-94708523D01*
X137846778Y-94708526D01*
X137846780Y-94708528D01*
X137966874Y-94769719D01*
X137966876Y-94769719D01*
X137975570Y-94774149D01*
X137974411Y-94776422D01*
X138020227Y-94807748D01*
X138047428Y-94872105D01*
X138035517Y-94940952D01*
X137988275Y-94992430D01*
X137967571Y-95002427D01*
X137870022Y-95038811D01*
X137870015Y-95038815D01*
X137760670Y-95120670D01*
X137678815Y-95230015D01*
X137678814Y-95230016D01*
X137631083Y-95357989D01*
X137625000Y-95414571D01*
X137625000Y-95535000D01*
X139074999Y-95535000D01*
X139074999Y-95414566D01*
X139074998Y-95414560D01*
X139068918Y-95357992D01*
X139021186Y-95230018D01*
X139021184Y-95230015D01*
X138939329Y-95120670D01*
X138829984Y-95038815D01*
X138829982Y-95038814D01*
X138732428Y-95002428D01*
X138676495Y-94960556D01*
X138652078Y-94895092D01*
X138666930Y-94826819D01*
X138716335Y-94777414D01*
X138727280Y-94772696D01*
X138733121Y-94769719D01*
X138733126Y-94769719D01*
X138853220Y-94708528D01*
X138945708Y-94616039D01*
X138953652Y-94611701D01*
X138959078Y-94604454D01*
X138983836Y-94595219D01*
X139007029Y-94582555D01*
X139016059Y-94583200D01*
X139024542Y-94580037D01*
X139050363Y-94585654D01*
X139076720Y-94587539D01*
X139085773Y-94593357D01*
X139092815Y-94594889D01*
X139121069Y-94616040D01*
X139133181Y-94628152D01*
X139166666Y-94689475D01*
X139169500Y-94715833D01*
X139169500Y-94805892D01*
X139171115Y-94811919D01*
X139203608Y-94933187D01*
X139217701Y-94957596D01*
X139269500Y-95047314D01*
X139362686Y-95140500D01*
X139476814Y-95206392D01*
X139604108Y-95240500D01*
X139604110Y-95240500D01*
X139735890Y-95240500D01*
X139735892Y-95240500D01*
X139863186Y-95206392D01*
X139977314Y-95140500D01*
X140070500Y-95047314D01*
X140136392Y-94933186D01*
X140170500Y-94805892D01*
X140170500Y-94674108D01*
X140136392Y-94546814D01*
X140070500Y-94432686D01*
X139977314Y-94339500D01*
X139898932Y-94294246D01*
X139863187Y-94273608D01*
X139799539Y-94256554D01*
X139735892Y-94239500D01*
X139645833Y-94239500D01*
X139578794Y-94219815D01*
X139558152Y-94203181D01*
X139175152Y-93820181D01*
X139141667Y-93758858D01*
X139146651Y-93689166D01*
X139188523Y-93633233D01*
X139253987Y-93608816D01*
X139262833Y-93608500D01*
X140677167Y-93608500D01*
X140706607Y-93617144D01*
X140736594Y-93623668D01*
X140741609Y-93627422D01*
X140744206Y-93628185D01*
X140764848Y-93644819D01*
X140808181Y-93688152D01*
X140841666Y-93749475D01*
X140844500Y-93775833D01*
X140844500Y-94206517D01*
X140855126Y-94273608D01*
X140859354Y-94300304D01*
X140916950Y-94413342D01*
X140916952Y-94413344D01*
X140916954Y-94413347D01*
X141006652Y-94503045D01*
X141006654Y-94503046D01*
X141006658Y-94503050D01*
X141119694Y-94560645D01*
X141119698Y-94560647D01*
X141213475Y-94575499D01*
X141213481Y-94575500D01*
X141826518Y-94575499D01*
X141920304Y-94560646D01*
X142033342Y-94503050D01*
X142123050Y-94413342D01*
X142180646Y-94300304D01*
X142180646Y-94300302D01*
X142180647Y-94300301D01*
X142195499Y-94206524D01*
X142195500Y-94206519D01*
X142195499Y-93743482D01*
X142180646Y-93649696D01*
X142123050Y-93536658D01*
X142123046Y-93536654D01*
X142123045Y-93536652D01*
X142033347Y-93446954D01*
X142033344Y-93446952D01*
X142033342Y-93446950D01*
X141944468Y-93401666D01*
X141920301Y-93389352D01*
X141826524Y-93374500D01*
X141826519Y-93374500D01*
X141395833Y-93374500D01*
X141328794Y-93354815D01*
X141308152Y-93338181D01*
X141037512Y-93067541D01*
X141037504Y-93067535D01*
X140968995Y-93027982D01*
X140968990Y-93027979D01*
X140943513Y-93021152D01*
X140892562Y-93007500D01*
X135964938Y-93007500D01*
X135926724Y-93017739D01*
X135888509Y-93027979D01*
X135888504Y-93027982D01*
X135819995Y-93067535D01*
X135819987Y-93067541D01*
X135519348Y-93368181D01*
X135458025Y-93401666D01*
X135431667Y-93404500D01*
X134980749Y-93404500D01*
X134882582Y-93420047D01*
X134824057Y-93449868D01*
X134764249Y-93480342D01*
X134764248Y-93480343D01*
X134764243Y-93480346D01*
X134670346Y-93574243D01*
X134670343Y-93574248D01*
X134610047Y-93692582D01*
X134594500Y-93790748D01*
X134594500Y-94294251D01*
X134610047Y-94392417D01*
X134620709Y-94413342D01*
X134670342Y-94510751D01*
X134670344Y-94510753D01*
X134670346Y-94510756D01*
X134764243Y-94604653D01*
X134764245Y-94604654D01*
X134764249Y-94604658D01*
X134882580Y-94664951D01*
X134882581Y-94664951D01*
X134882583Y-94664952D01*
X134882582Y-94664952D01*
X134980749Y-94680500D01*
X134980754Y-94680500D01*
X135559251Y-94680500D01*
X135657417Y-94664952D01*
X135657418Y-94664951D01*
X135657420Y-94664951D01*
X135775751Y-94604658D01*
X135869658Y-94510751D01*
X135929951Y-94392420D01*
X135929951Y-94392418D01*
X135929952Y-94392417D01*
X135945500Y-94294251D01*
X135945500Y-93843333D01*
X135954144Y-93813892D01*
X135960668Y-93783906D01*
X135964422Y-93778890D01*
X135965185Y-93776294D01*
X135981819Y-93755652D01*
X136092652Y-93644819D01*
X136153975Y-93611334D01*
X136180333Y-93608500D01*
X136284324Y-93608500D01*
X136351363Y-93628185D01*
X136397118Y-93680989D01*
X136407062Y-93750147D01*
X136378037Y-93813703D01*
X136372005Y-93820181D01*
X136359502Y-93832683D01*
X136359500Y-93832686D01*
X136293608Y-93946812D01*
X136289431Y-93962402D01*
X136259500Y-94074108D01*
X136259500Y-94205892D01*
X136260584Y-94209936D01*
X136293608Y-94333187D01*
X136326554Y-94390250D01*
X136359500Y-94447314D01*
X136359502Y-94447316D01*
X136423181Y-94510995D01*
X136456666Y-94572318D01*
X136459500Y-94598676D01*
X136459500Y-96498069D01*
X136439815Y-96565108D01*
X136387011Y-96610863D01*
X136317853Y-96620807D01*
X136273500Y-96605456D01*
X136176189Y-96549273D01*
X136176186Y-96549272D01*
X136048892Y-96515164D01*
X135917108Y-96515164D01*
X135789812Y-96549272D01*
X135675686Y-96615164D01*
X135675683Y-96615166D01*
X135582502Y-96708347D01*
X135582500Y-96708350D01*
X135516608Y-96822476D01*
X135482500Y-96949772D01*
X135482500Y-97081560D01*
X135488778Y-97104989D01*
X135487114Y-97174839D01*
X135447951Y-97232701D01*
X135431004Y-97244466D01*
X135335692Y-97299495D01*
X135335683Y-97299502D01*
X135242502Y-97392683D01*
X135242500Y-97392686D01*
X135176608Y-97506812D01*
X135142500Y-97634108D01*
X135141439Y-97642168D01*
X135140055Y-97641985D01*
X135134659Y-97660363D01*
X135130051Y-97687811D01*
X135124951Y-97693424D01*
X135122815Y-97700699D01*
X135101786Y-97718920D01*
X135083067Y-97739524D01*
X135073059Y-97743812D01*
X135070011Y-97746454D01*
X135050626Y-97753426D01*
X135048009Y-97754127D01*
X135047486Y-97754267D01*
X134977637Y-97752624D01*
X134919763Y-97713477D01*
X134892623Y-97652149D01*
X134884330Y-97594470D01*
X134884328Y-97594463D01*
X134827592Y-97470230D01*
X134827589Y-97470225D01*
X134791891Y-97425926D01*
X134689048Y-97323083D01*
X134689047Y-97323083D01*
X134281754Y-97730376D01*
X134273808Y-97734714D01*
X134268383Y-97741962D01*
X134243623Y-97751196D01*
X134220431Y-97763861D01*
X134211401Y-97763215D01*
X134202919Y-97766379D01*
X134177098Y-97760762D01*
X134150739Y-97758877D01*
X134141685Y-97753058D01*
X134134646Y-97751527D01*
X134106392Y-97730376D01*
X134088008Y-97711992D01*
X134069623Y-97730377D01*
X134008300Y-97763862D01*
X133938608Y-97758878D01*
X133894261Y-97730377D01*
X133469289Y-97305405D01*
X133417925Y-97305405D01*
X133417925Y-97302221D01*
X133373158Y-97299020D01*
X133317225Y-97257148D01*
X133292808Y-97191684D01*
X133292492Y-97182838D01*
X133292492Y-97093273D01*
X133681421Y-97093273D01*
X134088007Y-97499859D01*
X134476916Y-97110951D01*
X134374072Y-97008109D01*
X134374070Y-97008108D01*
X134329776Y-96972411D01*
X134329767Y-96972406D01*
X134205536Y-96915671D01*
X134205529Y-96915669D01*
X134070330Y-96896231D01*
X133935130Y-96915669D01*
X133810888Y-96972409D01*
X133810883Y-96972412D01*
X133766582Y-97008112D01*
X133681421Y-97093273D01*
X133292492Y-97093273D01*
X133292492Y-95892722D01*
X134545000Y-95892722D01*
X134547968Y-95924379D01*
X134594640Y-96057755D01*
X134678550Y-96171449D01*
X134792244Y-96255359D01*
X134925620Y-96302031D01*
X134925619Y-96302031D01*
X134957278Y-96305000D01*
X135120000Y-96305000D01*
X135420000Y-96305000D01*
X135582722Y-96305000D01*
X135614379Y-96302031D01*
X135747755Y-96255359D01*
X135861449Y-96171449D01*
X135945359Y-96057755D01*
X135992031Y-95924379D01*
X135995000Y-95892722D01*
X135995000Y-95767500D01*
X135420000Y-95767500D01*
X135420000Y-96305000D01*
X135120000Y-96305000D01*
X135120000Y-95767500D01*
X134545000Y-95767500D01*
X134545000Y-95892722D01*
X133292492Y-95892722D01*
X133292492Y-95342277D01*
X134545000Y-95342277D01*
X134545000Y-95467500D01*
X135120000Y-95467500D01*
X135420000Y-95467500D01*
X135995000Y-95467500D01*
X135995000Y-95342277D01*
X135992031Y-95310620D01*
X135945359Y-95177244D01*
X135861449Y-95063550D01*
X135747755Y-94979640D01*
X135614379Y-94932968D01*
X135614380Y-94932968D01*
X135582722Y-94930000D01*
X135420000Y-94930000D01*
X135420000Y-95467500D01*
X135120000Y-95467500D01*
X135120000Y-94930000D01*
X134957278Y-94930000D01*
X134925620Y-94932968D01*
X134792244Y-94979640D01*
X134678550Y-95063550D01*
X134594640Y-95177244D01*
X134547968Y-95310620D01*
X134545000Y-95342277D01*
X133292492Y-95342277D01*
X133292492Y-91743840D01*
X133312177Y-91676801D01*
X133328806Y-91656164D01*
X134520861Y-90464108D01*
X135729500Y-90464108D01*
X135729500Y-90595891D01*
X135763608Y-90723187D01*
X135790902Y-90770460D01*
X135829500Y-90837314D01*
X135922686Y-90930500D01*
X136036814Y-90996392D01*
X136164108Y-91030500D01*
X136164110Y-91030500D01*
X136295890Y-91030500D01*
X136295892Y-91030500D01*
X136423186Y-90996392D01*
X136537314Y-90930500D01*
X136630500Y-90837314D01*
X136639777Y-90821244D01*
X136664681Y-90790654D01*
X136674160Y-90782208D01*
X136694511Y-90770460D01*
X136750460Y-90714511D01*
X137208152Y-90256819D01*
X137269475Y-90223334D01*
X137295833Y-90220500D01*
X137545500Y-90220500D01*
X137612539Y-90240185D01*
X137658294Y-90292989D01*
X137667976Y-90337495D01*
X137668903Y-90337404D01*
X137669500Y-90343469D01*
X137709868Y-90546412D01*
X137709870Y-90546420D01*
X137789058Y-90737596D01*
X137904024Y-90909657D01*
X138050342Y-91055975D01*
X138050345Y-91055977D01*
X138222402Y-91170941D01*
X138413580Y-91250130D01*
X138616530Y-91290499D01*
X138616534Y-91290500D01*
X138616535Y-91290500D01*
X139123466Y-91290500D01*
X139123467Y-91290499D01*
X139326420Y-91250130D01*
X139517598Y-91170941D01*
X139689655Y-91055977D01*
X139835977Y-90909655D01*
X139950941Y-90737598D01*
X140030130Y-90546420D01*
X140070500Y-90343465D01*
X140070500Y-90136535D01*
X140030130Y-89933580D01*
X139950941Y-89742402D01*
X139835977Y-89570345D01*
X139835975Y-89570342D01*
X139689657Y-89424024D01*
X139592354Y-89359009D01*
X139517598Y-89309059D01*
X139472766Y-89290489D01*
X139326420Y-89229870D01*
X139326412Y-89229868D01*
X139123469Y-89189500D01*
X139123465Y-89189500D01*
X138616535Y-89189500D01*
X138616530Y-89189500D01*
X138413587Y-89229868D01*
X138413579Y-89229870D01*
X138222403Y-89309058D01*
X138050342Y-89424024D01*
X137904024Y-89570342D01*
X137900891Y-89574161D01*
X137843147Y-89613498D01*
X137805035Y-89619500D01*
X137080438Y-89619500D01*
X137049867Y-89627691D01*
X137004008Y-89639979D01*
X137004005Y-89639981D01*
X136968576Y-89660437D01*
X136968575Y-89660438D01*
X136960881Y-89664880D01*
X136935489Y-89679539D01*
X136935487Y-89679541D01*
X136571763Y-90043264D01*
X136510440Y-90076749D01*
X136440748Y-90071765D01*
X136425251Y-90064463D01*
X136423188Y-90063609D01*
X136423187Y-90063608D01*
X136423186Y-90063608D01*
X136295892Y-90029500D01*
X136164108Y-90029500D01*
X136036812Y-90063608D01*
X135922686Y-90129500D01*
X135922683Y-90129502D01*
X135829502Y-90222683D01*
X135829500Y-90222686D01*
X135763608Y-90336812D01*
X135729500Y-90464108D01*
X134520861Y-90464108D01*
X134791694Y-90193275D01*
X134853015Y-90159792D01*
X134918905Y-90164504D01*
X134918963Y-90164288D01*
X134920084Y-90164588D01*
X134922707Y-90164776D01*
X134926809Y-90166390D01*
X134926811Y-90166390D01*
X134926814Y-90166392D01*
X135054108Y-90200500D01*
X135054110Y-90200500D01*
X135185890Y-90200500D01*
X135185892Y-90200500D01*
X135313186Y-90166392D01*
X135427314Y-90100500D01*
X135520500Y-90007314D01*
X135586392Y-89893186D01*
X135619943Y-89767970D01*
X135632326Y-89738074D01*
X135663207Y-89684588D01*
X135690500Y-89582727D01*
X135690500Y-89477273D01*
X135690500Y-87567273D01*
X135663207Y-87465413D01*
X135610480Y-87374087D01*
X135535913Y-87299520D01*
X135486277Y-87270862D01*
X135438062Y-87220295D01*
X135424840Y-87151688D01*
X135450808Y-87086823D01*
X135460581Y-87075811D01*
X135600480Y-86935913D01*
X135613179Y-86913918D01*
X135653207Y-86844587D01*
X135680500Y-86742727D01*
X135680500Y-86601255D01*
X135700185Y-86534216D01*
X135752989Y-86488461D01*
X135822147Y-86478517D01*
X135885703Y-86507542D01*
X135892181Y-86513574D01*
X137119087Y-87740480D01*
X137210412Y-87793207D01*
X137312273Y-87820500D01*
X137545500Y-87820500D01*
X137612539Y-87840185D01*
X137658294Y-87892989D01*
X137669500Y-87944500D01*
X137669500Y-88394269D01*
X137672353Y-88424699D01*
X137672353Y-88424701D01*
X137717206Y-88552880D01*
X137717207Y-88552882D01*
X137797850Y-88662150D01*
X137907118Y-88742793D01*
X137949845Y-88757744D01*
X138035299Y-88787646D01*
X138065730Y-88790500D01*
X138065734Y-88790500D01*
X139674270Y-88790500D01*
X139704699Y-88787646D01*
X139704701Y-88787646D01*
X139768790Y-88765219D01*
X139832882Y-88742793D01*
X139942150Y-88662150D01*
X140022793Y-88552882D01*
X140046888Y-88484023D01*
X140067646Y-88424701D01*
X140067646Y-88424699D01*
X140070500Y-88394269D01*
X140070500Y-87230439D01*
X141295001Y-87230439D01*
X141301081Y-87287007D01*
X141348813Y-87414981D01*
X141348815Y-87414984D01*
X141430670Y-87524329D01*
X141540015Y-87606184D01*
X141540016Y-87606185D01*
X141667991Y-87653917D01*
X141667994Y-87653918D01*
X141724555Y-87659999D01*
X141869999Y-87659999D01*
X142170000Y-87659999D01*
X142315433Y-87659999D01*
X142315439Y-87659998D01*
X142372007Y-87653918D01*
X142499981Y-87606186D01*
X142499984Y-87606184D01*
X142609329Y-87524329D01*
X142691184Y-87414984D01*
X142691185Y-87414983D01*
X142738916Y-87287010D01*
X142744999Y-87230428D01*
X142745000Y-87230427D01*
X142745000Y-87110000D01*
X142170000Y-87110000D01*
X142170000Y-87659999D01*
X141869999Y-87659999D01*
X141870000Y-87659998D01*
X141870000Y-87110000D01*
X141295001Y-87110000D01*
X141295001Y-87230439D01*
X140070500Y-87230439D01*
X140070500Y-87085731D01*
X140069045Y-87070216D01*
X140069045Y-87070215D01*
X140067646Y-87055300D01*
X140067646Y-87055298D01*
X140022793Y-86927119D01*
X140022792Y-86927117D01*
X139999379Y-86895393D01*
X139942150Y-86817850D01*
X139832882Y-86737207D01*
X139832880Y-86737206D01*
X139704700Y-86692353D01*
X139674270Y-86689500D01*
X139674266Y-86689500D01*
X139384500Y-86689500D01*
X139317461Y-86669815D01*
X139271706Y-86617011D01*
X139260500Y-86565500D01*
X139260500Y-86029500D01*
X139280185Y-85962461D01*
X139332989Y-85916706D01*
X139384500Y-85905500D01*
X139767725Y-85905500D01*
X139767727Y-85905500D01*
X139869588Y-85878207D01*
X139960913Y-85825480D01*
X141388030Y-84398363D01*
X141449353Y-84364878D01*
X141519045Y-84369862D01*
G37*
%TD.AperFunction*%
%TA.AperFunction,Conductor*%
G36*
X146392539Y-76395185D02*
G01*
X146438294Y-76447989D01*
X146449500Y-76499500D01*
X146449500Y-78080815D01*
X146429815Y-78147854D01*
X146377011Y-78193609D01*
X146307853Y-78203553D01*
X146244297Y-78174528D01*
X146222400Y-78149708D01*
X146219554Y-78145449D01*
X146219553Y-78145448D01*
X146153230Y-78101132D01*
X146153229Y-78101131D01*
X146094752Y-78089500D01*
X146094748Y-78089500D01*
X144355252Y-78089500D01*
X144355247Y-78089500D01*
X144296770Y-78101131D01*
X144296769Y-78101132D01*
X144230447Y-78145447D01*
X144186132Y-78211769D01*
X144186131Y-78211770D01*
X144174500Y-78270247D01*
X144174500Y-80009752D01*
X144188515Y-80080210D01*
X144186227Y-80080665D01*
X144191925Y-80133650D01*
X144160652Y-80196130D01*
X144157576Y-80199317D01*
X141261128Y-83095766D01*
X141199805Y-83129251D01*
X141130113Y-83124267D01*
X141107914Y-83110000D01*
X140600000Y-83110000D01*
X140600000Y-82810000D01*
X141100000Y-82810000D01*
X141100000Y-82536128D01*
X141099999Y-82536126D01*
X141071179Y-82391240D01*
X141071177Y-82391232D01*
X141014642Y-82254745D01*
X141014637Y-82254735D01*
X140932563Y-82131903D01*
X140932560Y-82131899D01*
X140828100Y-82027439D01*
X140828096Y-82027436D01*
X140705264Y-81945362D01*
X140705254Y-81945357D01*
X140568767Y-81888822D01*
X140568761Y-81888820D01*
X140500000Y-81875142D01*
X140500000Y-82406446D01*
X140491614Y-82398060D01*
X140399728Y-82360000D01*
X140300272Y-82360000D01*
X140208386Y-82398060D01*
X140200000Y-82406446D01*
X140200000Y-81875143D01*
X140199999Y-81875142D01*
X140131238Y-81888820D01*
X140131232Y-81888822D01*
X139994745Y-81945357D01*
X139994735Y-81945362D01*
X139871903Y-82027436D01*
X139871899Y-82027439D01*
X139767439Y-82131899D01*
X139767436Y-82131903D01*
X139685362Y-82254735D01*
X139685354Y-82254750D01*
X139653834Y-82330845D01*
X139609993Y-82385248D01*
X139543698Y-82407312D01*
X139475999Y-82390032D01*
X139431490Y-82342225D01*
X139430436Y-82342801D01*
X139426184Y-82335015D01*
X139344329Y-82225670D01*
X139234984Y-82143815D01*
X139234983Y-82143814D01*
X139107010Y-82096083D01*
X139050428Y-82090000D01*
X138930000Y-82090000D01*
X138930000Y-84189999D01*
X139050433Y-84189999D01*
X139050439Y-84189998D01*
X139107007Y-84183918D01*
X139234981Y-84136186D01*
X139234984Y-84136184D01*
X139344329Y-84054329D01*
X139426184Y-83944984D01*
X139426185Y-83944983D01*
X139473916Y-83817010D01*
X139480000Y-83760423D01*
X139480032Y-83759835D01*
X139480077Y-83759705D01*
X139480354Y-83757135D01*
X139480961Y-83757200D01*
X139503276Y-83693945D01*
X139558453Y-83651082D01*
X139628045Y-83644855D01*
X139689956Y-83677240D01*
X139706956Y-83697581D01*
X139767436Y-83788097D01*
X139871899Y-83892560D01*
X139871903Y-83892563D01*
X139994735Y-83974637D01*
X139994745Y-83974642D01*
X140131230Y-84031176D01*
X140131240Y-84031179D01*
X140199999Y-84044856D01*
X140200000Y-84044856D01*
X140200000Y-83513554D01*
X140208386Y-83521940D01*
X140300272Y-83560000D01*
X140399728Y-83560000D01*
X140491614Y-83521940D01*
X140500000Y-83513554D01*
X140500000Y-84102244D01*
X140480315Y-84169283D01*
X140463681Y-84189925D01*
X139585426Y-85068181D01*
X139524103Y-85101666D01*
X139497745Y-85104500D01*
X138807273Y-85104500D01*
X138705413Y-85131793D01*
X138705410Y-85131794D01*
X138614085Y-85184521D01*
X138539521Y-85259085D01*
X138486794Y-85350410D01*
X138486793Y-85350413D01*
X138459500Y-85452273D01*
X138459500Y-86565500D01*
X138439815Y-86632539D01*
X138387011Y-86678294D01*
X138335500Y-86689500D01*
X138065730Y-86689500D01*
X138035300Y-86692353D01*
X138035298Y-86692353D01*
X137907119Y-86737206D01*
X137907117Y-86737207D01*
X137797850Y-86817850D01*
X137717207Y-86927117D01*
X137715816Y-86931091D01*
X137714130Y-86935913D01*
X137713941Y-86936453D01*
X137700320Y-86955443D01*
X137690612Y-86976703D01*
X137680337Y-86983305D01*
X137673220Y-86993230D01*
X137651493Y-87001842D01*
X137631834Y-87014477D01*
X137612672Y-87017232D01*
X137608268Y-87018978D01*
X137596899Y-87019500D01*
X137582255Y-87019500D01*
X137515216Y-86999815D01*
X137494574Y-86983181D01*
X135535915Y-85024522D01*
X135535913Y-85024520D01*
X135490250Y-84998156D01*
X135444589Y-84971793D01*
X135393657Y-84958146D01*
X135342727Y-84944500D01*
X135237273Y-84944500D01*
X135135410Y-84971793D01*
X135044083Y-85024522D01*
X135041668Y-85026376D01*
X135039262Y-85027305D01*
X135037049Y-85028584D01*
X135036849Y-85028238D01*
X134976498Y-85051570D01*
X134967488Y-85051945D01*
X134966740Y-85051999D01*
X134898608Y-85061926D01*
X134793514Y-85113303D01*
X134762681Y-85144137D01*
X134701358Y-85177622D01*
X134631666Y-85172638D01*
X134605122Y-85158891D01*
X134595525Y-85152344D01*
X134556483Y-85113302D01*
X134492286Y-85081918D01*
X134484898Y-85076878D01*
X134480862Y-85071954D01*
X134467095Y-85062124D01*
X134094514Y-84689542D01*
X134091293Y-84687070D01*
X134079024Y-84678513D01*
X134074691Y-84674904D01*
X133999327Y-84599540D01*
X133959233Y-84576392D01*
X133950035Y-84571081D01*
X133950032Y-84571079D01*
X133930806Y-84559979D01*
X133930807Y-84559979D01*
X133882252Y-84546969D01*
X133854378Y-84539500D01*
X132973096Y-84539500D01*
X132906057Y-84519815D01*
X132860302Y-84467011D01*
X132850358Y-84397853D01*
X132866840Y-84351581D01*
X132874670Y-84338563D01*
X132879684Y-84333550D01*
X132927339Y-84251007D01*
X132927898Y-84250080D01*
X132952825Y-84227152D01*
X132977333Y-84203784D01*
X132978553Y-84203487D01*
X132979322Y-84202781D01*
X132986927Y-84201456D01*
X133034154Y-84189999D01*
X133129999Y-84189999D01*
X133130000Y-84189998D01*
X133130000Y-82090000D01*
X133430000Y-82090000D01*
X133430000Y-84189999D01*
X133550433Y-84189999D01*
X133550439Y-84189998D01*
X133607007Y-84183918D01*
X133734981Y-84136186D01*
X133734984Y-84136184D01*
X133844329Y-84054329D01*
X133850014Y-84046735D01*
X133905945Y-84004861D01*
X133975636Y-83999872D01*
X134036961Y-84033354D01*
X134071652Y-84068045D01*
X134071654Y-84068046D01*
X134071658Y-84068050D01*
X134160099Y-84113113D01*
X134184698Y-84125647D01*
X134278475Y-84140499D01*
X134278481Y-84140500D01*
X134741518Y-84140499D01*
X134835304Y-84125646D01*
X134940058Y-84072270D01*
X135008727Y-84059375D01*
X135073467Y-84085651D01*
X135084033Y-84095075D01*
X135102071Y-84113113D01*
X135102076Y-84113116D01*
X135222034Y-84174239D01*
X135222033Y-84174239D01*
X135321544Y-84189999D01*
X135680000Y-84189999D01*
X135738449Y-84189999D01*
X135837967Y-84174237D01*
X135957923Y-84113116D01*
X135979259Y-84091781D01*
X136040582Y-84058295D01*
X136110274Y-84063278D01*
X136123038Y-84068875D01*
X136132779Y-84073816D01*
X136133789Y-84074826D01*
X136160831Y-84088046D01*
X136161596Y-84088434D01*
X136186391Y-84111767D01*
X136211541Y-84134745D01*
X136211802Y-84135681D01*
X136212478Y-84136317D01*
X136216639Y-84152994D01*
X136229500Y-84199020D01*
X136229500Y-84318324D01*
X136209815Y-84385363D01*
X136193181Y-84406005D01*
X136169502Y-84429683D01*
X136169500Y-84429686D01*
X136103608Y-84543812D01*
X136069500Y-84671108D01*
X136069500Y-84802891D01*
X136103608Y-84930187D01*
X136127630Y-84971793D01*
X136169500Y-85044314D01*
X136262686Y-85137500D01*
X136376814Y-85203392D01*
X136504108Y-85237500D01*
X136504110Y-85237500D01*
X136635890Y-85237500D01*
X136635892Y-85237500D01*
X136763186Y-85203392D01*
X136877314Y-85137500D01*
X136970500Y-85044314D01*
X137036392Y-84930186D01*
X137070500Y-84802892D01*
X137070500Y-84688939D01*
X137090185Y-84621900D01*
X137142989Y-84576145D01*
X137212147Y-84566201D01*
X137241954Y-84574379D01*
X137246810Y-84576390D01*
X137246811Y-84576390D01*
X137246814Y-84576392D01*
X137374108Y-84610500D01*
X137374110Y-84610500D01*
X137505890Y-84610500D01*
X137505892Y-84610500D01*
X137633186Y-84576392D01*
X137747314Y-84510500D01*
X137840500Y-84417314D01*
X137906392Y-84303186D01*
X137940500Y-84175892D01*
X137940500Y-84165990D01*
X137960185Y-84098951D01*
X137978042Y-84077103D01*
X137986257Y-84069112D01*
X137988342Y-84068050D01*
X138023669Y-84032722D01*
X138024255Y-84032153D01*
X138054406Y-84016227D01*
X138084353Y-83999874D01*
X138085245Y-83999937D01*
X138086036Y-83999520D01*
X138120030Y-84002425D01*
X138154045Y-84004858D01*
X138154760Y-84005393D01*
X138155652Y-84005470D01*
X138182638Y-84026261D01*
X138209978Y-84046726D01*
X138215670Y-84054329D01*
X138325015Y-84136184D01*
X138325016Y-84136185D01*
X138452991Y-84183917D01*
X138452994Y-84183918D01*
X138509555Y-84189999D01*
X138629999Y-84189999D01*
X138630000Y-84189998D01*
X138630000Y-82090000D01*
X138509566Y-82090000D01*
X138509559Y-82090001D01*
X138452992Y-82096081D01*
X138325018Y-82143813D01*
X138325015Y-82143815D01*
X138215669Y-82225671D01*
X138209980Y-82233271D01*
X138154045Y-82275142D01*
X138084353Y-82280125D01*
X138023033Y-82246640D01*
X137988347Y-82211954D01*
X137988344Y-82211952D01*
X137988342Y-82211950D01*
X137911517Y-82172805D01*
X137875301Y-82154352D01*
X137781524Y-82139500D01*
X137781519Y-82139500D01*
X137655048Y-82139500D01*
X137617727Y-82129500D01*
X137512273Y-82129500D01*
X137474949Y-82139500D01*
X137318482Y-82139500D01*
X137237519Y-82152323D01*
X137224696Y-82154354D01*
X137111658Y-82211950D01*
X137111657Y-82211951D01*
X137111649Y-82211956D01*
X137109998Y-82213608D01*
X137107496Y-82214973D01*
X137103759Y-82217689D01*
X137103408Y-82217205D01*
X137048673Y-82247090D01*
X136978982Y-82242101D01*
X136934641Y-82213603D01*
X136926210Y-82205172D01*
X136813628Y-82150135D01*
X136813626Y-82150134D01*
X136813625Y-82150134D01*
X136740636Y-82139500D01*
X136319364Y-82139500D01*
X136246375Y-82150134D01*
X136246373Y-82150134D01*
X136246371Y-82150135D01*
X136124558Y-82209686D01*
X136123217Y-82206943D01*
X136072962Y-82224392D01*
X136005046Y-82207985D01*
X135979261Y-82188219D01*
X135957928Y-82166886D01*
X135957923Y-82166883D01*
X135837965Y-82105760D01*
X135837966Y-82105760D01*
X135738456Y-82090000D01*
X135680000Y-82090000D01*
X135680000Y-84189999D01*
X135321544Y-84189999D01*
X135379999Y-84189998D01*
X135380000Y-84189998D01*
X135380000Y-82090000D01*
X135379999Y-82089999D01*
X135321551Y-82090000D01*
X135222032Y-82105762D01*
X135102076Y-82166883D01*
X135102070Y-82166887D01*
X135084030Y-82184927D01*
X135022707Y-82218411D01*
X134953015Y-82213425D01*
X134940056Y-82207728D01*
X134835306Y-82154354D01*
X134835301Y-82154352D01*
X134741524Y-82139500D01*
X134741519Y-82139500D01*
X134615049Y-82139500D01*
X134577727Y-82129500D01*
X134472273Y-82129500D01*
X134434949Y-82139500D01*
X134278482Y-82139500D01*
X134197519Y-82152323D01*
X134184696Y-82154354D01*
X134071658Y-82211950D01*
X134071657Y-82211951D01*
X134071652Y-82211954D01*
X134036965Y-82246641D01*
X133975642Y-82280126D01*
X133905950Y-82275140D01*
X133850017Y-82233268D01*
X133850016Y-82233267D01*
X133844329Y-82225670D01*
X133734984Y-82143815D01*
X133734983Y-82143814D01*
X133607010Y-82096083D01*
X133550428Y-82090000D01*
X133430000Y-82090000D01*
X133130000Y-82090000D01*
X133009566Y-82090000D01*
X133009559Y-82090001D01*
X132952992Y-82096081D01*
X132825018Y-82143813D01*
X132825015Y-82143815D01*
X132715670Y-82225670D01*
X132633815Y-82335015D01*
X132629564Y-82342801D01*
X132626455Y-82341103D01*
X132593649Y-82383681D01*
X132527852Y-82407186D01*
X132459792Y-82391387D01*
X132411078Y-82341300D01*
X132406164Y-82330844D01*
X132374642Y-82254745D01*
X132374637Y-82254735D01*
X132292563Y-82131903D01*
X132292560Y-82131899D01*
X132188100Y-82027439D01*
X132188096Y-82027436D01*
X132065264Y-81945362D01*
X132065254Y-81945357D01*
X131928767Y-81888822D01*
X131928761Y-81888820D01*
X131860000Y-81875142D01*
X131860000Y-82406446D01*
X131851614Y-82398060D01*
X131759728Y-82360000D01*
X131660272Y-82360000D01*
X131568386Y-82398060D01*
X131560000Y-82406446D01*
X131560000Y-81875143D01*
X131559999Y-81875142D01*
X131491238Y-81888820D01*
X131491232Y-81888822D01*
X131354745Y-81945357D01*
X131354735Y-81945362D01*
X131231903Y-82027436D01*
X131231899Y-82027439D01*
X131127439Y-82131899D01*
X131127436Y-82131903D01*
X131045362Y-82254735D01*
X131045357Y-82254745D01*
X130988822Y-82391232D01*
X130988820Y-82391240D01*
X130960000Y-82536126D01*
X130960000Y-82810000D01*
X131460000Y-82810000D01*
X131460000Y-83110000D01*
X130960000Y-83110000D01*
X130960000Y-83383873D01*
X130988820Y-83528759D01*
X130988822Y-83528767D01*
X131045357Y-83665254D01*
X131045362Y-83665264D01*
X131127436Y-83788096D01*
X131127439Y-83788100D01*
X131231899Y-83892560D01*
X131231903Y-83892563D01*
X131354735Y-83974637D01*
X131354745Y-83974642D01*
X131491232Y-84031177D01*
X131491236Y-84031178D01*
X131503597Y-84033637D01*
X131565509Y-84066020D01*
X131600085Y-84126734D01*
X131596348Y-84196504D01*
X131567091Y-84242936D01*
X130916846Y-84893181D01*
X130855523Y-84926666D01*
X130829171Y-84929500D01*
X130813484Y-84929500D01*
X130737345Y-84941558D01*
X130719696Y-84944354D01*
X130606658Y-85001950D01*
X130606657Y-85001951D01*
X130606652Y-85001954D01*
X130516954Y-85091652D01*
X130516951Y-85091657D01*
X130459352Y-85204698D01*
X130444500Y-85298475D01*
X130444500Y-85761517D01*
X130452684Y-85813186D01*
X130459354Y-85855304D01*
X130516950Y-85968342D01*
X130516952Y-85968344D01*
X130516954Y-85968347D01*
X130606652Y-86058045D01*
X130606654Y-86058046D01*
X130606658Y-86058050D01*
X130719694Y-86115645D01*
X130719698Y-86115647D01*
X130813475Y-86130499D01*
X130813481Y-86130500D01*
X131426518Y-86130499D01*
X131520304Y-86115646D01*
X131633342Y-86058050D01*
X131723050Y-85968342D01*
X131780646Y-85855304D01*
X131780646Y-85855302D01*
X131780647Y-85855301D01*
X131791282Y-85788147D01*
X131795500Y-85761519D01*
X131795499Y-85553389D01*
X131815183Y-85486351D01*
X131867987Y-85440596D01*
X131937145Y-85430652D01*
X131981498Y-85446002D01*
X132016814Y-85466392D01*
X132144108Y-85500500D01*
X132144110Y-85500500D01*
X132275890Y-85500500D01*
X132275892Y-85500500D01*
X132403186Y-85466392D01*
X132517314Y-85400500D01*
X132537819Y-85379995D01*
X132599142Y-85346510D01*
X132668834Y-85351494D01*
X132724767Y-85393366D01*
X132749184Y-85458830D01*
X132749500Y-85467676D01*
X132749500Y-86460760D01*
X132759426Y-86528891D01*
X132810803Y-86633985D01*
X132893514Y-86716696D01*
X132893515Y-86716696D01*
X132893517Y-86716698D01*
X132946759Y-86742726D01*
X132998609Y-86768074D01*
X133007807Y-86770916D01*
X133007264Y-86772672D01*
X133060108Y-86796925D01*
X133066411Y-86802805D01*
X133378926Y-87115319D01*
X133412411Y-87176642D01*
X133407427Y-87246333D01*
X133365556Y-87302267D01*
X133300091Y-87326684D01*
X133291245Y-87327000D01*
X133066739Y-87327000D01*
X132998608Y-87336926D01*
X132893514Y-87388303D01*
X132810803Y-87471014D01*
X132759426Y-87576108D01*
X132749500Y-87644239D01*
X132749500Y-88735760D01*
X132759426Y-88803891D01*
X132810803Y-88908985D01*
X132893514Y-88991696D01*
X132893515Y-88991696D01*
X132893517Y-88991698D01*
X132998607Y-89043073D01*
X133032673Y-89048036D01*
X133066739Y-89053000D01*
X133066740Y-89053000D01*
X133433261Y-89053000D01*
X133455971Y-89049691D01*
X133501393Y-89043073D01*
X133606483Y-88991698D01*
X133689198Y-88908983D01*
X133740573Y-88803893D01*
X133750500Y-88735760D01*
X133750500Y-87644240D01*
X133740573Y-87576107D01*
X133740572Y-87576105D01*
X133739029Y-87571110D01*
X133738043Y-87501247D01*
X133774984Y-87441942D01*
X133838124Y-87412023D01*
X133857501Y-87410500D01*
X134542499Y-87410500D01*
X134609538Y-87430185D01*
X134655293Y-87482989D01*
X134665237Y-87552147D01*
X134660971Y-87571110D01*
X134659426Y-87576108D01*
X134649500Y-87644239D01*
X134649500Y-88735760D01*
X134659426Y-88803891D01*
X134710803Y-88908985D01*
X134793514Y-88991696D01*
X134793513Y-88991696D01*
X134793516Y-88991697D01*
X134793517Y-88991698D01*
X134819959Y-89004624D01*
X134831939Y-89015569D01*
X134846703Y-89022312D01*
X134857203Y-89038650D01*
X134871542Y-89051751D01*
X134876095Y-89068047D01*
X134884477Y-89081090D01*
X134889500Y-89116025D01*
X134889500Y-89183560D01*
X134869815Y-89250599D01*
X134827502Y-89290945D01*
X134812686Y-89299500D01*
X134812683Y-89299502D01*
X134719502Y-89392683D01*
X134719497Y-89392689D01*
X134696455Y-89432599D01*
X134676750Y-89458278D01*
X132807481Y-91327548D01*
X132751533Y-91383495D01*
X132751527Y-91383503D01*
X132711974Y-91452012D01*
X132711971Y-91452017D01*
X132691492Y-91528447D01*
X132691492Y-97814316D01*
X132671807Y-97881355D01*
X132619003Y-97927110D01*
X132549845Y-97937054D01*
X132486289Y-97908029D01*
X132479811Y-97901997D01*
X132417316Y-97839502D01*
X132417314Y-97839500D01*
X132360250Y-97806554D01*
X132303187Y-97773608D01*
X132227865Y-97753426D01*
X132175892Y-97739500D01*
X132044108Y-97739500D01*
X131916812Y-97773608D01*
X131802686Y-97839500D01*
X131802683Y-97839502D01*
X131709502Y-97932683D01*
X131709500Y-97932686D01*
X131643608Y-98046812D01*
X131609500Y-98174108D01*
X131609500Y-98305891D01*
X131643608Y-98433187D01*
X131662904Y-98466608D01*
X131709500Y-98547314D01*
X131802686Y-98640500D01*
X131916814Y-98706392D01*
X132044108Y-98740500D01*
X132044110Y-98740500D01*
X132106616Y-98740500D01*
X132173655Y-98760185D01*
X132219410Y-98812989D01*
X132227113Y-98848399D01*
X132229090Y-98848086D01*
X132230616Y-98857724D01*
X132242703Y-98894922D01*
X132267841Y-98972290D01*
X132272267Y-98985910D01*
X132272268Y-98985913D01*
X132331560Y-99067521D01*
X132331565Y-99067527D01*
X132698681Y-99434643D01*
X132732166Y-99495966D01*
X132727182Y-99565658D01*
X132685310Y-99621591D01*
X132673001Y-99629711D01*
X132567220Y-99690784D01*
X132567217Y-99690786D01*
X132474036Y-99783967D01*
X132474034Y-99783970D01*
X132408138Y-99898104D01*
X132406341Y-99902443D01*
X132379463Y-99942667D01*
X132071754Y-100250376D01*
X132063808Y-100254714D01*
X132058383Y-100261962D01*
X132033623Y-100271196D01*
X132010431Y-100283861D01*
X132001401Y-100283215D01*
X131992919Y-100286379D01*
X131967098Y-100280762D01*
X131940739Y-100278877D01*
X131931685Y-100273058D01*
X131924646Y-100271527D01*
X131896392Y-100250376D01*
X131878008Y-100231992D01*
X131859623Y-100250377D01*
X131798300Y-100283862D01*
X131728608Y-100278878D01*
X131684261Y-100250377D01*
X131259289Y-99825405D01*
X131207925Y-99825405D01*
X131207925Y-99822221D01*
X131163158Y-99819020D01*
X131107225Y-99777148D01*
X131082808Y-99711684D01*
X131082492Y-99702838D01*
X131082492Y-99613273D01*
X131471421Y-99613273D01*
X131878007Y-100019859D01*
X132266916Y-99630951D01*
X132164072Y-99528109D01*
X132164070Y-99528108D01*
X132119776Y-99492411D01*
X132119767Y-99492406D01*
X131995536Y-99435671D01*
X131995529Y-99435669D01*
X131860330Y-99416231D01*
X131725130Y-99435669D01*
X131600888Y-99492409D01*
X131600883Y-99492412D01*
X131556582Y-99528112D01*
X131471421Y-99613273D01*
X131082492Y-99613273D01*
X131082492Y-99405289D01*
X131102177Y-99338250D01*
X131144494Y-99297901D01*
X131157314Y-99290500D01*
X131250500Y-99197314D01*
X131316392Y-99083186D01*
X131350500Y-98955892D01*
X131350500Y-98824108D01*
X131316392Y-98696814D01*
X131250500Y-98582686D01*
X131157314Y-98489500D01*
X131081241Y-98445579D01*
X131043187Y-98423608D01*
X130979539Y-98406554D01*
X130915892Y-98389500D01*
X130784108Y-98389500D01*
X130656812Y-98423608D01*
X130542686Y-98489500D01*
X130542683Y-98489502D01*
X130449502Y-98582683D01*
X130449500Y-98582686D01*
X130383608Y-98696812D01*
X130371902Y-98740500D01*
X130349500Y-98824108D01*
X130349500Y-98955892D01*
X130361022Y-98998892D01*
X130383608Y-99083187D01*
X130414883Y-99137356D01*
X130449500Y-99197314D01*
X130449502Y-99197316D01*
X130454447Y-99203760D01*
X130452056Y-99205593D01*
X130478658Y-99254310D01*
X130481492Y-99280668D01*
X130481492Y-100621845D01*
X130461807Y-100688884D01*
X130445173Y-100709526D01*
X130121565Y-101033133D01*
X130121560Y-101033139D01*
X130062268Y-101114747D01*
X130062267Y-101114750D01*
X130020616Y-101242935D01*
X130020616Y-101377724D01*
X130038799Y-101433684D01*
X130061431Y-101503339D01*
X130062267Y-101505910D01*
X130062268Y-101505913D01*
X130062468Y-101506188D01*
X130121563Y-101587525D01*
X130522475Y-101988437D01*
X130544406Y-102004371D01*
X130570374Y-102023238D01*
X130604089Y-102047733D01*
X130675152Y-102070823D01*
X130724514Y-102101072D01*
X131564394Y-102940952D01*
X131597879Y-103002275D01*
X131592895Y-103071967D01*
X131551023Y-103127900D01*
X131538715Y-103136019D01*
X131532689Y-103139498D01*
X131532683Y-103139502D01*
X131439502Y-103232683D01*
X131439500Y-103232686D01*
X131373608Y-103346812D01*
X131339500Y-103474108D01*
X131339500Y-103605893D01*
X131345837Y-103629541D01*
X131345242Y-103654533D01*
X131348801Y-103679283D01*
X131344425Y-103688864D01*
X131344175Y-103699391D01*
X131330162Y-103720094D01*
X131319776Y-103742839D01*
X131310916Y-103748532D01*
X131305014Y-103757254D01*
X131282030Y-103767096D01*
X131260998Y-103780613D01*
X131245143Y-103782892D01*
X131240785Y-103784759D01*
X131226063Y-103785636D01*
X131084812Y-103785636D01*
X131017773Y-103765951D01*
X130998254Y-103750222D01*
X130997316Y-103749502D01*
X130997314Y-103749500D01*
X130907267Y-103697511D01*
X130883187Y-103683608D01*
X130799005Y-103661052D01*
X130755892Y-103649500D01*
X130624108Y-103649500D01*
X130496812Y-103683608D01*
X130382686Y-103749500D01*
X130382683Y-103749502D01*
X130289502Y-103842683D01*
X130289500Y-103842686D01*
X130223608Y-103956812D01*
X130189500Y-104084108D01*
X130189500Y-104195167D01*
X130169815Y-104262206D01*
X130117011Y-104307961D01*
X130047853Y-104317905D01*
X129984297Y-104288880D01*
X129977819Y-104282848D01*
X128337075Y-102642104D01*
X128303590Y-102580781D01*
X128308574Y-102511089D01*
X128310163Y-102507049D01*
X128360130Y-102386420D01*
X128400500Y-102183465D01*
X128400500Y-101976535D01*
X128360130Y-101773580D01*
X128280941Y-101582402D01*
X128165977Y-101410345D01*
X128165975Y-101410342D01*
X128019657Y-101264024D01*
X127899927Y-101184024D01*
X127847598Y-101149059D01*
X127810296Y-101133608D01*
X127656420Y-101069870D01*
X127656412Y-101069868D01*
X127453469Y-101029500D01*
X127453465Y-101029500D01*
X127246535Y-101029500D01*
X127246530Y-101029500D01*
X127043587Y-101069868D01*
X127043579Y-101069870D01*
X126852403Y-101149058D01*
X126680342Y-101264024D01*
X126534024Y-101410342D01*
X126419057Y-101582403D01*
X126339061Y-101775533D01*
X126295220Y-101829936D01*
X126228926Y-101852001D01*
X126161226Y-101834722D01*
X126113616Y-101783584D01*
X126100500Y-101728080D01*
X126100500Y-99891919D01*
X126120185Y-99824880D01*
X126172989Y-99779125D01*
X126242147Y-99769181D01*
X126305703Y-99798206D01*
X126339061Y-99844466D01*
X126339869Y-99846418D01*
X126339870Y-99846420D01*
X126419059Y-100037598D01*
X126421351Y-100041028D01*
X126534024Y-100209657D01*
X126680342Y-100355975D01*
X126680345Y-100355977D01*
X126852402Y-100470941D01*
X127043580Y-100550130D01*
X127223067Y-100585832D01*
X127246530Y-100590499D01*
X127246534Y-100590500D01*
X127246535Y-100590500D01*
X127453466Y-100590500D01*
X127453467Y-100590499D01*
X127656420Y-100550130D01*
X127847598Y-100470941D01*
X128019655Y-100355977D01*
X128165977Y-100209655D01*
X128280941Y-100037598D01*
X128360130Y-99846420D01*
X128400500Y-99643465D01*
X128400500Y-99436535D01*
X128360130Y-99233580D01*
X128280941Y-99042402D01*
X128165977Y-98870345D01*
X128165975Y-98870342D01*
X128019657Y-98724024D01*
X127899927Y-98644024D01*
X127847598Y-98609059D01*
X127836012Y-98604260D01*
X127656420Y-98529870D01*
X127656412Y-98529868D01*
X127453469Y-98489500D01*
X127453465Y-98489500D01*
X127246535Y-98489500D01*
X127246530Y-98489500D01*
X127043587Y-98529868D01*
X127043579Y-98529870D01*
X126852403Y-98609058D01*
X126680342Y-98724024D01*
X126534024Y-98870342D01*
X126419057Y-99042403D01*
X126339061Y-99235533D01*
X126295220Y-99289936D01*
X126228926Y-99312001D01*
X126161226Y-99294722D01*
X126113616Y-99243584D01*
X126100500Y-99188080D01*
X126100500Y-97351919D01*
X126120185Y-97284880D01*
X126172989Y-97239125D01*
X126242147Y-97229181D01*
X126305703Y-97258206D01*
X126339061Y-97304466D01*
X126339869Y-97306418D01*
X126339870Y-97306420D01*
X126365460Y-97368199D01*
X126419058Y-97497596D01*
X126534024Y-97669657D01*
X126680342Y-97815975D01*
X126680345Y-97815977D01*
X126852402Y-97930941D01*
X127043580Y-98010130D01*
X127218578Y-98044939D01*
X127246530Y-98050499D01*
X127246534Y-98050500D01*
X127246535Y-98050500D01*
X127453466Y-98050500D01*
X127453467Y-98050499D01*
X127656420Y-98010130D01*
X127847598Y-97930941D01*
X128019655Y-97815977D01*
X128165977Y-97669655D01*
X128280941Y-97497598D01*
X128360130Y-97306420D01*
X128400500Y-97103465D01*
X128400500Y-96896535D01*
X128360130Y-96693580D01*
X128280941Y-96502402D01*
X128165977Y-96330345D01*
X128165975Y-96330342D01*
X128019657Y-96184024D01*
X127923560Y-96119815D01*
X127847598Y-96069059D01*
X127709882Y-96012015D01*
X127656420Y-95989870D01*
X127656412Y-95989868D01*
X127453469Y-95949500D01*
X127453465Y-95949500D01*
X127246535Y-95949500D01*
X127246530Y-95949500D01*
X127043587Y-95989868D01*
X127043579Y-95989870D01*
X126852403Y-96069058D01*
X126680342Y-96184024D01*
X126534024Y-96330342D01*
X126419057Y-96502403D01*
X126339061Y-96695533D01*
X126295220Y-96749936D01*
X126228926Y-96772001D01*
X126161226Y-96754722D01*
X126113616Y-96703584D01*
X126100500Y-96648080D01*
X126100500Y-94811919D01*
X126120185Y-94744880D01*
X126172989Y-94699125D01*
X126242147Y-94689181D01*
X126305703Y-94718206D01*
X126339061Y-94764466D01*
X126339869Y-94766418D01*
X126339870Y-94766420D01*
X126364888Y-94826819D01*
X126408947Y-94933187D01*
X126419059Y-94957598D01*
X126433787Y-94979640D01*
X126534024Y-95129657D01*
X126680342Y-95275975D01*
X126680345Y-95275977D01*
X126852402Y-95390941D01*
X127043580Y-95470130D01*
X127246530Y-95510499D01*
X127246534Y-95510500D01*
X127246535Y-95510500D01*
X127453466Y-95510500D01*
X127453467Y-95510499D01*
X127656420Y-95470130D01*
X127847598Y-95390941D01*
X128019655Y-95275977D01*
X128165977Y-95129655D01*
X128280941Y-94957598D01*
X128360130Y-94766420D01*
X128400500Y-94563465D01*
X128400500Y-94356535D01*
X128360130Y-94153580D01*
X128280941Y-93962402D01*
X128165977Y-93790345D01*
X128165975Y-93790342D01*
X128019657Y-93644024D01*
X127915230Y-93574249D01*
X127847598Y-93529059D01*
X127729985Y-93480342D01*
X127656420Y-93449870D01*
X127656412Y-93449868D01*
X127453469Y-93409500D01*
X127453465Y-93409500D01*
X127246535Y-93409500D01*
X127246530Y-93409500D01*
X127043587Y-93449868D01*
X127043579Y-93449870D01*
X126852403Y-93529058D01*
X126680342Y-93644024D01*
X126534024Y-93790342D01*
X126419057Y-93962403D01*
X126339061Y-94155533D01*
X126295220Y-94209936D01*
X126228926Y-94232001D01*
X126161226Y-94214722D01*
X126113616Y-94163584D01*
X126100500Y-94108080D01*
X126100500Y-92271919D01*
X126120185Y-92204880D01*
X126172989Y-92159125D01*
X126242147Y-92149181D01*
X126305703Y-92178206D01*
X126339061Y-92224466D01*
X126339869Y-92226418D01*
X126339870Y-92226420D01*
X126385921Y-92337596D01*
X126419058Y-92417596D01*
X126534024Y-92589657D01*
X126680342Y-92735975D01*
X126680345Y-92735977D01*
X126852402Y-92850941D01*
X127043580Y-92930130D01*
X127246530Y-92970499D01*
X127246534Y-92970500D01*
X127246535Y-92970500D01*
X127453466Y-92970500D01*
X127453467Y-92970499D01*
X127656420Y-92930130D01*
X127847598Y-92850941D01*
X128019655Y-92735977D01*
X128165977Y-92589655D01*
X128280941Y-92417598D01*
X128360130Y-92226420D01*
X128400500Y-92023465D01*
X128400500Y-91816535D01*
X128360130Y-91613580D01*
X128280941Y-91422402D01*
X128165977Y-91250345D01*
X128165975Y-91250342D01*
X128019657Y-91104024D01*
X127899927Y-91024024D01*
X127847598Y-90989059D01*
X127656420Y-90909870D01*
X127656412Y-90909868D01*
X127453469Y-90869500D01*
X127453465Y-90869500D01*
X127246535Y-90869500D01*
X127246530Y-90869500D01*
X127043587Y-90909868D01*
X127043579Y-90909870D01*
X126852403Y-90989058D01*
X126680342Y-91104024D01*
X126534024Y-91250342D01*
X126419057Y-91422403D01*
X126339061Y-91615533D01*
X126295220Y-91669936D01*
X126228926Y-91692001D01*
X126161226Y-91674722D01*
X126113616Y-91623584D01*
X126100500Y-91568080D01*
X126100500Y-89731919D01*
X126120185Y-89664880D01*
X126172989Y-89619125D01*
X126242147Y-89609181D01*
X126305703Y-89638206D01*
X126339061Y-89684466D01*
X126339869Y-89686418D01*
X126339870Y-89686420D01*
X126419059Y-89877598D01*
X126476541Y-89963626D01*
X126534024Y-90049657D01*
X126680342Y-90195975D01*
X126680345Y-90195977D01*
X126852402Y-90310941D01*
X127043580Y-90390130D01*
X127246530Y-90430499D01*
X127246534Y-90430500D01*
X127246535Y-90430500D01*
X127453466Y-90430500D01*
X127453467Y-90430499D01*
X127656420Y-90390130D01*
X127847598Y-90310941D01*
X128019655Y-90195977D01*
X128165977Y-90049655D01*
X128280941Y-89877598D01*
X128360130Y-89686420D01*
X128400500Y-89483465D01*
X128400500Y-89276535D01*
X128360130Y-89073580D01*
X128280941Y-88882402D01*
X128165977Y-88710345D01*
X128165975Y-88710342D01*
X128019657Y-88564024D01*
X127899927Y-88484024D01*
X127847598Y-88449059D01*
X127656420Y-88369870D01*
X127656412Y-88369868D01*
X127453469Y-88329500D01*
X127453465Y-88329500D01*
X127246535Y-88329500D01*
X127246530Y-88329500D01*
X127043587Y-88369868D01*
X127043579Y-88369870D01*
X126852403Y-88449058D01*
X126680342Y-88564024D01*
X126534024Y-88710342D01*
X126419057Y-88882403D01*
X126339061Y-89075533D01*
X126295220Y-89129936D01*
X126228926Y-89152001D01*
X126161226Y-89134722D01*
X126113616Y-89083584D01*
X126100500Y-89028080D01*
X126100500Y-87191919D01*
X126120185Y-87124880D01*
X126172989Y-87079125D01*
X126242147Y-87069181D01*
X126305703Y-87098206D01*
X126339061Y-87144466D01*
X126339869Y-87146418D01*
X126339870Y-87146420D01*
X126374672Y-87230439D01*
X126419058Y-87337596D01*
X126534024Y-87509657D01*
X126680342Y-87655975D01*
X126680345Y-87655977D01*
X126852402Y-87770941D01*
X127043580Y-87850130D01*
X127246530Y-87890499D01*
X127246534Y-87890500D01*
X127246535Y-87890500D01*
X127453466Y-87890500D01*
X127453467Y-87890499D01*
X127656420Y-87850130D01*
X127847598Y-87770941D01*
X128019655Y-87655977D01*
X128165977Y-87509655D01*
X128216397Y-87434196D01*
X130395001Y-87434196D01*
X130397851Y-87464606D01*
X130442653Y-87592645D01*
X130523207Y-87701792D01*
X130632354Y-87782346D01*
X130760397Y-87827149D01*
X130790792Y-87829999D01*
X130969999Y-87829999D01*
X131270000Y-87829999D01*
X131449196Y-87829999D01*
X131479606Y-87827148D01*
X131607645Y-87782346D01*
X131716792Y-87701792D01*
X131797346Y-87592645D01*
X131842149Y-87464604D01*
X131842149Y-87464600D01*
X131845000Y-87434206D01*
X131845000Y-87330000D01*
X131270000Y-87330000D01*
X131270000Y-87829999D01*
X130969999Y-87829999D01*
X130970000Y-87829998D01*
X130970000Y-87330000D01*
X130395001Y-87330000D01*
X130395001Y-87434196D01*
X128216397Y-87434196D01*
X128280941Y-87337598D01*
X128281220Y-87336926D01*
X128325019Y-87231185D01*
X128329859Y-87219500D01*
X128360130Y-87146420D01*
X128400500Y-86943465D01*
X128400500Y-86925793D01*
X130395000Y-86925793D01*
X130395000Y-87030000D01*
X130970000Y-87030000D01*
X131270000Y-87030000D01*
X131844999Y-87030000D01*
X131844999Y-86925803D01*
X131842148Y-86895393D01*
X131797346Y-86767354D01*
X131716792Y-86658207D01*
X131607645Y-86577653D01*
X131479602Y-86532850D01*
X131449207Y-86530000D01*
X131270000Y-86530000D01*
X131270000Y-87030000D01*
X130970000Y-87030000D01*
X130970000Y-86530000D01*
X130790804Y-86530000D01*
X130760393Y-86532851D01*
X130632354Y-86577653D01*
X130523207Y-86658207D01*
X130442653Y-86767354D01*
X130397850Y-86895395D01*
X130397850Y-86895399D01*
X130395000Y-86925793D01*
X128400500Y-86925793D01*
X128400500Y-86736535D01*
X128360130Y-86533580D01*
X128280941Y-86342402D01*
X128165977Y-86170345D01*
X128165975Y-86170342D01*
X128019657Y-86024024D01*
X127899927Y-85944024D01*
X127847598Y-85909059D01*
X127839003Y-85905499D01*
X127656420Y-85829870D01*
X127656412Y-85829868D01*
X127453469Y-85789500D01*
X127453465Y-85789500D01*
X127246535Y-85789500D01*
X127246530Y-85789500D01*
X127043587Y-85829868D01*
X127043579Y-85829870D01*
X126852403Y-85909058D01*
X126680342Y-86024024D01*
X126534024Y-86170342D01*
X126419057Y-86342403D01*
X126339061Y-86535533D01*
X126295220Y-86589936D01*
X126228926Y-86612001D01*
X126161226Y-86594722D01*
X126113616Y-86543584D01*
X126100500Y-86488080D01*
X126100500Y-84651919D01*
X126120185Y-84584880D01*
X126172989Y-84539125D01*
X126242147Y-84529181D01*
X126305703Y-84558206D01*
X126339061Y-84604466D01*
X126339869Y-84606418D01*
X126339870Y-84606420D01*
X126419059Y-84797598D01*
X126445034Y-84836472D01*
X126534024Y-84969657D01*
X126680342Y-85115975D01*
X126680345Y-85115977D01*
X126852402Y-85230941D01*
X127043580Y-85310130D01*
X127226476Y-85346510D01*
X127246530Y-85350499D01*
X127246534Y-85350500D01*
X127246535Y-85350500D01*
X127453466Y-85350500D01*
X127453467Y-85350499D01*
X127656420Y-85310130D01*
X127847598Y-85230941D01*
X128019655Y-85115977D01*
X128165977Y-84969655D01*
X128280941Y-84797598D01*
X128360130Y-84606420D01*
X128400500Y-84403465D01*
X128400500Y-84196535D01*
X128396394Y-84175891D01*
X128392919Y-84158420D01*
X128399146Y-84088828D01*
X128442009Y-84033651D01*
X128507899Y-84010407D01*
X128575896Y-84026475D01*
X128621923Y-84072229D01*
X128659500Y-84137314D01*
X128752686Y-84230500D01*
X128866814Y-84296392D01*
X128994108Y-84330500D01*
X128994110Y-84330500D01*
X129125890Y-84330500D01*
X129125892Y-84330500D01*
X129253186Y-84296392D01*
X129367314Y-84230500D01*
X129460500Y-84137314D01*
X129526392Y-84023186D01*
X129560500Y-83895892D01*
X129560500Y-83764108D01*
X129526392Y-83636814D01*
X129460500Y-83522686D01*
X129381156Y-83443342D01*
X129349062Y-83387754D01*
X129348022Y-83383873D01*
X129340021Y-83354011D01*
X129340017Y-83354004D01*
X129300464Y-83285495D01*
X129300458Y-83285487D01*
X128337075Y-82322104D01*
X128303590Y-82260781D01*
X128308574Y-82191089D01*
X128310163Y-82187049D01*
X128360130Y-82066420D01*
X128400500Y-81863465D01*
X128400500Y-81656535D01*
X128360130Y-81453580D01*
X128280941Y-81262402D01*
X128165977Y-81090345D01*
X128165975Y-81090342D01*
X128019657Y-80944024D01*
X127899927Y-80864024D01*
X127847598Y-80829059D01*
X127656420Y-80749870D01*
X127656412Y-80749868D01*
X127453469Y-80709500D01*
X127453465Y-80709500D01*
X127246535Y-80709500D01*
X127246530Y-80709500D01*
X127043587Y-80749868D01*
X127043579Y-80749870D01*
X126852403Y-80829058D01*
X126680342Y-80944024D01*
X126534024Y-81090342D01*
X126419057Y-81262403D01*
X126339061Y-81455533D01*
X126295220Y-81509936D01*
X126228926Y-81532001D01*
X126161226Y-81514722D01*
X126113616Y-81463584D01*
X126100500Y-81408080D01*
X126100500Y-80241769D01*
X126120185Y-80174730D01*
X126172989Y-80128975D01*
X126242147Y-80119031D01*
X126305703Y-80148056D01*
X126327602Y-80172878D01*
X126355447Y-80214552D01*
X126421769Y-80258867D01*
X126421770Y-80258868D01*
X126480247Y-80270499D01*
X126480250Y-80270500D01*
X126480252Y-80270500D01*
X128219750Y-80270500D01*
X128219751Y-80270499D01*
X128234568Y-80267552D01*
X128278229Y-80258868D01*
X128278229Y-80258867D01*
X128278231Y-80258867D01*
X128344552Y-80214552D01*
X128388867Y-80148231D01*
X128388867Y-80148229D01*
X128388868Y-80148229D01*
X128399940Y-80092563D01*
X128400500Y-80089748D01*
X128400500Y-78736126D01*
X130960000Y-78736126D01*
X130960000Y-79010000D01*
X131460000Y-79010000D01*
X131460000Y-79310000D01*
X130960000Y-79310000D01*
X130960000Y-79583873D01*
X130988820Y-79728759D01*
X130988822Y-79728767D01*
X131045357Y-79865254D01*
X131045362Y-79865264D01*
X131127436Y-79988096D01*
X131127439Y-79988100D01*
X131231899Y-80092560D01*
X131231903Y-80092563D01*
X131354735Y-80174637D01*
X131354745Y-80174642D01*
X131491230Y-80231176D01*
X131491240Y-80231179D01*
X131559999Y-80244856D01*
X131560000Y-80244856D01*
X131560000Y-79713554D01*
X131568386Y-79721940D01*
X131660272Y-79760000D01*
X131759728Y-79760000D01*
X131851614Y-79721940D01*
X131860000Y-79713554D01*
X131860000Y-80244856D01*
X131928759Y-80231179D01*
X131928769Y-80231176D01*
X132065254Y-80174642D01*
X132065264Y-80174637D01*
X132188096Y-80092563D01*
X132188100Y-80092560D01*
X132292560Y-79988100D01*
X132292563Y-79988096D01*
X132374637Y-79865264D01*
X132374642Y-79865254D01*
X132431177Y-79728767D01*
X132431179Y-79728759D01*
X132459999Y-79583873D01*
X132460000Y-79583871D01*
X132460000Y-79310000D01*
X131960000Y-79310000D01*
X131960000Y-79010000D01*
X132460000Y-79010000D01*
X132460000Y-78736128D01*
X132459999Y-78736126D01*
X139600000Y-78736126D01*
X139600000Y-79010000D01*
X140100000Y-79010000D01*
X140100000Y-79310000D01*
X139600000Y-79310000D01*
X139600000Y-79583873D01*
X139628820Y-79728759D01*
X139628822Y-79728767D01*
X139685357Y-79865254D01*
X139685362Y-79865264D01*
X139767436Y-79988096D01*
X139767439Y-79988100D01*
X139871899Y-80092560D01*
X139871903Y-80092563D01*
X139994735Y-80174637D01*
X139994745Y-80174642D01*
X140131230Y-80231176D01*
X140131240Y-80231179D01*
X140199999Y-80244856D01*
X140200000Y-80244856D01*
X140200000Y-79713554D01*
X140208386Y-79721940D01*
X140300272Y-79760000D01*
X140399728Y-79760000D01*
X140491614Y-79721940D01*
X140500000Y-79713554D01*
X140500000Y-80244856D01*
X140568759Y-80231179D01*
X140568769Y-80231176D01*
X140705254Y-80174642D01*
X140705264Y-80174637D01*
X140828096Y-80092563D01*
X140828100Y-80092560D01*
X140932560Y-79988100D01*
X140932563Y-79988096D01*
X141014637Y-79865264D01*
X141014642Y-79865254D01*
X141071177Y-79728767D01*
X141071179Y-79728759D01*
X141099999Y-79583873D01*
X141100000Y-79583871D01*
X141100000Y-79310000D01*
X140600000Y-79310000D01*
X140600000Y-79010000D01*
X141100000Y-79010000D01*
X141100000Y-78736128D01*
X141099999Y-78736126D01*
X141071179Y-78591240D01*
X141071177Y-78591232D01*
X141014642Y-78454745D01*
X141014637Y-78454735D01*
X140932563Y-78331903D01*
X140932560Y-78331899D01*
X140828100Y-78227439D01*
X140828096Y-78227436D01*
X140705264Y-78145362D01*
X140705254Y-78145357D01*
X140568767Y-78088822D01*
X140568761Y-78088820D01*
X140500000Y-78075142D01*
X140500000Y-78606446D01*
X140491614Y-78598060D01*
X140399728Y-78560000D01*
X140300272Y-78560000D01*
X140208386Y-78598060D01*
X140200000Y-78606446D01*
X140200000Y-78075143D01*
X140199999Y-78075142D01*
X140131238Y-78088820D01*
X140131232Y-78088822D01*
X139994745Y-78145357D01*
X139994735Y-78145362D01*
X139871903Y-78227436D01*
X139871899Y-78227439D01*
X139767439Y-78331899D01*
X139767436Y-78331903D01*
X139685362Y-78454735D01*
X139685357Y-78454745D01*
X139628822Y-78591232D01*
X139628820Y-78591240D01*
X139600000Y-78736126D01*
X132459999Y-78736126D01*
X132431179Y-78591240D01*
X132431177Y-78591232D01*
X132374642Y-78454745D01*
X132374637Y-78454735D01*
X132292563Y-78331903D01*
X132292560Y-78331899D01*
X132188100Y-78227439D01*
X132188096Y-78227436D01*
X132065264Y-78145362D01*
X132065254Y-78145357D01*
X131928767Y-78088822D01*
X131928761Y-78088820D01*
X131860000Y-78075142D01*
X131860000Y-78606446D01*
X131851614Y-78598060D01*
X131759728Y-78560000D01*
X131660272Y-78560000D01*
X131568386Y-78598060D01*
X131560000Y-78606446D01*
X131560000Y-78075143D01*
X131559999Y-78075142D01*
X131491238Y-78088820D01*
X131491232Y-78088822D01*
X131354745Y-78145357D01*
X131354735Y-78145362D01*
X131231903Y-78227436D01*
X131231899Y-78227439D01*
X131127439Y-78331899D01*
X131127436Y-78331903D01*
X131045362Y-78454735D01*
X131045357Y-78454745D01*
X130988822Y-78591232D01*
X130988820Y-78591240D01*
X130960000Y-78736126D01*
X128400500Y-78736126D01*
X128400500Y-78350252D01*
X128400500Y-78350249D01*
X128400499Y-78350247D01*
X128388868Y-78291770D01*
X128388867Y-78291769D01*
X128344552Y-78225447D01*
X128278230Y-78181132D01*
X128278229Y-78181131D01*
X128219752Y-78169500D01*
X128219748Y-78169500D01*
X126480252Y-78169500D01*
X126480247Y-78169500D01*
X126421770Y-78181131D01*
X126421769Y-78181132D01*
X126355448Y-78225446D01*
X126327602Y-78267122D01*
X126273989Y-78311926D01*
X126204664Y-78320633D01*
X126141637Y-78290478D01*
X126104918Y-78231035D01*
X126100500Y-78198230D01*
X126100500Y-76499500D01*
X126120185Y-76432461D01*
X126172989Y-76386706D01*
X126224500Y-76375500D01*
X146325500Y-76375500D01*
X146392539Y-76395185D01*
G37*
%TD.AperFunction*%
%TD*%
M02*
