%TF.GenerationSoftware,KiCad,Pcbnew,9.0.8+dfsg-1*%
%TF.CreationDate,2026-09-09T01:07:18+05:30*%
%TF.ProjectId,STM32F401_Minimal_DevBoard,53544d33-3246-4343-9031-5f4d696e696d,rev?*%
%TF.SameCoordinates,Original*%
%TF.FileFunction,Legend,Top*%
%TF.FilePolarity,Positive*%
%FSLAX46Y46*%
G04 Gerber Fmt 4.6, Leading zero omitted, Abs format (unit mm)*
G04 Created by KiCad (PCBNEW 9.0.8+dfsg-1) date 2026-09-09 01:07:18*
%MOMM*%
%LPD*%
G01*
G04 APERTURE LIST*
%ADD10C,0.150000*%
%ADD11C,0.120000*%
G04 APERTURE END LIST*
D10*
X142579819Y-81558094D02*
X141579819Y-81558094D01*
X141579819Y-81558094D02*
X141579819Y-81177142D01*
X141579819Y-81177142D02*
X141627438Y-81081904D01*
X141627438Y-81081904D02*
X141675057Y-81034285D01*
X141675057Y-81034285D02*
X141770295Y-80986666D01*
X141770295Y-80986666D02*
X141913152Y-80986666D01*
X141913152Y-80986666D02*
X142008390Y-81034285D01*
X142008390Y-81034285D02*
X142056009Y-81081904D01*
X142056009Y-81081904D02*
X142103628Y-81177142D01*
X142103628Y-81177142D02*
X142103628Y-81558094D01*
X142579819Y-80034285D02*
X142579819Y-80605713D01*
X142579819Y-80319999D02*
X141579819Y-80319999D01*
X141579819Y-80319999D02*
X141722676Y-80415237D01*
X141722676Y-80415237D02*
X141817914Y-80510475D01*
X141817914Y-80510475D02*
X141865533Y-80605713D01*
X127016666Y-76294819D02*
X127016666Y-77009104D01*
X127016666Y-77009104D02*
X126969047Y-77151961D01*
X126969047Y-77151961D02*
X126873809Y-77247200D01*
X126873809Y-77247200D02*
X126730952Y-77294819D01*
X126730952Y-77294819D02*
X126635714Y-77294819D01*
X127445238Y-76390057D02*
X127492857Y-76342438D01*
X127492857Y-76342438D02*
X127588095Y-76294819D01*
X127588095Y-76294819D02*
X127826190Y-76294819D01*
X127826190Y-76294819D02*
X127921428Y-76342438D01*
X127921428Y-76342438D02*
X127969047Y-76390057D01*
X127969047Y-76390057D02*
X128016666Y-76485295D01*
X128016666Y-76485295D02*
X128016666Y-76580533D01*
X128016666Y-76580533D02*
X127969047Y-76723390D01*
X127969047Y-76723390D02*
X127397619Y-77294819D01*
X127397619Y-77294819D02*
X128016666Y-77294819D01*
X140276724Y-113580794D02*
X140613442Y-113917512D01*
X139670633Y-113446107D02*
X140276724Y-113580794D01*
X140276724Y-113580794D02*
X140142037Y-112974703D01*
X141455235Y-113075718D02*
X141051174Y-113479779D01*
X141253205Y-113277748D02*
X140546098Y-112570642D01*
X140546098Y-112570642D02*
X140579770Y-112739000D01*
X140579770Y-112739000D02*
X140579770Y-112873687D01*
X140579770Y-112873687D02*
X140546098Y-112974703D01*
X132968927Y-106091076D02*
X132396507Y-106663496D01*
X132396507Y-106663496D02*
X132362835Y-106764511D01*
X132362835Y-106764511D02*
X132362835Y-106831855D01*
X132362835Y-106831855D02*
X132396507Y-106932870D01*
X132396507Y-106932870D02*
X132531194Y-107067557D01*
X132531194Y-107067557D02*
X132632209Y-107101229D01*
X132632209Y-107101229D02*
X132699553Y-107101229D01*
X132699553Y-107101229D02*
X132800568Y-107067557D01*
X132800568Y-107067557D02*
X133372988Y-106495137D01*
X133608690Y-106865527D02*
X133676033Y-106865527D01*
X133676033Y-106865527D02*
X133777049Y-106899198D01*
X133777049Y-106899198D02*
X133945407Y-107067557D01*
X133945407Y-107067557D02*
X133979079Y-107168572D01*
X133979079Y-107168572D02*
X133979079Y-107235916D01*
X133979079Y-107235916D02*
X133945407Y-107336931D01*
X133945407Y-107336931D02*
X133878064Y-107404275D01*
X133878064Y-107404275D02*
X133743377Y-107471618D01*
X133743377Y-107471618D02*
X132935255Y-107471618D01*
X132935255Y-107471618D02*
X133372988Y-107909351D01*
X132878095Y-89384819D02*
X132878095Y-90194342D01*
X132878095Y-90194342D02*
X132925714Y-90289580D01*
X132925714Y-90289580D02*
X132973333Y-90337200D01*
X132973333Y-90337200D02*
X133068571Y-90384819D01*
X133068571Y-90384819D02*
X133259047Y-90384819D01*
X133259047Y-90384819D02*
X133354285Y-90337200D01*
X133354285Y-90337200D02*
X133401904Y-90289580D01*
X133401904Y-90289580D02*
X133449523Y-90194342D01*
X133449523Y-90194342D02*
X133449523Y-89384819D01*
X134449523Y-90384819D02*
X133878095Y-90384819D01*
X134163809Y-90384819D02*
X134163809Y-89384819D01*
X134163809Y-89384819D02*
X134068571Y-89527676D01*
X134068571Y-89527676D02*
X133973333Y-89622914D01*
X133973333Y-89622914D02*
X133878095Y-89670533D01*
X135822857Y-124887200D02*
X135965714Y-124934819D01*
X135965714Y-124934819D02*
X136203809Y-124934819D01*
X136203809Y-124934819D02*
X136299047Y-124887200D01*
X136299047Y-124887200D02*
X136346666Y-124839580D01*
X136346666Y-124839580D02*
X136394285Y-124744342D01*
X136394285Y-124744342D02*
X136394285Y-124649104D01*
X136394285Y-124649104D02*
X136346666Y-124553866D01*
X136346666Y-124553866D02*
X136299047Y-124506247D01*
X136299047Y-124506247D02*
X136203809Y-124458628D01*
X136203809Y-124458628D02*
X136013333Y-124411009D01*
X136013333Y-124411009D02*
X135918095Y-124363390D01*
X135918095Y-124363390D02*
X135870476Y-124315771D01*
X135870476Y-124315771D02*
X135822857Y-124220533D01*
X135822857Y-124220533D02*
X135822857Y-124125295D01*
X135822857Y-124125295D02*
X135870476Y-124030057D01*
X135870476Y-124030057D02*
X135918095Y-123982438D01*
X135918095Y-123982438D02*
X136013333Y-123934819D01*
X136013333Y-123934819D02*
X136251428Y-123934819D01*
X136251428Y-123934819D02*
X136394285Y-123982438D01*
X136727619Y-123934819D02*
X136965714Y-124934819D01*
X136965714Y-124934819D02*
X137156190Y-124220533D01*
X137156190Y-124220533D02*
X137346666Y-124934819D01*
X137346666Y-124934819D02*
X137584762Y-123934819D01*
X137965714Y-124934819D02*
X137965714Y-123934819D01*
X137965714Y-123934819D02*
X138203809Y-123934819D01*
X138203809Y-123934819D02*
X138346666Y-123982438D01*
X138346666Y-123982438D02*
X138441904Y-124077676D01*
X138441904Y-124077676D02*
X138489523Y-124172914D01*
X138489523Y-124172914D02*
X138537142Y-124363390D01*
X138537142Y-124363390D02*
X138537142Y-124506247D01*
X138537142Y-124506247D02*
X138489523Y-124696723D01*
X138489523Y-124696723D02*
X138441904Y-124791961D01*
X138441904Y-124791961D02*
X138346666Y-124887200D01*
X138346666Y-124887200D02*
X138203809Y-124934819D01*
X138203809Y-124934819D02*
X137965714Y-124934819D01*
X130231009Y-123313333D02*
X130278628Y-123170476D01*
X130278628Y-123170476D02*
X130326247Y-123122857D01*
X130326247Y-123122857D02*
X130421485Y-123075238D01*
X130421485Y-123075238D02*
X130564342Y-123075238D01*
X130564342Y-123075238D02*
X130659580Y-123122857D01*
X130659580Y-123122857D02*
X130707200Y-123170476D01*
X130707200Y-123170476D02*
X130754819Y-123265714D01*
X130754819Y-123265714D02*
X130754819Y-123646666D01*
X130754819Y-123646666D02*
X129754819Y-123646666D01*
X129754819Y-123646666D02*
X129754819Y-123313333D01*
X129754819Y-123313333D02*
X129802438Y-123218095D01*
X129802438Y-123218095D02*
X129850057Y-123170476D01*
X129850057Y-123170476D02*
X129945295Y-123122857D01*
X129945295Y-123122857D02*
X130040533Y-123122857D01*
X130040533Y-123122857D02*
X130135771Y-123170476D01*
X130135771Y-123170476D02*
X130183390Y-123218095D01*
X130183390Y-123218095D02*
X130231009Y-123313333D01*
X130231009Y-123313333D02*
X130231009Y-123646666D01*
X129754819Y-122456190D02*
X129754819Y-122265714D01*
X129754819Y-122265714D02*
X129802438Y-122170476D01*
X129802438Y-122170476D02*
X129897676Y-122075238D01*
X129897676Y-122075238D02*
X130088152Y-122027619D01*
X130088152Y-122027619D02*
X130421485Y-122027619D01*
X130421485Y-122027619D02*
X130611961Y-122075238D01*
X130611961Y-122075238D02*
X130707200Y-122170476D01*
X130707200Y-122170476D02*
X130754819Y-122265714D01*
X130754819Y-122265714D02*
X130754819Y-122456190D01*
X130754819Y-122456190D02*
X130707200Y-122551428D01*
X130707200Y-122551428D02*
X130611961Y-122646666D01*
X130611961Y-122646666D02*
X130421485Y-122694285D01*
X130421485Y-122694285D02*
X130088152Y-122694285D01*
X130088152Y-122694285D02*
X129897676Y-122646666D01*
X129897676Y-122646666D02*
X129802438Y-122551428D01*
X129802438Y-122551428D02*
X129754819Y-122456190D01*
X129754819Y-121408571D02*
X129754819Y-121218095D01*
X129754819Y-121218095D02*
X129802438Y-121122857D01*
X129802438Y-121122857D02*
X129897676Y-121027619D01*
X129897676Y-121027619D02*
X130088152Y-120980000D01*
X130088152Y-120980000D02*
X130421485Y-120980000D01*
X130421485Y-120980000D02*
X130611961Y-121027619D01*
X130611961Y-121027619D02*
X130707200Y-121122857D01*
X130707200Y-121122857D02*
X130754819Y-121218095D01*
X130754819Y-121218095D02*
X130754819Y-121408571D01*
X130754819Y-121408571D02*
X130707200Y-121503809D01*
X130707200Y-121503809D02*
X130611961Y-121599047D01*
X130611961Y-121599047D02*
X130421485Y-121646666D01*
X130421485Y-121646666D02*
X130088152Y-121646666D01*
X130088152Y-121646666D02*
X129897676Y-121599047D01*
X129897676Y-121599047D02*
X129802438Y-121503809D01*
X129802438Y-121503809D02*
X129754819Y-121408571D01*
X129754819Y-120694285D02*
X129754819Y-120122857D01*
X130754819Y-120408571D02*
X129754819Y-120408571D01*
X129754819Y-119599047D02*
X129754819Y-119503809D01*
X129754819Y-119503809D02*
X129802438Y-119408571D01*
X129802438Y-119408571D02*
X129850057Y-119360952D01*
X129850057Y-119360952D02*
X129945295Y-119313333D01*
X129945295Y-119313333D02*
X130135771Y-119265714D01*
X130135771Y-119265714D02*
X130373866Y-119265714D01*
X130373866Y-119265714D02*
X130564342Y-119313333D01*
X130564342Y-119313333D02*
X130659580Y-119360952D01*
X130659580Y-119360952D02*
X130707200Y-119408571D01*
X130707200Y-119408571D02*
X130754819Y-119503809D01*
X130754819Y-119503809D02*
X130754819Y-119599047D01*
X130754819Y-119599047D02*
X130707200Y-119694285D01*
X130707200Y-119694285D02*
X130659580Y-119741904D01*
X130659580Y-119741904D02*
X130564342Y-119789523D01*
X130564342Y-119789523D02*
X130373866Y-119837142D01*
X130373866Y-119837142D02*
X130135771Y-119837142D01*
X130135771Y-119837142D02*
X129945295Y-119789523D01*
X129945295Y-119789523D02*
X129850057Y-119741904D01*
X129850057Y-119741904D02*
X129802438Y-119694285D01*
X129802438Y-119694285D02*
X129754819Y-119599047D01*
X138294819Y-123112856D02*
X137294819Y-123112856D01*
X137294819Y-123112856D02*
X138294819Y-122541428D01*
X138294819Y-122541428D02*
X137294819Y-122541428D01*
X138294819Y-121493809D02*
X137818628Y-121827142D01*
X138294819Y-122065237D02*
X137294819Y-122065237D01*
X137294819Y-122065237D02*
X137294819Y-121684285D01*
X137294819Y-121684285D02*
X137342438Y-121589047D01*
X137342438Y-121589047D02*
X137390057Y-121541428D01*
X137390057Y-121541428D02*
X137485295Y-121493809D01*
X137485295Y-121493809D02*
X137628152Y-121493809D01*
X137628152Y-121493809D02*
X137723390Y-121541428D01*
X137723390Y-121541428D02*
X137771009Y-121589047D01*
X137771009Y-121589047D02*
X137818628Y-121684285D01*
X137818628Y-121684285D02*
X137818628Y-122065237D01*
X138247200Y-121112856D02*
X138294819Y-120969999D01*
X138294819Y-120969999D02*
X138294819Y-120731904D01*
X138294819Y-120731904D02*
X138247200Y-120636666D01*
X138247200Y-120636666D02*
X138199580Y-120589047D01*
X138199580Y-120589047D02*
X138104342Y-120541428D01*
X138104342Y-120541428D02*
X138009104Y-120541428D01*
X138009104Y-120541428D02*
X137913866Y-120589047D01*
X137913866Y-120589047D02*
X137866247Y-120636666D01*
X137866247Y-120636666D02*
X137818628Y-120731904D01*
X137818628Y-120731904D02*
X137771009Y-120922380D01*
X137771009Y-120922380D02*
X137723390Y-121017618D01*
X137723390Y-121017618D02*
X137675771Y-121065237D01*
X137675771Y-121065237D02*
X137580533Y-121112856D01*
X137580533Y-121112856D02*
X137485295Y-121112856D01*
X137485295Y-121112856D02*
X137390057Y-121065237D01*
X137390057Y-121065237D02*
X137342438Y-121017618D01*
X137342438Y-121017618D02*
X137294819Y-120922380D01*
X137294819Y-120922380D02*
X137294819Y-120684285D01*
X137294819Y-120684285D02*
X137342438Y-120541428D01*
X137294819Y-120255713D02*
X137294819Y-119684285D01*
X138294819Y-119969999D02*
X137294819Y-119969999D01*
X130183333Y-89249819D02*
X129850000Y-88773628D01*
X129611905Y-89249819D02*
X129611905Y-88249819D01*
X129611905Y-88249819D02*
X129992857Y-88249819D01*
X129992857Y-88249819D02*
X130088095Y-88297438D01*
X130088095Y-88297438D02*
X130135714Y-88345057D01*
X130135714Y-88345057D02*
X130183333Y-88440295D01*
X130183333Y-88440295D02*
X130183333Y-88583152D01*
X130183333Y-88583152D02*
X130135714Y-88678390D01*
X130135714Y-88678390D02*
X130088095Y-88726009D01*
X130088095Y-88726009D02*
X129992857Y-88773628D01*
X129992857Y-88773628D02*
X129611905Y-88773628D01*
X131088095Y-88249819D02*
X130611905Y-88249819D01*
X130611905Y-88249819D02*
X130564286Y-88726009D01*
X130564286Y-88726009D02*
X130611905Y-88678390D01*
X130611905Y-88678390D02*
X130707143Y-88630771D01*
X130707143Y-88630771D02*
X130945238Y-88630771D01*
X130945238Y-88630771D02*
X131040476Y-88678390D01*
X131040476Y-88678390D02*
X131088095Y-88726009D01*
X131088095Y-88726009D02*
X131135714Y-88821247D01*
X131135714Y-88821247D02*
X131135714Y-89059342D01*
X131135714Y-89059342D02*
X131088095Y-89154580D01*
X131088095Y-89154580D02*
X131040476Y-89202200D01*
X131040476Y-89202200D02*
X130945238Y-89249819D01*
X130945238Y-89249819D02*
X130707143Y-89249819D01*
X130707143Y-89249819D02*
X130611905Y-89202200D01*
X130611905Y-89202200D02*
X130564286Y-89154580D01*
X140544819Y-94966666D02*
X140068628Y-95299999D01*
X140544819Y-95538094D02*
X139544819Y-95538094D01*
X139544819Y-95538094D02*
X139544819Y-95157142D01*
X139544819Y-95157142D02*
X139592438Y-95061904D01*
X139592438Y-95061904D02*
X139640057Y-95014285D01*
X139640057Y-95014285D02*
X139735295Y-94966666D01*
X139735295Y-94966666D02*
X139878152Y-94966666D01*
X139878152Y-94966666D02*
X139973390Y-95014285D01*
X139973390Y-95014285D02*
X140021009Y-95061904D01*
X140021009Y-95061904D02*
X140068628Y-95157142D01*
X140068628Y-95157142D02*
X140068628Y-95538094D01*
X139878152Y-94109523D02*
X140544819Y-94109523D01*
X139497200Y-94347618D02*
X140211485Y-94585713D01*
X140211485Y-94585713D02*
X140211485Y-93966666D01*
X130644819Y-126536666D02*
X130168628Y-126869999D01*
X130644819Y-127108094D02*
X129644819Y-127108094D01*
X129644819Y-127108094D02*
X129644819Y-126727142D01*
X129644819Y-126727142D02*
X129692438Y-126631904D01*
X129692438Y-126631904D02*
X129740057Y-126584285D01*
X129740057Y-126584285D02*
X129835295Y-126536666D01*
X129835295Y-126536666D02*
X129978152Y-126536666D01*
X129978152Y-126536666D02*
X130073390Y-126584285D01*
X130073390Y-126584285D02*
X130121009Y-126631904D01*
X130121009Y-126631904D02*
X130168628Y-126727142D01*
X130168628Y-126727142D02*
X130168628Y-127108094D01*
X129740057Y-126155713D02*
X129692438Y-126108094D01*
X129692438Y-126108094D02*
X129644819Y-126012856D01*
X129644819Y-126012856D02*
X129644819Y-125774761D01*
X129644819Y-125774761D02*
X129692438Y-125679523D01*
X129692438Y-125679523D02*
X129740057Y-125631904D01*
X129740057Y-125631904D02*
X129835295Y-125584285D01*
X129835295Y-125584285D02*
X129930533Y-125584285D01*
X129930533Y-125584285D02*
X130073390Y-125631904D01*
X130073390Y-125631904D02*
X130644819Y-126203332D01*
X130644819Y-126203332D02*
X130644819Y-125584285D01*
X141923333Y-128704819D02*
X141590000Y-128228628D01*
X141351905Y-128704819D02*
X141351905Y-127704819D01*
X141351905Y-127704819D02*
X141732857Y-127704819D01*
X141732857Y-127704819D02*
X141828095Y-127752438D01*
X141828095Y-127752438D02*
X141875714Y-127800057D01*
X141875714Y-127800057D02*
X141923333Y-127895295D01*
X141923333Y-127895295D02*
X141923333Y-128038152D01*
X141923333Y-128038152D02*
X141875714Y-128133390D01*
X141875714Y-128133390D02*
X141828095Y-128181009D01*
X141828095Y-128181009D02*
X141732857Y-128228628D01*
X141732857Y-128228628D02*
X141351905Y-128228628D01*
X142875714Y-128704819D02*
X142304286Y-128704819D01*
X142590000Y-128704819D02*
X142590000Y-127704819D01*
X142590000Y-127704819D02*
X142494762Y-127847676D01*
X142494762Y-127847676D02*
X142399524Y-127942914D01*
X142399524Y-127942914D02*
X142304286Y-127990533D01*
X144891666Y-76214819D02*
X144891666Y-76929104D01*
X144891666Y-76929104D02*
X144844047Y-77071961D01*
X144844047Y-77071961D02*
X144748809Y-77167200D01*
X144748809Y-77167200D02*
X144605952Y-77214819D01*
X144605952Y-77214819D02*
X144510714Y-77214819D01*
X145272619Y-76214819D02*
X145891666Y-76214819D01*
X145891666Y-76214819D02*
X145558333Y-76595771D01*
X145558333Y-76595771D02*
X145701190Y-76595771D01*
X145701190Y-76595771D02*
X145796428Y-76643390D01*
X145796428Y-76643390D02*
X145844047Y-76691009D01*
X145844047Y-76691009D02*
X145891666Y-76786247D01*
X145891666Y-76786247D02*
X145891666Y-77024342D01*
X145891666Y-77024342D02*
X145844047Y-77119580D01*
X145844047Y-77119580D02*
X145796428Y-77167200D01*
X145796428Y-77167200D02*
X145701190Y-77214819D01*
X145701190Y-77214819D02*
X145415476Y-77214819D01*
X145415476Y-77214819D02*
X145320238Y-77167200D01*
X145320238Y-77167200D02*
X145272619Y-77119580D01*
X141124819Y-89323333D02*
X141839104Y-89323333D01*
X141839104Y-89323333D02*
X141981961Y-89370952D01*
X141981961Y-89370952D02*
X142077200Y-89466190D01*
X142077200Y-89466190D02*
X142124819Y-89609047D01*
X142124819Y-89609047D02*
X142124819Y-89704285D01*
X142124819Y-88323333D02*
X142124819Y-88894761D01*
X142124819Y-88609047D02*
X141124819Y-88609047D01*
X141124819Y-88609047D02*
X141267676Y-88704285D01*
X141267676Y-88704285D02*
X141362914Y-88799523D01*
X141362914Y-88799523D02*
X141410533Y-88894761D01*
X134294819Y-95568094D02*
X133294819Y-95568094D01*
X133294819Y-95568094D02*
X133294819Y-95329999D01*
X133294819Y-95329999D02*
X133342438Y-95187142D01*
X133342438Y-95187142D02*
X133437676Y-95091904D01*
X133437676Y-95091904D02*
X133532914Y-95044285D01*
X133532914Y-95044285D02*
X133723390Y-94996666D01*
X133723390Y-94996666D02*
X133866247Y-94996666D01*
X133866247Y-94996666D02*
X134056723Y-95044285D01*
X134056723Y-95044285D02*
X134151961Y-95091904D01*
X134151961Y-95091904D02*
X134247200Y-95187142D01*
X134247200Y-95187142D02*
X134294819Y-95329999D01*
X134294819Y-95329999D02*
X134294819Y-95568094D01*
X134294819Y-94044285D02*
X134294819Y-94615713D01*
X134294819Y-94329999D02*
X133294819Y-94329999D01*
X133294819Y-94329999D02*
X133437676Y-94425237D01*
X133437676Y-94425237D02*
X133532914Y-94520475D01*
X133532914Y-94520475D02*
X133580533Y-94615713D01*
X135339580Y-121787857D02*
X135387200Y-121835476D01*
X135387200Y-121835476D02*
X135434819Y-121978333D01*
X135434819Y-121978333D02*
X135434819Y-122073571D01*
X135434819Y-122073571D02*
X135387200Y-122216428D01*
X135387200Y-122216428D02*
X135291961Y-122311666D01*
X135291961Y-122311666D02*
X135196723Y-122359285D01*
X135196723Y-122359285D02*
X135006247Y-122406904D01*
X135006247Y-122406904D02*
X134863390Y-122406904D01*
X134863390Y-122406904D02*
X134672914Y-122359285D01*
X134672914Y-122359285D02*
X134577676Y-122311666D01*
X134577676Y-122311666D02*
X134482438Y-122216428D01*
X134482438Y-122216428D02*
X134434819Y-122073571D01*
X134434819Y-122073571D02*
X134434819Y-121978333D01*
X134434819Y-121978333D02*
X134482438Y-121835476D01*
X134482438Y-121835476D02*
X134530057Y-121787857D01*
X135434819Y-120835476D02*
X135434819Y-121406904D01*
X135434819Y-121121190D02*
X134434819Y-121121190D01*
X134434819Y-121121190D02*
X134577676Y-121216428D01*
X134577676Y-121216428D02*
X134672914Y-121311666D01*
X134672914Y-121311666D02*
X134720533Y-121406904D01*
X134434819Y-120502142D02*
X134434819Y-119883095D01*
X134434819Y-119883095D02*
X134815771Y-120216428D01*
X134815771Y-120216428D02*
X134815771Y-120073571D01*
X134815771Y-120073571D02*
X134863390Y-119978333D01*
X134863390Y-119978333D02*
X134911009Y-119930714D01*
X134911009Y-119930714D02*
X135006247Y-119883095D01*
X135006247Y-119883095D02*
X135244342Y-119883095D01*
X135244342Y-119883095D02*
X135339580Y-119930714D01*
X135339580Y-119930714D02*
X135387200Y-119978333D01*
X135387200Y-119978333D02*
X135434819Y-120073571D01*
X135434819Y-120073571D02*
X135434819Y-120359285D01*
X135434819Y-120359285D02*
X135387200Y-120454523D01*
X135387200Y-120454523D02*
X135339580Y-120502142D01*
X140331169Y-97609693D02*
X140263825Y-97609693D01*
X140263825Y-97609693D02*
X140129138Y-97542349D01*
X140129138Y-97542349D02*
X140061795Y-97475006D01*
X140061795Y-97475006D02*
X139994451Y-97340319D01*
X139994451Y-97340319D02*
X139994451Y-97205632D01*
X139994451Y-97205632D02*
X140028123Y-97104617D01*
X140028123Y-97104617D02*
X140129138Y-96936258D01*
X140129138Y-96936258D02*
X140230153Y-96835243D01*
X140230153Y-96835243D02*
X140398512Y-96734227D01*
X140398512Y-96734227D02*
X140499527Y-96700556D01*
X140499527Y-96700556D02*
X140634214Y-96700556D01*
X140634214Y-96700556D02*
X140768901Y-96767899D01*
X140768901Y-96767899D02*
X140836245Y-96835243D01*
X140836245Y-96835243D02*
X140903588Y-96969930D01*
X140903588Y-96969930D02*
X140903588Y-97037273D01*
X140937260Y-98350471D02*
X140533199Y-97946410D01*
X140735230Y-98148441D02*
X141442336Y-97441334D01*
X141442336Y-97441334D02*
X141273978Y-97475006D01*
X141273978Y-97475006D02*
X141139291Y-97475006D01*
X141139291Y-97475006D02*
X141038275Y-97441334D01*
X141846398Y-97980082D02*
X141913741Y-97980082D01*
X141913741Y-97980082D02*
X142014756Y-98013754D01*
X142014756Y-98013754D02*
X142183115Y-98182113D01*
X142183115Y-98182113D02*
X142216787Y-98283128D01*
X142216787Y-98283128D02*
X142216787Y-98350472D01*
X142216787Y-98350472D02*
X142183115Y-98451487D01*
X142183115Y-98451487D02*
X142115772Y-98518830D01*
X142115772Y-98518830D02*
X141981085Y-98586174D01*
X141981085Y-98586174D02*
X141172963Y-98586174D01*
X141172963Y-98586174D02*
X141610695Y-99023907D01*
X135789693Y-111108830D02*
X135789693Y-111176174D01*
X135789693Y-111176174D02*
X135722349Y-111310861D01*
X135722349Y-111310861D02*
X135655006Y-111378204D01*
X135655006Y-111378204D02*
X135520319Y-111445548D01*
X135520319Y-111445548D02*
X135385632Y-111445548D01*
X135385632Y-111445548D02*
X135284617Y-111411876D01*
X135284617Y-111411876D02*
X135116258Y-111310861D01*
X135116258Y-111310861D02*
X135015243Y-111209846D01*
X135015243Y-111209846D02*
X134914227Y-111041487D01*
X134914227Y-111041487D02*
X134880556Y-110940472D01*
X134880556Y-110940472D02*
X134880556Y-110805785D01*
X134880556Y-110805785D02*
X134947899Y-110671098D01*
X134947899Y-110671098D02*
X135015243Y-110603754D01*
X135015243Y-110603754D02*
X135149930Y-110536411D01*
X135149930Y-110536411D02*
X135217273Y-110536411D01*
X136530471Y-110502739D02*
X136126410Y-110906800D01*
X136328441Y-110704769D02*
X135621334Y-109997663D01*
X135621334Y-109997663D02*
X135655006Y-110166021D01*
X135655006Y-110166021D02*
X135655006Y-110300708D01*
X135655006Y-110300708D02*
X135621334Y-110401724D01*
X137203907Y-109829304D02*
X136799846Y-110233365D01*
X137001876Y-110031334D02*
X136294769Y-109324227D01*
X136294769Y-109324227D02*
X136328441Y-109492586D01*
X136328441Y-109492586D02*
X136328441Y-109627273D01*
X136328441Y-109627273D02*
X136294769Y-109728288D01*
X142379693Y-108338830D02*
X142379693Y-108406174D01*
X142379693Y-108406174D02*
X142312349Y-108540861D01*
X142312349Y-108540861D02*
X142245006Y-108608204D01*
X142245006Y-108608204D02*
X142110319Y-108675548D01*
X142110319Y-108675548D02*
X141975632Y-108675548D01*
X141975632Y-108675548D02*
X141874617Y-108641876D01*
X141874617Y-108641876D02*
X141706258Y-108540861D01*
X141706258Y-108540861D02*
X141605243Y-108439846D01*
X141605243Y-108439846D02*
X141504227Y-108271487D01*
X141504227Y-108271487D02*
X141470556Y-108170472D01*
X141470556Y-108170472D02*
X141470556Y-108035785D01*
X141470556Y-108035785D02*
X141537899Y-107901098D01*
X141537899Y-107901098D02*
X141605243Y-107833754D01*
X141605243Y-107833754D02*
X141739930Y-107766411D01*
X141739930Y-107766411D02*
X141807273Y-107766411D01*
X143120471Y-107732739D02*
X142716410Y-108136800D01*
X142918441Y-107934769D02*
X142211334Y-107227663D01*
X142211334Y-107227663D02*
X142245006Y-107396021D01*
X142245006Y-107396021D02*
X142245006Y-107530708D01*
X142245006Y-107530708D02*
X142211334Y-107631724D01*
X142851098Y-106587899D02*
X142918441Y-106520556D01*
X142918441Y-106520556D02*
X143019456Y-106486884D01*
X143019456Y-106486884D02*
X143086800Y-106486884D01*
X143086800Y-106486884D02*
X143187815Y-106520556D01*
X143187815Y-106520556D02*
X143356174Y-106621571D01*
X143356174Y-106621571D02*
X143524533Y-106789930D01*
X143524533Y-106789930D02*
X143625548Y-106958288D01*
X143625548Y-106958288D02*
X143659220Y-107059304D01*
X143659220Y-107059304D02*
X143659220Y-107126647D01*
X143659220Y-107126647D02*
X143625548Y-107227662D01*
X143625548Y-107227662D02*
X143558204Y-107295006D01*
X143558204Y-107295006D02*
X143457189Y-107328678D01*
X143457189Y-107328678D02*
X143389846Y-107328678D01*
X143389846Y-107328678D02*
X143288830Y-107295006D01*
X143288830Y-107295006D02*
X143120472Y-107193991D01*
X143120472Y-107193991D02*
X142952113Y-107025632D01*
X142952113Y-107025632D02*
X142851098Y-106857273D01*
X142851098Y-106857273D02*
X142817426Y-106756258D01*
X142817426Y-106756258D02*
X142817426Y-106688914D01*
X142817426Y-106688914D02*
X142851098Y-106587899D01*
X132665248Y-97620949D02*
X132665248Y-97688293D01*
X132665248Y-97688293D02*
X132597904Y-97822980D01*
X132597904Y-97822980D02*
X132530561Y-97890323D01*
X132530561Y-97890323D02*
X132395874Y-97957667D01*
X132395874Y-97957667D02*
X132261187Y-97957667D01*
X132261187Y-97957667D02*
X132160172Y-97923995D01*
X132160172Y-97923995D02*
X131991813Y-97822980D01*
X131991813Y-97822980D02*
X131890798Y-97721965D01*
X131890798Y-97721965D02*
X131789782Y-97553606D01*
X131789782Y-97553606D02*
X131756111Y-97452591D01*
X131756111Y-97452591D02*
X131756111Y-97317904D01*
X131756111Y-97317904D02*
X131823454Y-97183217D01*
X131823454Y-97183217D02*
X131890798Y-97115873D01*
X131890798Y-97115873D02*
X132025485Y-97048530D01*
X132025485Y-97048530D02*
X132092828Y-97048530D01*
X133069309Y-97351575D02*
X133203996Y-97216888D01*
X133203996Y-97216888D02*
X133237668Y-97115873D01*
X133237668Y-97115873D02*
X133237668Y-97048530D01*
X133237668Y-97048530D02*
X133203996Y-96880171D01*
X133203996Y-96880171D02*
X133102981Y-96711812D01*
X133102981Y-96711812D02*
X132833607Y-96442438D01*
X132833607Y-96442438D02*
X132732591Y-96408766D01*
X132732591Y-96408766D02*
X132665248Y-96408766D01*
X132665248Y-96408766D02*
X132564233Y-96442438D01*
X132564233Y-96442438D02*
X132429546Y-96577125D01*
X132429546Y-96577125D02*
X132395874Y-96678140D01*
X132395874Y-96678140D02*
X132395874Y-96745484D01*
X132395874Y-96745484D02*
X132429546Y-96846499D01*
X132429546Y-96846499D02*
X132597904Y-97014858D01*
X132597904Y-97014858D02*
X132698920Y-97048530D01*
X132698920Y-97048530D02*
X132766263Y-97048530D01*
X132766263Y-97048530D02*
X132867278Y-97014858D01*
X132867278Y-97014858D02*
X133001965Y-96880171D01*
X133001965Y-96880171D02*
X133035637Y-96779156D01*
X133035637Y-96779156D02*
X133035637Y-96711812D01*
X133035637Y-96711812D02*
X133001965Y-96610797D01*
X142706411Y-111482112D02*
X142706411Y-111549456D01*
X142706411Y-111549456D02*
X142639067Y-111684143D01*
X142639067Y-111684143D02*
X142571724Y-111751486D01*
X142571724Y-111751486D02*
X142437037Y-111818830D01*
X142437037Y-111818830D02*
X142302350Y-111818830D01*
X142302350Y-111818830D02*
X142201335Y-111785158D01*
X142201335Y-111785158D02*
X142032976Y-111684143D01*
X142032976Y-111684143D02*
X141931961Y-111583128D01*
X141931961Y-111583128D02*
X141830945Y-111414769D01*
X141830945Y-111414769D02*
X141797274Y-111313754D01*
X141797274Y-111313754D02*
X141797274Y-111179067D01*
X141797274Y-111179067D02*
X141864617Y-111044380D01*
X141864617Y-111044380D02*
X141931961Y-110977036D01*
X141931961Y-110977036D02*
X142066648Y-110909693D01*
X142066648Y-110909693D02*
X142133991Y-110909693D01*
X142773754Y-110741334D02*
X142672739Y-110775006D01*
X142672739Y-110775006D02*
X142605396Y-110775006D01*
X142605396Y-110775006D02*
X142504380Y-110741334D01*
X142504380Y-110741334D02*
X142470709Y-110707662D01*
X142470709Y-110707662D02*
X142437037Y-110606647D01*
X142437037Y-110606647D02*
X142437037Y-110539303D01*
X142437037Y-110539303D02*
X142470709Y-110438288D01*
X142470709Y-110438288D02*
X142605396Y-110303601D01*
X142605396Y-110303601D02*
X142706411Y-110269929D01*
X142706411Y-110269929D02*
X142773754Y-110269929D01*
X142773754Y-110269929D02*
X142874770Y-110303601D01*
X142874770Y-110303601D02*
X142908441Y-110337273D01*
X142908441Y-110337273D02*
X142942113Y-110438288D01*
X142942113Y-110438288D02*
X142942113Y-110505632D01*
X142942113Y-110505632D02*
X142908441Y-110606647D01*
X142908441Y-110606647D02*
X142773754Y-110741334D01*
X142773754Y-110741334D02*
X142740083Y-110842349D01*
X142740083Y-110842349D02*
X142740083Y-110909693D01*
X142740083Y-110909693D02*
X142773754Y-111010708D01*
X142773754Y-111010708D02*
X142908441Y-111145395D01*
X142908441Y-111145395D02*
X143009457Y-111179067D01*
X143009457Y-111179067D02*
X143076800Y-111179067D01*
X143076800Y-111179067D02*
X143177815Y-111145395D01*
X143177815Y-111145395D02*
X143312502Y-111010708D01*
X143312502Y-111010708D02*
X143346174Y-110909693D01*
X143346174Y-110909693D02*
X143346174Y-110842349D01*
X143346174Y-110842349D02*
X143312502Y-110741334D01*
X143312502Y-110741334D02*
X143177815Y-110606647D01*
X143177815Y-110606647D02*
X143076800Y-110572975D01*
X143076800Y-110572975D02*
X143009457Y-110572975D01*
X143009457Y-110572975D02*
X142908441Y-110606647D01*
X138266411Y-115832112D02*
X138266411Y-115899456D01*
X138266411Y-115899456D02*
X138199067Y-116034143D01*
X138199067Y-116034143D02*
X138131724Y-116101486D01*
X138131724Y-116101486D02*
X137997037Y-116168830D01*
X137997037Y-116168830D02*
X137862350Y-116168830D01*
X137862350Y-116168830D02*
X137761335Y-116135158D01*
X137761335Y-116135158D02*
X137592976Y-116034143D01*
X137592976Y-116034143D02*
X137491961Y-115933128D01*
X137491961Y-115933128D02*
X137390945Y-115764769D01*
X137390945Y-115764769D02*
X137357274Y-115663754D01*
X137357274Y-115663754D02*
X137357274Y-115529067D01*
X137357274Y-115529067D02*
X137424617Y-115394380D01*
X137424617Y-115394380D02*
X137491961Y-115327036D01*
X137491961Y-115327036D02*
X137626648Y-115259693D01*
X137626648Y-115259693D02*
X137693991Y-115259693D01*
X137862350Y-114956647D02*
X138333754Y-114485242D01*
X138333754Y-114485242D02*
X138737815Y-115495395D01*
X131599580Y-117506666D02*
X131647200Y-117554285D01*
X131647200Y-117554285D02*
X131694819Y-117697142D01*
X131694819Y-117697142D02*
X131694819Y-117792380D01*
X131694819Y-117792380D02*
X131647200Y-117935237D01*
X131647200Y-117935237D02*
X131551961Y-118030475D01*
X131551961Y-118030475D02*
X131456723Y-118078094D01*
X131456723Y-118078094D02*
X131266247Y-118125713D01*
X131266247Y-118125713D02*
X131123390Y-118125713D01*
X131123390Y-118125713D02*
X130932914Y-118078094D01*
X130932914Y-118078094D02*
X130837676Y-118030475D01*
X130837676Y-118030475D02*
X130742438Y-117935237D01*
X130742438Y-117935237D02*
X130694819Y-117792380D01*
X130694819Y-117792380D02*
X130694819Y-117697142D01*
X130694819Y-117697142D02*
X130742438Y-117554285D01*
X130742438Y-117554285D02*
X130790057Y-117506666D01*
X130694819Y-116649523D02*
X130694819Y-116839999D01*
X130694819Y-116839999D02*
X130742438Y-116935237D01*
X130742438Y-116935237D02*
X130790057Y-116982856D01*
X130790057Y-116982856D02*
X130932914Y-117078094D01*
X130932914Y-117078094D02*
X131123390Y-117125713D01*
X131123390Y-117125713D02*
X131504342Y-117125713D01*
X131504342Y-117125713D02*
X131599580Y-117078094D01*
X131599580Y-117078094D02*
X131647200Y-117030475D01*
X131647200Y-117030475D02*
X131694819Y-116935237D01*
X131694819Y-116935237D02*
X131694819Y-116744761D01*
X131694819Y-116744761D02*
X131647200Y-116649523D01*
X131647200Y-116649523D02*
X131599580Y-116601904D01*
X131599580Y-116601904D02*
X131504342Y-116554285D01*
X131504342Y-116554285D02*
X131266247Y-116554285D01*
X131266247Y-116554285D02*
X131171009Y-116601904D01*
X131171009Y-116601904D02*
X131123390Y-116649523D01*
X131123390Y-116649523D02*
X131075771Y-116744761D01*
X131075771Y-116744761D02*
X131075771Y-116935237D01*
X131075771Y-116935237D02*
X131123390Y-117030475D01*
X131123390Y-117030475D02*
X131171009Y-117078094D01*
X131171009Y-117078094D02*
X131266247Y-117125713D01*
X142669580Y-83751666D02*
X142717200Y-83799285D01*
X142717200Y-83799285D02*
X142764819Y-83942142D01*
X142764819Y-83942142D02*
X142764819Y-84037380D01*
X142764819Y-84037380D02*
X142717200Y-84180237D01*
X142717200Y-84180237D02*
X142621961Y-84275475D01*
X142621961Y-84275475D02*
X142526723Y-84323094D01*
X142526723Y-84323094D02*
X142336247Y-84370713D01*
X142336247Y-84370713D02*
X142193390Y-84370713D01*
X142193390Y-84370713D02*
X142002914Y-84323094D01*
X142002914Y-84323094D02*
X141907676Y-84275475D01*
X141907676Y-84275475D02*
X141812438Y-84180237D01*
X141812438Y-84180237D02*
X141764819Y-84037380D01*
X141764819Y-84037380D02*
X141764819Y-83942142D01*
X141764819Y-83942142D02*
X141812438Y-83799285D01*
X141812438Y-83799285D02*
X141860057Y-83751666D01*
X141764819Y-82846904D02*
X141764819Y-83323094D01*
X141764819Y-83323094D02*
X142241009Y-83370713D01*
X142241009Y-83370713D02*
X142193390Y-83323094D01*
X142193390Y-83323094D02*
X142145771Y-83227856D01*
X142145771Y-83227856D02*
X142145771Y-82989761D01*
X142145771Y-82989761D02*
X142193390Y-82894523D01*
X142193390Y-82894523D02*
X142241009Y-82846904D01*
X142241009Y-82846904D02*
X142336247Y-82799285D01*
X142336247Y-82799285D02*
X142574342Y-82799285D01*
X142574342Y-82799285D02*
X142669580Y-82846904D01*
X142669580Y-82846904D02*
X142717200Y-82894523D01*
X142717200Y-82894523D02*
X142764819Y-82989761D01*
X142764819Y-82989761D02*
X142764819Y-83227856D01*
X142764819Y-83227856D02*
X142717200Y-83323094D01*
X142717200Y-83323094D02*
X142669580Y-83370713D01*
X135269580Y-117681666D02*
X135317200Y-117729285D01*
X135317200Y-117729285D02*
X135364819Y-117872142D01*
X135364819Y-117872142D02*
X135364819Y-117967380D01*
X135364819Y-117967380D02*
X135317200Y-118110237D01*
X135317200Y-118110237D02*
X135221961Y-118205475D01*
X135221961Y-118205475D02*
X135126723Y-118253094D01*
X135126723Y-118253094D02*
X134936247Y-118300713D01*
X134936247Y-118300713D02*
X134793390Y-118300713D01*
X134793390Y-118300713D02*
X134602914Y-118253094D01*
X134602914Y-118253094D02*
X134507676Y-118205475D01*
X134507676Y-118205475D02*
X134412438Y-118110237D01*
X134412438Y-118110237D02*
X134364819Y-117967380D01*
X134364819Y-117967380D02*
X134364819Y-117872142D01*
X134364819Y-117872142D02*
X134412438Y-117729285D01*
X134412438Y-117729285D02*
X134460057Y-117681666D01*
X134698152Y-116824523D02*
X135364819Y-116824523D01*
X134317200Y-117062618D02*
X135031485Y-117300713D01*
X135031485Y-117300713D02*
X135031485Y-116681666D01*
X139499580Y-117526666D02*
X139547200Y-117574285D01*
X139547200Y-117574285D02*
X139594819Y-117717142D01*
X139594819Y-117717142D02*
X139594819Y-117812380D01*
X139594819Y-117812380D02*
X139547200Y-117955237D01*
X139547200Y-117955237D02*
X139451961Y-118050475D01*
X139451961Y-118050475D02*
X139356723Y-118098094D01*
X139356723Y-118098094D02*
X139166247Y-118145713D01*
X139166247Y-118145713D02*
X139023390Y-118145713D01*
X139023390Y-118145713D02*
X138832914Y-118098094D01*
X138832914Y-118098094D02*
X138737676Y-118050475D01*
X138737676Y-118050475D02*
X138642438Y-117955237D01*
X138642438Y-117955237D02*
X138594819Y-117812380D01*
X138594819Y-117812380D02*
X138594819Y-117717142D01*
X138594819Y-117717142D02*
X138642438Y-117574285D01*
X138642438Y-117574285D02*
X138690057Y-117526666D01*
X138594819Y-117193332D02*
X138594819Y-116574285D01*
X138594819Y-116574285D02*
X138975771Y-116907618D01*
X138975771Y-116907618D02*
X138975771Y-116764761D01*
X138975771Y-116764761D02*
X139023390Y-116669523D01*
X139023390Y-116669523D02*
X139071009Y-116621904D01*
X139071009Y-116621904D02*
X139166247Y-116574285D01*
X139166247Y-116574285D02*
X139404342Y-116574285D01*
X139404342Y-116574285D02*
X139499580Y-116621904D01*
X139499580Y-116621904D02*
X139547200Y-116669523D01*
X139547200Y-116669523D02*
X139594819Y-116764761D01*
X139594819Y-116764761D02*
X139594819Y-117050475D01*
X139594819Y-117050475D02*
X139547200Y-117145713D01*
X139547200Y-117145713D02*
X139499580Y-117193332D01*
X130176411Y-100302112D02*
X130176411Y-100369456D01*
X130176411Y-100369456D02*
X130109067Y-100504143D01*
X130109067Y-100504143D02*
X130041724Y-100571486D01*
X130041724Y-100571486D02*
X129907037Y-100638830D01*
X129907037Y-100638830D02*
X129772350Y-100638830D01*
X129772350Y-100638830D02*
X129671335Y-100605158D01*
X129671335Y-100605158D02*
X129502976Y-100504143D01*
X129502976Y-100504143D02*
X129401961Y-100403128D01*
X129401961Y-100403128D02*
X129300945Y-100234769D01*
X129300945Y-100234769D02*
X129267274Y-100133754D01*
X129267274Y-100133754D02*
X129267274Y-99999067D01*
X129267274Y-99999067D02*
X129334617Y-99864380D01*
X129334617Y-99864380D02*
X129401961Y-99797036D01*
X129401961Y-99797036D02*
X129536648Y-99729693D01*
X129536648Y-99729693D02*
X129603991Y-99729693D01*
X129873365Y-99460319D02*
X129873365Y-99392975D01*
X129873365Y-99392975D02*
X129907037Y-99291960D01*
X129907037Y-99291960D02*
X130075396Y-99123601D01*
X130075396Y-99123601D02*
X130176411Y-99089929D01*
X130176411Y-99089929D02*
X130243754Y-99089929D01*
X130243754Y-99089929D02*
X130344770Y-99123601D01*
X130344770Y-99123601D02*
X130412113Y-99190945D01*
X130412113Y-99190945D02*
X130479457Y-99325632D01*
X130479457Y-99325632D02*
X130479457Y-100133754D01*
X130479457Y-100133754D02*
X130917189Y-99696021D01*
X137279580Y-95076666D02*
X137327200Y-95124285D01*
X137327200Y-95124285D02*
X137374819Y-95267142D01*
X137374819Y-95267142D02*
X137374819Y-95362380D01*
X137374819Y-95362380D02*
X137327200Y-95505237D01*
X137327200Y-95505237D02*
X137231961Y-95600475D01*
X137231961Y-95600475D02*
X137136723Y-95648094D01*
X137136723Y-95648094D02*
X136946247Y-95695713D01*
X136946247Y-95695713D02*
X136803390Y-95695713D01*
X136803390Y-95695713D02*
X136612914Y-95648094D01*
X136612914Y-95648094D02*
X136517676Y-95600475D01*
X136517676Y-95600475D02*
X136422438Y-95505237D01*
X136422438Y-95505237D02*
X136374819Y-95362380D01*
X136374819Y-95362380D02*
X136374819Y-95267142D01*
X136374819Y-95267142D02*
X136422438Y-95124285D01*
X136422438Y-95124285D02*
X136470057Y-95076666D01*
X137374819Y-94124285D02*
X137374819Y-94695713D01*
X137374819Y-94409999D02*
X136374819Y-94409999D01*
X136374819Y-94409999D02*
X136517676Y-94505237D01*
X136517676Y-94505237D02*
X136612914Y-94600475D01*
X136612914Y-94600475D02*
X136660533Y-94695713D01*
D11*
%TO.C,P1*%
X131450000Y-77960000D02*
X131450000Y-76450000D01*
X131190000Y-82040000D02*
X131190000Y-80040000D01*
X140610000Y-76450000D02*
X131450000Y-76450000D01*
X140610000Y-77960000D02*
X140610000Y-76450000D01*
X140820000Y-81990000D02*
X140820000Y-79990000D01*
%TO.C,J2*%
X128730000Y-80490000D02*
X128730000Y-128860000D01*
X125970000Y-128860000D02*
X128730000Y-128860000D01*
X125970000Y-80490000D02*
X128730000Y-80490000D01*
X125970000Y-80490000D02*
X125970000Y-128860000D01*
X125970000Y-79220000D02*
X125970000Y-77840000D01*
X125970000Y-77840000D02*
X127350000Y-77840000D01*
%TO.C,Y1*%
X139143629Y-108860984D02*
X136230349Y-111774264D01*
X141561935Y-111279290D02*
X139143629Y-108860984D01*
%TO.C,U2*%
X136537500Y-108705311D02*
X136201624Y-108369435D01*
X136873376Y-108369435D02*
X136537500Y-108705311D01*
X141642811Y-103600000D02*
X141306935Y-103935876D01*
X141306935Y-103264124D02*
X141642811Y-103600000D01*
X131768065Y-103935876D02*
X131432189Y-103600000D01*
X131432189Y-103600000D02*
X131768065Y-103264124D01*
X136201624Y-98830565D02*
X136537500Y-98494689D01*
X136537500Y-98494689D02*
X136873376Y-98830565D01*
X137923429Y-108535605D02*
X137584018Y-108875017D01*
X137520378Y-108471966D01*
X137923429Y-108535605D01*
G36*
X137923429Y-108535605D02*
G01*
X137584018Y-108875017D01*
X137520378Y-108471966D01*
X137923429Y-108535605D01*
G37*
%TO.C,U1*%
X136040000Y-85842500D02*
X135710000Y-85602500D01*
X136040000Y-85362500D01*
X136040000Y-85842500D01*
G36*
X136040000Y-85842500D02*
G01*
X135710000Y-85602500D01*
X136040000Y-85362500D01*
X136040000Y-85842500D01*
G37*
X132640000Y-87962500D02*
X132640000Y-86142500D01*
X132690000Y-87962500D02*
X132640000Y-87962500D01*
X134590000Y-87962500D02*
X133810000Y-87962500D01*
X135760000Y-87962500D02*
X135710000Y-87962500D01*
X132640000Y-86142500D02*
X132690000Y-86142500D01*
X135710000Y-86142500D02*
X135760000Y-86142500D01*
X135760000Y-86142500D02*
X135760000Y-87962500D01*
%TO.C,SWD*%
X132865000Y-127150000D02*
X132865000Y-129060000D01*
X132865000Y-129060000D02*
X134775000Y-129060000D01*
X133175000Y-126700000D02*
X133475000Y-126700000D01*
X133175000Y-127450000D02*
X133475000Y-127450000D01*
X133475000Y-125600000D02*
X133775000Y-125600000D01*
X133475000Y-126700000D02*
X133475000Y-125600000D01*
X133475000Y-127450000D02*
X133475000Y-128450000D01*
X133475000Y-128450000D02*
X139725000Y-128450000D01*
X133775000Y-125600000D02*
X133775000Y-125150000D01*
X133775000Y-125600000D02*
X134975000Y-125600000D01*
X134975000Y-125300000D02*
X135725000Y-125300000D01*
X134975000Y-125600000D02*
X134975000Y-125300000D01*
X135725000Y-125300000D02*
X135725000Y-125600000D01*
X135725000Y-125600000D02*
X137475000Y-125600000D01*
X137475000Y-125300000D02*
X138225000Y-125300000D01*
X137475000Y-125600000D02*
X137475000Y-125300000D01*
X138225000Y-125300000D02*
X138225000Y-125600000D01*
X138225000Y-125600000D02*
X139425000Y-125600000D01*
X139425000Y-125600000D02*
X139425000Y-125150000D01*
X139725000Y-125600000D02*
X139425000Y-125600000D01*
X139725000Y-126700000D02*
X139725000Y-125600000D01*
X139725000Y-127450000D02*
X140025000Y-127450000D01*
X139725000Y-128450000D02*
X139725000Y-127450000D01*
X140025000Y-126700000D02*
X139725000Y-126700000D01*
X133175000Y-125150000D02*
X140025000Y-125150000D01*
X140025000Y-128750000D01*
X133175000Y-128750000D01*
X133175000Y-125150000D01*
%TO.C,BOOT0*%
X131400000Y-123130000D02*
X131400000Y-119830000D01*
X131700000Y-123130000D02*
X131400000Y-123130000D01*
X133900000Y-123130000D02*
X134200000Y-123130000D01*
X134200000Y-123130000D02*
X134200000Y-119830000D01*
X131400000Y-119830000D02*
X131700000Y-119830000D01*
X134200000Y-119830000D02*
X133900000Y-119830000D01*
%TO.C,NRST*%
X138940000Y-123120000D02*
X138940000Y-119820000D01*
X139240000Y-123120000D02*
X138940000Y-123120000D01*
X141440000Y-123120000D02*
X141740000Y-123120000D01*
X141740000Y-123120000D02*
X141740000Y-119820000D01*
X138940000Y-119820000D02*
X139240000Y-119820000D01*
X141740000Y-119820000D02*
X141440000Y-119820000D01*
%TO.C,R5*%
X131642500Y-86117742D02*
X131642500Y-86592258D01*
X130597500Y-86117742D02*
X130597500Y-86592258D01*
%TO.C,R4*%
X140997500Y-95037258D02*
X140997500Y-94562742D01*
X142042500Y-95037258D02*
X142042500Y-94562742D01*
%TO.C,R2*%
X132102500Y-126002742D02*
X132102500Y-126477258D01*
X131057500Y-126002742D02*
X131057500Y-126477258D01*
%TO.C,R1*%
X141327500Y-126387258D02*
X141327500Y-125912742D01*
X142372500Y-126387258D02*
X142372500Y-125912742D01*
%TO.C,J3*%
X143845000Y-77760000D02*
X145225000Y-77760000D01*
X143845000Y-79140000D02*
X143845000Y-77760000D01*
X143845000Y-80410000D02*
X143845000Y-128780000D01*
X143845000Y-80410000D02*
X146605000Y-80410000D01*
X143845000Y-128780000D02*
X146605000Y-128780000D01*
X146605000Y-80410000D02*
X146605000Y-128780000D01*
%TO.C,J1*%
X138760000Y-84830000D02*
X136260000Y-84830000D01*
X136260000Y-84830000D02*
X136260000Y-87330000D01*
X138870000Y-85130000D02*
X138870000Y-85630000D01*
X138060000Y-85130000D02*
X138060000Y-86130000D01*
X140080000Y-85630000D02*
X140080000Y-92350000D01*
X138870000Y-85630000D02*
X140080000Y-85630000D01*
X138060000Y-86130000D02*
X136560000Y-86130000D01*
X138060000Y-91850000D02*
X136560000Y-91850000D01*
X140080000Y-92350000D02*
X138870000Y-92350000D01*
X138870000Y-92350000D02*
X138870000Y-92850000D01*
X138060000Y-92850000D02*
X138060000Y-91850000D01*
X140580000Y-85130000D02*
X136560000Y-85130000D01*
X136560000Y-92850000D01*
X140580000Y-92850000D01*
X140580000Y-85130000D01*
%TO.C,D1*%
X134535000Y-96315000D02*
X136005000Y-96315000D01*
X136005000Y-96315000D02*
X136005000Y-94030000D01*
X134535000Y-94030000D02*
X134535000Y-96315000D01*
%TO.C,C13*%
X135900000Y-121285580D02*
X135900000Y-121004420D01*
X136920000Y-121285580D02*
X136920000Y-121004420D01*
%TO.C,C12*%
X139098781Y-98710030D02*
X138899970Y-98511219D01*
X139820030Y-97988781D02*
X139621219Y-97789970D01*
%TO.C,C11*%
X134251219Y-108739970D02*
X134450030Y-108938781D01*
X133529970Y-109461219D02*
X133728781Y-109660030D01*
%TO.C,C10*%
X141241962Y-106146789D02*
X141440773Y-105947978D01*
X141963211Y-106868038D02*
X142162022Y-106669227D01*
%TO.C,C9*%
X133079970Y-97998781D02*
X133278781Y-97799970D01*
X133801219Y-98720030D02*
X134000030Y-98521219D01*
%TO.C,C8*%
X141311219Y-108899970D02*
X141510030Y-109098781D01*
X140589970Y-109621219D02*
X140788781Y-109820030D01*
%TO.C,C7*%
X136801219Y-113259970D02*
X137000030Y-113458781D01*
X136079970Y-113981219D02*
X136278781Y-114180030D01*
%TO.C,C6*%
X132160000Y-117480580D02*
X132160000Y-117199420D01*
X133180000Y-117480580D02*
X133180000Y-117199420D01*
%TO.C,C5*%
X141510000Y-86325580D02*
X141510000Y-86044420D01*
X142530000Y-86325580D02*
X142530000Y-86044420D01*
%TO.C,C4*%
X135830000Y-117655580D02*
X135830000Y-117374420D01*
X136850000Y-117655580D02*
X136850000Y-117374420D01*
%TO.C,C3*%
X140060000Y-117500581D02*
X140060000Y-117219419D01*
X141080000Y-117500581D02*
X141080000Y-117219419D01*
%TO.C,C2*%
X131790030Y-101041219D02*
X131591219Y-101240030D01*
X131068781Y-100319970D02*
X130869970Y-100518781D01*
%TO.C,C1*%
X137840000Y-95050580D02*
X137840000Y-94769420D01*
X138860000Y-95050580D02*
X138860000Y-94769420D01*
%TD*%
M02*
