%TF.GenerationSoftware,KiCad,Pcbnew,9.0.8+dfsg-1*%
%TF.CreationDate,2026-09-09T01:07:18+05:30*%
%TF.ProjectId,STM32F401_Minimal_DevBoard,53544d33-3246-4343-9031-5f4d696e696d,rev?*%
%TF.SameCoordinates,Original*%
%TF.FileFunction,Soldermask,Top*%
%TF.FilePolarity,Negative*%
%FSLAX46Y46*%
G04 Gerber Fmt 4.6, Leading zero omitted, Abs format (unit mm)*
G04 Created by KiCad (PCBNEW 9.0.8+dfsg-1) date 2026-09-09 01:07:18*
%MOMM*%
%LPD*%
G01*
G04 APERTURE LIST*
G04 APERTURE END LIST*
G36*
X127596742Y-126666601D02*
G01*
X127750687Y-126730367D01*
X127889234Y-126822941D01*
X128007059Y-126940766D01*
X128099633Y-127079313D01*
X128163399Y-127233258D01*
X128195907Y-127396685D01*
X128195907Y-127563315D01*
X128163399Y-127726742D01*
X128099633Y-127880687D01*
X128007059Y-128019234D01*
X127889234Y-128137059D01*
X127750687Y-128229633D01*
X127596742Y-128293399D01*
X127433315Y-128325907D01*
X127266685Y-128325907D01*
X127103258Y-128293399D01*
X126949313Y-128229633D01*
X126810766Y-128137059D01*
X126692941Y-128019234D01*
X126600367Y-127880687D01*
X126536601Y-127726742D01*
X126504093Y-127563315D01*
X126504093Y-127396685D01*
X126536601Y-127233258D01*
X126600367Y-127079313D01*
X126692941Y-126940766D01*
X126810766Y-126822941D01*
X126949313Y-126730367D01*
X127103258Y-126666601D01*
X127266685Y-126634093D01*
X127433315Y-126634093D01*
X127596742Y-126666601D01*
G37*
G36*
X145471742Y-126586601D02*
G01*
X145625687Y-126650367D01*
X145764234Y-126742941D01*
X145882059Y-126860766D01*
X145974633Y-126999313D01*
X146038399Y-127153258D01*
X146070907Y-127316685D01*
X146070907Y-127483315D01*
X146038399Y-127646742D01*
X145974633Y-127800687D01*
X145882059Y-127939234D01*
X145764234Y-128057059D01*
X145625687Y-128149633D01*
X145471742Y-128213399D01*
X145308315Y-128245907D01*
X145141685Y-128245907D01*
X144978258Y-128213399D01*
X144824313Y-128149633D01*
X144685766Y-128057059D01*
X144567941Y-127939234D01*
X144475367Y-127800687D01*
X144411601Y-127646742D01*
X144379093Y-127483315D01*
X144379093Y-127316685D01*
X144411601Y-127153258D01*
X144475367Y-126999313D01*
X144567941Y-126860766D01*
X144685766Y-126742941D01*
X144824313Y-126650367D01*
X144978258Y-126586601D01*
X145141685Y-126554093D01*
X145308315Y-126554093D01*
X145471742Y-126586601D01*
G37*
G36*
X134954850Y-126750964D02*
G01*
X134999317Y-126756123D01*
X135014510Y-126762831D01*
X135036104Y-126767127D01*
X135059222Y-126782574D01*
X135076567Y-126790233D01*
X135088412Y-126802078D01*
X135109099Y-126815901D01*
X135122921Y-126836587D01*
X135134766Y-126848432D01*
X135142423Y-126865774D01*
X135157873Y-126888896D01*
X135162168Y-126910491D01*
X135168876Y-126925682D01*
X135174033Y-126970139D01*
X135175000Y-126975000D01*
X135175000Y-127925000D01*
X135174032Y-127929862D01*
X135168876Y-127974317D01*
X135162168Y-127989506D01*
X135157873Y-128011104D01*
X135142422Y-128034227D01*
X135134766Y-128051567D01*
X135122923Y-128063409D01*
X135109099Y-128084099D01*
X135088409Y-128097923D01*
X135076567Y-128109766D01*
X135059227Y-128117422D01*
X135036104Y-128132873D01*
X135014506Y-128137168D01*
X134999317Y-128143876D01*
X134954861Y-128149032D01*
X134950000Y-128150000D01*
X134500000Y-128150000D01*
X134495138Y-128149033D01*
X134450682Y-128143876D01*
X134435491Y-128137168D01*
X134413896Y-128132873D01*
X134390774Y-128117423D01*
X134373432Y-128109766D01*
X134361587Y-128097921D01*
X134340901Y-128084099D01*
X134327078Y-128063412D01*
X134315233Y-128051567D01*
X134307574Y-128034222D01*
X134292127Y-128011104D01*
X134287831Y-127989510D01*
X134281123Y-127974317D01*
X134275964Y-127929849D01*
X134275000Y-127925000D01*
X134275000Y-126975000D01*
X134275964Y-126970150D01*
X134281123Y-126925682D01*
X134287832Y-126910487D01*
X134292127Y-126888896D01*
X134307573Y-126865779D01*
X134315233Y-126848432D01*
X134327080Y-126836584D01*
X134340901Y-126815901D01*
X134361584Y-126802080D01*
X134373432Y-126790233D01*
X134390779Y-126782573D01*
X134413896Y-126767127D01*
X134435487Y-126762832D01*
X134450682Y-126756123D01*
X134495151Y-126750964D01*
X134500000Y-126750000D01*
X134950000Y-126750000D01*
X134954850Y-126750964D01*
G37*
G36*
X136147208Y-126784254D02*
G01*
X136248943Y-126842991D01*
X136332009Y-126926057D01*
X136390746Y-127027792D01*
X136421150Y-127141263D01*
X136425000Y-127200000D01*
X136425000Y-127700000D01*
X136421150Y-127758737D01*
X136390746Y-127872208D01*
X136332009Y-127973943D01*
X136248943Y-128057009D01*
X136147208Y-128115746D01*
X136033737Y-128146150D01*
X135916263Y-128146150D01*
X135802792Y-128115746D01*
X135701057Y-128057009D01*
X135617991Y-127973943D01*
X135559254Y-127872208D01*
X135528850Y-127758737D01*
X135525000Y-127700000D01*
X135525000Y-127200000D01*
X135528850Y-127141263D01*
X135559254Y-127027792D01*
X135617991Y-126926057D01*
X135701057Y-126842991D01*
X135802792Y-126784254D01*
X135916263Y-126753850D01*
X136033737Y-126753850D01*
X136147208Y-126784254D01*
G37*
G36*
X137397208Y-126784254D02*
G01*
X137498943Y-126842991D01*
X137582009Y-126926057D01*
X137640746Y-127027792D01*
X137671150Y-127141263D01*
X137675000Y-127200000D01*
X137675000Y-127700000D01*
X137671150Y-127758737D01*
X137640746Y-127872208D01*
X137582009Y-127973943D01*
X137498943Y-128057009D01*
X137397208Y-128115746D01*
X137283737Y-128146150D01*
X137166263Y-128146150D01*
X137052792Y-128115746D01*
X136951057Y-128057009D01*
X136867991Y-127973943D01*
X136809254Y-127872208D01*
X136778850Y-127758737D01*
X136775000Y-127700000D01*
X136775000Y-127200000D01*
X136778850Y-127141263D01*
X136809254Y-127027792D01*
X136867991Y-126926057D01*
X136951057Y-126842991D01*
X137052792Y-126784254D01*
X137166263Y-126753850D01*
X137283737Y-126753850D01*
X137397208Y-126784254D01*
G37*
G36*
X138647208Y-126784254D02*
G01*
X138748943Y-126842991D01*
X138832009Y-126926057D01*
X138890746Y-127027792D01*
X138921150Y-127141263D01*
X138925000Y-127200000D01*
X138925000Y-127700000D01*
X138921150Y-127758737D01*
X138890746Y-127872208D01*
X138832009Y-127973943D01*
X138748943Y-128057009D01*
X138647208Y-128115746D01*
X138533737Y-128146150D01*
X138416263Y-128146150D01*
X138302792Y-128115746D01*
X138201057Y-128057009D01*
X138117991Y-127973943D01*
X138059254Y-127872208D01*
X138028850Y-127758737D01*
X138025000Y-127700000D01*
X138025000Y-127200000D01*
X138028850Y-127141263D01*
X138059254Y-127027792D01*
X138117991Y-126926057D01*
X138201057Y-126842991D01*
X138302792Y-126784254D01*
X138416263Y-126753850D01*
X138533737Y-126753850D01*
X138647208Y-126784254D01*
G37*
G36*
X131931537Y-126680224D02*
G01*
X131996421Y-126723579D01*
X132039776Y-126788463D01*
X132055000Y-126865000D01*
X132055000Y-127265000D01*
X132039776Y-127341537D01*
X131996421Y-127406421D01*
X131931537Y-127449776D01*
X131855000Y-127465000D01*
X131305000Y-127465000D01*
X131228463Y-127449776D01*
X131163579Y-127406421D01*
X131120224Y-127341537D01*
X131105000Y-127265000D01*
X131105000Y-126865000D01*
X131120224Y-126788463D01*
X131163579Y-126723579D01*
X131228463Y-126680224D01*
X131305000Y-126665000D01*
X131855000Y-126665000D01*
X131931537Y-126680224D01*
G37*
G36*
X142201537Y-126590224D02*
G01*
X142266421Y-126633579D01*
X142309776Y-126698463D01*
X142325000Y-126775000D01*
X142325000Y-127175000D01*
X142309776Y-127251537D01*
X142266421Y-127316421D01*
X142201537Y-127359776D01*
X142125000Y-127375000D01*
X141575000Y-127375000D01*
X141498463Y-127359776D01*
X141433579Y-127316421D01*
X141390224Y-127251537D01*
X141375000Y-127175000D01*
X141375000Y-126775000D01*
X141390224Y-126698463D01*
X141433579Y-126633579D01*
X141498463Y-126590224D01*
X141575000Y-126575000D01*
X142125000Y-126575000D01*
X142201537Y-126590224D01*
G37*
G36*
X131931537Y-125030224D02*
G01*
X131996421Y-125073579D01*
X132039776Y-125138463D01*
X132055000Y-125215000D01*
X132055000Y-125615000D01*
X132039776Y-125691537D01*
X131996421Y-125756421D01*
X131931537Y-125799776D01*
X131855000Y-125815000D01*
X131305000Y-125815000D01*
X131228463Y-125799776D01*
X131163579Y-125756421D01*
X131120224Y-125691537D01*
X131105000Y-125615000D01*
X131105000Y-125215000D01*
X131120224Y-125138463D01*
X131163579Y-125073579D01*
X131228463Y-125030224D01*
X131305000Y-125015000D01*
X131855000Y-125015000D01*
X131931537Y-125030224D01*
G37*
G36*
X127596742Y-124126601D02*
G01*
X127750687Y-124190367D01*
X127889234Y-124282941D01*
X128007059Y-124400766D01*
X128099633Y-124539313D01*
X128163399Y-124693258D01*
X128195907Y-124856685D01*
X128195907Y-125023315D01*
X128163399Y-125186742D01*
X128099633Y-125340687D01*
X128007059Y-125479234D01*
X127889234Y-125597059D01*
X127750687Y-125689633D01*
X127596742Y-125753399D01*
X127433315Y-125785907D01*
X127266685Y-125785907D01*
X127103258Y-125753399D01*
X126949313Y-125689633D01*
X126810766Y-125597059D01*
X126692941Y-125479234D01*
X126600367Y-125340687D01*
X126536601Y-125186742D01*
X126504093Y-125023315D01*
X126504093Y-124856685D01*
X126536601Y-124693258D01*
X126600367Y-124539313D01*
X126692941Y-124400766D01*
X126810766Y-124282941D01*
X126949313Y-124190367D01*
X127103258Y-124126601D01*
X127266685Y-124094093D01*
X127433315Y-124094093D01*
X127596742Y-124126601D01*
G37*
G36*
X142201537Y-124940224D02*
G01*
X142266421Y-124983579D01*
X142309776Y-125048463D01*
X142325000Y-125125000D01*
X142325000Y-125525000D01*
X142309776Y-125601537D01*
X142266421Y-125666421D01*
X142201537Y-125709776D01*
X142125000Y-125725000D01*
X141575000Y-125725000D01*
X141498463Y-125709776D01*
X141433579Y-125666421D01*
X141390224Y-125601537D01*
X141375000Y-125525000D01*
X141375000Y-125125000D01*
X141390224Y-125048463D01*
X141433579Y-124983579D01*
X141498463Y-124940224D01*
X141575000Y-124925000D01*
X142125000Y-124925000D01*
X142201537Y-124940224D01*
G37*
G36*
X145471742Y-124046601D02*
G01*
X145625687Y-124110367D01*
X145764234Y-124202941D01*
X145882059Y-124320766D01*
X145974633Y-124459313D01*
X146038399Y-124613258D01*
X146070907Y-124776685D01*
X146070907Y-124943315D01*
X146038399Y-125106742D01*
X145974633Y-125260687D01*
X145882059Y-125399234D01*
X145764234Y-125517059D01*
X145625687Y-125609633D01*
X145471742Y-125673399D01*
X145308315Y-125705907D01*
X145141685Y-125705907D01*
X144978258Y-125673399D01*
X144824313Y-125609633D01*
X144685766Y-125517059D01*
X144567941Y-125399234D01*
X144475367Y-125260687D01*
X144411601Y-125106742D01*
X144379093Y-124943315D01*
X144379093Y-124776685D01*
X144411601Y-124613258D01*
X144475367Y-124459313D01*
X144567941Y-124320766D01*
X144685766Y-124202941D01*
X144824313Y-124110367D01*
X144978258Y-124046601D01*
X145141685Y-124014093D01*
X145308315Y-124014093D01*
X145471742Y-124046601D01*
G37*
G36*
X133650000Y-123630000D02*
G01*
X131950000Y-123630000D01*
X131950000Y-122730000D01*
X133650000Y-122730000D01*
X133650000Y-123630000D01*
G37*
G36*
X141190000Y-123620000D02*
G01*
X139490000Y-123620000D01*
X139490000Y-122720000D01*
X141190000Y-122720000D01*
X141190000Y-123620000D01*
G37*
G36*
X127596742Y-121586601D02*
G01*
X127750687Y-121650367D01*
X127889234Y-121742941D01*
X128007059Y-121860766D01*
X128099633Y-121999313D01*
X128163399Y-122153258D01*
X128195907Y-122316685D01*
X128195907Y-122483315D01*
X128163399Y-122646742D01*
X128099633Y-122800687D01*
X128007059Y-122939234D01*
X127889234Y-123057059D01*
X127750687Y-123149633D01*
X127596742Y-123213399D01*
X127433315Y-123245907D01*
X127266685Y-123245907D01*
X127103258Y-123213399D01*
X126949313Y-123149633D01*
X126810766Y-123057059D01*
X126692941Y-122939234D01*
X126600367Y-122800687D01*
X126536601Y-122646742D01*
X126504093Y-122483315D01*
X126504093Y-122316685D01*
X126536601Y-122153258D01*
X126600367Y-121999313D01*
X126692941Y-121860766D01*
X126810766Y-121742941D01*
X126949313Y-121650367D01*
X127103258Y-121586601D01*
X127266685Y-121554093D01*
X127433315Y-121554093D01*
X127596742Y-121586601D01*
G37*
G36*
X145471742Y-121506601D02*
G01*
X145625687Y-121570367D01*
X145764234Y-121662941D01*
X145882059Y-121780766D01*
X145974633Y-121919313D01*
X146038399Y-122073258D01*
X146070907Y-122236685D01*
X146070907Y-122403315D01*
X146038399Y-122566742D01*
X145974633Y-122720687D01*
X145882059Y-122859234D01*
X145764234Y-122977059D01*
X145625687Y-123069633D01*
X145471742Y-123133399D01*
X145308315Y-123165907D01*
X145141685Y-123165907D01*
X144978258Y-123133399D01*
X144824313Y-123069633D01*
X144685766Y-122977059D01*
X144567941Y-122859234D01*
X144475367Y-122720687D01*
X144411601Y-122566742D01*
X144379093Y-122403315D01*
X144379093Y-122236685D01*
X144411601Y-122073258D01*
X144475367Y-121919313D01*
X144567941Y-121780766D01*
X144685766Y-121662941D01*
X144824313Y-121570367D01*
X144978258Y-121506601D01*
X145141685Y-121474093D01*
X145308315Y-121474093D01*
X145471742Y-121506601D01*
G37*
G36*
X136664850Y-121470964D02*
G01*
X136709317Y-121476123D01*
X136724510Y-121482831D01*
X136746104Y-121487127D01*
X136769222Y-121502574D01*
X136786567Y-121510233D01*
X136798412Y-121522078D01*
X136819099Y-121535901D01*
X136832921Y-121556587D01*
X136844766Y-121568432D01*
X136852423Y-121585774D01*
X136867873Y-121608896D01*
X136872168Y-121630491D01*
X136878876Y-121645682D01*
X136884033Y-121690139D01*
X136885000Y-121695000D01*
X136885000Y-122145000D01*
X136884032Y-122149862D01*
X136878876Y-122194317D01*
X136872168Y-122209506D01*
X136867873Y-122231104D01*
X136852422Y-122254227D01*
X136844766Y-122271567D01*
X136832923Y-122283409D01*
X136819099Y-122304099D01*
X136798409Y-122317923D01*
X136786567Y-122329766D01*
X136769227Y-122337422D01*
X136746104Y-122352873D01*
X136724506Y-122357168D01*
X136709317Y-122363876D01*
X136664861Y-122369032D01*
X136660000Y-122370000D01*
X136160000Y-122370000D01*
X136155138Y-122369033D01*
X136110682Y-122363876D01*
X136095491Y-122357168D01*
X136073896Y-122352873D01*
X136050774Y-122337423D01*
X136033432Y-122329766D01*
X136021587Y-122317921D01*
X136000901Y-122304099D01*
X135987078Y-122283412D01*
X135975233Y-122271567D01*
X135967574Y-122254222D01*
X135952127Y-122231104D01*
X135947831Y-122209510D01*
X135941123Y-122194317D01*
X135935964Y-122149849D01*
X135935000Y-122145000D01*
X135935000Y-121695000D01*
X135935964Y-121690150D01*
X135941123Y-121645682D01*
X135947832Y-121630487D01*
X135952127Y-121608896D01*
X135967573Y-121585779D01*
X135975233Y-121568432D01*
X135987080Y-121556584D01*
X136000901Y-121535901D01*
X136021584Y-121522080D01*
X136033432Y-121510233D01*
X136050779Y-121502573D01*
X136073896Y-121487127D01*
X136095487Y-121482832D01*
X136110682Y-121476123D01*
X136155151Y-121470964D01*
X136160000Y-121470000D01*
X136660000Y-121470000D01*
X136664850Y-121470964D01*
G37*
G36*
X136664850Y-119920964D02*
G01*
X136709317Y-119926123D01*
X136724510Y-119932831D01*
X136746104Y-119937127D01*
X136769222Y-119952574D01*
X136786567Y-119960233D01*
X136798412Y-119972078D01*
X136819099Y-119985901D01*
X136832921Y-120006587D01*
X136844766Y-120018432D01*
X136852423Y-120035774D01*
X136867873Y-120058896D01*
X136872168Y-120080491D01*
X136878876Y-120095682D01*
X136884033Y-120140139D01*
X136885000Y-120145000D01*
X136885000Y-120595000D01*
X136884032Y-120599862D01*
X136878876Y-120644317D01*
X136872168Y-120659506D01*
X136867873Y-120681104D01*
X136852422Y-120704227D01*
X136844766Y-120721567D01*
X136832923Y-120733409D01*
X136819099Y-120754099D01*
X136798409Y-120767923D01*
X136786567Y-120779766D01*
X136769227Y-120787422D01*
X136746104Y-120802873D01*
X136724506Y-120807168D01*
X136709317Y-120813876D01*
X136664861Y-120819032D01*
X136660000Y-120820000D01*
X136160000Y-120820000D01*
X136155138Y-120819033D01*
X136110682Y-120813876D01*
X136095491Y-120807168D01*
X136073896Y-120802873D01*
X136050774Y-120787423D01*
X136033432Y-120779766D01*
X136021587Y-120767921D01*
X136000901Y-120754099D01*
X135987078Y-120733412D01*
X135975233Y-120721567D01*
X135967574Y-120704222D01*
X135952127Y-120681104D01*
X135947831Y-120659510D01*
X135941123Y-120644317D01*
X135935964Y-120599849D01*
X135935000Y-120595000D01*
X135935000Y-120145000D01*
X135935964Y-120140150D01*
X135941123Y-120095682D01*
X135947832Y-120080487D01*
X135952127Y-120058896D01*
X135967573Y-120035779D01*
X135975233Y-120018432D01*
X135987080Y-120006584D01*
X136000901Y-119985901D01*
X136021584Y-119972080D01*
X136033432Y-119960233D01*
X136050779Y-119952573D01*
X136073896Y-119937127D01*
X136095487Y-119932832D01*
X136110682Y-119926123D01*
X136155151Y-119920964D01*
X136160000Y-119920000D01*
X136660000Y-119920000D01*
X136664850Y-119920964D01*
G37*
G36*
X127596742Y-119046601D02*
G01*
X127750687Y-119110367D01*
X127889234Y-119202941D01*
X128007059Y-119320766D01*
X128099633Y-119459313D01*
X128163399Y-119613258D01*
X128195907Y-119776685D01*
X128195907Y-119943315D01*
X128163399Y-120106742D01*
X128099633Y-120260687D01*
X128007059Y-120399234D01*
X127889234Y-120517059D01*
X127750687Y-120609633D01*
X127596742Y-120673399D01*
X127433315Y-120705907D01*
X127266685Y-120705907D01*
X127103258Y-120673399D01*
X126949313Y-120609633D01*
X126810766Y-120517059D01*
X126692941Y-120399234D01*
X126600367Y-120260687D01*
X126536601Y-120106742D01*
X126504093Y-119943315D01*
X126504093Y-119776685D01*
X126536601Y-119613258D01*
X126600367Y-119459313D01*
X126692941Y-119320766D01*
X126810766Y-119202941D01*
X126949313Y-119110367D01*
X127103258Y-119046601D01*
X127266685Y-119014093D01*
X127433315Y-119014093D01*
X127596742Y-119046601D01*
G37*
G36*
X145471742Y-118966601D02*
G01*
X145625687Y-119030367D01*
X145764234Y-119122941D01*
X145882059Y-119240766D01*
X145974633Y-119379313D01*
X146038399Y-119533258D01*
X146070907Y-119696685D01*
X146070907Y-119863315D01*
X146038399Y-120026742D01*
X145974633Y-120180687D01*
X145882059Y-120319234D01*
X145764234Y-120437059D01*
X145625687Y-120529633D01*
X145471742Y-120593399D01*
X145308315Y-120625907D01*
X145141685Y-120625907D01*
X144978258Y-120593399D01*
X144824313Y-120529633D01*
X144685766Y-120437059D01*
X144567941Y-120319234D01*
X144475367Y-120180687D01*
X144411601Y-120026742D01*
X144379093Y-119863315D01*
X144379093Y-119696685D01*
X144411601Y-119533258D01*
X144475367Y-119379313D01*
X144567941Y-119240766D01*
X144685766Y-119122941D01*
X144824313Y-119030367D01*
X144978258Y-118966601D01*
X145141685Y-118934093D01*
X145308315Y-118934093D01*
X145471742Y-118966601D01*
G37*
G36*
X133650000Y-120230000D02*
G01*
X131950000Y-120230000D01*
X131950000Y-119330000D01*
X133650000Y-119330000D01*
X133650000Y-120230000D01*
G37*
G36*
X141190000Y-120220000D02*
G01*
X139490000Y-120220000D01*
X139490000Y-119320000D01*
X141190000Y-119320000D01*
X141190000Y-120220000D01*
G37*
G36*
X136594850Y-117840964D02*
G01*
X136639317Y-117846123D01*
X136654510Y-117852831D01*
X136676104Y-117857127D01*
X136699222Y-117872574D01*
X136716567Y-117880233D01*
X136728412Y-117892078D01*
X136749099Y-117905901D01*
X136762921Y-117926587D01*
X136774766Y-117938432D01*
X136782423Y-117955774D01*
X136797873Y-117978896D01*
X136802168Y-118000491D01*
X136808876Y-118015682D01*
X136814033Y-118060139D01*
X136815000Y-118065000D01*
X136815000Y-118515000D01*
X136814032Y-118519862D01*
X136808876Y-118564317D01*
X136802168Y-118579506D01*
X136797873Y-118601104D01*
X136782422Y-118624227D01*
X136774766Y-118641567D01*
X136762923Y-118653409D01*
X136749099Y-118674099D01*
X136728409Y-118687923D01*
X136716567Y-118699766D01*
X136699227Y-118707422D01*
X136676104Y-118722873D01*
X136654506Y-118727168D01*
X136639317Y-118733876D01*
X136594861Y-118739032D01*
X136590000Y-118740000D01*
X136090000Y-118740000D01*
X136085138Y-118739033D01*
X136040682Y-118733876D01*
X136025491Y-118727168D01*
X136003896Y-118722873D01*
X135980774Y-118707423D01*
X135963432Y-118699766D01*
X135951587Y-118687921D01*
X135930901Y-118674099D01*
X135917078Y-118653412D01*
X135905233Y-118641567D01*
X135897574Y-118624222D01*
X135882127Y-118601104D01*
X135877831Y-118579510D01*
X135871123Y-118564317D01*
X135865964Y-118519849D01*
X135865000Y-118515000D01*
X135865000Y-118065000D01*
X135865964Y-118060150D01*
X135871123Y-118015682D01*
X135877832Y-118000487D01*
X135882127Y-117978896D01*
X135897573Y-117955779D01*
X135905233Y-117938432D01*
X135917080Y-117926584D01*
X135930901Y-117905901D01*
X135951584Y-117892080D01*
X135963432Y-117880233D01*
X135980779Y-117872573D01*
X136003896Y-117857127D01*
X136025487Y-117852832D01*
X136040682Y-117846123D01*
X136085151Y-117840964D01*
X136090000Y-117840000D01*
X136590000Y-117840000D01*
X136594850Y-117840964D01*
G37*
G36*
X140824850Y-117685964D02*
G01*
X140869317Y-117691123D01*
X140884510Y-117697831D01*
X140906104Y-117702127D01*
X140929222Y-117717574D01*
X140946567Y-117725233D01*
X140958412Y-117737078D01*
X140979099Y-117750901D01*
X140992921Y-117771587D01*
X141004766Y-117783432D01*
X141012423Y-117800774D01*
X141027873Y-117823896D01*
X141032168Y-117845491D01*
X141038876Y-117860682D01*
X141044033Y-117905139D01*
X141045000Y-117910000D01*
X141045000Y-118360000D01*
X141044032Y-118364862D01*
X141038876Y-118409317D01*
X141032168Y-118424506D01*
X141027873Y-118446104D01*
X141012422Y-118469227D01*
X141004766Y-118486567D01*
X140992923Y-118498409D01*
X140979099Y-118519099D01*
X140958409Y-118532923D01*
X140946567Y-118544766D01*
X140929227Y-118552422D01*
X140906104Y-118567873D01*
X140884506Y-118572168D01*
X140869317Y-118578876D01*
X140824861Y-118584032D01*
X140820000Y-118585000D01*
X140320000Y-118585000D01*
X140315138Y-118584033D01*
X140270682Y-118578876D01*
X140255491Y-118572168D01*
X140233896Y-118567873D01*
X140210774Y-118552423D01*
X140193432Y-118544766D01*
X140181587Y-118532921D01*
X140160901Y-118519099D01*
X140147078Y-118498412D01*
X140135233Y-118486567D01*
X140127574Y-118469222D01*
X140112127Y-118446104D01*
X140107831Y-118424510D01*
X140101123Y-118409317D01*
X140095964Y-118364849D01*
X140095000Y-118360000D01*
X140095000Y-117910000D01*
X140095964Y-117905150D01*
X140101123Y-117860682D01*
X140107832Y-117845487D01*
X140112127Y-117823896D01*
X140127573Y-117800779D01*
X140135233Y-117783432D01*
X140147080Y-117771584D01*
X140160901Y-117750901D01*
X140181584Y-117737080D01*
X140193432Y-117725233D01*
X140210779Y-117717573D01*
X140233896Y-117702127D01*
X140255487Y-117697832D01*
X140270682Y-117691123D01*
X140315151Y-117685964D01*
X140320000Y-117685000D01*
X140820000Y-117685000D01*
X140824850Y-117685964D01*
G37*
G36*
X132924850Y-117665964D02*
G01*
X132969317Y-117671123D01*
X132984510Y-117677831D01*
X133006104Y-117682127D01*
X133029222Y-117697574D01*
X133046567Y-117705233D01*
X133058412Y-117717078D01*
X133079099Y-117730901D01*
X133092921Y-117751587D01*
X133104766Y-117763432D01*
X133112423Y-117780774D01*
X133127873Y-117803896D01*
X133132168Y-117825491D01*
X133138876Y-117840682D01*
X133144033Y-117885139D01*
X133145000Y-117890000D01*
X133145000Y-118340000D01*
X133144032Y-118344862D01*
X133138876Y-118389317D01*
X133132168Y-118404506D01*
X133127873Y-118426104D01*
X133112422Y-118449227D01*
X133104766Y-118466567D01*
X133092923Y-118478409D01*
X133079099Y-118499099D01*
X133058409Y-118512923D01*
X133046567Y-118524766D01*
X133029227Y-118532422D01*
X133006104Y-118547873D01*
X132984506Y-118552168D01*
X132969317Y-118558876D01*
X132924861Y-118564032D01*
X132920000Y-118565000D01*
X132420000Y-118565000D01*
X132415138Y-118564033D01*
X132370682Y-118558876D01*
X132355491Y-118552168D01*
X132333896Y-118547873D01*
X132310774Y-118532423D01*
X132293432Y-118524766D01*
X132281587Y-118512921D01*
X132260901Y-118499099D01*
X132247078Y-118478412D01*
X132235233Y-118466567D01*
X132227574Y-118449222D01*
X132212127Y-118426104D01*
X132207831Y-118404510D01*
X132201123Y-118389317D01*
X132195964Y-118344849D01*
X132195000Y-118340000D01*
X132195000Y-117890000D01*
X132195964Y-117885150D01*
X132201123Y-117840682D01*
X132207832Y-117825487D01*
X132212127Y-117803896D01*
X132227573Y-117780779D01*
X132235233Y-117763432D01*
X132247080Y-117751584D01*
X132260901Y-117730901D01*
X132281584Y-117717080D01*
X132293432Y-117705233D01*
X132310779Y-117697573D01*
X132333896Y-117682127D01*
X132355487Y-117677832D01*
X132370682Y-117671123D01*
X132415151Y-117665964D01*
X132420000Y-117665000D01*
X132920000Y-117665000D01*
X132924850Y-117665964D01*
G37*
G36*
X127596742Y-116506601D02*
G01*
X127750687Y-116570367D01*
X127889234Y-116662941D01*
X128007059Y-116780766D01*
X128099633Y-116919313D01*
X128163399Y-117073258D01*
X128195907Y-117236685D01*
X128195907Y-117403315D01*
X128163399Y-117566742D01*
X128099633Y-117720687D01*
X128007059Y-117859234D01*
X127889234Y-117977059D01*
X127750687Y-118069633D01*
X127596742Y-118133399D01*
X127433315Y-118165907D01*
X127266685Y-118165907D01*
X127103258Y-118133399D01*
X126949313Y-118069633D01*
X126810766Y-117977059D01*
X126692941Y-117859234D01*
X126600367Y-117720687D01*
X126536601Y-117566742D01*
X126504093Y-117403315D01*
X126504093Y-117236685D01*
X126536601Y-117073258D01*
X126600367Y-116919313D01*
X126692941Y-116780766D01*
X126810766Y-116662941D01*
X126949313Y-116570367D01*
X127103258Y-116506601D01*
X127266685Y-116474093D01*
X127433315Y-116474093D01*
X127596742Y-116506601D01*
G37*
G36*
X145471742Y-116426601D02*
G01*
X145625687Y-116490367D01*
X145764234Y-116582941D01*
X145882059Y-116700766D01*
X145974633Y-116839313D01*
X146038399Y-116993258D01*
X146070907Y-117156685D01*
X146070907Y-117323315D01*
X146038399Y-117486742D01*
X145974633Y-117640687D01*
X145882059Y-117779234D01*
X145764234Y-117897059D01*
X145625687Y-117989633D01*
X145471742Y-118053399D01*
X145308315Y-118085907D01*
X145141685Y-118085907D01*
X144978258Y-118053399D01*
X144824313Y-117989633D01*
X144685766Y-117897059D01*
X144567941Y-117779234D01*
X144475367Y-117640687D01*
X144411601Y-117486742D01*
X144379093Y-117323315D01*
X144379093Y-117156685D01*
X144411601Y-116993258D01*
X144475367Y-116839313D01*
X144567941Y-116700766D01*
X144685766Y-116582941D01*
X144824313Y-116490367D01*
X144978258Y-116426601D01*
X145141685Y-116394093D01*
X145308315Y-116394093D01*
X145471742Y-116426601D01*
G37*
G36*
X136594850Y-116290964D02*
G01*
X136639317Y-116296123D01*
X136654510Y-116302831D01*
X136676104Y-116307127D01*
X136699222Y-116322574D01*
X136716567Y-116330233D01*
X136728412Y-116342078D01*
X136749099Y-116355901D01*
X136762921Y-116376587D01*
X136774766Y-116388432D01*
X136782423Y-116405774D01*
X136797873Y-116428896D01*
X136802168Y-116450491D01*
X136808876Y-116465682D01*
X136814033Y-116510139D01*
X136815000Y-116515000D01*
X136815000Y-116965000D01*
X136814032Y-116969862D01*
X136808876Y-117014317D01*
X136802168Y-117029506D01*
X136797873Y-117051104D01*
X136782422Y-117074227D01*
X136774766Y-117091567D01*
X136762923Y-117103409D01*
X136749099Y-117124099D01*
X136728409Y-117137923D01*
X136716567Y-117149766D01*
X136699227Y-117157422D01*
X136676104Y-117172873D01*
X136654506Y-117177168D01*
X136639317Y-117183876D01*
X136594861Y-117189032D01*
X136590000Y-117190000D01*
X136090000Y-117190000D01*
X136085138Y-117189033D01*
X136040682Y-117183876D01*
X136025491Y-117177168D01*
X136003896Y-117172873D01*
X135980774Y-117157423D01*
X135963432Y-117149766D01*
X135951587Y-117137921D01*
X135930901Y-117124099D01*
X135917078Y-117103412D01*
X135905233Y-117091567D01*
X135897574Y-117074222D01*
X135882127Y-117051104D01*
X135877831Y-117029510D01*
X135871123Y-117014317D01*
X135865964Y-116969849D01*
X135865000Y-116965000D01*
X135865000Y-116515000D01*
X135865964Y-116510150D01*
X135871123Y-116465682D01*
X135877832Y-116450487D01*
X135882127Y-116428896D01*
X135897573Y-116405779D01*
X135905233Y-116388432D01*
X135917080Y-116376584D01*
X135930901Y-116355901D01*
X135951584Y-116342080D01*
X135963432Y-116330233D01*
X135980779Y-116322573D01*
X136003896Y-116307127D01*
X136025487Y-116302832D01*
X136040682Y-116296123D01*
X136085151Y-116290964D01*
X136090000Y-116290000D01*
X136590000Y-116290000D01*
X136594850Y-116290964D01*
G37*
G36*
X140824850Y-116135964D02*
G01*
X140869317Y-116141123D01*
X140884510Y-116147831D01*
X140906104Y-116152127D01*
X140929222Y-116167574D01*
X140946567Y-116175233D01*
X140958412Y-116187078D01*
X140979099Y-116200901D01*
X140992921Y-116221587D01*
X141004766Y-116233432D01*
X141012423Y-116250774D01*
X141027873Y-116273896D01*
X141032168Y-116295491D01*
X141038876Y-116310682D01*
X141044033Y-116355139D01*
X141045000Y-116360000D01*
X141045000Y-116810000D01*
X141044032Y-116814862D01*
X141038876Y-116859317D01*
X141032168Y-116874506D01*
X141027873Y-116896104D01*
X141012422Y-116919227D01*
X141004766Y-116936567D01*
X140992923Y-116948409D01*
X140979099Y-116969099D01*
X140958409Y-116982923D01*
X140946567Y-116994766D01*
X140929227Y-117002422D01*
X140906104Y-117017873D01*
X140884506Y-117022168D01*
X140869317Y-117028876D01*
X140824861Y-117034032D01*
X140820000Y-117035000D01*
X140320000Y-117035000D01*
X140315138Y-117034033D01*
X140270682Y-117028876D01*
X140255491Y-117022168D01*
X140233896Y-117017873D01*
X140210774Y-117002423D01*
X140193432Y-116994766D01*
X140181587Y-116982921D01*
X140160901Y-116969099D01*
X140147078Y-116948412D01*
X140135233Y-116936567D01*
X140127574Y-116919222D01*
X140112127Y-116896104D01*
X140107831Y-116874510D01*
X140101123Y-116859317D01*
X140095964Y-116814849D01*
X140095000Y-116810000D01*
X140095000Y-116360000D01*
X140095964Y-116355150D01*
X140101123Y-116310682D01*
X140107832Y-116295487D01*
X140112127Y-116273896D01*
X140127573Y-116250779D01*
X140135233Y-116233432D01*
X140147080Y-116221584D01*
X140160901Y-116200901D01*
X140181584Y-116187080D01*
X140193432Y-116175233D01*
X140210779Y-116167573D01*
X140233896Y-116152127D01*
X140255487Y-116147832D01*
X140270682Y-116141123D01*
X140315151Y-116135964D01*
X140320000Y-116135000D01*
X140820000Y-116135000D01*
X140824850Y-116135964D01*
G37*
G36*
X132924850Y-116115964D02*
G01*
X132969317Y-116121123D01*
X132984510Y-116127831D01*
X133006104Y-116132127D01*
X133029222Y-116147574D01*
X133046567Y-116155233D01*
X133058412Y-116167078D01*
X133079099Y-116180901D01*
X133092921Y-116201587D01*
X133104766Y-116213432D01*
X133112423Y-116230774D01*
X133127873Y-116253896D01*
X133132168Y-116275491D01*
X133138876Y-116290682D01*
X133144033Y-116335139D01*
X133145000Y-116340000D01*
X133145000Y-116790000D01*
X133144032Y-116794862D01*
X133138876Y-116839317D01*
X133132168Y-116854506D01*
X133127873Y-116876104D01*
X133112422Y-116899227D01*
X133104766Y-116916567D01*
X133092923Y-116928409D01*
X133079099Y-116949099D01*
X133058409Y-116962923D01*
X133046567Y-116974766D01*
X133029227Y-116982422D01*
X133006104Y-116997873D01*
X132984506Y-117002168D01*
X132969317Y-117008876D01*
X132924861Y-117014032D01*
X132920000Y-117015000D01*
X132420000Y-117015000D01*
X132415138Y-117014033D01*
X132370682Y-117008876D01*
X132355491Y-117002168D01*
X132333896Y-116997873D01*
X132310774Y-116982423D01*
X132293432Y-116974766D01*
X132281587Y-116962921D01*
X132260901Y-116949099D01*
X132247078Y-116928412D01*
X132235233Y-116916567D01*
X132227574Y-116899222D01*
X132212127Y-116876104D01*
X132207831Y-116854510D01*
X132201123Y-116839317D01*
X132195964Y-116794849D01*
X132195000Y-116790000D01*
X132195000Y-116340000D01*
X132195964Y-116335150D01*
X132201123Y-116290682D01*
X132207832Y-116275487D01*
X132212127Y-116253896D01*
X132227573Y-116230779D01*
X132235233Y-116213432D01*
X132247080Y-116201584D01*
X132260901Y-116180901D01*
X132281584Y-116167080D01*
X132293432Y-116155233D01*
X132310779Y-116147573D01*
X132333896Y-116132127D01*
X132355487Y-116127832D01*
X132370682Y-116121123D01*
X132415151Y-116115964D01*
X132420000Y-116115000D01*
X132920000Y-116115000D01*
X132924850Y-116115964D01*
G37*
G36*
X127596742Y-113966601D02*
G01*
X127750687Y-114030367D01*
X127889234Y-114122941D01*
X128007059Y-114240766D01*
X128099633Y-114379313D01*
X128163399Y-114533258D01*
X128195907Y-114696685D01*
X128195907Y-114863315D01*
X128163399Y-115026742D01*
X128099633Y-115180687D01*
X128007059Y-115319234D01*
X127889234Y-115437059D01*
X127750687Y-115529633D01*
X127596742Y-115593399D01*
X127433315Y-115625907D01*
X127266685Y-115625907D01*
X127103258Y-115593399D01*
X126949313Y-115529633D01*
X126810766Y-115437059D01*
X126692941Y-115319234D01*
X126600367Y-115180687D01*
X126536601Y-115026742D01*
X126504093Y-114863315D01*
X126504093Y-114696685D01*
X126536601Y-114533258D01*
X126600367Y-114379313D01*
X126692941Y-114240766D01*
X126810766Y-114122941D01*
X126949313Y-114030367D01*
X127103258Y-113966601D01*
X127266685Y-113934093D01*
X127433315Y-113934093D01*
X127596742Y-113966601D01*
G37*
G36*
X145471742Y-113886601D02*
G01*
X145625687Y-113950367D01*
X145764234Y-114042941D01*
X145882059Y-114160766D01*
X145974633Y-114299313D01*
X146038399Y-114453258D01*
X146070907Y-114616685D01*
X146070907Y-114783315D01*
X146038399Y-114946742D01*
X145974633Y-115100687D01*
X145882059Y-115239234D01*
X145764234Y-115357059D01*
X145625687Y-115449633D01*
X145471742Y-115513399D01*
X145308315Y-115545907D01*
X145141685Y-115545907D01*
X144978258Y-115513399D01*
X144824313Y-115449633D01*
X144685766Y-115357059D01*
X144567941Y-115239234D01*
X144475367Y-115100687D01*
X144411601Y-114946742D01*
X144379093Y-114783315D01*
X144379093Y-114616685D01*
X144411601Y-114453258D01*
X144475367Y-114299313D01*
X144567941Y-114160766D01*
X144685766Y-114042941D01*
X144824313Y-113950367D01*
X144978258Y-113886601D01*
X145141685Y-113854093D01*
X145308315Y-113854093D01*
X145471742Y-113886601D01*
G37*
G36*
X137130084Y-113711985D02*
G01*
X137146839Y-113711985D01*
X137164522Y-113718835D01*
X137191789Y-113724259D01*
X137210092Y-113736488D01*
X137225576Y-113742487D01*
X137260648Y-113770269D01*
X137264785Y-113773033D01*
X137582983Y-114091231D01*
X137585738Y-114095355D01*
X137613527Y-114130437D01*
X137619525Y-114145921D01*
X137631757Y-114164227D01*
X137637180Y-114191493D01*
X137644031Y-114209176D01*
X137644031Y-114225932D01*
X137648884Y-114250330D01*
X137644031Y-114274727D01*
X137644031Y-114291484D01*
X137637180Y-114309166D01*
X137631757Y-114336434D01*
X137619525Y-114354739D01*
X137613528Y-114370221D01*
X137585747Y-114405291D01*
X137582983Y-114409429D01*
X137229429Y-114762983D01*
X137225304Y-114765739D01*
X137190223Y-114793527D01*
X137174740Y-114799525D01*
X137156434Y-114811757D01*
X137129165Y-114817180D01*
X137111484Y-114824031D01*
X137094728Y-114824031D01*
X137070330Y-114828884D01*
X137045932Y-114824031D01*
X137029177Y-114824031D01*
X137011494Y-114817180D01*
X136984227Y-114811757D01*
X136965922Y-114799526D01*
X136950439Y-114793528D01*
X136915368Y-114765747D01*
X136911231Y-114762983D01*
X136593033Y-114444785D01*
X136590278Y-114440662D01*
X136562488Y-114405578D01*
X136556489Y-114390092D01*
X136544259Y-114371789D01*
X136538835Y-114344521D01*
X136531985Y-114326839D01*
X136531985Y-114310083D01*
X136527132Y-114285686D01*
X136531985Y-114261288D01*
X136531985Y-114244531D01*
X136538835Y-114226846D01*
X136544259Y-114199582D01*
X136556487Y-114181280D01*
X136562487Y-114165794D01*
X136590277Y-114130710D01*
X136593033Y-114126587D01*
X136946587Y-113773033D01*
X136950697Y-113770286D01*
X136985792Y-113742488D01*
X137001279Y-113736488D01*
X137019582Y-113724259D01*
X137046848Y-113718835D01*
X137064532Y-113711985D01*
X137081288Y-113711985D01*
X137105686Y-113707132D01*
X137130084Y-113711985D01*
G37*
G36*
X136034068Y-112615969D02*
G01*
X136050823Y-112615969D01*
X136068506Y-112622819D01*
X136095773Y-112628243D01*
X136114076Y-112640472D01*
X136129560Y-112646471D01*
X136164632Y-112674253D01*
X136168769Y-112677017D01*
X136486967Y-112995215D01*
X136489722Y-112999339D01*
X136517511Y-113034421D01*
X136523509Y-113049905D01*
X136535741Y-113068211D01*
X136541164Y-113095477D01*
X136548015Y-113113160D01*
X136548015Y-113129916D01*
X136552868Y-113154314D01*
X136548015Y-113178711D01*
X136548015Y-113195468D01*
X136541164Y-113213150D01*
X136535741Y-113240418D01*
X136523509Y-113258723D01*
X136517512Y-113274205D01*
X136489731Y-113309275D01*
X136486967Y-113313413D01*
X136133413Y-113666967D01*
X136129288Y-113669723D01*
X136094207Y-113697511D01*
X136078724Y-113703509D01*
X136060418Y-113715741D01*
X136033149Y-113721164D01*
X136015468Y-113728015D01*
X135998712Y-113728015D01*
X135974314Y-113732868D01*
X135949916Y-113728015D01*
X135933161Y-113728015D01*
X135915478Y-113721164D01*
X135888211Y-113715741D01*
X135869906Y-113703510D01*
X135854423Y-113697512D01*
X135819352Y-113669731D01*
X135815215Y-113666967D01*
X135497017Y-113348769D01*
X135494262Y-113344646D01*
X135466472Y-113309562D01*
X135460473Y-113294076D01*
X135448243Y-113275773D01*
X135442819Y-113248505D01*
X135435969Y-113230823D01*
X135435969Y-113214067D01*
X135431116Y-113189670D01*
X135435969Y-113165272D01*
X135435969Y-113148515D01*
X135442819Y-113130830D01*
X135448243Y-113103566D01*
X135460471Y-113085264D01*
X135466471Y-113069778D01*
X135494261Y-113034694D01*
X135497017Y-113030571D01*
X135850571Y-112677017D01*
X135854681Y-112674270D01*
X135889776Y-112646472D01*
X135905263Y-112640472D01*
X135923566Y-112628243D01*
X135950832Y-112622819D01*
X135968516Y-112615969D01*
X135985272Y-112615969D01*
X136009670Y-112611116D01*
X136034068Y-112615969D01*
G37*
G36*
X138816614Y-112095228D02*
G01*
X138835820Y-112095228D01*
X138856091Y-112103080D01*
X138885747Y-112108980D01*
X138905651Y-112122279D01*
X138923133Y-112129052D01*
X138962731Y-112160419D01*
X138966852Y-112163173D01*
X139461827Y-112658148D01*
X139464573Y-112662258D01*
X139495947Y-112701866D01*
X139502719Y-112719346D01*
X139516020Y-112739253D01*
X139521918Y-112768907D01*
X139529772Y-112789179D01*
X139529772Y-112808385D01*
X139535051Y-112834924D01*
X139529772Y-112861462D01*
X139529772Y-112880671D01*
X139521918Y-112900944D01*
X139516020Y-112930595D01*
X139502720Y-112950499D01*
X139495950Y-112967976D01*
X139464591Y-113007563D01*
X139461827Y-113011701D01*
X138825431Y-113648097D01*
X138821313Y-113650848D01*
X138781708Y-113682219D01*
X138764229Y-113688990D01*
X138744325Y-113702290D01*
X138714675Y-113708187D01*
X138694402Y-113716042D01*
X138675192Y-113716042D01*
X138648654Y-113721321D01*
X138622116Y-113716042D01*
X138602910Y-113716042D01*
X138582639Y-113708189D01*
X138552983Y-113702290D01*
X138533076Y-113688988D01*
X138515596Y-113682217D01*
X138476000Y-113650851D01*
X138471878Y-113648097D01*
X137976903Y-113153122D01*
X137974157Y-113149013D01*
X137942782Y-113109403D01*
X137936009Y-113091921D01*
X137922710Y-113072017D01*
X137916810Y-113042361D01*
X137908958Y-113022090D01*
X137908958Y-113002884D01*
X137903679Y-112976346D01*
X137908958Y-112949807D01*
X137908958Y-112930598D01*
X137916812Y-112910322D01*
X137922710Y-112880675D01*
X137936006Y-112860775D01*
X137942779Y-112843293D01*
X137974147Y-112803692D01*
X137976903Y-112799569D01*
X138369817Y-112406655D01*
X138610849Y-112165622D01*
X138610853Y-112165618D01*
X138613299Y-112163173D01*
X138617402Y-112160431D01*
X138657021Y-112129050D01*
X138674504Y-112122277D01*
X138694405Y-112108980D01*
X138724052Y-112103082D01*
X138744328Y-112095228D01*
X138763538Y-112095228D01*
X138790076Y-112089949D01*
X138816614Y-112095228D01*
G37*
G36*
X127596742Y-111426601D02*
G01*
X127750687Y-111490367D01*
X127889234Y-111582941D01*
X128007059Y-111700766D01*
X128099633Y-111839313D01*
X128163399Y-111993258D01*
X128195907Y-112156685D01*
X128195907Y-112323315D01*
X128163399Y-112486742D01*
X128099633Y-112640687D01*
X128007059Y-112779234D01*
X127889234Y-112897059D01*
X127750687Y-112989633D01*
X127596742Y-113053399D01*
X127433315Y-113085907D01*
X127266685Y-113085907D01*
X127103258Y-113053399D01*
X126949313Y-112989633D01*
X126810766Y-112897059D01*
X126692941Y-112779234D01*
X126600367Y-112640687D01*
X126536601Y-112486742D01*
X126504093Y-112323315D01*
X126504093Y-112156685D01*
X126536601Y-111993258D01*
X126600367Y-111839313D01*
X126692941Y-111700766D01*
X126810766Y-111582941D01*
X126949313Y-111490367D01*
X127103258Y-111426601D01*
X127266685Y-111394093D01*
X127433315Y-111394093D01*
X127596742Y-111426601D01*
G37*
G36*
X145471742Y-111346601D02*
G01*
X145625687Y-111410367D01*
X145764234Y-111502941D01*
X145882059Y-111620766D01*
X145974633Y-111759313D01*
X146038399Y-111913258D01*
X146070907Y-112076685D01*
X146070907Y-112243315D01*
X146038399Y-112406742D01*
X145974633Y-112560687D01*
X145882059Y-112699234D01*
X145764234Y-112817059D01*
X145625687Y-112909633D01*
X145471742Y-112973399D01*
X145308315Y-113005907D01*
X145141685Y-113005907D01*
X144978258Y-112973399D01*
X144824313Y-112909633D01*
X144685766Y-112817059D01*
X144567941Y-112699234D01*
X144475367Y-112560687D01*
X144411601Y-112406742D01*
X144379093Y-112243315D01*
X144379093Y-112076685D01*
X144411601Y-111913258D01*
X144475367Y-111759313D01*
X144567941Y-111620766D01*
X144685766Y-111502941D01*
X144824313Y-111410367D01*
X144978258Y-111346601D01*
X145141685Y-111314093D01*
X145308315Y-111314093D01*
X145471742Y-111346601D01*
G37*
G36*
X137614533Y-110893147D02*
G01*
X137633739Y-110893147D01*
X137654010Y-110900999D01*
X137683666Y-110906899D01*
X137703570Y-110920198D01*
X137721052Y-110926971D01*
X137760650Y-110958338D01*
X137764771Y-110961092D01*
X138259746Y-111456067D01*
X138262492Y-111460177D01*
X138293866Y-111499785D01*
X138300638Y-111517265D01*
X138313939Y-111537172D01*
X138319837Y-111566826D01*
X138327691Y-111587098D01*
X138327691Y-111606304D01*
X138332970Y-111632843D01*
X138327691Y-111659381D01*
X138327691Y-111678590D01*
X138319837Y-111698863D01*
X138313939Y-111728514D01*
X138300639Y-111748418D01*
X138293869Y-111765895D01*
X138262510Y-111805482D01*
X138259746Y-111809620D01*
X137623350Y-112446016D01*
X137619232Y-112448767D01*
X137579627Y-112480138D01*
X137562148Y-112486909D01*
X137542244Y-112500209D01*
X137512594Y-112506106D01*
X137492321Y-112513961D01*
X137473111Y-112513961D01*
X137446573Y-112519240D01*
X137420035Y-112513961D01*
X137400829Y-112513961D01*
X137380558Y-112506108D01*
X137350902Y-112500209D01*
X137330995Y-112486907D01*
X137313515Y-112480136D01*
X137273919Y-112448770D01*
X137269797Y-112446016D01*
X136774822Y-111951041D01*
X136772076Y-111946932D01*
X136740701Y-111907322D01*
X136733928Y-111889840D01*
X136720629Y-111869936D01*
X136714729Y-111840280D01*
X136706877Y-111820009D01*
X136706877Y-111800803D01*
X136701598Y-111774265D01*
X136706877Y-111747726D01*
X136706877Y-111728517D01*
X136714731Y-111708241D01*
X136720629Y-111678594D01*
X136733925Y-111658694D01*
X136740698Y-111641212D01*
X136772066Y-111601611D01*
X136774822Y-111597488D01*
X137226079Y-111146231D01*
X137408768Y-110963541D01*
X137408772Y-110963537D01*
X137411218Y-110961092D01*
X137415321Y-110958350D01*
X137454940Y-110926969D01*
X137472423Y-110920196D01*
X137492324Y-110906899D01*
X137521971Y-110901001D01*
X137542247Y-110893147D01*
X137561457Y-110893147D01*
X137587995Y-110887868D01*
X137614533Y-110893147D01*
G37*
G36*
X140372249Y-110539593D02*
G01*
X140391455Y-110539593D01*
X140411726Y-110547445D01*
X140441382Y-110553345D01*
X140461286Y-110566644D01*
X140478768Y-110573417D01*
X140518366Y-110604784D01*
X140522487Y-110607538D01*
X141017462Y-111102513D01*
X141020208Y-111106623D01*
X141051582Y-111146231D01*
X141058354Y-111163711D01*
X141071655Y-111183618D01*
X141077553Y-111213272D01*
X141085407Y-111233544D01*
X141085407Y-111252750D01*
X141090686Y-111279289D01*
X141085407Y-111305827D01*
X141085407Y-111325036D01*
X141077553Y-111345309D01*
X141071655Y-111374960D01*
X141058355Y-111394864D01*
X141051585Y-111412341D01*
X141020226Y-111451928D01*
X141017462Y-111456066D01*
X140381066Y-112092462D01*
X140376948Y-112095213D01*
X140337343Y-112126584D01*
X140319864Y-112133355D01*
X140299960Y-112146655D01*
X140270310Y-112152552D01*
X140250037Y-112160407D01*
X140230827Y-112160407D01*
X140204289Y-112165686D01*
X140177751Y-112160407D01*
X140158545Y-112160407D01*
X140138274Y-112152554D01*
X140108618Y-112146655D01*
X140088711Y-112133353D01*
X140071231Y-112126582D01*
X140031635Y-112095216D01*
X140027513Y-112092462D01*
X139532538Y-111597487D01*
X139529792Y-111593378D01*
X139498417Y-111553768D01*
X139491644Y-111536286D01*
X139478345Y-111516382D01*
X139472445Y-111486726D01*
X139464593Y-111466455D01*
X139464593Y-111447249D01*
X139459314Y-111420711D01*
X139464593Y-111394172D01*
X139464593Y-111374963D01*
X139472447Y-111354687D01*
X139478345Y-111325040D01*
X139491641Y-111305140D01*
X139498414Y-111287658D01*
X139529782Y-111248057D01*
X139532538Y-111243934D01*
X139888604Y-110887868D01*
X140166484Y-110609987D01*
X140166488Y-110609983D01*
X140168934Y-110607538D01*
X140173037Y-110604796D01*
X140212656Y-110573415D01*
X140230139Y-110566642D01*
X140250040Y-110553345D01*
X140279687Y-110547447D01*
X140299963Y-110539593D01*
X140319173Y-110539593D01*
X140345711Y-110534314D01*
X140372249Y-110539593D01*
G37*
G36*
X139170168Y-109337512D02*
G01*
X139189374Y-109337512D01*
X139209645Y-109345364D01*
X139239301Y-109351264D01*
X139259205Y-109364563D01*
X139276687Y-109371336D01*
X139316285Y-109402703D01*
X139320406Y-109405457D01*
X139815381Y-109900432D01*
X139818127Y-109904542D01*
X139849501Y-109944150D01*
X139856273Y-109961630D01*
X139869574Y-109981537D01*
X139875472Y-110011191D01*
X139883326Y-110031463D01*
X139883326Y-110050669D01*
X139888605Y-110077208D01*
X139883326Y-110103746D01*
X139883326Y-110122955D01*
X139875472Y-110143228D01*
X139869574Y-110172879D01*
X139856274Y-110192783D01*
X139849504Y-110210260D01*
X139818145Y-110249847D01*
X139815381Y-110253985D01*
X139178985Y-110890381D01*
X139174867Y-110893132D01*
X139135262Y-110924503D01*
X139117783Y-110931274D01*
X139097879Y-110944574D01*
X139068229Y-110950471D01*
X139047956Y-110958326D01*
X139028746Y-110958326D01*
X139002208Y-110963605D01*
X138975670Y-110958326D01*
X138956464Y-110958326D01*
X138936193Y-110950473D01*
X138906537Y-110944574D01*
X138886630Y-110931272D01*
X138869150Y-110924501D01*
X138829554Y-110893135D01*
X138825432Y-110890381D01*
X138330457Y-110395406D01*
X138327711Y-110391297D01*
X138296336Y-110351687D01*
X138289563Y-110334205D01*
X138276264Y-110314301D01*
X138270364Y-110284645D01*
X138262512Y-110264374D01*
X138262512Y-110245168D01*
X138257233Y-110218630D01*
X138262512Y-110192091D01*
X138262512Y-110172882D01*
X138270366Y-110152606D01*
X138276264Y-110122959D01*
X138289560Y-110103059D01*
X138296333Y-110085577D01*
X138327701Y-110045976D01*
X138330457Y-110041853D01*
X138803528Y-109568782D01*
X138964403Y-109407906D01*
X138964407Y-109407902D01*
X138966853Y-109405457D01*
X138970956Y-109402715D01*
X139010575Y-109371334D01*
X139028058Y-109364561D01*
X139047959Y-109351264D01*
X139077606Y-109345366D01*
X139097882Y-109337512D01*
X139117092Y-109337512D01*
X139143630Y-109332233D01*
X139170168Y-109337512D01*
G37*
G36*
X127596742Y-108886601D02*
G01*
X127750687Y-108950367D01*
X127889234Y-109042941D01*
X128007059Y-109160766D01*
X128099633Y-109299313D01*
X128163399Y-109453258D01*
X128195907Y-109616685D01*
X128195907Y-109783315D01*
X128163399Y-109946742D01*
X128099633Y-110100687D01*
X128007059Y-110239234D01*
X127889234Y-110357059D01*
X127750687Y-110449633D01*
X127596742Y-110513399D01*
X127433315Y-110545907D01*
X127266685Y-110545907D01*
X127103258Y-110513399D01*
X126949313Y-110449633D01*
X126810766Y-110357059D01*
X126692941Y-110239234D01*
X126600367Y-110100687D01*
X126536601Y-109946742D01*
X126504093Y-109783315D01*
X126504093Y-109616685D01*
X126536601Y-109453258D01*
X126600367Y-109299313D01*
X126692941Y-109160766D01*
X126810766Y-109042941D01*
X126949313Y-108950367D01*
X127103258Y-108886601D01*
X127266685Y-108854093D01*
X127433315Y-108854093D01*
X127596742Y-108886601D01*
G37*
G36*
X141640084Y-109351985D02*
G01*
X141656839Y-109351985D01*
X141674522Y-109358835D01*
X141701789Y-109364259D01*
X141720092Y-109376488D01*
X141735576Y-109382487D01*
X141770648Y-109410269D01*
X141774785Y-109413033D01*
X142092983Y-109731231D01*
X142095738Y-109735355D01*
X142123527Y-109770437D01*
X142129525Y-109785921D01*
X142141757Y-109804227D01*
X142147180Y-109831493D01*
X142154031Y-109849176D01*
X142154031Y-109865932D01*
X142158884Y-109890330D01*
X142154031Y-109914727D01*
X142154031Y-109931484D01*
X142147180Y-109949166D01*
X142141757Y-109976434D01*
X142129525Y-109994739D01*
X142123528Y-110010221D01*
X142095747Y-110045291D01*
X142092983Y-110049429D01*
X141739429Y-110402983D01*
X141735304Y-110405739D01*
X141700223Y-110433527D01*
X141684740Y-110439525D01*
X141666434Y-110451757D01*
X141639165Y-110457180D01*
X141621484Y-110464031D01*
X141604728Y-110464031D01*
X141580330Y-110468884D01*
X141555932Y-110464031D01*
X141539177Y-110464031D01*
X141521494Y-110457180D01*
X141494227Y-110451757D01*
X141475922Y-110439526D01*
X141460439Y-110433528D01*
X141425368Y-110405747D01*
X141421231Y-110402983D01*
X141103033Y-110084785D01*
X141100278Y-110080662D01*
X141072488Y-110045578D01*
X141066489Y-110030092D01*
X141054259Y-110011789D01*
X141048835Y-109984521D01*
X141041985Y-109966839D01*
X141041985Y-109950083D01*
X141037132Y-109925686D01*
X141041985Y-109901288D01*
X141041985Y-109884531D01*
X141048835Y-109866846D01*
X141054259Y-109839582D01*
X141066487Y-109821280D01*
X141072487Y-109805794D01*
X141100277Y-109770710D01*
X141103033Y-109766587D01*
X141456587Y-109413033D01*
X141460697Y-109410286D01*
X141495792Y-109382488D01*
X141511279Y-109376488D01*
X141529582Y-109364259D01*
X141556848Y-109358835D01*
X141574532Y-109351985D01*
X141591288Y-109351985D01*
X141615686Y-109347132D01*
X141640084Y-109351985D01*
G37*
G36*
X145471742Y-108806601D02*
G01*
X145625687Y-108870367D01*
X145764234Y-108962941D01*
X145882059Y-109080766D01*
X145974633Y-109219313D01*
X146038399Y-109373258D01*
X146070907Y-109536685D01*
X146070907Y-109703315D01*
X146038399Y-109866742D01*
X145974633Y-110020687D01*
X145882059Y-110159234D01*
X145764234Y-110277059D01*
X145625687Y-110369633D01*
X145471742Y-110433399D01*
X145308315Y-110465907D01*
X145141685Y-110465907D01*
X144978258Y-110433399D01*
X144824313Y-110369633D01*
X144685766Y-110277059D01*
X144567941Y-110159234D01*
X144475367Y-110020687D01*
X144411601Y-109866742D01*
X144379093Y-109703315D01*
X144379093Y-109536685D01*
X144411601Y-109373258D01*
X144475367Y-109219313D01*
X144567941Y-109080766D01*
X144685766Y-108962941D01*
X144824313Y-108870367D01*
X144978258Y-108806601D01*
X145141685Y-108774093D01*
X145308315Y-108774093D01*
X145471742Y-108806601D01*
G37*
G36*
X134580084Y-109191985D02*
G01*
X134596839Y-109191985D01*
X134614522Y-109198835D01*
X134641789Y-109204259D01*
X134660092Y-109216488D01*
X134675576Y-109222487D01*
X134710648Y-109250269D01*
X134714785Y-109253033D01*
X135032983Y-109571231D01*
X135035738Y-109575355D01*
X135063527Y-109610437D01*
X135069525Y-109625921D01*
X135081757Y-109644227D01*
X135087180Y-109671493D01*
X135094031Y-109689176D01*
X135094031Y-109705932D01*
X135098884Y-109730330D01*
X135094031Y-109754727D01*
X135094031Y-109771484D01*
X135087180Y-109789166D01*
X135081757Y-109816434D01*
X135069525Y-109834739D01*
X135063528Y-109850221D01*
X135035747Y-109885291D01*
X135032983Y-109889429D01*
X134679429Y-110242983D01*
X134675304Y-110245739D01*
X134640223Y-110273527D01*
X134624740Y-110279525D01*
X134606434Y-110291757D01*
X134579165Y-110297180D01*
X134561484Y-110304031D01*
X134544728Y-110304031D01*
X134520330Y-110308884D01*
X134495932Y-110304031D01*
X134479177Y-110304031D01*
X134461494Y-110297180D01*
X134434227Y-110291757D01*
X134415922Y-110279526D01*
X134400439Y-110273528D01*
X134365368Y-110245747D01*
X134361231Y-110242983D01*
X134043033Y-109924785D01*
X134040278Y-109920662D01*
X134012488Y-109885578D01*
X134006489Y-109870092D01*
X133994259Y-109851789D01*
X133988835Y-109824521D01*
X133981985Y-109806839D01*
X133981985Y-109790083D01*
X133977132Y-109765686D01*
X133981985Y-109741288D01*
X133981985Y-109724531D01*
X133988835Y-109706846D01*
X133994259Y-109679582D01*
X134006487Y-109661280D01*
X134012487Y-109645794D01*
X134040277Y-109610710D01*
X134043033Y-109606587D01*
X134396587Y-109253033D01*
X134400697Y-109250286D01*
X134435792Y-109222488D01*
X134451279Y-109216488D01*
X134469582Y-109204259D01*
X134496848Y-109198835D01*
X134514532Y-109191985D01*
X134531288Y-109191985D01*
X134555686Y-109187132D01*
X134580084Y-109191985D01*
G37*
G36*
X140544068Y-108255969D02*
G01*
X140560823Y-108255969D01*
X140578506Y-108262819D01*
X140605773Y-108268243D01*
X140624076Y-108280472D01*
X140639560Y-108286471D01*
X140674632Y-108314253D01*
X140678769Y-108317017D01*
X140996967Y-108635215D01*
X140999722Y-108639339D01*
X141027511Y-108674421D01*
X141033509Y-108689905D01*
X141045741Y-108708211D01*
X141051164Y-108735477D01*
X141058015Y-108753160D01*
X141058015Y-108769916D01*
X141062868Y-108794314D01*
X141058015Y-108818711D01*
X141058015Y-108835468D01*
X141051164Y-108853150D01*
X141045741Y-108880418D01*
X141033509Y-108898723D01*
X141027512Y-108914205D01*
X140999731Y-108949275D01*
X140996967Y-108953413D01*
X140643413Y-109306967D01*
X140639288Y-109309723D01*
X140604207Y-109337511D01*
X140588724Y-109343509D01*
X140570418Y-109355741D01*
X140543149Y-109361164D01*
X140525468Y-109368015D01*
X140508712Y-109368015D01*
X140484314Y-109372868D01*
X140459916Y-109368015D01*
X140443161Y-109368015D01*
X140425478Y-109361164D01*
X140398211Y-109355741D01*
X140379906Y-109343510D01*
X140364423Y-109337512D01*
X140329352Y-109309731D01*
X140325215Y-109306967D01*
X140007017Y-108988769D01*
X140004262Y-108984646D01*
X139976472Y-108949562D01*
X139970473Y-108934076D01*
X139958243Y-108915773D01*
X139952819Y-108888505D01*
X139945969Y-108870823D01*
X139945969Y-108854067D01*
X139941116Y-108829670D01*
X139945969Y-108805272D01*
X139945969Y-108788515D01*
X139952819Y-108770830D01*
X139958243Y-108743566D01*
X139970471Y-108725264D01*
X139976471Y-108709778D01*
X140004261Y-108674694D01*
X140007017Y-108670571D01*
X140360571Y-108317017D01*
X140364681Y-108314270D01*
X140399776Y-108286472D01*
X140415263Y-108280472D01*
X140433566Y-108268243D01*
X140460832Y-108262819D01*
X140478516Y-108255969D01*
X140495272Y-108255969D01*
X140519670Y-108251116D01*
X140544068Y-108255969D01*
G37*
G36*
X133484068Y-108095969D02*
G01*
X133500823Y-108095969D01*
X133518506Y-108102819D01*
X133545773Y-108108243D01*
X133564076Y-108120472D01*
X133579560Y-108126471D01*
X133614632Y-108154253D01*
X133618769Y-108157017D01*
X133936967Y-108475215D01*
X133939722Y-108479339D01*
X133967511Y-108514421D01*
X133973509Y-108529905D01*
X133985741Y-108548211D01*
X133991164Y-108575477D01*
X133998015Y-108593160D01*
X133998015Y-108609916D01*
X134002868Y-108634314D01*
X133998015Y-108658711D01*
X133998015Y-108675468D01*
X133991164Y-108693150D01*
X133985741Y-108720418D01*
X133973509Y-108738723D01*
X133967512Y-108754205D01*
X133939731Y-108789275D01*
X133936967Y-108793413D01*
X133583413Y-109146967D01*
X133579288Y-109149723D01*
X133544207Y-109177511D01*
X133528724Y-109183509D01*
X133510418Y-109195741D01*
X133483149Y-109201164D01*
X133465468Y-109208015D01*
X133448712Y-109208015D01*
X133424314Y-109212868D01*
X133399916Y-109208015D01*
X133383161Y-109208015D01*
X133365478Y-109201164D01*
X133338211Y-109195741D01*
X133319906Y-109183510D01*
X133304423Y-109177512D01*
X133269352Y-109149731D01*
X133265215Y-109146967D01*
X132947017Y-108828769D01*
X132944262Y-108824646D01*
X132916472Y-108789562D01*
X132910473Y-108774076D01*
X132898243Y-108755773D01*
X132892819Y-108728505D01*
X132885969Y-108710823D01*
X132885969Y-108694067D01*
X132881116Y-108669670D01*
X132885969Y-108645272D01*
X132885969Y-108628515D01*
X132892819Y-108610830D01*
X132898243Y-108583566D01*
X132910471Y-108565264D01*
X132916471Y-108549778D01*
X132944261Y-108514694D01*
X132947017Y-108510571D01*
X133300571Y-108157017D01*
X133304681Y-108154270D01*
X133339776Y-108126472D01*
X133355263Y-108120472D01*
X133373566Y-108108243D01*
X133400832Y-108102819D01*
X133418516Y-108095969D01*
X133435272Y-108095969D01*
X133459670Y-108091116D01*
X133484068Y-108095969D01*
G37*
G36*
X136296252Y-107608121D02*
G01*
X136316529Y-107621670D01*
X136320708Y-107625849D01*
X136400737Y-107705877D01*
X136400739Y-107705880D01*
X136404917Y-107710058D01*
X136418466Y-107730335D01*
X136423223Y-107754252D01*
X136418466Y-107778169D01*
X136404917Y-107798446D01*
X135874587Y-108328776D01*
X135854310Y-108342325D01*
X135830393Y-108347082D01*
X135806476Y-108342325D01*
X135786199Y-108328776D01*
X135743894Y-108286471D01*
X135701990Y-108244568D01*
X135701987Y-108244564D01*
X135697811Y-108240388D01*
X135684262Y-108220111D01*
X135679505Y-108196194D01*
X135684262Y-108172277D01*
X135697811Y-108152000D01*
X135962976Y-107886835D01*
X136223963Y-107625847D01*
X136223966Y-107625844D01*
X136228141Y-107621670D01*
X136248418Y-107608121D01*
X136272335Y-107603364D01*
X136296252Y-107608121D01*
G37*
G36*
X136826582Y-107608121D02*
G01*
X136846859Y-107621670D01*
X137377189Y-108152000D01*
X137390738Y-108172277D01*
X137395495Y-108196194D01*
X137390738Y-108220111D01*
X137377189Y-108240388D01*
X137288801Y-108328776D01*
X137268524Y-108342325D01*
X137244607Y-108347082D01*
X137220690Y-108342325D01*
X137200413Y-108328776D01*
X136670083Y-107798446D01*
X136656534Y-107778169D01*
X136651777Y-107754252D01*
X136656534Y-107730335D01*
X136670083Y-107710058D01*
X136674259Y-107705881D01*
X136674262Y-107705878D01*
X136754290Y-107625849D01*
X136754296Y-107625844D01*
X136758471Y-107621670D01*
X136778748Y-107608121D01*
X136802665Y-107603364D01*
X136826582Y-107608121D01*
G37*
G36*
X127596742Y-106346601D02*
G01*
X127750687Y-106410367D01*
X127889234Y-106502941D01*
X128007059Y-106620766D01*
X128099633Y-106759313D01*
X128163399Y-106913258D01*
X128195907Y-107076685D01*
X128195907Y-107243315D01*
X128163399Y-107406742D01*
X128099633Y-107560687D01*
X128007059Y-107699234D01*
X127889234Y-107817059D01*
X127750687Y-107909633D01*
X127596742Y-107973399D01*
X127433315Y-108005907D01*
X127266685Y-108005907D01*
X127103258Y-107973399D01*
X126949313Y-107909633D01*
X126810766Y-107817059D01*
X126692941Y-107699234D01*
X126600367Y-107560687D01*
X126536601Y-107406742D01*
X126504093Y-107243315D01*
X126504093Y-107076685D01*
X126536601Y-106913258D01*
X126600367Y-106759313D01*
X126692941Y-106620766D01*
X126810766Y-106502941D01*
X126949313Y-106410367D01*
X127103258Y-106346601D01*
X127266685Y-106314093D01*
X127433315Y-106314093D01*
X127596742Y-106346601D01*
G37*
G36*
X135942699Y-107254568D02*
G01*
X135962976Y-107268117D01*
X135967155Y-107272296D01*
X136047184Y-107352324D01*
X136047186Y-107352327D01*
X136051364Y-107356505D01*
X136064913Y-107376782D01*
X136069670Y-107400699D01*
X136064913Y-107424616D01*
X136051364Y-107444893D01*
X135521034Y-107975223D01*
X135500757Y-107988772D01*
X135476840Y-107993529D01*
X135452923Y-107988772D01*
X135432646Y-107975223D01*
X135428466Y-107971043D01*
X135348437Y-107891015D01*
X135348434Y-107891011D01*
X135344258Y-107886835D01*
X135330709Y-107866558D01*
X135325952Y-107842641D01*
X135330709Y-107818724D01*
X135344258Y-107798447D01*
X135605245Y-107537460D01*
X135870410Y-107272294D01*
X135870413Y-107272291D01*
X135874588Y-107268117D01*
X135894865Y-107254568D01*
X135918782Y-107249811D01*
X135942699Y-107254568D01*
G37*
G36*
X137180135Y-107254568D02*
G01*
X137200412Y-107268117D01*
X137730742Y-107798447D01*
X137744291Y-107818724D01*
X137749048Y-107842641D01*
X137744291Y-107866558D01*
X137730742Y-107886835D01*
X137642354Y-107975223D01*
X137622077Y-107988772D01*
X137598160Y-107993529D01*
X137574243Y-107988772D01*
X137553966Y-107975223D01*
X137023636Y-107444893D01*
X137010087Y-107424616D01*
X137005330Y-107400699D01*
X137010087Y-107376782D01*
X137023636Y-107356505D01*
X137027812Y-107352328D01*
X137027815Y-107352325D01*
X137107843Y-107272296D01*
X137107849Y-107272291D01*
X137112024Y-107268117D01*
X137132301Y-107254568D01*
X137156218Y-107249811D01*
X137180135Y-107254568D01*
G37*
G36*
X145471742Y-106266601D02*
G01*
X145625687Y-106330367D01*
X145764234Y-106422941D01*
X145882059Y-106540766D01*
X145974633Y-106679313D01*
X146038399Y-106833258D01*
X146070907Y-106996685D01*
X146070907Y-107163315D01*
X146038399Y-107326742D01*
X145974633Y-107480687D01*
X145882059Y-107619234D01*
X145764234Y-107737059D01*
X145625687Y-107829633D01*
X145471742Y-107893399D01*
X145308315Y-107925907D01*
X145141685Y-107925907D01*
X144978258Y-107893399D01*
X144824313Y-107829633D01*
X144685766Y-107737059D01*
X144567941Y-107619234D01*
X144475367Y-107480687D01*
X144411601Y-107326742D01*
X144379093Y-107163315D01*
X144379093Y-106996685D01*
X144411601Y-106833258D01*
X144475367Y-106679313D01*
X144567941Y-106540766D01*
X144685766Y-106422941D01*
X144824313Y-106330367D01*
X144978258Y-106266601D01*
X145141685Y-106234093D01*
X145308315Y-106234093D01*
X145471742Y-106266601D01*
G37*
G36*
X135589145Y-106901014D02*
G01*
X135609422Y-106914563D01*
X135613601Y-106918742D01*
X135693630Y-106998770D01*
X135693632Y-106998773D01*
X135697810Y-107002951D01*
X135711359Y-107023228D01*
X135716116Y-107047145D01*
X135711359Y-107071062D01*
X135697810Y-107091339D01*
X135167480Y-107621669D01*
X135147203Y-107635218D01*
X135123286Y-107639975D01*
X135099369Y-107635218D01*
X135079092Y-107621669D01*
X135060787Y-107603364D01*
X134994883Y-107537461D01*
X134994880Y-107537457D01*
X134990704Y-107533281D01*
X134977155Y-107513004D01*
X134972398Y-107489087D01*
X134977155Y-107465170D01*
X134990704Y-107444893D01*
X135255869Y-107179728D01*
X135516856Y-106918740D01*
X135516859Y-106918737D01*
X135521034Y-106914563D01*
X135541311Y-106901014D01*
X135565228Y-106896257D01*
X135589145Y-106901014D01*
G37*
G36*
X137533689Y-106901014D02*
G01*
X137553966Y-106914563D01*
X138084296Y-107444893D01*
X138097845Y-107465170D01*
X138102602Y-107489087D01*
X138097845Y-107513004D01*
X138084296Y-107533281D01*
X137995908Y-107621669D01*
X137975631Y-107635218D01*
X137951714Y-107639975D01*
X137927797Y-107635218D01*
X137907520Y-107621669D01*
X137377190Y-107091339D01*
X137363641Y-107071062D01*
X137358884Y-107047145D01*
X137363641Y-107023228D01*
X137377190Y-107002951D01*
X137381366Y-106998774D01*
X137381369Y-106998771D01*
X137461397Y-106918742D01*
X137461403Y-106918737D01*
X137465578Y-106914563D01*
X137485855Y-106901014D01*
X137509772Y-106896257D01*
X137533689Y-106901014D01*
G37*
G36*
X140497298Y-103600000D02*
G01*
X136537500Y-107559798D01*
X132577702Y-103600000D01*
X135542892Y-100634810D01*
X136533323Y-99644378D01*
X136533326Y-99644375D01*
X136537500Y-99640202D01*
X140497298Y-103600000D01*
G37*
G36*
X141160704Y-106399993D02*
G01*
X141177460Y-106399993D01*
X141195143Y-106406843D01*
X141222410Y-106412267D01*
X141240712Y-106424496D01*
X141256197Y-106430495D01*
X141291275Y-106458281D01*
X141295405Y-106461041D01*
X141648959Y-106814595D01*
X141651710Y-106818713D01*
X141679503Y-106853800D01*
X141685502Y-106869285D01*
X141697733Y-106887590D01*
X141703156Y-106914856D01*
X141710007Y-106932539D01*
X141710007Y-106949296D01*
X141714860Y-106973694D01*
X141710007Y-106998091D01*
X141710007Y-107014847D01*
X141703156Y-107032528D01*
X141697733Y-107059797D01*
X141685501Y-107078103D01*
X141679504Y-107093584D01*
X141651727Y-107128648D01*
X141648959Y-107132793D01*
X141330761Y-107450991D01*
X141326630Y-107453751D01*
X141291554Y-107481535D01*
X141276071Y-107487532D01*
X141257765Y-107499765D01*
X141230496Y-107505189D01*
X141212815Y-107512039D01*
X141196060Y-107512039D01*
X141171662Y-107516892D01*
X141147264Y-107512039D01*
X141130508Y-107512039D01*
X141112825Y-107505188D01*
X141085558Y-107499765D01*
X141067253Y-107487534D01*
X141051770Y-107481536D01*
X141016694Y-107453751D01*
X141012563Y-107450991D01*
X140659009Y-107097437D01*
X140656258Y-107093320D01*
X140628464Y-107058231D01*
X140622464Y-107042745D01*
X140610235Y-107024442D01*
X140604811Y-106997175D01*
X140597961Y-106979492D01*
X140597961Y-106962735D01*
X140593108Y-106938338D01*
X140597961Y-106913940D01*
X140597961Y-106897184D01*
X140604811Y-106879499D01*
X140610235Y-106852235D01*
X140622463Y-106833933D01*
X140628463Y-106818447D01*
X140656249Y-106783368D01*
X140659009Y-106779239D01*
X140977207Y-106461041D01*
X140981323Y-106458290D01*
X141016413Y-106430496D01*
X141031900Y-106424496D01*
X141050203Y-106412267D01*
X141077469Y-106406843D01*
X141095153Y-106399993D01*
X141111908Y-106399993D01*
X141136306Y-106395140D01*
X141160704Y-106399993D01*
G37*
G36*
X135235592Y-106547461D02*
G01*
X135255869Y-106561010D01*
X135260048Y-106565189D01*
X135340077Y-106645217D01*
X135340079Y-106645220D01*
X135344257Y-106649398D01*
X135357806Y-106669675D01*
X135362563Y-106693592D01*
X135357806Y-106717509D01*
X135344257Y-106737786D01*
X134813927Y-107268116D01*
X134793650Y-107281665D01*
X134769733Y-107286422D01*
X134745816Y-107281665D01*
X134725539Y-107268116D01*
X134700709Y-107243286D01*
X134641330Y-107183908D01*
X134641327Y-107183904D01*
X134637151Y-107179728D01*
X134623602Y-107159451D01*
X134618845Y-107135534D01*
X134623602Y-107111617D01*
X134637151Y-107091340D01*
X134902316Y-106826175D01*
X135163303Y-106565187D01*
X135163306Y-106565184D01*
X135167481Y-106561010D01*
X135187758Y-106547461D01*
X135211675Y-106542704D01*
X135235592Y-106547461D01*
G37*
G36*
X137887242Y-106547461D02*
G01*
X137907519Y-106561010D01*
X138437849Y-107091340D01*
X138451398Y-107111617D01*
X138456155Y-107135534D01*
X138451398Y-107159451D01*
X138437849Y-107179728D01*
X138349461Y-107268116D01*
X138329184Y-107281665D01*
X138305267Y-107286422D01*
X138281350Y-107281665D01*
X138261073Y-107268116D01*
X137730743Y-106737786D01*
X137717194Y-106717509D01*
X137712437Y-106693592D01*
X137717194Y-106669675D01*
X137730743Y-106649398D01*
X137734919Y-106645221D01*
X137734922Y-106645218D01*
X137814950Y-106565189D01*
X137814956Y-106565184D01*
X137819131Y-106561010D01*
X137839408Y-106547461D01*
X137863325Y-106542704D01*
X137887242Y-106547461D01*
G37*
G36*
X134882039Y-106193908D02*
G01*
X134902316Y-106207457D01*
X134906495Y-106211636D01*
X134986524Y-106291664D01*
X134986526Y-106291667D01*
X134990704Y-106295845D01*
X135004253Y-106316122D01*
X135009010Y-106340039D01*
X135004253Y-106363956D01*
X134990704Y-106384233D01*
X134460374Y-106914563D01*
X134440097Y-106928112D01*
X134416180Y-106932869D01*
X134392263Y-106928112D01*
X134371986Y-106914563D01*
X134345013Y-106887590D01*
X134287777Y-106830355D01*
X134287774Y-106830351D01*
X134283598Y-106826175D01*
X134270049Y-106805898D01*
X134265292Y-106781981D01*
X134270049Y-106758064D01*
X134283598Y-106737787D01*
X134544585Y-106476800D01*
X134809750Y-106211634D01*
X134809753Y-106211631D01*
X134813928Y-106207457D01*
X134834205Y-106193908D01*
X134858122Y-106189151D01*
X134882039Y-106193908D01*
G37*
G36*
X138240795Y-106193908D02*
G01*
X138261072Y-106207457D01*
X138791402Y-106737787D01*
X138804951Y-106758064D01*
X138809708Y-106781981D01*
X138804951Y-106805898D01*
X138791402Y-106826175D01*
X138703014Y-106914563D01*
X138682737Y-106928112D01*
X138658820Y-106932869D01*
X138634903Y-106928112D01*
X138614626Y-106914563D01*
X138084296Y-106384233D01*
X138070747Y-106363956D01*
X138065990Y-106340039D01*
X138070747Y-106316122D01*
X138084296Y-106295845D01*
X138088472Y-106291668D01*
X138088475Y-106291665D01*
X138168503Y-106211636D01*
X138168509Y-106211631D01*
X138172684Y-106207457D01*
X138192961Y-106193908D01*
X138216878Y-106189151D01*
X138240795Y-106193908D01*
G37*
G36*
X134528485Y-105840354D02*
G01*
X134548762Y-105853903D01*
X134552941Y-105858082D01*
X134632970Y-105938110D01*
X134632972Y-105938113D01*
X134637150Y-105942291D01*
X134650699Y-105962568D01*
X134655456Y-105986485D01*
X134650699Y-106010402D01*
X134637150Y-106030679D01*
X134106820Y-106561009D01*
X134086543Y-106574558D01*
X134062626Y-106579315D01*
X134038709Y-106574558D01*
X134018432Y-106561009D01*
X133998189Y-106540766D01*
X133934223Y-106476801D01*
X133934220Y-106476797D01*
X133930044Y-106472621D01*
X133916495Y-106452344D01*
X133911738Y-106428427D01*
X133916495Y-106404510D01*
X133930044Y-106384233D01*
X134195209Y-106119068D01*
X134456196Y-105858080D01*
X134456199Y-105858077D01*
X134460374Y-105853903D01*
X134480651Y-105840354D01*
X134504568Y-105835597D01*
X134528485Y-105840354D01*
G37*
G36*
X138594349Y-105840354D02*
G01*
X138614626Y-105853903D01*
X139144956Y-106384233D01*
X139158505Y-106404510D01*
X139163262Y-106428427D01*
X139158505Y-106452344D01*
X139144956Y-106472621D01*
X139056568Y-106561009D01*
X139036291Y-106574558D01*
X139012374Y-106579315D01*
X138988457Y-106574558D01*
X138968180Y-106561009D01*
X138437850Y-106030679D01*
X138424301Y-106010402D01*
X138419544Y-105986485D01*
X138424301Y-105962568D01*
X138437850Y-105942291D01*
X138442026Y-105938114D01*
X138442029Y-105938111D01*
X138522057Y-105858082D01*
X138522063Y-105858077D01*
X138526238Y-105853903D01*
X138546515Y-105840354D01*
X138570432Y-105835597D01*
X138594349Y-105840354D01*
G37*
G36*
X142256720Y-105303977D02*
G01*
X142273476Y-105303977D01*
X142291159Y-105310827D01*
X142318426Y-105316251D01*
X142336728Y-105328480D01*
X142352213Y-105334479D01*
X142387291Y-105362265D01*
X142391421Y-105365025D01*
X142744975Y-105718579D01*
X142747726Y-105722697D01*
X142775519Y-105757784D01*
X142781518Y-105773269D01*
X142793749Y-105791574D01*
X142799172Y-105818840D01*
X142806023Y-105836523D01*
X142806023Y-105853280D01*
X142810876Y-105877678D01*
X142806023Y-105902075D01*
X142806023Y-105918831D01*
X142799172Y-105936512D01*
X142793749Y-105963781D01*
X142781517Y-105982087D01*
X142775520Y-105997568D01*
X142747743Y-106032632D01*
X142744975Y-106036777D01*
X142426777Y-106354975D01*
X142422646Y-106357735D01*
X142387570Y-106385519D01*
X142372087Y-106391516D01*
X142353781Y-106403749D01*
X142326512Y-106409173D01*
X142308831Y-106416023D01*
X142292076Y-106416023D01*
X142267678Y-106420876D01*
X142243280Y-106416023D01*
X142226524Y-106416023D01*
X142208841Y-106409172D01*
X142181574Y-106403749D01*
X142163269Y-106391518D01*
X142147786Y-106385520D01*
X142112710Y-106357735D01*
X142108579Y-106354975D01*
X141755025Y-106001421D01*
X141752274Y-105997304D01*
X141724480Y-105962215D01*
X141718480Y-105946729D01*
X141706251Y-105928426D01*
X141700827Y-105901159D01*
X141693977Y-105883476D01*
X141693977Y-105866719D01*
X141689124Y-105842322D01*
X141693977Y-105817924D01*
X141693977Y-105801168D01*
X141700827Y-105783483D01*
X141706251Y-105756219D01*
X141718479Y-105737917D01*
X141724479Y-105722431D01*
X141752265Y-105687352D01*
X141755025Y-105683223D01*
X142073223Y-105365025D01*
X142077339Y-105362274D01*
X142112429Y-105334480D01*
X142127916Y-105328480D01*
X142146219Y-105316251D01*
X142173485Y-105310827D01*
X142191169Y-105303977D01*
X142207924Y-105303977D01*
X142232322Y-105299124D01*
X142256720Y-105303977D01*
G37*
G36*
X134174932Y-105486801D02*
G01*
X134195209Y-105500350D01*
X134199388Y-105504529D01*
X134279417Y-105584557D01*
X134279419Y-105584560D01*
X134283597Y-105588738D01*
X134297146Y-105609015D01*
X134301903Y-105632932D01*
X134297146Y-105656849D01*
X134283597Y-105677126D01*
X133753267Y-106207456D01*
X133732990Y-106221005D01*
X133709073Y-106225762D01*
X133685156Y-106221005D01*
X133664879Y-106207456D01*
X133646574Y-106189151D01*
X133580670Y-106123248D01*
X133580667Y-106123244D01*
X133576491Y-106119068D01*
X133562942Y-106098791D01*
X133558185Y-106074874D01*
X133562942Y-106050957D01*
X133576491Y-106030680D01*
X133837478Y-105769693D01*
X134102643Y-105504527D01*
X134102646Y-105504524D01*
X134106821Y-105500350D01*
X134127098Y-105486801D01*
X134151015Y-105482044D01*
X134174932Y-105486801D01*
G37*
G36*
X138947902Y-105486801D02*
G01*
X138968179Y-105500350D01*
X139498509Y-106030680D01*
X139512058Y-106050957D01*
X139516815Y-106074874D01*
X139512058Y-106098791D01*
X139498509Y-106119068D01*
X139410121Y-106207456D01*
X139389844Y-106221005D01*
X139365927Y-106225762D01*
X139342010Y-106221005D01*
X139321733Y-106207456D01*
X138791403Y-105677126D01*
X138777854Y-105656849D01*
X138773097Y-105632932D01*
X138777854Y-105609015D01*
X138791403Y-105588738D01*
X138795579Y-105584561D01*
X138795582Y-105584558D01*
X138875610Y-105504529D01*
X138875616Y-105504524D01*
X138879791Y-105500350D01*
X138900068Y-105486801D01*
X138923985Y-105482044D01*
X138947902Y-105486801D01*
G37*
G36*
X133821378Y-105133247D02*
G01*
X133841655Y-105146796D01*
X133845834Y-105150975D01*
X133925863Y-105231003D01*
X133925865Y-105231006D01*
X133930043Y-105235184D01*
X133943592Y-105255461D01*
X133948349Y-105279378D01*
X133943592Y-105303295D01*
X133930043Y-105323572D01*
X133399713Y-105853902D01*
X133379436Y-105867451D01*
X133355519Y-105872208D01*
X133331602Y-105867451D01*
X133311325Y-105853902D01*
X133293020Y-105835597D01*
X133227116Y-105769694D01*
X133227113Y-105769690D01*
X133222937Y-105765514D01*
X133209388Y-105745237D01*
X133204631Y-105721320D01*
X133209388Y-105697403D01*
X133222937Y-105677126D01*
X133488102Y-105411961D01*
X133749089Y-105150973D01*
X133749092Y-105150970D01*
X133753267Y-105146796D01*
X133773544Y-105133247D01*
X133797461Y-105128490D01*
X133821378Y-105133247D01*
G37*
G36*
X139301456Y-105133247D02*
G01*
X139321733Y-105146796D01*
X139852063Y-105677126D01*
X139865612Y-105697403D01*
X139870369Y-105721320D01*
X139865612Y-105745237D01*
X139852063Y-105765514D01*
X139763675Y-105853902D01*
X139743398Y-105867451D01*
X139719481Y-105872208D01*
X139695564Y-105867451D01*
X139675287Y-105853902D01*
X139144957Y-105323572D01*
X139131408Y-105303295D01*
X139126651Y-105279378D01*
X139131408Y-105255461D01*
X139144957Y-105235184D01*
X139149133Y-105231007D01*
X139149136Y-105231004D01*
X139229164Y-105150975D01*
X139229170Y-105150970D01*
X139233345Y-105146796D01*
X139253622Y-105133247D01*
X139277539Y-105128490D01*
X139301456Y-105133247D01*
G37*
G36*
X133467825Y-104779694D02*
G01*
X133488102Y-104793243D01*
X133492281Y-104797422D01*
X133572310Y-104877450D01*
X133572312Y-104877453D01*
X133576490Y-104881631D01*
X133590039Y-104901908D01*
X133594796Y-104925825D01*
X133590039Y-104949742D01*
X133576490Y-104970019D01*
X133046160Y-105500349D01*
X133025883Y-105513898D01*
X133001966Y-105518655D01*
X132978049Y-105513898D01*
X132957772Y-105500349D01*
X132923041Y-105465618D01*
X132873563Y-105416141D01*
X132873560Y-105416137D01*
X132869384Y-105411961D01*
X132855835Y-105391684D01*
X132851078Y-105367767D01*
X132855835Y-105343850D01*
X132869384Y-105323573D01*
X133134549Y-105058408D01*
X133395536Y-104797420D01*
X133395539Y-104797417D01*
X133399714Y-104793243D01*
X133419991Y-104779694D01*
X133443908Y-104774937D01*
X133467825Y-104779694D01*
G37*
G36*
X139655009Y-104779694D02*
G01*
X139675286Y-104793243D01*
X140205616Y-105323573D01*
X140219165Y-105343850D01*
X140223922Y-105367767D01*
X140219165Y-105391684D01*
X140205616Y-105411961D01*
X140117228Y-105500349D01*
X140096951Y-105513898D01*
X140073034Y-105518655D01*
X140049117Y-105513898D01*
X140028840Y-105500349D01*
X139498510Y-104970019D01*
X139484961Y-104949742D01*
X139480204Y-104925825D01*
X139484961Y-104901908D01*
X139498510Y-104881631D01*
X139502686Y-104877454D01*
X139502689Y-104877451D01*
X139582717Y-104797422D01*
X139582723Y-104797417D01*
X139586898Y-104793243D01*
X139607175Y-104779694D01*
X139631092Y-104774937D01*
X139655009Y-104779694D01*
G37*
G36*
X127596742Y-103806601D02*
G01*
X127750687Y-103870367D01*
X127889234Y-103962941D01*
X128007059Y-104080766D01*
X128099633Y-104219313D01*
X128163399Y-104373258D01*
X128195907Y-104536685D01*
X128195907Y-104703315D01*
X128163399Y-104866742D01*
X128099633Y-105020687D01*
X128007059Y-105159234D01*
X127889234Y-105277059D01*
X127750687Y-105369633D01*
X127596742Y-105433399D01*
X127433315Y-105465907D01*
X127266685Y-105465907D01*
X127103258Y-105433399D01*
X126949313Y-105369633D01*
X126810766Y-105277059D01*
X126692941Y-105159234D01*
X126600367Y-105020687D01*
X126536601Y-104866742D01*
X126504093Y-104703315D01*
X126504093Y-104536685D01*
X126536601Y-104373258D01*
X126600367Y-104219313D01*
X126692941Y-104080766D01*
X126810766Y-103962941D01*
X126949313Y-103870367D01*
X127103258Y-103806601D01*
X127266685Y-103774093D01*
X127433315Y-103774093D01*
X127596742Y-103806601D01*
G37*
G36*
X145471742Y-103726601D02*
G01*
X145625687Y-103790367D01*
X145764234Y-103882941D01*
X145882059Y-104000766D01*
X145974633Y-104139313D01*
X146038399Y-104293258D01*
X146070907Y-104456685D01*
X146070907Y-104623315D01*
X146038399Y-104786742D01*
X145974633Y-104940687D01*
X145882059Y-105079234D01*
X145764234Y-105197059D01*
X145625687Y-105289633D01*
X145471742Y-105353399D01*
X145308315Y-105385907D01*
X145141685Y-105385907D01*
X144978258Y-105353399D01*
X144824313Y-105289633D01*
X144685766Y-105197059D01*
X144567941Y-105079234D01*
X144475367Y-104940687D01*
X144411601Y-104786742D01*
X144379093Y-104623315D01*
X144379093Y-104456685D01*
X144411601Y-104293258D01*
X144475367Y-104139313D01*
X144567941Y-104000766D01*
X144685766Y-103882941D01*
X144824313Y-103790367D01*
X144978258Y-103726601D01*
X145141685Y-103694093D01*
X145308315Y-103694093D01*
X145471742Y-103726601D01*
G37*
G36*
X133114272Y-104426141D02*
G01*
X133134549Y-104439690D01*
X133138728Y-104443869D01*
X133218757Y-104523897D01*
X133218759Y-104523900D01*
X133222937Y-104528078D01*
X133236486Y-104548355D01*
X133241243Y-104572272D01*
X133236486Y-104596189D01*
X133222937Y-104616466D01*
X132692607Y-105146796D01*
X132672330Y-105160345D01*
X132648413Y-105165102D01*
X132624496Y-105160345D01*
X132604219Y-105146796D01*
X132585913Y-105128490D01*
X132520010Y-105062588D01*
X132520007Y-105062584D01*
X132515831Y-105058408D01*
X132502282Y-105038131D01*
X132497525Y-105014214D01*
X132502282Y-104990297D01*
X132515831Y-104970020D01*
X132776818Y-104709033D01*
X133041983Y-104443867D01*
X133041986Y-104443864D01*
X133046161Y-104439690D01*
X133066438Y-104426141D01*
X133090355Y-104421384D01*
X133114272Y-104426141D01*
G37*
G36*
X140008562Y-104426141D02*
G01*
X140028839Y-104439690D01*
X140559169Y-104970020D01*
X140572718Y-104990297D01*
X140577475Y-105014214D01*
X140572718Y-105038131D01*
X140559169Y-105058408D01*
X140470781Y-105146796D01*
X140450504Y-105160345D01*
X140426587Y-105165102D01*
X140402670Y-105160345D01*
X140382393Y-105146796D01*
X139852063Y-104616466D01*
X139838514Y-104596189D01*
X139833757Y-104572272D01*
X139838514Y-104548355D01*
X139852063Y-104528078D01*
X139856239Y-104523901D01*
X139856242Y-104523898D01*
X139936270Y-104443869D01*
X139936276Y-104443864D01*
X139940451Y-104439690D01*
X139960728Y-104426141D01*
X139984645Y-104421384D01*
X140008562Y-104426141D01*
G37*
G36*
X132760718Y-104072587D02*
G01*
X132780995Y-104086136D01*
X132785174Y-104090315D01*
X132865203Y-104170343D01*
X132865205Y-104170346D01*
X132869383Y-104174524D01*
X132882932Y-104194801D01*
X132887689Y-104218718D01*
X132882932Y-104242635D01*
X132869383Y-104262912D01*
X132339053Y-104793242D01*
X132318776Y-104806791D01*
X132294859Y-104811548D01*
X132270942Y-104806791D01*
X132250665Y-104793242D01*
X132232360Y-104774937D01*
X132166456Y-104709034D01*
X132166453Y-104709030D01*
X132162277Y-104704854D01*
X132148728Y-104684577D01*
X132143971Y-104660660D01*
X132148728Y-104636743D01*
X132162277Y-104616466D01*
X132427442Y-104351301D01*
X132688429Y-104090313D01*
X132688432Y-104090310D01*
X132692607Y-104086136D01*
X132712884Y-104072587D01*
X132736801Y-104067830D01*
X132760718Y-104072587D01*
G37*
G36*
X140362116Y-104072587D02*
G01*
X140382393Y-104086136D01*
X140912723Y-104616466D01*
X140926272Y-104636743D01*
X140931029Y-104660660D01*
X140926272Y-104684577D01*
X140912723Y-104704854D01*
X140824335Y-104793242D01*
X140804058Y-104806791D01*
X140780141Y-104811548D01*
X140756224Y-104806791D01*
X140735947Y-104793242D01*
X140205617Y-104262912D01*
X140192068Y-104242635D01*
X140187311Y-104218718D01*
X140192068Y-104194801D01*
X140205617Y-104174524D01*
X140209793Y-104170347D01*
X140209796Y-104170344D01*
X140289824Y-104090315D01*
X140289830Y-104090310D01*
X140294005Y-104086136D01*
X140314282Y-104072587D01*
X140338199Y-104067830D01*
X140362116Y-104072587D01*
G37*
G36*
X132407165Y-103719034D02*
G01*
X132427442Y-103732583D01*
X132431621Y-103736762D01*
X132511650Y-103816790D01*
X132511652Y-103816793D01*
X132515830Y-103820971D01*
X132529379Y-103841248D01*
X132534136Y-103865165D01*
X132529379Y-103889082D01*
X132515830Y-103909359D01*
X131985500Y-104439689D01*
X131965223Y-104453238D01*
X131941306Y-104457995D01*
X131917389Y-104453238D01*
X131897112Y-104439689D01*
X131878807Y-104421384D01*
X131812903Y-104355481D01*
X131812900Y-104355477D01*
X131808724Y-104351301D01*
X131795175Y-104331024D01*
X131790418Y-104307107D01*
X131795175Y-104283190D01*
X131808724Y-104262913D01*
X132070871Y-104000766D01*
X132334876Y-103736760D01*
X132334879Y-103736757D01*
X132339054Y-103732583D01*
X132359331Y-103719034D01*
X132383248Y-103714277D01*
X132407165Y-103719034D01*
G37*
G36*
X140715669Y-103719034D02*
G01*
X140735946Y-103732583D01*
X141266276Y-104262913D01*
X141279825Y-104283190D01*
X141284582Y-104307107D01*
X141279825Y-104331024D01*
X141266276Y-104351301D01*
X141177888Y-104439689D01*
X141157611Y-104453238D01*
X141133694Y-104457995D01*
X141109777Y-104453238D01*
X141089500Y-104439689D01*
X140559170Y-103909359D01*
X140545621Y-103889082D01*
X140540864Y-103865165D01*
X140545621Y-103841248D01*
X140559170Y-103820971D01*
X140563346Y-103816794D01*
X140563349Y-103816791D01*
X140643377Y-103736762D01*
X140643383Y-103736757D01*
X140647558Y-103732583D01*
X140667835Y-103719034D01*
X140691752Y-103714277D01*
X140715669Y-103719034D01*
G37*
G36*
X131965223Y-102746762D02*
G01*
X131985500Y-102760311D01*
X132515830Y-103290641D01*
X132529379Y-103310918D01*
X132534136Y-103334835D01*
X132529379Y-103358752D01*
X132515830Y-103379029D01*
X132427442Y-103467417D01*
X132407165Y-103480966D01*
X132383248Y-103485723D01*
X132359331Y-103480966D01*
X132339054Y-103467417D01*
X131808724Y-102937087D01*
X131795175Y-102916810D01*
X131790418Y-102892893D01*
X131795175Y-102868976D01*
X131808724Y-102848699D01*
X131812900Y-102844522D01*
X131812903Y-102844519D01*
X131892931Y-102764490D01*
X131892937Y-102764485D01*
X131897112Y-102760311D01*
X131917389Y-102746762D01*
X131941306Y-102742005D01*
X131965223Y-102746762D01*
G37*
G36*
X141157611Y-102746762D02*
G01*
X141177888Y-102760311D01*
X141182067Y-102764490D01*
X141262096Y-102844518D01*
X141262098Y-102844521D01*
X141266276Y-102848699D01*
X141279825Y-102868976D01*
X141284582Y-102892893D01*
X141279825Y-102916810D01*
X141266276Y-102937087D01*
X140735946Y-103467417D01*
X140715669Y-103480966D01*
X140691752Y-103485723D01*
X140667835Y-103480966D01*
X140647558Y-103467417D01*
X140643378Y-103463237D01*
X140563349Y-103383209D01*
X140563346Y-103383205D01*
X140559170Y-103379029D01*
X140545621Y-103358752D01*
X140540864Y-103334835D01*
X140545621Y-103310918D01*
X140559170Y-103290641D01*
X140824335Y-103025476D01*
X141085322Y-102764488D01*
X141085325Y-102764485D01*
X141089500Y-102760311D01*
X141109777Y-102746762D01*
X141133694Y-102742005D01*
X141157611Y-102746762D01*
G37*
G36*
X132318776Y-102393209D02*
G01*
X132339053Y-102406758D01*
X132869383Y-102937088D01*
X132882932Y-102957365D01*
X132887689Y-102981282D01*
X132882932Y-103005199D01*
X132869383Y-103025476D01*
X132780995Y-103113864D01*
X132760718Y-103127413D01*
X132736801Y-103132170D01*
X132712884Y-103127413D01*
X132692607Y-103113864D01*
X132162277Y-102583534D01*
X132148728Y-102563257D01*
X132143971Y-102539340D01*
X132148728Y-102515423D01*
X132162277Y-102495146D01*
X132166453Y-102490969D01*
X132166456Y-102490966D01*
X132246484Y-102410937D01*
X132246490Y-102410932D01*
X132250665Y-102406758D01*
X132270942Y-102393209D01*
X132294859Y-102388452D01*
X132318776Y-102393209D01*
G37*
G36*
X140804058Y-102393209D02*
G01*
X140824335Y-102406758D01*
X140828514Y-102410937D01*
X140908543Y-102490965D01*
X140908545Y-102490968D01*
X140912723Y-102495146D01*
X140926272Y-102515423D01*
X140931029Y-102539340D01*
X140926272Y-102563257D01*
X140912723Y-102583534D01*
X140382393Y-103113864D01*
X140362116Y-103127413D01*
X140338199Y-103132170D01*
X140314282Y-103127413D01*
X140294005Y-103113864D01*
X140289825Y-103109684D01*
X140209796Y-103029656D01*
X140209793Y-103029652D01*
X140205617Y-103025476D01*
X140192068Y-103005199D01*
X140187311Y-102981282D01*
X140192068Y-102957365D01*
X140205617Y-102937088D01*
X140466604Y-102676101D01*
X140731769Y-102410935D01*
X140731772Y-102410932D01*
X140735947Y-102406758D01*
X140756224Y-102393209D01*
X140780141Y-102388452D01*
X140804058Y-102393209D01*
G37*
G36*
X127596742Y-101266601D02*
G01*
X127750687Y-101330367D01*
X127889234Y-101422941D01*
X128007059Y-101540766D01*
X128099633Y-101679313D01*
X128163399Y-101833258D01*
X128195907Y-101996685D01*
X128195907Y-102163315D01*
X128163399Y-102326742D01*
X128099633Y-102480687D01*
X128007059Y-102619234D01*
X127889234Y-102737059D01*
X127750687Y-102829633D01*
X127596742Y-102893399D01*
X127433315Y-102925907D01*
X127266685Y-102925907D01*
X127103258Y-102893399D01*
X126949313Y-102829633D01*
X126810766Y-102737059D01*
X126692941Y-102619234D01*
X126600367Y-102480687D01*
X126536601Y-102326742D01*
X126504093Y-102163315D01*
X126504093Y-101996685D01*
X126536601Y-101833258D01*
X126600367Y-101679313D01*
X126692941Y-101540766D01*
X126810766Y-101422941D01*
X126949313Y-101330367D01*
X127103258Y-101266601D01*
X127266685Y-101234093D01*
X127433315Y-101234093D01*
X127596742Y-101266601D01*
G37*
G36*
X145471742Y-101186601D02*
G01*
X145625687Y-101250367D01*
X145764234Y-101342941D01*
X145882059Y-101460766D01*
X145974633Y-101599313D01*
X146038399Y-101753258D01*
X146070907Y-101916685D01*
X146070907Y-102083315D01*
X146038399Y-102246742D01*
X145974633Y-102400687D01*
X145882059Y-102539234D01*
X145764234Y-102657059D01*
X145625687Y-102749633D01*
X145471742Y-102813399D01*
X145308315Y-102845907D01*
X145141685Y-102845907D01*
X144978258Y-102813399D01*
X144824313Y-102749633D01*
X144685766Y-102657059D01*
X144567941Y-102539234D01*
X144475367Y-102400687D01*
X144411601Y-102246742D01*
X144379093Y-102083315D01*
X144379093Y-101916685D01*
X144411601Y-101753258D01*
X144475367Y-101599313D01*
X144567941Y-101460766D01*
X144685766Y-101342941D01*
X144824313Y-101250367D01*
X144978258Y-101186601D01*
X145141685Y-101154093D01*
X145308315Y-101154093D01*
X145471742Y-101186601D01*
G37*
G36*
X132672330Y-102039655D02*
G01*
X132692607Y-102053204D01*
X133222937Y-102583534D01*
X133236486Y-102603811D01*
X133241243Y-102627728D01*
X133236486Y-102651645D01*
X133222937Y-102671922D01*
X133134549Y-102760310D01*
X133114272Y-102773859D01*
X133090355Y-102778616D01*
X133066438Y-102773859D01*
X133046161Y-102760310D01*
X132515831Y-102229980D01*
X132502282Y-102209703D01*
X132497525Y-102185786D01*
X132502282Y-102161869D01*
X132515831Y-102141592D01*
X132520007Y-102137415D01*
X132520010Y-102137412D01*
X132600038Y-102057383D01*
X132600044Y-102057378D01*
X132604219Y-102053204D01*
X132624496Y-102039655D01*
X132648413Y-102034898D01*
X132672330Y-102039655D01*
G37*
G36*
X140450504Y-102039655D02*
G01*
X140470781Y-102053204D01*
X140474960Y-102057383D01*
X140554989Y-102137411D01*
X140554991Y-102137414D01*
X140559169Y-102141592D01*
X140572718Y-102161869D01*
X140577475Y-102185786D01*
X140572718Y-102209703D01*
X140559169Y-102229980D01*
X140028839Y-102760310D01*
X140008562Y-102773859D01*
X139984645Y-102778616D01*
X139960728Y-102773859D01*
X139940451Y-102760310D01*
X139916977Y-102736836D01*
X139856242Y-102676102D01*
X139856239Y-102676098D01*
X139852063Y-102671922D01*
X139838514Y-102651645D01*
X139833757Y-102627728D01*
X139838514Y-102603811D01*
X139852063Y-102583534D01*
X140117228Y-102318369D01*
X140378215Y-102057381D01*
X140378218Y-102057378D01*
X140382393Y-102053204D01*
X140402670Y-102039655D01*
X140426587Y-102034898D01*
X140450504Y-102039655D01*
G37*
G36*
X133025883Y-101686102D02*
G01*
X133046160Y-101699651D01*
X133576490Y-102229981D01*
X133590039Y-102250258D01*
X133594796Y-102274175D01*
X133590039Y-102298092D01*
X133576490Y-102318369D01*
X133488102Y-102406757D01*
X133467825Y-102420306D01*
X133443908Y-102425063D01*
X133419991Y-102420306D01*
X133399714Y-102406757D01*
X132869384Y-101876427D01*
X132855835Y-101856150D01*
X132851078Y-101832233D01*
X132855835Y-101808316D01*
X132869384Y-101788039D01*
X132873560Y-101783862D01*
X132873563Y-101783859D01*
X132953591Y-101703830D01*
X132953597Y-101703825D01*
X132957772Y-101699651D01*
X132978049Y-101686102D01*
X133001966Y-101681345D01*
X133025883Y-101686102D01*
G37*
G36*
X140096951Y-101686102D02*
G01*
X140117228Y-101699651D01*
X140121407Y-101703830D01*
X140201436Y-101783858D01*
X140201438Y-101783861D01*
X140205616Y-101788039D01*
X140219165Y-101808316D01*
X140223922Y-101832233D01*
X140219165Y-101856150D01*
X140205616Y-101876427D01*
X139675286Y-102406757D01*
X139655009Y-102420306D01*
X139631092Y-102425063D01*
X139607175Y-102420306D01*
X139586898Y-102406757D01*
X139568593Y-102388452D01*
X139502689Y-102322549D01*
X139502686Y-102322545D01*
X139498510Y-102318369D01*
X139484961Y-102298092D01*
X139480204Y-102274175D01*
X139484961Y-102250258D01*
X139498510Y-102229981D01*
X139763675Y-101964816D01*
X140024662Y-101703828D01*
X140024665Y-101703825D01*
X140028840Y-101699651D01*
X140049117Y-101686102D01*
X140073034Y-101681345D01*
X140096951Y-101686102D01*
G37*
G36*
X133379436Y-101332549D02*
G01*
X133399713Y-101346098D01*
X133930043Y-101876428D01*
X133943592Y-101896705D01*
X133948349Y-101920622D01*
X133943592Y-101944539D01*
X133930043Y-101964816D01*
X133841655Y-102053204D01*
X133821378Y-102066753D01*
X133797461Y-102071510D01*
X133773544Y-102066753D01*
X133753267Y-102053204D01*
X133222937Y-101522874D01*
X133209388Y-101502597D01*
X133204631Y-101478680D01*
X133209388Y-101454763D01*
X133222937Y-101434486D01*
X133227113Y-101430309D01*
X133227116Y-101430306D01*
X133307144Y-101350277D01*
X133307150Y-101350272D01*
X133311325Y-101346098D01*
X133331602Y-101332549D01*
X133355519Y-101327792D01*
X133379436Y-101332549D01*
G37*
G36*
X139743398Y-101332549D02*
G01*
X139763675Y-101346098D01*
X139767854Y-101350277D01*
X139847883Y-101430305D01*
X139847885Y-101430308D01*
X139852063Y-101434486D01*
X139865612Y-101454763D01*
X139870369Y-101478680D01*
X139865612Y-101502597D01*
X139852063Y-101522874D01*
X139321733Y-102053204D01*
X139301456Y-102066753D01*
X139277539Y-102071510D01*
X139253622Y-102066753D01*
X139233345Y-102053204D01*
X139215039Y-102034898D01*
X139149136Y-101968996D01*
X139149133Y-101968992D01*
X139144957Y-101964816D01*
X139131408Y-101944539D01*
X139126651Y-101920622D01*
X139131408Y-101896705D01*
X139144957Y-101876428D01*
X139405944Y-101615441D01*
X139671109Y-101350275D01*
X139671112Y-101350272D01*
X139675287Y-101346098D01*
X139695564Y-101332549D01*
X139719481Y-101327792D01*
X139743398Y-101332549D01*
G37*
G36*
X130788712Y-100771985D02*
G01*
X130805468Y-100771985D01*
X130823151Y-100778835D01*
X130850418Y-100784259D01*
X130868720Y-100796488D01*
X130884205Y-100802487D01*
X130919283Y-100830273D01*
X130923413Y-100833033D01*
X131276967Y-101186587D01*
X131279718Y-101190705D01*
X131307511Y-101225792D01*
X131313510Y-101241277D01*
X131325741Y-101259582D01*
X131331164Y-101286848D01*
X131338015Y-101304531D01*
X131338015Y-101321288D01*
X131342868Y-101345686D01*
X131338015Y-101370083D01*
X131338015Y-101386839D01*
X131331164Y-101404520D01*
X131325741Y-101431789D01*
X131313509Y-101450095D01*
X131307512Y-101465576D01*
X131279735Y-101500640D01*
X131276967Y-101504785D01*
X130958769Y-101822983D01*
X130954638Y-101825743D01*
X130919562Y-101853527D01*
X130904079Y-101859524D01*
X130885773Y-101871757D01*
X130858504Y-101877181D01*
X130840823Y-101884031D01*
X130824068Y-101884031D01*
X130799670Y-101888884D01*
X130775272Y-101884031D01*
X130758516Y-101884031D01*
X130740833Y-101877180D01*
X130713566Y-101871757D01*
X130695261Y-101859526D01*
X130679778Y-101853528D01*
X130644702Y-101825743D01*
X130640571Y-101822983D01*
X130287017Y-101469429D01*
X130284266Y-101465312D01*
X130256472Y-101430223D01*
X130250472Y-101414737D01*
X130238243Y-101396434D01*
X130232819Y-101369167D01*
X130225969Y-101351484D01*
X130225969Y-101334727D01*
X130221116Y-101310330D01*
X130225969Y-101285932D01*
X130225969Y-101269176D01*
X130232819Y-101251491D01*
X130238243Y-101224227D01*
X130250471Y-101205925D01*
X130256471Y-101190439D01*
X130284257Y-101155360D01*
X130287017Y-101151231D01*
X130605215Y-100833033D01*
X130609331Y-100830282D01*
X130644421Y-100802488D01*
X130659908Y-100796488D01*
X130678211Y-100784259D01*
X130705477Y-100778835D01*
X130723161Y-100771985D01*
X130739916Y-100771985D01*
X130764314Y-100767132D01*
X130788712Y-100771985D01*
G37*
G36*
X133732990Y-100978995D02*
G01*
X133753267Y-100992544D01*
X134283597Y-101522874D01*
X134297146Y-101543151D01*
X134301903Y-101567068D01*
X134297146Y-101590985D01*
X134283597Y-101611262D01*
X134195209Y-101699650D01*
X134174932Y-101713199D01*
X134151015Y-101717956D01*
X134127098Y-101713199D01*
X134106821Y-101699650D01*
X133576491Y-101169320D01*
X133562942Y-101149043D01*
X133558185Y-101125126D01*
X133562942Y-101101209D01*
X133576491Y-101080932D01*
X133580667Y-101076755D01*
X133580670Y-101076752D01*
X133660698Y-100996723D01*
X133660704Y-100996718D01*
X133664879Y-100992544D01*
X133685156Y-100978995D01*
X133709073Y-100974238D01*
X133732990Y-100978995D01*
G37*
G36*
X139389844Y-100978995D02*
G01*
X139410121Y-100992544D01*
X139414300Y-100996723D01*
X139494329Y-101076751D01*
X139494331Y-101076754D01*
X139498509Y-101080932D01*
X139512058Y-101101209D01*
X139516815Y-101125126D01*
X139512058Y-101149043D01*
X139498509Y-101169320D01*
X138968179Y-101699650D01*
X138947902Y-101713199D01*
X138923985Y-101717956D01*
X138900068Y-101713199D01*
X138879791Y-101699650D01*
X138859454Y-101679313D01*
X138795582Y-101615442D01*
X138795579Y-101615438D01*
X138791403Y-101611262D01*
X138777854Y-101590985D01*
X138773097Y-101567068D01*
X138777854Y-101543151D01*
X138791403Y-101522874D01*
X139056568Y-101257709D01*
X139317555Y-100996721D01*
X139317558Y-100996718D01*
X139321733Y-100992544D01*
X139342010Y-100978995D01*
X139365927Y-100974238D01*
X139389844Y-100978995D01*
G37*
G36*
X134086543Y-100625442D02*
G01*
X134106820Y-100638991D01*
X134637150Y-101169321D01*
X134650699Y-101189598D01*
X134655456Y-101213515D01*
X134650699Y-101237432D01*
X134637150Y-101257709D01*
X134548762Y-101346097D01*
X134528485Y-101359646D01*
X134504568Y-101364403D01*
X134480651Y-101359646D01*
X134460374Y-101346097D01*
X133930044Y-100815767D01*
X133916495Y-100795490D01*
X133911738Y-100771573D01*
X133916495Y-100747656D01*
X133930044Y-100727379D01*
X133934220Y-100723202D01*
X133934223Y-100723199D01*
X134014251Y-100643170D01*
X134014257Y-100643165D01*
X134018432Y-100638991D01*
X134038709Y-100625442D01*
X134062626Y-100620685D01*
X134086543Y-100625442D01*
G37*
G36*
X139036291Y-100625442D02*
G01*
X139056568Y-100638991D01*
X139060747Y-100643170D01*
X139140776Y-100723198D01*
X139140778Y-100723201D01*
X139144956Y-100727379D01*
X139158505Y-100747656D01*
X139163262Y-100771573D01*
X139158505Y-100795490D01*
X139144956Y-100815767D01*
X138614626Y-101346097D01*
X138594349Y-101359646D01*
X138570432Y-101364403D01*
X138546515Y-101359646D01*
X138526238Y-101346097D01*
X138484672Y-101304531D01*
X138442029Y-101261889D01*
X138442026Y-101261885D01*
X138437850Y-101257709D01*
X138424301Y-101237432D01*
X138419544Y-101213515D01*
X138424301Y-101189598D01*
X138437850Y-101169321D01*
X138698837Y-100908334D01*
X138964002Y-100643168D01*
X138964005Y-100643165D01*
X138968180Y-100638991D01*
X138988457Y-100625442D01*
X139012374Y-100620685D01*
X139036291Y-100625442D01*
G37*
G36*
X134440097Y-100271888D02*
G01*
X134460374Y-100285437D01*
X134990704Y-100815767D01*
X135004253Y-100836044D01*
X135009010Y-100859961D01*
X135004253Y-100883878D01*
X134990704Y-100904155D01*
X134902316Y-100992543D01*
X134882039Y-101006092D01*
X134858122Y-101010849D01*
X134834205Y-101006092D01*
X134813928Y-100992543D01*
X134283598Y-100462213D01*
X134270049Y-100441936D01*
X134265292Y-100418019D01*
X134270049Y-100394102D01*
X134283598Y-100373825D01*
X134287774Y-100369648D01*
X134287777Y-100369645D01*
X134367805Y-100289616D01*
X134367811Y-100289611D01*
X134371986Y-100285437D01*
X134392263Y-100271888D01*
X134416180Y-100267131D01*
X134440097Y-100271888D01*
G37*
G36*
X138682737Y-100271888D02*
G01*
X138703014Y-100285437D01*
X138707193Y-100289616D01*
X138787222Y-100369644D01*
X138787224Y-100369647D01*
X138791402Y-100373825D01*
X138804951Y-100394102D01*
X138809708Y-100418019D01*
X138804951Y-100441936D01*
X138791402Y-100462213D01*
X138261072Y-100992543D01*
X138240795Y-101006092D01*
X138216878Y-101010849D01*
X138192961Y-101006092D01*
X138172684Y-100992543D01*
X138154379Y-100974238D01*
X138088475Y-100908335D01*
X138088472Y-100908331D01*
X138084296Y-100904155D01*
X138070747Y-100883878D01*
X138065990Y-100859961D01*
X138070747Y-100836044D01*
X138084296Y-100815767D01*
X138349461Y-100550602D01*
X138610448Y-100289614D01*
X138610451Y-100289611D01*
X138614626Y-100285437D01*
X138634903Y-100271888D01*
X138658820Y-100267131D01*
X138682737Y-100271888D01*
G37*
G36*
X131884728Y-99675969D02*
G01*
X131901484Y-99675969D01*
X131919167Y-99682819D01*
X131946434Y-99688243D01*
X131964736Y-99700472D01*
X131980221Y-99706471D01*
X132015299Y-99734257D01*
X132019429Y-99737017D01*
X132372983Y-100090571D01*
X132375734Y-100094689D01*
X132403527Y-100129776D01*
X132409526Y-100145261D01*
X132421757Y-100163566D01*
X132427180Y-100190832D01*
X132434031Y-100208515D01*
X132434031Y-100225272D01*
X132438884Y-100249670D01*
X132434031Y-100274067D01*
X132434031Y-100290823D01*
X132427180Y-100308504D01*
X132421757Y-100335773D01*
X132409525Y-100354079D01*
X132403528Y-100369560D01*
X132375751Y-100404624D01*
X132372983Y-100408769D01*
X132054785Y-100726967D01*
X132050654Y-100729727D01*
X132015578Y-100757511D01*
X132000095Y-100763508D01*
X131981789Y-100775741D01*
X131954520Y-100781165D01*
X131936839Y-100788015D01*
X131920084Y-100788015D01*
X131895686Y-100792868D01*
X131871288Y-100788015D01*
X131854532Y-100788015D01*
X131836849Y-100781164D01*
X131809582Y-100775741D01*
X131791277Y-100763510D01*
X131775794Y-100757512D01*
X131740718Y-100729727D01*
X131736587Y-100726967D01*
X131383033Y-100373413D01*
X131380282Y-100369296D01*
X131352488Y-100334207D01*
X131346488Y-100318721D01*
X131334259Y-100300418D01*
X131328835Y-100273151D01*
X131321985Y-100255468D01*
X131321985Y-100238711D01*
X131317132Y-100214314D01*
X131321985Y-100189916D01*
X131321985Y-100173160D01*
X131328835Y-100155475D01*
X131334259Y-100128211D01*
X131346487Y-100109909D01*
X131352487Y-100094423D01*
X131380273Y-100059344D01*
X131383033Y-100055215D01*
X131701231Y-99737017D01*
X131705347Y-99734266D01*
X131740437Y-99706472D01*
X131755924Y-99700472D01*
X131774227Y-99688243D01*
X131801493Y-99682819D01*
X131819177Y-99675969D01*
X131835932Y-99675969D01*
X131860330Y-99671116D01*
X131884728Y-99675969D01*
G37*
G36*
X134793650Y-99918335D02*
G01*
X134813927Y-99931884D01*
X135344257Y-100462214D01*
X135357806Y-100482491D01*
X135362563Y-100506408D01*
X135357806Y-100530325D01*
X135344257Y-100550602D01*
X135255869Y-100638990D01*
X135235592Y-100652539D01*
X135211675Y-100657296D01*
X135187758Y-100652539D01*
X135167481Y-100638990D01*
X134637151Y-100108660D01*
X134623602Y-100088383D01*
X134618845Y-100064466D01*
X134623602Y-100040549D01*
X134637151Y-100020272D01*
X134641327Y-100016095D01*
X134641330Y-100016092D01*
X134721358Y-99936063D01*
X134721364Y-99936058D01*
X134725539Y-99931884D01*
X134745816Y-99918335D01*
X134769733Y-99913578D01*
X134793650Y-99918335D01*
G37*
G36*
X138329184Y-99918335D02*
G01*
X138349461Y-99931884D01*
X138353640Y-99936063D01*
X138433669Y-100016091D01*
X138433671Y-100016094D01*
X138437849Y-100020272D01*
X138451398Y-100040549D01*
X138456155Y-100064466D01*
X138451398Y-100088383D01*
X138437849Y-100108660D01*
X137907519Y-100638990D01*
X137887242Y-100652539D01*
X137863325Y-100657296D01*
X137839408Y-100652539D01*
X137819131Y-100638990D01*
X137800826Y-100620685D01*
X137734922Y-100554782D01*
X137734919Y-100554778D01*
X137730743Y-100550602D01*
X137717194Y-100530325D01*
X137712437Y-100506408D01*
X137717194Y-100482491D01*
X137730743Y-100462214D01*
X137995908Y-100197049D01*
X138256895Y-99936061D01*
X138256898Y-99936058D01*
X138261073Y-99931884D01*
X138281350Y-99918335D01*
X138305267Y-99913578D01*
X138329184Y-99918335D01*
G37*
G36*
X127596742Y-98726601D02*
G01*
X127750687Y-98790367D01*
X127889234Y-98882941D01*
X128007059Y-99000766D01*
X128099633Y-99139313D01*
X128163399Y-99293258D01*
X128195907Y-99456685D01*
X128195907Y-99623315D01*
X128163399Y-99786742D01*
X128099633Y-99940687D01*
X128007059Y-100079234D01*
X127889234Y-100197059D01*
X127750687Y-100289633D01*
X127596742Y-100353399D01*
X127433315Y-100385907D01*
X127266685Y-100385907D01*
X127103258Y-100353399D01*
X126949313Y-100289633D01*
X126810766Y-100197059D01*
X126692941Y-100079234D01*
X126600367Y-99940687D01*
X126536601Y-99786742D01*
X126504093Y-99623315D01*
X126504093Y-99456685D01*
X126536601Y-99293258D01*
X126600367Y-99139313D01*
X126692941Y-99000766D01*
X126810766Y-98882941D01*
X126949313Y-98790367D01*
X127103258Y-98726601D01*
X127266685Y-98694093D01*
X127433315Y-98694093D01*
X127596742Y-98726601D01*
G37*
G36*
X145471742Y-98646601D02*
G01*
X145625687Y-98710367D01*
X145764234Y-98802941D01*
X145882059Y-98920766D01*
X145974633Y-99059313D01*
X146038399Y-99213258D01*
X146070907Y-99376685D01*
X146070907Y-99543315D01*
X146038399Y-99706742D01*
X145974633Y-99860687D01*
X145882059Y-99999234D01*
X145764234Y-100117059D01*
X145625687Y-100209633D01*
X145471742Y-100273399D01*
X145308315Y-100305907D01*
X145141685Y-100305907D01*
X144978258Y-100273399D01*
X144824313Y-100209633D01*
X144685766Y-100117059D01*
X144567941Y-99999234D01*
X144475367Y-99860687D01*
X144411601Y-99706742D01*
X144379093Y-99543315D01*
X144379093Y-99376685D01*
X144411601Y-99213258D01*
X144475367Y-99059313D01*
X144567941Y-98920766D01*
X144685766Y-98802941D01*
X144824313Y-98710367D01*
X144978258Y-98646601D01*
X145141685Y-98614093D01*
X145308315Y-98614093D01*
X145471742Y-98646601D01*
G37*
G36*
X135147203Y-99564782D02*
G01*
X135167480Y-99578331D01*
X135697810Y-100108661D01*
X135711359Y-100128938D01*
X135716116Y-100152855D01*
X135711359Y-100176772D01*
X135697810Y-100197049D01*
X135609422Y-100285437D01*
X135589145Y-100298986D01*
X135565228Y-100303743D01*
X135541311Y-100298986D01*
X135521034Y-100285437D01*
X134990704Y-99755107D01*
X134977155Y-99734830D01*
X134972398Y-99710913D01*
X134977155Y-99686996D01*
X134990704Y-99666719D01*
X134994880Y-99662542D01*
X134994883Y-99662539D01*
X135074911Y-99582510D01*
X135074917Y-99582505D01*
X135079092Y-99578331D01*
X135099369Y-99564782D01*
X135123286Y-99560025D01*
X135147203Y-99564782D01*
G37*
G36*
X137975631Y-99564782D02*
G01*
X137995908Y-99578331D01*
X138000087Y-99582510D01*
X138080116Y-99662538D01*
X138080118Y-99662541D01*
X138084296Y-99666719D01*
X138097845Y-99686996D01*
X138102602Y-99710913D01*
X138097845Y-99734830D01*
X138084296Y-99755107D01*
X137553966Y-100285437D01*
X137533689Y-100298986D01*
X137509772Y-100303743D01*
X137485855Y-100298986D01*
X137465578Y-100285437D01*
X137429811Y-100249670D01*
X137381369Y-100201229D01*
X137381366Y-100201225D01*
X137377190Y-100197049D01*
X137363641Y-100176772D01*
X137358884Y-100152855D01*
X137363641Y-100128938D01*
X137377190Y-100108661D01*
X137638177Y-99847674D01*
X137903342Y-99582508D01*
X137903345Y-99582505D01*
X137907520Y-99578331D01*
X137927797Y-99564782D01*
X137951714Y-99560025D01*
X137975631Y-99564782D01*
G37*
G36*
X135500757Y-99211228D02*
G01*
X135521034Y-99224777D01*
X136051364Y-99755107D01*
X136064913Y-99775384D01*
X136069670Y-99799301D01*
X136064913Y-99823218D01*
X136051364Y-99843495D01*
X135962976Y-99931883D01*
X135942699Y-99945432D01*
X135918782Y-99950189D01*
X135894865Y-99945432D01*
X135874588Y-99931883D01*
X135344258Y-99401553D01*
X135330709Y-99381276D01*
X135325952Y-99357359D01*
X135330709Y-99333442D01*
X135344258Y-99313165D01*
X135348434Y-99308988D01*
X135348437Y-99308985D01*
X135428465Y-99228956D01*
X135428471Y-99228951D01*
X135432646Y-99224777D01*
X135452923Y-99211228D01*
X135476840Y-99206471D01*
X135500757Y-99211228D01*
G37*
G36*
X137622077Y-99211228D02*
G01*
X137642354Y-99224777D01*
X137646533Y-99228956D01*
X137726562Y-99308984D01*
X137726564Y-99308987D01*
X137730742Y-99313165D01*
X137744291Y-99333442D01*
X137749048Y-99357359D01*
X137744291Y-99381276D01*
X137730742Y-99401553D01*
X137200412Y-99931883D01*
X137180135Y-99945432D01*
X137156218Y-99950189D01*
X137132301Y-99945432D01*
X137112024Y-99931883D01*
X137093719Y-99913578D01*
X137027815Y-99847675D01*
X137027812Y-99847671D01*
X137023636Y-99843495D01*
X137010087Y-99823218D01*
X137005330Y-99799301D01*
X137010087Y-99775384D01*
X137023636Y-99755107D01*
X137288801Y-99489942D01*
X137549788Y-99228954D01*
X137549791Y-99228951D01*
X137553966Y-99224777D01*
X137574243Y-99211228D01*
X137598160Y-99206471D01*
X137622077Y-99211228D01*
G37*
G36*
X135854310Y-98857675D02*
G01*
X135874587Y-98871224D01*
X136404917Y-99401554D01*
X136418466Y-99421831D01*
X136423223Y-99445748D01*
X136418466Y-99469665D01*
X136404917Y-99489942D01*
X136316529Y-99578330D01*
X136296252Y-99591879D01*
X136272335Y-99596636D01*
X136248418Y-99591879D01*
X136228141Y-99578330D01*
X135697811Y-99048000D01*
X135684262Y-99027723D01*
X135679505Y-99003806D01*
X135684262Y-98979889D01*
X135697811Y-98959612D01*
X135701987Y-98955435D01*
X135701990Y-98955432D01*
X135782018Y-98875403D01*
X135782024Y-98875398D01*
X135786199Y-98871224D01*
X135806476Y-98857675D01*
X135830393Y-98852918D01*
X135854310Y-98857675D01*
G37*
G36*
X137268524Y-98857675D02*
G01*
X137288801Y-98871224D01*
X137292980Y-98875403D01*
X137373009Y-98955431D01*
X137373011Y-98955434D01*
X137377189Y-98959612D01*
X137390738Y-98979889D01*
X137395495Y-99003806D01*
X137390738Y-99027723D01*
X137377189Y-99048000D01*
X136846859Y-99578330D01*
X136826582Y-99591879D01*
X136802665Y-99596636D01*
X136778748Y-99591879D01*
X136758471Y-99578330D01*
X136723427Y-99543286D01*
X136674262Y-99494122D01*
X136674259Y-99494118D01*
X136670083Y-99489942D01*
X136656534Y-99469665D01*
X136651777Y-99445748D01*
X136656534Y-99421831D01*
X136670083Y-99401554D01*
X136932324Y-99139313D01*
X137196235Y-98875401D01*
X137196238Y-98875398D01*
X137200413Y-98871224D01*
X137220690Y-98857675D01*
X137244607Y-98852918D01*
X137268524Y-98857675D01*
G37*
G36*
X132998712Y-98251985D02*
G01*
X133015468Y-98251985D01*
X133033151Y-98258835D01*
X133060418Y-98264259D01*
X133078720Y-98276488D01*
X133094205Y-98282487D01*
X133129283Y-98310273D01*
X133133413Y-98313033D01*
X133486967Y-98666587D01*
X133489718Y-98670705D01*
X133517511Y-98705792D01*
X133523510Y-98721277D01*
X133535741Y-98739582D01*
X133541164Y-98766848D01*
X133548015Y-98784531D01*
X133548015Y-98801288D01*
X133552868Y-98825686D01*
X133548015Y-98850083D01*
X133548015Y-98866839D01*
X133541164Y-98884520D01*
X133535741Y-98911789D01*
X133523509Y-98930095D01*
X133517512Y-98945576D01*
X133489735Y-98980640D01*
X133486967Y-98984785D01*
X133168769Y-99302983D01*
X133164638Y-99305743D01*
X133129562Y-99333527D01*
X133114079Y-99339524D01*
X133095773Y-99351757D01*
X133068504Y-99357181D01*
X133050823Y-99364031D01*
X133034068Y-99364031D01*
X133009670Y-99368884D01*
X132985272Y-99364031D01*
X132968516Y-99364031D01*
X132950833Y-99357180D01*
X132923566Y-99351757D01*
X132905261Y-99339526D01*
X132889778Y-99333528D01*
X132854702Y-99305743D01*
X132850571Y-99302983D01*
X132497017Y-98949429D01*
X132494266Y-98945312D01*
X132466472Y-98910223D01*
X132460472Y-98894737D01*
X132448243Y-98876434D01*
X132442819Y-98849167D01*
X132435969Y-98831484D01*
X132435969Y-98814727D01*
X132431116Y-98790330D01*
X132435969Y-98765932D01*
X132435969Y-98749176D01*
X132442819Y-98731491D01*
X132448243Y-98704227D01*
X132460471Y-98685925D01*
X132466471Y-98670439D01*
X132494257Y-98635360D01*
X132497017Y-98631231D01*
X132815215Y-98313033D01*
X132819331Y-98310282D01*
X132854421Y-98282488D01*
X132869908Y-98276488D01*
X132888211Y-98264259D01*
X132915477Y-98258835D01*
X132933161Y-98251985D01*
X132949916Y-98251985D01*
X132974314Y-98247132D01*
X132998712Y-98251985D01*
G37*
G36*
X139950084Y-98241985D02*
G01*
X139966839Y-98241985D01*
X139984522Y-98248835D01*
X140011789Y-98254259D01*
X140030092Y-98266488D01*
X140045576Y-98272487D01*
X140080648Y-98300269D01*
X140084785Y-98303033D01*
X140402983Y-98621231D01*
X140405738Y-98625355D01*
X140433527Y-98660437D01*
X140439525Y-98675921D01*
X140451757Y-98694227D01*
X140457180Y-98721493D01*
X140464031Y-98739176D01*
X140464031Y-98755932D01*
X140468884Y-98780330D01*
X140464031Y-98804727D01*
X140464031Y-98821484D01*
X140457180Y-98839166D01*
X140451757Y-98866434D01*
X140439525Y-98884739D01*
X140433528Y-98900221D01*
X140405747Y-98935291D01*
X140402983Y-98939429D01*
X140049429Y-99292983D01*
X140045304Y-99295739D01*
X140010223Y-99323527D01*
X139994740Y-99329525D01*
X139976434Y-99341757D01*
X139949165Y-99347180D01*
X139931484Y-99354031D01*
X139914728Y-99354031D01*
X139890330Y-99358884D01*
X139865932Y-99354031D01*
X139849177Y-99354031D01*
X139831494Y-99347180D01*
X139804227Y-99341757D01*
X139785922Y-99329526D01*
X139770439Y-99323528D01*
X139735368Y-99295747D01*
X139731231Y-99292983D01*
X139413033Y-98974785D01*
X139410278Y-98970662D01*
X139382488Y-98935578D01*
X139376489Y-98920092D01*
X139364259Y-98901789D01*
X139358835Y-98874521D01*
X139351985Y-98856839D01*
X139351985Y-98840083D01*
X139347132Y-98815686D01*
X139351985Y-98791288D01*
X139351985Y-98774531D01*
X139358835Y-98756846D01*
X139364259Y-98729582D01*
X139376487Y-98711280D01*
X139382487Y-98695794D01*
X139410277Y-98660710D01*
X139413033Y-98656587D01*
X139766587Y-98303033D01*
X139770697Y-98300286D01*
X139805792Y-98272488D01*
X139821279Y-98266488D01*
X139839582Y-98254259D01*
X139866848Y-98248835D01*
X139884532Y-98241985D01*
X139901288Y-98241985D01*
X139925686Y-98237132D01*
X139950084Y-98241985D01*
G37*
G36*
X134094728Y-97155969D02*
G01*
X134111484Y-97155969D01*
X134129167Y-97162819D01*
X134156434Y-97168243D01*
X134174736Y-97180472D01*
X134190221Y-97186471D01*
X134225299Y-97214257D01*
X134229429Y-97217017D01*
X134582983Y-97570571D01*
X134585734Y-97574689D01*
X134613527Y-97609776D01*
X134619526Y-97625261D01*
X134631757Y-97643566D01*
X134637180Y-97670832D01*
X134644031Y-97688515D01*
X134644031Y-97705272D01*
X134648884Y-97729670D01*
X134644031Y-97754067D01*
X134644031Y-97770823D01*
X134637180Y-97788504D01*
X134631757Y-97815773D01*
X134619525Y-97834079D01*
X134613528Y-97849560D01*
X134585751Y-97884624D01*
X134582983Y-97888769D01*
X134264785Y-98206967D01*
X134260654Y-98209727D01*
X134225578Y-98237511D01*
X134210095Y-98243508D01*
X134191789Y-98255741D01*
X134164520Y-98261165D01*
X134146839Y-98268015D01*
X134130084Y-98268015D01*
X134105686Y-98272868D01*
X134081288Y-98268015D01*
X134064532Y-98268015D01*
X134046849Y-98261164D01*
X134019582Y-98255741D01*
X134001277Y-98243510D01*
X133985794Y-98237512D01*
X133950718Y-98209727D01*
X133946587Y-98206967D01*
X133593033Y-97853413D01*
X133590282Y-97849296D01*
X133562488Y-97814207D01*
X133556488Y-97798721D01*
X133544259Y-97780418D01*
X133538835Y-97753151D01*
X133531985Y-97735468D01*
X133531985Y-97718711D01*
X133527132Y-97694314D01*
X133531985Y-97669916D01*
X133531985Y-97653160D01*
X133538835Y-97635475D01*
X133544259Y-97608211D01*
X133556487Y-97589909D01*
X133562487Y-97574423D01*
X133590273Y-97539344D01*
X133593033Y-97535215D01*
X133911231Y-97217017D01*
X133915347Y-97214266D01*
X133950437Y-97186472D01*
X133965924Y-97180472D01*
X133984227Y-97168243D01*
X134011493Y-97162819D01*
X134029177Y-97155969D01*
X134045932Y-97155969D01*
X134070330Y-97151116D01*
X134094728Y-97155969D01*
G37*
G36*
X138854068Y-97145969D02*
G01*
X138870823Y-97145969D01*
X138888506Y-97152819D01*
X138915773Y-97158243D01*
X138934076Y-97170472D01*
X138949560Y-97176471D01*
X138984632Y-97204253D01*
X138988769Y-97207017D01*
X139306967Y-97525215D01*
X139309722Y-97529339D01*
X139337511Y-97564421D01*
X139343509Y-97579905D01*
X139355741Y-97598211D01*
X139361164Y-97625477D01*
X139368015Y-97643160D01*
X139368015Y-97659916D01*
X139372868Y-97684314D01*
X139368015Y-97708711D01*
X139368015Y-97725468D01*
X139361164Y-97743150D01*
X139355741Y-97770418D01*
X139343509Y-97788723D01*
X139337512Y-97804205D01*
X139309731Y-97839275D01*
X139306967Y-97843413D01*
X138953413Y-98196967D01*
X138949288Y-98199723D01*
X138914207Y-98227511D01*
X138898724Y-98233509D01*
X138880418Y-98245741D01*
X138853149Y-98251164D01*
X138835468Y-98258015D01*
X138818712Y-98258015D01*
X138794314Y-98262868D01*
X138769916Y-98258015D01*
X138753161Y-98258015D01*
X138735478Y-98251164D01*
X138708211Y-98245741D01*
X138689906Y-98233510D01*
X138674423Y-98227512D01*
X138639352Y-98199731D01*
X138635215Y-98196967D01*
X138317017Y-97878769D01*
X138314262Y-97874646D01*
X138286472Y-97839562D01*
X138280473Y-97824076D01*
X138268243Y-97805773D01*
X138262819Y-97778505D01*
X138255969Y-97760823D01*
X138255969Y-97744067D01*
X138251116Y-97719670D01*
X138255969Y-97695272D01*
X138255969Y-97678515D01*
X138262819Y-97660830D01*
X138268243Y-97633566D01*
X138280471Y-97615264D01*
X138286471Y-97599778D01*
X138314261Y-97564694D01*
X138317017Y-97560571D01*
X138670571Y-97207017D01*
X138674681Y-97204270D01*
X138709776Y-97176472D01*
X138725263Y-97170472D01*
X138743566Y-97158243D01*
X138770832Y-97152819D01*
X138788516Y-97145969D01*
X138805272Y-97145969D01*
X138829670Y-97141116D01*
X138854068Y-97145969D01*
G37*
G36*
X127596742Y-96186601D02*
G01*
X127750687Y-96250367D01*
X127889234Y-96342941D01*
X128007059Y-96460766D01*
X128099633Y-96599313D01*
X128163399Y-96753258D01*
X128195907Y-96916685D01*
X128195907Y-97083315D01*
X128163399Y-97246742D01*
X128099633Y-97400687D01*
X128007059Y-97539234D01*
X127889234Y-97657059D01*
X127750687Y-97749633D01*
X127596742Y-97813399D01*
X127433315Y-97845907D01*
X127266685Y-97845907D01*
X127103258Y-97813399D01*
X126949313Y-97749633D01*
X126810766Y-97657059D01*
X126692941Y-97539234D01*
X126600367Y-97400687D01*
X126536601Y-97246742D01*
X126504093Y-97083315D01*
X126504093Y-96916685D01*
X126536601Y-96753258D01*
X126600367Y-96599313D01*
X126692941Y-96460766D01*
X126810766Y-96342941D01*
X126949313Y-96250367D01*
X127103258Y-96186601D01*
X127266685Y-96154093D01*
X127433315Y-96154093D01*
X127596742Y-96186601D01*
G37*
G36*
X145471742Y-96106601D02*
G01*
X145625687Y-96170367D01*
X145764234Y-96262941D01*
X145882059Y-96380766D01*
X145974633Y-96519313D01*
X146038399Y-96673258D01*
X146070907Y-96836685D01*
X146070907Y-97003315D01*
X146038399Y-97166742D01*
X145974633Y-97320687D01*
X145882059Y-97459234D01*
X145764234Y-97577059D01*
X145625687Y-97669633D01*
X145471742Y-97733399D01*
X145308315Y-97765907D01*
X145141685Y-97765907D01*
X144978258Y-97733399D01*
X144824313Y-97669633D01*
X144685766Y-97577059D01*
X144567941Y-97459234D01*
X144475367Y-97320687D01*
X144411601Y-97166742D01*
X144379093Y-97003315D01*
X144379093Y-96836685D01*
X144411601Y-96673258D01*
X144475367Y-96519313D01*
X144567941Y-96380766D01*
X144685766Y-96262941D01*
X144824313Y-96170367D01*
X144978258Y-96106601D01*
X145141685Y-96074093D01*
X145308315Y-96074093D01*
X145471742Y-96106601D01*
G37*
G36*
X138604850Y-95235964D02*
G01*
X138649317Y-95241123D01*
X138664510Y-95247831D01*
X138686104Y-95252127D01*
X138709222Y-95267574D01*
X138726567Y-95275233D01*
X138738412Y-95287078D01*
X138759099Y-95300901D01*
X138772921Y-95321587D01*
X138784766Y-95333432D01*
X138792423Y-95350774D01*
X138807873Y-95373896D01*
X138812168Y-95395491D01*
X138818876Y-95410682D01*
X138824033Y-95455139D01*
X138825000Y-95460000D01*
X138825000Y-95910000D01*
X138824032Y-95914862D01*
X138818876Y-95959317D01*
X138812168Y-95974506D01*
X138807873Y-95996104D01*
X138792422Y-96019227D01*
X138784766Y-96036567D01*
X138772923Y-96048409D01*
X138759099Y-96069099D01*
X138738409Y-96082923D01*
X138726567Y-96094766D01*
X138709227Y-96102422D01*
X138686104Y-96117873D01*
X138664506Y-96122168D01*
X138649317Y-96128876D01*
X138604861Y-96134032D01*
X138600000Y-96135000D01*
X138100000Y-96135000D01*
X138095138Y-96134033D01*
X138050682Y-96128876D01*
X138035491Y-96122168D01*
X138013896Y-96117873D01*
X137990774Y-96102423D01*
X137973432Y-96094766D01*
X137961587Y-96082921D01*
X137940901Y-96069099D01*
X137927078Y-96048412D01*
X137915233Y-96036567D01*
X137907574Y-96019222D01*
X137892127Y-95996104D01*
X137887831Y-95974510D01*
X137881123Y-95959317D01*
X137875964Y-95914849D01*
X137875000Y-95910000D01*
X137875000Y-95460000D01*
X137875964Y-95455150D01*
X137881123Y-95410682D01*
X137887832Y-95395487D01*
X137892127Y-95373896D01*
X137907573Y-95350779D01*
X137915233Y-95333432D01*
X137927080Y-95321584D01*
X137940901Y-95300901D01*
X137961584Y-95287080D01*
X137973432Y-95275233D01*
X137990779Y-95267573D01*
X138013896Y-95252127D01*
X138035487Y-95247832D01*
X138050682Y-95241123D01*
X138095151Y-95235964D01*
X138100000Y-95235000D01*
X138600000Y-95235000D01*
X138604850Y-95235964D01*
G37*
G36*
X135531100Y-95180964D02*
G01*
X135574136Y-95185957D01*
X135588840Y-95192449D01*
X135609962Y-95196651D01*
X135632576Y-95211761D01*
X135649285Y-95219139D01*
X135660696Y-95230550D01*
X135680930Y-95244070D01*
X135694449Y-95264303D01*
X135705860Y-95275714D01*
X135713237Y-95292421D01*
X135728349Y-95315038D01*
X135732550Y-95336161D01*
X135739042Y-95350863D01*
X135744033Y-95393889D01*
X135745000Y-95398750D01*
X135745000Y-95836250D01*
X135744032Y-95841112D01*
X135739042Y-95884136D01*
X135732551Y-95898836D01*
X135728349Y-95919962D01*
X135713235Y-95942580D01*
X135705860Y-95959285D01*
X135694451Y-95970693D01*
X135680930Y-95990930D01*
X135660693Y-96004451D01*
X135649285Y-96015860D01*
X135632580Y-96023235D01*
X135609962Y-96038349D01*
X135588836Y-96042551D01*
X135574136Y-96049042D01*
X135531111Y-96054032D01*
X135526250Y-96055000D01*
X135013750Y-96055000D01*
X135008888Y-96054032D01*
X134965863Y-96049042D01*
X134951161Y-96042550D01*
X134930038Y-96038349D01*
X134907421Y-96023237D01*
X134890714Y-96015860D01*
X134879303Y-96004449D01*
X134859070Y-95990930D01*
X134845550Y-95970696D01*
X134834139Y-95959285D01*
X134826761Y-95942576D01*
X134811651Y-95919962D01*
X134807449Y-95898840D01*
X134800957Y-95884136D01*
X134795964Y-95841099D01*
X134795000Y-95836250D01*
X134795000Y-95398750D01*
X134795964Y-95393900D01*
X134800957Y-95350863D01*
X134807450Y-95336157D01*
X134811651Y-95315038D01*
X134826759Y-95292425D01*
X134834139Y-95275714D01*
X134845552Y-95264300D01*
X134859070Y-95244070D01*
X134879300Y-95230552D01*
X134890714Y-95219139D01*
X134907425Y-95211759D01*
X134930038Y-95196651D01*
X134951157Y-95192450D01*
X134965863Y-95185957D01*
X135008901Y-95180964D01*
X135013750Y-95180000D01*
X135526250Y-95180000D01*
X135531100Y-95180964D01*
G37*
G36*
X141871537Y-95240224D02*
G01*
X141936421Y-95283579D01*
X141979776Y-95348463D01*
X141995000Y-95425000D01*
X141995000Y-95825000D01*
X141979776Y-95901537D01*
X141936421Y-95966421D01*
X141871537Y-96009776D01*
X141795000Y-96025000D01*
X141245000Y-96025000D01*
X141168463Y-96009776D01*
X141103579Y-95966421D01*
X141060224Y-95901537D01*
X141045000Y-95825000D01*
X141045000Y-95425000D01*
X141060224Y-95348463D01*
X141103579Y-95283579D01*
X141168463Y-95240224D01*
X141245000Y-95225000D01*
X141795000Y-95225000D01*
X141871537Y-95240224D01*
G37*
G36*
X127596742Y-93646601D02*
G01*
X127750687Y-93710367D01*
X127889234Y-93802941D01*
X128007059Y-93920766D01*
X128099633Y-94059313D01*
X128163399Y-94213258D01*
X128195907Y-94376685D01*
X128195907Y-94543315D01*
X128163399Y-94706742D01*
X128099633Y-94860687D01*
X128007059Y-94999234D01*
X127889234Y-95117059D01*
X127750687Y-95209633D01*
X127596742Y-95273399D01*
X127433315Y-95305907D01*
X127266685Y-95305907D01*
X127103258Y-95273399D01*
X126949313Y-95209633D01*
X126810766Y-95117059D01*
X126692941Y-94999234D01*
X126600367Y-94860687D01*
X126536601Y-94706742D01*
X126504093Y-94543315D01*
X126504093Y-94376685D01*
X126536601Y-94213258D01*
X126600367Y-94059313D01*
X126692941Y-93920766D01*
X126810766Y-93802941D01*
X126949313Y-93710367D01*
X127103258Y-93646601D01*
X127266685Y-93614093D01*
X127433315Y-93614093D01*
X127596742Y-93646601D01*
G37*
G36*
X145471742Y-93566601D02*
G01*
X145625687Y-93630367D01*
X145764234Y-93722941D01*
X145882059Y-93840766D01*
X145974633Y-93979313D01*
X146038399Y-94133258D01*
X146070907Y-94296685D01*
X146070907Y-94463315D01*
X146038399Y-94626742D01*
X145974633Y-94780687D01*
X145882059Y-94919234D01*
X145764234Y-95037059D01*
X145625687Y-95129633D01*
X145471742Y-95193399D01*
X145308315Y-95225907D01*
X145141685Y-95225907D01*
X144978258Y-95193399D01*
X144824313Y-95129633D01*
X144685766Y-95037059D01*
X144567941Y-94919234D01*
X144475367Y-94780687D01*
X144411601Y-94626742D01*
X144379093Y-94463315D01*
X144379093Y-94296685D01*
X144411601Y-94133258D01*
X144475367Y-93979313D01*
X144567941Y-93840766D01*
X144685766Y-93722941D01*
X144824313Y-93630367D01*
X144978258Y-93566601D01*
X145141685Y-93534093D01*
X145308315Y-93534093D01*
X145471742Y-93566601D01*
G37*
G36*
X138604850Y-93685964D02*
G01*
X138649317Y-93691123D01*
X138664510Y-93697831D01*
X138686104Y-93702127D01*
X138709222Y-93717574D01*
X138726567Y-93725233D01*
X138738412Y-93737078D01*
X138759099Y-93750901D01*
X138772921Y-93771587D01*
X138784766Y-93783432D01*
X138792423Y-93800774D01*
X138807873Y-93823896D01*
X138812168Y-93845491D01*
X138818876Y-93860682D01*
X138824033Y-93905139D01*
X138825000Y-93910000D01*
X138825000Y-94360000D01*
X138824032Y-94364862D01*
X138818876Y-94409317D01*
X138812168Y-94424506D01*
X138807873Y-94446104D01*
X138792422Y-94469227D01*
X138784766Y-94486567D01*
X138772923Y-94498409D01*
X138759099Y-94519099D01*
X138738409Y-94532923D01*
X138726567Y-94544766D01*
X138709227Y-94552422D01*
X138686104Y-94567873D01*
X138664506Y-94572168D01*
X138649317Y-94578876D01*
X138604861Y-94584032D01*
X138600000Y-94585000D01*
X138100000Y-94585000D01*
X138095138Y-94584033D01*
X138050682Y-94578876D01*
X138035491Y-94572168D01*
X138013896Y-94567873D01*
X137990774Y-94552423D01*
X137973432Y-94544766D01*
X137961587Y-94532921D01*
X137940901Y-94519099D01*
X137927078Y-94498412D01*
X137915233Y-94486567D01*
X137907574Y-94469222D01*
X137892127Y-94446104D01*
X137887831Y-94424510D01*
X137881123Y-94409317D01*
X137875964Y-94364849D01*
X137875000Y-94360000D01*
X137875000Y-93910000D01*
X137875964Y-93905150D01*
X137881123Y-93860682D01*
X137887832Y-93845487D01*
X137892127Y-93823896D01*
X137907573Y-93800779D01*
X137915233Y-93783432D01*
X137927080Y-93771584D01*
X137940901Y-93750901D01*
X137961584Y-93737080D01*
X137973432Y-93725233D01*
X137990779Y-93717573D01*
X138013896Y-93702127D01*
X138035487Y-93697832D01*
X138050682Y-93691123D01*
X138095151Y-93685964D01*
X138100000Y-93685000D01*
X138600000Y-93685000D01*
X138604850Y-93685964D01*
G37*
G36*
X135531100Y-93605964D02*
G01*
X135574136Y-93610957D01*
X135588840Y-93617449D01*
X135609962Y-93621651D01*
X135632576Y-93636761D01*
X135649285Y-93644139D01*
X135660696Y-93655550D01*
X135680930Y-93669070D01*
X135694449Y-93689303D01*
X135705860Y-93700714D01*
X135713237Y-93717421D01*
X135728349Y-93740038D01*
X135732550Y-93761161D01*
X135739042Y-93775863D01*
X135744033Y-93818889D01*
X135745000Y-93823750D01*
X135745000Y-94261250D01*
X135744032Y-94266112D01*
X135739042Y-94309136D01*
X135732551Y-94323836D01*
X135728349Y-94344962D01*
X135713235Y-94367580D01*
X135705860Y-94384285D01*
X135694451Y-94395693D01*
X135680930Y-94415930D01*
X135660693Y-94429451D01*
X135649285Y-94440860D01*
X135632580Y-94448235D01*
X135609962Y-94463349D01*
X135588836Y-94467551D01*
X135574136Y-94474042D01*
X135531111Y-94479032D01*
X135526250Y-94480000D01*
X135013750Y-94480000D01*
X135008888Y-94479032D01*
X134965863Y-94474042D01*
X134951161Y-94467550D01*
X134930038Y-94463349D01*
X134907421Y-94448237D01*
X134890714Y-94440860D01*
X134879303Y-94429449D01*
X134859070Y-94415930D01*
X134845550Y-94395696D01*
X134834139Y-94384285D01*
X134826761Y-94367576D01*
X134811651Y-94344962D01*
X134807449Y-94323840D01*
X134800957Y-94309136D01*
X134795964Y-94266099D01*
X134795000Y-94261250D01*
X134795000Y-93823750D01*
X134795964Y-93818900D01*
X134800957Y-93775863D01*
X134807450Y-93761157D01*
X134811651Y-93740038D01*
X134826759Y-93717425D01*
X134834139Y-93700714D01*
X134845552Y-93689300D01*
X134859070Y-93669070D01*
X134879300Y-93655552D01*
X134890714Y-93644139D01*
X134907425Y-93636759D01*
X134930038Y-93621651D01*
X134951157Y-93617450D01*
X134965863Y-93610957D01*
X135008901Y-93605964D01*
X135013750Y-93605000D01*
X135526250Y-93605000D01*
X135531100Y-93605964D01*
G37*
G36*
X141871537Y-93590224D02*
G01*
X141936421Y-93633579D01*
X141979776Y-93698463D01*
X141995000Y-93775000D01*
X141995000Y-94175000D01*
X141979776Y-94251537D01*
X141936421Y-94316421D01*
X141871537Y-94359776D01*
X141795000Y-94375000D01*
X141245000Y-94375000D01*
X141168463Y-94359776D01*
X141103579Y-94316421D01*
X141060224Y-94251537D01*
X141045000Y-94175000D01*
X141045000Y-93775000D01*
X141060224Y-93698463D01*
X141103579Y-93633579D01*
X141168463Y-93590224D01*
X141245000Y-93575000D01*
X141795000Y-93575000D01*
X141871537Y-93590224D01*
G37*
G36*
X127596742Y-91106601D02*
G01*
X127750687Y-91170367D01*
X127889234Y-91262941D01*
X128007059Y-91380766D01*
X128099633Y-91519313D01*
X128163399Y-91673258D01*
X128195907Y-91836685D01*
X128195907Y-92003315D01*
X128163399Y-92166742D01*
X128099633Y-92320687D01*
X128007059Y-92459234D01*
X127889234Y-92577059D01*
X127750687Y-92669633D01*
X127596742Y-92733399D01*
X127433315Y-92765907D01*
X127266685Y-92765907D01*
X127103258Y-92733399D01*
X126949313Y-92669633D01*
X126810766Y-92577059D01*
X126692941Y-92459234D01*
X126600367Y-92320687D01*
X126536601Y-92166742D01*
X126504093Y-92003315D01*
X126504093Y-91836685D01*
X126536601Y-91673258D01*
X126600367Y-91519313D01*
X126692941Y-91380766D01*
X126810766Y-91262941D01*
X126949313Y-91170367D01*
X127103258Y-91106601D01*
X127266685Y-91074093D01*
X127433315Y-91074093D01*
X127596742Y-91106601D01*
G37*
G36*
X145471742Y-91026601D02*
G01*
X145625687Y-91090367D01*
X145764234Y-91182941D01*
X145882059Y-91300766D01*
X145974633Y-91439313D01*
X146038399Y-91593258D01*
X146070907Y-91756685D01*
X146070907Y-91923315D01*
X146038399Y-92086742D01*
X145974633Y-92240687D01*
X145882059Y-92379234D01*
X145764234Y-92497059D01*
X145625687Y-92589633D01*
X145471742Y-92653399D01*
X145308315Y-92685907D01*
X145141685Y-92685907D01*
X144978258Y-92653399D01*
X144824313Y-92589633D01*
X144685766Y-92497059D01*
X144567941Y-92379234D01*
X144475367Y-92240687D01*
X144411601Y-92086742D01*
X144379093Y-91923315D01*
X144379093Y-91756685D01*
X144411601Y-91593258D01*
X144475367Y-91439313D01*
X144567941Y-91300766D01*
X144685766Y-91182941D01*
X144824313Y-91090367D01*
X144978258Y-91026601D01*
X145141685Y-90994093D01*
X145308315Y-90994093D01*
X145471742Y-91026601D01*
G37*
G36*
X139103315Y-89394093D02*
G01*
X139266742Y-89426601D01*
X139420687Y-89490367D01*
X139559234Y-89582941D01*
X139677059Y-89700766D01*
X139769633Y-89839313D01*
X139833399Y-89993258D01*
X139865907Y-90156685D01*
X139865907Y-90323315D01*
X139833399Y-90486742D01*
X139769633Y-90640687D01*
X139677059Y-90779234D01*
X139559234Y-90897059D01*
X139420687Y-90989633D01*
X139266742Y-91053399D01*
X139103315Y-91085907D01*
X139020000Y-91090000D01*
X139018522Y-91090000D01*
X138721478Y-91090000D01*
X138720000Y-91090000D01*
X138636685Y-91085907D01*
X138473258Y-91053399D01*
X138319313Y-90989633D01*
X138180766Y-90897059D01*
X138062941Y-90779234D01*
X137970367Y-90640687D01*
X137906601Y-90486742D01*
X137874093Y-90323315D01*
X137874093Y-90156685D01*
X137906601Y-89993258D01*
X137970367Y-89839313D01*
X138062941Y-89700766D01*
X138180766Y-89582941D01*
X138319313Y-89490367D01*
X138473258Y-89426601D01*
X138636685Y-89394093D01*
X138720000Y-89390000D01*
X139020000Y-89390000D01*
X139103315Y-89394093D01*
G37*
G36*
X127596742Y-88566601D02*
G01*
X127750687Y-88630367D01*
X127889234Y-88722941D01*
X128007059Y-88840766D01*
X128099633Y-88979313D01*
X128163399Y-89133258D01*
X128195907Y-89296685D01*
X128195907Y-89463315D01*
X128163399Y-89626742D01*
X128099633Y-89780687D01*
X128007059Y-89919234D01*
X127889234Y-90037059D01*
X127750687Y-90129633D01*
X127596742Y-90193399D01*
X127433315Y-90225907D01*
X127266685Y-90225907D01*
X127103258Y-90193399D01*
X126949313Y-90129633D01*
X126810766Y-90037059D01*
X126692941Y-89919234D01*
X126600367Y-89780687D01*
X126536601Y-89626742D01*
X126504093Y-89463315D01*
X126504093Y-89296685D01*
X126536601Y-89133258D01*
X126600367Y-88979313D01*
X126692941Y-88840766D01*
X126810766Y-88722941D01*
X126949313Y-88630367D01*
X127103258Y-88566601D01*
X127266685Y-88534093D01*
X127433315Y-88534093D01*
X127596742Y-88566601D01*
G37*
G36*
X145471742Y-88486601D02*
G01*
X145625687Y-88550367D01*
X145764234Y-88642941D01*
X145882059Y-88760766D01*
X145974633Y-88899313D01*
X146038399Y-89053258D01*
X146070907Y-89216685D01*
X146070907Y-89383315D01*
X146038399Y-89546742D01*
X145974633Y-89700687D01*
X145882059Y-89839234D01*
X145764234Y-89957059D01*
X145625687Y-90049633D01*
X145471742Y-90113399D01*
X145308315Y-90145907D01*
X145141685Y-90145907D01*
X144978258Y-90113399D01*
X144824313Y-90049633D01*
X144685766Y-89957059D01*
X144567941Y-89839234D01*
X144475367Y-89700687D01*
X144411601Y-89546742D01*
X144379093Y-89383315D01*
X144379093Y-89216685D01*
X144411601Y-89053258D01*
X144475367Y-88899313D01*
X144567941Y-88760766D01*
X144685766Y-88642941D01*
X144824313Y-88550367D01*
X144978258Y-88486601D01*
X145141685Y-88454093D01*
X145308315Y-88454093D01*
X145471742Y-88486601D01*
G37*
G36*
X133457403Y-87538918D02*
G01*
X133506066Y-87571434D01*
X133538582Y-87620097D01*
X133550000Y-87677500D01*
X133550000Y-88702500D01*
X133538582Y-88759903D01*
X133506066Y-88808566D01*
X133457403Y-88841082D01*
X133400000Y-88852500D01*
X133100000Y-88852500D01*
X133042597Y-88841082D01*
X132993934Y-88808566D01*
X132961418Y-88759903D01*
X132950000Y-88702500D01*
X132950000Y-87677500D01*
X132961418Y-87620097D01*
X132993934Y-87571434D01*
X133042597Y-87538918D01*
X133100000Y-87527500D01*
X133400000Y-87527500D01*
X133457403Y-87538918D01*
G37*
G36*
X135357403Y-87538918D02*
G01*
X135406066Y-87571434D01*
X135438582Y-87620097D01*
X135450000Y-87677500D01*
X135450000Y-88702500D01*
X135438582Y-88759903D01*
X135406066Y-88808566D01*
X135357403Y-88841082D01*
X135300000Y-88852500D01*
X135000000Y-88852500D01*
X134942597Y-88841082D01*
X134893934Y-88808566D01*
X134861418Y-88759903D01*
X134850000Y-88702500D01*
X134850000Y-87677500D01*
X134861418Y-87620097D01*
X134893934Y-87571434D01*
X134942597Y-87538918D01*
X135000000Y-87527500D01*
X135300000Y-87527500D01*
X135357403Y-87538918D01*
G37*
G36*
X139624850Y-86890964D02*
G01*
X139675040Y-86896787D01*
X139692189Y-86904359D01*
X139715671Y-86909030D01*
X139740810Y-86925827D01*
X139760696Y-86934608D01*
X139774277Y-86948189D01*
X139796777Y-86963223D01*
X139811810Y-86985722D01*
X139825391Y-86999303D01*
X139834170Y-87019186D01*
X139850970Y-87044329D01*
X139855641Y-87067812D01*
X139863212Y-87084959D01*
X139869033Y-87135139D01*
X139870000Y-87140000D01*
X139870000Y-88340000D01*
X139869032Y-88344863D01*
X139863212Y-88395040D01*
X139855641Y-88412185D01*
X139850970Y-88435671D01*
X139834169Y-88460815D01*
X139825391Y-88480696D01*
X139811812Y-88494274D01*
X139796777Y-88516777D01*
X139774274Y-88531812D01*
X139760696Y-88545391D01*
X139740815Y-88554169D01*
X139715671Y-88570970D01*
X139692185Y-88575641D01*
X139675040Y-88583212D01*
X139624861Y-88589032D01*
X139620000Y-88590000D01*
X138120000Y-88590000D01*
X138115138Y-88589032D01*
X138064959Y-88583212D01*
X138047812Y-88575641D01*
X138024329Y-88570970D01*
X137999186Y-88554170D01*
X137979303Y-88545391D01*
X137965722Y-88531810D01*
X137943223Y-88516777D01*
X137928189Y-88494277D01*
X137914608Y-88480696D01*
X137905827Y-88460810D01*
X137889030Y-88435671D01*
X137884359Y-88412189D01*
X137876787Y-88395040D01*
X137870964Y-88344849D01*
X137870000Y-88340000D01*
X137870000Y-87140000D01*
X137870964Y-87135150D01*
X137876787Y-87084959D01*
X137884359Y-87067808D01*
X137889030Y-87044329D01*
X137905826Y-87019191D01*
X137914608Y-86999303D01*
X137928191Y-86985719D01*
X137943223Y-86963223D01*
X137965719Y-86948191D01*
X137979303Y-86934608D01*
X137999191Y-86925826D01*
X138024329Y-86909030D01*
X138047808Y-86904359D01*
X138064959Y-86896787D01*
X138115151Y-86890964D01*
X138120000Y-86890000D01*
X139620000Y-86890000D01*
X139624850Y-86890964D01*
G37*
G36*
X127596742Y-86026601D02*
G01*
X127750687Y-86090367D01*
X127889234Y-86182941D01*
X128007059Y-86300766D01*
X128099633Y-86439313D01*
X128163399Y-86593258D01*
X128195907Y-86756685D01*
X128195907Y-86923315D01*
X128163399Y-87086742D01*
X128099633Y-87240687D01*
X128007059Y-87379234D01*
X127889234Y-87497059D01*
X127750687Y-87589633D01*
X127596742Y-87653399D01*
X127433315Y-87685907D01*
X127266685Y-87685907D01*
X127103258Y-87653399D01*
X126949313Y-87589633D01*
X126810766Y-87497059D01*
X126692941Y-87379234D01*
X126600367Y-87240687D01*
X126536601Y-87086742D01*
X126504093Y-86923315D01*
X126504093Y-86756685D01*
X126536601Y-86593258D01*
X126600367Y-86439313D01*
X126692941Y-86300766D01*
X126810766Y-86182941D01*
X126949313Y-86090367D01*
X127103258Y-86026601D01*
X127266685Y-85994093D01*
X127433315Y-85994093D01*
X127596742Y-86026601D01*
G37*
G36*
X145471742Y-85946601D02*
G01*
X145625687Y-86010367D01*
X145764234Y-86102941D01*
X145882059Y-86220766D01*
X145974633Y-86359313D01*
X146038399Y-86513258D01*
X146070907Y-86676685D01*
X146070907Y-86843315D01*
X146038399Y-87006742D01*
X145974633Y-87160687D01*
X145882059Y-87299234D01*
X145764234Y-87417059D01*
X145625687Y-87509633D01*
X145471742Y-87573399D01*
X145308315Y-87605907D01*
X145141685Y-87605907D01*
X144978258Y-87573399D01*
X144824313Y-87509633D01*
X144685766Y-87417059D01*
X144567941Y-87299234D01*
X144475367Y-87160687D01*
X144411601Y-87006742D01*
X144379093Y-86843315D01*
X144379093Y-86676685D01*
X144411601Y-86513258D01*
X144475367Y-86359313D01*
X144567941Y-86220766D01*
X144685766Y-86102941D01*
X144824313Y-86010367D01*
X144978258Y-85946601D01*
X145141685Y-85914093D01*
X145308315Y-85914093D01*
X145471742Y-85946601D01*
G37*
G36*
X131471537Y-86795224D02*
G01*
X131536421Y-86838579D01*
X131579776Y-86903463D01*
X131595000Y-86980000D01*
X131595000Y-87380000D01*
X131579776Y-87456537D01*
X131536421Y-87521421D01*
X131471537Y-87564776D01*
X131395000Y-87580000D01*
X130845000Y-87580000D01*
X130768463Y-87564776D01*
X130703579Y-87521421D01*
X130660224Y-87456537D01*
X130645000Y-87380000D01*
X130645000Y-86980000D01*
X130660224Y-86903463D01*
X130703579Y-86838579D01*
X130768463Y-86795224D01*
X130845000Y-86780000D01*
X131395000Y-86780000D01*
X131471537Y-86795224D01*
G37*
G36*
X142274850Y-86510964D02*
G01*
X142319317Y-86516123D01*
X142334510Y-86522831D01*
X142356104Y-86527127D01*
X142379222Y-86542574D01*
X142396567Y-86550233D01*
X142408412Y-86562078D01*
X142429099Y-86575901D01*
X142442921Y-86596587D01*
X142454766Y-86608432D01*
X142462423Y-86625774D01*
X142477873Y-86648896D01*
X142482168Y-86670491D01*
X142488876Y-86685682D01*
X142494033Y-86730139D01*
X142495000Y-86735000D01*
X142495000Y-87185000D01*
X142494032Y-87189862D01*
X142488876Y-87234317D01*
X142482168Y-87249506D01*
X142477873Y-87271104D01*
X142462422Y-87294227D01*
X142454766Y-87311567D01*
X142442923Y-87323409D01*
X142429099Y-87344099D01*
X142408409Y-87357923D01*
X142396567Y-87369766D01*
X142379227Y-87377422D01*
X142356104Y-87392873D01*
X142334506Y-87397168D01*
X142319317Y-87403876D01*
X142274861Y-87409032D01*
X142270000Y-87410000D01*
X141770000Y-87410000D01*
X141765138Y-87409033D01*
X141720682Y-87403876D01*
X141705491Y-87397168D01*
X141683896Y-87392873D01*
X141660774Y-87377423D01*
X141643432Y-87369766D01*
X141631587Y-87357921D01*
X141610901Y-87344099D01*
X141597078Y-87323412D01*
X141585233Y-87311567D01*
X141577574Y-87294222D01*
X141562127Y-87271104D01*
X141557831Y-87249510D01*
X141551123Y-87234317D01*
X141545964Y-87189849D01*
X141545000Y-87185000D01*
X141545000Y-86735000D01*
X141545964Y-86730150D01*
X141551123Y-86685682D01*
X141557832Y-86670487D01*
X141562127Y-86648896D01*
X141577573Y-86625779D01*
X141585233Y-86608432D01*
X141597080Y-86596584D01*
X141610901Y-86575901D01*
X141631584Y-86562080D01*
X141643432Y-86550233D01*
X141660779Y-86542573D01*
X141683896Y-86527127D01*
X141705487Y-86522832D01*
X141720682Y-86516123D01*
X141765151Y-86510964D01*
X141770000Y-86510000D01*
X142270000Y-86510000D01*
X142274850Y-86510964D01*
G37*
G36*
X133457403Y-85263918D02*
G01*
X133506066Y-85296434D01*
X133538582Y-85345097D01*
X133550000Y-85402500D01*
X133550000Y-86427500D01*
X133538582Y-86484903D01*
X133506066Y-86533566D01*
X133457403Y-86566082D01*
X133400000Y-86577500D01*
X133100000Y-86577500D01*
X133042597Y-86566082D01*
X132993934Y-86533566D01*
X132961418Y-86484903D01*
X132950000Y-86427500D01*
X132950000Y-85402500D01*
X132961418Y-85345097D01*
X132993934Y-85296434D01*
X133042597Y-85263918D01*
X133100000Y-85252500D01*
X133400000Y-85252500D01*
X133457403Y-85263918D01*
G37*
G36*
X134407403Y-85263918D02*
G01*
X134456066Y-85296434D01*
X134488582Y-85345097D01*
X134500000Y-85402500D01*
X134500000Y-86427500D01*
X134488582Y-86484903D01*
X134456066Y-86533566D01*
X134407403Y-86566082D01*
X134350000Y-86577500D01*
X134050000Y-86577500D01*
X133992597Y-86566082D01*
X133943934Y-86533566D01*
X133911418Y-86484903D01*
X133900000Y-86427500D01*
X133900000Y-85402500D01*
X133911418Y-85345097D01*
X133943934Y-85296434D01*
X133992597Y-85263918D01*
X134050000Y-85252500D01*
X134350000Y-85252500D01*
X134407403Y-85263918D01*
G37*
G36*
X135357403Y-85263918D02*
G01*
X135406066Y-85296434D01*
X135438582Y-85345097D01*
X135450000Y-85402500D01*
X135450000Y-86427500D01*
X135438582Y-86484903D01*
X135406066Y-86533566D01*
X135357403Y-86566082D01*
X135300000Y-86577500D01*
X135000000Y-86577500D01*
X134942597Y-86566082D01*
X134893934Y-86533566D01*
X134861418Y-86484903D01*
X134850000Y-86427500D01*
X134850000Y-85402500D01*
X134861418Y-85345097D01*
X134893934Y-85296434D01*
X134942597Y-85263918D01*
X135000000Y-85252500D01*
X135300000Y-85252500D01*
X135357403Y-85263918D01*
G37*
G36*
X131471537Y-85145224D02*
G01*
X131536421Y-85188579D01*
X131579776Y-85253463D01*
X131595000Y-85330000D01*
X131595000Y-85730000D01*
X131579776Y-85806537D01*
X131536421Y-85871421D01*
X131471537Y-85914776D01*
X131395000Y-85930000D01*
X130845000Y-85930000D01*
X130768463Y-85914776D01*
X130703579Y-85871421D01*
X130660224Y-85806537D01*
X130645000Y-85730000D01*
X130645000Y-85330000D01*
X130660224Y-85253463D01*
X130703579Y-85188579D01*
X130768463Y-85145224D01*
X130845000Y-85130000D01*
X131395000Y-85130000D01*
X131471537Y-85145224D01*
G37*
G36*
X142274850Y-84960964D02*
G01*
X142319317Y-84966123D01*
X142334510Y-84972831D01*
X142356104Y-84977127D01*
X142379222Y-84992574D01*
X142396567Y-85000233D01*
X142408412Y-85012078D01*
X142429099Y-85025901D01*
X142442921Y-85046587D01*
X142454766Y-85058432D01*
X142462423Y-85075774D01*
X142477873Y-85098896D01*
X142482168Y-85120491D01*
X142488876Y-85135682D01*
X142494033Y-85180139D01*
X142495000Y-85185000D01*
X142495000Y-85635000D01*
X142494032Y-85639862D01*
X142488876Y-85684317D01*
X142482168Y-85699506D01*
X142477873Y-85721104D01*
X142462422Y-85744227D01*
X142454766Y-85761567D01*
X142442923Y-85773409D01*
X142429099Y-85794099D01*
X142408409Y-85807923D01*
X142396567Y-85819766D01*
X142379227Y-85827422D01*
X142356104Y-85842873D01*
X142334506Y-85847168D01*
X142319317Y-85853876D01*
X142274861Y-85859032D01*
X142270000Y-85860000D01*
X141770000Y-85860000D01*
X141765138Y-85859033D01*
X141720682Y-85853876D01*
X141705491Y-85847168D01*
X141683896Y-85842873D01*
X141660774Y-85827423D01*
X141643432Y-85819766D01*
X141631587Y-85807921D01*
X141610901Y-85794099D01*
X141597078Y-85773412D01*
X141585233Y-85761567D01*
X141577574Y-85744222D01*
X141562127Y-85721104D01*
X141557831Y-85699510D01*
X141551123Y-85684317D01*
X141545964Y-85639849D01*
X141545000Y-85635000D01*
X141545000Y-85185000D01*
X141545964Y-85180150D01*
X141551123Y-85135682D01*
X141557832Y-85120487D01*
X141562127Y-85098896D01*
X141577573Y-85075779D01*
X141585233Y-85058432D01*
X141597080Y-85046584D01*
X141610901Y-85025901D01*
X141631584Y-85012080D01*
X141643432Y-85000233D01*
X141660779Y-84992573D01*
X141683896Y-84977127D01*
X141705487Y-84972832D01*
X141720682Y-84966123D01*
X141765151Y-84960964D01*
X141770000Y-84960000D01*
X142270000Y-84960000D01*
X142274850Y-84960964D01*
G37*
G36*
X127596742Y-83486601D02*
G01*
X127750687Y-83550367D01*
X127889234Y-83642941D01*
X128007059Y-83760766D01*
X128099633Y-83899313D01*
X128163399Y-84053258D01*
X128195907Y-84216685D01*
X128195907Y-84383315D01*
X128163399Y-84546742D01*
X128099633Y-84700687D01*
X128007059Y-84839234D01*
X127889234Y-84957059D01*
X127750687Y-85049633D01*
X127596742Y-85113399D01*
X127433315Y-85145907D01*
X127266685Y-85145907D01*
X127103258Y-85113399D01*
X126949313Y-85049633D01*
X126810766Y-84957059D01*
X126692941Y-84839234D01*
X126600367Y-84700687D01*
X126536601Y-84546742D01*
X126504093Y-84383315D01*
X126504093Y-84216685D01*
X126536601Y-84053258D01*
X126600367Y-83899313D01*
X126692941Y-83760766D01*
X126810766Y-83642941D01*
X126949313Y-83550367D01*
X127103258Y-83486601D01*
X127266685Y-83454093D01*
X127433315Y-83454093D01*
X127596742Y-83486601D01*
G37*
G36*
X145471742Y-83406601D02*
G01*
X145625687Y-83470367D01*
X145764234Y-83562941D01*
X145882059Y-83680766D01*
X145974633Y-83819313D01*
X146038399Y-83973258D01*
X146070907Y-84136685D01*
X146070907Y-84303315D01*
X146038399Y-84466742D01*
X145974633Y-84620687D01*
X145882059Y-84759234D01*
X145764234Y-84877059D01*
X145625687Y-84969633D01*
X145471742Y-85033399D01*
X145308315Y-85065907D01*
X145141685Y-85065907D01*
X144978258Y-85033399D01*
X144824313Y-84969633D01*
X144685766Y-84877059D01*
X144567941Y-84759234D01*
X144475367Y-84620687D01*
X144411601Y-84466742D01*
X144379093Y-84303315D01*
X144379093Y-84136685D01*
X144411601Y-83973258D01*
X144475367Y-83819313D01*
X144567941Y-83680766D01*
X144685766Y-83562941D01*
X144824313Y-83470367D01*
X144978258Y-83406601D01*
X145141685Y-83374093D01*
X145308315Y-83374093D01*
X145471742Y-83406601D01*
G37*
G36*
X133509850Y-82340964D02*
G01*
X133554317Y-82346123D01*
X133569510Y-82352831D01*
X133591104Y-82357127D01*
X133614222Y-82372574D01*
X133631567Y-82380233D01*
X133643412Y-82392078D01*
X133664099Y-82405901D01*
X133677921Y-82426587D01*
X133689766Y-82438432D01*
X133697423Y-82455774D01*
X133712873Y-82478896D01*
X133717168Y-82500491D01*
X133723876Y-82515682D01*
X133729033Y-82560139D01*
X133730000Y-82565000D01*
X133730000Y-83715000D01*
X133729032Y-83719862D01*
X133723876Y-83764317D01*
X133717168Y-83779506D01*
X133712873Y-83801104D01*
X133697422Y-83824227D01*
X133689766Y-83841567D01*
X133677923Y-83853409D01*
X133664099Y-83874099D01*
X133643409Y-83887923D01*
X133631567Y-83899766D01*
X133614227Y-83907422D01*
X133591104Y-83922873D01*
X133569506Y-83927168D01*
X133554317Y-83933876D01*
X133509861Y-83939032D01*
X133505000Y-83940000D01*
X133055000Y-83940000D01*
X133050138Y-83939033D01*
X133005682Y-83933876D01*
X132990491Y-83927168D01*
X132968896Y-83922873D01*
X132945774Y-83907423D01*
X132928432Y-83899766D01*
X132916587Y-83887921D01*
X132895901Y-83874099D01*
X132882078Y-83853412D01*
X132870233Y-83841567D01*
X132862574Y-83824222D01*
X132847127Y-83801104D01*
X132842831Y-83779510D01*
X132836123Y-83764317D01*
X132830964Y-83719849D01*
X132830000Y-83715000D01*
X132830000Y-82565000D01*
X132830964Y-82560150D01*
X132836123Y-82515682D01*
X132842832Y-82500487D01*
X132847127Y-82478896D01*
X132862573Y-82455779D01*
X132870233Y-82438432D01*
X132882080Y-82426584D01*
X132895901Y-82405901D01*
X132916584Y-82392080D01*
X132928432Y-82380233D01*
X132945779Y-82372573D01*
X132968896Y-82357127D01*
X132990487Y-82352832D01*
X133005682Y-82346123D01*
X133050151Y-82340964D01*
X133055000Y-82340000D01*
X133505000Y-82340000D01*
X133509850Y-82340964D01*
G37*
G36*
X134786537Y-82355224D02*
G01*
X134851421Y-82398579D01*
X134894776Y-82463463D01*
X134910000Y-82540000D01*
X134910000Y-83740000D01*
X134894776Y-83816537D01*
X134851421Y-83881421D01*
X134786537Y-83924776D01*
X134710000Y-83940000D01*
X134310000Y-83940000D01*
X134233463Y-83924776D01*
X134168579Y-83881421D01*
X134125224Y-83816537D01*
X134110000Y-83740000D01*
X134110000Y-82540000D01*
X134125224Y-82463463D01*
X134168579Y-82398579D01*
X134233463Y-82355224D01*
X134310000Y-82340000D01*
X134710000Y-82340000D01*
X134786537Y-82355224D01*
G37*
G36*
X135771970Y-82353321D02*
G01*
X135828744Y-82391256D01*
X135866679Y-82448030D01*
X135880000Y-82515000D01*
X135880000Y-83765000D01*
X135866679Y-83831970D01*
X135828744Y-83888744D01*
X135771970Y-83926679D01*
X135705000Y-83940000D01*
X135355000Y-83940000D01*
X135288030Y-83926679D01*
X135231256Y-83888744D01*
X135193321Y-83831970D01*
X135180000Y-83765000D01*
X135180000Y-82515000D01*
X135193321Y-82448030D01*
X135231256Y-82391256D01*
X135288030Y-82353321D01*
X135355000Y-82340000D01*
X135705000Y-82340000D01*
X135771970Y-82353321D01*
G37*
G36*
X136771970Y-82353321D02*
G01*
X136828744Y-82391256D01*
X136866679Y-82448030D01*
X136880000Y-82515000D01*
X136880000Y-83765000D01*
X136866679Y-83831970D01*
X136828744Y-83888744D01*
X136771970Y-83926679D01*
X136705000Y-83940000D01*
X136355000Y-83940000D01*
X136288030Y-83926679D01*
X136231256Y-83888744D01*
X136193321Y-83831970D01*
X136180000Y-83765000D01*
X136180000Y-82515000D01*
X136193321Y-82448030D01*
X136231256Y-82391256D01*
X136288030Y-82353321D01*
X136355000Y-82340000D01*
X136705000Y-82340000D01*
X136771970Y-82353321D01*
G37*
G36*
X137826537Y-82355224D02*
G01*
X137891421Y-82398579D01*
X137934776Y-82463463D01*
X137950000Y-82540000D01*
X137950000Y-83740000D01*
X137934776Y-83816537D01*
X137891421Y-83881421D01*
X137826537Y-83924776D01*
X137750000Y-83940000D01*
X137350000Y-83940000D01*
X137273463Y-83924776D01*
X137208579Y-83881421D01*
X137165224Y-83816537D01*
X137150000Y-83740000D01*
X137150000Y-82540000D01*
X137165224Y-82463463D01*
X137208579Y-82398579D01*
X137273463Y-82355224D01*
X137350000Y-82340000D01*
X137750000Y-82340000D01*
X137826537Y-82355224D01*
G37*
G36*
X139009850Y-82340964D02*
G01*
X139054317Y-82346123D01*
X139069510Y-82352831D01*
X139091104Y-82357127D01*
X139114222Y-82372574D01*
X139131567Y-82380233D01*
X139143412Y-82392078D01*
X139164099Y-82405901D01*
X139177921Y-82426587D01*
X139189766Y-82438432D01*
X139197423Y-82455774D01*
X139212873Y-82478896D01*
X139217168Y-82500491D01*
X139223876Y-82515682D01*
X139229033Y-82560139D01*
X139230000Y-82565000D01*
X139230000Y-83715000D01*
X139229032Y-83719862D01*
X139223876Y-83764317D01*
X139217168Y-83779506D01*
X139212873Y-83801104D01*
X139197422Y-83824227D01*
X139189766Y-83841567D01*
X139177923Y-83853409D01*
X139164099Y-83874099D01*
X139143409Y-83887923D01*
X139131567Y-83899766D01*
X139114227Y-83907422D01*
X139091104Y-83922873D01*
X139069506Y-83927168D01*
X139054317Y-83933876D01*
X139009861Y-83939032D01*
X139005000Y-83940000D01*
X138555000Y-83940000D01*
X138550138Y-83939033D01*
X138505682Y-83933876D01*
X138490491Y-83927168D01*
X138468896Y-83922873D01*
X138445774Y-83907423D01*
X138428432Y-83899766D01*
X138416587Y-83887921D01*
X138395901Y-83874099D01*
X138382078Y-83853412D01*
X138370233Y-83841567D01*
X138362574Y-83824222D01*
X138347127Y-83801104D01*
X138342831Y-83779510D01*
X138336123Y-83764317D01*
X138330964Y-83719849D01*
X138330000Y-83715000D01*
X138330000Y-82565000D01*
X138330964Y-82560150D01*
X138336123Y-82515682D01*
X138342832Y-82500487D01*
X138347127Y-82478896D01*
X138362573Y-82455779D01*
X138370233Y-82438432D01*
X138382080Y-82426584D01*
X138395901Y-82405901D01*
X138416584Y-82392080D01*
X138428432Y-82380233D01*
X138445779Y-82372573D01*
X138468896Y-82357127D01*
X138490487Y-82352832D01*
X138505682Y-82346123D01*
X138550151Y-82340964D01*
X138555000Y-82340000D01*
X139005000Y-82340000D01*
X139009850Y-82340964D01*
G37*
G36*
X131901342Y-82148060D02*
G01*
X132014381Y-82213323D01*
X132106677Y-82305619D01*
X132171940Y-82418658D01*
X132205722Y-82544737D01*
X132210000Y-82610000D01*
X132210000Y-83310000D01*
X132205722Y-83375263D01*
X132171940Y-83501342D01*
X132106677Y-83614381D01*
X132014381Y-83706677D01*
X131901342Y-83771940D01*
X131775263Y-83805722D01*
X131644737Y-83805722D01*
X131518658Y-83771940D01*
X131405619Y-83706677D01*
X131313323Y-83614381D01*
X131248060Y-83501342D01*
X131214278Y-83375263D01*
X131210000Y-83310000D01*
X131210000Y-82610000D01*
X131214278Y-82544737D01*
X131248060Y-82418658D01*
X131313323Y-82305619D01*
X131405619Y-82213323D01*
X131518658Y-82148060D01*
X131644737Y-82114278D01*
X131775263Y-82114278D01*
X131901342Y-82148060D01*
G37*
G36*
X140541342Y-82148060D02*
G01*
X140654381Y-82213323D01*
X140746677Y-82305619D01*
X140811940Y-82418658D01*
X140845722Y-82544737D01*
X140850000Y-82610000D01*
X140850000Y-83310000D01*
X140845722Y-83375263D01*
X140811940Y-83501342D01*
X140746677Y-83614381D01*
X140654381Y-83706677D01*
X140541342Y-83771940D01*
X140415263Y-83805722D01*
X140284737Y-83805722D01*
X140158658Y-83771940D01*
X140045619Y-83706677D01*
X139953323Y-83614381D01*
X139888060Y-83501342D01*
X139854278Y-83375263D01*
X139850000Y-83310000D01*
X139850000Y-82610000D01*
X139854278Y-82544737D01*
X139888060Y-82418658D01*
X139953323Y-82305619D01*
X140045619Y-82213323D01*
X140158658Y-82148060D01*
X140284737Y-82114278D01*
X140415263Y-82114278D01*
X140541342Y-82148060D01*
G37*
G36*
X127596742Y-80946601D02*
G01*
X127750687Y-81010367D01*
X127889234Y-81102941D01*
X128007059Y-81220766D01*
X128099633Y-81359313D01*
X128163399Y-81513258D01*
X128195907Y-81676685D01*
X128195907Y-81843315D01*
X128163399Y-82006742D01*
X128099633Y-82160687D01*
X128007059Y-82299234D01*
X127889234Y-82417059D01*
X127750687Y-82509633D01*
X127596742Y-82573399D01*
X127433315Y-82605907D01*
X127266685Y-82605907D01*
X127103258Y-82573399D01*
X126949313Y-82509633D01*
X126810766Y-82417059D01*
X126692941Y-82299234D01*
X126600367Y-82160687D01*
X126536601Y-82006742D01*
X126504093Y-81843315D01*
X126504093Y-81676685D01*
X126536601Y-81513258D01*
X126600367Y-81359313D01*
X126692941Y-81220766D01*
X126810766Y-81102941D01*
X126949313Y-81010367D01*
X127103258Y-80946601D01*
X127266685Y-80914093D01*
X127433315Y-80914093D01*
X127596742Y-80946601D01*
G37*
G36*
X145471742Y-80866601D02*
G01*
X145625687Y-80930367D01*
X145764234Y-81022941D01*
X145882059Y-81140766D01*
X145974633Y-81279313D01*
X146038399Y-81433258D01*
X146070907Y-81596685D01*
X146070907Y-81763315D01*
X146038399Y-81926742D01*
X145974633Y-82080687D01*
X145882059Y-82219234D01*
X145764234Y-82337059D01*
X145625687Y-82429633D01*
X145471742Y-82493399D01*
X145308315Y-82525907D01*
X145141685Y-82525907D01*
X144978258Y-82493399D01*
X144824313Y-82429633D01*
X144685766Y-82337059D01*
X144567941Y-82219234D01*
X144475367Y-82080687D01*
X144411601Y-81926742D01*
X144379093Y-81763315D01*
X144379093Y-81596685D01*
X144411601Y-81433258D01*
X144475367Y-81279313D01*
X144567941Y-81140766D01*
X144685766Y-81022941D01*
X144824313Y-80930367D01*
X144978258Y-80866601D01*
X145141685Y-80834093D01*
X145308315Y-80834093D01*
X145471742Y-80866601D01*
G37*
G36*
X128200000Y-80070000D02*
G01*
X126500000Y-80070000D01*
X126500000Y-78370000D01*
X128200000Y-78370000D01*
X128200000Y-80070000D01*
G37*
G36*
X131901342Y-78348060D02*
G01*
X132014381Y-78413323D01*
X132106677Y-78505619D01*
X132171940Y-78618658D01*
X132205722Y-78744737D01*
X132210000Y-78810000D01*
X132210000Y-79510000D01*
X132205722Y-79575263D01*
X132171940Y-79701342D01*
X132106677Y-79814381D01*
X132014381Y-79906677D01*
X131901342Y-79971940D01*
X131775263Y-80005722D01*
X131644737Y-80005722D01*
X131518658Y-79971940D01*
X131405619Y-79906677D01*
X131313323Y-79814381D01*
X131248060Y-79701342D01*
X131214278Y-79575263D01*
X131210000Y-79510000D01*
X131210000Y-78810000D01*
X131214278Y-78744737D01*
X131248060Y-78618658D01*
X131313323Y-78505619D01*
X131405619Y-78413323D01*
X131518658Y-78348060D01*
X131644737Y-78314278D01*
X131775263Y-78314278D01*
X131901342Y-78348060D01*
G37*
G36*
X140541342Y-78348060D02*
G01*
X140654381Y-78413323D01*
X140746677Y-78505619D01*
X140811940Y-78618658D01*
X140845722Y-78744737D01*
X140850000Y-78810000D01*
X140850000Y-79510000D01*
X140845722Y-79575263D01*
X140811940Y-79701342D01*
X140746677Y-79814381D01*
X140654381Y-79906677D01*
X140541342Y-79971940D01*
X140415263Y-80005722D01*
X140284737Y-80005722D01*
X140158658Y-79971940D01*
X140045619Y-79906677D01*
X139953323Y-79814381D01*
X139888060Y-79701342D01*
X139854278Y-79575263D01*
X139850000Y-79510000D01*
X139850000Y-78810000D01*
X139854278Y-78744737D01*
X139888060Y-78618658D01*
X139953323Y-78505619D01*
X140045619Y-78413323D01*
X140158658Y-78348060D01*
X140284737Y-78314278D01*
X140415263Y-78314278D01*
X140541342Y-78348060D01*
G37*
G36*
X146075000Y-79990000D02*
G01*
X144375000Y-79990000D01*
X144375000Y-78290000D01*
X146075000Y-78290000D01*
X146075000Y-79990000D01*
G37*
M02*
