%TF.GenerationSoftware,KiCad,Pcbnew,9.0.8+dfsg-1*%
%TF.CreationDate,2026-09-10T22:42:21+05:30*%
%TF.ProjectId,OLED_Sensor_Interface_Board,4f4c4544-5f53-4656-9e73-6f725f496e74,rev?*%
%TF.SameCoordinates,Original*%
%TF.FileFunction,Legend,Top*%
%TF.FilePolarity,Positive*%
%FSLAX46Y46*%
G04 Gerber Fmt 4.6, Leading zero omitted, Abs format (unit mm)*
G04 Created by KiCad (PCBNEW 9.0.8+dfsg-1) date 2026-09-10 22:42:21*
%MOMM*%
%LPD*%
G01*
G04 APERTURE LIST*
%ADD10C,0.150000*%
%ADD11C,0.120000*%
%ADD12C,0.100000*%
G04 APERTURE END LIST*
D10*
X135123333Y-96444819D02*
X134790000Y-95968628D01*
X134551905Y-96444819D02*
X134551905Y-95444819D01*
X134551905Y-95444819D02*
X134932857Y-95444819D01*
X134932857Y-95444819D02*
X135028095Y-95492438D01*
X135028095Y-95492438D02*
X135075714Y-95540057D01*
X135075714Y-95540057D02*
X135123333Y-95635295D01*
X135123333Y-95635295D02*
X135123333Y-95778152D01*
X135123333Y-95778152D02*
X135075714Y-95873390D01*
X135075714Y-95873390D02*
X135028095Y-95921009D01*
X135028095Y-95921009D02*
X134932857Y-95968628D01*
X134932857Y-95968628D02*
X134551905Y-95968628D01*
X136075714Y-96444819D02*
X135504286Y-96444819D01*
X135790000Y-96444819D02*
X135790000Y-95444819D01*
X135790000Y-95444819D02*
X135694762Y-95587676D01*
X135694762Y-95587676D02*
X135599524Y-95682914D01*
X135599524Y-95682914D02*
X135504286Y-95730533D01*
X145343333Y-94979580D02*
X145295714Y-95027200D01*
X145295714Y-95027200D02*
X145152857Y-95074819D01*
X145152857Y-95074819D02*
X145057619Y-95074819D01*
X145057619Y-95074819D02*
X144914762Y-95027200D01*
X144914762Y-95027200D02*
X144819524Y-94931961D01*
X144819524Y-94931961D02*
X144771905Y-94836723D01*
X144771905Y-94836723D02*
X144724286Y-94646247D01*
X144724286Y-94646247D02*
X144724286Y-94503390D01*
X144724286Y-94503390D02*
X144771905Y-94312914D01*
X144771905Y-94312914D02*
X144819524Y-94217676D01*
X144819524Y-94217676D02*
X144914762Y-94122438D01*
X144914762Y-94122438D02*
X145057619Y-94074819D01*
X145057619Y-94074819D02*
X145152857Y-94074819D01*
X145152857Y-94074819D02*
X145295714Y-94122438D01*
X145295714Y-94122438D02*
X145343333Y-94170057D01*
X146295714Y-95074819D02*
X145724286Y-95074819D01*
X146010000Y-95074819D02*
X146010000Y-94074819D01*
X146010000Y-94074819D02*
X145914762Y-94217676D01*
X145914762Y-94217676D02*
X145819524Y-94312914D01*
X145819524Y-94312914D02*
X145724286Y-94360533D01*
X141243333Y-96554819D02*
X140910000Y-96078628D01*
X140671905Y-96554819D02*
X140671905Y-95554819D01*
X140671905Y-95554819D02*
X141052857Y-95554819D01*
X141052857Y-95554819D02*
X141148095Y-95602438D01*
X141148095Y-95602438D02*
X141195714Y-95650057D01*
X141195714Y-95650057D02*
X141243333Y-95745295D01*
X141243333Y-95745295D02*
X141243333Y-95888152D01*
X141243333Y-95888152D02*
X141195714Y-95983390D01*
X141195714Y-95983390D02*
X141148095Y-96031009D01*
X141148095Y-96031009D02*
X141052857Y-96078628D01*
X141052857Y-96078628D02*
X140671905Y-96078628D01*
X141624286Y-95650057D02*
X141671905Y-95602438D01*
X141671905Y-95602438D02*
X141767143Y-95554819D01*
X141767143Y-95554819D02*
X142005238Y-95554819D01*
X142005238Y-95554819D02*
X142100476Y-95602438D01*
X142100476Y-95602438D02*
X142148095Y-95650057D01*
X142148095Y-95650057D02*
X142195714Y-95745295D01*
X142195714Y-95745295D02*
X142195714Y-95840533D01*
X142195714Y-95840533D02*
X142148095Y-95983390D01*
X142148095Y-95983390D02*
X141576667Y-96554819D01*
X141576667Y-96554819D02*
X142195714Y-96554819D01*
X143164819Y-87883333D02*
X143879104Y-87883333D01*
X143879104Y-87883333D02*
X144021961Y-87930952D01*
X144021961Y-87930952D02*
X144117200Y-88026190D01*
X144117200Y-88026190D02*
X144164819Y-88169047D01*
X144164819Y-88169047D02*
X144164819Y-88264285D01*
X143164819Y-87502380D02*
X143164819Y-86883333D01*
X143164819Y-86883333D02*
X143545771Y-87216666D01*
X143545771Y-87216666D02*
X143545771Y-87073809D01*
X143545771Y-87073809D02*
X143593390Y-86978571D01*
X143593390Y-86978571D02*
X143641009Y-86930952D01*
X143641009Y-86930952D02*
X143736247Y-86883333D01*
X143736247Y-86883333D02*
X143974342Y-86883333D01*
X143974342Y-86883333D02*
X144069580Y-86930952D01*
X144069580Y-86930952D02*
X144117200Y-86978571D01*
X144117200Y-86978571D02*
X144164819Y-87073809D01*
X144164819Y-87073809D02*
X144164819Y-87359523D01*
X144164819Y-87359523D02*
X144117200Y-87454761D01*
X144117200Y-87454761D02*
X144069580Y-87502380D01*
X138054819Y-86583333D02*
X138769104Y-86583333D01*
X138769104Y-86583333D02*
X138911961Y-86630952D01*
X138911961Y-86630952D02*
X139007200Y-86726190D01*
X139007200Y-86726190D02*
X139054819Y-86869047D01*
X139054819Y-86869047D02*
X139054819Y-86964285D01*
X138150057Y-86154761D02*
X138102438Y-86107142D01*
X138102438Y-86107142D02*
X138054819Y-86011904D01*
X138054819Y-86011904D02*
X138054819Y-85773809D01*
X138054819Y-85773809D02*
X138102438Y-85678571D01*
X138102438Y-85678571D02*
X138150057Y-85630952D01*
X138150057Y-85630952D02*
X138245295Y-85583333D01*
X138245295Y-85583333D02*
X138340533Y-85583333D01*
X138340533Y-85583333D02*
X138483390Y-85630952D01*
X138483390Y-85630952D02*
X139054819Y-86202380D01*
X139054819Y-86202380D02*
X139054819Y-85583333D01*
X137558095Y-94174819D02*
X137558095Y-94984342D01*
X137558095Y-94984342D02*
X137605714Y-95079580D01*
X137605714Y-95079580D02*
X137653333Y-95127200D01*
X137653333Y-95127200D02*
X137748571Y-95174819D01*
X137748571Y-95174819D02*
X137939047Y-95174819D01*
X137939047Y-95174819D02*
X138034285Y-95127200D01*
X138034285Y-95127200D02*
X138081904Y-95079580D01*
X138081904Y-95079580D02*
X138129523Y-94984342D01*
X138129523Y-94984342D02*
X138129523Y-94174819D01*
X139129523Y-95174819D02*
X138558095Y-95174819D01*
X138843809Y-95174819D02*
X138843809Y-94174819D01*
X138843809Y-94174819D02*
X138748571Y-94317676D01*
X138748571Y-94317676D02*
X138653333Y-94412914D01*
X138653333Y-94412914D02*
X138558095Y-94460533D01*
X139778095Y-100246819D02*
X140349523Y-100246819D01*
X140063809Y-101246819D02*
X140063809Y-100246819D01*
X140682857Y-101246819D02*
X140682857Y-100246819D01*
X140682857Y-100246819D02*
X141063809Y-100246819D01*
X141063809Y-100246819D02*
X141159047Y-100294438D01*
X141159047Y-100294438D02*
X141206666Y-100342057D01*
X141206666Y-100342057D02*
X141254285Y-100437295D01*
X141254285Y-100437295D02*
X141254285Y-100580152D01*
X141254285Y-100580152D02*
X141206666Y-100675390D01*
X141206666Y-100675390D02*
X141159047Y-100723009D01*
X141159047Y-100723009D02*
X141063809Y-100770628D01*
X141063809Y-100770628D02*
X140682857Y-100770628D01*
X142111428Y-100580152D02*
X142111428Y-101246819D01*
X141873333Y-100199200D02*
X141635238Y-100913485D01*
X141635238Y-100913485D02*
X142254285Y-100913485D01*
X128178095Y-92966819D02*
X128749523Y-92966819D01*
X128463809Y-93966819D02*
X128463809Y-92966819D01*
X129082857Y-93966819D02*
X129082857Y-92966819D01*
X129082857Y-92966819D02*
X129463809Y-92966819D01*
X129463809Y-92966819D02*
X129559047Y-93014438D01*
X129559047Y-93014438D02*
X129606666Y-93062057D01*
X129606666Y-93062057D02*
X129654285Y-93157295D01*
X129654285Y-93157295D02*
X129654285Y-93300152D01*
X129654285Y-93300152D02*
X129606666Y-93395390D01*
X129606666Y-93395390D02*
X129559047Y-93443009D01*
X129559047Y-93443009D02*
X129463809Y-93490628D01*
X129463809Y-93490628D02*
X129082857Y-93490628D01*
X129987619Y-92966819D02*
X130606666Y-92966819D01*
X130606666Y-92966819D02*
X130273333Y-93347771D01*
X130273333Y-93347771D02*
X130416190Y-93347771D01*
X130416190Y-93347771D02*
X130511428Y-93395390D01*
X130511428Y-93395390D02*
X130559047Y-93443009D01*
X130559047Y-93443009D02*
X130606666Y-93538247D01*
X130606666Y-93538247D02*
X130606666Y-93776342D01*
X130606666Y-93776342D02*
X130559047Y-93871580D01*
X130559047Y-93871580D02*
X130511428Y-93919200D01*
X130511428Y-93919200D02*
X130416190Y-93966819D01*
X130416190Y-93966819D02*
X130130476Y-93966819D01*
X130130476Y-93966819D02*
X130035238Y-93919200D01*
X130035238Y-93919200D02*
X129987619Y-93871580D01*
X135178095Y-100216819D02*
X135749523Y-100216819D01*
X135463809Y-101216819D02*
X135463809Y-100216819D01*
X136082857Y-101216819D02*
X136082857Y-100216819D01*
X136082857Y-100216819D02*
X136463809Y-100216819D01*
X136463809Y-100216819D02*
X136559047Y-100264438D01*
X136559047Y-100264438D02*
X136606666Y-100312057D01*
X136606666Y-100312057D02*
X136654285Y-100407295D01*
X136654285Y-100407295D02*
X136654285Y-100550152D01*
X136654285Y-100550152D02*
X136606666Y-100645390D01*
X136606666Y-100645390D02*
X136559047Y-100693009D01*
X136559047Y-100693009D02*
X136463809Y-100740628D01*
X136463809Y-100740628D02*
X136082857Y-100740628D01*
X137035238Y-100312057D02*
X137082857Y-100264438D01*
X137082857Y-100264438D02*
X137178095Y-100216819D01*
X137178095Y-100216819D02*
X137416190Y-100216819D01*
X137416190Y-100216819D02*
X137511428Y-100264438D01*
X137511428Y-100264438D02*
X137559047Y-100312057D01*
X137559047Y-100312057D02*
X137606666Y-100407295D01*
X137606666Y-100407295D02*
X137606666Y-100502533D01*
X137606666Y-100502533D02*
X137559047Y-100645390D01*
X137559047Y-100645390D02*
X136987619Y-101216819D01*
X136987619Y-101216819D02*
X137606666Y-101216819D01*
X128208095Y-89496819D02*
X128779523Y-89496819D01*
X128493809Y-90496819D02*
X128493809Y-89496819D01*
X129112857Y-90496819D02*
X129112857Y-89496819D01*
X129112857Y-89496819D02*
X129493809Y-89496819D01*
X129493809Y-89496819D02*
X129589047Y-89544438D01*
X129589047Y-89544438D02*
X129636666Y-89592057D01*
X129636666Y-89592057D02*
X129684285Y-89687295D01*
X129684285Y-89687295D02*
X129684285Y-89830152D01*
X129684285Y-89830152D02*
X129636666Y-89925390D01*
X129636666Y-89925390D02*
X129589047Y-89973009D01*
X129589047Y-89973009D02*
X129493809Y-90020628D01*
X129493809Y-90020628D02*
X129112857Y-90020628D01*
X130636666Y-90496819D02*
X130065238Y-90496819D01*
X130350952Y-90496819D02*
X130350952Y-89496819D01*
X130350952Y-89496819D02*
X130255714Y-89639676D01*
X130255714Y-89639676D02*
X130160476Y-89734914D01*
X130160476Y-89734914D02*
X130065238Y-89782533D01*
X148536666Y-88209819D02*
X148536666Y-88924104D01*
X148536666Y-88924104D02*
X148489047Y-89066961D01*
X148489047Y-89066961D02*
X148393809Y-89162200D01*
X148393809Y-89162200D02*
X148250952Y-89209819D01*
X148250952Y-89209819D02*
X148155714Y-89209819D01*
X149536666Y-89209819D02*
X148965238Y-89209819D01*
X149250952Y-89209819D02*
X149250952Y-88209819D01*
X149250952Y-88209819D02*
X149155714Y-88352676D01*
X149155714Y-88352676D02*
X149060476Y-88447914D01*
X149060476Y-88447914D02*
X148965238Y-88495533D01*
X130828095Y-88754819D02*
X130828095Y-87754819D01*
X130828095Y-88231009D02*
X131399523Y-88231009D01*
X131399523Y-88754819D02*
X131399523Y-87754819D01*
X132304285Y-88088152D02*
X132304285Y-88754819D01*
X132066190Y-87707200D02*
X131828095Y-88421485D01*
X131828095Y-88421485D02*
X132447142Y-88421485D01*
X128988095Y-97374819D02*
X128988095Y-96374819D01*
X128988095Y-96851009D02*
X129559523Y-96851009D01*
X129559523Y-97374819D02*
X129559523Y-96374819D01*
X129940476Y-96374819D02*
X130559523Y-96374819D01*
X130559523Y-96374819D02*
X130226190Y-96755771D01*
X130226190Y-96755771D02*
X130369047Y-96755771D01*
X130369047Y-96755771D02*
X130464285Y-96803390D01*
X130464285Y-96803390D02*
X130511904Y-96851009D01*
X130511904Y-96851009D02*
X130559523Y-96946247D01*
X130559523Y-96946247D02*
X130559523Y-97184342D01*
X130559523Y-97184342D02*
X130511904Y-97279580D01*
X130511904Y-97279580D02*
X130464285Y-97327200D01*
X130464285Y-97327200D02*
X130369047Y-97374819D01*
X130369047Y-97374819D02*
X130083333Y-97374819D01*
X130083333Y-97374819D02*
X129988095Y-97327200D01*
X129988095Y-97327200D02*
X129940476Y-97279580D01*
X146168095Y-97484819D02*
X146168095Y-96484819D01*
X146168095Y-96961009D02*
X146739523Y-96961009D01*
X146739523Y-97484819D02*
X146739523Y-96484819D01*
X147168095Y-96580057D02*
X147215714Y-96532438D01*
X147215714Y-96532438D02*
X147310952Y-96484819D01*
X147310952Y-96484819D02*
X147549047Y-96484819D01*
X147549047Y-96484819D02*
X147644285Y-96532438D01*
X147644285Y-96532438D02*
X147691904Y-96580057D01*
X147691904Y-96580057D02*
X147739523Y-96675295D01*
X147739523Y-96675295D02*
X147739523Y-96770533D01*
X147739523Y-96770533D02*
X147691904Y-96913390D01*
X147691904Y-96913390D02*
X147120476Y-97484819D01*
X147120476Y-97484819D02*
X147739523Y-97484819D01*
X145218095Y-88834819D02*
X145218095Y-87834819D01*
X145218095Y-88311009D02*
X145789523Y-88311009D01*
X145789523Y-88834819D02*
X145789523Y-87834819D01*
X146789523Y-88834819D02*
X146218095Y-88834819D01*
X146503809Y-88834819D02*
X146503809Y-87834819D01*
X146503809Y-87834819D02*
X146408571Y-87977676D01*
X146408571Y-87977676D02*
X146313333Y-88072914D01*
X146313333Y-88072914D02*
X146218095Y-88120533D01*
D11*
%TO.C,R1*%
X135257742Y-94282500D02*
X135732258Y-94282500D01*
X135257742Y-93237500D02*
X135732258Y-93237500D01*
%TO.C,C1*%
X145060000Y-91964420D02*
X145060000Y-92245580D01*
X146080000Y-91964420D02*
X146080000Y-92245580D01*
%TO.C,R2*%
X140392742Y-94292500D02*
X140867258Y-94292500D01*
X140392742Y-93247500D02*
X140867258Y-93247500D01*
%TO.C,J3*%
X142400000Y-83470000D02*
X142400000Y-91200000D01*
X139640000Y-91200000D02*
X142400000Y-91200000D01*
X139640000Y-83470000D02*
X142400000Y-83470000D01*
X139640000Y-83470000D02*
X139640000Y-91200000D01*
X139640000Y-82200000D02*
X139640000Y-80820000D01*
X139640000Y-80820000D02*
X141020000Y-80820000D01*
%TO.C,J2*%
X137560000Y-83450000D02*
X137560000Y-91180000D01*
X134800000Y-91180000D02*
X137560000Y-91180000D01*
X134800000Y-83450000D02*
X137560000Y-83450000D01*
X134800000Y-83450000D02*
X134800000Y-91180000D01*
X134800000Y-82180000D02*
X134800000Y-80800000D01*
X134800000Y-80800000D02*
X136180000Y-80800000D01*
D12*
%TO.C,U1*%
X136955000Y-98535000D02*
X136955000Y-98385000D01*
X136955000Y-98545000D02*
X137105000Y-98545000D01*
X139505000Y-95835000D02*
X139655000Y-95835000D01*
X139655000Y-95835000D02*
X139655000Y-95985000D01*
X139655000Y-98535000D02*
X139505000Y-98535000D01*
X139655000Y-98535000D02*
X139655000Y-98385000D01*
D11*
X136955000Y-95835000D02*
X136595000Y-95835000D01*
X136955000Y-95475000D01*
X136955000Y-95835000D01*
G36*
X136955000Y-95835000D02*
G01*
X136595000Y-95835000D01*
X136955000Y-95475000D01*
X136955000Y-95835000D01*
G37*
%TO.C,TP4*%
X141990000Y-102440000D02*
G75*
G02*
X140090000Y-102440000I-950000J0D01*
G01*
X140090000Y-102440000D02*
G75*
G02*
X141990000Y-102440000I950000J0D01*
G01*
%TO.C,TP3*%
X130390000Y-95160000D02*
G75*
G02*
X128490000Y-95160000I-950000J0D01*
G01*
X128490000Y-95160000D02*
G75*
G02*
X130390000Y-95160000I950000J0D01*
G01*
%TO.C,TP2*%
X137390000Y-102410000D02*
G75*
G02*
X135490000Y-102410000I-950000J0D01*
G01*
X135490000Y-102410000D02*
G75*
G02*
X137390000Y-102410000I950000J0D01*
G01*
%TO.C,TP1*%
X130420000Y-91690000D02*
G75*
G02*
X128520000Y-91690000I-950000J0D01*
G01*
X128520000Y-91690000D02*
G75*
G02*
X130420000Y-91690000I950000J0D01*
G01*
%TO.C,J1*%
X147490000Y-89755000D02*
X148870000Y-89755000D01*
X147490000Y-91135000D02*
X147490000Y-89755000D01*
X147490000Y-92405000D02*
X147490000Y-95055000D01*
X147490000Y-92405000D02*
X150250000Y-92405000D01*
X147490000Y-95055000D02*
X150250000Y-95055000D01*
X150250000Y-92405000D02*
X150250000Y-95055000D01*
%TD*%
M02*
