%TF.GenerationSoftware,KiCad,Pcbnew,9.0.8+dfsg-1*%
%TF.CreationDate,2026-09-10T22:42:21+05:30*%
%TF.ProjectId,OLED_Sensor_Interface_Board,4f4c4544-5f53-4656-9e73-6f725f496e74,rev?*%
%TF.SameCoordinates,Original*%
%TF.FileFunction,Soldermask,Top*%
%TF.FilePolarity,Negative*%
%FSLAX46Y46*%
G04 Gerber Fmt 4.6, Leading zero omitted, Abs format (unit mm)*
G04 Created by KiCad (PCBNEW 9.0.8+dfsg-1) date 2026-09-10 22:42:21*
%MOMM*%
%LPD*%
G01*
G04 APERTURE LIST*
G04 APERTURE END LIST*
G36*
X141257714Y-101722295D02*
G01*
X141393548Y-101778559D01*
X141515795Y-101860242D01*
X141619758Y-101964205D01*
X141701441Y-102086452D01*
X141757705Y-102222286D01*
X141786389Y-102366487D01*
X141786389Y-102513513D01*
X141757705Y-102657714D01*
X141701441Y-102793548D01*
X141619758Y-102915795D01*
X141515795Y-103019758D01*
X141393548Y-103101441D01*
X141257714Y-103157705D01*
X141113513Y-103186389D01*
X140966487Y-103186389D01*
X140822286Y-103157705D01*
X140686452Y-103101441D01*
X140564205Y-103019758D01*
X140460242Y-102915795D01*
X140378559Y-102793548D01*
X140322295Y-102657714D01*
X140293611Y-102513513D01*
X140293611Y-102366487D01*
X140322295Y-102222286D01*
X140378559Y-102086452D01*
X140460242Y-101964205D01*
X140564205Y-101860242D01*
X140686452Y-101778559D01*
X140822286Y-101722295D01*
X140966487Y-101693611D01*
X141113513Y-101693611D01*
X141257714Y-101722295D01*
G37*
G36*
X136657714Y-101692295D02*
G01*
X136793548Y-101748559D01*
X136915795Y-101830242D01*
X137019758Y-101934205D01*
X137101441Y-102056452D01*
X137157705Y-102192286D01*
X137186389Y-102336487D01*
X137186389Y-102483513D01*
X137157705Y-102627714D01*
X137101441Y-102763548D01*
X137019758Y-102885795D01*
X136915795Y-102989758D01*
X136793548Y-103071441D01*
X136657714Y-103127705D01*
X136513513Y-103156389D01*
X136366487Y-103156389D01*
X136222286Y-103127705D01*
X136086452Y-103071441D01*
X135964205Y-102989758D01*
X135860242Y-102885795D01*
X135778559Y-102763548D01*
X135722295Y-102627714D01*
X135693611Y-102483513D01*
X135693611Y-102336487D01*
X135722295Y-102192286D01*
X135778559Y-102056452D01*
X135860242Y-101934205D01*
X135964205Y-101830242D01*
X136086452Y-101748559D01*
X136222286Y-101692295D01*
X136366487Y-101663611D01*
X136513513Y-101663611D01*
X136657714Y-101692295D01*
G37*
G36*
X147303513Y-99624208D02*
G01*
X147542293Y-99701793D01*
X147765998Y-99815776D01*
X147969117Y-99963350D01*
X148146650Y-100140883D01*
X148294224Y-100344002D01*
X148408207Y-100567707D01*
X148485792Y-100806487D01*
X148525068Y-101054465D01*
X148525068Y-101305535D01*
X148485792Y-101553513D01*
X148408207Y-101792293D01*
X148294224Y-102015998D01*
X148146650Y-102219117D01*
X147969117Y-102396650D01*
X147765998Y-102544224D01*
X147542293Y-102658207D01*
X147303513Y-102735792D01*
X147055535Y-102775068D01*
X146804465Y-102775068D01*
X146556487Y-102735792D01*
X146317707Y-102658207D01*
X146094002Y-102544224D01*
X145890883Y-102396650D01*
X145713350Y-102219117D01*
X145565776Y-102015998D01*
X145451793Y-101792293D01*
X145374208Y-101553513D01*
X145334932Y-101305535D01*
X145334932Y-101054465D01*
X145374208Y-100806487D01*
X145451793Y-100567707D01*
X145565776Y-100344002D01*
X145713350Y-100140883D01*
X145890883Y-99963350D01*
X146094002Y-99815776D01*
X146317707Y-99701793D01*
X146556487Y-99624208D01*
X146804465Y-99584932D01*
X147055535Y-99584932D01*
X147303513Y-99624208D01*
G37*
G36*
X130123513Y-99514208D02*
G01*
X130362293Y-99591793D01*
X130585998Y-99705776D01*
X130789117Y-99853350D01*
X130966650Y-100030883D01*
X131114224Y-100234002D01*
X131228207Y-100457707D01*
X131305792Y-100696487D01*
X131345068Y-100944465D01*
X131345068Y-101195535D01*
X131305792Y-101443513D01*
X131228207Y-101682293D01*
X131114224Y-101905998D01*
X130966650Y-102109117D01*
X130789117Y-102286650D01*
X130585998Y-102434224D01*
X130362293Y-102548207D01*
X130123513Y-102625792D01*
X129875535Y-102665068D01*
X129624465Y-102665068D01*
X129376487Y-102625792D01*
X129137707Y-102548207D01*
X128914002Y-102434224D01*
X128710883Y-102286650D01*
X128533350Y-102109117D01*
X128385776Y-101905998D01*
X128271793Y-101682293D01*
X128194208Y-101443513D01*
X128154932Y-101195535D01*
X128154932Y-100944465D01*
X128194208Y-100696487D01*
X128271793Y-100457707D01*
X128385776Y-100234002D01*
X128533350Y-100030883D01*
X128710883Y-99853350D01*
X128914002Y-99705776D01*
X129137707Y-99591793D01*
X129376487Y-99514208D01*
X129624465Y-99474932D01*
X129875535Y-99474932D01*
X130123513Y-99514208D01*
G37*
G36*
X137505000Y-98460000D02*
G01*
X137155000Y-98460000D01*
X137155000Y-97960000D01*
X137505000Y-97960000D01*
X137505000Y-98460000D01*
G37*
G36*
X138155000Y-98460000D02*
G01*
X137805000Y-98460000D01*
X137805000Y-97960000D01*
X138155000Y-97960000D01*
X138155000Y-98460000D01*
G37*
G36*
X138805000Y-98460000D02*
G01*
X138455000Y-98460000D01*
X138455000Y-97960000D01*
X138805000Y-97960000D01*
X138805000Y-98460000D01*
G37*
G36*
X139455000Y-98460000D02*
G01*
X139105000Y-98460000D01*
X139105000Y-97960000D01*
X139455000Y-97960000D01*
X139455000Y-98460000D01*
G37*
G36*
X137505000Y-96410000D02*
G01*
X137155000Y-96410000D01*
X137155000Y-95910000D01*
X137505000Y-95910000D01*
X137505000Y-96410000D01*
G37*
G36*
X138155000Y-96410000D02*
G01*
X137805000Y-96410000D01*
X137805000Y-95910000D01*
X138155000Y-95910000D01*
X138155000Y-96410000D01*
G37*
G36*
X138805000Y-96410000D02*
G01*
X138455000Y-96410000D01*
X138455000Y-95910000D01*
X138805000Y-95910000D01*
X138805000Y-96410000D01*
G37*
G36*
X139455000Y-96410000D02*
G01*
X139105000Y-96410000D01*
X139105000Y-95910000D01*
X139455000Y-95910000D01*
X139455000Y-96410000D01*
G37*
G36*
X129657714Y-94442295D02*
G01*
X129793548Y-94498559D01*
X129915795Y-94580242D01*
X130019758Y-94684205D01*
X130101441Y-94806452D01*
X130157705Y-94942286D01*
X130186389Y-95086487D01*
X130186389Y-95233513D01*
X130157705Y-95377714D01*
X130101441Y-95513548D01*
X130019758Y-95635795D01*
X129915795Y-95739758D01*
X129793548Y-95821441D01*
X129657714Y-95877705D01*
X129513513Y-95906389D01*
X129366487Y-95906389D01*
X129222286Y-95877705D01*
X129086452Y-95821441D01*
X128964205Y-95739758D01*
X128860242Y-95635795D01*
X128778559Y-95513548D01*
X128722295Y-95377714D01*
X128693611Y-95233513D01*
X128693611Y-95086487D01*
X128722295Y-94942286D01*
X128778559Y-94806452D01*
X128860242Y-94684205D01*
X128964205Y-94580242D01*
X129086452Y-94498559D01*
X129222286Y-94442295D01*
X129366487Y-94413611D01*
X129513513Y-94413611D01*
X129657714Y-94442295D01*
G37*
G36*
X149116742Y-92861601D02*
G01*
X149270687Y-92925367D01*
X149409234Y-93017941D01*
X149527059Y-93135766D01*
X149619633Y-93274313D01*
X149683399Y-93428258D01*
X149715907Y-93591685D01*
X149715907Y-93758315D01*
X149683399Y-93921742D01*
X149619633Y-94075687D01*
X149527059Y-94214234D01*
X149409234Y-94332059D01*
X149270687Y-94424633D01*
X149116742Y-94488399D01*
X148953315Y-94520907D01*
X148786685Y-94520907D01*
X148623258Y-94488399D01*
X148469313Y-94424633D01*
X148330766Y-94332059D01*
X148212941Y-94214234D01*
X148120367Y-94075687D01*
X148056601Y-93921742D01*
X148024093Y-93758315D01*
X148024093Y-93591685D01*
X148056601Y-93428258D01*
X148120367Y-93274313D01*
X148212941Y-93135766D01*
X148330766Y-93017941D01*
X148469313Y-92925367D01*
X148623258Y-92861601D01*
X148786685Y-92829093D01*
X148953315Y-92829093D01*
X149116742Y-92861601D01*
G37*
G36*
X140081537Y-93310224D02*
G01*
X140146421Y-93353579D01*
X140189776Y-93418463D01*
X140205000Y-93495000D01*
X140205000Y-94045000D01*
X140189776Y-94121537D01*
X140146421Y-94186421D01*
X140081537Y-94229776D01*
X140005000Y-94245000D01*
X139605000Y-94245000D01*
X139528463Y-94229776D01*
X139463579Y-94186421D01*
X139420224Y-94121537D01*
X139405000Y-94045000D01*
X139405000Y-93495000D01*
X139420224Y-93418463D01*
X139463579Y-93353579D01*
X139528463Y-93310224D01*
X139605000Y-93295000D01*
X140005000Y-93295000D01*
X140081537Y-93310224D01*
G37*
G36*
X141731537Y-93310224D02*
G01*
X141796421Y-93353579D01*
X141839776Y-93418463D01*
X141855000Y-93495000D01*
X141855000Y-94045000D01*
X141839776Y-94121537D01*
X141796421Y-94186421D01*
X141731537Y-94229776D01*
X141655000Y-94245000D01*
X141255000Y-94245000D01*
X141178463Y-94229776D01*
X141113579Y-94186421D01*
X141070224Y-94121537D01*
X141055000Y-94045000D01*
X141055000Y-93495000D01*
X141070224Y-93418463D01*
X141113579Y-93353579D01*
X141178463Y-93310224D01*
X141255000Y-93295000D01*
X141655000Y-93295000D01*
X141731537Y-93310224D01*
G37*
G36*
X134946537Y-93300224D02*
G01*
X135011421Y-93343579D01*
X135054776Y-93408463D01*
X135070000Y-93485000D01*
X135070000Y-94035000D01*
X135054776Y-94111537D01*
X135011421Y-94176421D01*
X134946537Y-94219776D01*
X134870000Y-94235000D01*
X134470000Y-94235000D01*
X134393463Y-94219776D01*
X134328579Y-94176421D01*
X134285224Y-94111537D01*
X134270000Y-94035000D01*
X134270000Y-93485000D01*
X134285224Y-93408463D01*
X134328579Y-93343579D01*
X134393463Y-93300224D01*
X134470000Y-93285000D01*
X134870000Y-93285000D01*
X134946537Y-93300224D01*
G37*
G36*
X136596537Y-93300224D02*
G01*
X136661421Y-93343579D01*
X136704776Y-93408463D01*
X136720000Y-93485000D01*
X136720000Y-94035000D01*
X136704776Y-94111537D01*
X136661421Y-94176421D01*
X136596537Y-94219776D01*
X136520000Y-94235000D01*
X136120000Y-94235000D01*
X136043463Y-94219776D01*
X135978579Y-94176421D01*
X135935224Y-94111537D01*
X135920000Y-94035000D01*
X135920000Y-93485000D01*
X135935224Y-93408463D01*
X135978579Y-93343579D01*
X136043463Y-93300224D01*
X136120000Y-93285000D01*
X136520000Y-93285000D01*
X136596537Y-93300224D01*
G37*
G36*
X145824850Y-92430964D02*
G01*
X145869317Y-92436123D01*
X145884510Y-92442831D01*
X145906104Y-92447127D01*
X145929222Y-92462574D01*
X145946567Y-92470233D01*
X145958412Y-92482078D01*
X145979099Y-92495901D01*
X145992921Y-92516587D01*
X146004766Y-92528432D01*
X146012423Y-92545774D01*
X146027873Y-92568896D01*
X146032168Y-92590491D01*
X146038876Y-92605682D01*
X146044033Y-92650139D01*
X146045000Y-92655000D01*
X146045000Y-93105000D01*
X146044032Y-93109862D01*
X146038876Y-93154317D01*
X146032168Y-93169506D01*
X146027873Y-93191104D01*
X146012422Y-93214227D01*
X146004766Y-93231567D01*
X145992923Y-93243409D01*
X145979099Y-93264099D01*
X145958409Y-93277923D01*
X145946567Y-93289766D01*
X145929227Y-93297422D01*
X145906104Y-93312873D01*
X145884506Y-93317168D01*
X145869317Y-93323876D01*
X145824861Y-93329032D01*
X145820000Y-93330000D01*
X145320000Y-93330000D01*
X145315138Y-93329033D01*
X145270682Y-93323876D01*
X145255491Y-93317168D01*
X145233896Y-93312873D01*
X145210774Y-93297423D01*
X145193432Y-93289766D01*
X145181587Y-93277921D01*
X145160901Y-93264099D01*
X145147078Y-93243412D01*
X145135233Y-93231567D01*
X145127574Y-93214222D01*
X145112127Y-93191104D01*
X145107831Y-93169510D01*
X145101123Y-93154317D01*
X145095964Y-93109849D01*
X145095000Y-93105000D01*
X145095000Y-92655000D01*
X145095964Y-92650150D01*
X145101123Y-92605682D01*
X145107832Y-92590487D01*
X145112127Y-92568896D01*
X145127573Y-92545779D01*
X145135233Y-92528432D01*
X145147080Y-92516584D01*
X145160901Y-92495901D01*
X145181584Y-92482080D01*
X145193432Y-92470233D01*
X145210779Y-92462573D01*
X145233896Y-92447127D01*
X145255487Y-92442832D01*
X145270682Y-92436123D01*
X145315151Y-92430964D01*
X145320000Y-92430000D01*
X145820000Y-92430000D01*
X145824850Y-92430964D01*
G37*
G36*
X129687714Y-90972295D02*
G01*
X129823548Y-91028559D01*
X129945795Y-91110242D01*
X130049758Y-91214205D01*
X130131441Y-91336452D01*
X130187705Y-91472286D01*
X130216389Y-91616487D01*
X130216389Y-91763513D01*
X130187705Y-91907714D01*
X130131441Y-92043548D01*
X130049758Y-92165795D01*
X129945795Y-92269758D01*
X129823548Y-92351441D01*
X129687714Y-92407705D01*
X129543513Y-92436389D01*
X129396487Y-92436389D01*
X129252286Y-92407705D01*
X129116452Y-92351441D01*
X128994205Y-92269758D01*
X128890242Y-92165795D01*
X128808559Y-92043548D01*
X128752295Y-91907714D01*
X128723611Y-91763513D01*
X128723611Y-91616487D01*
X128752295Y-91472286D01*
X128808559Y-91336452D01*
X128890242Y-91214205D01*
X128994205Y-91110242D01*
X129116452Y-91028559D01*
X129252286Y-90972295D01*
X129396487Y-90943611D01*
X129543513Y-90943611D01*
X129687714Y-90972295D01*
G37*
G36*
X149720000Y-91985000D02*
G01*
X148020000Y-91985000D01*
X148020000Y-90285000D01*
X149720000Y-90285000D01*
X149720000Y-91985000D01*
G37*
G36*
X145824850Y-90880964D02*
G01*
X145869317Y-90886123D01*
X145884510Y-90892831D01*
X145906104Y-90897127D01*
X145929222Y-90912574D01*
X145946567Y-90920233D01*
X145958412Y-90932078D01*
X145979099Y-90945901D01*
X145992921Y-90966587D01*
X146004766Y-90978432D01*
X146012423Y-90995774D01*
X146027873Y-91018896D01*
X146032168Y-91040491D01*
X146038876Y-91055682D01*
X146044033Y-91100139D01*
X146045000Y-91105000D01*
X146045000Y-91555000D01*
X146044032Y-91559862D01*
X146038876Y-91604317D01*
X146032168Y-91619506D01*
X146027873Y-91641104D01*
X146012422Y-91664227D01*
X146004766Y-91681567D01*
X145992923Y-91693409D01*
X145979099Y-91714099D01*
X145958409Y-91727923D01*
X145946567Y-91739766D01*
X145929227Y-91747422D01*
X145906104Y-91762873D01*
X145884506Y-91767168D01*
X145869317Y-91773876D01*
X145824861Y-91779032D01*
X145820000Y-91780000D01*
X145320000Y-91780000D01*
X145315138Y-91779033D01*
X145270682Y-91773876D01*
X145255491Y-91767168D01*
X145233896Y-91762873D01*
X145210774Y-91747423D01*
X145193432Y-91739766D01*
X145181587Y-91727921D01*
X145160901Y-91714099D01*
X145147078Y-91693412D01*
X145135233Y-91681567D01*
X145127574Y-91664222D01*
X145112127Y-91641104D01*
X145107831Y-91619510D01*
X145101123Y-91604317D01*
X145095964Y-91559849D01*
X145095000Y-91555000D01*
X145095000Y-91105000D01*
X145095964Y-91100150D01*
X145101123Y-91055682D01*
X145107832Y-91040487D01*
X145112127Y-91018896D01*
X145127573Y-90995779D01*
X145135233Y-90978432D01*
X145147080Y-90966584D01*
X145160901Y-90945901D01*
X145181584Y-90932080D01*
X145193432Y-90920233D01*
X145210779Y-90912573D01*
X145233896Y-90897127D01*
X145255487Y-90892832D01*
X145270682Y-90886123D01*
X145315151Y-90880964D01*
X145320000Y-90880000D01*
X145820000Y-90880000D01*
X145824850Y-90880964D01*
G37*
G36*
X141266742Y-89006601D02*
G01*
X141420687Y-89070367D01*
X141559234Y-89162941D01*
X141677059Y-89280766D01*
X141769633Y-89419313D01*
X141833399Y-89573258D01*
X141865907Y-89736685D01*
X141865907Y-89903315D01*
X141833399Y-90066742D01*
X141769633Y-90220687D01*
X141677059Y-90359234D01*
X141559234Y-90477059D01*
X141420687Y-90569633D01*
X141266742Y-90633399D01*
X141103315Y-90665907D01*
X140936685Y-90665907D01*
X140773258Y-90633399D01*
X140619313Y-90569633D01*
X140480766Y-90477059D01*
X140362941Y-90359234D01*
X140270367Y-90220687D01*
X140206601Y-90066742D01*
X140174093Y-89903315D01*
X140174093Y-89736685D01*
X140206601Y-89573258D01*
X140270367Y-89419313D01*
X140362941Y-89280766D01*
X140480766Y-89162941D01*
X140619313Y-89070367D01*
X140773258Y-89006601D01*
X140936685Y-88974093D01*
X141103315Y-88974093D01*
X141266742Y-89006601D01*
G37*
G36*
X136426742Y-88986601D02*
G01*
X136580687Y-89050367D01*
X136719234Y-89142941D01*
X136837059Y-89260766D01*
X136929633Y-89399313D01*
X136993399Y-89553258D01*
X137025907Y-89716685D01*
X137025907Y-89883315D01*
X136993399Y-90046742D01*
X136929633Y-90200687D01*
X136837059Y-90339234D01*
X136719234Y-90457059D01*
X136580687Y-90549633D01*
X136426742Y-90613399D01*
X136263315Y-90645907D01*
X136096685Y-90645907D01*
X135933258Y-90613399D01*
X135779313Y-90549633D01*
X135640766Y-90457059D01*
X135522941Y-90339234D01*
X135430367Y-90200687D01*
X135366601Y-90046742D01*
X135334093Y-89883315D01*
X135334093Y-89716685D01*
X135366601Y-89553258D01*
X135430367Y-89399313D01*
X135522941Y-89260766D01*
X135640766Y-89142941D01*
X135779313Y-89050367D01*
X135933258Y-88986601D01*
X136096685Y-88954093D01*
X136263315Y-88954093D01*
X136426742Y-88986601D01*
G37*
G36*
X141266742Y-86466601D02*
G01*
X141420687Y-86530367D01*
X141559234Y-86622941D01*
X141677059Y-86740766D01*
X141769633Y-86879313D01*
X141833399Y-87033258D01*
X141865907Y-87196685D01*
X141865907Y-87363315D01*
X141833399Y-87526742D01*
X141769633Y-87680687D01*
X141677059Y-87819234D01*
X141559234Y-87937059D01*
X141420687Y-88029633D01*
X141266742Y-88093399D01*
X141103315Y-88125907D01*
X140936685Y-88125907D01*
X140773258Y-88093399D01*
X140619313Y-88029633D01*
X140480766Y-87937059D01*
X140362941Y-87819234D01*
X140270367Y-87680687D01*
X140206601Y-87526742D01*
X140174093Y-87363315D01*
X140174093Y-87196685D01*
X140206601Y-87033258D01*
X140270367Y-86879313D01*
X140362941Y-86740766D01*
X140480766Y-86622941D01*
X140619313Y-86530367D01*
X140773258Y-86466601D01*
X140936685Y-86434093D01*
X141103315Y-86434093D01*
X141266742Y-86466601D01*
G37*
G36*
X136426742Y-86446601D02*
G01*
X136580687Y-86510367D01*
X136719234Y-86602941D01*
X136837059Y-86720766D01*
X136929633Y-86859313D01*
X136993399Y-87013258D01*
X137025907Y-87176685D01*
X137025907Y-87343315D01*
X136993399Y-87506742D01*
X136929633Y-87660687D01*
X136837059Y-87799234D01*
X136719234Y-87917059D01*
X136580687Y-88009633D01*
X136426742Y-88073399D01*
X136263315Y-88105907D01*
X136096685Y-88105907D01*
X135933258Y-88073399D01*
X135779313Y-88009633D01*
X135640766Y-87917059D01*
X135522941Y-87799234D01*
X135430367Y-87660687D01*
X135366601Y-87506742D01*
X135334093Y-87343315D01*
X135334093Y-87176685D01*
X135366601Y-87013258D01*
X135430367Y-86859313D01*
X135522941Y-86720766D01*
X135640766Y-86602941D01*
X135779313Y-86510367D01*
X135933258Y-86446601D01*
X136096685Y-86414093D01*
X136263315Y-86414093D01*
X136426742Y-86446601D01*
G37*
G36*
X147343513Y-82584208D02*
G01*
X147582293Y-82661793D01*
X147805998Y-82775776D01*
X148009117Y-82923350D01*
X148186650Y-83100883D01*
X148334224Y-83304002D01*
X148448207Y-83527707D01*
X148525792Y-83766487D01*
X148565068Y-84014465D01*
X148565068Y-84265535D01*
X148525792Y-84513513D01*
X148448207Y-84752293D01*
X148334224Y-84975998D01*
X148186650Y-85179117D01*
X148009117Y-85356650D01*
X147805998Y-85504224D01*
X147582293Y-85618207D01*
X147343513Y-85695792D01*
X147095535Y-85735068D01*
X146844465Y-85735068D01*
X146596487Y-85695792D01*
X146357707Y-85618207D01*
X146134002Y-85504224D01*
X145930883Y-85356650D01*
X145753350Y-85179117D01*
X145605776Y-84975998D01*
X145491793Y-84752293D01*
X145414208Y-84513513D01*
X145374932Y-84265535D01*
X145374932Y-84014465D01*
X145414208Y-83766487D01*
X145491793Y-83527707D01*
X145605776Y-83304002D01*
X145753350Y-83100883D01*
X145930883Y-82923350D01*
X146134002Y-82775776D01*
X146357707Y-82661793D01*
X146596487Y-82584208D01*
X146844465Y-82544932D01*
X147095535Y-82544932D01*
X147343513Y-82584208D01*
G37*
G36*
X130293513Y-82504208D02*
G01*
X130532293Y-82581793D01*
X130755998Y-82695776D01*
X130959117Y-82843350D01*
X131136650Y-83020883D01*
X131284224Y-83224002D01*
X131398207Y-83447707D01*
X131475792Y-83686487D01*
X131515068Y-83934465D01*
X131515068Y-84185535D01*
X131475792Y-84433513D01*
X131398207Y-84672293D01*
X131284224Y-84895998D01*
X131136650Y-85099117D01*
X130959117Y-85276650D01*
X130755998Y-85424224D01*
X130532293Y-85538207D01*
X130293513Y-85615792D01*
X130045535Y-85655068D01*
X129794465Y-85655068D01*
X129546487Y-85615792D01*
X129307707Y-85538207D01*
X129084002Y-85424224D01*
X128880883Y-85276650D01*
X128703350Y-85099117D01*
X128555776Y-84895998D01*
X128441793Y-84672293D01*
X128364208Y-84433513D01*
X128324932Y-84185535D01*
X128324932Y-83934465D01*
X128364208Y-83686487D01*
X128441793Y-83447707D01*
X128555776Y-83224002D01*
X128703350Y-83020883D01*
X128880883Y-82843350D01*
X129084002Y-82695776D01*
X129307707Y-82581793D01*
X129546487Y-82504208D01*
X129794465Y-82464932D01*
X130045535Y-82464932D01*
X130293513Y-82504208D01*
G37*
G36*
X141266742Y-83926601D02*
G01*
X141420687Y-83990367D01*
X141559234Y-84082941D01*
X141677059Y-84200766D01*
X141769633Y-84339313D01*
X141833399Y-84493258D01*
X141865907Y-84656685D01*
X141865907Y-84823315D01*
X141833399Y-84986742D01*
X141769633Y-85140687D01*
X141677059Y-85279234D01*
X141559234Y-85397059D01*
X141420687Y-85489633D01*
X141266742Y-85553399D01*
X141103315Y-85585907D01*
X140936685Y-85585907D01*
X140773258Y-85553399D01*
X140619313Y-85489633D01*
X140480766Y-85397059D01*
X140362941Y-85279234D01*
X140270367Y-85140687D01*
X140206601Y-84986742D01*
X140174093Y-84823315D01*
X140174093Y-84656685D01*
X140206601Y-84493258D01*
X140270367Y-84339313D01*
X140362941Y-84200766D01*
X140480766Y-84082941D01*
X140619313Y-83990367D01*
X140773258Y-83926601D01*
X140936685Y-83894093D01*
X141103315Y-83894093D01*
X141266742Y-83926601D01*
G37*
G36*
X136426742Y-83906601D02*
G01*
X136580687Y-83970367D01*
X136719234Y-84062941D01*
X136837059Y-84180766D01*
X136929633Y-84319313D01*
X136993399Y-84473258D01*
X137025907Y-84636685D01*
X137025907Y-84803315D01*
X136993399Y-84966742D01*
X136929633Y-85120687D01*
X136837059Y-85259234D01*
X136719234Y-85377059D01*
X136580687Y-85469633D01*
X136426742Y-85533399D01*
X136263315Y-85565907D01*
X136096685Y-85565907D01*
X135933258Y-85533399D01*
X135779313Y-85469633D01*
X135640766Y-85377059D01*
X135522941Y-85259234D01*
X135430367Y-85120687D01*
X135366601Y-84966742D01*
X135334093Y-84803315D01*
X135334093Y-84636685D01*
X135366601Y-84473258D01*
X135430367Y-84319313D01*
X135522941Y-84180766D01*
X135640766Y-84062941D01*
X135779313Y-83970367D01*
X135933258Y-83906601D01*
X136096685Y-83874093D01*
X136263315Y-83874093D01*
X136426742Y-83906601D01*
G37*
G36*
X141870000Y-83050000D02*
G01*
X140170000Y-83050000D01*
X140170000Y-81350000D01*
X141870000Y-81350000D01*
X141870000Y-83050000D01*
G37*
G36*
X137030000Y-83030000D02*
G01*
X135330000Y-83030000D01*
X135330000Y-81330000D01*
X137030000Y-81330000D01*
X137030000Y-83030000D01*
G37*
M02*
