%TF.GenerationSoftware,KiCad,Pcbnew,9.0.8+dfsg-1*%
%TF.CreationDate,2026-09-14T23:54:27+05:30*%
%TF.ProjectId,12S_UAV_UGV_PMU,3132535f-5541-4565-9f55-47565f504d55,rev?*%
%TF.SameCoordinates,Original*%
%TF.FileFunction,Paste,Top*%
%TF.FilePolarity,Positive*%
%FSLAX46Y46*%
G04 Gerber Fmt 4.6, Leading zero omitted, Abs format (unit mm)*
G04 Created by KiCad (PCBNEW 9.0.8+dfsg-1) date 2026-09-14 23:54:27*
%MOMM*%
%LPD*%
G01*
G04 APERTURE LIST*
G04 Aperture macros list*
%AMRoundRect*
0 Rectangle with rounded corners*
0 $1 Rounding radius*
0 $2 $3 $4 $5 $6 $7 $8 $9 X,Y pos of 4 corners*
0 Add a 4 corners polygon primitive as box body*
4,1,4,$2,$3,$4,$5,$6,$7,$8,$9,$2,$3,0*
0 Add four circle primitives for the rounded corners*
1,1,$1+$1,$2,$3*
1,1,$1+$1,$4,$5*
1,1,$1+$1,$6,$7*
1,1,$1+$1,$8,$9*
0 Add four rect primitives between the rounded corners*
20,1,$1+$1,$2,$3,$4,$5,0*
20,1,$1+$1,$4,$5,$6,$7,0*
20,1,$1+$1,$6,$7,$8,$9,0*
20,1,$1+$1,$8,$9,$2,$3,0*%
G04 Aperture macros list end*
%ADD10C,0.010000*%
%ADD11RoundRect,0.031250X0.093750X-0.218750X0.093750X0.218750X-0.093750X0.218750X-0.093750X-0.218750X0*%
%ADD12RoundRect,0.250000X-0.362500X-1.425000X0.362500X-1.425000X0.362500X1.425000X-0.362500X1.425000X0*%
%ADD13RoundRect,0.250000X0.250000X0.475000X-0.250000X0.475000X-0.250000X-0.475000X0.250000X-0.475000X0*%
%ADD14RoundRect,0.200000X-0.200000X-0.275000X0.200000X-0.275000X0.200000X0.275000X-0.200000X0.275000X0*%
%ADD15RoundRect,0.200000X-0.275000X0.200000X-0.275000X-0.200000X0.275000X-0.200000X0.275000X0.200000X0*%
%ADD16RoundRect,0.250000X-0.475000X0.250000X-0.475000X-0.250000X0.475000X-0.250000X0.475000X0.250000X0*%
%ADD17RoundRect,0.031250X0.093750X-0.268750X0.093750X0.268750X-0.093750X0.268750X-0.093750X-0.268750X0*%
%ADD18RoundRect,0.031250X0.268750X-0.093750X0.268750X0.093750X-0.268750X0.093750X-0.268750X-0.093750X0*%
%ADD19RoundRect,0.225000X-0.225000X-0.250000X0.225000X-0.250000X0.225000X0.250000X-0.225000X0.250000X0*%
%ADD20RoundRect,0.225000X-0.250000X0.225000X-0.250000X-0.225000X0.250000X-0.225000X0.250000X0.225000X0*%
%ADD21RoundRect,0.225000X0.225000X0.250000X-0.225000X0.250000X-0.225000X-0.250000X0.225000X-0.250000X0*%
%ADD22RoundRect,0.200000X0.200000X0.275000X-0.200000X0.275000X-0.200000X-0.275000X0.200000X-0.275000X0*%
%ADD23RoundRect,0.218750X0.218750X0.256250X-0.218750X0.256250X-0.218750X-0.256250X0.218750X-0.256250X0*%
%ADD24RoundRect,0.375000X0.375000X-0.375000X0.375000X0.375000X-0.375000X0.375000X-0.375000X-0.375000X0*%
%ADD25RoundRect,0.125000X0.125000X-0.250000X0.125000X0.250000X-0.125000X0.250000X-0.125000X-0.250000X0*%
%ADD26RoundRect,0.100000X0.100000X-0.275000X0.100000X0.275000X-0.100000X0.275000X-0.100000X-0.275000X0*%
%ADD27RoundRect,0.218750X-0.218750X-0.256250X0.218750X-0.256250X0.218750X0.256250X-0.218750X0.256250X0*%
%ADD28RoundRect,0.250000X-0.250000X-0.475000X0.250000X-0.475000X0.250000X0.475000X-0.250000X0.475000X0*%
%ADD29RoundRect,0.225000X0.250000X-0.225000X0.250000X0.225000X-0.250000X0.225000X-0.250000X-0.225000X0*%
%ADD30RoundRect,0.060000X0.180000X-0.625000X0.180000X0.625000X-0.180000X0.625000X-0.180000X-0.625000X0*%
%ADD31RoundRect,0.075000X0.910000X0.225000X-0.910000X0.225000X-0.910000X-0.225000X0.910000X-0.225000X0*%
G04 APERTURE END LIST*
D10*
%TO.C,U3*%
X136108000Y-116201000D02*
X136110000Y-116201000D01*
X136113000Y-116202000D01*
X136115000Y-116202000D01*
X136118000Y-116203000D01*
X136120000Y-116204000D01*
X136123000Y-116205000D01*
X136125000Y-116207000D01*
X136127000Y-116208000D01*
X136129000Y-116210000D01*
X136131000Y-116211000D01*
X136133000Y-116213000D01*
X136135000Y-116215000D01*
X136137000Y-116217000D01*
X136139000Y-116219000D01*
X136140000Y-116221000D01*
X136142000Y-116223000D01*
X136143000Y-116225000D01*
X136145000Y-116227000D01*
X136146000Y-116230000D01*
X136147000Y-116232000D01*
X136148000Y-116235000D01*
X136148000Y-116237000D01*
X136149000Y-116240000D01*
X136149000Y-116242000D01*
X136150000Y-116245000D01*
X136150000Y-116247000D01*
X136150000Y-116250000D01*
X136150000Y-117050000D01*
X136150000Y-117053000D01*
X136150000Y-117055000D01*
X136149000Y-117058000D01*
X136149000Y-117060000D01*
X136148000Y-117063000D01*
X136148000Y-117065000D01*
X136147000Y-117068000D01*
X136146000Y-117070000D01*
X136145000Y-117073000D01*
X136143000Y-117075000D01*
X136142000Y-117077000D01*
X136140000Y-117079000D01*
X136139000Y-117081000D01*
X136137000Y-117083000D01*
X136135000Y-117085000D01*
X136133000Y-117087000D01*
X136131000Y-117089000D01*
X136129000Y-117090000D01*
X136127000Y-117092000D01*
X136125000Y-117093000D01*
X136123000Y-117095000D01*
X136120000Y-117096000D01*
X136118000Y-117097000D01*
X136115000Y-117098000D01*
X136113000Y-117098000D01*
X136110000Y-117099000D01*
X136108000Y-117099000D01*
X136105000Y-117100000D01*
X136103000Y-117100000D01*
X136100000Y-117100000D01*
X135500000Y-117100000D01*
X135497000Y-117100000D01*
X135495000Y-117100000D01*
X135492000Y-117099000D01*
X135490000Y-117099000D01*
X135487000Y-117098000D01*
X135485000Y-117098000D01*
X135482000Y-117097000D01*
X135480000Y-117096000D01*
X135477000Y-117095000D01*
X135475000Y-117093000D01*
X135473000Y-117092000D01*
X135471000Y-117090000D01*
X135469000Y-117089000D01*
X135467000Y-117087000D01*
X135465000Y-117085000D01*
X135463000Y-117083000D01*
X135461000Y-117081000D01*
X135460000Y-117079000D01*
X135458000Y-117077000D01*
X135457000Y-117075000D01*
X135455000Y-117073000D01*
X135454000Y-117070000D01*
X135453000Y-117068000D01*
X135452000Y-117065000D01*
X135452000Y-117063000D01*
X135451000Y-117060000D01*
X135451000Y-117058000D01*
X135450000Y-117055000D01*
X135450000Y-117053000D01*
X135450000Y-117050000D01*
X135450000Y-116250000D01*
X135450000Y-116247000D01*
X135450000Y-116245000D01*
X135451000Y-116242000D01*
X135451000Y-116240000D01*
X135452000Y-116237000D01*
X135452000Y-116235000D01*
X135453000Y-116232000D01*
X135454000Y-116230000D01*
X135455000Y-116227000D01*
X135457000Y-116225000D01*
X135458000Y-116223000D01*
X135460000Y-116221000D01*
X135461000Y-116219000D01*
X135463000Y-116217000D01*
X135465000Y-116215000D01*
X135467000Y-116213000D01*
X135469000Y-116211000D01*
X135471000Y-116210000D01*
X135473000Y-116208000D01*
X135475000Y-116207000D01*
X135477000Y-116205000D01*
X135480000Y-116204000D01*
X135482000Y-116203000D01*
X135485000Y-116202000D01*
X135487000Y-116202000D01*
X135490000Y-116201000D01*
X135492000Y-116201000D01*
X135495000Y-116200000D01*
X135497000Y-116200000D01*
X135500000Y-116200000D01*
X136100000Y-116200000D01*
X136103000Y-116200000D01*
X136105000Y-116200000D01*
X136108000Y-116201000D01*
G36*
X136108000Y-116201000D02*
G01*
X136110000Y-116201000D01*
X136113000Y-116202000D01*
X136115000Y-116202000D01*
X136118000Y-116203000D01*
X136120000Y-116204000D01*
X136123000Y-116205000D01*
X136125000Y-116207000D01*
X136127000Y-116208000D01*
X136129000Y-116210000D01*
X136131000Y-116211000D01*
X136133000Y-116213000D01*
X136135000Y-116215000D01*
X136137000Y-116217000D01*
X136139000Y-116219000D01*
X136140000Y-116221000D01*
X136142000Y-116223000D01*
X136143000Y-116225000D01*
X136145000Y-116227000D01*
X136146000Y-116230000D01*
X136147000Y-116232000D01*
X136148000Y-116235000D01*
X136148000Y-116237000D01*
X136149000Y-116240000D01*
X136149000Y-116242000D01*
X136150000Y-116245000D01*
X136150000Y-116247000D01*
X136150000Y-116250000D01*
X136150000Y-117050000D01*
X136150000Y-117053000D01*
X136150000Y-117055000D01*
X136149000Y-117058000D01*
X136149000Y-117060000D01*
X136148000Y-117063000D01*
X136148000Y-117065000D01*
X136147000Y-117068000D01*
X136146000Y-117070000D01*
X136145000Y-117073000D01*
X136143000Y-117075000D01*
X136142000Y-117077000D01*
X136140000Y-117079000D01*
X136139000Y-117081000D01*
X136137000Y-117083000D01*
X136135000Y-117085000D01*
X136133000Y-117087000D01*
X136131000Y-117089000D01*
X136129000Y-117090000D01*
X136127000Y-117092000D01*
X136125000Y-117093000D01*
X136123000Y-117095000D01*
X136120000Y-117096000D01*
X136118000Y-117097000D01*
X136115000Y-117098000D01*
X136113000Y-117098000D01*
X136110000Y-117099000D01*
X136108000Y-117099000D01*
X136105000Y-117100000D01*
X136103000Y-117100000D01*
X136100000Y-117100000D01*
X135500000Y-117100000D01*
X135497000Y-117100000D01*
X135495000Y-117100000D01*
X135492000Y-117099000D01*
X135490000Y-117099000D01*
X135487000Y-117098000D01*
X135485000Y-117098000D01*
X135482000Y-117097000D01*
X135480000Y-117096000D01*
X135477000Y-117095000D01*
X135475000Y-117093000D01*
X135473000Y-117092000D01*
X135471000Y-117090000D01*
X135469000Y-117089000D01*
X135467000Y-117087000D01*
X135465000Y-117085000D01*
X135463000Y-117083000D01*
X135461000Y-117081000D01*
X135460000Y-117079000D01*
X135458000Y-117077000D01*
X135457000Y-117075000D01*
X135455000Y-117073000D01*
X135454000Y-117070000D01*
X135453000Y-117068000D01*
X135452000Y-117065000D01*
X135452000Y-117063000D01*
X135451000Y-117060000D01*
X135451000Y-117058000D01*
X135450000Y-117055000D01*
X135450000Y-117053000D01*
X135450000Y-117050000D01*
X135450000Y-116250000D01*
X135450000Y-116247000D01*
X135450000Y-116245000D01*
X135451000Y-116242000D01*
X135451000Y-116240000D01*
X135452000Y-116237000D01*
X135452000Y-116235000D01*
X135453000Y-116232000D01*
X135454000Y-116230000D01*
X135455000Y-116227000D01*
X135457000Y-116225000D01*
X135458000Y-116223000D01*
X135460000Y-116221000D01*
X135461000Y-116219000D01*
X135463000Y-116217000D01*
X135465000Y-116215000D01*
X135467000Y-116213000D01*
X135469000Y-116211000D01*
X135471000Y-116210000D01*
X135473000Y-116208000D01*
X135475000Y-116207000D01*
X135477000Y-116205000D01*
X135480000Y-116204000D01*
X135482000Y-116203000D01*
X135485000Y-116202000D01*
X135487000Y-116202000D01*
X135490000Y-116201000D01*
X135492000Y-116201000D01*
X135495000Y-116200000D01*
X135497000Y-116200000D01*
X135500000Y-116200000D01*
X136100000Y-116200000D01*
X136103000Y-116200000D01*
X136105000Y-116200000D01*
X136108000Y-116201000D01*
G37*
X137008000Y-116201000D02*
X137010000Y-116201000D01*
X137013000Y-116202000D01*
X137015000Y-116202000D01*
X137018000Y-116203000D01*
X137020000Y-116204000D01*
X137023000Y-116205000D01*
X137025000Y-116207000D01*
X137027000Y-116208000D01*
X137029000Y-116210000D01*
X137031000Y-116211000D01*
X137033000Y-116213000D01*
X137035000Y-116215000D01*
X137037000Y-116217000D01*
X137039000Y-116219000D01*
X137040000Y-116221000D01*
X137042000Y-116223000D01*
X137043000Y-116225000D01*
X137045000Y-116227000D01*
X137046000Y-116230000D01*
X137047000Y-116232000D01*
X137048000Y-116235000D01*
X137048000Y-116237000D01*
X137049000Y-116240000D01*
X137049000Y-116242000D01*
X137050000Y-116245000D01*
X137050000Y-116247000D01*
X137050000Y-116250000D01*
X137050000Y-117050000D01*
X137050000Y-117053000D01*
X137050000Y-117055000D01*
X137049000Y-117058000D01*
X137049000Y-117060000D01*
X137048000Y-117063000D01*
X137048000Y-117065000D01*
X137047000Y-117068000D01*
X137046000Y-117070000D01*
X137045000Y-117073000D01*
X137043000Y-117075000D01*
X137042000Y-117077000D01*
X137040000Y-117079000D01*
X137039000Y-117081000D01*
X137037000Y-117083000D01*
X137035000Y-117085000D01*
X137033000Y-117087000D01*
X137031000Y-117089000D01*
X137029000Y-117090000D01*
X137027000Y-117092000D01*
X137025000Y-117093000D01*
X137023000Y-117095000D01*
X137020000Y-117096000D01*
X137018000Y-117097000D01*
X137015000Y-117098000D01*
X137013000Y-117098000D01*
X137010000Y-117099000D01*
X137008000Y-117099000D01*
X137005000Y-117100000D01*
X137003000Y-117100000D01*
X137000000Y-117100000D01*
X136400000Y-117100000D01*
X136397000Y-117100000D01*
X136395000Y-117100000D01*
X136392000Y-117099000D01*
X136390000Y-117099000D01*
X136387000Y-117098000D01*
X136385000Y-117098000D01*
X136382000Y-117097000D01*
X136380000Y-117096000D01*
X136377000Y-117095000D01*
X136375000Y-117093000D01*
X136373000Y-117092000D01*
X136371000Y-117090000D01*
X136369000Y-117089000D01*
X136367000Y-117087000D01*
X136365000Y-117085000D01*
X136363000Y-117083000D01*
X136361000Y-117081000D01*
X136360000Y-117079000D01*
X136358000Y-117077000D01*
X136357000Y-117075000D01*
X136355000Y-117073000D01*
X136354000Y-117070000D01*
X136353000Y-117068000D01*
X136352000Y-117065000D01*
X136352000Y-117063000D01*
X136351000Y-117060000D01*
X136351000Y-117058000D01*
X136350000Y-117055000D01*
X136350000Y-117053000D01*
X136350000Y-117050000D01*
X136350000Y-116250000D01*
X136350000Y-116247000D01*
X136350000Y-116245000D01*
X136351000Y-116242000D01*
X136351000Y-116240000D01*
X136352000Y-116237000D01*
X136352000Y-116235000D01*
X136353000Y-116232000D01*
X136354000Y-116230000D01*
X136355000Y-116227000D01*
X136357000Y-116225000D01*
X136358000Y-116223000D01*
X136360000Y-116221000D01*
X136361000Y-116219000D01*
X136363000Y-116217000D01*
X136365000Y-116215000D01*
X136367000Y-116213000D01*
X136369000Y-116211000D01*
X136371000Y-116210000D01*
X136373000Y-116208000D01*
X136375000Y-116207000D01*
X136377000Y-116205000D01*
X136380000Y-116204000D01*
X136382000Y-116203000D01*
X136385000Y-116202000D01*
X136387000Y-116202000D01*
X136390000Y-116201000D01*
X136392000Y-116201000D01*
X136395000Y-116200000D01*
X136397000Y-116200000D01*
X136400000Y-116200000D01*
X137000000Y-116200000D01*
X137003000Y-116200000D01*
X137005000Y-116200000D01*
X137008000Y-116201000D01*
G36*
X137008000Y-116201000D02*
G01*
X137010000Y-116201000D01*
X137013000Y-116202000D01*
X137015000Y-116202000D01*
X137018000Y-116203000D01*
X137020000Y-116204000D01*
X137023000Y-116205000D01*
X137025000Y-116207000D01*
X137027000Y-116208000D01*
X137029000Y-116210000D01*
X137031000Y-116211000D01*
X137033000Y-116213000D01*
X137035000Y-116215000D01*
X137037000Y-116217000D01*
X137039000Y-116219000D01*
X137040000Y-116221000D01*
X137042000Y-116223000D01*
X137043000Y-116225000D01*
X137045000Y-116227000D01*
X137046000Y-116230000D01*
X137047000Y-116232000D01*
X137048000Y-116235000D01*
X137048000Y-116237000D01*
X137049000Y-116240000D01*
X137049000Y-116242000D01*
X137050000Y-116245000D01*
X137050000Y-116247000D01*
X137050000Y-116250000D01*
X137050000Y-117050000D01*
X137050000Y-117053000D01*
X137050000Y-117055000D01*
X137049000Y-117058000D01*
X137049000Y-117060000D01*
X137048000Y-117063000D01*
X137048000Y-117065000D01*
X137047000Y-117068000D01*
X137046000Y-117070000D01*
X137045000Y-117073000D01*
X137043000Y-117075000D01*
X137042000Y-117077000D01*
X137040000Y-117079000D01*
X137039000Y-117081000D01*
X137037000Y-117083000D01*
X137035000Y-117085000D01*
X137033000Y-117087000D01*
X137031000Y-117089000D01*
X137029000Y-117090000D01*
X137027000Y-117092000D01*
X137025000Y-117093000D01*
X137023000Y-117095000D01*
X137020000Y-117096000D01*
X137018000Y-117097000D01*
X137015000Y-117098000D01*
X137013000Y-117098000D01*
X137010000Y-117099000D01*
X137008000Y-117099000D01*
X137005000Y-117100000D01*
X137003000Y-117100000D01*
X137000000Y-117100000D01*
X136400000Y-117100000D01*
X136397000Y-117100000D01*
X136395000Y-117100000D01*
X136392000Y-117099000D01*
X136390000Y-117099000D01*
X136387000Y-117098000D01*
X136385000Y-117098000D01*
X136382000Y-117097000D01*
X136380000Y-117096000D01*
X136377000Y-117095000D01*
X136375000Y-117093000D01*
X136373000Y-117092000D01*
X136371000Y-117090000D01*
X136369000Y-117089000D01*
X136367000Y-117087000D01*
X136365000Y-117085000D01*
X136363000Y-117083000D01*
X136361000Y-117081000D01*
X136360000Y-117079000D01*
X136358000Y-117077000D01*
X136357000Y-117075000D01*
X136355000Y-117073000D01*
X136354000Y-117070000D01*
X136353000Y-117068000D01*
X136352000Y-117065000D01*
X136352000Y-117063000D01*
X136351000Y-117060000D01*
X136351000Y-117058000D01*
X136350000Y-117055000D01*
X136350000Y-117053000D01*
X136350000Y-117050000D01*
X136350000Y-116250000D01*
X136350000Y-116247000D01*
X136350000Y-116245000D01*
X136351000Y-116242000D01*
X136351000Y-116240000D01*
X136352000Y-116237000D01*
X136352000Y-116235000D01*
X136353000Y-116232000D01*
X136354000Y-116230000D01*
X136355000Y-116227000D01*
X136357000Y-116225000D01*
X136358000Y-116223000D01*
X136360000Y-116221000D01*
X136361000Y-116219000D01*
X136363000Y-116217000D01*
X136365000Y-116215000D01*
X136367000Y-116213000D01*
X136369000Y-116211000D01*
X136371000Y-116210000D01*
X136373000Y-116208000D01*
X136375000Y-116207000D01*
X136377000Y-116205000D01*
X136380000Y-116204000D01*
X136382000Y-116203000D01*
X136385000Y-116202000D01*
X136387000Y-116202000D01*
X136390000Y-116201000D01*
X136392000Y-116201000D01*
X136395000Y-116200000D01*
X136397000Y-116200000D01*
X136400000Y-116200000D01*
X137000000Y-116200000D01*
X137003000Y-116200000D01*
X137005000Y-116200000D01*
X137008000Y-116201000D01*
G37*
%TO.C,U2*%
X124330000Y-113068500D02*
X124333000Y-113068500D01*
X124335000Y-113069500D01*
X124338000Y-113070500D01*
X124340000Y-113071500D01*
X124343000Y-113072500D01*
X124345000Y-113073500D01*
X124347000Y-113075500D01*
X124349000Y-113076500D01*
X124351000Y-113078500D01*
X124353000Y-113079500D01*
X124355000Y-113081500D01*
X124357000Y-113083500D01*
X124359000Y-113085500D01*
X124360000Y-113087500D01*
X124362000Y-113089500D01*
X124363000Y-113092500D01*
X124365000Y-113094500D01*
X124366000Y-113096500D01*
X124367000Y-113099500D01*
X124368000Y-113101500D01*
X124368000Y-113104500D01*
X124369000Y-113106500D01*
X124369000Y-113109500D01*
X124370000Y-113111500D01*
X124370000Y-113114500D01*
X124370000Y-113116500D01*
X124370000Y-113592500D01*
X124370000Y-113594500D01*
X124370000Y-113597500D01*
X124369000Y-113599500D01*
X124369000Y-113602500D01*
X124368000Y-113604500D01*
X124368000Y-113607500D01*
X124367000Y-113609500D01*
X124366000Y-113612500D01*
X124365000Y-113614500D01*
X124363000Y-113617500D01*
X124362000Y-113619500D01*
X124360000Y-113621500D01*
X124359000Y-113623500D01*
X124357000Y-113625500D01*
X124355000Y-113627500D01*
X124353000Y-113629500D01*
X124351000Y-113630500D01*
X124349000Y-113632500D01*
X124347000Y-113633500D01*
X124345000Y-113635500D01*
X124343000Y-113636500D01*
X124340000Y-113637500D01*
X124338000Y-113638500D01*
X124335000Y-113639500D01*
X124333000Y-113640500D01*
X124330000Y-113640500D01*
X124328000Y-113641500D01*
X124325000Y-113641500D01*
X124323000Y-113641500D01*
X124320000Y-113642500D01*
X124170000Y-113642500D01*
X124167000Y-113641500D01*
X124165000Y-113641500D01*
X124162000Y-113641500D01*
X124160000Y-113640500D01*
X124157000Y-113640500D01*
X124155000Y-113639500D01*
X124152000Y-113638500D01*
X124150000Y-113637500D01*
X124147000Y-113636500D01*
X124145000Y-113635500D01*
X124143000Y-113633500D01*
X124141000Y-113632500D01*
X124139000Y-113630500D01*
X124137000Y-113629500D01*
X124135000Y-113627500D01*
X124133000Y-113625500D01*
X124131000Y-113623500D01*
X124130000Y-113621500D01*
X124128000Y-113619500D01*
X124127000Y-113617500D01*
X124125000Y-113614500D01*
X124124000Y-113612500D01*
X124123000Y-113609500D01*
X124122000Y-113607500D01*
X124122000Y-113604500D01*
X124121000Y-113602500D01*
X124121000Y-113599500D01*
X124120000Y-113597500D01*
X124120000Y-113594500D01*
X124120000Y-113592500D01*
X124120000Y-113116500D01*
X124120000Y-113114500D01*
X124120000Y-113111500D01*
X124121000Y-113109500D01*
X124121000Y-113106500D01*
X124122000Y-113104500D01*
X124122000Y-113101500D01*
X124123000Y-113099500D01*
X124124000Y-113096500D01*
X124125000Y-113094500D01*
X124127000Y-113092500D01*
X124128000Y-113089500D01*
X124130000Y-113087500D01*
X124131000Y-113085500D01*
X124133000Y-113083500D01*
X124135000Y-113081500D01*
X124137000Y-113079500D01*
X124139000Y-113078500D01*
X124141000Y-113076500D01*
X124143000Y-113075500D01*
X124145000Y-113073500D01*
X124147000Y-113072500D01*
X124150000Y-113071500D01*
X124152000Y-113070500D01*
X124155000Y-113069500D01*
X124157000Y-113068500D01*
X124160000Y-113068500D01*
X124162000Y-113067500D01*
X124165000Y-113067500D01*
X124167000Y-113067500D01*
X124170000Y-113067500D01*
X124320000Y-113067500D01*
X124323000Y-113067500D01*
X124325000Y-113067500D01*
X124328000Y-113067500D01*
X124330000Y-113068500D01*
G36*
X124330000Y-113068500D02*
G01*
X124333000Y-113068500D01*
X124335000Y-113069500D01*
X124338000Y-113070500D01*
X124340000Y-113071500D01*
X124343000Y-113072500D01*
X124345000Y-113073500D01*
X124347000Y-113075500D01*
X124349000Y-113076500D01*
X124351000Y-113078500D01*
X124353000Y-113079500D01*
X124355000Y-113081500D01*
X124357000Y-113083500D01*
X124359000Y-113085500D01*
X124360000Y-113087500D01*
X124362000Y-113089500D01*
X124363000Y-113092500D01*
X124365000Y-113094500D01*
X124366000Y-113096500D01*
X124367000Y-113099500D01*
X124368000Y-113101500D01*
X124368000Y-113104500D01*
X124369000Y-113106500D01*
X124369000Y-113109500D01*
X124370000Y-113111500D01*
X124370000Y-113114500D01*
X124370000Y-113116500D01*
X124370000Y-113592500D01*
X124370000Y-113594500D01*
X124370000Y-113597500D01*
X124369000Y-113599500D01*
X124369000Y-113602500D01*
X124368000Y-113604500D01*
X124368000Y-113607500D01*
X124367000Y-113609500D01*
X124366000Y-113612500D01*
X124365000Y-113614500D01*
X124363000Y-113617500D01*
X124362000Y-113619500D01*
X124360000Y-113621500D01*
X124359000Y-113623500D01*
X124357000Y-113625500D01*
X124355000Y-113627500D01*
X124353000Y-113629500D01*
X124351000Y-113630500D01*
X124349000Y-113632500D01*
X124347000Y-113633500D01*
X124345000Y-113635500D01*
X124343000Y-113636500D01*
X124340000Y-113637500D01*
X124338000Y-113638500D01*
X124335000Y-113639500D01*
X124333000Y-113640500D01*
X124330000Y-113640500D01*
X124328000Y-113641500D01*
X124325000Y-113641500D01*
X124323000Y-113641500D01*
X124320000Y-113642500D01*
X124170000Y-113642500D01*
X124167000Y-113641500D01*
X124165000Y-113641500D01*
X124162000Y-113641500D01*
X124160000Y-113640500D01*
X124157000Y-113640500D01*
X124155000Y-113639500D01*
X124152000Y-113638500D01*
X124150000Y-113637500D01*
X124147000Y-113636500D01*
X124145000Y-113635500D01*
X124143000Y-113633500D01*
X124141000Y-113632500D01*
X124139000Y-113630500D01*
X124137000Y-113629500D01*
X124135000Y-113627500D01*
X124133000Y-113625500D01*
X124131000Y-113623500D01*
X124130000Y-113621500D01*
X124128000Y-113619500D01*
X124127000Y-113617500D01*
X124125000Y-113614500D01*
X124124000Y-113612500D01*
X124123000Y-113609500D01*
X124122000Y-113607500D01*
X124122000Y-113604500D01*
X124121000Y-113602500D01*
X124121000Y-113599500D01*
X124120000Y-113597500D01*
X124120000Y-113594500D01*
X124120000Y-113592500D01*
X124120000Y-113116500D01*
X124120000Y-113114500D01*
X124120000Y-113111500D01*
X124121000Y-113109500D01*
X124121000Y-113106500D01*
X124122000Y-113104500D01*
X124122000Y-113101500D01*
X124123000Y-113099500D01*
X124124000Y-113096500D01*
X124125000Y-113094500D01*
X124127000Y-113092500D01*
X124128000Y-113089500D01*
X124130000Y-113087500D01*
X124131000Y-113085500D01*
X124133000Y-113083500D01*
X124135000Y-113081500D01*
X124137000Y-113079500D01*
X124139000Y-113078500D01*
X124141000Y-113076500D01*
X124143000Y-113075500D01*
X124145000Y-113073500D01*
X124147000Y-113072500D01*
X124150000Y-113071500D01*
X124152000Y-113070500D01*
X124155000Y-113069500D01*
X124157000Y-113068500D01*
X124160000Y-113068500D01*
X124162000Y-113067500D01*
X124165000Y-113067500D01*
X124167000Y-113067500D01*
X124170000Y-113067500D01*
X124320000Y-113067500D01*
X124323000Y-113067500D01*
X124325000Y-113067500D01*
X124328000Y-113067500D01*
X124330000Y-113068500D01*
G37*
X124330000Y-113843500D02*
X124333000Y-113843500D01*
X124335000Y-113844500D01*
X124338000Y-113845500D01*
X124340000Y-113846500D01*
X124343000Y-113847500D01*
X124345000Y-113848500D01*
X124347000Y-113850500D01*
X124349000Y-113851500D01*
X124351000Y-113853500D01*
X124353000Y-113854500D01*
X124355000Y-113856500D01*
X124357000Y-113858500D01*
X124359000Y-113860500D01*
X124360000Y-113862500D01*
X124362000Y-113864500D01*
X124363000Y-113867500D01*
X124365000Y-113869500D01*
X124366000Y-113871500D01*
X124367000Y-113874500D01*
X124368000Y-113876500D01*
X124368000Y-113879500D01*
X124369000Y-113881500D01*
X124369000Y-113884500D01*
X124370000Y-113886500D01*
X124370000Y-113889500D01*
X124370000Y-113892500D01*
X124370000Y-114367500D01*
X124370000Y-114369500D01*
X124370000Y-114372500D01*
X124369000Y-114374500D01*
X124369000Y-114377500D01*
X124368000Y-114379500D01*
X124368000Y-114382500D01*
X124367000Y-114384500D01*
X124366000Y-114387500D01*
X124365000Y-114389500D01*
X124363000Y-114391500D01*
X124362000Y-114394500D01*
X124360000Y-114396500D01*
X124359000Y-114398500D01*
X124357000Y-114400500D01*
X124355000Y-114402500D01*
X124353000Y-114404500D01*
X124351000Y-114405500D01*
X124349000Y-114407500D01*
X124347000Y-114408500D01*
X124345000Y-114410500D01*
X124343000Y-114411500D01*
X124340000Y-114412500D01*
X124338000Y-114413500D01*
X124335000Y-114414500D01*
X124333000Y-114415500D01*
X124330000Y-114415500D01*
X124328000Y-114416500D01*
X124325000Y-114416500D01*
X124323000Y-114416500D01*
X124320000Y-114416500D01*
X124170000Y-114416500D01*
X124167000Y-114416500D01*
X124165000Y-114416500D01*
X124162000Y-114416500D01*
X124160000Y-114415500D01*
X124157000Y-114415500D01*
X124155000Y-114414500D01*
X124152000Y-114413500D01*
X124150000Y-114412500D01*
X124147000Y-114411500D01*
X124145000Y-114410500D01*
X124143000Y-114408500D01*
X124141000Y-114407500D01*
X124139000Y-114405500D01*
X124137000Y-114404500D01*
X124135000Y-114402500D01*
X124133000Y-114400500D01*
X124131000Y-114398500D01*
X124130000Y-114396500D01*
X124128000Y-114394500D01*
X124127000Y-114391500D01*
X124125000Y-114389500D01*
X124124000Y-114387500D01*
X124123000Y-114384500D01*
X124122000Y-114382500D01*
X124122000Y-114379500D01*
X124121000Y-114377500D01*
X124121000Y-114374500D01*
X124120000Y-114372500D01*
X124120000Y-114369500D01*
X124120000Y-114367500D01*
X124120000Y-113892500D01*
X124120000Y-113889500D01*
X124120000Y-113886500D01*
X124121000Y-113884500D01*
X124121000Y-113881500D01*
X124122000Y-113879500D01*
X124122000Y-113876500D01*
X124123000Y-113874500D01*
X124124000Y-113871500D01*
X124125000Y-113869500D01*
X124127000Y-113867500D01*
X124128000Y-113864500D01*
X124130000Y-113862500D01*
X124131000Y-113860500D01*
X124133000Y-113858500D01*
X124135000Y-113856500D01*
X124137000Y-113854500D01*
X124139000Y-113853500D01*
X124141000Y-113851500D01*
X124143000Y-113850500D01*
X124145000Y-113848500D01*
X124147000Y-113847500D01*
X124150000Y-113846500D01*
X124152000Y-113845500D01*
X124155000Y-113844500D01*
X124157000Y-113843500D01*
X124160000Y-113843500D01*
X124162000Y-113842500D01*
X124165000Y-113842500D01*
X124167000Y-113842500D01*
X124170000Y-113842500D01*
X124320000Y-113842500D01*
X124323000Y-113842500D01*
X124325000Y-113842500D01*
X124328000Y-113842500D01*
X124330000Y-113843500D01*
G36*
X124330000Y-113843500D02*
G01*
X124333000Y-113843500D01*
X124335000Y-113844500D01*
X124338000Y-113845500D01*
X124340000Y-113846500D01*
X124343000Y-113847500D01*
X124345000Y-113848500D01*
X124347000Y-113850500D01*
X124349000Y-113851500D01*
X124351000Y-113853500D01*
X124353000Y-113854500D01*
X124355000Y-113856500D01*
X124357000Y-113858500D01*
X124359000Y-113860500D01*
X124360000Y-113862500D01*
X124362000Y-113864500D01*
X124363000Y-113867500D01*
X124365000Y-113869500D01*
X124366000Y-113871500D01*
X124367000Y-113874500D01*
X124368000Y-113876500D01*
X124368000Y-113879500D01*
X124369000Y-113881500D01*
X124369000Y-113884500D01*
X124370000Y-113886500D01*
X124370000Y-113889500D01*
X124370000Y-113892500D01*
X124370000Y-114367500D01*
X124370000Y-114369500D01*
X124370000Y-114372500D01*
X124369000Y-114374500D01*
X124369000Y-114377500D01*
X124368000Y-114379500D01*
X124368000Y-114382500D01*
X124367000Y-114384500D01*
X124366000Y-114387500D01*
X124365000Y-114389500D01*
X124363000Y-114391500D01*
X124362000Y-114394500D01*
X124360000Y-114396500D01*
X124359000Y-114398500D01*
X124357000Y-114400500D01*
X124355000Y-114402500D01*
X124353000Y-114404500D01*
X124351000Y-114405500D01*
X124349000Y-114407500D01*
X124347000Y-114408500D01*
X124345000Y-114410500D01*
X124343000Y-114411500D01*
X124340000Y-114412500D01*
X124338000Y-114413500D01*
X124335000Y-114414500D01*
X124333000Y-114415500D01*
X124330000Y-114415500D01*
X124328000Y-114416500D01*
X124325000Y-114416500D01*
X124323000Y-114416500D01*
X124320000Y-114416500D01*
X124170000Y-114416500D01*
X124167000Y-114416500D01*
X124165000Y-114416500D01*
X124162000Y-114416500D01*
X124160000Y-114415500D01*
X124157000Y-114415500D01*
X124155000Y-114414500D01*
X124152000Y-114413500D01*
X124150000Y-114412500D01*
X124147000Y-114411500D01*
X124145000Y-114410500D01*
X124143000Y-114408500D01*
X124141000Y-114407500D01*
X124139000Y-114405500D01*
X124137000Y-114404500D01*
X124135000Y-114402500D01*
X124133000Y-114400500D01*
X124131000Y-114398500D01*
X124130000Y-114396500D01*
X124128000Y-114394500D01*
X124127000Y-114391500D01*
X124125000Y-114389500D01*
X124124000Y-114387500D01*
X124123000Y-114384500D01*
X124122000Y-114382500D01*
X124122000Y-114379500D01*
X124121000Y-114377500D01*
X124121000Y-114374500D01*
X124120000Y-114372500D01*
X124120000Y-114369500D01*
X124120000Y-114367500D01*
X124120000Y-113892500D01*
X124120000Y-113889500D01*
X124120000Y-113886500D01*
X124121000Y-113884500D01*
X124121000Y-113881500D01*
X124122000Y-113879500D01*
X124122000Y-113876500D01*
X124123000Y-113874500D01*
X124124000Y-113871500D01*
X124125000Y-113869500D01*
X124127000Y-113867500D01*
X124128000Y-113864500D01*
X124130000Y-113862500D01*
X124131000Y-113860500D01*
X124133000Y-113858500D01*
X124135000Y-113856500D01*
X124137000Y-113854500D01*
X124139000Y-113853500D01*
X124141000Y-113851500D01*
X124143000Y-113850500D01*
X124145000Y-113848500D01*
X124147000Y-113847500D01*
X124150000Y-113846500D01*
X124152000Y-113845500D01*
X124155000Y-113844500D01*
X124157000Y-113843500D01*
X124160000Y-113843500D01*
X124162000Y-113842500D01*
X124165000Y-113842500D01*
X124167000Y-113842500D01*
X124170000Y-113842500D01*
X124320000Y-113842500D01*
X124323000Y-113842500D01*
X124325000Y-113842500D01*
X124328000Y-113842500D01*
X124330000Y-113843500D01*
G37*
X124828000Y-113098500D02*
X124830000Y-113098500D01*
X124833000Y-113099500D01*
X124835000Y-113099500D01*
X124838000Y-113100500D01*
X124840000Y-113101500D01*
X124843000Y-113102500D01*
X124845000Y-113104500D01*
X124847000Y-113105500D01*
X124849000Y-113107500D01*
X124851000Y-113108500D01*
X124853000Y-113110500D01*
X124855000Y-113112500D01*
X124857000Y-113114500D01*
X124859000Y-113116500D01*
X124860000Y-113118500D01*
X124862000Y-113120500D01*
X124863000Y-113122500D01*
X124865000Y-113124500D01*
X124866000Y-113127500D01*
X124867000Y-113129500D01*
X124868000Y-113132500D01*
X124868000Y-113134500D01*
X124869000Y-113137500D01*
X124869000Y-113139500D01*
X124870000Y-113142500D01*
X124870000Y-113144500D01*
X124870000Y-113147500D01*
X124870000Y-113767500D01*
X124870000Y-113770500D01*
X124870000Y-113772500D01*
X124869000Y-113775500D01*
X124869000Y-113777500D01*
X124868000Y-113780500D01*
X124868000Y-113782500D01*
X124867000Y-113785500D01*
X124866000Y-113787500D01*
X124865000Y-113790500D01*
X124863000Y-113792500D01*
X124862000Y-113794500D01*
X124860000Y-113796500D01*
X124859000Y-113798500D01*
X124857000Y-113800500D01*
X124855000Y-113802500D01*
X124853000Y-113804500D01*
X124851000Y-113806500D01*
X124849000Y-113807500D01*
X124847000Y-113809500D01*
X124845000Y-113810500D01*
X124843000Y-113812500D01*
X124840000Y-113813500D01*
X124838000Y-113814500D01*
X124835000Y-113815500D01*
X124833000Y-113815500D01*
X124830000Y-113816500D01*
X124828000Y-113816500D01*
X124825000Y-113817500D01*
X124823000Y-113817500D01*
X124820000Y-113817500D01*
X124670000Y-113817500D01*
X124667000Y-113817500D01*
X124665000Y-113817500D01*
X124662000Y-113816500D01*
X124660000Y-113816500D01*
X124657000Y-113815500D01*
X124655000Y-113815500D01*
X124652000Y-113814500D01*
X124650000Y-113813500D01*
X124647000Y-113812500D01*
X124645000Y-113810500D01*
X124643000Y-113809500D01*
X124641000Y-113807500D01*
X124639000Y-113806500D01*
X124637000Y-113804500D01*
X124635000Y-113802500D01*
X124633000Y-113800500D01*
X124631000Y-113798500D01*
X124630000Y-113796500D01*
X124628000Y-113794500D01*
X124627000Y-113792500D01*
X124625000Y-113790500D01*
X124624000Y-113787500D01*
X124623000Y-113785500D01*
X124622000Y-113782500D01*
X124622000Y-113780500D01*
X124621000Y-113777500D01*
X124621000Y-113775500D01*
X124620000Y-113772500D01*
X124620000Y-113770500D01*
X124620000Y-113767500D01*
X124620000Y-113147500D01*
X124620000Y-113144500D01*
X124620000Y-113142500D01*
X124621000Y-113139500D01*
X124621000Y-113137500D01*
X124622000Y-113134500D01*
X124622000Y-113132500D01*
X124623000Y-113129500D01*
X124624000Y-113127500D01*
X124625000Y-113124500D01*
X124627000Y-113122500D01*
X124628000Y-113120500D01*
X124630000Y-113118500D01*
X124631000Y-113116500D01*
X124633000Y-113114500D01*
X124635000Y-113112500D01*
X124637000Y-113110500D01*
X124639000Y-113108500D01*
X124641000Y-113107500D01*
X124643000Y-113105500D01*
X124645000Y-113104500D01*
X124647000Y-113102500D01*
X124650000Y-113101500D01*
X124652000Y-113100500D01*
X124655000Y-113099500D01*
X124657000Y-113099500D01*
X124660000Y-113098500D01*
X124662000Y-113098500D01*
X124665000Y-113097500D01*
X124667000Y-113097500D01*
X124670000Y-113097500D01*
X124820000Y-113097500D01*
X124823000Y-113097500D01*
X124825000Y-113097500D01*
X124828000Y-113098500D01*
G36*
X124828000Y-113098500D02*
G01*
X124830000Y-113098500D01*
X124833000Y-113099500D01*
X124835000Y-113099500D01*
X124838000Y-113100500D01*
X124840000Y-113101500D01*
X124843000Y-113102500D01*
X124845000Y-113104500D01*
X124847000Y-113105500D01*
X124849000Y-113107500D01*
X124851000Y-113108500D01*
X124853000Y-113110500D01*
X124855000Y-113112500D01*
X124857000Y-113114500D01*
X124859000Y-113116500D01*
X124860000Y-113118500D01*
X124862000Y-113120500D01*
X124863000Y-113122500D01*
X124865000Y-113124500D01*
X124866000Y-113127500D01*
X124867000Y-113129500D01*
X124868000Y-113132500D01*
X124868000Y-113134500D01*
X124869000Y-113137500D01*
X124869000Y-113139500D01*
X124870000Y-113142500D01*
X124870000Y-113144500D01*
X124870000Y-113147500D01*
X124870000Y-113767500D01*
X124870000Y-113770500D01*
X124870000Y-113772500D01*
X124869000Y-113775500D01*
X124869000Y-113777500D01*
X124868000Y-113780500D01*
X124868000Y-113782500D01*
X124867000Y-113785500D01*
X124866000Y-113787500D01*
X124865000Y-113790500D01*
X124863000Y-113792500D01*
X124862000Y-113794500D01*
X124860000Y-113796500D01*
X124859000Y-113798500D01*
X124857000Y-113800500D01*
X124855000Y-113802500D01*
X124853000Y-113804500D01*
X124851000Y-113806500D01*
X124849000Y-113807500D01*
X124847000Y-113809500D01*
X124845000Y-113810500D01*
X124843000Y-113812500D01*
X124840000Y-113813500D01*
X124838000Y-113814500D01*
X124835000Y-113815500D01*
X124833000Y-113815500D01*
X124830000Y-113816500D01*
X124828000Y-113816500D01*
X124825000Y-113817500D01*
X124823000Y-113817500D01*
X124820000Y-113817500D01*
X124670000Y-113817500D01*
X124667000Y-113817500D01*
X124665000Y-113817500D01*
X124662000Y-113816500D01*
X124660000Y-113816500D01*
X124657000Y-113815500D01*
X124655000Y-113815500D01*
X124652000Y-113814500D01*
X124650000Y-113813500D01*
X124647000Y-113812500D01*
X124645000Y-113810500D01*
X124643000Y-113809500D01*
X124641000Y-113807500D01*
X124639000Y-113806500D01*
X124637000Y-113804500D01*
X124635000Y-113802500D01*
X124633000Y-113800500D01*
X124631000Y-113798500D01*
X124630000Y-113796500D01*
X124628000Y-113794500D01*
X124627000Y-113792500D01*
X124625000Y-113790500D01*
X124624000Y-113787500D01*
X124623000Y-113785500D01*
X124622000Y-113782500D01*
X124622000Y-113780500D01*
X124621000Y-113777500D01*
X124621000Y-113775500D01*
X124620000Y-113772500D01*
X124620000Y-113770500D01*
X124620000Y-113767500D01*
X124620000Y-113147500D01*
X124620000Y-113144500D01*
X124620000Y-113142500D01*
X124621000Y-113139500D01*
X124621000Y-113137500D01*
X124622000Y-113134500D01*
X124622000Y-113132500D01*
X124623000Y-113129500D01*
X124624000Y-113127500D01*
X124625000Y-113124500D01*
X124627000Y-113122500D01*
X124628000Y-113120500D01*
X124630000Y-113118500D01*
X124631000Y-113116500D01*
X124633000Y-113114500D01*
X124635000Y-113112500D01*
X124637000Y-113110500D01*
X124639000Y-113108500D01*
X124641000Y-113107500D01*
X124643000Y-113105500D01*
X124645000Y-113104500D01*
X124647000Y-113102500D01*
X124650000Y-113101500D01*
X124652000Y-113100500D01*
X124655000Y-113099500D01*
X124657000Y-113099500D01*
X124660000Y-113098500D01*
X124662000Y-113098500D01*
X124665000Y-113097500D01*
X124667000Y-113097500D01*
X124670000Y-113097500D01*
X124820000Y-113097500D01*
X124823000Y-113097500D01*
X124825000Y-113097500D01*
X124828000Y-113098500D01*
G37*
X124828000Y-114018500D02*
X124830000Y-114018500D01*
X124833000Y-114019500D01*
X124835000Y-114019500D01*
X124838000Y-114020500D01*
X124840000Y-114021500D01*
X124843000Y-114022500D01*
X124845000Y-114024500D01*
X124847000Y-114025500D01*
X124849000Y-114027500D01*
X124851000Y-114028500D01*
X124853000Y-114030500D01*
X124855000Y-114032500D01*
X124857000Y-114034500D01*
X124859000Y-114036500D01*
X124860000Y-114038500D01*
X124862000Y-114040500D01*
X124863000Y-114042500D01*
X124865000Y-114044500D01*
X124866000Y-114047500D01*
X124867000Y-114049500D01*
X124868000Y-114052500D01*
X124868000Y-114054500D01*
X124869000Y-114057500D01*
X124869000Y-114059500D01*
X124870000Y-114062500D01*
X124870000Y-114064500D01*
X124870000Y-114067500D01*
X124870000Y-114687500D01*
X124870000Y-114690500D01*
X124870000Y-114692500D01*
X124869000Y-114695500D01*
X124869000Y-114697500D01*
X124868000Y-114700500D01*
X124868000Y-114702500D01*
X124867000Y-114705500D01*
X124866000Y-114707500D01*
X124865000Y-114710500D01*
X124863000Y-114712500D01*
X124862000Y-114714500D01*
X124860000Y-114716500D01*
X124859000Y-114718500D01*
X124857000Y-114720500D01*
X124855000Y-114722500D01*
X124853000Y-114724500D01*
X124851000Y-114726500D01*
X124849000Y-114727500D01*
X124847000Y-114729500D01*
X124845000Y-114730500D01*
X124843000Y-114732500D01*
X124840000Y-114733500D01*
X124838000Y-114734500D01*
X124835000Y-114735500D01*
X124833000Y-114735500D01*
X124830000Y-114736500D01*
X124828000Y-114736500D01*
X124825000Y-114737500D01*
X124823000Y-114737500D01*
X124820000Y-114737500D01*
X124670000Y-114737500D01*
X124667000Y-114737500D01*
X124665000Y-114737500D01*
X124662000Y-114736500D01*
X124660000Y-114736500D01*
X124657000Y-114735500D01*
X124655000Y-114735500D01*
X124652000Y-114734500D01*
X124650000Y-114733500D01*
X124647000Y-114732500D01*
X124645000Y-114730500D01*
X124643000Y-114729500D01*
X124641000Y-114727500D01*
X124639000Y-114726500D01*
X124637000Y-114724500D01*
X124635000Y-114722500D01*
X124633000Y-114720500D01*
X124631000Y-114718500D01*
X124630000Y-114716500D01*
X124628000Y-114714500D01*
X124627000Y-114712500D01*
X124625000Y-114710500D01*
X124624000Y-114707500D01*
X124623000Y-114705500D01*
X124622000Y-114702500D01*
X124622000Y-114700500D01*
X124621000Y-114697500D01*
X124621000Y-114695500D01*
X124620000Y-114692500D01*
X124620000Y-114690500D01*
X124620000Y-114687500D01*
X124620000Y-114067500D01*
X124620000Y-114064500D01*
X124620000Y-114062500D01*
X124621000Y-114059500D01*
X124621000Y-114057500D01*
X124622000Y-114054500D01*
X124622000Y-114052500D01*
X124623000Y-114049500D01*
X124624000Y-114047500D01*
X124625000Y-114044500D01*
X124627000Y-114042500D01*
X124628000Y-114040500D01*
X124630000Y-114038500D01*
X124631000Y-114036500D01*
X124633000Y-114034500D01*
X124635000Y-114032500D01*
X124637000Y-114030500D01*
X124639000Y-114028500D01*
X124641000Y-114027500D01*
X124643000Y-114025500D01*
X124645000Y-114024500D01*
X124647000Y-114022500D01*
X124650000Y-114021500D01*
X124652000Y-114020500D01*
X124655000Y-114019500D01*
X124657000Y-114019500D01*
X124660000Y-114018500D01*
X124662000Y-114018500D01*
X124665000Y-114017500D01*
X124667000Y-114017500D01*
X124670000Y-114017500D01*
X124820000Y-114017500D01*
X124823000Y-114017500D01*
X124825000Y-114017500D01*
X124828000Y-114018500D01*
G36*
X124828000Y-114018500D02*
G01*
X124830000Y-114018500D01*
X124833000Y-114019500D01*
X124835000Y-114019500D01*
X124838000Y-114020500D01*
X124840000Y-114021500D01*
X124843000Y-114022500D01*
X124845000Y-114024500D01*
X124847000Y-114025500D01*
X124849000Y-114027500D01*
X124851000Y-114028500D01*
X124853000Y-114030500D01*
X124855000Y-114032500D01*
X124857000Y-114034500D01*
X124859000Y-114036500D01*
X124860000Y-114038500D01*
X124862000Y-114040500D01*
X124863000Y-114042500D01*
X124865000Y-114044500D01*
X124866000Y-114047500D01*
X124867000Y-114049500D01*
X124868000Y-114052500D01*
X124868000Y-114054500D01*
X124869000Y-114057500D01*
X124869000Y-114059500D01*
X124870000Y-114062500D01*
X124870000Y-114064500D01*
X124870000Y-114067500D01*
X124870000Y-114687500D01*
X124870000Y-114690500D01*
X124870000Y-114692500D01*
X124869000Y-114695500D01*
X124869000Y-114697500D01*
X124868000Y-114700500D01*
X124868000Y-114702500D01*
X124867000Y-114705500D01*
X124866000Y-114707500D01*
X124865000Y-114710500D01*
X124863000Y-114712500D01*
X124862000Y-114714500D01*
X124860000Y-114716500D01*
X124859000Y-114718500D01*
X124857000Y-114720500D01*
X124855000Y-114722500D01*
X124853000Y-114724500D01*
X124851000Y-114726500D01*
X124849000Y-114727500D01*
X124847000Y-114729500D01*
X124845000Y-114730500D01*
X124843000Y-114732500D01*
X124840000Y-114733500D01*
X124838000Y-114734500D01*
X124835000Y-114735500D01*
X124833000Y-114735500D01*
X124830000Y-114736500D01*
X124828000Y-114736500D01*
X124825000Y-114737500D01*
X124823000Y-114737500D01*
X124820000Y-114737500D01*
X124670000Y-114737500D01*
X124667000Y-114737500D01*
X124665000Y-114737500D01*
X124662000Y-114736500D01*
X124660000Y-114736500D01*
X124657000Y-114735500D01*
X124655000Y-114735500D01*
X124652000Y-114734500D01*
X124650000Y-114733500D01*
X124647000Y-114732500D01*
X124645000Y-114730500D01*
X124643000Y-114729500D01*
X124641000Y-114727500D01*
X124639000Y-114726500D01*
X124637000Y-114724500D01*
X124635000Y-114722500D01*
X124633000Y-114720500D01*
X124631000Y-114718500D01*
X124630000Y-114716500D01*
X124628000Y-114714500D01*
X124627000Y-114712500D01*
X124625000Y-114710500D01*
X124624000Y-114707500D01*
X124623000Y-114705500D01*
X124622000Y-114702500D01*
X124622000Y-114700500D01*
X124621000Y-114697500D01*
X124621000Y-114695500D01*
X124620000Y-114692500D01*
X124620000Y-114690500D01*
X124620000Y-114687500D01*
X124620000Y-114067500D01*
X124620000Y-114064500D01*
X124620000Y-114062500D01*
X124621000Y-114059500D01*
X124621000Y-114057500D01*
X124622000Y-114054500D01*
X124622000Y-114052500D01*
X124623000Y-114049500D01*
X124624000Y-114047500D01*
X124625000Y-114044500D01*
X124627000Y-114042500D01*
X124628000Y-114040500D01*
X124630000Y-114038500D01*
X124631000Y-114036500D01*
X124633000Y-114034500D01*
X124635000Y-114032500D01*
X124637000Y-114030500D01*
X124639000Y-114028500D01*
X124641000Y-114027500D01*
X124643000Y-114025500D01*
X124645000Y-114024500D01*
X124647000Y-114022500D01*
X124650000Y-114021500D01*
X124652000Y-114020500D01*
X124655000Y-114019500D01*
X124657000Y-114019500D01*
X124660000Y-114018500D01*
X124662000Y-114018500D01*
X124665000Y-114017500D01*
X124667000Y-114017500D01*
X124670000Y-114017500D01*
X124820000Y-114017500D01*
X124823000Y-114017500D01*
X124825000Y-114017500D01*
X124828000Y-114018500D01*
G37*
X125330000Y-113068500D02*
X125333000Y-113068500D01*
X125335000Y-113069500D01*
X125338000Y-113070500D01*
X125340000Y-113071500D01*
X125343000Y-113072500D01*
X125345000Y-113073500D01*
X125347000Y-113075500D01*
X125349000Y-113076500D01*
X125351000Y-113078500D01*
X125353000Y-113079500D01*
X125355000Y-113081500D01*
X125357000Y-113083500D01*
X125359000Y-113085500D01*
X125360000Y-113087500D01*
X125362000Y-113089500D01*
X125363000Y-113092500D01*
X125365000Y-113094500D01*
X125366000Y-113096500D01*
X125367000Y-113099500D01*
X125368000Y-113101500D01*
X125368000Y-113104500D01*
X125369000Y-113106500D01*
X125369000Y-113109500D01*
X125370000Y-113111500D01*
X125370000Y-113114500D01*
X125370000Y-113116500D01*
X125370000Y-113592500D01*
X125370000Y-113594500D01*
X125370000Y-113597500D01*
X125369000Y-113599500D01*
X125369000Y-113602500D01*
X125368000Y-113604500D01*
X125368000Y-113607500D01*
X125367000Y-113609500D01*
X125366000Y-113612500D01*
X125365000Y-113614500D01*
X125363000Y-113617500D01*
X125362000Y-113619500D01*
X125360000Y-113621500D01*
X125359000Y-113623500D01*
X125357000Y-113625500D01*
X125355000Y-113627500D01*
X125353000Y-113629500D01*
X125351000Y-113630500D01*
X125349000Y-113632500D01*
X125347000Y-113633500D01*
X125345000Y-113635500D01*
X125343000Y-113636500D01*
X125340000Y-113637500D01*
X125338000Y-113638500D01*
X125335000Y-113639500D01*
X125333000Y-113640500D01*
X125330000Y-113640500D01*
X125328000Y-113641500D01*
X125325000Y-113641500D01*
X125323000Y-113641500D01*
X125320000Y-113642500D01*
X125170000Y-113642500D01*
X125167000Y-113641500D01*
X125165000Y-113641500D01*
X125162000Y-113641500D01*
X125160000Y-113640500D01*
X125157000Y-113640500D01*
X125155000Y-113639500D01*
X125152000Y-113638500D01*
X125150000Y-113637500D01*
X125147000Y-113636500D01*
X125145000Y-113635500D01*
X125143000Y-113633500D01*
X125141000Y-113632500D01*
X125139000Y-113630500D01*
X125137000Y-113629500D01*
X125135000Y-113627500D01*
X125133000Y-113625500D01*
X125131000Y-113623500D01*
X125130000Y-113621500D01*
X125128000Y-113619500D01*
X125127000Y-113617500D01*
X125125000Y-113614500D01*
X125124000Y-113612500D01*
X125123000Y-113609500D01*
X125122000Y-113607500D01*
X125122000Y-113604500D01*
X125121000Y-113602500D01*
X125121000Y-113599500D01*
X125120000Y-113597500D01*
X125120000Y-113594500D01*
X125120000Y-113592500D01*
X125120000Y-113116500D01*
X125120000Y-113114500D01*
X125120000Y-113111500D01*
X125121000Y-113109500D01*
X125121000Y-113106500D01*
X125122000Y-113104500D01*
X125122000Y-113101500D01*
X125123000Y-113099500D01*
X125124000Y-113096500D01*
X125125000Y-113094500D01*
X125127000Y-113092500D01*
X125128000Y-113089500D01*
X125130000Y-113087500D01*
X125131000Y-113085500D01*
X125133000Y-113083500D01*
X125135000Y-113081500D01*
X125137000Y-113079500D01*
X125139000Y-113078500D01*
X125141000Y-113076500D01*
X125143000Y-113075500D01*
X125145000Y-113073500D01*
X125147000Y-113072500D01*
X125150000Y-113071500D01*
X125152000Y-113070500D01*
X125155000Y-113069500D01*
X125157000Y-113068500D01*
X125160000Y-113068500D01*
X125162000Y-113067500D01*
X125165000Y-113067500D01*
X125167000Y-113067500D01*
X125170000Y-113067500D01*
X125320000Y-113067500D01*
X125323000Y-113067500D01*
X125325000Y-113067500D01*
X125328000Y-113067500D01*
X125330000Y-113068500D01*
G36*
X125330000Y-113068500D02*
G01*
X125333000Y-113068500D01*
X125335000Y-113069500D01*
X125338000Y-113070500D01*
X125340000Y-113071500D01*
X125343000Y-113072500D01*
X125345000Y-113073500D01*
X125347000Y-113075500D01*
X125349000Y-113076500D01*
X125351000Y-113078500D01*
X125353000Y-113079500D01*
X125355000Y-113081500D01*
X125357000Y-113083500D01*
X125359000Y-113085500D01*
X125360000Y-113087500D01*
X125362000Y-113089500D01*
X125363000Y-113092500D01*
X125365000Y-113094500D01*
X125366000Y-113096500D01*
X125367000Y-113099500D01*
X125368000Y-113101500D01*
X125368000Y-113104500D01*
X125369000Y-113106500D01*
X125369000Y-113109500D01*
X125370000Y-113111500D01*
X125370000Y-113114500D01*
X125370000Y-113116500D01*
X125370000Y-113592500D01*
X125370000Y-113594500D01*
X125370000Y-113597500D01*
X125369000Y-113599500D01*
X125369000Y-113602500D01*
X125368000Y-113604500D01*
X125368000Y-113607500D01*
X125367000Y-113609500D01*
X125366000Y-113612500D01*
X125365000Y-113614500D01*
X125363000Y-113617500D01*
X125362000Y-113619500D01*
X125360000Y-113621500D01*
X125359000Y-113623500D01*
X125357000Y-113625500D01*
X125355000Y-113627500D01*
X125353000Y-113629500D01*
X125351000Y-113630500D01*
X125349000Y-113632500D01*
X125347000Y-113633500D01*
X125345000Y-113635500D01*
X125343000Y-113636500D01*
X125340000Y-113637500D01*
X125338000Y-113638500D01*
X125335000Y-113639500D01*
X125333000Y-113640500D01*
X125330000Y-113640500D01*
X125328000Y-113641500D01*
X125325000Y-113641500D01*
X125323000Y-113641500D01*
X125320000Y-113642500D01*
X125170000Y-113642500D01*
X125167000Y-113641500D01*
X125165000Y-113641500D01*
X125162000Y-113641500D01*
X125160000Y-113640500D01*
X125157000Y-113640500D01*
X125155000Y-113639500D01*
X125152000Y-113638500D01*
X125150000Y-113637500D01*
X125147000Y-113636500D01*
X125145000Y-113635500D01*
X125143000Y-113633500D01*
X125141000Y-113632500D01*
X125139000Y-113630500D01*
X125137000Y-113629500D01*
X125135000Y-113627500D01*
X125133000Y-113625500D01*
X125131000Y-113623500D01*
X125130000Y-113621500D01*
X125128000Y-113619500D01*
X125127000Y-113617500D01*
X125125000Y-113614500D01*
X125124000Y-113612500D01*
X125123000Y-113609500D01*
X125122000Y-113607500D01*
X125122000Y-113604500D01*
X125121000Y-113602500D01*
X125121000Y-113599500D01*
X125120000Y-113597500D01*
X125120000Y-113594500D01*
X125120000Y-113592500D01*
X125120000Y-113116500D01*
X125120000Y-113114500D01*
X125120000Y-113111500D01*
X125121000Y-113109500D01*
X125121000Y-113106500D01*
X125122000Y-113104500D01*
X125122000Y-113101500D01*
X125123000Y-113099500D01*
X125124000Y-113096500D01*
X125125000Y-113094500D01*
X125127000Y-113092500D01*
X125128000Y-113089500D01*
X125130000Y-113087500D01*
X125131000Y-113085500D01*
X125133000Y-113083500D01*
X125135000Y-113081500D01*
X125137000Y-113079500D01*
X125139000Y-113078500D01*
X125141000Y-113076500D01*
X125143000Y-113075500D01*
X125145000Y-113073500D01*
X125147000Y-113072500D01*
X125150000Y-113071500D01*
X125152000Y-113070500D01*
X125155000Y-113069500D01*
X125157000Y-113068500D01*
X125160000Y-113068500D01*
X125162000Y-113067500D01*
X125165000Y-113067500D01*
X125167000Y-113067500D01*
X125170000Y-113067500D01*
X125320000Y-113067500D01*
X125323000Y-113067500D01*
X125325000Y-113067500D01*
X125328000Y-113067500D01*
X125330000Y-113068500D01*
G37*
X125330000Y-113843500D02*
X125333000Y-113843500D01*
X125335000Y-113844500D01*
X125338000Y-113845500D01*
X125340000Y-113846500D01*
X125343000Y-113847500D01*
X125345000Y-113848500D01*
X125347000Y-113850500D01*
X125349000Y-113851500D01*
X125351000Y-113853500D01*
X125353000Y-113854500D01*
X125355000Y-113856500D01*
X125357000Y-113858500D01*
X125359000Y-113860500D01*
X125360000Y-113862500D01*
X125362000Y-113864500D01*
X125363000Y-113867500D01*
X125365000Y-113869500D01*
X125366000Y-113871500D01*
X125367000Y-113874500D01*
X125368000Y-113876500D01*
X125368000Y-113879500D01*
X125369000Y-113881500D01*
X125369000Y-113884500D01*
X125370000Y-113886500D01*
X125370000Y-113889500D01*
X125370000Y-113892500D01*
X125370000Y-114367500D01*
X125370000Y-114369500D01*
X125370000Y-114372500D01*
X125369000Y-114374500D01*
X125369000Y-114377500D01*
X125368000Y-114379500D01*
X125368000Y-114382500D01*
X125367000Y-114384500D01*
X125366000Y-114387500D01*
X125365000Y-114389500D01*
X125363000Y-114391500D01*
X125362000Y-114394500D01*
X125360000Y-114396500D01*
X125359000Y-114398500D01*
X125357000Y-114400500D01*
X125355000Y-114402500D01*
X125353000Y-114404500D01*
X125351000Y-114405500D01*
X125349000Y-114407500D01*
X125347000Y-114408500D01*
X125345000Y-114410500D01*
X125343000Y-114411500D01*
X125340000Y-114412500D01*
X125338000Y-114413500D01*
X125335000Y-114414500D01*
X125333000Y-114415500D01*
X125330000Y-114415500D01*
X125328000Y-114416500D01*
X125325000Y-114416500D01*
X125323000Y-114416500D01*
X125320000Y-114416500D01*
X125170000Y-114416500D01*
X125167000Y-114416500D01*
X125165000Y-114416500D01*
X125162000Y-114416500D01*
X125160000Y-114415500D01*
X125157000Y-114415500D01*
X125155000Y-114414500D01*
X125152000Y-114413500D01*
X125150000Y-114412500D01*
X125147000Y-114411500D01*
X125145000Y-114410500D01*
X125143000Y-114408500D01*
X125141000Y-114407500D01*
X125139000Y-114405500D01*
X125137000Y-114404500D01*
X125135000Y-114402500D01*
X125133000Y-114400500D01*
X125131000Y-114398500D01*
X125130000Y-114396500D01*
X125128000Y-114394500D01*
X125127000Y-114391500D01*
X125125000Y-114389500D01*
X125124000Y-114387500D01*
X125123000Y-114384500D01*
X125122000Y-114382500D01*
X125122000Y-114379500D01*
X125121000Y-114377500D01*
X125121000Y-114374500D01*
X125120000Y-114372500D01*
X125120000Y-114369500D01*
X125120000Y-114367500D01*
X125120000Y-113892500D01*
X125120000Y-113889500D01*
X125120000Y-113886500D01*
X125121000Y-113884500D01*
X125121000Y-113881500D01*
X125122000Y-113879500D01*
X125122000Y-113876500D01*
X125123000Y-113874500D01*
X125124000Y-113871500D01*
X125125000Y-113869500D01*
X125127000Y-113867500D01*
X125128000Y-113864500D01*
X125130000Y-113862500D01*
X125131000Y-113860500D01*
X125133000Y-113858500D01*
X125135000Y-113856500D01*
X125137000Y-113854500D01*
X125139000Y-113853500D01*
X125141000Y-113851500D01*
X125143000Y-113850500D01*
X125145000Y-113848500D01*
X125147000Y-113847500D01*
X125150000Y-113846500D01*
X125152000Y-113845500D01*
X125155000Y-113844500D01*
X125157000Y-113843500D01*
X125160000Y-113843500D01*
X125162000Y-113842500D01*
X125165000Y-113842500D01*
X125167000Y-113842500D01*
X125170000Y-113842500D01*
X125320000Y-113842500D01*
X125323000Y-113842500D01*
X125325000Y-113842500D01*
X125328000Y-113842500D01*
X125330000Y-113843500D01*
G36*
X125330000Y-113843500D02*
G01*
X125333000Y-113843500D01*
X125335000Y-113844500D01*
X125338000Y-113845500D01*
X125340000Y-113846500D01*
X125343000Y-113847500D01*
X125345000Y-113848500D01*
X125347000Y-113850500D01*
X125349000Y-113851500D01*
X125351000Y-113853500D01*
X125353000Y-113854500D01*
X125355000Y-113856500D01*
X125357000Y-113858500D01*
X125359000Y-113860500D01*
X125360000Y-113862500D01*
X125362000Y-113864500D01*
X125363000Y-113867500D01*
X125365000Y-113869500D01*
X125366000Y-113871500D01*
X125367000Y-113874500D01*
X125368000Y-113876500D01*
X125368000Y-113879500D01*
X125369000Y-113881500D01*
X125369000Y-113884500D01*
X125370000Y-113886500D01*
X125370000Y-113889500D01*
X125370000Y-113892500D01*
X125370000Y-114367500D01*
X125370000Y-114369500D01*
X125370000Y-114372500D01*
X125369000Y-114374500D01*
X125369000Y-114377500D01*
X125368000Y-114379500D01*
X125368000Y-114382500D01*
X125367000Y-114384500D01*
X125366000Y-114387500D01*
X125365000Y-114389500D01*
X125363000Y-114391500D01*
X125362000Y-114394500D01*
X125360000Y-114396500D01*
X125359000Y-114398500D01*
X125357000Y-114400500D01*
X125355000Y-114402500D01*
X125353000Y-114404500D01*
X125351000Y-114405500D01*
X125349000Y-114407500D01*
X125347000Y-114408500D01*
X125345000Y-114410500D01*
X125343000Y-114411500D01*
X125340000Y-114412500D01*
X125338000Y-114413500D01*
X125335000Y-114414500D01*
X125333000Y-114415500D01*
X125330000Y-114415500D01*
X125328000Y-114416500D01*
X125325000Y-114416500D01*
X125323000Y-114416500D01*
X125320000Y-114416500D01*
X125170000Y-114416500D01*
X125167000Y-114416500D01*
X125165000Y-114416500D01*
X125162000Y-114416500D01*
X125160000Y-114415500D01*
X125157000Y-114415500D01*
X125155000Y-114414500D01*
X125152000Y-114413500D01*
X125150000Y-114412500D01*
X125147000Y-114411500D01*
X125145000Y-114410500D01*
X125143000Y-114408500D01*
X125141000Y-114407500D01*
X125139000Y-114405500D01*
X125137000Y-114404500D01*
X125135000Y-114402500D01*
X125133000Y-114400500D01*
X125131000Y-114398500D01*
X125130000Y-114396500D01*
X125128000Y-114394500D01*
X125127000Y-114391500D01*
X125125000Y-114389500D01*
X125124000Y-114387500D01*
X125123000Y-114384500D01*
X125122000Y-114382500D01*
X125122000Y-114379500D01*
X125121000Y-114377500D01*
X125121000Y-114374500D01*
X125120000Y-114372500D01*
X125120000Y-114369500D01*
X125120000Y-114367500D01*
X125120000Y-113892500D01*
X125120000Y-113889500D01*
X125120000Y-113886500D01*
X125121000Y-113884500D01*
X125121000Y-113881500D01*
X125122000Y-113879500D01*
X125122000Y-113876500D01*
X125123000Y-113874500D01*
X125124000Y-113871500D01*
X125125000Y-113869500D01*
X125127000Y-113867500D01*
X125128000Y-113864500D01*
X125130000Y-113862500D01*
X125131000Y-113860500D01*
X125133000Y-113858500D01*
X125135000Y-113856500D01*
X125137000Y-113854500D01*
X125139000Y-113853500D01*
X125141000Y-113851500D01*
X125143000Y-113850500D01*
X125145000Y-113848500D01*
X125147000Y-113847500D01*
X125150000Y-113846500D01*
X125152000Y-113845500D01*
X125155000Y-113844500D01*
X125157000Y-113843500D01*
X125160000Y-113843500D01*
X125162000Y-113842500D01*
X125165000Y-113842500D01*
X125167000Y-113842500D01*
X125170000Y-113842500D01*
X125320000Y-113842500D01*
X125323000Y-113842500D01*
X125325000Y-113842500D01*
X125328000Y-113842500D01*
X125330000Y-113843500D01*
G37*
X123603000Y-113618500D02*
X123605000Y-113618500D01*
X123608000Y-113619500D01*
X123610000Y-113619500D01*
X123613000Y-113620500D01*
X123615000Y-113621500D01*
X123618000Y-113622500D01*
X123620000Y-113624500D01*
X123622000Y-113625500D01*
X123624000Y-113627500D01*
X123626000Y-113628500D01*
X123628000Y-113630500D01*
X123630000Y-113632500D01*
X123632000Y-113634500D01*
X123634000Y-113636500D01*
X123635000Y-113638500D01*
X123637000Y-113640500D01*
X123638000Y-113642500D01*
X123640000Y-113644500D01*
X123641000Y-113647500D01*
X123642000Y-113649500D01*
X123643000Y-113652500D01*
X123643000Y-113654500D01*
X123644000Y-113657500D01*
X123644000Y-113659500D01*
X123645000Y-113662500D01*
X123645000Y-113664500D01*
X123645000Y-113667500D01*
X123645000Y-114317500D01*
X123645000Y-114320500D01*
X123645000Y-114322500D01*
X123644000Y-114325500D01*
X123644000Y-114327500D01*
X123643000Y-114330500D01*
X123643000Y-114332500D01*
X123642000Y-114335500D01*
X123641000Y-114337500D01*
X123640000Y-114340500D01*
X123638000Y-114342500D01*
X123637000Y-114344500D01*
X123635000Y-114346500D01*
X123634000Y-114348500D01*
X123632000Y-114350500D01*
X123630000Y-114352500D01*
X123628000Y-114354500D01*
X123626000Y-114356500D01*
X123624000Y-114357500D01*
X123622000Y-114359500D01*
X123620000Y-114360500D01*
X123618000Y-114362500D01*
X123615000Y-114363500D01*
X123613000Y-114364500D01*
X123610000Y-114365500D01*
X123608000Y-114365500D01*
X123605000Y-114366500D01*
X123603000Y-114366500D01*
X123600000Y-114367500D01*
X123598000Y-114367500D01*
X123595000Y-114367500D01*
X123095000Y-114367500D01*
X123092000Y-114367500D01*
X123090000Y-114367500D01*
X123087000Y-114366500D01*
X123085000Y-114366500D01*
X123082000Y-114365500D01*
X123080000Y-114365500D01*
X123077000Y-114364500D01*
X123075000Y-114363500D01*
X123072000Y-114362500D01*
X123070000Y-114360500D01*
X123068000Y-114359500D01*
X123066000Y-114357500D01*
X123064000Y-114356500D01*
X123062000Y-114354500D01*
X123060000Y-114352500D01*
X123058000Y-114350500D01*
X123056000Y-114348500D01*
X123055000Y-114346500D01*
X123053000Y-114344500D01*
X123052000Y-114342500D01*
X123050000Y-114340500D01*
X123049000Y-114337500D01*
X123048000Y-114335500D01*
X123047000Y-114332500D01*
X123047000Y-114330500D01*
X123046000Y-114327500D01*
X123046000Y-114325500D01*
X123045000Y-114322500D01*
X123045000Y-114320500D01*
X123045000Y-114317500D01*
X123045000Y-114167500D01*
X123045000Y-114164500D01*
X123045000Y-114162500D01*
X123046000Y-114159500D01*
X123046000Y-114157500D01*
X123047000Y-114154500D01*
X123047000Y-114152500D01*
X123048000Y-114149500D01*
X123049000Y-114147500D01*
X123050000Y-114144500D01*
X123052000Y-114142500D01*
X123053000Y-114140500D01*
X123055000Y-114138500D01*
X123056000Y-114136500D01*
X123058000Y-114134500D01*
X123060000Y-114132500D01*
X123062000Y-114130500D01*
X123064000Y-114128500D01*
X123066000Y-114127500D01*
X123068000Y-114125500D01*
X123070000Y-114124500D01*
X123072000Y-114122500D01*
X123075000Y-114121500D01*
X123077000Y-114120500D01*
X123080000Y-114119500D01*
X123082000Y-114119500D01*
X123085000Y-114118500D01*
X123087000Y-114118500D01*
X123090000Y-114117500D01*
X123092000Y-114117500D01*
X123095000Y-114117500D01*
X123395000Y-114117500D01*
X123395000Y-113867500D01*
X123095000Y-113867500D01*
X123092000Y-113867500D01*
X123090000Y-113867500D01*
X123087000Y-113866500D01*
X123085000Y-113866500D01*
X123082000Y-113865500D01*
X123080000Y-113865500D01*
X123077000Y-113864500D01*
X123075000Y-113863500D01*
X123072000Y-113862500D01*
X123070000Y-113860500D01*
X123068000Y-113859500D01*
X123066000Y-113857500D01*
X123064000Y-113856500D01*
X123062000Y-113854500D01*
X123060000Y-113852500D01*
X123058000Y-113850500D01*
X123056000Y-113848500D01*
X123055000Y-113846500D01*
X123053000Y-113844500D01*
X123052000Y-113842500D01*
X123050000Y-113840500D01*
X123049000Y-113837500D01*
X123048000Y-113835500D01*
X123047000Y-113832500D01*
X123047000Y-113830500D01*
X123046000Y-113827500D01*
X123046000Y-113825500D01*
X123045000Y-113822500D01*
X123045000Y-113820500D01*
X123045000Y-113817500D01*
X123045000Y-113667500D01*
X123045000Y-113664500D01*
X123045000Y-113662500D01*
X123046000Y-113659500D01*
X123046000Y-113657500D01*
X123047000Y-113654500D01*
X123047000Y-113652500D01*
X123048000Y-113649500D01*
X123049000Y-113647500D01*
X123050000Y-113644500D01*
X123052000Y-113642500D01*
X123053000Y-113640500D01*
X123055000Y-113638500D01*
X123056000Y-113636500D01*
X123058000Y-113634500D01*
X123060000Y-113632500D01*
X123062000Y-113630500D01*
X123064000Y-113628500D01*
X123066000Y-113627500D01*
X123068000Y-113625500D01*
X123070000Y-113624500D01*
X123072000Y-113622500D01*
X123075000Y-113621500D01*
X123077000Y-113620500D01*
X123080000Y-113619500D01*
X123082000Y-113619500D01*
X123085000Y-113618500D01*
X123087000Y-113618500D01*
X123090000Y-113617500D01*
X123092000Y-113617500D01*
X123095000Y-113617500D01*
X123595000Y-113617500D01*
X123598000Y-113617500D01*
X123600000Y-113617500D01*
X123603000Y-113618500D01*
G36*
X123603000Y-113618500D02*
G01*
X123605000Y-113618500D01*
X123608000Y-113619500D01*
X123610000Y-113619500D01*
X123613000Y-113620500D01*
X123615000Y-113621500D01*
X123618000Y-113622500D01*
X123620000Y-113624500D01*
X123622000Y-113625500D01*
X123624000Y-113627500D01*
X123626000Y-113628500D01*
X123628000Y-113630500D01*
X123630000Y-113632500D01*
X123632000Y-113634500D01*
X123634000Y-113636500D01*
X123635000Y-113638500D01*
X123637000Y-113640500D01*
X123638000Y-113642500D01*
X123640000Y-113644500D01*
X123641000Y-113647500D01*
X123642000Y-113649500D01*
X123643000Y-113652500D01*
X123643000Y-113654500D01*
X123644000Y-113657500D01*
X123644000Y-113659500D01*
X123645000Y-113662500D01*
X123645000Y-113664500D01*
X123645000Y-113667500D01*
X123645000Y-114317500D01*
X123645000Y-114320500D01*
X123645000Y-114322500D01*
X123644000Y-114325500D01*
X123644000Y-114327500D01*
X123643000Y-114330500D01*
X123643000Y-114332500D01*
X123642000Y-114335500D01*
X123641000Y-114337500D01*
X123640000Y-114340500D01*
X123638000Y-114342500D01*
X123637000Y-114344500D01*
X123635000Y-114346500D01*
X123634000Y-114348500D01*
X123632000Y-114350500D01*
X123630000Y-114352500D01*
X123628000Y-114354500D01*
X123626000Y-114356500D01*
X123624000Y-114357500D01*
X123622000Y-114359500D01*
X123620000Y-114360500D01*
X123618000Y-114362500D01*
X123615000Y-114363500D01*
X123613000Y-114364500D01*
X123610000Y-114365500D01*
X123608000Y-114365500D01*
X123605000Y-114366500D01*
X123603000Y-114366500D01*
X123600000Y-114367500D01*
X123598000Y-114367500D01*
X123595000Y-114367500D01*
X123095000Y-114367500D01*
X123092000Y-114367500D01*
X123090000Y-114367500D01*
X123087000Y-114366500D01*
X123085000Y-114366500D01*
X123082000Y-114365500D01*
X123080000Y-114365500D01*
X123077000Y-114364500D01*
X123075000Y-114363500D01*
X123072000Y-114362500D01*
X123070000Y-114360500D01*
X123068000Y-114359500D01*
X123066000Y-114357500D01*
X123064000Y-114356500D01*
X123062000Y-114354500D01*
X123060000Y-114352500D01*
X123058000Y-114350500D01*
X123056000Y-114348500D01*
X123055000Y-114346500D01*
X123053000Y-114344500D01*
X123052000Y-114342500D01*
X123050000Y-114340500D01*
X123049000Y-114337500D01*
X123048000Y-114335500D01*
X123047000Y-114332500D01*
X123047000Y-114330500D01*
X123046000Y-114327500D01*
X123046000Y-114325500D01*
X123045000Y-114322500D01*
X123045000Y-114320500D01*
X123045000Y-114317500D01*
X123045000Y-114167500D01*
X123045000Y-114164500D01*
X123045000Y-114162500D01*
X123046000Y-114159500D01*
X123046000Y-114157500D01*
X123047000Y-114154500D01*
X123047000Y-114152500D01*
X123048000Y-114149500D01*
X123049000Y-114147500D01*
X123050000Y-114144500D01*
X123052000Y-114142500D01*
X123053000Y-114140500D01*
X123055000Y-114138500D01*
X123056000Y-114136500D01*
X123058000Y-114134500D01*
X123060000Y-114132500D01*
X123062000Y-114130500D01*
X123064000Y-114128500D01*
X123066000Y-114127500D01*
X123068000Y-114125500D01*
X123070000Y-114124500D01*
X123072000Y-114122500D01*
X123075000Y-114121500D01*
X123077000Y-114120500D01*
X123080000Y-114119500D01*
X123082000Y-114119500D01*
X123085000Y-114118500D01*
X123087000Y-114118500D01*
X123090000Y-114117500D01*
X123092000Y-114117500D01*
X123095000Y-114117500D01*
X123395000Y-114117500D01*
X123395000Y-113867500D01*
X123095000Y-113867500D01*
X123092000Y-113867500D01*
X123090000Y-113867500D01*
X123087000Y-113866500D01*
X123085000Y-113866500D01*
X123082000Y-113865500D01*
X123080000Y-113865500D01*
X123077000Y-113864500D01*
X123075000Y-113863500D01*
X123072000Y-113862500D01*
X123070000Y-113860500D01*
X123068000Y-113859500D01*
X123066000Y-113857500D01*
X123064000Y-113856500D01*
X123062000Y-113854500D01*
X123060000Y-113852500D01*
X123058000Y-113850500D01*
X123056000Y-113848500D01*
X123055000Y-113846500D01*
X123053000Y-113844500D01*
X123052000Y-113842500D01*
X123050000Y-113840500D01*
X123049000Y-113837500D01*
X123048000Y-113835500D01*
X123047000Y-113832500D01*
X123047000Y-113830500D01*
X123046000Y-113827500D01*
X123046000Y-113825500D01*
X123045000Y-113822500D01*
X123045000Y-113820500D01*
X123045000Y-113817500D01*
X123045000Y-113667500D01*
X123045000Y-113664500D01*
X123045000Y-113662500D01*
X123046000Y-113659500D01*
X123046000Y-113657500D01*
X123047000Y-113654500D01*
X123047000Y-113652500D01*
X123048000Y-113649500D01*
X123049000Y-113647500D01*
X123050000Y-113644500D01*
X123052000Y-113642500D01*
X123053000Y-113640500D01*
X123055000Y-113638500D01*
X123056000Y-113636500D01*
X123058000Y-113634500D01*
X123060000Y-113632500D01*
X123062000Y-113630500D01*
X123064000Y-113628500D01*
X123066000Y-113627500D01*
X123068000Y-113625500D01*
X123070000Y-113624500D01*
X123072000Y-113622500D01*
X123075000Y-113621500D01*
X123077000Y-113620500D01*
X123080000Y-113619500D01*
X123082000Y-113619500D01*
X123085000Y-113618500D01*
X123087000Y-113618500D01*
X123090000Y-113617500D01*
X123092000Y-113617500D01*
X123095000Y-113617500D01*
X123595000Y-113617500D01*
X123598000Y-113617500D01*
X123600000Y-113617500D01*
X123603000Y-113618500D01*
G37*
X126403000Y-113618500D02*
X126405000Y-113618500D01*
X126408000Y-113619500D01*
X126410000Y-113619500D01*
X126413000Y-113620500D01*
X126415000Y-113621500D01*
X126418000Y-113622500D01*
X126420000Y-113624500D01*
X126422000Y-113625500D01*
X126424000Y-113627500D01*
X126426000Y-113628500D01*
X126428000Y-113630500D01*
X126430000Y-113632500D01*
X126432000Y-113634500D01*
X126434000Y-113636500D01*
X126435000Y-113638500D01*
X126437000Y-113640500D01*
X126438000Y-113642500D01*
X126440000Y-113644500D01*
X126441000Y-113647500D01*
X126442000Y-113649500D01*
X126443000Y-113652500D01*
X126443000Y-113654500D01*
X126444000Y-113657500D01*
X126444000Y-113659500D01*
X126445000Y-113662500D01*
X126445000Y-113664500D01*
X126445000Y-113667500D01*
X126445000Y-113817500D01*
X126445000Y-113820500D01*
X126445000Y-113822500D01*
X126444000Y-113825500D01*
X126444000Y-113827500D01*
X126443000Y-113830500D01*
X126443000Y-113832500D01*
X126442000Y-113835500D01*
X126441000Y-113837500D01*
X126440000Y-113840500D01*
X126438000Y-113842500D01*
X126437000Y-113844500D01*
X126435000Y-113846500D01*
X126434000Y-113848500D01*
X126432000Y-113850500D01*
X126430000Y-113852500D01*
X126428000Y-113854500D01*
X126426000Y-113856500D01*
X126424000Y-113857500D01*
X126422000Y-113859500D01*
X126420000Y-113860500D01*
X126418000Y-113862500D01*
X126415000Y-113863500D01*
X126413000Y-113864500D01*
X126410000Y-113865500D01*
X126408000Y-113865500D01*
X126405000Y-113866500D01*
X126403000Y-113866500D01*
X126400000Y-113867500D01*
X126398000Y-113867500D01*
X126395000Y-113867500D01*
X126095000Y-113867500D01*
X126095000Y-114117500D01*
X126395000Y-114117500D01*
X126398000Y-114117500D01*
X126400000Y-114117500D01*
X126403000Y-114118500D01*
X126405000Y-114118500D01*
X126408000Y-114119500D01*
X126410000Y-114119500D01*
X126413000Y-114120500D01*
X126415000Y-114121500D01*
X126418000Y-114122500D01*
X126420000Y-114124500D01*
X126422000Y-114125500D01*
X126424000Y-114127500D01*
X126426000Y-114128500D01*
X126428000Y-114130500D01*
X126430000Y-114132500D01*
X126432000Y-114134500D01*
X126434000Y-114136500D01*
X126435000Y-114138500D01*
X126437000Y-114140500D01*
X126438000Y-114142500D01*
X126440000Y-114144500D01*
X126441000Y-114147500D01*
X126442000Y-114149500D01*
X126443000Y-114152500D01*
X126443000Y-114154500D01*
X126444000Y-114157500D01*
X126444000Y-114159500D01*
X126445000Y-114162500D01*
X126445000Y-114164500D01*
X126445000Y-114167500D01*
X126445000Y-114317500D01*
X126445000Y-114320500D01*
X126445000Y-114322500D01*
X126444000Y-114325500D01*
X126444000Y-114327500D01*
X126443000Y-114330500D01*
X126443000Y-114332500D01*
X126442000Y-114335500D01*
X126441000Y-114337500D01*
X126440000Y-114340500D01*
X126438000Y-114342500D01*
X126437000Y-114344500D01*
X126435000Y-114346500D01*
X126434000Y-114348500D01*
X126432000Y-114350500D01*
X126430000Y-114352500D01*
X126428000Y-114354500D01*
X126426000Y-114356500D01*
X126424000Y-114357500D01*
X126422000Y-114359500D01*
X126420000Y-114360500D01*
X126418000Y-114362500D01*
X126415000Y-114363500D01*
X126413000Y-114364500D01*
X126410000Y-114365500D01*
X126408000Y-114365500D01*
X126405000Y-114366500D01*
X126403000Y-114366500D01*
X126400000Y-114367500D01*
X126398000Y-114367500D01*
X126395000Y-114367500D01*
X125895000Y-114367500D01*
X125892000Y-114367500D01*
X125890000Y-114367500D01*
X125887000Y-114366500D01*
X125885000Y-114366500D01*
X125882000Y-114365500D01*
X125880000Y-114365500D01*
X125877000Y-114364500D01*
X125875000Y-114363500D01*
X125872000Y-114362500D01*
X125870000Y-114360500D01*
X125868000Y-114359500D01*
X125866000Y-114357500D01*
X125864000Y-114356500D01*
X125862000Y-114354500D01*
X125860000Y-114352500D01*
X125858000Y-114350500D01*
X125856000Y-114348500D01*
X125855000Y-114346500D01*
X125853000Y-114344500D01*
X125852000Y-114342500D01*
X125850000Y-114340500D01*
X125849000Y-114337500D01*
X125848000Y-114335500D01*
X125847000Y-114332500D01*
X125847000Y-114330500D01*
X125846000Y-114327500D01*
X125846000Y-114325500D01*
X125845000Y-114322500D01*
X125845000Y-114320500D01*
X125845000Y-114317500D01*
X125845000Y-113667500D01*
X125845000Y-113664500D01*
X125845000Y-113662500D01*
X125846000Y-113659500D01*
X125846000Y-113657500D01*
X125847000Y-113654500D01*
X125847000Y-113652500D01*
X125848000Y-113649500D01*
X125849000Y-113647500D01*
X125850000Y-113644500D01*
X125852000Y-113642500D01*
X125853000Y-113640500D01*
X125855000Y-113638500D01*
X125856000Y-113636500D01*
X125858000Y-113634500D01*
X125860000Y-113632500D01*
X125862000Y-113630500D01*
X125864000Y-113628500D01*
X125866000Y-113627500D01*
X125868000Y-113625500D01*
X125870000Y-113624500D01*
X125872000Y-113622500D01*
X125875000Y-113621500D01*
X125877000Y-113620500D01*
X125880000Y-113619500D01*
X125882000Y-113619500D01*
X125885000Y-113618500D01*
X125887000Y-113618500D01*
X125890000Y-113617500D01*
X125892000Y-113617500D01*
X125895000Y-113617500D01*
X126395000Y-113617500D01*
X126398000Y-113617500D01*
X126400000Y-113617500D01*
X126403000Y-113618500D01*
G36*
X126403000Y-113618500D02*
G01*
X126405000Y-113618500D01*
X126408000Y-113619500D01*
X126410000Y-113619500D01*
X126413000Y-113620500D01*
X126415000Y-113621500D01*
X126418000Y-113622500D01*
X126420000Y-113624500D01*
X126422000Y-113625500D01*
X126424000Y-113627500D01*
X126426000Y-113628500D01*
X126428000Y-113630500D01*
X126430000Y-113632500D01*
X126432000Y-113634500D01*
X126434000Y-113636500D01*
X126435000Y-113638500D01*
X126437000Y-113640500D01*
X126438000Y-113642500D01*
X126440000Y-113644500D01*
X126441000Y-113647500D01*
X126442000Y-113649500D01*
X126443000Y-113652500D01*
X126443000Y-113654500D01*
X126444000Y-113657500D01*
X126444000Y-113659500D01*
X126445000Y-113662500D01*
X126445000Y-113664500D01*
X126445000Y-113667500D01*
X126445000Y-113817500D01*
X126445000Y-113820500D01*
X126445000Y-113822500D01*
X126444000Y-113825500D01*
X126444000Y-113827500D01*
X126443000Y-113830500D01*
X126443000Y-113832500D01*
X126442000Y-113835500D01*
X126441000Y-113837500D01*
X126440000Y-113840500D01*
X126438000Y-113842500D01*
X126437000Y-113844500D01*
X126435000Y-113846500D01*
X126434000Y-113848500D01*
X126432000Y-113850500D01*
X126430000Y-113852500D01*
X126428000Y-113854500D01*
X126426000Y-113856500D01*
X126424000Y-113857500D01*
X126422000Y-113859500D01*
X126420000Y-113860500D01*
X126418000Y-113862500D01*
X126415000Y-113863500D01*
X126413000Y-113864500D01*
X126410000Y-113865500D01*
X126408000Y-113865500D01*
X126405000Y-113866500D01*
X126403000Y-113866500D01*
X126400000Y-113867500D01*
X126398000Y-113867500D01*
X126395000Y-113867500D01*
X126095000Y-113867500D01*
X126095000Y-114117500D01*
X126395000Y-114117500D01*
X126398000Y-114117500D01*
X126400000Y-114117500D01*
X126403000Y-114118500D01*
X126405000Y-114118500D01*
X126408000Y-114119500D01*
X126410000Y-114119500D01*
X126413000Y-114120500D01*
X126415000Y-114121500D01*
X126418000Y-114122500D01*
X126420000Y-114124500D01*
X126422000Y-114125500D01*
X126424000Y-114127500D01*
X126426000Y-114128500D01*
X126428000Y-114130500D01*
X126430000Y-114132500D01*
X126432000Y-114134500D01*
X126434000Y-114136500D01*
X126435000Y-114138500D01*
X126437000Y-114140500D01*
X126438000Y-114142500D01*
X126440000Y-114144500D01*
X126441000Y-114147500D01*
X126442000Y-114149500D01*
X126443000Y-114152500D01*
X126443000Y-114154500D01*
X126444000Y-114157500D01*
X126444000Y-114159500D01*
X126445000Y-114162500D01*
X126445000Y-114164500D01*
X126445000Y-114167500D01*
X126445000Y-114317500D01*
X126445000Y-114320500D01*
X126445000Y-114322500D01*
X126444000Y-114325500D01*
X126444000Y-114327500D01*
X126443000Y-114330500D01*
X126443000Y-114332500D01*
X126442000Y-114335500D01*
X126441000Y-114337500D01*
X126440000Y-114340500D01*
X126438000Y-114342500D01*
X126437000Y-114344500D01*
X126435000Y-114346500D01*
X126434000Y-114348500D01*
X126432000Y-114350500D01*
X126430000Y-114352500D01*
X126428000Y-114354500D01*
X126426000Y-114356500D01*
X126424000Y-114357500D01*
X126422000Y-114359500D01*
X126420000Y-114360500D01*
X126418000Y-114362500D01*
X126415000Y-114363500D01*
X126413000Y-114364500D01*
X126410000Y-114365500D01*
X126408000Y-114365500D01*
X126405000Y-114366500D01*
X126403000Y-114366500D01*
X126400000Y-114367500D01*
X126398000Y-114367500D01*
X126395000Y-114367500D01*
X125895000Y-114367500D01*
X125892000Y-114367500D01*
X125890000Y-114367500D01*
X125887000Y-114366500D01*
X125885000Y-114366500D01*
X125882000Y-114365500D01*
X125880000Y-114365500D01*
X125877000Y-114364500D01*
X125875000Y-114363500D01*
X125872000Y-114362500D01*
X125870000Y-114360500D01*
X125868000Y-114359500D01*
X125866000Y-114357500D01*
X125864000Y-114356500D01*
X125862000Y-114354500D01*
X125860000Y-114352500D01*
X125858000Y-114350500D01*
X125856000Y-114348500D01*
X125855000Y-114346500D01*
X125853000Y-114344500D01*
X125852000Y-114342500D01*
X125850000Y-114340500D01*
X125849000Y-114337500D01*
X125848000Y-114335500D01*
X125847000Y-114332500D01*
X125847000Y-114330500D01*
X125846000Y-114327500D01*
X125846000Y-114325500D01*
X125845000Y-114322500D01*
X125845000Y-114320500D01*
X125845000Y-114317500D01*
X125845000Y-113667500D01*
X125845000Y-113664500D01*
X125845000Y-113662500D01*
X125846000Y-113659500D01*
X125846000Y-113657500D01*
X125847000Y-113654500D01*
X125847000Y-113652500D01*
X125848000Y-113649500D01*
X125849000Y-113647500D01*
X125850000Y-113644500D01*
X125852000Y-113642500D01*
X125853000Y-113640500D01*
X125855000Y-113638500D01*
X125856000Y-113636500D01*
X125858000Y-113634500D01*
X125860000Y-113632500D01*
X125862000Y-113630500D01*
X125864000Y-113628500D01*
X125866000Y-113627500D01*
X125868000Y-113625500D01*
X125870000Y-113624500D01*
X125872000Y-113622500D01*
X125875000Y-113621500D01*
X125877000Y-113620500D01*
X125880000Y-113619500D01*
X125882000Y-113619500D01*
X125885000Y-113618500D01*
X125887000Y-113618500D01*
X125890000Y-113617500D01*
X125892000Y-113617500D01*
X125895000Y-113617500D01*
X126395000Y-113617500D01*
X126398000Y-113617500D01*
X126400000Y-113617500D01*
X126403000Y-113618500D01*
G37*
%TD*%
D11*
%TO.C,U3*%
X135500000Y-117635000D03*
X136000000Y-117635000D03*
X136500000Y-117635000D03*
X137000000Y-117635000D03*
X137000000Y-115665000D03*
X136500000Y-115665000D03*
X136000000Y-115665000D03*
X135500000Y-115665000D03*
%TD*%
D12*
%TO.C,R12*%
X131207486Y-107125000D03*
X137132486Y-107125000D03*
%TD*%
D13*
%TO.C,C9*%
X136895000Y-120170000D03*
X134995000Y-120170000D03*
%TD*%
D14*
%TO.C,R6*%
X128235000Y-120410000D03*
X129885000Y-120410000D03*
%TD*%
D15*
%TO.C,R10*%
X144400000Y-97650000D03*
X144400000Y-99300000D03*
%TD*%
%TO.C,R11*%
X144375000Y-101150000D03*
X144375000Y-102800000D03*
%TD*%
D16*
%TO.C,C7*%
X129365000Y-113850000D03*
X129365000Y-115750000D03*
%TD*%
D17*
%TO.C,U2*%
X123995000Y-115667500D03*
X124495000Y-115667500D03*
X124995000Y-115667500D03*
X125495000Y-115667500D03*
D18*
X126145000Y-115242500D03*
X126145000Y-114742500D03*
X123345000Y-114742500D03*
X123345000Y-115242500D03*
%TD*%
D15*
%TO.C,R8*%
X140650000Y-101275000D03*
X140650000Y-102925000D03*
%TD*%
D19*
%TO.C,C5*%
X123380000Y-111600000D03*
X124930000Y-111600000D03*
%TD*%
D15*
%TO.C,R9*%
X140675000Y-104900000D03*
X140675000Y-106550000D03*
%TD*%
D14*
%TO.C,R4*%
X120280000Y-118100000D03*
X121930000Y-118100000D03*
%TD*%
D16*
%TO.C,C3*%
X119355000Y-113840000D03*
X119355000Y-115740000D03*
%TD*%
D15*
%TO.C,R2*%
X115280000Y-113875000D03*
X115280000Y-115525000D03*
%TD*%
D16*
%TO.C,C10*%
X139415000Y-115860000D03*
X139415000Y-117760000D03*
%TD*%
D20*
%TO.C,C12*%
X144340000Y-108655000D03*
X144340000Y-110205000D03*
%TD*%
D15*
%TO.C,R1*%
X115300000Y-110195000D03*
X115300000Y-111845000D03*
%TD*%
D19*
%TO.C,C6*%
X124365000Y-117910000D03*
X125915000Y-117910000D03*
%TD*%
D21*
%TO.C,C2*%
X112105000Y-117520000D03*
X110555000Y-117520000D03*
%TD*%
D22*
%TO.C,R7*%
X137265000Y-111630000D03*
X135615000Y-111630000D03*
%TD*%
D23*
%TO.C,L1*%
X128440000Y-111630000D03*
X126865000Y-111630000D03*
%TD*%
D24*
%TO.C,Q2*%
X103370000Y-114880000D03*
X105070000Y-114880000D03*
X103370000Y-113180000D03*
X105070000Y-113180000D03*
D25*
X102315000Y-111775000D03*
X103585000Y-111775000D03*
X104855000Y-111775000D03*
X106125000Y-111775000D03*
D26*
X102315000Y-117580000D03*
X103585000Y-117580000D03*
X104855000Y-117580000D03*
X106125000Y-117580000D03*
%TD*%
D20*
%TO.C,C15*%
X128025000Y-102300000D03*
X128025000Y-103850000D03*
%TD*%
D21*
%TO.C,C4*%
X112145000Y-120470000D03*
X110595000Y-120470000D03*
%TD*%
D27*
%TO.C,L2*%
X135655000Y-113840000D03*
X137230000Y-113840000D03*
%TD*%
D15*
%TO.C,R13*%
X128055000Y-98940000D03*
X128055000Y-100590000D03*
%TD*%
D28*
%TO.C,C8*%
X120385000Y-120310000D03*
X122285000Y-120310000D03*
%TD*%
D20*
%TO.C,C14*%
X140625000Y-97750000D03*
X140625000Y-99300000D03*
%TD*%
%TO.C,C11*%
X144370000Y-104925000D03*
X144370000Y-106475000D03*
%TD*%
D21*
%TO.C,C1*%
X112355000Y-110280000D03*
X110805000Y-110280000D03*
%TD*%
D24*
%TO.C,Q1*%
X103425000Y-107325000D03*
X105125000Y-107325000D03*
X103425000Y-105625000D03*
X105125000Y-105625000D03*
D25*
X102370000Y-104220000D03*
X103640000Y-104220000D03*
X104910000Y-104220000D03*
X106180000Y-104220000D03*
D26*
X102370000Y-110025000D03*
X103640000Y-110025000D03*
X104910000Y-110025000D03*
X106180000Y-110025000D03*
%TD*%
D29*
%TO.C,C13*%
X140730000Y-110275000D03*
X140730000Y-108725000D03*
%TD*%
D14*
%TO.C,R5*%
X124250000Y-120725000D03*
X125900000Y-120725000D03*
%TD*%
D30*
%TO.C,U1*%
X110490000Y-114910000D03*
X111140000Y-114910000D03*
X111790000Y-114910000D03*
X112440000Y-114910000D03*
X112440000Y-112610000D03*
X111790000Y-112610000D03*
X111140000Y-112610000D03*
X110490000Y-112610000D03*
%TD*%
D22*
%TO.C,R3*%
X129850000Y-118100000D03*
X128200000Y-118100000D03*
%TD*%
D31*
%TO.C,U4*%
X136920000Y-103505000D03*
X136920000Y-102235000D03*
X136920000Y-100965000D03*
X136920000Y-99695000D03*
X131980000Y-99695000D03*
X131980000Y-100965000D03*
X131980000Y-102235000D03*
X131980000Y-103505000D03*
%TD*%
M02*
