M48
; DRILL file {KiCad 9.0.8+dfsg-1} date 2026-09-14T23:54:44+0530
; FORMAT={-:-/ absolute / metric / decimal}
; #@! TF.CreationDate,2026-09-14T23:54:44+05:30
; #@! TF.GenerationSoftware,Kicad,Pcbnew,9.0.8+dfsg-1
; #@! TF.FileFunction,Plated,1,4,PTH
FMAT,2
METRIC
; #@! TA.AperFunction,Plated,PTH,ViaDrill
T1C0.300
; #@! TA.AperFunction,Plated,PTH,ViaDrill
T2C0.330
; #@! TA.AperFunction,Plated,PTH,ComponentDrill
T3C1.000
; #@! TA.AperFunction,Plated,PTH,ComponentDrill
T4C1.300
; #@! TA.AperFunction,Plated,PTH,ComponentDrill
T5C1.600
%
G90
G05
T1
X107.325Y-120.05
X108.475Y-112.575
X108.55Y-116.475
X110.825Y-119.225
X111.027Y-111.448
X111.74Y-111.275
X114.45Y-111.55
X119.175Y-118.05
X124.395Y-116.725
X125.2Y-119.375
X129.225Y-100.6
X130.425Y-101.75
X130.65Y-112.175
X133.025Y-104.725
X134.812Y-95.762
X135.85Y-112.65
X136.125Y-94.45
X137.25Y-110.5
X137.75Y-92.775
X138.7Y-97.95
X139.4Y-104.025
X141.75Y-98.325
X141.975Y-110.275
X142.35Y-94.975
X142.725Y-111.075
X142.775Y-109.475
X145.35Y-107.925
X145.4Y-104.6
T2
X109.95Y-109.3
X111.425Y-116.225
X112.145Y-120.47
X115.28Y-115.525
X119.355Y-115.74
X120.385Y-120.31
X122.4Y-115.625
X124.93Y-111.6
X126.9Y-120.425
X127.175Y-114.775
X128.025Y-103.85
X129.175Y-119.325
X129.365Y-115.75
X129.885Y-120.41
X131.1Y-117.625
X131.98Y-102.235
X134.995Y-120.17
X136.033Y-118.45
X136.92Y-100.965
X136.92Y-102.235
X137.975Y-115.725
X139.415Y-117.76
X140.625Y-99.3
X140.675Y-106.55
X140.73Y-108.725
X143.6Y-96.675
X144.35Y-109.625
X144.37Y-106.475
X144.375Y-102.8
T3
X149.15Y-101.65
X149.15Y-104.19
X149.15Y-106.73
X149.15Y-109.27
X149.15Y-111.81
X149.15Y-114.35
T4
X102.9Y-100.025
X104.13Y-88.96
X107.5Y-100.025
X109.21Y-88.96
X118.8Y-100.025
X123.4Y-100.025
X132.68Y-89.05
X137.76Y-89.05
X142.84Y-89.05
X147.92Y-89.05
T5
X114.57Y-88.72
X127.27Y-88.72
M30
