%TF.GenerationSoftware,KiCad,Pcbnew,9.0.8+dfsg-1*%
%TF.CreationDate,2026-09-14T23:54:26+05:30*%
%TF.ProjectId,12S_UAV_UGV_PMU,3132535f-5541-4565-9f55-47565f504d55,rev?*%
%TF.SameCoordinates,Original*%
%TF.FileFunction,Copper,L2,Inr*%
%TF.FilePolarity,Positive*%
%FSLAX46Y46*%
G04 Gerber Fmt 4.6, Leading zero omitted, Abs format (unit mm)*
G04 Created by KiCad (PCBNEW 9.0.8+dfsg-1) date 2026-09-14 23:54:26*
%MOMM*%
%LPD*%
G01*
G04 APERTURE LIST*
G04 Aperture macros list*
%AMRoundRect*
0 Rectangle with rounded corners*
0 $1 Rounding radius*
0 $2 $3 $4 $5 $6 $7 $8 $9 X,Y pos of 4 corners*
0 Add a 4 corners polygon primitive as box body*
4,1,4,$2,$3,$4,$5,$6,$7,$8,$9,$2,$3,0*
0 Add four circle primitives for the rounded corners*
1,1,$1+$1,$2,$3*
1,1,$1+$1,$4,$5*
1,1,$1+$1,$6,$7*
1,1,$1+$1,$8,$9*
0 Add four rect primitives between the rounded corners*
20,1,$1+$1,$2,$3,$4,$5,0*
20,1,$1+$1,$4,$5,$6,$7,0*
20,1,$1+$1,$6,$7,$8,$9,0*
20,1,$1+$1,$8,$9,$2,$3,0*%
G04 Aperture macros list end*
%TA.AperFunction,ComponentPad*%
%ADD10RoundRect,0.250000X1.050000X1.050000X-1.050000X1.050000X-1.050000X-1.050000X1.050000X-1.050000X0*%
%TD*%
%TA.AperFunction,ComponentPad*%
%ADD11C,2.600000*%
%TD*%
%TA.AperFunction,ComponentPad*%
%ADD12RoundRect,0.250000X1.350000X1.350000X-1.350000X1.350000X-1.350000X-1.350000X1.350000X-1.350000X0*%
%TD*%
%TA.AperFunction,ComponentPad*%
%ADD13C,3.200000*%
%TD*%
%TA.AperFunction,ComponentPad*%
%ADD14R,1.700000X1.700000*%
%TD*%
%TA.AperFunction,ComponentPad*%
%ADD15C,1.700000*%
%TD*%
%TA.AperFunction,ComponentPad*%
%ADD16RoundRect,0.575000X-0.575000X-0.575000X0.575000X-0.575000X0.575000X0.575000X-0.575000X0.575000X0*%
%TD*%
%TA.AperFunction,ComponentPad*%
%ADD17C,2.300000*%
%TD*%
%TA.AperFunction,ViaPad*%
%ADD18C,0.685800*%
%TD*%
%TA.AperFunction,ViaPad*%
%ADD19C,0.600000*%
%TD*%
G04 APERTURE END LIST*
D10*
%TO.N,GND*%
%TO.C,J1*%
X109210000Y-88960000D03*
D11*
%TO.N,Net-(J1-Pin_2)*%
X104130000Y-88960000D03*
%TD*%
D10*
%TO.N,GND*%
%TO.C,J3*%
X147920000Y-89050000D03*
D11*
%TO.N,/MOTOR_VBAT*%
X142840000Y-89050000D03*
%TO.N,/+3.3V*%
X137760000Y-89050000D03*
%TO.N,/5V*%
X132680000Y-89050000D03*
%TD*%
D12*
%TO.N,GND*%
%TO.C,D1*%
X127270000Y-88720000D03*
D13*
%TO.N,/PROTECTION_INPUT*%
X114570000Y-88720000D03*
%TD*%
D14*
%TO.N,/VBAT_ADC*%
%TO.C,J2*%
X149150000Y-101650000D03*
D15*
%TO.N,/5V_ADC*%
X149150000Y-104190000D03*
%TO.N,/+3.3V*%
X149150000Y-106730000D03*
%TO.N,/CURRENT_ADC*%
X149150000Y-109270000D03*
%TO.N,/PMU_5V_PG*%
X149150000Y-111810000D03*
%TO.N,/PMU_3v3_PG*%
X149150000Y-114350000D03*
%TD*%
D16*
%TO.N,Net-(J1-Pin_2)*%
%TO.C,F1*%
X102900000Y-100025000D03*
X107500000Y-100025000D03*
D17*
%TO.N,/PROTECTION_INPUT*%
X118800000Y-100025000D03*
X123400000Y-100025000D03*
%TD*%
D18*
%TO.N,GND*%
X137975000Y-115725000D03*
%TO.N,/5V*%
X143600000Y-96675000D03*
%TO.N,GND*%
X127175000Y-114775000D03*
X122400000Y-115625000D03*
X111425000Y-116225000D03*
X115280000Y-115525000D03*
X119355000Y-115740000D03*
X124930000Y-111600000D03*
X129365000Y-115750000D03*
%TO.N,/5V*%
X136033400Y-118450000D03*
X131100000Y-117625000D03*
%TO.N,GND*%
X139415000Y-117760000D03*
%TO.N,/5V*%
X126900000Y-120425000D03*
X129175000Y-119325000D03*
%TO.N,GND*%
X128025000Y-103850000D03*
X131980000Y-102235000D03*
X136920000Y-102235000D03*
X136920000Y-100965000D03*
X140625000Y-99300000D03*
X144375000Y-102800000D03*
X144350000Y-109625000D03*
X144370000Y-106475000D03*
X140675000Y-106550000D03*
X140730000Y-108725000D03*
X134995000Y-120170000D03*
X129885000Y-120410000D03*
X120385000Y-120310000D03*
X112145000Y-120470000D03*
X109950000Y-109300000D03*
D19*
%TO.N,/VBAT_PROTECTED*%
X110825000Y-119225000D03*
X119175000Y-118050000D03*
%TO.N,Net-(U1-OV)*%
X114450000Y-111550000D03*
X111026644Y-111448356D03*
%TO.N,/PMU_5V_PG*%
X124395000Y-116725000D03*
%TO.N,/+3.3V*%
X130425000Y-101750000D03*
X137250000Y-110500000D03*
%TO.N,/5V*%
X130650000Y-112175000D03*
%TO.N,/PMU_3v3_PG*%
X135850000Y-112650000D03*
%TO.N,/PMU_5V_PG*%
X125200000Y-119375000D03*
%TO.N,/CURRENT_ADC*%
X141750000Y-98325000D03*
X142775000Y-109475000D03*
X142725000Y-111075000D03*
%TO.N,/+3.3V*%
X141975000Y-110275000D03*
%TO.N,/5V_ADC*%
X145350000Y-107925000D03*
%TO.N,/VBAT_ADC*%
X145400000Y-104600000D03*
%TO.N,/MOTOR_VBAT*%
X142350000Y-94975000D03*
%TO.N,/+3.3V*%
X134812500Y-95762500D03*
X136125000Y-94450000D03*
X137750000Y-92775000D03*
%TO.N,/VBAT_PROTECTED*%
X133025000Y-104725000D03*
X139400000Y-104025000D03*
%TO.N,/CURRENT_ADC*%
X129225000Y-100600000D03*
X138700000Y-97950000D03*
%TO.N,Net-(Q1-G)*%
X107325000Y-120050000D03*
X108550000Y-116475000D03*
X111740000Y-111275000D03*
X108475000Y-112575000D03*
%TD*%
%TA.AperFunction,Conductor*%
%TO.N,GND*%
G36*
X151172539Y-83120185D02*
G01*
X151218294Y-83172989D01*
X151229500Y-83224500D01*
X151229500Y-122795500D01*
X151209815Y-122862539D01*
X151157011Y-122908294D01*
X151105500Y-122919500D01*
X100964500Y-122919500D01*
X100897461Y-122899815D01*
X100851706Y-122847011D01*
X100840500Y-122795500D01*
X100840500Y-120993713D01*
X101199500Y-120993713D01*
X101199500Y-121206286D01*
X101232753Y-121416239D01*
X101298444Y-121618414D01*
X101394951Y-121807820D01*
X101519890Y-121979786D01*
X101670213Y-122130109D01*
X101842179Y-122255048D01*
X101842181Y-122255049D01*
X101842184Y-122255051D01*
X102031588Y-122351557D01*
X102233757Y-122417246D01*
X102443713Y-122450500D01*
X102443714Y-122450500D01*
X102656286Y-122450500D01*
X102656287Y-122450500D01*
X102866243Y-122417246D01*
X103068412Y-122351557D01*
X103257816Y-122255051D01*
X103292230Y-122230048D01*
X103429786Y-122130109D01*
X103429788Y-122130106D01*
X103429792Y-122130104D01*
X103580104Y-121979792D01*
X103580106Y-121979788D01*
X103580109Y-121979786D01*
X103705048Y-121807820D01*
X103705047Y-121807820D01*
X103705051Y-121807816D01*
X103801557Y-121618412D01*
X103867246Y-121416243D01*
X103900500Y-121206287D01*
X103900500Y-120993713D01*
X103896540Y-120968713D01*
X147924500Y-120968713D01*
X147924500Y-121181287D01*
X147928460Y-121206287D01*
X147957753Y-121391239D01*
X148023444Y-121593414D01*
X148119951Y-121782820D01*
X148244890Y-121954786D01*
X148395213Y-122105109D01*
X148567179Y-122230048D01*
X148567181Y-122230049D01*
X148567184Y-122230051D01*
X148756588Y-122326557D01*
X148958757Y-122392246D01*
X149168713Y-122425500D01*
X149168714Y-122425500D01*
X149381286Y-122425500D01*
X149381287Y-122425500D01*
X149591243Y-122392246D01*
X149793412Y-122326557D01*
X149982816Y-122230051D01*
X150004789Y-122214086D01*
X150154786Y-122105109D01*
X150154788Y-122105106D01*
X150154792Y-122105104D01*
X150305104Y-121954792D01*
X150305106Y-121954788D01*
X150305109Y-121954786D01*
X150430048Y-121782820D01*
X150430047Y-121782820D01*
X150430051Y-121782816D01*
X150526557Y-121593412D01*
X150592246Y-121391243D01*
X150625500Y-121181287D01*
X150625500Y-120968713D01*
X150592246Y-120758757D01*
X150526557Y-120556588D01*
X150430051Y-120367184D01*
X150430049Y-120367181D01*
X150430048Y-120367179D01*
X150305109Y-120195213D01*
X150154786Y-120044890D01*
X149982820Y-119919951D01*
X149793414Y-119823444D01*
X149793413Y-119823443D01*
X149793412Y-119823443D01*
X149591243Y-119757754D01*
X149591241Y-119757753D01*
X149591240Y-119757753D01*
X149429957Y-119732208D01*
X149381287Y-119724500D01*
X149168713Y-119724500D01*
X149120042Y-119732208D01*
X148958760Y-119757753D01*
X148756585Y-119823444D01*
X148567179Y-119919951D01*
X148395213Y-120044890D01*
X148244890Y-120195213D01*
X148119951Y-120367179D01*
X148023444Y-120556585D01*
X147957753Y-120758760D01*
X147941746Y-120859825D01*
X147924500Y-120968713D01*
X103896540Y-120968713D01*
X103867246Y-120783757D01*
X103801557Y-120581588D01*
X103705051Y-120392184D01*
X103705049Y-120392181D01*
X103705048Y-120392179D01*
X103580109Y-120220213D01*
X103429796Y-120069900D01*
X103429792Y-120069896D01*
X103429784Y-120069890D01*
X103429778Y-120069885D01*
X103311715Y-119984108D01*
X106824500Y-119984108D01*
X106824500Y-120115891D01*
X106858608Y-120243187D01*
X106881786Y-120283332D01*
X106924500Y-120357314D01*
X107017686Y-120450500D01*
X107131814Y-120516392D01*
X107259108Y-120550500D01*
X107259110Y-120550500D01*
X107390890Y-120550500D01*
X107390892Y-120550500D01*
X107518186Y-120516392D01*
X107632314Y-120450500D01*
X107725500Y-120357314D01*
X107727725Y-120353460D01*
X126356600Y-120353460D01*
X126356600Y-120496540D01*
X126393632Y-120634745D01*
X126465172Y-120758655D01*
X126566345Y-120859828D01*
X126690255Y-120931368D01*
X126828460Y-120968400D01*
X126828462Y-120968400D01*
X126971537Y-120968400D01*
X126971540Y-120968400D01*
X127109745Y-120931368D01*
X127233655Y-120859828D01*
X127334828Y-120758655D01*
X127406368Y-120634745D01*
X127443400Y-120496540D01*
X127443400Y-120353460D01*
X127406368Y-120215255D01*
X127334828Y-120091345D01*
X127233655Y-119990172D01*
X127109745Y-119918632D01*
X126971540Y-119881600D01*
X126828460Y-119881600D01*
X126690255Y-119918632D01*
X126690253Y-119918632D01*
X126690253Y-119918633D01*
X126566345Y-119990172D01*
X126566342Y-119990174D01*
X126465174Y-120091342D01*
X126465172Y-120091345D01*
X126393632Y-120215255D01*
X126356600Y-120353460D01*
X107727725Y-120353460D01*
X107791392Y-120243186D01*
X107825500Y-120115892D01*
X107825500Y-119984108D01*
X107791392Y-119856814D01*
X107725500Y-119742686D01*
X107632314Y-119649500D01*
X107575250Y-119616554D01*
X107518187Y-119583608D01*
X107454539Y-119566554D01*
X107390892Y-119549500D01*
X107259108Y-119549500D01*
X107131812Y-119583608D01*
X107017686Y-119649500D01*
X107017683Y-119649502D01*
X106924502Y-119742683D01*
X106924500Y-119742686D01*
X106858608Y-119856812D01*
X106824500Y-119984108D01*
X103311715Y-119984108D01*
X103257820Y-119944951D01*
X103068414Y-119848444D01*
X103068413Y-119848443D01*
X103068412Y-119848443D01*
X102866243Y-119782754D01*
X102866241Y-119782753D01*
X102866240Y-119782753D01*
X102704957Y-119757208D01*
X102656287Y-119749500D01*
X102443713Y-119749500D01*
X102395042Y-119757208D01*
X102233760Y-119782753D01*
X102031585Y-119848444D01*
X101842179Y-119944951D01*
X101670213Y-120069890D01*
X101519890Y-120220213D01*
X101394951Y-120392179D01*
X101298444Y-120581585D01*
X101232753Y-120783760D01*
X101199500Y-120993713D01*
X100840500Y-120993713D01*
X100840500Y-119159108D01*
X110324500Y-119159108D01*
X110324500Y-119290892D01*
X110341554Y-119354539D01*
X110358608Y-119418187D01*
X110371717Y-119440892D01*
X110424500Y-119532314D01*
X110517686Y-119625500D01*
X110631814Y-119691392D01*
X110759108Y-119725500D01*
X110759110Y-119725500D01*
X110890890Y-119725500D01*
X110890892Y-119725500D01*
X111018186Y-119691392D01*
X111132314Y-119625500D01*
X111225500Y-119532314D01*
X111291392Y-119418186D01*
X111320619Y-119309108D01*
X124699500Y-119309108D01*
X124699500Y-119440891D01*
X124733608Y-119568187D01*
X124766554Y-119625250D01*
X124799500Y-119682314D01*
X124892686Y-119775500D01*
X125006814Y-119841392D01*
X125134108Y-119875500D01*
X125134110Y-119875500D01*
X125265890Y-119875500D01*
X125265892Y-119875500D01*
X125393186Y-119841392D01*
X125507314Y-119775500D01*
X125600500Y-119682314D01*
X125666392Y-119568186D01*
X125700500Y-119440892D01*
X125700500Y-119309108D01*
X125685589Y-119253460D01*
X128631600Y-119253460D01*
X128631600Y-119396540D01*
X128668632Y-119534745D01*
X128740172Y-119658655D01*
X128841345Y-119759828D01*
X128965255Y-119831368D01*
X129103460Y-119868400D01*
X129103462Y-119868400D01*
X129246537Y-119868400D01*
X129246540Y-119868400D01*
X129384745Y-119831368D01*
X129508655Y-119759828D01*
X129609828Y-119658655D01*
X129681368Y-119534745D01*
X129718400Y-119396540D01*
X129718400Y-119253460D01*
X129681368Y-119115255D01*
X129609828Y-118991345D01*
X129508655Y-118890172D01*
X129384745Y-118818632D01*
X129246540Y-118781600D01*
X129103460Y-118781600D01*
X128965255Y-118818632D01*
X128965253Y-118818632D01*
X128965253Y-118818633D01*
X128841345Y-118890172D01*
X128841342Y-118890174D01*
X128740174Y-118991342D01*
X128740172Y-118991345D01*
X128668632Y-119115255D01*
X128631600Y-119253460D01*
X125685589Y-119253460D01*
X125666392Y-119181814D01*
X125600500Y-119067686D01*
X125507314Y-118974500D01*
X125408910Y-118917686D01*
X125393187Y-118908608D01*
X125304433Y-118884827D01*
X125265892Y-118874500D01*
X125134108Y-118874500D01*
X125006812Y-118908608D01*
X124892686Y-118974500D01*
X124892683Y-118974502D01*
X124799502Y-119067683D01*
X124799500Y-119067686D01*
X124733608Y-119181812D01*
X124699500Y-119309108D01*
X111320619Y-119309108D01*
X111325500Y-119290892D01*
X111325500Y-119159108D01*
X111291392Y-119031814D01*
X111225500Y-118917686D01*
X111132314Y-118824500D01*
X111061567Y-118783654D01*
X111018187Y-118758608D01*
X110954539Y-118741554D01*
X110890892Y-118724500D01*
X110759108Y-118724500D01*
X110631812Y-118758608D01*
X110517686Y-118824500D01*
X110517683Y-118824502D01*
X110424502Y-118917683D01*
X110424500Y-118917686D01*
X110358608Y-119031812D01*
X110348997Y-119067683D01*
X110324500Y-119159108D01*
X100840500Y-119159108D01*
X100840500Y-117984108D01*
X118674500Y-117984108D01*
X118674500Y-118115892D01*
X118678646Y-118131366D01*
X118708608Y-118243187D01*
X118741554Y-118300250D01*
X118774500Y-118357314D01*
X118867686Y-118450500D01*
X118981814Y-118516392D01*
X119109108Y-118550500D01*
X119109110Y-118550500D01*
X119240890Y-118550500D01*
X119240892Y-118550500D01*
X119368186Y-118516392D01*
X119482314Y-118450500D01*
X119554354Y-118378460D01*
X135490000Y-118378460D01*
X135490000Y-118521540D01*
X135527032Y-118659745D01*
X135598572Y-118783655D01*
X135699745Y-118884828D01*
X135823655Y-118956368D01*
X135961860Y-118993400D01*
X135961862Y-118993400D01*
X136104937Y-118993400D01*
X136104940Y-118993400D01*
X136243145Y-118956368D01*
X136367055Y-118884828D01*
X136468228Y-118783655D01*
X136539768Y-118659745D01*
X136576800Y-118521540D01*
X136576800Y-118378460D01*
X136539768Y-118240255D01*
X136468228Y-118116345D01*
X136367055Y-118015172D01*
X136243145Y-117943632D01*
X136104940Y-117906600D01*
X135961860Y-117906600D01*
X135823655Y-117943632D01*
X135823653Y-117943632D01*
X135823653Y-117943633D01*
X135699745Y-118015172D01*
X135699742Y-118015174D01*
X135598574Y-118116342D01*
X135598572Y-118116345D01*
X135527032Y-118240255D01*
X135490000Y-118378460D01*
X119554354Y-118378460D01*
X119575500Y-118357314D01*
X119588900Y-118334104D01*
X119603781Y-118308332D01*
X119641390Y-118243189D01*
X119641392Y-118243186D01*
X119675500Y-118115892D01*
X119675500Y-117984108D01*
X119641392Y-117856814D01*
X119575500Y-117742686D01*
X119482314Y-117649500D01*
X119368187Y-117583608D01*
X119304539Y-117566554D01*
X119255671Y-117553460D01*
X130556600Y-117553460D01*
X130556600Y-117696540D01*
X130593632Y-117834745D01*
X130665172Y-117958655D01*
X130766345Y-118059828D01*
X130890255Y-118131368D01*
X131028460Y-118168400D01*
X131028462Y-118168400D01*
X131171537Y-118168400D01*
X131171540Y-118168400D01*
X131309745Y-118131368D01*
X131433655Y-118059828D01*
X131534828Y-117958655D01*
X131606368Y-117834745D01*
X131643400Y-117696540D01*
X131643400Y-117553460D01*
X131606368Y-117415255D01*
X131534828Y-117291345D01*
X131433655Y-117190172D01*
X131309745Y-117118632D01*
X131171540Y-117081600D01*
X131028460Y-117081600D01*
X130890255Y-117118632D01*
X130890253Y-117118632D01*
X130890253Y-117118633D01*
X130766345Y-117190172D01*
X130766342Y-117190174D01*
X130665174Y-117291342D01*
X130665172Y-117291345D01*
X130593632Y-117415255D01*
X130556600Y-117553460D01*
X119255671Y-117553460D01*
X119240892Y-117549500D01*
X119109108Y-117549500D01*
X118981812Y-117583608D01*
X118867686Y-117649500D01*
X118867683Y-117649502D01*
X118774502Y-117742683D01*
X118774500Y-117742686D01*
X118708608Y-117856812D01*
X118674500Y-117984108D01*
X100840500Y-117984108D01*
X100840500Y-116409108D01*
X108049500Y-116409108D01*
X108049500Y-116540891D01*
X108083608Y-116668187D01*
X108116554Y-116725250D01*
X108149500Y-116782314D01*
X108242686Y-116875500D01*
X108356814Y-116941392D01*
X108484108Y-116975500D01*
X108484110Y-116975500D01*
X108615890Y-116975500D01*
X108615892Y-116975500D01*
X108743186Y-116941392D01*
X108857314Y-116875500D01*
X108950500Y-116782314D01*
X109016392Y-116668186D01*
X109018824Y-116659108D01*
X123894500Y-116659108D01*
X123894500Y-116790891D01*
X123928608Y-116918187D01*
X123942005Y-116941391D01*
X123994500Y-117032314D01*
X124087686Y-117125500D01*
X124201814Y-117191392D01*
X124329108Y-117225500D01*
X124329110Y-117225500D01*
X124460890Y-117225500D01*
X124460892Y-117225500D01*
X124588186Y-117191392D01*
X124702314Y-117125500D01*
X124795500Y-117032314D01*
X124861392Y-116918186D01*
X124895500Y-116790892D01*
X124895500Y-116659108D01*
X124861392Y-116531814D01*
X124795500Y-116417686D01*
X124702314Y-116324500D01*
X124628380Y-116281814D01*
X124588187Y-116258608D01*
X124524539Y-116241554D01*
X124460892Y-116224500D01*
X124329108Y-116224500D01*
X124201812Y-116258608D01*
X124087686Y-116324500D01*
X124087683Y-116324502D01*
X123994502Y-116417683D01*
X123994500Y-116417686D01*
X123928608Y-116531812D01*
X123894500Y-116659108D01*
X109018824Y-116659108D01*
X109050500Y-116540892D01*
X109050500Y-116409108D01*
X109016392Y-116281814D01*
X108950500Y-116167686D01*
X108857314Y-116074500D01*
X108800250Y-116041554D01*
X108743187Y-116008608D01*
X108679539Y-115991554D01*
X108615892Y-115974500D01*
X108484108Y-115974500D01*
X108356812Y-116008608D01*
X108242686Y-116074500D01*
X108242683Y-116074502D01*
X108149502Y-116167683D01*
X108149500Y-116167686D01*
X108083608Y-116281812D01*
X108049500Y-116409108D01*
X100840500Y-116409108D01*
X100840500Y-114246530D01*
X148099500Y-114246530D01*
X148099500Y-114453469D01*
X148139868Y-114656412D01*
X148139870Y-114656420D01*
X148219058Y-114847596D01*
X148334024Y-115019657D01*
X148480342Y-115165975D01*
X148480345Y-115165977D01*
X148652402Y-115280941D01*
X148843580Y-115360130D01*
X149046530Y-115400499D01*
X149046534Y-115400500D01*
X149046535Y-115400500D01*
X149253466Y-115400500D01*
X149253467Y-115400499D01*
X149456420Y-115360130D01*
X149647598Y-115280941D01*
X149819655Y-115165977D01*
X149965977Y-115019655D01*
X150080941Y-114847598D01*
X150160130Y-114656420D01*
X150200500Y-114453465D01*
X150200500Y-114246535D01*
X150160130Y-114043580D01*
X150080941Y-113852402D01*
X149965977Y-113680345D01*
X149965975Y-113680342D01*
X149819657Y-113534024D01*
X149733626Y-113476541D01*
X149647598Y-113419059D01*
X149456420Y-113339870D01*
X149456412Y-113339868D01*
X149253469Y-113299500D01*
X149253465Y-113299500D01*
X149046535Y-113299500D01*
X149046530Y-113299500D01*
X148843587Y-113339868D01*
X148843579Y-113339870D01*
X148652403Y-113419058D01*
X148480342Y-113534024D01*
X148334024Y-113680342D01*
X148219058Y-113852403D01*
X148139870Y-114043579D01*
X148139868Y-114043587D01*
X148099500Y-114246530D01*
X100840500Y-114246530D01*
X100840500Y-112509108D01*
X107974500Y-112509108D01*
X107974500Y-112640891D01*
X108008608Y-112768187D01*
X108041554Y-112825250D01*
X108074500Y-112882314D01*
X108167686Y-112975500D01*
X108281814Y-113041392D01*
X108409108Y-113075500D01*
X108409110Y-113075500D01*
X108540890Y-113075500D01*
X108540892Y-113075500D01*
X108668186Y-113041392D01*
X108782314Y-112975500D01*
X108875500Y-112882314D01*
X108941392Y-112768186D01*
X108975500Y-112640892D01*
X108975500Y-112509108D01*
X108941392Y-112381814D01*
X108875500Y-112267686D01*
X108782314Y-112174500D01*
X108725250Y-112141554D01*
X108669053Y-112109108D01*
X130149500Y-112109108D01*
X130149500Y-112240892D01*
X130166554Y-112304539D01*
X130183608Y-112368187D01*
X130191475Y-112381812D01*
X130249500Y-112482314D01*
X130342686Y-112575500D01*
X130430111Y-112625975D01*
X130455944Y-112640890D01*
X130456814Y-112641392D01*
X130584108Y-112675500D01*
X130584110Y-112675500D01*
X130715890Y-112675500D01*
X130715892Y-112675500D01*
X130843186Y-112641392D01*
X130942405Y-112584108D01*
X135349500Y-112584108D01*
X135349500Y-112715891D01*
X135383608Y-112843187D01*
X135406200Y-112882316D01*
X135449500Y-112957314D01*
X135542686Y-113050500D01*
X135656814Y-113116392D01*
X135784108Y-113150500D01*
X135784110Y-113150500D01*
X135915890Y-113150500D01*
X135915892Y-113150500D01*
X136043186Y-113116392D01*
X136157314Y-113050500D01*
X136250500Y-112957314D01*
X136316392Y-112843186D01*
X136350500Y-112715892D01*
X136350500Y-112584108D01*
X136316392Y-112456814D01*
X136250500Y-112342686D01*
X136157314Y-112249500D01*
X136100250Y-112216554D01*
X136043187Y-112183608D01*
X135979539Y-112166554D01*
X135915892Y-112149500D01*
X135784108Y-112149500D01*
X135656812Y-112183608D01*
X135542686Y-112249500D01*
X135542683Y-112249502D01*
X135449502Y-112342683D01*
X135449500Y-112342686D01*
X135383608Y-112456812D01*
X135349500Y-112584108D01*
X130942405Y-112584108D01*
X130957314Y-112575500D01*
X131050500Y-112482314D01*
X131116392Y-112368186D01*
X131150500Y-112240892D01*
X131150500Y-112109108D01*
X131116392Y-111981814D01*
X131050500Y-111867686D01*
X130957314Y-111774500D01*
X130889981Y-111735625D01*
X130843187Y-111708608D01*
X130835432Y-111706530D01*
X148099500Y-111706530D01*
X148099500Y-111913469D01*
X148139868Y-112116412D01*
X148139870Y-112116420D01*
X148219058Y-112307596D01*
X148334024Y-112479657D01*
X148480342Y-112625975D01*
X148480345Y-112625977D01*
X148652402Y-112740941D01*
X148843580Y-112820130D01*
X149046530Y-112860499D01*
X149046534Y-112860500D01*
X149046535Y-112860500D01*
X149253466Y-112860500D01*
X149253467Y-112860499D01*
X149456420Y-112820130D01*
X149647598Y-112740941D01*
X149819655Y-112625977D01*
X149965977Y-112479655D01*
X150080941Y-112307598D01*
X150160130Y-112116420D01*
X150200500Y-111913465D01*
X150200500Y-111706535D01*
X150160130Y-111503580D01*
X150080941Y-111312402D01*
X149965977Y-111140345D01*
X149965975Y-111140342D01*
X149819657Y-110994024D01*
X149651718Y-110881812D01*
X149647598Y-110879059D01*
X149636596Y-110874502D01*
X149456420Y-110799870D01*
X149456412Y-110799868D01*
X149253469Y-110759500D01*
X149253465Y-110759500D01*
X149046535Y-110759500D01*
X149046530Y-110759500D01*
X148843587Y-110799868D01*
X148843579Y-110799870D01*
X148652403Y-110879058D01*
X148480342Y-110994024D01*
X148334024Y-111140342D01*
X148219058Y-111312403D01*
X148139870Y-111503579D01*
X148139868Y-111503587D01*
X148099500Y-111706530D01*
X130835432Y-111706530D01*
X130779539Y-111691554D01*
X130715892Y-111674500D01*
X130584108Y-111674500D01*
X130456812Y-111708608D01*
X130342686Y-111774500D01*
X130342683Y-111774502D01*
X130249502Y-111867683D01*
X130249500Y-111867686D01*
X130183608Y-111981812D01*
X130180451Y-111993595D01*
X130149500Y-112109108D01*
X108669053Y-112109108D01*
X108668187Y-112108608D01*
X108604539Y-112091554D01*
X108540892Y-112074500D01*
X108409108Y-112074500D01*
X108281812Y-112108608D01*
X108167686Y-112174500D01*
X108167683Y-112174502D01*
X108074502Y-112267683D01*
X108074500Y-112267686D01*
X108008608Y-112381812D01*
X107974500Y-112509108D01*
X100840500Y-112509108D01*
X100840500Y-111382464D01*
X110526144Y-111382464D01*
X110526144Y-111514247D01*
X110560252Y-111641543D01*
X110590043Y-111693142D01*
X110626144Y-111755670D01*
X110719330Y-111848856D01*
X110818165Y-111905919D01*
X110831242Y-111913469D01*
X110833458Y-111914748D01*
X110960752Y-111948856D01*
X110960754Y-111948856D01*
X111092534Y-111948856D01*
X111092536Y-111948856D01*
X111219830Y-111914748D01*
X111333958Y-111848856D01*
X111413706Y-111769107D01*
X111475025Y-111735625D01*
X111538723Y-111740180D01*
X111538963Y-111739288D01*
X111543593Y-111740528D01*
X111544717Y-111740609D01*
X111546476Y-111741301D01*
X111546812Y-111741391D01*
X111546814Y-111741392D01*
X111674108Y-111775500D01*
X111674110Y-111775500D01*
X111805890Y-111775500D01*
X111805892Y-111775500D01*
X111933186Y-111741392D01*
X112047314Y-111675500D01*
X112140500Y-111582314D01*
X112197199Y-111484108D01*
X113949500Y-111484108D01*
X113949500Y-111615892D01*
X113965472Y-111675500D01*
X113983608Y-111743187D01*
X114016554Y-111800250D01*
X114049500Y-111857314D01*
X114142686Y-111950500D01*
X114217327Y-111993594D01*
X114256810Y-112016390D01*
X114256814Y-112016392D01*
X114384108Y-112050500D01*
X114384110Y-112050500D01*
X114515890Y-112050500D01*
X114515892Y-112050500D01*
X114643186Y-112016392D01*
X114757314Y-111950500D01*
X114850500Y-111857314D01*
X114916392Y-111743186D01*
X114950500Y-111615892D01*
X114950500Y-111484108D01*
X114916392Y-111356814D01*
X114850500Y-111242686D01*
X114757314Y-111149500D01*
X114700250Y-111116554D01*
X114643187Y-111083608D01*
X114579539Y-111066554D01*
X114515892Y-111049500D01*
X114384108Y-111049500D01*
X114256812Y-111083608D01*
X114142686Y-111149500D01*
X114142683Y-111149502D01*
X114049502Y-111242683D01*
X114049500Y-111242686D01*
X113983608Y-111356812D01*
X113976735Y-111382464D01*
X113949500Y-111484108D01*
X112197199Y-111484108D01*
X112206392Y-111468186D01*
X112240500Y-111340892D01*
X112240500Y-111209108D01*
X112206392Y-111081814D01*
X112140500Y-110967686D01*
X112047314Y-110874500D01*
X111990250Y-110841554D01*
X111933187Y-110808608D01*
X111869539Y-110791554D01*
X111805892Y-110774500D01*
X111674108Y-110774500D01*
X111546812Y-110808608D01*
X111432686Y-110874500D01*
X111432682Y-110874503D01*
X111352938Y-110954246D01*
X111291615Y-110987731D01*
X111227920Y-110983174D01*
X111227681Y-110984068D01*
X111223042Y-110982825D01*
X111221923Y-110982745D01*
X111220170Y-110982055D01*
X111161710Y-110966391D01*
X111092536Y-110947856D01*
X110960752Y-110947856D01*
X110833456Y-110981964D01*
X110719330Y-111047856D01*
X110719327Y-111047858D01*
X110626146Y-111141039D01*
X110626144Y-111141042D01*
X110560252Y-111255168D01*
X110526144Y-111382464D01*
X100840500Y-111382464D01*
X100840500Y-110434108D01*
X136749500Y-110434108D01*
X136749500Y-110565892D01*
X136753900Y-110582313D01*
X136783608Y-110693187D01*
X136811439Y-110741391D01*
X136849500Y-110807314D01*
X136942686Y-110900500D01*
X137056814Y-110966392D01*
X137184108Y-111000500D01*
X137184110Y-111000500D01*
X137315890Y-111000500D01*
X137315892Y-111000500D01*
X137443186Y-110966392D01*
X137557314Y-110900500D01*
X137650500Y-110807314D01*
X137716392Y-110693186D01*
X137750500Y-110565892D01*
X137750500Y-110434108D01*
X137716392Y-110306814D01*
X137659981Y-110209108D01*
X141474500Y-110209108D01*
X141474500Y-110340891D01*
X141508608Y-110468187D01*
X141518275Y-110484930D01*
X141574500Y-110582314D01*
X141667686Y-110675500D01*
X141781814Y-110741392D01*
X141909108Y-110775500D01*
X141909110Y-110775500D01*
X142040889Y-110775500D01*
X142040892Y-110775500D01*
X142098686Y-110760014D01*
X142168531Y-110761677D01*
X142226394Y-110800839D01*
X142253899Y-110865067D01*
X142250551Y-110911881D01*
X142224500Y-111009106D01*
X142224500Y-111009108D01*
X142224500Y-111140892D01*
X142226807Y-111149502D01*
X142258608Y-111268187D01*
X142284136Y-111312402D01*
X142324500Y-111382314D01*
X142417686Y-111475500D01*
X142531814Y-111541392D01*
X142659108Y-111575500D01*
X142659110Y-111575500D01*
X142790890Y-111575500D01*
X142790892Y-111575500D01*
X142918186Y-111541392D01*
X143032314Y-111475500D01*
X143125500Y-111382314D01*
X143191392Y-111268186D01*
X143225500Y-111140892D01*
X143225500Y-111009108D01*
X143191392Y-110881814D01*
X143189801Y-110879059D01*
X143148379Y-110807314D01*
X143125500Y-110767686D01*
X143032314Y-110674500D01*
X142975250Y-110641554D01*
X142918187Y-110608608D01*
X142842477Y-110588322D01*
X142790892Y-110574500D01*
X142659108Y-110574500D01*
X142659106Y-110574500D01*
X142601315Y-110589985D01*
X142531465Y-110588322D01*
X142473603Y-110549159D01*
X142446100Y-110484930D01*
X142449447Y-110438121D01*
X142475500Y-110340892D01*
X142475500Y-110209108D01*
X142445580Y-110097444D01*
X142447243Y-110027599D01*
X142486405Y-109969736D01*
X142550633Y-109942232D01*
X142597442Y-109945579D01*
X142709108Y-109975500D01*
X142709111Y-109975500D01*
X142840890Y-109975500D01*
X142840892Y-109975500D01*
X142968186Y-109941392D01*
X143082314Y-109875500D01*
X143175500Y-109782314D01*
X143241392Y-109668186D01*
X143275500Y-109540892D01*
X143275500Y-109409108D01*
X143241392Y-109281814D01*
X143175500Y-109167686D01*
X143174344Y-109166530D01*
X148099500Y-109166530D01*
X148099500Y-109373469D01*
X148132803Y-109540892D01*
X148139870Y-109576420D01*
X148219059Y-109767598D01*
X148228891Y-109782313D01*
X148334024Y-109939657D01*
X148480342Y-110085975D01*
X148480345Y-110085977D01*
X148652402Y-110200941D01*
X148843580Y-110280130D01*
X149046530Y-110320499D01*
X149046534Y-110320500D01*
X149046535Y-110320500D01*
X149253466Y-110320500D01*
X149253467Y-110320499D01*
X149456420Y-110280130D01*
X149647598Y-110200941D01*
X149819655Y-110085977D01*
X149965977Y-109939655D01*
X150080941Y-109767598D01*
X150160130Y-109576420D01*
X150200500Y-109373465D01*
X150200500Y-109166535D01*
X150160130Y-108963580D01*
X150080941Y-108772402D01*
X149965977Y-108600345D01*
X149965975Y-108600342D01*
X149819657Y-108454024D01*
X149725919Y-108391391D01*
X149647598Y-108339059D01*
X149614861Y-108325499D01*
X149456420Y-108259870D01*
X149456412Y-108259868D01*
X149253469Y-108219500D01*
X149253465Y-108219500D01*
X149046535Y-108219500D01*
X149046530Y-108219500D01*
X148843587Y-108259868D01*
X148843579Y-108259870D01*
X148652403Y-108339058D01*
X148480342Y-108454024D01*
X148334024Y-108600342D01*
X148219058Y-108772403D01*
X148139870Y-108963579D01*
X148139868Y-108963587D01*
X148099500Y-109166530D01*
X143174344Y-109166530D01*
X143082314Y-109074500D01*
X143025250Y-109041554D01*
X142968187Y-109008608D01*
X142904539Y-108991554D01*
X142840892Y-108974500D01*
X142709108Y-108974500D01*
X142581812Y-109008608D01*
X142467686Y-109074500D01*
X142467683Y-109074502D01*
X142374502Y-109167683D01*
X142374500Y-109167686D01*
X142308608Y-109281812D01*
X142284050Y-109373465D01*
X142274500Y-109409108D01*
X142274500Y-109540892D01*
X142284017Y-109576412D01*
X142304419Y-109652551D01*
X142302756Y-109722401D01*
X142263593Y-109780263D01*
X142199365Y-109807767D01*
X142152552Y-109804419D01*
X142040892Y-109774500D01*
X141909108Y-109774500D01*
X141781812Y-109808608D01*
X141667686Y-109874500D01*
X141667683Y-109874502D01*
X141574502Y-109967683D01*
X141574500Y-109967686D01*
X141508608Y-110081812D01*
X141474500Y-110209108D01*
X137659981Y-110209108D01*
X137650500Y-110192686D01*
X137557314Y-110099500D01*
X137500250Y-110066554D01*
X137443187Y-110033608D01*
X137379539Y-110016554D01*
X137315892Y-109999500D01*
X137184108Y-109999500D01*
X137056812Y-110033608D01*
X136942686Y-110099500D01*
X136942683Y-110099502D01*
X136849502Y-110192683D01*
X136849500Y-110192686D01*
X136783608Y-110306812D01*
X136774477Y-110340891D01*
X136749500Y-110434108D01*
X100840500Y-110434108D01*
X100840500Y-107859108D01*
X144849500Y-107859108D01*
X144849500Y-107990891D01*
X144883608Y-108118187D01*
X144916554Y-108175250D01*
X144949500Y-108232314D01*
X145042686Y-108325500D01*
X145156814Y-108391392D01*
X145284108Y-108425500D01*
X145284110Y-108425500D01*
X145415890Y-108425500D01*
X145415892Y-108425500D01*
X145543186Y-108391392D01*
X145657314Y-108325500D01*
X145750500Y-108232314D01*
X145816392Y-108118186D01*
X145850500Y-107990892D01*
X145850500Y-107859108D01*
X145816392Y-107731814D01*
X145750500Y-107617686D01*
X145657314Y-107524500D01*
X145600250Y-107491554D01*
X145543187Y-107458608D01*
X145479539Y-107441554D01*
X145415892Y-107424500D01*
X145284108Y-107424500D01*
X145156812Y-107458608D01*
X145042686Y-107524500D01*
X145042683Y-107524502D01*
X144949502Y-107617683D01*
X144949500Y-107617686D01*
X144883608Y-107731812D01*
X144849500Y-107859108D01*
X100840500Y-107859108D01*
X100840500Y-106626530D01*
X148099500Y-106626530D01*
X148099500Y-106833469D01*
X148139868Y-107036412D01*
X148139870Y-107036420D01*
X148219058Y-107227596D01*
X148334024Y-107399657D01*
X148480342Y-107545975D01*
X148480345Y-107545977D01*
X148652402Y-107660941D01*
X148843580Y-107740130D01*
X149046530Y-107780499D01*
X149046534Y-107780500D01*
X149046535Y-107780500D01*
X149253466Y-107780500D01*
X149253467Y-107780499D01*
X149456420Y-107740130D01*
X149647598Y-107660941D01*
X149819655Y-107545977D01*
X149965977Y-107399655D01*
X150080941Y-107227598D01*
X150160130Y-107036420D01*
X150200500Y-106833465D01*
X150200500Y-106626535D01*
X150160130Y-106423580D01*
X150080941Y-106232402D01*
X149965977Y-106060345D01*
X149965975Y-106060342D01*
X149819657Y-105914024D01*
X149733626Y-105856541D01*
X149647598Y-105799059D01*
X149456420Y-105719870D01*
X149456412Y-105719868D01*
X149253469Y-105679500D01*
X149253465Y-105679500D01*
X149046535Y-105679500D01*
X149046530Y-105679500D01*
X148843587Y-105719868D01*
X148843579Y-105719870D01*
X148652403Y-105799058D01*
X148480342Y-105914024D01*
X148334024Y-106060342D01*
X148219058Y-106232403D01*
X148139870Y-106423579D01*
X148139868Y-106423587D01*
X148099500Y-106626530D01*
X100840500Y-106626530D01*
X100840500Y-104659108D01*
X132524500Y-104659108D01*
X132524500Y-104790891D01*
X132558608Y-104918187D01*
X132591554Y-104975250D01*
X132624500Y-105032314D01*
X132717686Y-105125500D01*
X132831814Y-105191392D01*
X132959108Y-105225500D01*
X132959110Y-105225500D01*
X133090890Y-105225500D01*
X133090892Y-105225500D01*
X133218186Y-105191392D01*
X133332314Y-105125500D01*
X133425500Y-105032314D01*
X133491392Y-104918186D01*
X133525500Y-104790892D01*
X133525500Y-104659108D01*
X133492007Y-104534108D01*
X144899500Y-104534108D01*
X144899500Y-104665891D01*
X144933608Y-104793187D01*
X144966554Y-104850250D01*
X144999500Y-104907314D01*
X145092686Y-105000500D01*
X145206814Y-105066392D01*
X145334108Y-105100500D01*
X145334110Y-105100500D01*
X145465890Y-105100500D01*
X145465892Y-105100500D01*
X145593186Y-105066392D01*
X145707314Y-105000500D01*
X145800500Y-104907314D01*
X145866392Y-104793186D01*
X145900500Y-104665892D01*
X145900500Y-104534108D01*
X145866392Y-104406814D01*
X145800500Y-104292686D01*
X145707314Y-104199500D01*
X145639707Y-104160467D01*
X145593187Y-104133608D01*
X145529539Y-104116554D01*
X145465892Y-104099500D01*
X145334108Y-104099500D01*
X145206812Y-104133608D01*
X145092686Y-104199500D01*
X145092683Y-104199502D01*
X144999502Y-104292683D01*
X144999500Y-104292686D01*
X144933608Y-104406812D01*
X144899500Y-104534108D01*
X133492007Y-104534108D01*
X133491392Y-104531814D01*
X133425500Y-104417686D01*
X133332314Y-104324500D01*
X133275250Y-104291554D01*
X133218187Y-104258608D01*
X133154539Y-104241554D01*
X133090892Y-104224500D01*
X132959108Y-104224500D01*
X132831812Y-104258608D01*
X132717686Y-104324500D01*
X132717683Y-104324502D01*
X132624502Y-104417683D01*
X132624500Y-104417686D01*
X132558608Y-104531812D01*
X132524500Y-104659108D01*
X100840500Y-104659108D01*
X100840500Y-103959108D01*
X138899500Y-103959108D01*
X138899500Y-104090892D01*
X138910946Y-104133608D01*
X138933608Y-104218187D01*
X138937253Y-104224500D01*
X138999500Y-104332314D01*
X139092686Y-104425500D01*
X139206814Y-104491392D01*
X139334108Y-104525500D01*
X139334110Y-104525500D01*
X139465890Y-104525500D01*
X139465892Y-104525500D01*
X139593186Y-104491392D01*
X139707314Y-104425500D01*
X139800500Y-104332314D01*
X139866392Y-104218186D01*
X139900500Y-104090892D01*
X139900500Y-104086530D01*
X148099500Y-104086530D01*
X148099500Y-104293469D01*
X148139868Y-104496412D01*
X148139870Y-104496420D01*
X148219058Y-104687596D01*
X148334024Y-104859657D01*
X148480342Y-105005975D01*
X148480345Y-105005977D01*
X148652402Y-105120941D01*
X148843580Y-105200130D01*
X149046530Y-105240499D01*
X149046534Y-105240500D01*
X149046535Y-105240500D01*
X149253466Y-105240500D01*
X149253467Y-105240499D01*
X149456420Y-105200130D01*
X149647598Y-105120941D01*
X149819655Y-105005977D01*
X149965977Y-104859655D01*
X150080941Y-104687598D01*
X150160130Y-104496420D01*
X150200500Y-104293465D01*
X150200500Y-104086535D01*
X150160130Y-103883580D01*
X150080941Y-103692402D01*
X149965977Y-103520345D01*
X149965975Y-103520342D01*
X149819657Y-103374024D01*
X149733626Y-103316541D01*
X149647598Y-103259059D01*
X149456420Y-103179870D01*
X149456412Y-103179868D01*
X149253469Y-103139500D01*
X149253465Y-103139500D01*
X149046535Y-103139500D01*
X149046530Y-103139500D01*
X148843587Y-103179868D01*
X148843579Y-103179870D01*
X148652403Y-103259058D01*
X148480342Y-103374024D01*
X148334024Y-103520342D01*
X148219058Y-103692403D01*
X148139870Y-103883579D01*
X148139868Y-103883587D01*
X148099500Y-104086530D01*
X139900500Y-104086530D01*
X139900500Y-103959108D01*
X139866392Y-103831814D01*
X139800500Y-103717686D01*
X139707314Y-103624500D01*
X139650250Y-103591554D01*
X139593187Y-103558608D01*
X139529539Y-103541554D01*
X139465892Y-103524500D01*
X139334108Y-103524500D01*
X139206812Y-103558608D01*
X139092686Y-103624500D01*
X139092683Y-103624502D01*
X138999502Y-103717683D01*
X138999500Y-103717686D01*
X138933608Y-103831812D01*
X138899500Y-103959108D01*
X100840500Y-103959108D01*
X100840500Y-101684108D01*
X129924500Y-101684108D01*
X129924500Y-101815891D01*
X129958608Y-101943187D01*
X129991554Y-102000250D01*
X130024500Y-102057314D01*
X130117686Y-102150500D01*
X130231814Y-102216392D01*
X130359108Y-102250500D01*
X130359110Y-102250500D01*
X130490890Y-102250500D01*
X130490892Y-102250500D01*
X130618186Y-102216392D01*
X130732314Y-102150500D01*
X130825500Y-102057314D01*
X130891392Y-101943186D01*
X130925500Y-101815892D01*
X130925500Y-101684108D01*
X130891392Y-101556814D01*
X130825500Y-101442686D01*
X130732314Y-101349500D01*
X130675250Y-101316554D01*
X130618187Y-101283608D01*
X130554539Y-101266554D01*
X130490892Y-101249500D01*
X130359108Y-101249500D01*
X130231812Y-101283608D01*
X130117686Y-101349500D01*
X130117683Y-101349502D01*
X130024502Y-101442683D01*
X130024500Y-101442686D01*
X129958608Y-101556812D01*
X129924500Y-101684108D01*
X100840500Y-101684108D01*
X100840500Y-99406441D01*
X101549500Y-99406441D01*
X101549500Y-100643558D01*
X101564157Y-100773648D01*
X101564159Y-100773658D01*
X101610928Y-100907313D01*
X101621878Y-100938606D01*
X101714853Y-101086576D01*
X101838424Y-101210147D01*
X101986394Y-101303122D01*
X102151343Y-101360841D01*
X102151349Y-101360841D01*
X102151351Y-101360842D01*
X102192750Y-101365506D01*
X102281442Y-101375499D01*
X102281445Y-101375500D01*
X102281448Y-101375500D01*
X103518555Y-101375500D01*
X103518556Y-101375499D01*
X103648657Y-101360841D01*
X103813606Y-101303122D01*
X103961576Y-101210147D01*
X104085147Y-101086576D01*
X104178122Y-100938606D01*
X104235841Y-100773657D01*
X104250500Y-100643552D01*
X104250500Y-99406448D01*
X104250499Y-99406441D01*
X106149500Y-99406441D01*
X106149500Y-100643558D01*
X106164157Y-100773648D01*
X106164159Y-100773658D01*
X106210928Y-100907313D01*
X106221878Y-100938606D01*
X106314853Y-101086576D01*
X106438424Y-101210147D01*
X106586394Y-101303122D01*
X106751343Y-101360841D01*
X106751349Y-101360841D01*
X106751351Y-101360842D01*
X106792750Y-101365506D01*
X106881442Y-101375499D01*
X106881445Y-101375500D01*
X106881448Y-101375500D01*
X108118555Y-101375500D01*
X108118556Y-101375499D01*
X108248657Y-101360841D01*
X108413606Y-101303122D01*
X108561576Y-101210147D01*
X108685147Y-101086576D01*
X108778122Y-100938606D01*
X108835841Y-100773657D01*
X108850500Y-100643552D01*
X108850500Y-99918713D01*
X117449500Y-99918713D01*
X117449500Y-100131286D01*
X117482753Y-100341239D01*
X117482753Y-100341241D01*
X117482754Y-100341243D01*
X117530328Y-100487661D01*
X117548444Y-100543414D01*
X117644951Y-100732820D01*
X117769890Y-100904786D01*
X117920213Y-101055109D01*
X118092179Y-101180048D01*
X118092181Y-101180049D01*
X118092184Y-101180051D01*
X118281588Y-101276557D01*
X118483757Y-101342246D01*
X118693713Y-101375500D01*
X118693714Y-101375500D01*
X118906286Y-101375500D01*
X118906287Y-101375500D01*
X119116243Y-101342246D01*
X119318412Y-101276557D01*
X119507816Y-101180051D01*
X119529789Y-101164086D01*
X119679786Y-101055109D01*
X119679788Y-101055106D01*
X119679792Y-101055104D01*
X119830104Y-100904792D01*
X119830106Y-100904788D01*
X119830109Y-100904786D01*
X119939086Y-100754789D01*
X119955051Y-100732816D01*
X120051557Y-100543412D01*
X120117246Y-100341243D01*
X120150500Y-100131287D01*
X120150500Y-99918713D01*
X122049500Y-99918713D01*
X122049500Y-100131286D01*
X122082753Y-100341239D01*
X122082753Y-100341241D01*
X122082754Y-100341243D01*
X122130328Y-100487661D01*
X122148444Y-100543414D01*
X122244951Y-100732820D01*
X122369890Y-100904786D01*
X122520213Y-101055109D01*
X122692179Y-101180048D01*
X122692181Y-101180049D01*
X122692184Y-101180051D01*
X122881588Y-101276557D01*
X123083757Y-101342246D01*
X123293713Y-101375500D01*
X123293714Y-101375500D01*
X123506286Y-101375500D01*
X123506287Y-101375500D01*
X123716243Y-101342246D01*
X123918412Y-101276557D01*
X124107816Y-101180051D01*
X124129789Y-101164086D01*
X124279786Y-101055109D01*
X124279788Y-101055106D01*
X124279792Y-101055104D01*
X124430104Y-100904792D01*
X124430106Y-100904788D01*
X124430109Y-100904786D01*
X124539086Y-100754789D01*
X124555051Y-100732816D01*
X124651557Y-100543412D01*
X124654580Y-100534108D01*
X128724500Y-100534108D01*
X128724500Y-100665891D01*
X128758608Y-100793187D01*
X128791554Y-100850250D01*
X128824500Y-100907314D01*
X128917686Y-101000500D01*
X129031814Y-101066392D01*
X129159108Y-101100500D01*
X129159110Y-101100500D01*
X129290890Y-101100500D01*
X129290892Y-101100500D01*
X129418186Y-101066392D01*
X129532314Y-101000500D01*
X129625500Y-100907314D01*
X129691392Y-100793186D01*
X129694859Y-100780247D01*
X148099500Y-100780247D01*
X148099500Y-102519752D01*
X148111131Y-102578229D01*
X148111132Y-102578230D01*
X148155447Y-102644552D01*
X148221769Y-102688867D01*
X148221770Y-102688868D01*
X148280247Y-102700499D01*
X148280250Y-102700500D01*
X148280252Y-102700500D01*
X150019750Y-102700500D01*
X150019751Y-102700499D01*
X150034568Y-102697552D01*
X150078229Y-102688868D01*
X150078229Y-102688867D01*
X150078231Y-102688867D01*
X150144552Y-102644552D01*
X150188867Y-102578231D01*
X150188867Y-102578229D01*
X150188868Y-102578229D01*
X150200499Y-102519752D01*
X150200500Y-102519750D01*
X150200500Y-100780249D01*
X150200499Y-100780247D01*
X150188868Y-100721770D01*
X150188867Y-100721769D01*
X150144552Y-100655447D01*
X150078230Y-100611132D01*
X150078229Y-100611131D01*
X150019752Y-100599500D01*
X150019748Y-100599500D01*
X148280252Y-100599500D01*
X148280247Y-100599500D01*
X148221770Y-100611131D01*
X148221769Y-100611132D01*
X148155447Y-100655447D01*
X148111132Y-100721769D01*
X148111131Y-100721770D01*
X148099500Y-100780247D01*
X129694859Y-100780247D01*
X129725500Y-100665892D01*
X129725500Y-100534108D01*
X129691392Y-100406814D01*
X129625500Y-100292686D01*
X129532314Y-100199500D01*
X129475250Y-100166554D01*
X129418187Y-100133608D01*
X129354539Y-100116554D01*
X129290892Y-100099500D01*
X129159108Y-100099500D01*
X129031812Y-100133608D01*
X128917686Y-100199500D01*
X128917683Y-100199502D01*
X128824502Y-100292683D01*
X128824500Y-100292686D01*
X128758608Y-100406812D01*
X128724500Y-100534108D01*
X124654580Y-100534108D01*
X124717246Y-100341243D01*
X124750500Y-100131287D01*
X124750500Y-99918713D01*
X124717246Y-99708757D01*
X124651557Y-99506588D01*
X124555051Y-99317184D01*
X124555049Y-99317181D01*
X124555048Y-99317179D01*
X124430109Y-99145213D01*
X124279786Y-98994890D01*
X124107820Y-98869951D01*
X123918414Y-98773444D01*
X123918413Y-98773443D01*
X123918412Y-98773443D01*
X123716243Y-98707754D01*
X123716241Y-98707753D01*
X123716240Y-98707753D01*
X123554957Y-98682208D01*
X123506287Y-98674500D01*
X123293713Y-98674500D01*
X123245042Y-98682208D01*
X123083760Y-98707753D01*
X122881585Y-98773444D01*
X122692179Y-98869951D01*
X122520213Y-98994890D01*
X122369890Y-99145213D01*
X122244951Y-99317179D01*
X122148444Y-99506585D01*
X122082753Y-99708760D01*
X122049500Y-99918713D01*
X120150500Y-99918713D01*
X120117246Y-99708757D01*
X120051557Y-99506588D01*
X119955051Y-99317184D01*
X119955049Y-99317181D01*
X119955048Y-99317179D01*
X119830109Y-99145213D01*
X119679786Y-98994890D01*
X119507820Y-98869951D01*
X119318414Y-98773444D01*
X119318413Y-98773443D01*
X119318412Y-98773443D01*
X119116243Y-98707754D01*
X119116241Y-98707753D01*
X119116240Y-98707753D01*
X118954957Y-98682208D01*
X118906287Y-98674500D01*
X118693713Y-98674500D01*
X118645042Y-98682208D01*
X118483760Y-98707753D01*
X118281585Y-98773444D01*
X118092179Y-98869951D01*
X117920213Y-98994890D01*
X117769890Y-99145213D01*
X117644951Y-99317179D01*
X117548444Y-99506585D01*
X117482753Y-99708760D01*
X117449500Y-99918713D01*
X108850500Y-99918713D01*
X108850500Y-99406448D01*
X108835841Y-99276343D01*
X108778122Y-99111394D01*
X108685147Y-98963424D01*
X108561576Y-98839853D01*
X108413606Y-98746878D01*
X108413605Y-98746877D01*
X108413604Y-98746877D01*
X108248658Y-98689159D01*
X108248648Y-98689157D01*
X108118558Y-98674500D01*
X108118552Y-98674500D01*
X106881448Y-98674500D01*
X106881441Y-98674500D01*
X106751351Y-98689157D01*
X106751341Y-98689159D01*
X106586395Y-98746877D01*
X106438423Y-98839853D01*
X106314853Y-98963423D01*
X106221877Y-99111395D01*
X106164159Y-99276341D01*
X106164157Y-99276351D01*
X106149500Y-99406441D01*
X104250499Y-99406441D01*
X104235841Y-99276343D01*
X104178122Y-99111394D01*
X104085147Y-98963424D01*
X103961576Y-98839853D01*
X103813606Y-98746878D01*
X103813605Y-98746877D01*
X103813604Y-98746877D01*
X103648658Y-98689159D01*
X103648648Y-98689157D01*
X103518558Y-98674500D01*
X103518552Y-98674500D01*
X102281448Y-98674500D01*
X102281441Y-98674500D01*
X102151351Y-98689157D01*
X102151341Y-98689159D01*
X101986395Y-98746877D01*
X101838423Y-98839853D01*
X101714853Y-98963423D01*
X101621877Y-99111395D01*
X101564159Y-99276341D01*
X101564157Y-99276351D01*
X101549500Y-99406441D01*
X100840500Y-99406441D01*
X100840500Y-97884108D01*
X138199500Y-97884108D01*
X138199500Y-98015891D01*
X138233608Y-98143187D01*
X138260046Y-98188978D01*
X138299500Y-98257314D01*
X138392686Y-98350500D01*
X138506814Y-98416392D01*
X138634108Y-98450500D01*
X138634110Y-98450500D01*
X138765890Y-98450500D01*
X138765892Y-98450500D01*
X138893186Y-98416392D01*
X139007314Y-98350500D01*
X139098706Y-98259108D01*
X141249500Y-98259108D01*
X141249500Y-98390892D01*
X141265472Y-98450500D01*
X141283608Y-98518187D01*
X141316554Y-98575250D01*
X141349500Y-98632314D01*
X141442686Y-98725500D01*
X141556814Y-98791392D01*
X141684108Y-98825500D01*
X141684110Y-98825500D01*
X141815890Y-98825500D01*
X141815892Y-98825500D01*
X141943186Y-98791392D01*
X142057314Y-98725500D01*
X142150500Y-98632314D01*
X142216392Y-98518186D01*
X142250500Y-98390892D01*
X142250500Y-98259108D01*
X142216392Y-98131814D01*
X142150500Y-98017686D01*
X142057314Y-97924500D01*
X141987353Y-97884108D01*
X141943187Y-97858608D01*
X141879539Y-97841554D01*
X141815892Y-97824500D01*
X141684108Y-97824500D01*
X141556812Y-97858608D01*
X141442686Y-97924500D01*
X141442683Y-97924502D01*
X141349502Y-98017683D01*
X141349500Y-98017686D01*
X141283608Y-98131812D01*
X141249981Y-98257313D01*
X141249500Y-98259108D01*
X139098706Y-98259108D01*
X139100500Y-98257314D01*
X139166392Y-98143186D01*
X139200500Y-98015892D01*
X139200500Y-97884108D01*
X139166392Y-97756814D01*
X139100500Y-97642686D01*
X139007314Y-97549500D01*
X138950250Y-97516554D01*
X138893187Y-97483608D01*
X138829539Y-97466554D01*
X138765892Y-97449500D01*
X138634108Y-97449500D01*
X138506812Y-97483608D01*
X138392686Y-97549500D01*
X138392683Y-97549502D01*
X138299502Y-97642683D01*
X138299500Y-97642686D01*
X138233608Y-97756812D01*
X138199500Y-97884108D01*
X100840500Y-97884108D01*
X100840500Y-96603460D01*
X143056600Y-96603460D01*
X143056600Y-96746540D01*
X143093632Y-96884745D01*
X143165172Y-97008655D01*
X143266345Y-97109828D01*
X143390255Y-97181368D01*
X143528460Y-97218400D01*
X143528462Y-97218400D01*
X143671537Y-97218400D01*
X143671540Y-97218400D01*
X143809745Y-97181368D01*
X143933655Y-97109828D01*
X144034828Y-97008655D01*
X144106368Y-96884745D01*
X144143400Y-96746540D01*
X144143400Y-96603460D01*
X144106368Y-96465255D01*
X144034828Y-96341345D01*
X143933655Y-96240172D01*
X143809745Y-96168632D01*
X143671540Y-96131600D01*
X143528460Y-96131600D01*
X143390255Y-96168632D01*
X143390253Y-96168632D01*
X143390253Y-96168633D01*
X143266345Y-96240172D01*
X143266342Y-96240174D01*
X143165174Y-96341342D01*
X143165172Y-96341345D01*
X143093632Y-96465255D01*
X143056600Y-96603460D01*
X100840500Y-96603460D01*
X100840500Y-95696608D01*
X134312000Y-95696608D01*
X134312000Y-95828391D01*
X134346108Y-95955687D01*
X134379054Y-96012750D01*
X134412000Y-96069814D01*
X134505186Y-96163000D01*
X134619314Y-96228892D01*
X134746608Y-96263000D01*
X134746610Y-96263000D01*
X134878390Y-96263000D01*
X134878392Y-96263000D01*
X135005686Y-96228892D01*
X135119814Y-96163000D01*
X135213000Y-96069814D01*
X135278892Y-95955686D01*
X135313000Y-95828392D01*
X135313000Y-95696608D01*
X135278892Y-95569314D01*
X135213000Y-95455186D01*
X135119814Y-95362000D01*
X135062750Y-95329054D01*
X135005687Y-95296108D01*
X134942039Y-95279054D01*
X134878392Y-95262000D01*
X134746608Y-95262000D01*
X134619312Y-95296108D01*
X134505186Y-95362000D01*
X134505183Y-95362002D01*
X134412002Y-95455183D01*
X134412000Y-95455186D01*
X134346108Y-95569312D01*
X134312000Y-95696608D01*
X100840500Y-95696608D01*
X100840500Y-94384108D01*
X135624500Y-94384108D01*
X135624500Y-94515891D01*
X135658608Y-94643187D01*
X135672751Y-94667683D01*
X135724500Y-94757314D01*
X135817686Y-94850500D01*
X135931814Y-94916392D01*
X136059108Y-94950500D01*
X136059110Y-94950500D01*
X136190890Y-94950500D01*
X136190892Y-94950500D01*
X136318186Y-94916392D01*
X136330802Y-94909108D01*
X141849500Y-94909108D01*
X141849500Y-95040891D01*
X141883608Y-95168187D01*
X141916554Y-95225250D01*
X141949500Y-95282314D01*
X142042686Y-95375500D01*
X142156814Y-95441392D01*
X142284108Y-95475500D01*
X142284110Y-95475500D01*
X142415890Y-95475500D01*
X142415892Y-95475500D01*
X142543186Y-95441392D01*
X142657314Y-95375500D01*
X142750500Y-95282314D01*
X142816392Y-95168186D01*
X142850500Y-95040892D01*
X142850500Y-94909108D01*
X142816392Y-94781814D01*
X142750500Y-94667686D01*
X142657314Y-94574500D01*
X142600250Y-94541554D01*
X142543187Y-94508608D01*
X142479539Y-94491554D01*
X142415892Y-94474500D01*
X142284108Y-94474500D01*
X142156812Y-94508608D01*
X142042686Y-94574500D01*
X142042683Y-94574502D01*
X141949502Y-94667683D01*
X141949500Y-94667686D01*
X141883608Y-94781812D01*
X141849500Y-94909108D01*
X136330802Y-94909108D01*
X136432314Y-94850500D01*
X136525500Y-94757314D01*
X136591392Y-94643186D01*
X136625500Y-94515892D01*
X136625500Y-94384108D01*
X136591392Y-94256814D01*
X136525500Y-94142686D01*
X136432314Y-94049500D01*
X136375250Y-94016554D01*
X136318187Y-93983608D01*
X136254539Y-93966554D01*
X136190892Y-93949500D01*
X136059108Y-93949500D01*
X135931812Y-93983608D01*
X135817686Y-94049500D01*
X135817683Y-94049502D01*
X135724502Y-94142683D01*
X135724500Y-94142686D01*
X135658608Y-94256812D01*
X135624500Y-94384108D01*
X100840500Y-94384108D01*
X100840500Y-92709108D01*
X137249500Y-92709108D01*
X137249500Y-92840891D01*
X137283608Y-92968187D01*
X137316554Y-93025250D01*
X137349500Y-93082314D01*
X137442686Y-93175500D01*
X137556814Y-93241392D01*
X137684108Y-93275500D01*
X137684110Y-93275500D01*
X137815890Y-93275500D01*
X137815892Y-93275500D01*
X137943186Y-93241392D01*
X138057314Y-93175500D01*
X138150500Y-93082314D01*
X138216392Y-92968186D01*
X138250500Y-92840892D01*
X138250500Y-92709108D01*
X138216392Y-92581814D01*
X138150500Y-92467686D01*
X138057314Y-92374500D01*
X138000250Y-92341554D01*
X137943187Y-92308608D01*
X137879539Y-92291554D01*
X137815892Y-92274500D01*
X137684108Y-92274500D01*
X137556812Y-92308608D01*
X137442686Y-92374500D01*
X137442683Y-92374502D01*
X137349502Y-92467683D01*
X137349500Y-92467686D01*
X137283608Y-92581812D01*
X137249500Y-92709108D01*
X100840500Y-92709108D01*
X100840500Y-88841902D01*
X102629500Y-88841902D01*
X102629500Y-89078097D01*
X102666446Y-89311368D01*
X102739433Y-89535996D01*
X102822998Y-89700000D01*
X102846657Y-89746433D01*
X102985483Y-89937510D01*
X103152490Y-90104517D01*
X103343567Y-90243343D01*
X103442991Y-90294002D01*
X103554003Y-90350566D01*
X103554005Y-90350566D01*
X103554008Y-90350568D01*
X103672655Y-90389119D01*
X103778631Y-90423553D01*
X104011903Y-90460500D01*
X104011908Y-90460500D01*
X104248097Y-90460500D01*
X104481368Y-90423553D01*
X104495014Y-90419119D01*
X104705992Y-90350568D01*
X104916433Y-90243343D01*
X105107510Y-90104517D01*
X105274517Y-89937510D01*
X105413343Y-89746433D01*
X105520568Y-89535992D01*
X105593553Y-89311368D01*
X105600439Y-89267890D01*
X105620816Y-89139240D01*
X105630500Y-89078097D01*
X105630500Y-88841902D01*
X105593553Y-88608631D01*
X105549801Y-88473978D01*
X105520568Y-88384008D01*
X105520566Y-88384005D01*
X105520566Y-88384003D01*
X105413342Y-88173566D01*
X105358875Y-88098599D01*
X105274517Y-87982490D01*
X105152040Y-87860013D01*
X107410000Y-87860013D01*
X107410000Y-88710000D01*
X108609999Y-88710000D01*
X108584979Y-88770402D01*
X108560000Y-88895981D01*
X108560000Y-89024019D01*
X108584979Y-89149598D01*
X108609999Y-89210000D01*
X107410001Y-89210000D01*
X107410001Y-90059986D01*
X107420494Y-90162697D01*
X107475641Y-90329119D01*
X107475643Y-90329124D01*
X107567684Y-90478345D01*
X107691654Y-90602315D01*
X107840875Y-90694356D01*
X107840880Y-90694358D01*
X108007302Y-90749505D01*
X108007309Y-90749506D01*
X108110019Y-90759999D01*
X108959999Y-90759999D01*
X108960000Y-90759998D01*
X108960000Y-89560001D01*
X109020402Y-89585021D01*
X109145981Y-89610000D01*
X109274019Y-89610000D01*
X109399598Y-89585021D01*
X109460000Y-89560001D01*
X109460000Y-90759999D01*
X110309972Y-90759999D01*
X110309986Y-90759998D01*
X110412697Y-90749505D01*
X110579119Y-90694358D01*
X110579124Y-90694356D01*
X110728345Y-90602315D01*
X110852315Y-90478345D01*
X110944356Y-90329124D01*
X110944358Y-90329119D01*
X110999505Y-90162697D01*
X110999506Y-90162690D01*
X111009999Y-90059986D01*
X111010000Y-90059973D01*
X111010000Y-89210000D01*
X109810001Y-89210000D01*
X109835021Y-89149598D01*
X109860000Y-89024019D01*
X109860000Y-88895981D01*
X109835021Y-88770402D01*
X109810001Y-88710000D01*
X111009999Y-88710000D01*
X111009999Y-88601995D01*
X112769500Y-88601995D01*
X112769500Y-88838004D01*
X112769501Y-88838020D01*
X112800306Y-89072010D01*
X112861394Y-89299993D01*
X112951714Y-89518045D01*
X112951719Y-89518056D01*
X112990382Y-89585021D01*
X113069727Y-89722450D01*
X113069729Y-89722453D01*
X113069730Y-89722454D01*
X113213406Y-89909697D01*
X113213412Y-89909704D01*
X113380295Y-90076587D01*
X113380302Y-90076593D01*
X113436836Y-90119973D01*
X113567550Y-90220273D01*
X113698918Y-90296118D01*
X113771943Y-90338280D01*
X113771948Y-90338282D01*
X113771951Y-90338284D01*
X113990007Y-90428606D01*
X114217986Y-90489693D01*
X114451989Y-90520500D01*
X114451996Y-90520500D01*
X114688004Y-90520500D01*
X114688011Y-90520500D01*
X114922014Y-90489693D01*
X115149993Y-90428606D01*
X115368049Y-90338284D01*
X115572450Y-90220273D01*
X115759699Y-90076592D01*
X115926592Y-89909699D01*
X116070273Y-89722450D01*
X116188284Y-89518049D01*
X116278606Y-89299993D01*
X116339693Y-89072014D01*
X116370500Y-88838011D01*
X116370500Y-88601989D01*
X116339693Y-88367986D01*
X116278606Y-88140007D01*
X116188284Y-87921951D01*
X116188282Y-87921948D01*
X116188280Y-87921943D01*
X116126816Y-87815485D01*
X116070273Y-87717550D01*
X115926592Y-87530301D01*
X115926587Y-87530295D01*
X115759704Y-87363412D01*
X115759697Y-87363406D01*
X115703146Y-87320013D01*
X125170000Y-87320013D01*
X125170000Y-88470000D01*
X126507639Y-88470000D01*
X126500743Y-88486649D01*
X126470000Y-88641207D01*
X126470000Y-88798793D01*
X126500743Y-88953351D01*
X126507639Y-88970000D01*
X125170001Y-88970000D01*
X125170001Y-90119986D01*
X125180494Y-90222697D01*
X125235641Y-90389119D01*
X125235643Y-90389124D01*
X125327684Y-90538345D01*
X125451654Y-90662315D01*
X125600875Y-90754356D01*
X125600880Y-90754358D01*
X125767302Y-90809505D01*
X125767309Y-90809506D01*
X125870019Y-90819999D01*
X127019999Y-90819999D01*
X127020000Y-90819998D01*
X127020000Y-89482360D01*
X127036649Y-89489257D01*
X127191207Y-89520000D01*
X127348793Y-89520000D01*
X127503351Y-89489257D01*
X127520000Y-89482360D01*
X127520000Y-90819999D01*
X128669972Y-90819999D01*
X128669986Y-90819998D01*
X128772697Y-90809505D01*
X128939119Y-90754358D01*
X128939124Y-90754356D01*
X129088345Y-90662315D01*
X129212315Y-90538345D01*
X129304356Y-90389124D01*
X129304358Y-90389119D01*
X129359505Y-90222697D01*
X129359506Y-90222690D01*
X129369999Y-90119986D01*
X129370000Y-90119973D01*
X129370000Y-88970000D01*
X128032361Y-88970000D01*
X128039257Y-88953351D01*
X128043523Y-88931902D01*
X131179500Y-88931902D01*
X131179500Y-89168097D01*
X131216446Y-89401368D01*
X131289433Y-89625996D01*
X131396657Y-89836433D01*
X131535483Y-90027510D01*
X131702490Y-90194517D01*
X131893567Y-90333343D01*
X131992991Y-90384002D01*
X132104003Y-90440566D01*
X132104005Y-90440566D01*
X132104008Y-90440568D01*
X132220273Y-90478345D01*
X132328631Y-90513553D01*
X132561903Y-90550500D01*
X132561908Y-90550500D01*
X132798097Y-90550500D01*
X133031368Y-90513553D01*
X133104801Y-90489693D01*
X133255992Y-90440568D01*
X133466433Y-90333343D01*
X133657510Y-90194517D01*
X133824517Y-90027510D01*
X133963343Y-89836433D01*
X134070568Y-89625992D01*
X134143553Y-89401368D01*
X134153051Y-89341401D01*
X134180500Y-89168097D01*
X134180500Y-88931902D01*
X136259500Y-88931902D01*
X136259500Y-89168097D01*
X136296446Y-89401368D01*
X136369433Y-89625996D01*
X136476657Y-89836433D01*
X136615483Y-90027510D01*
X136782490Y-90194517D01*
X136973567Y-90333343D01*
X137072991Y-90384002D01*
X137184003Y-90440566D01*
X137184005Y-90440566D01*
X137184008Y-90440568D01*
X137300273Y-90478345D01*
X137408631Y-90513553D01*
X137641903Y-90550500D01*
X137641908Y-90550500D01*
X137878097Y-90550500D01*
X138111368Y-90513553D01*
X138184801Y-90489693D01*
X138335992Y-90440568D01*
X138546433Y-90333343D01*
X138737510Y-90194517D01*
X138904517Y-90027510D01*
X139043343Y-89836433D01*
X139150568Y-89625992D01*
X139223553Y-89401368D01*
X139233051Y-89341401D01*
X139260500Y-89168097D01*
X139260500Y-88931902D01*
X141339500Y-88931902D01*
X141339500Y-89168097D01*
X141376446Y-89401368D01*
X141449433Y-89625996D01*
X141556657Y-89836433D01*
X141695483Y-90027510D01*
X141862490Y-90194517D01*
X142053567Y-90333343D01*
X142152991Y-90384002D01*
X142264003Y-90440566D01*
X142264005Y-90440566D01*
X142264008Y-90440568D01*
X142380273Y-90478345D01*
X142488631Y-90513553D01*
X142721903Y-90550500D01*
X142721908Y-90550500D01*
X142958097Y-90550500D01*
X143191368Y-90513553D01*
X143264801Y-90489693D01*
X143415992Y-90440568D01*
X143626433Y-90333343D01*
X143817510Y-90194517D01*
X143984517Y-90027510D01*
X144123343Y-89836433D01*
X144230568Y-89625992D01*
X144303553Y-89401368D01*
X144313051Y-89341401D01*
X144330816Y-89229240D01*
X144340500Y-89168097D01*
X144340500Y-88931902D01*
X144303553Y-88698631D01*
X144269689Y-88594412D01*
X144230568Y-88474008D01*
X144230566Y-88474005D01*
X144230566Y-88474003D01*
X144123342Y-88263566D01*
X143984517Y-88072490D01*
X143862040Y-87950013D01*
X146120000Y-87950013D01*
X146120000Y-88800000D01*
X147319999Y-88800000D01*
X147294979Y-88860402D01*
X147270000Y-88985981D01*
X147270000Y-89114019D01*
X147294979Y-89239598D01*
X147319999Y-89300000D01*
X146120001Y-89300000D01*
X146120001Y-90149986D01*
X146130494Y-90252697D01*
X146185641Y-90419119D01*
X146185643Y-90419124D01*
X146277684Y-90568345D01*
X146401654Y-90692315D01*
X146550875Y-90784356D01*
X146550880Y-90784358D01*
X146717302Y-90839505D01*
X146717309Y-90839506D01*
X146820019Y-90849999D01*
X147669999Y-90849999D01*
X147670000Y-90849998D01*
X147670000Y-89650001D01*
X147730402Y-89675021D01*
X147855981Y-89700000D01*
X147984019Y-89700000D01*
X148109598Y-89675021D01*
X148170000Y-89650001D01*
X148170000Y-90849999D01*
X149019972Y-90849999D01*
X149019986Y-90849998D01*
X149122697Y-90839505D01*
X149289119Y-90784358D01*
X149289124Y-90784356D01*
X149438345Y-90692315D01*
X149562315Y-90568345D01*
X149654356Y-90419124D01*
X149654358Y-90419119D01*
X149709505Y-90252697D01*
X149709506Y-90252690D01*
X149719999Y-90149986D01*
X149720000Y-90149973D01*
X149720000Y-89300000D01*
X148520001Y-89300000D01*
X148545021Y-89239598D01*
X148570000Y-89114019D01*
X148570000Y-88985981D01*
X148545021Y-88860402D01*
X148520001Y-88800000D01*
X149719999Y-88800000D01*
X149719999Y-87950028D01*
X149719998Y-87950013D01*
X149709505Y-87847302D01*
X149654358Y-87680880D01*
X149654356Y-87680875D01*
X149562315Y-87531654D01*
X149438345Y-87407684D01*
X149289124Y-87315643D01*
X149289119Y-87315641D01*
X149122697Y-87260494D01*
X149122690Y-87260493D01*
X149019986Y-87250000D01*
X148170000Y-87250000D01*
X148170000Y-88449998D01*
X148109598Y-88424979D01*
X147984019Y-88400000D01*
X147855981Y-88400000D01*
X147730402Y-88424979D01*
X147670000Y-88449998D01*
X147670000Y-87250000D01*
X146820028Y-87250000D01*
X146820012Y-87250001D01*
X146717302Y-87260494D01*
X146550880Y-87315641D01*
X146550875Y-87315643D01*
X146401654Y-87407684D01*
X146277684Y-87531654D01*
X146185643Y-87680875D01*
X146185641Y-87680880D01*
X146130494Y-87847302D01*
X146130493Y-87847309D01*
X146120000Y-87950013D01*
X143862040Y-87950013D01*
X143817510Y-87905483D01*
X143626433Y-87766657D01*
X143608073Y-87757302D01*
X143415996Y-87659433D01*
X143191368Y-87586446D01*
X142958097Y-87549500D01*
X142958092Y-87549500D01*
X142721908Y-87549500D01*
X142721903Y-87549500D01*
X142488631Y-87586446D01*
X142264003Y-87659433D01*
X142053566Y-87766657D01*
X141986364Y-87815483D01*
X141862490Y-87905483D01*
X141862488Y-87905485D01*
X141862487Y-87905485D01*
X141695485Y-88072487D01*
X141695485Y-88072488D01*
X141695483Y-88072490D01*
X141676514Y-88098599D01*
X141556657Y-88263566D01*
X141449433Y-88474003D01*
X141376446Y-88698631D01*
X141339500Y-88931902D01*
X139260500Y-88931902D01*
X139223553Y-88698631D01*
X139189689Y-88594412D01*
X139150568Y-88474008D01*
X139150566Y-88474005D01*
X139150566Y-88474003D01*
X139043342Y-88263566D01*
X138904517Y-88072490D01*
X138737510Y-87905483D01*
X138546433Y-87766657D01*
X138528073Y-87757302D01*
X138335996Y-87659433D01*
X138111368Y-87586446D01*
X137878097Y-87549500D01*
X137878092Y-87549500D01*
X137641908Y-87549500D01*
X137641903Y-87549500D01*
X137408631Y-87586446D01*
X137184003Y-87659433D01*
X136973566Y-87766657D01*
X136906364Y-87815483D01*
X136782490Y-87905483D01*
X136782488Y-87905485D01*
X136782487Y-87905485D01*
X136615485Y-88072487D01*
X136615485Y-88072488D01*
X136615483Y-88072490D01*
X136596514Y-88098599D01*
X136476657Y-88263566D01*
X136369433Y-88474003D01*
X136296446Y-88698631D01*
X136259500Y-88931902D01*
X134180500Y-88931902D01*
X134143553Y-88698631D01*
X134109689Y-88594412D01*
X134070568Y-88474008D01*
X134070566Y-88474005D01*
X134070566Y-88474003D01*
X133963342Y-88263566D01*
X133824517Y-88072490D01*
X133657510Y-87905483D01*
X133466433Y-87766657D01*
X133448073Y-87757302D01*
X133255996Y-87659433D01*
X133031368Y-87586446D01*
X132798097Y-87549500D01*
X132798092Y-87549500D01*
X132561908Y-87549500D01*
X132561903Y-87549500D01*
X132328631Y-87586446D01*
X132104003Y-87659433D01*
X131893566Y-87766657D01*
X131826364Y-87815483D01*
X131702490Y-87905483D01*
X131702488Y-87905485D01*
X131702487Y-87905485D01*
X131535485Y-88072487D01*
X131535485Y-88072488D01*
X131535483Y-88072490D01*
X131516514Y-88098599D01*
X131396657Y-88263566D01*
X131289433Y-88474003D01*
X131216446Y-88698631D01*
X131179500Y-88931902D01*
X128043523Y-88931902D01*
X128070000Y-88798793D01*
X128070000Y-88641207D01*
X128039257Y-88486649D01*
X128032361Y-88470000D01*
X129369999Y-88470000D01*
X129369999Y-87320028D01*
X129369998Y-87320013D01*
X129359505Y-87217302D01*
X129304358Y-87050880D01*
X129304356Y-87050875D01*
X129212315Y-86901654D01*
X129088345Y-86777684D01*
X128939124Y-86685643D01*
X128939119Y-86685641D01*
X128772697Y-86630494D01*
X128772690Y-86630493D01*
X128669986Y-86620000D01*
X127520000Y-86620000D01*
X127520000Y-87957639D01*
X127503351Y-87950743D01*
X127348793Y-87920000D01*
X127191207Y-87920000D01*
X127036649Y-87950743D01*
X127020000Y-87957639D01*
X127020000Y-86620000D01*
X125870028Y-86620000D01*
X125870012Y-86620001D01*
X125767302Y-86630494D01*
X125600880Y-86685641D01*
X125600875Y-86685643D01*
X125451654Y-86777684D01*
X125327684Y-86901654D01*
X125235643Y-87050875D01*
X125235641Y-87050880D01*
X125180494Y-87217302D01*
X125180493Y-87217309D01*
X125170000Y-87320013D01*
X115703146Y-87320013D01*
X115572454Y-87219730D01*
X115572453Y-87219729D01*
X115572450Y-87219727D01*
X115469000Y-87160000D01*
X115368056Y-87101719D01*
X115368045Y-87101714D01*
X115149993Y-87011394D01*
X114922010Y-86950306D01*
X114688020Y-86919501D01*
X114688017Y-86919500D01*
X114688011Y-86919500D01*
X114451989Y-86919500D01*
X114451983Y-86919500D01*
X114451979Y-86919501D01*
X114217989Y-86950306D01*
X113990006Y-87011394D01*
X113771954Y-87101714D01*
X113771943Y-87101719D01*
X113567545Y-87219730D01*
X113380302Y-87363406D01*
X113380295Y-87363412D01*
X113213412Y-87530295D01*
X113213406Y-87530302D01*
X113069730Y-87717545D01*
X112951719Y-87921943D01*
X112951714Y-87921954D01*
X112861394Y-88140006D01*
X112800306Y-88367989D01*
X112769501Y-88601979D01*
X112769500Y-88601995D01*
X111009999Y-88601995D01*
X111009999Y-87860028D01*
X111009998Y-87860013D01*
X110999505Y-87757302D01*
X110944358Y-87590880D01*
X110944356Y-87590875D01*
X110852315Y-87441654D01*
X110728345Y-87317684D01*
X110579124Y-87225643D01*
X110579119Y-87225641D01*
X110412697Y-87170494D01*
X110412690Y-87170493D01*
X110309986Y-87160000D01*
X109460000Y-87160000D01*
X109460000Y-88359998D01*
X109399598Y-88334979D01*
X109274019Y-88310000D01*
X109145981Y-88310000D01*
X109020402Y-88334979D01*
X108960000Y-88359998D01*
X108960000Y-87160000D01*
X108110028Y-87160000D01*
X108110012Y-87160001D01*
X108007302Y-87170494D01*
X107840880Y-87225641D01*
X107840875Y-87225643D01*
X107691654Y-87317684D01*
X107567684Y-87441654D01*
X107475643Y-87590875D01*
X107475641Y-87590880D01*
X107420494Y-87757302D01*
X107420493Y-87757309D01*
X107410000Y-87860013D01*
X105152040Y-87860013D01*
X105107510Y-87815483D01*
X104916433Y-87676657D01*
X104882627Y-87659432D01*
X104705996Y-87569433D01*
X104481368Y-87496446D01*
X104248097Y-87459500D01*
X104248092Y-87459500D01*
X104011908Y-87459500D01*
X104011903Y-87459500D01*
X103778631Y-87496446D01*
X103554003Y-87569433D01*
X103343566Y-87676657D01*
X103234550Y-87755862D01*
X103152490Y-87815483D01*
X103152488Y-87815485D01*
X103152487Y-87815485D01*
X102985485Y-87982487D01*
X102985485Y-87982488D01*
X102985483Y-87982490D01*
X102964734Y-88011049D01*
X102846657Y-88173566D01*
X102739433Y-88384003D01*
X102666446Y-88608631D01*
X102629500Y-88841902D01*
X100840500Y-88841902D01*
X100840500Y-83224500D01*
X100860185Y-83157461D01*
X100912989Y-83111706D01*
X100964500Y-83100500D01*
X151105500Y-83100500D01*
X151172539Y-83120185D01*
G37*
%TD.AperFunction*%
%TD*%
M02*
