%TF.GenerationSoftware,KiCad,Pcbnew,9.0.8+dfsg-1*%
%TF.CreationDate,2026-09-14T23:54:26+05:30*%
%TF.ProjectId,12S_UAV_UGV_PMU,3132535f-5541-4565-9f55-47565f504d55,rev?*%
%TF.SameCoordinates,Original*%
%TF.FileFunction,Copper,L1,Top*%
%TF.FilePolarity,Positive*%
%FSLAX46Y46*%
G04 Gerber Fmt 4.6, Leading zero omitted, Abs format (unit mm)*
G04 Created by KiCad (PCBNEW 9.0.8+dfsg-1) date 2026-09-14 23:54:26*
%MOMM*%
%LPD*%
G01*
G04 APERTURE LIST*
G04 Aperture macros list*
%AMRoundRect*
0 Rectangle with rounded corners*
0 $1 Rounding radius*
0 $2 $3 $4 $5 $6 $7 $8 $9 X,Y pos of 4 corners*
0 Add a 4 corners polygon primitive as box body*
4,1,4,$2,$3,$4,$5,$6,$7,$8,$9,$2,$3,0*
0 Add four circle primitives for the rounded corners*
1,1,$1+$1,$2,$3*
1,1,$1+$1,$4,$5*
1,1,$1+$1,$6,$7*
1,1,$1+$1,$8,$9*
0 Add four rect primitives between the rounded corners*
20,1,$1+$1,$2,$3,$4,$5,0*
20,1,$1+$1,$4,$5,$6,$7,0*
20,1,$1+$1,$6,$7,$8,$9,0*
20,1,$1+$1,$8,$9,$2,$3,0*%
%AMFreePoly0*
4,1,153,0.406581,0.804743,0.408810,0.804000,0.410000,0.804000,0.411581,0.803743,0.413810,0.803000,0.415000,0.803000,0.416581,0.802743,0.419581,0.801743,0.420236,0.801472,0.421920,0.800630,0.424581,0.799743,0.426536,0.798536,0.427964,0.797108,0.429236,0.796472,0.430536,0.795536,0.431964,0.794108,0.433236,0.793472,0.434536,0.792536,0.442536,0.784536,0.443472,0.783236,
0.444108,0.781964,0.445536,0.780536,0.446472,0.779236,0.447108,0.777964,0.448536,0.776536,0.449743,0.774581,0.450630,0.771920,0.451472,0.770236,0.451743,0.769581,0.452743,0.766581,0.453000,0.765000,0.453000,0.763810,0.453743,0.761581,0.454000,0.760000,0.454000,0.758810,0.454743,0.756581,0.455000,0.755000,0.455000,-0.755000,0.454743,-0.756581,0.454000,-0.758810,
0.454000,-0.760000,0.453743,-0.761581,0.453000,-0.763810,0.453000,-0.765000,0.452743,-0.766581,0.451743,-0.769581,0.451472,-0.770236,0.450630,-0.771920,0.449743,-0.774581,0.448536,-0.776536,0.447108,-0.777964,0.446472,-0.779236,0.445536,-0.780536,0.444108,-0.781964,0.443472,-0.783236,0.442536,-0.784536,0.434536,-0.792536,0.433236,-0.793472,0.431964,-0.794108,0.430536,-0.795536,
0.429236,-0.796472,0.427964,-0.797108,0.426536,-0.798536,0.424581,-0.799743,0.421920,-0.800630,0.420236,-0.801472,0.419581,-0.801743,0.416581,-0.802743,0.415000,-0.803000,0.413810,-0.803000,0.411581,-0.803743,0.410000,-0.804000,0.408810,-0.804000,0.406581,-0.804743,0.405000,-0.805000,-0.405000,-0.805000,-0.406581,-0.804743,-0.408810,-0.804000,-0.410000,-0.804000,-0.411581,-0.803743,
-0.413810,-0.803000,-0.415000,-0.803000,-0.416581,-0.802743,-0.419581,-0.801743,-0.420236,-0.801472,-0.421920,-0.800630,-0.424581,-0.799743,-0.426536,-0.798536,-0.427964,-0.797108,-0.429236,-0.796472,-0.430536,-0.795536,-0.431964,-0.794108,-0.433236,-0.793472,-0.434536,-0.792536,-0.442536,-0.784536,-0.443472,-0.783236,-0.444108,-0.781964,-0.445536,-0.780536,-0.446472,-0.779236,-0.447108,-0.777964,
-0.448536,-0.776536,-0.449743,-0.774581,-0.450630,-0.771920,-0.451472,-0.770236,-0.451743,-0.769581,-0.452743,-0.766581,-0.453000,-0.765000,-0.453000,-0.763810,-0.453743,-0.761581,-0.454000,-0.760000,-0.454000,-0.758810,-0.454743,-0.756581,-0.455000,-0.755000,-0.455000,0.755000,-0.454743,0.756581,-0.454000,0.758810,-0.454000,0.760000,-0.453743,0.761581,-0.453000,0.763810,-0.453000,0.765000,
-0.452743,0.766581,-0.451743,0.769581,-0.451472,0.770236,-0.450630,0.771920,-0.449743,0.774581,-0.448536,0.776536,-0.447108,0.777964,-0.446472,0.779236,-0.445536,0.780536,-0.444108,0.781964,-0.443472,0.783236,-0.442536,0.784536,-0.434536,0.792536,-0.433236,0.793472,-0.431964,0.794108,-0.430536,0.795536,-0.429236,0.796472,-0.427964,0.797108,-0.426536,0.798536,-0.424581,0.799743,
-0.421920,0.800630,-0.420236,0.801472,-0.419581,0.801743,-0.416581,0.802743,-0.415000,0.803000,-0.413810,0.803000,-0.411581,0.803743,-0.410000,0.804000,-0.408810,0.804000,-0.406581,0.804743,-0.405000,0.805000,0.405000,0.805000,0.406581,0.804743,0.406581,0.804743,$1*%
G04 Aperture macros list end*
%TA.AperFunction,SMDPad,CuDef*%
%ADD10RoundRect,0.031250X0.093750X-0.218750X0.093750X0.218750X-0.093750X0.218750X-0.093750X-0.218750X0*%
%TD*%
%TA.AperFunction,SMDPad,CuDef*%
%ADD11FreePoly0,90.000000*%
%TD*%
%TA.AperFunction,SMDPad,CuDef*%
%ADD12RoundRect,0.250000X-0.362500X-1.425000X0.362500X-1.425000X0.362500X1.425000X-0.362500X1.425000X0*%
%TD*%
%TA.AperFunction,SMDPad,CuDef*%
%ADD13RoundRect,0.250000X0.250000X0.475000X-0.250000X0.475000X-0.250000X-0.475000X0.250000X-0.475000X0*%
%TD*%
%TA.AperFunction,SMDPad,CuDef*%
%ADD14RoundRect,0.200000X-0.200000X-0.275000X0.200000X-0.275000X0.200000X0.275000X-0.200000X0.275000X0*%
%TD*%
%TA.AperFunction,ComponentPad*%
%ADD15RoundRect,0.250000X1.050000X1.050000X-1.050000X1.050000X-1.050000X-1.050000X1.050000X-1.050000X0*%
%TD*%
%TA.AperFunction,ComponentPad*%
%ADD16C,2.600000*%
%TD*%
%TA.AperFunction,SMDPad,CuDef*%
%ADD17RoundRect,0.200000X-0.275000X0.200000X-0.275000X-0.200000X0.275000X-0.200000X0.275000X0.200000X0*%
%TD*%
%TA.AperFunction,SMDPad,CuDef*%
%ADD18RoundRect,0.250000X-0.475000X0.250000X-0.475000X-0.250000X0.475000X-0.250000X0.475000X0.250000X0*%
%TD*%
%TA.AperFunction,SMDPad,CuDef*%
%ADD19RoundRect,0.031250X0.093750X-0.268750X0.093750X0.268750X-0.093750X0.268750X-0.093750X-0.268750X0*%
%TD*%
%TA.AperFunction,SMDPad,CuDef*%
%ADD20RoundRect,0.031250X0.268750X-0.093750X0.268750X0.093750X-0.268750X0.093750X-0.268750X-0.093750X0*%
%TD*%
%TA.AperFunction,SMDPad,CuDef*%
%ADD21RoundRect,0.087500X0.262500X-0.337500X0.262500X0.337500X-0.262500X0.337500X-0.262500X-0.337500X0*%
%TD*%
%TA.AperFunction,SMDPad,CuDef*%
%ADD22RoundRect,0.043750X0.131250X-0.681250X0.131250X0.681250X-0.131250X0.681250X-0.131250X-0.681250X0*%
%TD*%
%TA.AperFunction,SMDPad,CuDef*%
%ADD23RoundRect,0.043750X0.131250X-0.856250X0.131250X0.856250X-0.131250X0.856250X-0.131250X-0.856250X0*%
%TD*%
%TA.AperFunction,SMDPad,CuDef*%
%ADD24RoundRect,0.225000X-0.225000X-0.250000X0.225000X-0.250000X0.225000X0.250000X-0.225000X0.250000X0*%
%TD*%
%TA.AperFunction,ComponentPad*%
%ADD25RoundRect,0.250000X1.350000X1.350000X-1.350000X1.350000X-1.350000X-1.350000X1.350000X-1.350000X0*%
%TD*%
%TA.AperFunction,ComponentPad*%
%ADD26C,3.200000*%
%TD*%
%TA.AperFunction,SMDPad,CuDef*%
%ADD27RoundRect,0.225000X-0.250000X0.225000X-0.250000X-0.225000X0.250000X-0.225000X0.250000X0.225000X0*%
%TD*%
%TA.AperFunction,SMDPad,CuDef*%
%ADD28RoundRect,0.225000X0.225000X0.250000X-0.225000X0.250000X-0.225000X-0.250000X0.225000X-0.250000X0*%
%TD*%
%TA.AperFunction,SMDPad,CuDef*%
%ADD29RoundRect,0.200000X0.200000X0.275000X-0.200000X0.275000X-0.200000X-0.275000X0.200000X-0.275000X0*%
%TD*%
%TA.AperFunction,SMDPad,CuDef*%
%ADD30RoundRect,0.218750X0.218750X0.256250X-0.218750X0.256250X-0.218750X-0.256250X0.218750X-0.256250X0*%
%TD*%
%TA.AperFunction,SMDPad,CuDef*%
%ADD31RoundRect,0.125000X0.125000X-0.300000X0.125000X0.300000X-0.125000X0.300000X-0.125000X-0.300000X0*%
%TD*%
%TA.AperFunction,SMDPad,CuDef*%
%ADD32R,4.410000X4.550000*%
%TD*%
%TA.AperFunction,SMDPad,CuDef*%
%ADD33RoundRect,0.218750X-0.218750X-0.256250X0.218750X-0.256250X0.218750X0.256250X-0.218750X0.256250X0*%
%TD*%
%TA.AperFunction,SMDPad,CuDef*%
%ADD34RoundRect,0.250000X-0.250000X-0.475000X0.250000X-0.475000X0.250000X0.475000X-0.250000X0.475000X0*%
%TD*%
%TA.AperFunction,ComponentPad*%
%ADD35R,1.700000X1.700000*%
%TD*%
%TA.AperFunction,ComponentPad*%
%ADD36C,1.700000*%
%TD*%
%TA.AperFunction,SMDPad,CuDef*%
%ADD37RoundRect,0.225000X0.250000X-0.225000X0.250000X0.225000X-0.250000X0.225000X-0.250000X-0.225000X0*%
%TD*%
%TA.AperFunction,SMDPad,CuDef*%
%ADD38RoundRect,0.060000X0.180000X-0.625000X0.180000X0.625000X-0.180000X0.625000X-0.180000X-0.625000X0*%
%TD*%
%TA.AperFunction,ComponentPad*%
%ADD39RoundRect,0.575000X-0.575000X-0.575000X0.575000X-0.575000X0.575000X0.575000X-0.575000X0.575000X0*%
%TD*%
%TA.AperFunction,ComponentPad*%
%ADD40C,2.300000*%
%TD*%
%TA.AperFunction,SMDPad,CuDef*%
%ADD41RoundRect,0.075000X0.910000X0.225000X-0.910000X0.225000X-0.910000X-0.225000X0.910000X-0.225000X0*%
%TD*%
%TA.AperFunction,ViaPad*%
%ADD42C,0.685800*%
%TD*%
%TA.AperFunction,ViaPad*%
%ADD43C,0.600000*%
%TD*%
%TA.AperFunction,Conductor*%
%ADD44C,0.400000*%
%TD*%
%TA.AperFunction,Conductor*%
%ADD45C,0.200000*%
%TD*%
%TA.AperFunction,Conductor*%
%ADD46C,0.762000*%
%TD*%
%TA.AperFunction,Conductor*%
%ADD47C,0.127000*%
%TD*%
%TA.AperFunction,Conductor*%
%ADD48C,0.254000*%
%TD*%
G04 APERTURE END LIST*
D10*
%TO.P,U3,1,PGND*%
%TO.N,GND*%
X135500000Y-117635000D03*
%TO.P,U3,2,VIN*%
%TO.N,/5V*%
X136000000Y-117635000D03*
%TO.P,U3,3,EN*%
X136500000Y-117635000D03*
%TO.P,U3,4,AGND*%
%TO.N,GND*%
X137000000Y-117635000D03*
%TO.P,U3,5,FB*%
X137000000Y-115665000D03*
%TO.P,U3,6,VOS*%
%TO.N,/+3.3V*%
X136500000Y-115665000D03*
%TO.P,U3,7,SW*%
%TO.N,Net-(U3-SW)*%
X136000000Y-115665000D03*
%TO.P,U3,8,PG*%
%TO.N,/PMU_3v3_PG*%
X135500000Y-115665000D03*
D11*
%TO.P,U3,9,PAD*%
%TO.N,GND*%
X136250000Y-116650000D03*
%TD*%
D12*
%TO.P,R12,1*%
%TO.N,/VBAT_PROTECTED*%
X131207486Y-107125000D03*
%TO.P,R12,2*%
%TO.N,/MOTOR_VBAT*%
X137132486Y-107125000D03*
%TD*%
D13*
%TO.P,C9,1*%
%TO.N,/5V*%
X136895000Y-120170000D03*
%TO.P,C9,2*%
%TO.N,GND*%
X134995000Y-120170000D03*
%TD*%
D14*
%TO.P,R6,1*%
%TO.N,/FB*%
X128235000Y-120410000D03*
%TO.P,R6,2*%
%TO.N,GND*%
X129885000Y-120410000D03*
%TD*%
D15*
%TO.P,J1,1,Pin_1*%
%TO.N,GND*%
X109210000Y-88960000D03*
D16*
%TO.P,J1,2,Pin_2*%
%TO.N,Net-(J1-Pin_2)*%
X104130000Y-88960000D03*
%TD*%
D17*
%TO.P,R10,1*%
%TO.N,/5V*%
X144400000Y-97650000D03*
%TO.P,R10,2*%
%TO.N,/5V_ADC*%
X144400000Y-99300000D03*
%TD*%
%TO.P,R11,1*%
%TO.N,/5V_ADC*%
X144375000Y-101150000D03*
%TO.P,R11,2*%
%TO.N,GND*%
X144375000Y-102800000D03*
%TD*%
D18*
%TO.P,C7,1*%
%TO.N,/5V*%
X129365000Y-113850000D03*
%TO.P,C7,2*%
%TO.N,GND*%
X129365000Y-115750000D03*
%TD*%
D19*
%TO.P,U2,1,PS/SYNC*%
%TO.N,Net-(U2-EN)*%
X123995000Y-115667500D03*
%TO.P,U2,2,PG*%
%TO.N,/PMU_5V_PG*%
X124495000Y-115667500D03*
%TO.P,U2,3,VAUX*%
%TO.N,Net-(U2-VAUX)*%
X124995000Y-115667500D03*
%TO.P,U2,4,GND*%
%TO.N,GND*%
X125495000Y-115667500D03*
D20*
%TO.P,U2,5,FB*%
%TO.N,/FB*%
X126145000Y-115242500D03*
%TO.P,U2,6,FB2*%
%TO.N,GND*%
X126145000Y-114742500D03*
D21*
%TO.P,U2,7_8,VOUT*%
%TO.N,/5V*%
X126145000Y-113992500D03*
D22*
%TO.P,U2,9,L2*%
%TO.N,Net-(U2-L2)*%
X125245000Y-113742500D03*
D23*
%TO.P,U2,10,PGND*%
%TO.N,GND*%
X124745000Y-113917500D03*
D22*
%TO.P,U2,11,L1*%
%TO.N,Net-(U2-L1)*%
X124245000Y-113742500D03*
D21*
%TO.P,U2,12_13,VIN*%
%TO.N,/VBAT_PROTECTED*%
X123345000Y-113992500D03*
D20*
%TO.P,U2,14,EN*%
%TO.N,Net-(U2-EN)*%
X123345000Y-114742500D03*
%TO.P,U2,15,VSEL*%
%TO.N,GND*%
X123345000Y-115242500D03*
%TD*%
D17*
%TO.P,R8,1*%
%TO.N,/VBAT_PROTECTED*%
X140650000Y-101275000D03*
%TO.P,R8,2*%
%TO.N,/VBAT_ADC*%
X140650000Y-102925000D03*
%TD*%
D24*
%TO.P,C5,1*%
%TO.N,/VBAT_PROTECTED*%
X123380000Y-111600000D03*
%TO.P,C5,2*%
%TO.N,GND*%
X124930000Y-111600000D03*
%TD*%
D17*
%TO.P,R9,1*%
%TO.N,/VBAT_ADC*%
X140675000Y-104900000D03*
%TO.P,R9,2*%
%TO.N,GND*%
X140675000Y-106550000D03*
%TD*%
D14*
%TO.P,R4,1*%
%TO.N,/VBAT_PROTECTED*%
X120280000Y-118100000D03*
%TO.P,R4,2*%
%TO.N,Net-(U2-EN)*%
X121930000Y-118100000D03*
%TD*%
D18*
%TO.P,C3,1*%
%TO.N,/VBAT_PROTECTED*%
X119355000Y-113840000D03*
%TO.P,C3,2*%
%TO.N,GND*%
X119355000Y-115740000D03*
%TD*%
D17*
%TO.P,R2,1*%
%TO.N,Net-(U1-OV)*%
X115280000Y-113875000D03*
%TO.P,R2,2*%
%TO.N,GND*%
X115280000Y-115525000D03*
%TD*%
D15*
%TO.P,J3,1,Pin_1*%
%TO.N,GND*%
X147920000Y-89050000D03*
D16*
%TO.P,J3,2,Pin_2*%
%TO.N,/MOTOR_VBAT*%
X142840000Y-89050000D03*
%TO.P,J3,3,Pin_3*%
%TO.N,/+3.3V*%
X137760000Y-89050000D03*
%TO.P,J3,4,Pin_4*%
%TO.N,/5V*%
X132680000Y-89050000D03*
%TD*%
D18*
%TO.P,C10,1*%
%TO.N,/+3.3V*%
X139415000Y-115860000D03*
%TO.P,C10,2*%
%TO.N,GND*%
X139415000Y-117760000D03*
%TD*%
D25*
%TO.P,D1,1,A1*%
%TO.N,GND*%
X127270000Y-88720000D03*
D26*
%TO.P,D1,2,A2*%
%TO.N,/PROTECTION_INPUT*%
X114570000Y-88720000D03*
%TD*%
D27*
%TO.P,C12,1*%
%TO.N,/5V_ADC*%
X144340000Y-108655000D03*
%TO.P,C12,2*%
%TO.N,GND*%
X144340000Y-110205000D03*
%TD*%
D17*
%TO.P,R1,1*%
%TO.N,/PROTECTION_INPUT*%
X115300000Y-110195000D03*
%TO.P,R1,2*%
%TO.N,Net-(U1-OV)*%
X115300000Y-111845000D03*
%TD*%
D24*
%TO.P,C6,1*%
%TO.N,Net-(U2-VAUX)*%
X124365000Y-117910000D03*
%TO.P,C6,2*%
%TO.N,GND*%
X125915000Y-117910000D03*
%TD*%
D28*
%TO.P,C2,1*%
%TO.N,Net-(U1-VCAP)*%
X112105000Y-117520000D03*
%TO.P,C2,2*%
%TO.N,/PROTECTION_INPUT*%
X110555000Y-117520000D03*
%TD*%
D29*
%TO.P,R7,1*%
%TO.N,/+3.3V*%
X137265000Y-111630000D03*
%TO.P,R7,2*%
%TO.N,/PMU_3v3_PG*%
X135615000Y-111630000D03*
%TD*%
D30*
%TO.P,L1,1,1*%
%TO.N,Net-(U2-L2)*%
X128440000Y-111630000D03*
%TO.P,L1,2,2*%
%TO.N,Net-(U2-L1)*%
X126865000Y-111630000D03*
%TD*%
D31*
%TO.P,Q2,1,S*%
%TO.N,Net-(U1-SRC)*%
X102315000Y-117580000D03*
%TO.P,Q2,2,S*%
X103585000Y-117580000D03*
%TO.P,Q2,3,S*%
X104855000Y-117580000D03*
%TO.P,Q2,4,G*%
%TO.N,Net-(Q1-G)*%
X106125000Y-117580000D03*
D32*
%TO.P,Q2,5,D*%
%TO.N,/VBAT_PROTECTED*%
X104220000Y-113630000D03*
%TD*%
D27*
%TO.P,C15,1*%
%TO.N,/+3.3V*%
X128025000Y-102300000D03*
%TO.P,C15,2*%
%TO.N,GND*%
X128025000Y-103850000D03*
%TD*%
D28*
%TO.P,C4,1*%
%TO.N,GND*%
X112145000Y-120470000D03*
%TO.P,C4,2*%
%TO.N,/VBAT_PROTECTED*%
X110595000Y-120470000D03*
%TD*%
D33*
%TO.P,L2,1,1*%
%TO.N,Net-(U3-SW)*%
X135655000Y-113840000D03*
%TO.P,L2,2,2*%
%TO.N,/+3.3V*%
X137230000Y-113840000D03*
%TD*%
D17*
%TO.P,R13,1*%
%TO.N,Net-(U4-OUT)*%
X128055000Y-98940000D03*
%TO.P,R13,2*%
%TO.N,/CURRENT_ADC*%
X128055000Y-100590000D03*
%TD*%
D34*
%TO.P,C8,1*%
%TO.N,GND*%
X120385000Y-120310000D03*
%TO.P,C8,2*%
%TO.N,/5V*%
X122285000Y-120310000D03*
%TD*%
D27*
%TO.P,C14,1*%
%TO.N,/CURRENT_ADC*%
X140625000Y-97750000D03*
%TO.P,C14,2*%
%TO.N,GND*%
X140625000Y-99300000D03*
%TD*%
%TO.P,C11,1*%
%TO.N,/VBAT_ADC*%
X144370000Y-104925000D03*
%TO.P,C11,2*%
%TO.N,GND*%
X144370000Y-106475000D03*
%TD*%
D28*
%TO.P,C1,1*%
%TO.N,/PROTECTION_INPUT*%
X112355000Y-110280000D03*
%TO.P,C1,2*%
%TO.N,GND*%
X110805000Y-110280000D03*
%TD*%
D35*
%TO.P,J2,1,Pin_1*%
%TO.N,/VBAT_ADC*%
X149150000Y-101650000D03*
D36*
%TO.P,J2,2,Pin_2*%
%TO.N,/5V_ADC*%
X149150000Y-104190000D03*
%TO.P,J2,3,Pin_3*%
%TO.N,/+3.3V*%
X149150000Y-106730000D03*
%TO.P,J2,4,Pin_4*%
%TO.N,/CURRENT_ADC*%
X149150000Y-109270000D03*
%TO.P,J2,5,Pin_5*%
%TO.N,/PMU_5V_PG*%
X149150000Y-111810000D03*
%TO.P,J2,6,Pin_6*%
%TO.N,/PMU_3v3_PG*%
X149150000Y-114350000D03*
%TD*%
D31*
%TO.P,Q1,1,S*%
%TO.N,Net-(U1-SRC)*%
X102370000Y-110025000D03*
%TO.P,Q1,2,S*%
X103640000Y-110025000D03*
%TO.P,Q1,3,S*%
X104910000Y-110025000D03*
%TO.P,Q1,4,G*%
%TO.N,Net-(Q1-G)*%
X106180000Y-110025000D03*
D32*
%TO.P,Q1,5,D*%
%TO.N,/PROTECTION_INPUT*%
X104275000Y-106075000D03*
%TD*%
D37*
%TO.P,C13,1*%
%TO.N,/+3.3V*%
X140730000Y-110275000D03*
%TO.P,C13,2*%
%TO.N,GND*%
X140730000Y-108725000D03*
%TD*%
D14*
%TO.P,R5,1*%
%TO.N,/PMU_5V_PG*%
X124250000Y-120725000D03*
%TO.P,R5,2*%
%TO.N,/5V*%
X125900000Y-120725000D03*
%TD*%
D38*
%TO.P,U1,1,EN*%
%TO.N,/PROTECTION_INPUT*%
X110490000Y-114910000D03*
%TO.P,U1,2,GND*%
%TO.N,GND*%
X111140000Y-114910000D03*
%TO.P,U1,3*%
%TO.N,N/C*%
X111790000Y-114910000D03*
%TO.P,U1,4,VCAP*%
%TO.N,Net-(U1-VCAP)*%
X112440000Y-114910000D03*
%TO.P,U1,5,VS*%
%TO.N,/PROTECTION_INPUT*%
X112440000Y-112610000D03*
%TO.P,U1,6,GATE*%
%TO.N,Net-(Q1-G)*%
X111790000Y-112610000D03*
%TO.P,U1,7,OV*%
%TO.N,Net-(U1-OV)*%
X111140000Y-112610000D03*
%TO.P,U1,8,SRC*%
%TO.N,Net-(U1-SRC)*%
X110490000Y-112610000D03*
%TD*%
D29*
%TO.P,R3,1*%
%TO.N,/5V*%
X129850000Y-118100000D03*
%TO.P,R3,2*%
%TO.N,/FB*%
X128200000Y-118100000D03*
%TD*%
D39*
%TO.P,F1,1*%
%TO.N,Net-(J1-Pin_2)*%
X102900000Y-100025000D03*
X107500000Y-100025000D03*
D40*
%TO.P,F1,2*%
%TO.N,/PROTECTION_INPUT*%
X118800000Y-100025000D03*
X123400000Y-100025000D03*
%TD*%
D41*
%TO.P,U4,1,IN-*%
%TO.N,/MOTOR_VBAT*%
X136920000Y-103505000D03*
%TO.P,U4,2,GND*%
%TO.N,GND*%
X136920000Y-102235000D03*
%TO.P,U4,3,REF2*%
X136920000Y-100965000D03*
%TO.P,U4,4*%
%TO.N,N/C*%
X136920000Y-99695000D03*
%TO.P,U4,5,OUT*%
%TO.N,Net-(U4-OUT)*%
X131980000Y-99695000D03*
%TO.P,U4,6,VS*%
%TO.N,/+3.3V*%
X131980000Y-100965000D03*
%TO.P,U4,7,REF1*%
%TO.N,GND*%
X131980000Y-102235000D03*
%TO.P,U4,8,IN+*%
%TO.N,/VBAT_PROTECTED*%
X131980000Y-103505000D03*
%TD*%
D42*
%TO.N,GND*%
X137975000Y-115725000D03*
%TO.N,/5V*%
X143600000Y-96675000D03*
%TO.N,GND*%
X127175000Y-114775000D03*
X122400000Y-115625000D03*
X111425000Y-116225000D03*
X115280000Y-115525000D03*
X119355000Y-115740000D03*
X124930000Y-111600000D03*
X129365000Y-115750000D03*
%TO.N,/5V*%
X136033400Y-118450000D03*
X131100000Y-117625000D03*
%TO.N,GND*%
X139415000Y-117760000D03*
%TO.N,/5V*%
X126900000Y-120425000D03*
X129175000Y-119325000D03*
%TO.N,GND*%
X128025000Y-103850000D03*
X131980000Y-102235000D03*
X136920000Y-102235000D03*
X136920000Y-100965000D03*
X140625000Y-99300000D03*
X144375000Y-102800000D03*
X144350000Y-109625000D03*
X144370000Y-106475000D03*
X140675000Y-106550000D03*
X140730000Y-108725000D03*
X134995000Y-120170000D03*
X129885000Y-120410000D03*
X120385000Y-120310000D03*
X112145000Y-120470000D03*
X109950000Y-109300000D03*
D43*
%TO.N,/VBAT_PROTECTED*%
X110825000Y-119225000D03*
X119175000Y-118050000D03*
%TO.N,Net-(U1-OV)*%
X114450000Y-111550000D03*
X111026644Y-111448356D03*
%TO.N,/PMU_5V_PG*%
X124395000Y-116725000D03*
%TO.N,/+3.3V*%
X130425000Y-101750000D03*
X137250000Y-110500000D03*
%TO.N,/5V*%
X130650000Y-112175000D03*
%TO.N,/PMU_3v3_PG*%
X135850000Y-112650000D03*
%TO.N,/PMU_5V_PG*%
X125200000Y-119375000D03*
%TO.N,/CURRENT_ADC*%
X141750000Y-98325000D03*
X142775000Y-109475000D03*
X142725000Y-111075000D03*
%TO.N,/+3.3V*%
X141975000Y-110275000D03*
%TO.N,/5V_ADC*%
X145350000Y-107925000D03*
%TO.N,/VBAT_ADC*%
X145400000Y-104600000D03*
%TO.N,/MOTOR_VBAT*%
X142350000Y-94975000D03*
%TO.N,/+3.3V*%
X134812500Y-95762500D03*
X136125000Y-94450000D03*
X137750000Y-92775000D03*
%TO.N,/VBAT_PROTECTED*%
X133025000Y-104725000D03*
X139400000Y-104025000D03*
%TO.N,/CURRENT_ADC*%
X129225000Y-100600000D03*
X138700000Y-97950000D03*
%TO.N,Net-(Q1-G)*%
X107325000Y-120050000D03*
X108550000Y-116475000D03*
X111740000Y-111275000D03*
X108475000Y-112575000D03*
%TD*%
D44*
%TO.N,/VBAT_PROTECTED*%
X104805000Y-114775000D02*
X104850000Y-114775000D01*
X104850000Y-114775000D02*
X110545000Y-120470000D01*
X110545000Y-120470000D02*
X110595000Y-120470000D01*
%TO.N,Net-(Q1-G)*%
X107325000Y-120050000D02*
X107325000Y-120275000D01*
X106000000Y-117705000D02*
X106125000Y-117580000D01*
X107325000Y-120275000D02*
X106800000Y-120800000D01*
X106800000Y-120800000D02*
X106025000Y-120800000D01*
X106000000Y-120825000D02*
X106000000Y-117705000D01*
X106025000Y-120800000D02*
X106000000Y-120825000D01*
D45*
%TO.N,Net-(U1-SRC)*%
X102373000Y-117277000D02*
X102676000Y-117580000D01*
X102676000Y-117580000D02*
X103585000Y-117580000D01*
X104855000Y-117580000D02*
X103585000Y-117580000D01*
X102373000Y-117277000D02*
X102373000Y-117273000D01*
X102373000Y-117273000D02*
X101788000Y-116688000D01*
X101788000Y-116688000D02*
X101788000Y-111128000D01*
X101788000Y-111128000D02*
X103720000Y-111128000D01*
X103720000Y-111128000D02*
X103720000Y-110105000D01*
X103720000Y-110105000D02*
X103640000Y-110025000D01*
D44*
%TO.N,Net-(Q1-G)*%
X108475000Y-112575000D02*
X106150000Y-110250000D01*
X106150000Y-110250000D02*
X106150000Y-110055000D01*
X106150000Y-110055000D02*
X106180000Y-110025000D01*
%TO.N,Net-(U1-SRC)*%
X109900000Y-111300000D02*
X110490000Y-111890000D01*
X110490000Y-111890000D02*
X110490000Y-111979451D01*
D45*
%TO.N,Net-(U1-OV)*%
X111026644Y-111448356D02*
X111026644Y-111629383D01*
X111026644Y-111629383D02*
X111140000Y-111742739D01*
X111140000Y-111742739D02*
X111140000Y-112610000D01*
D44*
%TO.N,Net-(U1-SRC)*%
X109900000Y-111300000D02*
X108175000Y-109575000D01*
X108175000Y-109575000D02*
X108175000Y-108902000D01*
X108175000Y-108902000D02*
X106033000Y-108902000D01*
X106033000Y-108902000D02*
X104910000Y-110025000D01*
X103640000Y-110025000D02*
X103865000Y-110250000D01*
X103865000Y-110250000D02*
X104685000Y-110250000D01*
X104685000Y-110250000D02*
X104910000Y-110025000D01*
D46*
%TO.N,/PROTECTION_INPUT*%
X104275000Y-106075000D02*
X104325000Y-106075000D01*
X104325000Y-106075000D02*
X105100000Y-106850000D01*
X105100000Y-106850000D02*
X108925000Y-106850000D01*
X108925000Y-106850000D02*
X112355000Y-110280000D01*
%TO.N,Net-(J1-Pin_2)*%
X102900000Y-100025000D02*
X107500000Y-100025000D01*
X104130000Y-88960000D02*
X102225000Y-90865000D01*
X102225000Y-90865000D02*
X102225000Y-99350000D01*
X102225000Y-99350000D02*
X102900000Y-100025000D01*
D44*
%TO.N,Net-(Q1-G)*%
X109150000Y-115050000D02*
X108475000Y-114375000D01*
X108550000Y-116475000D02*
X109150000Y-115875000D01*
X108475000Y-114375000D02*
X108475000Y-112575000D01*
X109150000Y-115875000D02*
X109150000Y-115050000D01*
D45*
%TO.N,Net-(U1-SRC)*%
X102377000Y-117277000D02*
X102373000Y-117277000D01*
D44*
X103640000Y-110025000D02*
X102370000Y-110025000D01*
D47*
%TO.N,GND*%
X137000000Y-115665000D02*
X137915000Y-115665000D01*
X137915000Y-115665000D02*
X137975000Y-115725000D01*
X137000000Y-117635000D02*
X137125000Y-117760000D01*
X137125000Y-117760000D02*
X139415000Y-117760000D01*
D44*
%TO.N,/5V*%
X122285000Y-120310000D02*
X122285000Y-121055000D01*
X122285000Y-121055000D02*
X123555000Y-122325000D01*
X123555000Y-122325000D02*
X125525000Y-122325000D01*
X125525000Y-122325000D02*
X125915000Y-121935000D01*
X125915000Y-121935000D02*
X125915000Y-120480000D01*
%TO.N,/VBAT_PROTECTED*%
X119355000Y-113840000D02*
X118303000Y-114892000D01*
X118303000Y-114892000D02*
X118303000Y-117178000D01*
X118303000Y-117178000D02*
X119175000Y-118050000D01*
D45*
%TO.N,/5V*%
X144400000Y-97475000D02*
X143600000Y-96675000D01*
X144400000Y-97650000D02*
X144400000Y-97475000D01*
D48*
%TO.N,GND*%
X126145000Y-114742500D02*
X127142500Y-114742500D01*
X127142500Y-114742500D02*
X127175000Y-114775000D01*
X123345000Y-115242500D02*
X122782500Y-115242500D01*
X122782500Y-115242500D02*
X122400000Y-115625000D01*
X125495000Y-115667500D02*
X125495000Y-117490000D01*
X125495000Y-117490000D02*
X125915000Y-117910000D01*
X125010204Y-114742500D02*
X125495000Y-115227296D01*
X125495000Y-115227296D02*
X125495000Y-115667500D01*
X124745000Y-113917500D02*
X124745000Y-114477296D01*
X124745000Y-114477296D02*
X125010204Y-114742500D01*
X125010204Y-114742500D02*
X126145000Y-114742500D01*
X111140000Y-114910000D02*
X111140000Y-115940000D01*
X111140000Y-115940000D02*
X111425000Y-116225000D01*
X110805000Y-110280000D02*
X110805000Y-110155000D01*
X110805000Y-110155000D02*
X109950000Y-109300000D01*
D44*
%TO.N,/VBAT_PROTECTED*%
X123380000Y-111600000D02*
X123380000Y-113957500D01*
X123380000Y-113957500D02*
X123345000Y-113992500D01*
D45*
%TO.N,/5V*%
X136033400Y-118450000D02*
X136033400Y-117668400D01*
X136033400Y-117668400D02*
X136000000Y-117635000D01*
X131035000Y-117560000D02*
X131100000Y-117625000D01*
X130390000Y-117560000D02*
X131035000Y-117560000D01*
D47*
%TO.N,GND*%
X135500000Y-117635000D02*
X135500000Y-119665000D01*
X135500000Y-119665000D02*
X134995000Y-120170000D01*
D45*
%TO.N,/5V*%
X125970000Y-120425000D02*
X125915000Y-120480000D01*
X126900000Y-120425000D02*
X125970000Y-120425000D01*
X129850000Y-118650000D02*
X129175000Y-119325000D01*
X129850000Y-118100000D02*
X129850000Y-118650000D01*
D47*
%TO.N,GND*%
X136250000Y-116650000D02*
X136250000Y-116758032D01*
X136250000Y-116758032D02*
X135500000Y-117508032D01*
X135500000Y-117508032D02*
X135500000Y-117635000D01*
X136250000Y-116758032D02*
X137000000Y-117508032D01*
X137000000Y-117508032D02*
X137000000Y-117635000D01*
X137000000Y-115665000D02*
X137000000Y-115865223D01*
X137000000Y-115865223D02*
X136250000Y-116615223D01*
X136250000Y-116615223D02*
X136250000Y-116650000D01*
D46*
%TO.N,/PROTECTION_INPUT*%
X123800000Y-100860000D02*
X119200000Y-100860000D01*
X114570000Y-88720000D02*
X119200000Y-93350000D01*
X119200000Y-93350000D02*
X119200000Y-100860000D01*
D45*
%TO.N,/5V*%
X129365000Y-113850000D02*
X130390000Y-114875000D01*
X130390000Y-114875000D02*
X130390000Y-117560000D01*
X130390000Y-117560000D02*
X129850000Y-118100000D01*
%TO.N,/FB*%
X128235000Y-120410000D02*
X128235000Y-118135000D01*
X128235000Y-118135000D02*
X128200000Y-118100000D01*
%TO.N,Net-(U1-VCAP)*%
X112105000Y-117520000D02*
X112440000Y-117185000D01*
X112440000Y-117185000D02*
X112440000Y-114910000D01*
%TO.N,/VBAT_PROTECTED*%
X110825000Y-120240000D02*
X110595000Y-120470000D01*
X110825000Y-119225000D02*
X110825000Y-120240000D01*
X119225000Y-118100000D02*
X119175000Y-118050000D01*
X120280000Y-118100000D02*
X119225000Y-118100000D01*
%TO.N,Net-(U1-OV)*%
X114450000Y-111550000D02*
X115005000Y-111550000D01*
X115005000Y-111550000D02*
X115300000Y-111845000D01*
D44*
%TO.N,Net-(Q1-G)*%
X111740000Y-111275000D02*
X111740000Y-111752800D01*
X111740000Y-111752800D02*
X111780000Y-111792800D01*
X111780000Y-111792800D02*
X111780000Y-112620000D01*
X111780000Y-112620000D02*
X111790000Y-112610000D01*
D45*
%TO.N,Net-(U1-OV)*%
X115300000Y-111845000D02*
X115300000Y-113855000D01*
X115300000Y-113855000D02*
X115280000Y-113875000D01*
%TO.N,Net-(U2-EN)*%
X123995000Y-115667500D02*
X123995000Y-115060676D01*
X123995000Y-115060676D02*
X123676824Y-114742500D01*
X123676824Y-114742500D02*
X123345000Y-114742500D01*
X123995000Y-115667500D02*
X123995000Y-116035000D01*
X123995000Y-116035000D02*
X121930000Y-118100000D01*
%TO.N,/PMU_5V_PG*%
X124495000Y-116625000D02*
X124395000Y-116725000D01*
X124495000Y-115667500D02*
X124495000Y-116625000D01*
%TO.N,Net-(U2-VAUX)*%
X124995000Y-115667500D02*
X124995000Y-117280000D01*
X124995000Y-117280000D02*
X124365000Y-117910000D01*
%TO.N,/FB*%
X126145000Y-115242500D02*
X128200000Y-117297500D01*
X128200000Y-117297500D02*
X128200000Y-118100000D01*
%TO.N,Net-(U2-L2)*%
X125245000Y-113742500D02*
X125937500Y-113050000D01*
X125937500Y-113050000D02*
X127950000Y-113050000D01*
X127950000Y-113050000D02*
X128440000Y-112560000D01*
X128440000Y-112560000D02*
X128440000Y-111630000D01*
%TO.N,Net-(U2-L1)*%
X124245000Y-113742500D02*
X124245000Y-112942650D01*
X124245000Y-112942650D02*
X124712650Y-112475000D01*
X124712650Y-112475000D02*
X126020000Y-112475000D01*
X126020000Y-112475000D02*
X126865000Y-111630000D01*
%TO.N,/5V*%
X129365000Y-113850000D02*
X126287500Y-113850000D01*
X126287500Y-113850000D02*
X126145000Y-113992500D01*
%TO.N,/+3.3V*%
X136465000Y-114605000D02*
X138160000Y-114605000D01*
X138160000Y-114605000D02*
X139415000Y-115860000D01*
X137230000Y-113840000D02*
X137230000Y-111665000D01*
X137230000Y-111665000D02*
X137265000Y-111630000D01*
X136465000Y-115635000D02*
X136465000Y-114605000D01*
X136465000Y-114605000D02*
X137230000Y-113840000D01*
%TO.N,Net-(U3-SW)*%
X135965000Y-115635000D02*
X135965000Y-114150000D01*
X135965000Y-114150000D02*
X135655000Y-113840000D01*
%TO.N,/PMU_3v3_PG*%
X134425000Y-114595000D02*
X134425000Y-113600000D01*
X135465000Y-115635000D02*
X134425000Y-114595000D01*
X134425000Y-113600000D02*
X135375000Y-112650000D01*
X135375000Y-112650000D02*
X135850000Y-112650000D01*
%TO.N,/+3.3V*%
X133850000Y-96725000D02*
X133850000Y-99492410D01*
X134812500Y-95762500D02*
X133850000Y-96725000D01*
X133850000Y-99492410D02*
X132377410Y-100965000D01*
X132377410Y-100965000D02*
X131980000Y-100965000D01*
X137750000Y-92775000D02*
X136125000Y-94400000D01*
X136125000Y-94400000D02*
X136125000Y-94450000D01*
X129835000Y-100965000D02*
X130650000Y-100965000D01*
X130425000Y-101190000D02*
X130650000Y-100965000D01*
X130425000Y-101750000D02*
X130425000Y-101190000D01*
X137265000Y-110515000D02*
X137250000Y-110500000D01*
X137265000Y-111630000D02*
X137265000Y-110515000D01*
X140730000Y-110275000D02*
X138620000Y-110275000D01*
X138620000Y-110275000D02*
X137265000Y-111630000D01*
%TO.N,/5V_ADC*%
X144375000Y-101150000D02*
X146110000Y-101150000D01*
X146110000Y-101150000D02*
X149150000Y-104190000D01*
%TO.N,/VBAT_ADC*%
X140675000Y-104900000D02*
X144345000Y-104900000D01*
X144345000Y-104900000D02*
X144370000Y-104925000D01*
%TO.N,/5V_ADC*%
X144400000Y-99300000D02*
X144400000Y-101125000D01*
X144400000Y-101125000D02*
X144375000Y-101150000D01*
%TO.N,/5V*%
X130650000Y-112565000D02*
X130650000Y-112175000D01*
X129365000Y-113850000D02*
X130650000Y-112565000D01*
D44*
%TO.N,/VBAT_PROTECTED*%
X126925000Y-107125000D02*
X131207486Y-107125000D01*
D45*
%TO.N,/PMU_3v3_PG*%
X135850000Y-112650000D02*
X135850000Y-111865000D01*
X135850000Y-111865000D02*
X135615000Y-111630000D01*
%TO.N,/PMU_5V_PG*%
X125200000Y-119375000D02*
X125200000Y-119545000D01*
X125200000Y-119545000D02*
X124265000Y-120480000D01*
%TO.N,/CURRENT_ADC*%
X141750000Y-98325000D02*
X141200000Y-98325000D01*
X141200000Y-98325000D02*
X140625000Y-97750000D01*
X142725000Y-111075000D02*
X142725000Y-109525000D01*
X142725000Y-109525000D02*
X142775000Y-109475000D01*
%TO.N,/+3.3V*%
X141975000Y-110275000D02*
X140730000Y-110275000D01*
%TO.N,/5V_ADC*%
X145350000Y-107925000D02*
X145070000Y-107925000D01*
X145070000Y-107925000D02*
X144340000Y-108655000D01*
%TO.N,/VBAT_ADC*%
X144695000Y-104600000D02*
X144370000Y-104925000D01*
X145400000Y-104600000D02*
X144695000Y-104600000D01*
%TO.N,/MOTOR_VBAT*%
X142350000Y-94975000D02*
X142350000Y-99325000D01*
X138145000Y-103505000D02*
X136920000Y-103505000D01*
X138205000Y-103445000D02*
X138145000Y-103505000D01*
X142350000Y-99325000D02*
X141100000Y-100575000D01*
X141100000Y-100575000D02*
X140162352Y-100575000D01*
X140162352Y-100575000D02*
X138205000Y-102532352D01*
X138205000Y-102532352D02*
X138205000Y-103445000D01*
%TO.N,/VBAT_PROTECTED*%
X133025000Y-104725000D02*
X133025000Y-104550000D01*
X133025000Y-104550000D02*
X131980000Y-103505000D01*
X139400000Y-102525000D02*
X139400000Y-104025000D01*
X140650000Y-101275000D02*
X139400000Y-102525000D01*
%TO.N,/VBAT_ADC*%
X140650000Y-102925000D02*
X140650000Y-104875000D01*
X140650000Y-104875000D02*
X140675000Y-104900000D01*
D44*
%TO.N,/MOTOR_VBAT*%
X137132486Y-107125000D02*
X137132486Y-103717486D01*
X137132486Y-103717486D02*
X136920000Y-103505000D01*
%TO.N,/VBAT_PROTECTED*%
X131207486Y-107125000D02*
X131207486Y-104277514D01*
X131207486Y-104277514D02*
X131980000Y-103505000D01*
D45*
%TO.N,/+3.3V*%
X128025000Y-102300000D02*
X128500000Y-102300000D01*
X128500000Y-102300000D02*
X129835000Y-100965000D01*
X130650000Y-100965000D02*
X131980000Y-100965000D01*
%TO.N,/CURRENT_ADC*%
X138900000Y-97750000D02*
X140625000Y-97750000D01*
X129215000Y-100590000D02*
X129225000Y-100600000D01*
X128055000Y-100590000D02*
X129215000Y-100590000D01*
X138700000Y-97950000D02*
X138900000Y-97750000D01*
%TO.N,Net-(U4-OUT)*%
X131980000Y-99695000D02*
X128810000Y-99695000D01*
X128810000Y-99695000D02*
X128055000Y-98940000D01*
D44*
%TO.N,/PROTECTION_INPUT*%
X115300000Y-110195000D02*
X115300000Y-104760000D01*
X115300000Y-104760000D02*
X119200000Y-100860000D01*
X112355000Y-110280000D02*
X115215000Y-110280000D01*
X115215000Y-110280000D02*
X115300000Y-110195000D01*
%TO.N,/5V*%
X136895000Y-120170000D02*
X136440000Y-119715000D01*
X136440000Y-119715000D02*
X136440000Y-117605000D01*
%TO.N,/VBAT_PROTECTED*%
X123380000Y-111600000D02*
X123380000Y-110670000D01*
X123380000Y-110670000D02*
X126925000Y-107125000D01*
X119355000Y-113840000D02*
X123192500Y-113840000D01*
X123192500Y-113840000D02*
X123345000Y-113992500D01*
%TO.N,/PROTECTION_INPUT*%
X110500000Y-117465000D02*
X110500000Y-114800000D01*
X110555000Y-117520000D02*
X110500000Y-117465000D01*
X110500000Y-114800000D02*
X110490000Y-114810000D01*
X110490000Y-114810000D02*
X110490000Y-114910000D01*
X110490000Y-114910000D02*
X110490000Y-114102800D01*
X110490000Y-114102800D02*
X110897800Y-113695000D01*
X110897800Y-113695000D02*
X112162200Y-113695000D01*
X112162200Y-113695000D02*
X112440000Y-113417200D01*
X112440000Y-113417200D02*
X112440000Y-112610000D01*
X112440000Y-112610000D02*
X112440000Y-110365000D01*
X112440000Y-110365000D02*
X112355000Y-110280000D01*
%TD*%
M02*
