%TF.GenerationSoftware,KiCad,Pcbnew,9.0.8+dfsg-1*%
%TF.CreationDate,2026-09-14T23:54:27+05:30*%
%TF.ProjectId,12S_UAV_UGV_PMU,3132535f-5541-4565-9f55-47565f504d55,rev?*%
%TF.SameCoordinates,Original*%
%TF.FileFunction,Copper,L4,Bot*%
%TF.FilePolarity,Positive*%
%FSLAX46Y46*%
G04 Gerber Fmt 4.6, Leading zero omitted, Abs format (unit mm)*
G04 Created by KiCad (PCBNEW 9.0.8+dfsg-1) date 2026-09-14 23:54:27*
%MOMM*%
%LPD*%
G01*
G04 APERTURE LIST*
G04 Aperture macros list*
%AMRoundRect*
0 Rectangle with rounded corners*
0 $1 Rounding radius*
0 $2 $3 $4 $5 $6 $7 $8 $9 X,Y pos of 4 corners*
0 Add a 4 corners polygon primitive as box body*
4,1,4,$2,$3,$4,$5,$6,$7,$8,$9,$2,$3,0*
0 Add four circle primitives for the rounded corners*
1,1,$1+$1,$2,$3*
1,1,$1+$1,$4,$5*
1,1,$1+$1,$6,$7*
1,1,$1+$1,$8,$9*
0 Add four rect primitives between the rounded corners*
20,1,$1+$1,$2,$3,$4,$5,0*
20,1,$1+$1,$4,$5,$6,$7,0*
20,1,$1+$1,$6,$7,$8,$9,0*
20,1,$1+$1,$8,$9,$2,$3,0*%
G04 Aperture macros list end*
%TA.AperFunction,ComponentPad*%
%ADD10RoundRect,0.250000X1.050000X1.050000X-1.050000X1.050000X-1.050000X-1.050000X1.050000X-1.050000X0*%
%TD*%
%TA.AperFunction,ComponentPad*%
%ADD11C,2.600000*%
%TD*%
%TA.AperFunction,ComponentPad*%
%ADD12RoundRect,0.250000X1.350000X1.350000X-1.350000X1.350000X-1.350000X-1.350000X1.350000X-1.350000X0*%
%TD*%
%TA.AperFunction,ComponentPad*%
%ADD13C,3.200000*%
%TD*%
%TA.AperFunction,ComponentPad*%
%ADD14R,1.700000X1.700000*%
%TD*%
%TA.AperFunction,ComponentPad*%
%ADD15C,1.700000*%
%TD*%
%TA.AperFunction,ComponentPad*%
%ADD16RoundRect,0.575000X-0.575000X-0.575000X0.575000X-0.575000X0.575000X0.575000X-0.575000X0.575000X0*%
%TD*%
%TA.AperFunction,ComponentPad*%
%ADD17C,2.300000*%
%TD*%
%TA.AperFunction,ViaPad*%
%ADD18C,0.685800*%
%TD*%
%TA.AperFunction,ViaPad*%
%ADD19C,0.600000*%
%TD*%
%TA.AperFunction,Conductor*%
%ADD20C,0.400000*%
%TD*%
%TA.AperFunction,Conductor*%
%ADD21C,0.200000*%
%TD*%
G04 APERTURE END LIST*
D10*
%TO.P,J1,1,Pin_1*%
%TO.N,GND*%
X109210000Y-88960000D03*
D11*
%TO.P,J1,2,Pin_2*%
%TO.N,Net-(J1-Pin_2)*%
X104130000Y-88960000D03*
%TD*%
D10*
%TO.P,J3,1,Pin_1*%
%TO.N,GND*%
X147920000Y-89050000D03*
D11*
%TO.P,J3,2,Pin_2*%
%TO.N,/MOTOR_VBAT*%
X142840000Y-89050000D03*
%TO.P,J3,3,Pin_3*%
%TO.N,/+3.3V*%
X137760000Y-89050000D03*
%TO.P,J3,4,Pin_4*%
%TO.N,/5V*%
X132680000Y-89050000D03*
%TD*%
D12*
%TO.P,D1,1,A1*%
%TO.N,GND*%
X127270000Y-88720000D03*
D13*
%TO.P,D1,2,A2*%
%TO.N,/PROTECTION_INPUT*%
X114570000Y-88720000D03*
%TD*%
D14*
%TO.P,J2,1,Pin_1*%
%TO.N,/VBAT_ADC*%
X149150000Y-101650000D03*
D15*
%TO.P,J2,2,Pin_2*%
%TO.N,/5V_ADC*%
X149150000Y-104190000D03*
%TO.P,J2,3,Pin_3*%
%TO.N,/+3.3V*%
X149150000Y-106730000D03*
%TO.P,J2,4,Pin_4*%
%TO.N,/CURRENT_ADC*%
X149150000Y-109270000D03*
%TO.P,J2,5,Pin_5*%
%TO.N,/PMU_5V_PG*%
X149150000Y-111810000D03*
%TO.P,J2,6,Pin_6*%
%TO.N,/PMU_3v3_PG*%
X149150000Y-114350000D03*
%TD*%
D16*
%TO.P,F1,1*%
%TO.N,Net-(J1-Pin_2)*%
X102900000Y-100025000D03*
X107500000Y-100025000D03*
D17*
%TO.P,F1,2*%
%TO.N,/PROTECTION_INPUT*%
X118800000Y-100025000D03*
X123400000Y-100025000D03*
%TD*%
D18*
%TO.N,GND*%
X137975000Y-115725000D03*
%TO.N,/5V*%
X143600000Y-96675000D03*
%TO.N,GND*%
X127175000Y-114775000D03*
X122400000Y-115625000D03*
X111425000Y-116225000D03*
X115280000Y-115525000D03*
X119355000Y-115740000D03*
X124930000Y-111600000D03*
X129365000Y-115750000D03*
%TO.N,/5V*%
X136033400Y-118450000D03*
X131100000Y-117625000D03*
%TO.N,GND*%
X139415000Y-117760000D03*
%TO.N,/5V*%
X126900000Y-120425000D03*
X129175000Y-119325000D03*
%TO.N,GND*%
X128025000Y-103850000D03*
X131980000Y-102235000D03*
X136920000Y-102235000D03*
X136920000Y-100965000D03*
X140625000Y-99300000D03*
X144375000Y-102800000D03*
X144350000Y-109625000D03*
X144370000Y-106475000D03*
X140675000Y-106550000D03*
X140730000Y-108725000D03*
X134995000Y-120170000D03*
X129885000Y-120410000D03*
X120385000Y-120310000D03*
X112145000Y-120470000D03*
X109950000Y-109300000D03*
D19*
%TO.N,/VBAT_PROTECTED*%
X110825000Y-119225000D03*
X119175000Y-118050000D03*
%TO.N,Net-(U1-OV)*%
X114450000Y-111550000D03*
X111026644Y-111448356D03*
%TO.N,/PMU_5V_PG*%
X124395000Y-116725000D03*
%TO.N,/+3.3V*%
X130425000Y-101750000D03*
X137250000Y-110500000D03*
%TO.N,/5V*%
X130650000Y-112175000D03*
%TO.N,/PMU_3v3_PG*%
X135850000Y-112650000D03*
%TO.N,/PMU_5V_PG*%
X125200000Y-119375000D03*
%TO.N,/CURRENT_ADC*%
X141750000Y-98325000D03*
X142775000Y-109475000D03*
X142725000Y-111075000D03*
%TO.N,/+3.3V*%
X141975000Y-110275000D03*
%TO.N,/5V_ADC*%
X145350000Y-107925000D03*
%TO.N,/VBAT_ADC*%
X145400000Y-104600000D03*
%TO.N,/MOTOR_VBAT*%
X142350000Y-94975000D03*
%TO.N,/+3.3V*%
X134812500Y-95762500D03*
X136125000Y-94450000D03*
X137750000Y-92775000D03*
%TO.N,/VBAT_PROTECTED*%
X133025000Y-104725000D03*
X139400000Y-104025000D03*
%TO.N,/CURRENT_ADC*%
X129225000Y-100600000D03*
X138700000Y-97950000D03*
%TO.N,Net-(Q1-G)*%
X107325000Y-120050000D03*
X108550000Y-116475000D03*
X111740000Y-111275000D03*
X108475000Y-112575000D03*
%TD*%
D20*
%TO.N,Net-(Q1-G)*%
X107325000Y-120050000D02*
X108475000Y-118900000D01*
X108475000Y-118900000D02*
X108475000Y-116550000D01*
X108475000Y-116550000D02*
X108550000Y-116475000D01*
X108475000Y-112575000D02*
X107800000Y-111900000D01*
X108775000Y-110150000D02*
X110615000Y-110150000D01*
X107800000Y-111125000D02*
X108775000Y-110150000D01*
X107800000Y-111900000D02*
X107800000Y-111125000D01*
X110615000Y-110150000D02*
X111740000Y-111275000D01*
D21*
%TO.N,/CURRENT_ADC*%
X131000000Y-97950000D02*
X138700000Y-97950000D01*
X129225000Y-100600000D02*
X129225000Y-99725000D01*
X129225000Y-99725000D02*
X131000000Y-97950000D01*
%TD*%
M02*
