%TF.GenerationSoftware,KiCad,Pcbnew,9.0.8+dfsg-1*%
%TF.CreationDate,2026-09-12T23:52:01+05:30*%
%TF.ProjectId,L298N_DC_Motor_Driver,4c323938-4e5f-4444-935f-4d6f746f725f,rev?*%
%TF.SameCoordinates,Original*%
%TF.FileFunction,Legend,Top*%
%TF.FilePolarity,Positive*%
%FSLAX46Y46*%
G04 Gerber Fmt 4.6, Leading zero omitted, Abs format (unit mm)*
G04 Created by KiCad (PCBNEW 9.0.8+dfsg-1) date 2026-09-12 23:52:01*
%MOMM*%
%LPD*%
G01*
G04 APERTURE LIST*
%ADD10C,0.304800*%
%ADD11C,0.150000*%
%ADD12C,0.120000*%
G04 APERTURE END LIST*
D10*
X130249945Y-94810049D02*
X131549945Y-94810049D01*
X131549945Y-94810049D02*
X130621373Y-95243383D01*
X130621373Y-95243383D02*
X131549945Y-95676716D01*
X131549945Y-95676716D02*
X130249945Y-95676716D01*
X130249945Y-96852906D02*
X130930897Y-96852906D01*
X130930897Y-96852906D02*
X131054707Y-96791001D01*
X131054707Y-96791001D02*
X131116611Y-96667192D01*
X131116611Y-96667192D02*
X131116611Y-96419573D01*
X131116611Y-96419573D02*
X131054707Y-96295763D01*
X130311850Y-96852906D02*
X130249945Y-96729097D01*
X130249945Y-96729097D02*
X130249945Y-96419573D01*
X130249945Y-96419573D02*
X130311850Y-96295763D01*
X130311850Y-96295763D02*
X130435659Y-96233859D01*
X130435659Y-96233859D02*
X130559469Y-96233859D01*
X130559469Y-96233859D02*
X130683278Y-96295763D01*
X130683278Y-96295763D02*
X130745183Y-96419573D01*
X130745183Y-96419573D02*
X130745183Y-96729097D01*
X130745183Y-96729097D02*
X130807088Y-96852906D01*
X131116611Y-97471953D02*
X130249945Y-97471953D01*
X130992802Y-97471953D02*
X131054707Y-97533858D01*
X131054707Y-97533858D02*
X131116611Y-97657668D01*
X131116611Y-97657668D02*
X131116611Y-97843382D01*
X131116611Y-97843382D02*
X131054707Y-97967191D01*
X131054707Y-97967191D02*
X130930897Y-98029096D01*
X130930897Y-98029096D02*
X130249945Y-98029096D01*
X130249945Y-98833858D02*
X130311850Y-98710048D01*
X130311850Y-98710048D02*
X130373754Y-98648143D01*
X130373754Y-98648143D02*
X130497564Y-98586239D01*
X130497564Y-98586239D02*
X130868992Y-98586239D01*
X130868992Y-98586239D02*
X130992802Y-98648143D01*
X130992802Y-98648143D02*
X131054707Y-98710048D01*
X131054707Y-98710048D02*
X131116611Y-98833858D01*
X131116611Y-98833858D02*
X131116611Y-99019572D01*
X131116611Y-99019572D02*
X131054707Y-99143381D01*
X131054707Y-99143381D02*
X130992802Y-99205286D01*
X130992802Y-99205286D02*
X130868992Y-99267191D01*
X130868992Y-99267191D02*
X130497564Y-99267191D01*
X130497564Y-99267191D02*
X130373754Y-99205286D01*
X130373754Y-99205286D02*
X130311850Y-99143381D01*
X130311850Y-99143381D02*
X130249945Y-99019572D01*
X130249945Y-99019572D02*
X130249945Y-98833858D01*
X131116611Y-99824333D02*
X130002326Y-99824333D01*
X130002326Y-99824333D02*
X129878516Y-99762429D01*
X129878516Y-99762429D02*
X129816611Y-99638619D01*
X129816611Y-99638619D02*
X129816611Y-99576714D01*
X131549945Y-99824333D02*
X131488040Y-99762429D01*
X131488040Y-99762429D02*
X131426135Y-99824333D01*
X131426135Y-99824333D02*
X131488040Y-99886238D01*
X131488040Y-99886238D02*
X131549945Y-99824333D01*
X131549945Y-99824333D02*
X131426135Y-99824333D01*
X130745183Y-100443381D02*
X130745183Y-101433858D01*
X130249945Y-102052905D02*
X131549945Y-102052905D01*
X131549945Y-102052905D02*
X131549945Y-102362429D01*
X131549945Y-102362429D02*
X131488040Y-102548143D01*
X131488040Y-102548143D02*
X131364230Y-102671953D01*
X131364230Y-102671953D02*
X131240421Y-102733858D01*
X131240421Y-102733858D02*
X130992802Y-102795762D01*
X130992802Y-102795762D02*
X130807088Y-102795762D01*
X130807088Y-102795762D02*
X130559469Y-102733858D01*
X130559469Y-102733858D02*
X130435659Y-102671953D01*
X130435659Y-102671953D02*
X130311850Y-102548143D01*
X130311850Y-102548143D02*
X130249945Y-102362429D01*
X130249945Y-102362429D02*
X130249945Y-102052905D01*
X130249945Y-103910048D02*
X130930897Y-103910048D01*
X130930897Y-103910048D02*
X131054707Y-103848143D01*
X131054707Y-103848143D02*
X131116611Y-103724334D01*
X131116611Y-103724334D02*
X131116611Y-103476715D01*
X131116611Y-103476715D02*
X131054707Y-103352905D01*
X130311850Y-103910048D02*
X130249945Y-103786239D01*
X130249945Y-103786239D02*
X130249945Y-103476715D01*
X130249945Y-103476715D02*
X130311850Y-103352905D01*
X130311850Y-103352905D02*
X130435659Y-103291001D01*
X130435659Y-103291001D02*
X130559469Y-103291001D01*
X130559469Y-103291001D02*
X130683278Y-103352905D01*
X130683278Y-103352905D02*
X130745183Y-103476715D01*
X130745183Y-103476715D02*
X130745183Y-103786239D01*
X130745183Y-103786239D02*
X130807088Y-103910048D01*
X131116611Y-104405286D02*
X130249945Y-104714810D01*
X130249945Y-104714810D02*
X131116611Y-105024333D01*
X131116611Y-106076714D02*
X130249945Y-106076714D01*
X131116611Y-105519571D02*
X130435659Y-105519571D01*
X130435659Y-105519571D02*
X130311850Y-105581476D01*
X130311850Y-105581476D02*
X130249945Y-105705286D01*
X130249945Y-105705286D02*
X130249945Y-105891000D01*
X130249945Y-105891000D02*
X130311850Y-106014809D01*
X130311850Y-106014809D02*
X130373754Y-106076714D01*
D11*
X146231666Y-91799819D02*
X146231666Y-92514104D01*
X146231666Y-92514104D02*
X146184047Y-92656961D01*
X146184047Y-92656961D02*
X146088809Y-92752200D01*
X146088809Y-92752200D02*
X145945952Y-92799819D01*
X145945952Y-92799819D02*
X145850714Y-92799819D01*
X147136428Y-92133152D02*
X147136428Y-92799819D01*
X146898333Y-91752200D02*
X146660238Y-92466485D01*
X146660238Y-92466485D02*
X147279285Y-92466485D01*
X142782143Y-94479819D02*
X142782143Y-93479819D01*
X142782143Y-93479819D02*
X143115476Y-94194104D01*
X143115476Y-94194104D02*
X143448809Y-93479819D01*
X143448809Y-93479819D02*
X143448809Y-94479819D01*
X144115476Y-93479819D02*
X144305952Y-93479819D01*
X144305952Y-93479819D02*
X144401190Y-93527438D01*
X144401190Y-93527438D02*
X144496428Y-93622676D01*
X144496428Y-93622676D02*
X144544047Y-93813152D01*
X144544047Y-93813152D02*
X144544047Y-94146485D01*
X144544047Y-94146485D02*
X144496428Y-94336961D01*
X144496428Y-94336961D02*
X144401190Y-94432200D01*
X144401190Y-94432200D02*
X144305952Y-94479819D01*
X144305952Y-94479819D02*
X144115476Y-94479819D01*
X144115476Y-94479819D02*
X144020238Y-94432200D01*
X144020238Y-94432200D02*
X143925000Y-94336961D01*
X143925000Y-94336961D02*
X143877381Y-94146485D01*
X143877381Y-94146485D02*
X143877381Y-93813152D01*
X143877381Y-93813152D02*
X143925000Y-93622676D01*
X143925000Y-93622676D02*
X144020238Y-93527438D01*
X144020238Y-93527438D02*
X144115476Y-93479819D01*
X144829762Y-93479819D02*
X145401190Y-93479819D01*
X145115476Y-94479819D02*
X145115476Y-93479819D01*
X145925000Y-93479819D02*
X146115476Y-93479819D01*
X146115476Y-93479819D02*
X146210714Y-93527438D01*
X146210714Y-93527438D02*
X146305952Y-93622676D01*
X146305952Y-93622676D02*
X146353571Y-93813152D01*
X146353571Y-93813152D02*
X146353571Y-94146485D01*
X146353571Y-94146485D02*
X146305952Y-94336961D01*
X146305952Y-94336961D02*
X146210714Y-94432200D01*
X146210714Y-94432200D02*
X146115476Y-94479819D01*
X146115476Y-94479819D02*
X145925000Y-94479819D01*
X145925000Y-94479819D02*
X145829762Y-94432200D01*
X145829762Y-94432200D02*
X145734524Y-94336961D01*
X145734524Y-94336961D02*
X145686905Y-94146485D01*
X145686905Y-94146485D02*
X145686905Y-93813152D01*
X145686905Y-93813152D02*
X145734524Y-93622676D01*
X145734524Y-93622676D02*
X145829762Y-93527438D01*
X145829762Y-93527438D02*
X145925000Y-93479819D01*
X147353571Y-94479819D02*
X147020238Y-94003628D01*
X146782143Y-94479819D02*
X146782143Y-93479819D01*
X146782143Y-93479819D02*
X147163095Y-93479819D01*
X147163095Y-93479819D02*
X147258333Y-93527438D01*
X147258333Y-93527438D02*
X147305952Y-93575057D01*
X147305952Y-93575057D02*
X147353571Y-93670295D01*
X147353571Y-93670295D02*
X147353571Y-93813152D01*
X147353571Y-93813152D02*
X147305952Y-93908390D01*
X147305952Y-93908390D02*
X147258333Y-93956009D01*
X147258333Y-93956009D02*
X147163095Y-94003628D01*
X147163095Y-94003628D02*
X146782143Y-94003628D01*
X148877381Y-93956009D02*
X149020238Y-94003628D01*
X149020238Y-94003628D02*
X149067857Y-94051247D01*
X149067857Y-94051247D02*
X149115476Y-94146485D01*
X149115476Y-94146485D02*
X149115476Y-94289342D01*
X149115476Y-94289342D02*
X149067857Y-94384580D01*
X149067857Y-94384580D02*
X149020238Y-94432200D01*
X149020238Y-94432200D02*
X148925000Y-94479819D01*
X148925000Y-94479819D02*
X148544048Y-94479819D01*
X148544048Y-94479819D02*
X148544048Y-93479819D01*
X148544048Y-93479819D02*
X148877381Y-93479819D01*
X148877381Y-93479819D02*
X148972619Y-93527438D01*
X148972619Y-93527438D02*
X149020238Y-93575057D01*
X149020238Y-93575057D02*
X149067857Y-93670295D01*
X149067857Y-93670295D02*
X149067857Y-93765533D01*
X149067857Y-93765533D02*
X149020238Y-93860771D01*
X149020238Y-93860771D02*
X148972619Y-93908390D01*
X148972619Y-93908390D02*
X148877381Y-93956009D01*
X148877381Y-93956009D02*
X148544048Y-93956009D01*
X154682319Y-101113333D02*
X155396604Y-101113333D01*
X155396604Y-101113333D02*
X155539461Y-101160952D01*
X155539461Y-101160952D02*
X155634700Y-101256190D01*
X155634700Y-101256190D02*
X155682319Y-101399047D01*
X155682319Y-101399047D02*
X155682319Y-101494285D01*
X154682319Y-100732380D02*
X154682319Y-100113333D01*
X154682319Y-100113333D02*
X155063271Y-100446666D01*
X155063271Y-100446666D02*
X155063271Y-100303809D01*
X155063271Y-100303809D02*
X155110890Y-100208571D01*
X155110890Y-100208571D02*
X155158509Y-100160952D01*
X155158509Y-100160952D02*
X155253747Y-100113333D01*
X155253747Y-100113333D02*
X155491842Y-100113333D01*
X155491842Y-100113333D02*
X155587080Y-100160952D01*
X155587080Y-100160952D02*
X155634700Y-100208571D01*
X155634700Y-100208571D02*
X155682319Y-100303809D01*
X155682319Y-100303809D02*
X155682319Y-100589523D01*
X155682319Y-100589523D02*
X155634700Y-100684761D01*
X155634700Y-100684761D02*
X155587080Y-100732380D01*
X168329819Y-104421428D02*
X167329819Y-104421428D01*
X167329819Y-104421428D02*
X168044104Y-104088095D01*
X168044104Y-104088095D02*
X167329819Y-103754762D01*
X167329819Y-103754762D02*
X168329819Y-103754762D01*
X167329819Y-103088095D02*
X167329819Y-102897619D01*
X167329819Y-102897619D02*
X167377438Y-102802381D01*
X167377438Y-102802381D02*
X167472676Y-102707143D01*
X167472676Y-102707143D02*
X167663152Y-102659524D01*
X167663152Y-102659524D02*
X167996485Y-102659524D01*
X167996485Y-102659524D02*
X168186961Y-102707143D01*
X168186961Y-102707143D02*
X168282200Y-102802381D01*
X168282200Y-102802381D02*
X168329819Y-102897619D01*
X168329819Y-102897619D02*
X168329819Y-103088095D01*
X168329819Y-103088095D02*
X168282200Y-103183333D01*
X168282200Y-103183333D02*
X168186961Y-103278571D01*
X168186961Y-103278571D02*
X167996485Y-103326190D01*
X167996485Y-103326190D02*
X167663152Y-103326190D01*
X167663152Y-103326190D02*
X167472676Y-103278571D01*
X167472676Y-103278571D02*
X167377438Y-103183333D01*
X167377438Y-103183333D02*
X167329819Y-103088095D01*
X167329819Y-102373809D02*
X167329819Y-101802381D01*
X168329819Y-102088095D02*
X167329819Y-102088095D01*
X167329819Y-101278571D02*
X167329819Y-101088095D01*
X167329819Y-101088095D02*
X167377438Y-100992857D01*
X167377438Y-100992857D02*
X167472676Y-100897619D01*
X167472676Y-100897619D02*
X167663152Y-100850000D01*
X167663152Y-100850000D02*
X167996485Y-100850000D01*
X167996485Y-100850000D02*
X168186961Y-100897619D01*
X168186961Y-100897619D02*
X168282200Y-100992857D01*
X168282200Y-100992857D02*
X168329819Y-101088095D01*
X168329819Y-101088095D02*
X168329819Y-101278571D01*
X168329819Y-101278571D02*
X168282200Y-101373809D01*
X168282200Y-101373809D02*
X168186961Y-101469047D01*
X168186961Y-101469047D02*
X167996485Y-101516666D01*
X167996485Y-101516666D02*
X167663152Y-101516666D01*
X167663152Y-101516666D02*
X167472676Y-101469047D01*
X167472676Y-101469047D02*
X167377438Y-101373809D01*
X167377438Y-101373809D02*
X167329819Y-101278571D01*
X168329819Y-99850000D02*
X167853628Y-100183333D01*
X168329819Y-100421428D02*
X167329819Y-100421428D01*
X167329819Y-100421428D02*
X167329819Y-100040476D01*
X167329819Y-100040476D02*
X167377438Y-99945238D01*
X167377438Y-99945238D02*
X167425057Y-99897619D01*
X167425057Y-99897619D02*
X167520295Y-99850000D01*
X167520295Y-99850000D02*
X167663152Y-99850000D01*
X167663152Y-99850000D02*
X167758390Y-99897619D01*
X167758390Y-99897619D02*
X167806009Y-99945238D01*
X167806009Y-99945238D02*
X167853628Y-100040476D01*
X167853628Y-100040476D02*
X167853628Y-100421428D01*
X168044104Y-98707142D02*
X168044104Y-98230952D01*
X168329819Y-98802380D02*
X167329819Y-98469047D01*
X167329819Y-98469047D02*
X168329819Y-98135714D01*
X134866666Y-94404819D02*
X134866666Y-95119104D01*
X134866666Y-95119104D02*
X134819047Y-95261961D01*
X134819047Y-95261961D02*
X134723809Y-95357200D01*
X134723809Y-95357200D02*
X134580952Y-95404819D01*
X134580952Y-95404819D02*
X134485714Y-95404819D01*
X135295238Y-94500057D02*
X135342857Y-94452438D01*
X135342857Y-94452438D02*
X135438095Y-94404819D01*
X135438095Y-94404819D02*
X135676190Y-94404819D01*
X135676190Y-94404819D02*
X135771428Y-94452438D01*
X135771428Y-94452438D02*
X135819047Y-94500057D01*
X135819047Y-94500057D02*
X135866666Y-94595295D01*
X135866666Y-94595295D02*
X135866666Y-94690533D01*
X135866666Y-94690533D02*
X135819047Y-94833390D01*
X135819047Y-94833390D02*
X135247619Y-95404819D01*
X135247619Y-95404819D02*
X135866666Y-95404819D01*
X130217857Y-93704819D02*
X130217857Y-92704819D01*
X130217857Y-92704819D02*
X130598809Y-92704819D01*
X130598809Y-92704819D02*
X130694047Y-92752438D01*
X130694047Y-92752438D02*
X130741666Y-92800057D01*
X130741666Y-92800057D02*
X130789285Y-92895295D01*
X130789285Y-92895295D02*
X130789285Y-93038152D01*
X130789285Y-93038152D02*
X130741666Y-93133390D01*
X130741666Y-93133390D02*
X130694047Y-93181009D01*
X130694047Y-93181009D02*
X130598809Y-93228628D01*
X130598809Y-93228628D02*
X130217857Y-93228628D01*
X131408333Y-92704819D02*
X131598809Y-92704819D01*
X131598809Y-92704819D02*
X131694047Y-92752438D01*
X131694047Y-92752438D02*
X131789285Y-92847676D01*
X131789285Y-92847676D02*
X131836904Y-93038152D01*
X131836904Y-93038152D02*
X131836904Y-93371485D01*
X131836904Y-93371485D02*
X131789285Y-93561961D01*
X131789285Y-93561961D02*
X131694047Y-93657200D01*
X131694047Y-93657200D02*
X131598809Y-93704819D01*
X131598809Y-93704819D02*
X131408333Y-93704819D01*
X131408333Y-93704819D02*
X131313095Y-93657200D01*
X131313095Y-93657200D02*
X131217857Y-93561961D01*
X131217857Y-93561961D02*
X131170238Y-93371485D01*
X131170238Y-93371485D02*
X131170238Y-93038152D01*
X131170238Y-93038152D02*
X131217857Y-92847676D01*
X131217857Y-92847676D02*
X131313095Y-92752438D01*
X131313095Y-92752438D02*
X131408333Y-92704819D01*
X132170238Y-92704819D02*
X132408333Y-93704819D01*
X132408333Y-93704819D02*
X132598809Y-92990533D01*
X132598809Y-92990533D02*
X132789285Y-93704819D01*
X132789285Y-93704819D02*
X133027381Y-92704819D01*
X133408333Y-93181009D02*
X133741666Y-93181009D01*
X133884523Y-93704819D02*
X133408333Y-93704819D01*
X133408333Y-93704819D02*
X133408333Y-92704819D01*
X133408333Y-92704819D02*
X133884523Y-92704819D01*
X134884523Y-93704819D02*
X134551190Y-93228628D01*
X134313095Y-93704819D02*
X134313095Y-92704819D01*
X134313095Y-92704819D02*
X134694047Y-92704819D01*
X134694047Y-92704819D02*
X134789285Y-92752438D01*
X134789285Y-92752438D02*
X134836904Y-92800057D01*
X134836904Y-92800057D02*
X134884523Y-92895295D01*
X134884523Y-92895295D02*
X134884523Y-93038152D01*
X134884523Y-93038152D02*
X134836904Y-93133390D01*
X134836904Y-93133390D02*
X134789285Y-93181009D01*
X134789285Y-93181009D02*
X134694047Y-93228628D01*
X134694047Y-93228628D02*
X134313095Y-93228628D01*
X135075000Y-93800057D02*
X135836904Y-93800057D01*
X136075000Y-93704819D02*
X136075000Y-92704819D01*
X136551190Y-93704819D02*
X136551190Y-92704819D01*
X136551190Y-92704819D02*
X137122618Y-93704819D01*
X137122618Y-93704819D02*
X137122618Y-92704819D01*
X137598809Y-93704819D02*
X137598809Y-92704819D01*
X137598809Y-92704819D02*
X137979761Y-92704819D01*
X137979761Y-92704819D02*
X138074999Y-92752438D01*
X138074999Y-92752438D02*
X138122618Y-92800057D01*
X138122618Y-92800057D02*
X138170237Y-92895295D01*
X138170237Y-92895295D02*
X138170237Y-93038152D01*
X138170237Y-93038152D02*
X138122618Y-93133390D01*
X138122618Y-93133390D02*
X138074999Y-93181009D01*
X138074999Y-93181009D02*
X137979761Y-93228628D01*
X137979761Y-93228628D02*
X137598809Y-93228628D01*
X138598809Y-92704819D02*
X138598809Y-93514342D01*
X138598809Y-93514342D02*
X138646428Y-93609580D01*
X138646428Y-93609580D02*
X138694047Y-93657200D01*
X138694047Y-93657200D02*
X138789285Y-93704819D01*
X138789285Y-93704819D02*
X138979761Y-93704819D01*
X138979761Y-93704819D02*
X139074999Y-93657200D01*
X139074999Y-93657200D02*
X139122618Y-93609580D01*
X139122618Y-93609580D02*
X139170237Y-93514342D01*
X139170237Y-93514342D02*
X139170237Y-92704819D01*
X139503571Y-92704819D02*
X140074999Y-92704819D01*
X139789285Y-93704819D02*
X139789285Y-92704819D01*
X153959580Y-105441666D02*
X154007200Y-105489285D01*
X154007200Y-105489285D02*
X154054819Y-105632142D01*
X154054819Y-105632142D02*
X154054819Y-105727380D01*
X154054819Y-105727380D02*
X154007200Y-105870237D01*
X154007200Y-105870237D02*
X153911961Y-105965475D01*
X153911961Y-105965475D02*
X153816723Y-106013094D01*
X153816723Y-106013094D02*
X153626247Y-106060713D01*
X153626247Y-106060713D02*
X153483390Y-106060713D01*
X153483390Y-106060713D02*
X153292914Y-106013094D01*
X153292914Y-106013094D02*
X153197676Y-105965475D01*
X153197676Y-105965475D02*
X153102438Y-105870237D01*
X153102438Y-105870237D02*
X153054819Y-105727380D01*
X153054819Y-105727380D02*
X153054819Y-105632142D01*
X153054819Y-105632142D02*
X153102438Y-105489285D01*
X153102438Y-105489285D02*
X153150057Y-105441666D01*
X153054819Y-105108332D02*
X153054819Y-104489285D01*
X153054819Y-104489285D02*
X153435771Y-104822618D01*
X153435771Y-104822618D02*
X153435771Y-104679761D01*
X153435771Y-104679761D02*
X153483390Y-104584523D01*
X153483390Y-104584523D02*
X153531009Y-104536904D01*
X153531009Y-104536904D02*
X153626247Y-104489285D01*
X153626247Y-104489285D02*
X153864342Y-104489285D01*
X153864342Y-104489285D02*
X153959580Y-104536904D01*
X153959580Y-104536904D02*
X154007200Y-104584523D01*
X154007200Y-104584523D02*
X154054819Y-104679761D01*
X154054819Y-104679761D02*
X154054819Y-104965475D01*
X154054819Y-104965475D02*
X154007200Y-105060713D01*
X154007200Y-105060713D02*
X153959580Y-105108332D01*
X146233333Y-103909580D02*
X146185714Y-103957200D01*
X146185714Y-103957200D02*
X146042857Y-104004819D01*
X146042857Y-104004819D02*
X145947619Y-104004819D01*
X145947619Y-104004819D02*
X145804762Y-103957200D01*
X145804762Y-103957200D02*
X145709524Y-103861961D01*
X145709524Y-103861961D02*
X145661905Y-103766723D01*
X145661905Y-103766723D02*
X145614286Y-103576247D01*
X145614286Y-103576247D02*
X145614286Y-103433390D01*
X145614286Y-103433390D02*
X145661905Y-103242914D01*
X145661905Y-103242914D02*
X145709524Y-103147676D01*
X145709524Y-103147676D02*
X145804762Y-103052438D01*
X145804762Y-103052438D02*
X145947619Y-103004819D01*
X145947619Y-103004819D02*
X146042857Y-103004819D01*
X146042857Y-103004819D02*
X146185714Y-103052438D01*
X146185714Y-103052438D02*
X146233333Y-103100057D01*
X146614286Y-103100057D02*
X146661905Y-103052438D01*
X146661905Y-103052438D02*
X146757143Y-103004819D01*
X146757143Y-103004819D02*
X146995238Y-103004819D01*
X146995238Y-103004819D02*
X147090476Y-103052438D01*
X147090476Y-103052438D02*
X147138095Y-103100057D01*
X147138095Y-103100057D02*
X147185714Y-103195295D01*
X147185714Y-103195295D02*
X147185714Y-103290533D01*
X147185714Y-103290533D02*
X147138095Y-103433390D01*
X147138095Y-103433390D02*
X146566667Y-104004819D01*
X146566667Y-104004819D02*
X147185714Y-104004819D01*
X148210833Y-96519819D02*
X147877500Y-96043628D01*
X147639405Y-96519819D02*
X147639405Y-95519819D01*
X147639405Y-95519819D02*
X148020357Y-95519819D01*
X148020357Y-95519819D02*
X148115595Y-95567438D01*
X148115595Y-95567438D02*
X148163214Y-95615057D01*
X148163214Y-95615057D02*
X148210833Y-95710295D01*
X148210833Y-95710295D02*
X148210833Y-95853152D01*
X148210833Y-95853152D02*
X148163214Y-95948390D01*
X148163214Y-95948390D02*
X148115595Y-95996009D01*
X148115595Y-95996009D02*
X148020357Y-96043628D01*
X148020357Y-96043628D02*
X147639405Y-96043628D01*
X149163214Y-96519819D02*
X148591786Y-96519819D01*
X148877500Y-96519819D02*
X148877500Y-95519819D01*
X148877500Y-95519819D02*
X148782262Y-95662676D01*
X148782262Y-95662676D02*
X148687024Y-95757914D01*
X148687024Y-95757914D02*
X148591786Y-95805533D01*
X165661905Y-95029819D02*
X165661905Y-94029819D01*
X165661905Y-94029819D02*
X165900000Y-94029819D01*
X165900000Y-94029819D02*
X166042857Y-94077438D01*
X166042857Y-94077438D02*
X166138095Y-94172676D01*
X166138095Y-94172676D02*
X166185714Y-94267914D01*
X166185714Y-94267914D02*
X166233333Y-94458390D01*
X166233333Y-94458390D02*
X166233333Y-94601247D01*
X166233333Y-94601247D02*
X166185714Y-94791723D01*
X166185714Y-94791723D02*
X166138095Y-94886961D01*
X166138095Y-94886961D02*
X166042857Y-94982200D01*
X166042857Y-94982200D02*
X165900000Y-95029819D01*
X165900000Y-95029819D02*
X165661905Y-95029819D01*
X166566667Y-94029819D02*
X167233333Y-94029819D01*
X167233333Y-94029819D02*
X166804762Y-95029819D01*
X165029819Y-92696904D02*
X164029819Y-92696904D01*
X165029819Y-92125476D02*
X164458390Y-92554047D01*
X164029819Y-92125476D02*
X164601247Y-92696904D01*
X154329819Y-102513094D02*
X153329819Y-102513094D01*
X153329819Y-102513094D02*
X153329819Y-102274999D01*
X153329819Y-102274999D02*
X153377438Y-102132142D01*
X153377438Y-102132142D02*
X153472676Y-102036904D01*
X153472676Y-102036904D02*
X153567914Y-101989285D01*
X153567914Y-101989285D02*
X153758390Y-101941666D01*
X153758390Y-101941666D02*
X153901247Y-101941666D01*
X153901247Y-101941666D02*
X154091723Y-101989285D01*
X154091723Y-101989285D02*
X154186961Y-102036904D01*
X154186961Y-102036904D02*
X154282200Y-102132142D01*
X154282200Y-102132142D02*
X154329819Y-102274999D01*
X154329819Y-102274999D02*
X154329819Y-102513094D01*
X154329819Y-101465475D02*
X154329819Y-101274999D01*
X154329819Y-101274999D02*
X154282200Y-101179761D01*
X154282200Y-101179761D02*
X154234580Y-101132142D01*
X154234580Y-101132142D02*
X154091723Y-101036904D01*
X154091723Y-101036904D02*
X153901247Y-100989285D01*
X153901247Y-100989285D02*
X153520295Y-100989285D01*
X153520295Y-100989285D02*
X153425057Y-101036904D01*
X153425057Y-101036904D02*
X153377438Y-101084523D01*
X153377438Y-101084523D02*
X153329819Y-101179761D01*
X153329819Y-101179761D02*
X153329819Y-101370237D01*
X153329819Y-101370237D02*
X153377438Y-101465475D01*
X153377438Y-101465475D02*
X153425057Y-101513094D01*
X153425057Y-101513094D02*
X153520295Y-101560713D01*
X153520295Y-101560713D02*
X153758390Y-101560713D01*
X153758390Y-101560713D02*
X153853628Y-101513094D01*
X153853628Y-101513094D02*
X153901247Y-101465475D01*
X153901247Y-101465475D02*
X153948866Y-101370237D01*
X153948866Y-101370237D02*
X153948866Y-101179761D01*
X153948866Y-101179761D02*
X153901247Y-101084523D01*
X153901247Y-101084523D02*
X153853628Y-101036904D01*
X153853628Y-101036904D02*
X153758390Y-100989285D01*
X129929580Y-108416666D02*
X129977200Y-108464285D01*
X129977200Y-108464285D02*
X130024819Y-108607142D01*
X130024819Y-108607142D02*
X130024819Y-108702380D01*
X130024819Y-108702380D02*
X129977200Y-108845237D01*
X129977200Y-108845237D02*
X129881961Y-108940475D01*
X129881961Y-108940475D02*
X129786723Y-108988094D01*
X129786723Y-108988094D02*
X129596247Y-109035713D01*
X129596247Y-109035713D02*
X129453390Y-109035713D01*
X129453390Y-109035713D02*
X129262914Y-108988094D01*
X129262914Y-108988094D02*
X129167676Y-108940475D01*
X129167676Y-108940475D02*
X129072438Y-108845237D01*
X129072438Y-108845237D02*
X129024819Y-108702380D01*
X129024819Y-108702380D02*
X129024819Y-108607142D01*
X129024819Y-108607142D02*
X129072438Y-108464285D01*
X129072438Y-108464285D02*
X129120057Y-108416666D01*
X130024819Y-107464285D02*
X130024819Y-108035713D01*
X130024819Y-107749999D02*
X129024819Y-107749999D01*
X129024819Y-107749999D02*
X129167676Y-107845237D01*
X129167676Y-107845237D02*
X129262914Y-107940475D01*
X129262914Y-107940475D02*
X129310533Y-108035713D01*
X144884819Y-107201904D02*
X145694342Y-107201904D01*
X145694342Y-107201904D02*
X145789580Y-107154285D01*
X145789580Y-107154285D02*
X145837200Y-107106666D01*
X145837200Y-107106666D02*
X145884819Y-107011428D01*
X145884819Y-107011428D02*
X145884819Y-106820952D01*
X145884819Y-106820952D02*
X145837200Y-106725714D01*
X145837200Y-106725714D02*
X145789580Y-106678095D01*
X145789580Y-106678095D02*
X145694342Y-106630476D01*
X145694342Y-106630476D02*
X144884819Y-106630476D01*
X145884819Y-105630476D02*
X145884819Y-106201904D01*
X145884819Y-105916190D02*
X144884819Y-105916190D01*
X144884819Y-105916190D02*
X145027676Y-106011428D01*
X145027676Y-106011428D02*
X145122914Y-106106666D01*
X145122914Y-106106666D02*
X145170533Y-106201904D01*
X133864819Y-119153333D02*
X134579104Y-119153333D01*
X134579104Y-119153333D02*
X134721961Y-119200952D01*
X134721961Y-119200952D02*
X134817200Y-119296190D01*
X134817200Y-119296190D02*
X134864819Y-119439047D01*
X134864819Y-119439047D02*
X134864819Y-119534285D01*
X134864819Y-118153333D02*
X134864819Y-118724761D01*
X134864819Y-118439047D02*
X133864819Y-118439047D01*
X133864819Y-118439047D02*
X134007676Y-118534285D01*
X134007676Y-118534285D02*
X134102914Y-118629523D01*
X134102914Y-118629523D02*
X134150533Y-118724761D01*
X160854819Y-114588094D02*
X159854819Y-114588094D01*
X159854819Y-114588094D02*
X159854819Y-114349999D01*
X159854819Y-114349999D02*
X159902438Y-114207142D01*
X159902438Y-114207142D02*
X159997676Y-114111904D01*
X159997676Y-114111904D02*
X160092914Y-114064285D01*
X160092914Y-114064285D02*
X160283390Y-114016666D01*
X160283390Y-114016666D02*
X160426247Y-114016666D01*
X160426247Y-114016666D02*
X160616723Y-114064285D01*
X160616723Y-114064285D02*
X160711961Y-114111904D01*
X160711961Y-114111904D02*
X160807200Y-114207142D01*
X160807200Y-114207142D02*
X160854819Y-114349999D01*
X160854819Y-114349999D02*
X160854819Y-114588094D01*
X159854819Y-113159523D02*
X159854819Y-113349999D01*
X159854819Y-113349999D02*
X159902438Y-113445237D01*
X159902438Y-113445237D02*
X159950057Y-113492856D01*
X159950057Y-113492856D02*
X160092914Y-113588094D01*
X160092914Y-113588094D02*
X160283390Y-113635713D01*
X160283390Y-113635713D02*
X160664342Y-113635713D01*
X160664342Y-113635713D02*
X160759580Y-113588094D01*
X160759580Y-113588094D02*
X160807200Y-113540475D01*
X160807200Y-113540475D02*
X160854819Y-113445237D01*
X160854819Y-113445237D02*
X160854819Y-113254761D01*
X160854819Y-113254761D02*
X160807200Y-113159523D01*
X160807200Y-113159523D02*
X160759580Y-113111904D01*
X160759580Y-113111904D02*
X160664342Y-113064285D01*
X160664342Y-113064285D02*
X160426247Y-113064285D01*
X160426247Y-113064285D02*
X160331009Y-113111904D01*
X160331009Y-113111904D02*
X160283390Y-113159523D01*
X160283390Y-113159523D02*
X160235771Y-113254761D01*
X160235771Y-113254761D02*
X160235771Y-113445237D01*
X160235771Y-113445237D02*
X160283390Y-113540475D01*
X160283390Y-113540475D02*
X160331009Y-113588094D01*
X160331009Y-113588094D02*
X160426247Y-113635713D01*
X165179819Y-108751904D02*
X164179819Y-108751904D01*
X165179819Y-108180476D02*
X164608390Y-108609047D01*
X164179819Y-108180476D02*
X164751247Y-108751904D01*
X150429819Y-113993094D02*
X149429819Y-113993094D01*
X149429819Y-113993094D02*
X149429819Y-113754999D01*
X149429819Y-113754999D02*
X149477438Y-113612142D01*
X149477438Y-113612142D02*
X149572676Y-113516904D01*
X149572676Y-113516904D02*
X149667914Y-113469285D01*
X149667914Y-113469285D02*
X149858390Y-113421666D01*
X149858390Y-113421666D02*
X150001247Y-113421666D01*
X150001247Y-113421666D02*
X150191723Y-113469285D01*
X150191723Y-113469285D02*
X150286961Y-113516904D01*
X150286961Y-113516904D02*
X150382200Y-113612142D01*
X150382200Y-113612142D02*
X150429819Y-113754999D01*
X150429819Y-113754999D02*
X150429819Y-113993094D01*
X149525057Y-113040713D02*
X149477438Y-112993094D01*
X149477438Y-112993094D02*
X149429819Y-112897856D01*
X149429819Y-112897856D02*
X149429819Y-112659761D01*
X149429819Y-112659761D02*
X149477438Y-112564523D01*
X149477438Y-112564523D02*
X149525057Y-112516904D01*
X149525057Y-112516904D02*
X149620295Y-112469285D01*
X149620295Y-112469285D02*
X149715533Y-112469285D01*
X149715533Y-112469285D02*
X149858390Y-112516904D01*
X149858390Y-112516904D02*
X150429819Y-113088332D01*
X150429819Y-113088332D02*
X150429819Y-112469285D01*
X156029819Y-108881904D02*
X155029819Y-108881904D01*
X156029819Y-108310476D02*
X155458390Y-108739047D01*
X155029819Y-108310476D02*
X155601247Y-108881904D01*
X165379819Y-115313094D02*
X164379819Y-115313094D01*
X164379819Y-115313094D02*
X164379819Y-115074999D01*
X164379819Y-115074999D02*
X164427438Y-114932142D01*
X164427438Y-114932142D02*
X164522676Y-114836904D01*
X164522676Y-114836904D02*
X164617914Y-114789285D01*
X164617914Y-114789285D02*
X164808390Y-114741666D01*
X164808390Y-114741666D02*
X164951247Y-114741666D01*
X164951247Y-114741666D02*
X165141723Y-114789285D01*
X165141723Y-114789285D02*
X165236961Y-114836904D01*
X165236961Y-114836904D02*
X165332200Y-114932142D01*
X165332200Y-114932142D02*
X165379819Y-115074999D01*
X165379819Y-115074999D02*
X165379819Y-115313094D01*
X164808390Y-114170237D02*
X164760771Y-114265475D01*
X164760771Y-114265475D02*
X164713152Y-114313094D01*
X164713152Y-114313094D02*
X164617914Y-114360713D01*
X164617914Y-114360713D02*
X164570295Y-114360713D01*
X164570295Y-114360713D02*
X164475057Y-114313094D01*
X164475057Y-114313094D02*
X164427438Y-114265475D01*
X164427438Y-114265475D02*
X164379819Y-114170237D01*
X164379819Y-114170237D02*
X164379819Y-113979761D01*
X164379819Y-113979761D02*
X164427438Y-113884523D01*
X164427438Y-113884523D02*
X164475057Y-113836904D01*
X164475057Y-113836904D02*
X164570295Y-113789285D01*
X164570295Y-113789285D02*
X164617914Y-113789285D01*
X164617914Y-113789285D02*
X164713152Y-113836904D01*
X164713152Y-113836904D02*
X164760771Y-113884523D01*
X164760771Y-113884523D02*
X164808390Y-113979761D01*
X164808390Y-113979761D02*
X164808390Y-114170237D01*
X164808390Y-114170237D02*
X164856009Y-114265475D01*
X164856009Y-114265475D02*
X164903628Y-114313094D01*
X164903628Y-114313094D02*
X164998866Y-114360713D01*
X164998866Y-114360713D02*
X165189342Y-114360713D01*
X165189342Y-114360713D02*
X165284580Y-114313094D01*
X165284580Y-114313094D02*
X165332200Y-114265475D01*
X165332200Y-114265475D02*
X165379819Y-114170237D01*
X165379819Y-114170237D02*
X165379819Y-113979761D01*
X165379819Y-113979761D02*
X165332200Y-113884523D01*
X165332200Y-113884523D02*
X165284580Y-113836904D01*
X165284580Y-113836904D02*
X165189342Y-113789285D01*
X165189342Y-113789285D02*
X164998866Y-113789285D01*
X164998866Y-113789285D02*
X164903628Y-113836904D01*
X164903628Y-113836904D02*
X164856009Y-113884523D01*
X164856009Y-113884523D02*
X164808390Y-113979761D01*
X165329819Y-110536904D02*
X164329819Y-110536904D01*
X165329819Y-109965476D02*
X164758390Y-110394047D01*
X164329819Y-109965476D02*
X164901247Y-110536904D01*
X152333333Y-99854819D02*
X152000000Y-99378628D01*
X151761905Y-99854819D02*
X151761905Y-98854819D01*
X151761905Y-98854819D02*
X152142857Y-98854819D01*
X152142857Y-98854819D02*
X152238095Y-98902438D01*
X152238095Y-98902438D02*
X152285714Y-98950057D01*
X152285714Y-98950057D02*
X152333333Y-99045295D01*
X152333333Y-99045295D02*
X152333333Y-99188152D01*
X152333333Y-99188152D02*
X152285714Y-99283390D01*
X152285714Y-99283390D02*
X152238095Y-99331009D01*
X152238095Y-99331009D02*
X152142857Y-99378628D01*
X152142857Y-99378628D02*
X151761905Y-99378628D01*
X152666667Y-98854819D02*
X153285714Y-98854819D01*
X153285714Y-98854819D02*
X152952381Y-99235771D01*
X152952381Y-99235771D02*
X153095238Y-99235771D01*
X153095238Y-99235771D02*
X153190476Y-99283390D01*
X153190476Y-99283390D02*
X153238095Y-99331009D01*
X153238095Y-99331009D02*
X153285714Y-99426247D01*
X153285714Y-99426247D02*
X153285714Y-99664342D01*
X153285714Y-99664342D02*
X153238095Y-99759580D01*
X153238095Y-99759580D02*
X153190476Y-99807200D01*
X153190476Y-99807200D02*
X153095238Y-99854819D01*
X153095238Y-99854819D02*
X152809524Y-99854819D01*
X152809524Y-99854819D02*
X152714286Y-99807200D01*
X152714286Y-99807200D02*
X152666667Y-99759580D01*
X161736905Y-95029819D02*
X161736905Y-94029819D01*
X161736905Y-94029819D02*
X161975000Y-94029819D01*
X161975000Y-94029819D02*
X162117857Y-94077438D01*
X162117857Y-94077438D02*
X162213095Y-94172676D01*
X162213095Y-94172676D02*
X162260714Y-94267914D01*
X162260714Y-94267914D02*
X162308333Y-94458390D01*
X162308333Y-94458390D02*
X162308333Y-94601247D01*
X162308333Y-94601247D02*
X162260714Y-94791723D01*
X162260714Y-94791723D02*
X162213095Y-94886961D01*
X162213095Y-94886961D02*
X162117857Y-94982200D01*
X162117857Y-94982200D02*
X161975000Y-95029819D01*
X161975000Y-95029819D02*
X161736905Y-95029819D01*
X163213095Y-94029819D02*
X162736905Y-94029819D01*
X162736905Y-94029819D02*
X162689286Y-94506009D01*
X162689286Y-94506009D02*
X162736905Y-94458390D01*
X162736905Y-94458390D02*
X162832143Y-94410771D01*
X162832143Y-94410771D02*
X163070238Y-94410771D01*
X163070238Y-94410771D02*
X163165476Y-94458390D01*
X163165476Y-94458390D02*
X163213095Y-94506009D01*
X163213095Y-94506009D02*
X163260714Y-94601247D01*
X163260714Y-94601247D02*
X163260714Y-94839342D01*
X163260714Y-94839342D02*
X163213095Y-94934580D01*
X163213095Y-94934580D02*
X163165476Y-94982200D01*
X163165476Y-94982200D02*
X163070238Y-95029819D01*
X163070238Y-95029819D02*
X162832143Y-95029819D01*
X162832143Y-95029819D02*
X162736905Y-94982200D01*
X162736905Y-94982200D02*
X162689286Y-94934580D01*
X161104819Y-92746904D02*
X160104819Y-92746904D01*
X161104819Y-92175476D02*
X160533390Y-92604047D01*
X160104819Y-92175476D02*
X160676247Y-92746904D01*
X156354819Y-114373094D02*
X155354819Y-114373094D01*
X155354819Y-114373094D02*
X155354819Y-114134999D01*
X155354819Y-114134999D02*
X155402438Y-113992142D01*
X155402438Y-113992142D02*
X155497676Y-113896904D01*
X155497676Y-113896904D02*
X155592914Y-113849285D01*
X155592914Y-113849285D02*
X155783390Y-113801666D01*
X155783390Y-113801666D02*
X155926247Y-113801666D01*
X155926247Y-113801666D02*
X156116723Y-113849285D01*
X156116723Y-113849285D02*
X156211961Y-113896904D01*
X156211961Y-113896904D02*
X156307200Y-113992142D01*
X156307200Y-113992142D02*
X156354819Y-114134999D01*
X156354819Y-114134999D02*
X156354819Y-114373094D01*
X155688152Y-112944523D02*
X156354819Y-112944523D01*
X155307200Y-113182618D02*
X156021485Y-113420713D01*
X156021485Y-113420713D02*
X156021485Y-112801666D01*
X160654819Y-108826904D02*
X159654819Y-108826904D01*
X160654819Y-108255476D02*
X160083390Y-108684047D01*
X159654819Y-108255476D02*
X160226247Y-108826904D01*
X153586905Y-95154819D02*
X153586905Y-94154819D01*
X153586905Y-94154819D02*
X153825000Y-94154819D01*
X153825000Y-94154819D02*
X153967857Y-94202438D01*
X153967857Y-94202438D02*
X154063095Y-94297676D01*
X154063095Y-94297676D02*
X154110714Y-94392914D01*
X154110714Y-94392914D02*
X154158333Y-94583390D01*
X154158333Y-94583390D02*
X154158333Y-94726247D01*
X154158333Y-94726247D02*
X154110714Y-94916723D01*
X154110714Y-94916723D02*
X154063095Y-95011961D01*
X154063095Y-95011961D02*
X153967857Y-95107200D01*
X153967857Y-95107200D02*
X153825000Y-95154819D01*
X153825000Y-95154819D02*
X153586905Y-95154819D01*
X155110714Y-95154819D02*
X154539286Y-95154819D01*
X154825000Y-95154819D02*
X154825000Y-94154819D01*
X154825000Y-94154819D02*
X154729762Y-94297676D01*
X154729762Y-94297676D02*
X154634524Y-94392914D01*
X154634524Y-94392914D02*
X154539286Y-94440533D01*
X152304819Y-92811904D02*
X151304819Y-92811904D01*
X152304819Y-92240476D02*
X151733390Y-92669047D01*
X151304819Y-92240476D02*
X151876247Y-92811904D01*
X157836905Y-94954819D02*
X157836905Y-93954819D01*
X157836905Y-93954819D02*
X158075000Y-93954819D01*
X158075000Y-93954819D02*
X158217857Y-94002438D01*
X158217857Y-94002438D02*
X158313095Y-94097676D01*
X158313095Y-94097676D02*
X158360714Y-94192914D01*
X158360714Y-94192914D02*
X158408333Y-94383390D01*
X158408333Y-94383390D02*
X158408333Y-94526247D01*
X158408333Y-94526247D02*
X158360714Y-94716723D01*
X158360714Y-94716723D02*
X158313095Y-94811961D01*
X158313095Y-94811961D02*
X158217857Y-94907200D01*
X158217857Y-94907200D02*
X158075000Y-94954819D01*
X158075000Y-94954819D02*
X157836905Y-94954819D01*
X158741667Y-93954819D02*
X159360714Y-93954819D01*
X159360714Y-93954819D02*
X159027381Y-94335771D01*
X159027381Y-94335771D02*
X159170238Y-94335771D01*
X159170238Y-94335771D02*
X159265476Y-94383390D01*
X159265476Y-94383390D02*
X159313095Y-94431009D01*
X159313095Y-94431009D02*
X159360714Y-94526247D01*
X159360714Y-94526247D02*
X159360714Y-94764342D01*
X159360714Y-94764342D02*
X159313095Y-94859580D01*
X159313095Y-94859580D02*
X159265476Y-94907200D01*
X159265476Y-94907200D02*
X159170238Y-94954819D01*
X159170238Y-94954819D02*
X158884524Y-94954819D01*
X158884524Y-94954819D02*
X158789286Y-94907200D01*
X158789286Y-94907200D02*
X158741667Y-94859580D01*
X157079819Y-92671904D02*
X156079819Y-92671904D01*
X157079819Y-92100476D02*
X156508390Y-92529047D01*
X156079819Y-92100476D02*
X156651247Y-92671904D01*
X149233333Y-104004819D02*
X148900000Y-103528628D01*
X148661905Y-104004819D02*
X148661905Y-103004819D01*
X148661905Y-103004819D02*
X149042857Y-103004819D01*
X149042857Y-103004819D02*
X149138095Y-103052438D01*
X149138095Y-103052438D02*
X149185714Y-103100057D01*
X149185714Y-103100057D02*
X149233333Y-103195295D01*
X149233333Y-103195295D02*
X149233333Y-103338152D01*
X149233333Y-103338152D02*
X149185714Y-103433390D01*
X149185714Y-103433390D02*
X149138095Y-103481009D01*
X149138095Y-103481009D02*
X149042857Y-103528628D01*
X149042857Y-103528628D02*
X148661905Y-103528628D01*
X149614286Y-103100057D02*
X149661905Y-103052438D01*
X149661905Y-103052438D02*
X149757143Y-103004819D01*
X149757143Y-103004819D02*
X149995238Y-103004819D01*
X149995238Y-103004819D02*
X150090476Y-103052438D01*
X150090476Y-103052438D02*
X150138095Y-103100057D01*
X150138095Y-103100057D02*
X150185714Y-103195295D01*
X150185714Y-103195295D02*
X150185714Y-103290533D01*
X150185714Y-103290533D02*
X150138095Y-103433390D01*
X150138095Y-103433390D02*
X149566667Y-104004819D01*
X149566667Y-104004819D02*
X150185714Y-104004819D01*
D12*
%TO.C,J4*%
X151765000Y-91345000D02*
X141365000Y-91345000D01*
X151765000Y-88325000D02*
X141365000Y-88325000D01*
X151765000Y-83425000D02*
X141365000Y-83425000D01*
X151765000Y-81925000D02*
X141365000Y-81925000D01*
X151765000Y-81305000D02*
X151765000Y-91345000D01*
X149405000Y-81305000D02*
X151765000Y-81305000D01*
X141365000Y-91345000D02*
X141365000Y-81305000D01*
X141365000Y-81305000D02*
X148805000Y-81305000D01*
X149105000Y-81305000D02*
X148665000Y-80695000D01*
X149545000Y-80695000D01*
X149105000Y-81305000D01*
G36*
X149105000Y-81305000D02*
G01*
X148665000Y-80695000D01*
X149545000Y-80695000D01*
X149105000Y-81305000D01*
G37*
%TO.C,J3*%
X156227500Y-105980000D02*
X156227500Y-95580000D01*
X159247500Y-105980000D02*
X159247500Y-95580000D01*
X164147500Y-105980000D02*
X164147500Y-95580000D01*
X165647500Y-105980000D02*
X165647500Y-95580000D01*
X166267500Y-105980000D02*
X156227500Y-105980000D01*
X166267500Y-103620000D02*
X166267500Y-105980000D01*
X156227500Y-95580000D02*
X166267500Y-95580000D01*
X166267500Y-95580000D02*
X166267500Y-103020000D01*
X166877500Y-103760000D02*
X166267500Y-103320000D01*
X166877500Y-102880000D01*
X166877500Y-103760000D01*
G36*
X166877500Y-103760000D02*
G01*
X166267500Y-103320000D01*
X166877500Y-102880000D01*
X166877500Y-103760000D01*
G37*
%TO.C,J2*%
X140105000Y-91372500D02*
X129705000Y-91372500D01*
X140105000Y-88352500D02*
X129705000Y-88352500D01*
X140105000Y-83452500D02*
X129705000Y-83452500D01*
X140105000Y-81952500D02*
X129705000Y-81952500D01*
X140105000Y-81332500D02*
X140105000Y-91372500D01*
X137745000Y-81332500D02*
X140105000Y-81332500D01*
X129705000Y-91372500D02*
X129705000Y-81332500D01*
X129705000Y-81332500D02*
X137145000Y-81332500D01*
X137445000Y-81332500D02*
X137005000Y-80722500D01*
X137885000Y-80722500D01*
X137445000Y-81332500D01*
G36*
X137445000Y-81332500D02*
G01*
X137005000Y-80722500D01*
X137885000Y-80722500D01*
X137445000Y-81332500D01*
G37*
%TO.C,C3*%
X150513748Y-104665000D02*
X151036252Y-104665000D01*
X150513748Y-106135000D02*
X151036252Y-106135000D01*
%TO.C,C2*%
X145765000Y-100788748D02*
X145765000Y-101311252D01*
X147235000Y-100788748D02*
X147235000Y-101311252D01*
%TO.C,R1*%
X148150436Y-96980000D02*
X148604564Y-96980000D01*
X148150436Y-98450000D02*
X148604564Y-98450000D01*
%TO.C,D7*%
X166675000Y-91095000D02*
X166675000Y-90075000D01*
X165205000Y-89295000D02*
X168145000Y-89295000D01*
X165205000Y-89175000D02*
X168145000Y-89175000D01*
X165205000Y-89055000D02*
X168145000Y-89055000D01*
X166675000Y-83615000D02*
X166675000Y-84635000D01*
X165205000Y-90075000D02*
X168145000Y-90075000D01*
X168145000Y-84635000D01*
X165205000Y-84635000D01*
X165205000Y-90075000D01*
%TO.C,D9*%
X153185000Y-100090000D02*
X151265000Y-100090000D01*
X151265000Y-100090000D02*
X151265000Y-102775000D01*
X153185000Y-102775000D02*
X153185000Y-100090000D01*
%TO.C,C1*%
X130515000Y-108511252D02*
X130515000Y-107988748D01*
X131985000Y-108511252D02*
X131985000Y-107988748D01*
%TO.C,U1*%
X144590000Y-96230000D02*
X144590000Y-116650000D01*
X142880000Y-96230000D02*
X142880000Y-116650000D01*
X139370000Y-96230000D02*
X144590000Y-96230000D01*
X139370000Y-96940000D02*
X136060000Y-96940000D01*
X139370000Y-97833000D02*
X139370000Y-96230000D01*
X139026000Y-98160000D02*
X136060000Y-98160000D01*
X139026000Y-99480000D02*
X135887000Y-99480000D01*
X139370000Y-100373000D02*
X139370000Y-99807000D01*
X139026000Y-100700000D02*
X135887000Y-100700000D01*
X139026000Y-102020000D02*
X135887000Y-102020000D01*
X139370000Y-102913000D02*
X139370000Y-102347000D01*
X139026000Y-103240000D02*
X135887000Y-103240000D01*
X139026000Y-104560000D02*
X135887000Y-104560000D01*
X144590000Y-104590000D02*
X142880000Y-104590000D01*
X139370000Y-105453000D02*
X139370000Y-104887000D01*
X139026000Y-105780000D02*
X135887000Y-105780000D01*
X139026000Y-107100000D02*
X135887000Y-107100000D01*
X139370000Y-107993000D02*
X139370000Y-107427000D01*
X144590000Y-108290000D02*
X142880000Y-108290000D01*
X139026000Y-108320000D02*
X135887000Y-108320000D01*
X139026000Y-109640000D02*
X135887000Y-109640000D01*
X139370000Y-110533000D02*
X139370000Y-109967000D01*
X139026000Y-110860000D02*
X135887000Y-110860000D01*
X139026000Y-112180000D02*
X135887000Y-112180000D01*
X139370000Y-113073000D02*
X139370000Y-112507000D01*
X139026000Y-113400000D02*
X135887000Y-113400000D01*
X139026000Y-114720000D02*
X135887000Y-114720000D01*
X139370000Y-115940000D02*
X135887000Y-115940000D01*
X144590000Y-116650000D02*
X139370000Y-116650000D01*
X139370000Y-116650000D02*
X139370000Y-115047000D01*
%TO.C,J1*%
X135410000Y-120200000D02*
X135410000Y-118820000D01*
X136790000Y-120200000D02*
X135410000Y-120200000D01*
X138060000Y-120200000D02*
X150870000Y-120200000D01*
X138060000Y-120200000D02*
X138060000Y-117440000D01*
X150870000Y-120200000D02*
X150870000Y-117440000D01*
X138060000Y-117440000D02*
X150870000Y-117440000D01*
%TO.C,D6*%
X162625000Y-109830000D02*
X162625000Y-110850000D01*
X164095000Y-111630000D02*
X161155000Y-111630000D01*
X164095000Y-111750000D02*
X161155000Y-111750000D01*
X164095000Y-111870000D02*
X161155000Y-111870000D01*
X162625000Y-117310000D02*
X162625000Y-116290000D01*
X164095000Y-110850000D02*
X161155000Y-110850000D01*
X161155000Y-116290000D01*
X164095000Y-116290000D01*
X164095000Y-110850000D01*
%TO.C,D2*%
X153475000Y-109960000D02*
X153475000Y-110980000D01*
X154945000Y-111760000D02*
X152005000Y-111760000D01*
X154945000Y-111880000D02*
X152005000Y-111880000D01*
X154945000Y-112000000D02*
X152005000Y-112000000D01*
X153475000Y-117440000D02*
X153475000Y-116420000D01*
X154945000Y-110980000D02*
X152005000Y-110980000D01*
X152005000Y-116420000D01*
X154945000Y-116420000D01*
X154945000Y-110980000D01*
%TO.C,D8*%
X167090000Y-110070000D02*
X167090000Y-111090000D01*
X168560000Y-111870000D02*
X165620000Y-111870000D01*
X168560000Y-111990000D02*
X165620000Y-111990000D01*
X168560000Y-112110000D02*
X165620000Y-112110000D01*
X167090000Y-117550000D02*
X167090000Y-116530000D01*
X168560000Y-111090000D02*
X165620000Y-111090000D01*
X165620000Y-116530000D01*
X168560000Y-116530000D01*
X168560000Y-111090000D01*
%TO.C,R3*%
X152727064Y-98485000D02*
X152272936Y-98485000D01*
X152727064Y-97015000D02*
X152272936Y-97015000D01*
%TO.C,D5*%
X162750000Y-91145000D02*
X162750000Y-90125000D01*
X161280000Y-89345000D02*
X164220000Y-89345000D01*
X161280000Y-89225000D02*
X164220000Y-89225000D01*
X161280000Y-89105000D02*
X164220000Y-89105000D01*
X162750000Y-83665000D02*
X162750000Y-84685000D01*
X161280000Y-90125000D02*
X164220000Y-90125000D01*
X164220000Y-84685000D01*
X161280000Y-84685000D01*
X161280000Y-90125000D01*
%TO.C,D4*%
X158100000Y-109905000D02*
X158100000Y-110925000D01*
X159570000Y-111705000D02*
X156630000Y-111705000D01*
X159570000Y-111825000D02*
X156630000Y-111825000D01*
X159570000Y-111945000D02*
X156630000Y-111945000D01*
X158100000Y-117385000D02*
X158100000Y-116365000D01*
X159570000Y-110925000D02*
X156630000Y-110925000D01*
X156630000Y-116365000D01*
X159570000Y-116365000D01*
X159570000Y-110925000D01*
%TO.C,D1*%
X154275000Y-91145000D02*
X154275000Y-90125000D01*
X152805000Y-89345000D02*
X155745000Y-89345000D01*
X152805000Y-89225000D02*
X155745000Y-89225000D01*
X152805000Y-89105000D02*
X155745000Y-89105000D01*
X154275000Y-83665000D02*
X154275000Y-84685000D01*
X152805000Y-90125000D02*
X155745000Y-90125000D01*
X155745000Y-84685000D01*
X152805000Y-84685000D01*
X152805000Y-90125000D01*
%TO.C,D3*%
X158725000Y-91070000D02*
X158725000Y-90050000D01*
X157255000Y-89270000D02*
X160195000Y-89270000D01*
X157255000Y-89150000D02*
X160195000Y-89150000D01*
X157255000Y-89030000D02*
X160195000Y-89030000D01*
X158725000Y-83590000D02*
X158725000Y-84610000D01*
X157255000Y-90050000D02*
X160195000Y-90050000D01*
X160195000Y-84610000D01*
X157255000Y-84610000D01*
X157255000Y-90050000D01*
%TO.C,R2*%
X148415000Y-101239564D02*
X148415000Y-100785436D01*
X149885000Y-101239564D02*
X149885000Y-100785436D01*
%TD*%
M02*
