M48
; DRILL file {KiCad 9.0.8+dfsg-1} date 2026-09-12T23:52:11+0530
; FORMAT={-:-/ absolute / metric / decimal}
; #@! TF.CreationDate,2026-09-12T23:52:11+05:30
; #@! TF.GenerationSoftware,Kicad,Pcbnew,9.0.8+dfsg-1
; #@! TF.FileFunction,Plated,1,4,PTH
FMAT,2
METRIC
; #@! TA.AperFunction,Plated,PTH,ViaDrill
T1C0.300
; #@! TA.AperFunction,Plated,PTH,ComponentDrill
T2C1.000
; #@! TA.AperFunction,Plated,PTH,ComponentDrill
T3C1.100
; #@! TA.AperFunction,Plated,PTH,ComponentDrill
T4C1.300
%
G90
G05
T1
X130.925Y-119.3
X131.25Y-94.375
X131.475Y-111.05
X133.3Y-106.1
X133.325Y-114.325
X133.8Y-118.875
X137.475Y-99.675
X139.35Y-116.225
X142.475Y-116.075
X143.6Y-105.925
X143.7Y-109.4
X143.725Y-108.25
X143.816Y-116.573
X144.85Y-114.925
X144.9Y-85.0
X145.1Y-98.85
X146.1Y-96.3
X147.525Y-100.1
X148.7Y-105.35
X148.975Y-102.975
X149.175Y-88.4
X149.5Y-117.2
X149.65Y-115.325
X152.35Y-108.975
X152.625Y-95.0
X154.625Y-95.625
X156.575Y-84.0
X157.425Y-96.225
X159.375Y-102.7
X160.675Y-90.6
X164.95Y-91.65
X167.475Y-96.25
T2
X134.9Y-97.55
X134.9Y-100.09
X134.9Y-102.63
X134.9Y-105.17
X134.9Y-107.71
X134.9Y-110.25
X134.9Y-112.79
X134.9Y-115.33
X136.79Y-118.82
X139.33Y-118.82
X139.98Y-98.82
X139.98Y-101.36
X139.98Y-103.9
X139.98Y-106.44
X139.98Y-108.98
X139.98Y-111.52
X139.98Y-114.06
X141.87Y-118.82
X144.41Y-118.82
X146.95Y-118.82
X149.49Y-118.82
T3
X153.475Y-108.62
X153.475Y-118.78
X154.275Y-82.325
X154.275Y-92.485
X158.1Y-108.565
X158.1Y-118.725
X158.725Y-82.25
X158.725Y-92.41
X162.625Y-108.49
X162.625Y-118.65
X162.75Y-82.325
X162.75Y-92.485
X166.675Y-82.275
X166.675Y-92.435
X167.09Y-108.73
X167.09Y-118.89
T4
X132.365Y-86.052
X137.445Y-86.052
X144.025Y-86.025
X149.105Y-86.025
X161.547Y-98.24
X161.547Y-103.32
M30
