%TF.GenerationSoftware,KiCad,Pcbnew,9.0.8+dfsg-1*%
%TF.CreationDate,2026-09-12T23:52:02+05:30*%
%TF.ProjectId,L298N_DC_Motor_Driver,4c323938-4e5f-4444-935f-4d6f746f725f,rev?*%
%TF.SameCoordinates,Original*%
%TF.FileFunction,Soldermask,Bot*%
%TF.FilePolarity,Negative*%
%FSLAX46Y46*%
G04 Gerber Fmt 4.6, Leading zero omitted, Abs format (unit mm)*
G04 Created by KiCad (PCBNEW 9.0.8+dfsg-1) date 2026-09-12 23:52:02*
%MOMM*%
%LPD*%
G01*
G04 APERTURE LIST*
G04 APERTURE END LIST*
G36*
X167346790Y-117820393D02*
G01*
X167510952Y-117873733D01*
X167664748Y-117952096D01*
X167804393Y-118053553D01*
X167926447Y-118175607D01*
X168027904Y-118315252D01*
X168106267Y-118469048D01*
X168159607Y-118633210D01*
X168186609Y-118803695D01*
X168186609Y-118976305D01*
X168159607Y-119146790D01*
X168106267Y-119310952D01*
X168027904Y-119464748D01*
X167926447Y-119604393D01*
X167804393Y-119726447D01*
X167664748Y-119827904D01*
X167510952Y-119906267D01*
X167346790Y-119959607D01*
X167176305Y-119986609D01*
X167003695Y-119986609D01*
X166833210Y-119959607D01*
X166669048Y-119906267D01*
X166515252Y-119827904D01*
X166375607Y-119726447D01*
X166253553Y-119604393D01*
X166152096Y-119464748D01*
X166073733Y-119310952D01*
X166020393Y-119146790D01*
X165993391Y-118976305D01*
X165993391Y-118803695D01*
X166020393Y-118633210D01*
X166073733Y-118469048D01*
X166152096Y-118315252D01*
X166253553Y-118175607D01*
X166375607Y-118053553D01*
X166515252Y-117952096D01*
X166669048Y-117873733D01*
X166833210Y-117820393D01*
X167003695Y-117793391D01*
X167176305Y-117793391D01*
X167346790Y-117820393D01*
G37*
G36*
X153731790Y-117710393D02*
G01*
X153895952Y-117763733D01*
X154049748Y-117842096D01*
X154189393Y-117943553D01*
X154311447Y-118065607D01*
X154412904Y-118205252D01*
X154491267Y-118359048D01*
X154544607Y-118523210D01*
X154571609Y-118693695D01*
X154571609Y-118866305D01*
X154544607Y-119036790D01*
X154491267Y-119200952D01*
X154412904Y-119354748D01*
X154311447Y-119494393D01*
X154189393Y-119616447D01*
X154049748Y-119717904D01*
X153895952Y-119796267D01*
X153731790Y-119849607D01*
X153561305Y-119876609D01*
X153388695Y-119876609D01*
X153218210Y-119849607D01*
X153054048Y-119796267D01*
X152900252Y-119717904D01*
X152760607Y-119616447D01*
X152638553Y-119494393D01*
X152537096Y-119354748D01*
X152458733Y-119200952D01*
X152405393Y-119036790D01*
X152378391Y-118866305D01*
X152378391Y-118693695D01*
X152405393Y-118523210D01*
X152458733Y-118359048D01*
X152537096Y-118205252D01*
X152638553Y-118065607D01*
X152760607Y-117943553D01*
X152900252Y-117842096D01*
X153054048Y-117763733D01*
X153218210Y-117710393D01*
X153388695Y-117683391D01*
X153561305Y-117683391D01*
X153731790Y-117710393D01*
G37*
G36*
X158356790Y-117655393D02*
G01*
X158520952Y-117708733D01*
X158674748Y-117787096D01*
X158814393Y-117888553D01*
X158936447Y-118010607D01*
X159037904Y-118150252D01*
X159116267Y-118304048D01*
X159169607Y-118468210D01*
X159196609Y-118638695D01*
X159196609Y-118811305D01*
X159169607Y-118981790D01*
X159116267Y-119145952D01*
X159037904Y-119299748D01*
X158936447Y-119439393D01*
X158814393Y-119561447D01*
X158674748Y-119662904D01*
X158520952Y-119741267D01*
X158356790Y-119794607D01*
X158186305Y-119821609D01*
X158013695Y-119821609D01*
X157843210Y-119794607D01*
X157679048Y-119741267D01*
X157525252Y-119662904D01*
X157385607Y-119561447D01*
X157263553Y-119439393D01*
X157162096Y-119299748D01*
X157083733Y-119145952D01*
X157030393Y-118981790D01*
X157003391Y-118811305D01*
X157003391Y-118638695D01*
X157030393Y-118468210D01*
X157083733Y-118304048D01*
X157162096Y-118150252D01*
X157263553Y-118010607D01*
X157385607Y-117888553D01*
X157525252Y-117787096D01*
X157679048Y-117708733D01*
X157843210Y-117655393D01*
X158013695Y-117628391D01*
X158186305Y-117628391D01*
X158356790Y-117655393D01*
G37*
G36*
X162881790Y-117580393D02*
G01*
X163045952Y-117633733D01*
X163199748Y-117712096D01*
X163339393Y-117813553D01*
X163461447Y-117935607D01*
X163562904Y-118075252D01*
X163641267Y-118229048D01*
X163694607Y-118393210D01*
X163721609Y-118563695D01*
X163721609Y-118736305D01*
X163694607Y-118906790D01*
X163641267Y-119070952D01*
X163562904Y-119224748D01*
X163461447Y-119364393D01*
X163339393Y-119486447D01*
X163199748Y-119587904D01*
X163045952Y-119666267D01*
X162881790Y-119719607D01*
X162711305Y-119746609D01*
X162538695Y-119746609D01*
X162368210Y-119719607D01*
X162204048Y-119666267D01*
X162050252Y-119587904D01*
X161910607Y-119486447D01*
X161788553Y-119364393D01*
X161687096Y-119224748D01*
X161608733Y-119070952D01*
X161555393Y-118906790D01*
X161528391Y-118736305D01*
X161528391Y-118563695D01*
X161555393Y-118393210D01*
X161608733Y-118229048D01*
X161687096Y-118075252D01*
X161788553Y-117935607D01*
X161910607Y-117813553D01*
X162050252Y-117712096D01*
X162204048Y-117633733D01*
X162368210Y-117580393D01*
X162538695Y-117553391D01*
X162711305Y-117553391D01*
X162881790Y-117580393D01*
G37*
G36*
X137640000Y-119670000D02*
G01*
X135940000Y-119670000D01*
X135940000Y-117970000D01*
X137640000Y-117970000D01*
X137640000Y-119670000D01*
G37*
G36*
X139576742Y-118006601D02*
G01*
X139730687Y-118070367D01*
X139869234Y-118162941D01*
X139987059Y-118280766D01*
X140079633Y-118419313D01*
X140143399Y-118573258D01*
X140175907Y-118736685D01*
X140175907Y-118903315D01*
X140143399Y-119066742D01*
X140079633Y-119220687D01*
X139987059Y-119359234D01*
X139869234Y-119477059D01*
X139730687Y-119569633D01*
X139576742Y-119633399D01*
X139413315Y-119665907D01*
X139246685Y-119665907D01*
X139083258Y-119633399D01*
X138929313Y-119569633D01*
X138790766Y-119477059D01*
X138672941Y-119359234D01*
X138580367Y-119220687D01*
X138516601Y-119066742D01*
X138484093Y-118903315D01*
X138484093Y-118736685D01*
X138516601Y-118573258D01*
X138580367Y-118419313D01*
X138672941Y-118280766D01*
X138790766Y-118162941D01*
X138929313Y-118070367D01*
X139083258Y-118006601D01*
X139246685Y-117974093D01*
X139413315Y-117974093D01*
X139576742Y-118006601D01*
G37*
G36*
X142116742Y-118006601D02*
G01*
X142270687Y-118070367D01*
X142409234Y-118162941D01*
X142527059Y-118280766D01*
X142619633Y-118419313D01*
X142683399Y-118573258D01*
X142715907Y-118736685D01*
X142715907Y-118903315D01*
X142683399Y-119066742D01*
X142619633Y-119220687D01*
X142527059Y-119359234D01*
X142409234Y-119477059D01*
X142270687Y-119569633D01*
X142116742Y-119633399D01*
X141953315Y-119665907D01*
X141786685Y-119665907D01*
X141623258Y-119633399D01*
X141469313Y-119569633D01*
X141330766Y-119477059D01*
X141212941Y-119359234D01*
X141120367Y-119220687D01*
X141056601Y-119066742D01*
X141024093Y-118903315D01*
X141024093Y-118736685D01*
X141056601Y-118573258D01*
X141120367Y-118419313D01*
X141212941Y-118280766D01*
X141330766Y-118162941D01*
X141469313Y-118070367D01*
X141623258Y-118006601D01*
X141786685Y-117974093D01*
X141953315Y-117974093D01*
X142116742Y-118006601D01*
G37*
G36*
X144656742Y-118006601D02*
G01*
X144810687Y-118070367D01*
X144949234Y-118162941D01*
X145067059Y-118280766D01*
X145159633Y-118419313D01*
X145223399Y-118573258D01*
X145255907Y-118736685D01*
X145255907Y-118903315D01*
X145223399Y-119066742D01*
X145159633Y-119220687D01*
X145067059Y-119359234D01*
X144949234Y-119477059D01*
X144810687Y-119569633D01*
X144656742Y-119633399D01*
X144493315Y-119665907D01*
X144326685Y-119665907D01*
X144163258Y-119633399D01*
X144009313Y-119569633D01*
X143870766Y-119477059D01*
X143752941Y-119359234D01*
X143660367Y-119220687D01*
X143596601Y-119066742D01*
X143564093Y-118903315D01*
X143564093Y-118736685D01*
X143596601Y-118573258D01*
X143660367Y-118419313D01*
X143752941Y-118280766D01*
X143870766Y-118162941D01*
X144009313Y-118070367D01*
X144163258Y-118006601D01*
X144326685Y-117974093D01*
X144493315Y-117974093D01*
X144656742Y-118006601D01*
G37*
G36*
X147196742Y-118006601D02*
G01*
X147350687Y-118070367D01*
X147489234Y-118162941D01*
X147607059Y-118280766D01*
X147699633Y-118419313D01*
X147763399Y-118573258D01*
X147795907Y-118736685D01*
X147795907Y-118903315D01*
X147763399Y-119066742D01*
X147699633Y-119220687D01*
X147607059Y-119359234D01*
X147489234Y-119477059D01*
X147350687Y-119569633D01*
X147196742Y-119633399D01*
X147033315Y-119665907D01*
X146866685Y-119665907D01*
X146703258Y-119633399D01*
X146549313Y-119569633D01*
X146410766Y-119477059D01*
X146292941Y-119359234D01*
X146200367Y-119220687D01*
X146136601Y-119066742D01*
X146104093Y-118903315D01*
X146104093Y-118736685D01*
X146136601Y-118573258D01*
X146200367Y-118419313D01*
X146292941Y-118280766D01*
X146410766Y-118162941D01*
X146549313Y-118070367D01*
X146703258Y-118006601D01*
X146866685Y-117974093D01*
X147033315Y-117974093D01*
X147196742Y-118006601D01*
G37*
G36*
X149736742Y-118006601D02*
G01*
X149890687Y-118070367D01*
X150029234Y-118162941D01*
X150147059Y-118280766D01*
X150239633Y-118419313D01*
X150303399Y-118573258D01*
X150335907Y-118736685D01*
X150335907Y-118903315D01*
X150303399Y-119066742D01*
X150239633Y-119220687D01*
X150147059Y-119359234D01*
X150029234Y-119477059D01*
X149890687Y-119569633D01*
X149736742Y-119633399D01*
X149573315Y-119665907D01*
X149406685Y-119665907D01*
X149243258Y-119633399D01*
X149089313Y-119569633D01*
X148950766Y-119477059D01*
X148832941Y-119359234D01*
X148740367Y-119220687D01*
X148676601Y-119066742D01*
X148644093Y-118903315D01*
X148644093Y-118736685D01*
X148676601Y-118573258D01*
X148740367Y-118419313D01*
X148832941Y-118280766D01*
X148950766Y-118162941D01*
X149089313Y-118070367D01*
X149243258Y-118006601D01*
X149406685Y-117974093D01*
X149573315Y-117974093D01*
X149736742Y-118006601D01*
G37*
G36*
X135161256Y-114468754D02*
G01*
X135324257Y-114536271D01*
X135470954Y-114634291D01*
X135595709Y-114759046D01*
X135693729Y-114905743D01*
X135761246Y-115068744D01*
X135795666Y-115241785D01*
X135795666Y-115418215D01*
X135761246Y-115591256D01*
X135693729Y-115754257D01*
X135595709Y-115900954D01*
X135470954Y-116025709D01*
X135324257Y-116123729D01*
X135161256Y-116191246D01*
X134988215Y-116225666D01*
X134811785Y-116225666D01*
X134638744Y-116191246D01*
X134475743Y-116123729D01*
X134329046Y-116025709D01*
X134204291Y-115900954D01*
X134106271Y-115754257D01*
X134038754Y-115591256D01*
X134004334Y-115418215D01*
X134004334Y-115241785D01*
X134038754Y-115068744D01*
X134106271Y-114905743D01*
X134204291Y-114759046D01*
X134329046Y-114634291D01*
X134475743Y-114536271D01*
X134638744Y-114468754D01*
X134811785Y-114434334D01*
X134988215Y-114434334D01*
X135161256Y-114468754D01*
G37*
G36*
X140241256Y-113198754D02*
G01*
X140404257Y-113266271D01*
X140550954Y-113364291D01*
X140675709Y-113489046D01*
X140773729Y-113635743D01*
X140841246Y-113798744D01*
X140875666Y-113971785D01*
X140875666Y-114148215D01*
X140841246Y-114321256D01*
X140773729Y-114484257D01*
X140675709Y-114630954D01*
X140550954Y-114755709D01*
X140404257Y-114853729D01*
X140241256Y-114921246D01*
X140068215Y-114955666D01*
X139891785Y-114955666D01*
X139718744Y-114921246D01*
X139555743Y-114853729D01*
X139409046Y-114755709D01*
X139284291Y-114630954D01*
X139186271Y-114484257D01*
X139118754Y-114321256D01*
X139084334Y-114148215D01*
X139084334Y-113971785D01*
X139118754Y-113798744D01*
X139186271Y-113635743D01*
X139284291Y-113489046D01*
X139409046Y-113364291D01*
X139555743Y-113266271D01*
X139718744Y-113198754D01*
X139891785Y-113164334D01*
X140068215Y-113164334D01*
X140241256Y-113198754D01*
G37*
G36*
X135161256Y-111928754D02*
G01*
X135324257Y-111996271D01*
X135470954Y-112094291D01*
X135595709Y-112219046D01*
X135693729Y-112365743D01*
X135761246Y-112528744D01*
X135795666Y-112701785D01*
X135795666Y-112878215D01*
X135761246Y-113051256D01*
X135693729Y-113214257D01*
X135595709Y-113360954D01*
X135470954Y-113485709D01*
X135324257Y-113583729D01*
X135161256Y-113651246D01*
X134988215Y-113685666D01*
X134811785Y-113685666D01*
X134638744Y-113651246D01*
X134475743Y-113583729D01*
X134329046Y-113485709D01*
X134204291Y-113360954D01*
X134106271Y-113214257D01*
X134038754Y-113051256D01*
X134004334Y-112878215D01*
X134004334Y-112701785D01*
X134038754Y-112528744D01*
X134106271Y-112365743D01*
X134204291Y-112219046D01*
X134329046Y-112094291D01*
X134475743Y-111996271D01*
X134638744Y-111928754D01*
X134811785Y-111894334D01*
X134988215Y-111894334D01*
X135161256Y-111928754D01*
G37*
G36*
X140241256Y-110658754D02*
G01*
X140404257Y-110726271D01*
X140550954Y-110824291D01*
X140675709Y-110949046D01*
X140773729Y-111095743D01*
X140841246Y-111258744D01*
X140875666Y-111431785D01*
X140875666Y-111608215D01*
X140841246Y-111781256D01*
X140773729Y-111944257D01*
X140675709Y-112090954D01*
X140550954Y-112215709D01*
X140404257Y-112313729D01*
X140241256Y-112381246D01*
X140068215Y-112415666D01*
X139891785Y-112415666D01*
X139718744Y-112381246D01*
X139555743Y-112313729D01*
X139409046Y-112215709D01*
X139284291Y-112090954D01*
X139186271Y-111944257D01*
X139118754Y-111781256D01*
X139084334Y-111608215D01*
X139084334Y-111431785D01*
X139118754Y-111258744D01*
X139186271Y-111095743D01*
X139284291Y-110949046D01*
X139409046Y-110824291D01*
X139555743Y-110726271D01*
X139718744Y-110658754D01*
X139891785Y-110624334D01*
X140068215Y-110624334D01*
X140241256Y-110658754D01*
G37*
G36*
X135161256Y-109388754D02*
G01*
X135324257Y-109456271D01*
X135470954Y-109554291D01*
X135595709Y-109679046D01*
X135693729Y-109825743D01*
X135761246Y-109988744D01*
X135795666Y-110161785D01*
X135795666Y-110338215D01*
X135761246Y-110511256D01*
X135693729Y-110674257D01*
X135595709Y-110820954D01*
X135470954Y-110945709D01*
X135324257Y-111043729D01*
X135161256Y-111111246D01*
X134988215Y-111145666D01*
X134811785Y-111145666D01*
X134638744Y-111111246D01*
X134475743Y-111043729D01*
X134329046Y-110945709D01*
X134204291Y-110820954D01*
X134106271Y-110674257D01*
X134038754Y-110511256D01*
X134004334Y-110338215D01*
X134004334Y-110161785D01*
X134038754Y-109988744D01*
X134106271Y-109825743D01*
X134204291Y-109679046D01*
X134329046Y-109554291D01*
X134475743Y-109456271D01*
X134638744Y-109388754D01*
X134811785Y-109354334D01*
X134988215Y-109354334D01*
X135161256Y-109388754D01*
G37*
G36*
X140241256Y-108118754D02*
G01*
X140404257Y-108186271D01*
X140550954Y-108284291D01*
X140675709Y-108409046D01*
X140773729Y-108555743D01*
X140841246Y-108718744D01*
X140875666Y-108891785D01*
X140875666Y-109068215D01*
X140841246Y-109241256D01*
X140773729Y-109404257D01*
X140675709Y-109550954D01*
X140550954Y-109675709D01*
X140404257Y-109773729D01*
X140241256Y-109841246D01*
X140068215Y-109875666D01*
X139891785Y-109875666D01*
X139718744Y-109841246D01*
X139555743Y-109773729D01*
X139409046Y-109675709D01*
X139284291Y-109550954D01*
X139186271Y-109404257D01*
X139118754Y-109241256D01*
X139084334Y-109068215D01*
X139084334Y-108891785D01*
X139118754Y-108718744D01*
X139186271Y-108555743D01*
X139284291Y-108409046D01*
X139409046Y-108284291D01*
X139555743Y-108186271D01*
X139718744Y-108118754D01*
X139891785Y-108084334D01*
X140068215Y-108084334D01*
X140241256Y-108118754D01*
G37*
G36*
X167944850Y-107630964D02*
G01*
X167995041Y-107636787D01*
X168012191Y-107644359D01*
X168035671Y-107649030D01*
X168060806Y-107665825D01*
X168080696Y-107674607D01*
X168094280Y-107688191D01*
X168116777Y-107703223D01*
X168131808Y-107725719D01*
X168145392Y-107739303D01*
X168154173Y-107759190D01*
X168170970Y-107784329D01*
X168175640Y-107807809D01*
X168183212Y-107824958D01*
X168189036Y-107875161D01*
X168189999Y-107880000D01*
X168189999Y-107883456D01*
X168190000Y-107883465D01*
X168190000Y-108891785D01*
X168190000Y-109580001D01*
X168189034Y-109584853D01*
X168183212Y-109635041D01*
X168175641Y-109652187D01*
X168170970Y-109675671D01*
X168154171Y-109700811D01*
X168145392Y-109720696D01*
X168131810Y-109734277D01*
X168116777Y-109756777D01*
X168094277Y-109771810D01*
X168080696Y-109785392D01*
X168060811Y-109794171D01*
X168035671Y-109810970D01*
X168012188Y-109815640D01*
X167995041Y-109823212D01*
X167944838Y-109829036D01*
X167940000Y-109829999D01*
X167936543Y-109829999D01*
X167936535Y-109830000D01*
X166243465Y-109830000D01*
X166243464Y-109829999D01*
X166239999Y-109830000D01*
X166235147Y-109829035D01*
X166184958Y-109823212D01*
X166167810Y-109815640D01*
X166144329Y-109810970D01*
X166119190Y-109794173D01*
X166099303Y-109785392D01*
X166085719Y-109771808D01*
X166063223Y-109756777D01*
X166048191Y-109734280D01*
X166034607Y-109720696D01*
X166025825Y-109700806D01*
X166009030Y-109675671D01*
X166004360Y-109652192D01*
X165996787Y-109635041D01*
X165990963Y-109584838D01*
X165990001Y-109580000D01*
X165990000Y-109576542D01*
X165990000Y-109576534D01*
X165990000Y-107883465D01*
X165990000Y-107883464D01*
X165990000Y-107879999D01*
X165990964Y-107875149D01*
X165996787Y-107824958D01*
X166004359Y-107807806D01*
X166009030Y-107784329D01*
X166025823Y-107759194D01*
X166034607Y-107739303D01*
X166048193Y-107725716D01*
X166063223Y-107703223D01*
X166085716Y-107688193D01*
X166099303Y-107674607D01*
X166119194Y-107665823D01*
X166144329Y-107649030D01*
X166167805Y-107644360D01*
X166184958Y-107636787D01*
X166235163Y-107630963D01*
X166240000Y-107630001D01*
X166243456Y-107630000D01*
X166243465Y-107630000D01*
X167936535Y-107630000D01*
X167940001Y-107630000D01*
X167944850Y-107630964D01*
G37*
G36*
X154329850Y-107520964D02*
G01*
X154380041Y-107526787D01*
X154397191Y-107534359D01*
X154420671Y-107539030D01*
X154445806Y-107555825D01*
X154465696Y-107564607D01*
X154479280Y-107578191D01*
X154501777Y-107593223D01*
X154516808Y-107615719D01*
X154530392Y-107629303D01*
X154539173Y-107649190D01*
X154555970Y-107674329D01*
X154560640Y-107697809D01*
X154568212Y-107714958D01*
X154574036Y-107765161D01*
X154574999Y-107770000D01*
X154574999Y-107773456D01*
X154575000Y-107773465D01*
X154575000Y-108718744D01*
X154575000Y-109470001D01*
X154574034Y-109474853D01*
X154568212Y-109525041D01*
X154560641Y-109542187D01*
X154555970Y-109565671D01*
X154539171Y-109590811D01*
X154530392Y-109610696D01*
X154516810Y-109624277D01*
X154501777Y-109646777D01*
X154479277Y-109661810D01*
X154465696Y-109675392D01*
X154445811Y-109684171D01*
X154420671Y-109700970D01*
X154397188Y-109705640D01*
X154380041Y-109713212D01*
X154329838Y-109719036D01*
X154325000Y-109719999D01*
X154321543Y-109719999D01*
X154321535Y-109720000D01*
X152628465Y-109720000D01*
X152628464Y-109719999D01*
X152624999Y-109720000D01*
X152620147Y-109719035D01*
X152569958Y-109713212D01*
X152552810Y-109705640D01*
X152529329Y-109700970D01*
X152504190Y-109684173D01*
X152484303Y-109675392D01*
X152470719Y-109661808D01*
X152448223Y-109646777D01*
X152433191Y-109624280D01*
X152419607Y-109610696D01*
X152410825Y-109590806D01*
X152394030Y-109565671D01*
X152389360Y-109542192D01*
X152381787Y-109525041D01*
X152375963Y-109474838D01*
X152375001Y-109470000D01*
X152375000Y-109466542D01*
X152375000Y-109466534D01*
X152375000Y-107773465D01*
X152375000Y-107773464D01*
X152375000Y-107769999D01*
X152375964Y-107765149D01*
X152381787Y-107714958D01*
X152389359Y-107697806D01*
X152394030Y-107674329D01*
X152410823Y-107649194D01*
X152419607Y-107629303D01*
X152433193Y-107615716D01*
X152448223Y-107593223D01*
X152470716Y-107578193D01*
X152484303Y-107564607D01*
X152504194Y-107555823D01*
X152529329Y-107539030D01*
X152552805Y-107534360D01*
X152569958Y-107526787D01*
X152620163Y-107520963D01*
X152625000Y-107520001D01*
X152628456Y-107520000D01*
X152628465Y-107520000D01*
X154321535Y-107520000D01*
X154325001Y-107520000D01*
X154329850Y-107520964D01*
G37*
G36*
X158954850Y-107465964D02*
G01*
X159005041Y-107471787D01*
X159022191Y-107479359D01*
X159045671Y-107484030D01*
X159070806Y-107500825D01*
X159090696Y-107509607D01*
X159104280Y-107523191D01*
X159126777Y-107538223D01*
X159141808Y-107560719D01*
X159155392Y-107574303D01*
X159164173Y-107594190D01*
X159180970Y-107619329D01*
X159185640Y-107642809D01*
X159193212Y-107659958D01*
X159199036Y-107710161D01*
X159199999Y-107715000D01*
X159199999Y-107718456D01*
X159200000Y-107718465D01*
X159200000Y-108570969D01*
X159200000Y-109415001D01*
X159199034Y-109419853D01*
X159193212Y-109470041D01*
X159185641Y-109487187D01*
X159180970Y-109510671D01*
X159164171Y-109535811D01*
X159155392Y-109555696D01*
X159141810Y-109569277D01*
X159126777Y-109591777D01*
X159104277Y-109606810D01*
X159090696Y-109620392D01*
X159070811Y-109629171D01*
X159045671Y-109645970D01*
X159022188Y-109650640D01*
X159005041Y-109658212D01*
X158954838Y-109664036D01*
X158950000Y-109664999D01*
X158946543Y-109664999D01*
X158946535Y-109665000D01*
X157253465Y-109665000D01*
X157253464Y-109664999D01*
X157249999Y-109665000D01*
X157245147Y-109664035D01*
X157194958Y-109658212D01*
X157177810Y-109650640D01*
X157154329Y-109645970D01*
X157129190Y-109629173D01*
X157109303Y-109620392D01*
X157095719Y-109606808D01*
X157073223Y-109591777D01*
X157058191Y-109569280D01*
X157044607Y-109555696D01*
X157035825Y-109535806D01*
X157019030Y-109510671D01*
X157014360Y-109487192D01*
X157006787Y-109470041D01*
X157000963Y-109419838D01*
X157000001Y-109415000D01*
X157000000Y-109411542D01*
X157000000Y-109411534D01*
X157000000Y-107718465D01*
X157000000Y-107718464D01*
X157000000Y-107714999D01*
X157000964Y-107710149D01*
X157006787Y-107659958D01*
X157014359Y-107642806D01*
X157019030Y-107619329D01*
X157035823Y-107594194D01*
X157044607Y-107574303D01*
X157058193Y-107560716D01*
X157073223Y-107538223D01*
X157095716Y-107523193D01*
X157109303Y-107509607D01*
X157129194Y-107500823D01*
X157154329Y-107484030D01*
X157177805Y-107479360D01*
X157194958Y-107471787D01*
X157245163Y-107465963D01*
X157250000Y-107465001D01*
X157253456Y-107465000D01*
X157253465Y-107465000D01*
X158946535Y-107465000D01*
X158950001Y-107465000D01*
X158954850Y-107465964D01*
G37*
G36*
X163479850Y-107390964D02*
G01*
X163530041Y-107396787D01*
X163547191Y-107404359D01*
X163570671Y-107409030D01*
X163595806Y-107425825D01*
X163615696Y-107434607D01*
X163629280Y-107448191D01*
X163651777Y-107463223D01*
X163666808Y-107485719D01*
X163680392Y-107499303D01*
X163689173Y-107519190D01*
X163705970Y-107544329D01*
X163710640Y-107567809D01*
X163718212Y-107584958D01*
X163724036Y-107635161D01*
X163724999Y-107640000D01*
X163724999Y-107643456D01*
X163725000Y-107643465D01*
X163725000Y-108503472D01*
X163725000Y-109340001D01*
X163724034Y-109344853D01*
X163718212Y-109395041D01*
X163710641Y-109412187D01*
X163705970Y-109435671D01*
X163689171Y-109460811D01*
X163680392Y-109480696D01*
X163666810Y-109494277D01*
X163651777Y-109516777D01*
X163629277Y-109531810D01*
X163615696Y-109545392D01*
X163595811Y-109554171D01*
X163570671Y-109570970D01*
X163547188Y-109575640D01*
X163530041Y-109583212D01*
X163479838Y-109589036D01*
X163475000Y-109589999D01*
X163471543Y-109589999D01*
X163471535Y-109590000D01*
X161778465Y-109590000D01*
X161778464Y-109589999D01*
X161774999Y-109590000D01*
X161770147Y-109589035D01*
X161719958Y-109583212D01*
X161702810Y-109575640D01*
X161679329Y-109570970D01*
X161654190Y-109554173D01*
X161634303Y-109545392D01*
X161620719Y-109531808D01*
X161598223Y-109516777D01*
X161583191Y-109494280D01*
X161569607Y-109480696D01*
X161560825Y-109460806D01*
X161544030Y-109435671D01*
X161539360Y-109412192D01*
X161531787Y-109395041D01*
X161525963Y-109344838D01*
X161525001Y-109340000D01*
X161525000Y-109336542D01*
X161525000Y-109336534D01*
X161525000Y-107643465D01*
X161525000Y-107643464D01*
X161525000Y-107639999D01*
X161525964Y-107635149D01*
X161531787Y-107584958D01*
X161539359Y-107567806D01*
X161544030Y-107544329D01*
X161560823Y-107519194D01*
X161569607Y-107499303D01*
X161583193Y-107485716D01*
X161598223Y-107463223D01*
X161620716Y-107448193D01*
X161634303Y-107434607D01*
X161654194Y-107425823D01*
X161679329Y-107409030D01*
X161702805Y-107404360D01*
X161719958Y-107396787D01*
X161770163Y-107390963D01*
X161775000Y-107390001D01*
X161778456Y-107390000D01*
X161778465Y-107390000D01*
X163471535Y-107390000D01*
X163475001Y-107390000D01*
X163479850Y-107390964D01*
G37*
G36*
X135161256Y-106848754D02*
G01*
X135324257Y-106916271D01*
X135470954Y-107014291D01*
X135595709Y-107139046D01*
X135693729Y-107285743D01*
X135761246Y-107448744D01*
X135795666Y-107621785D01*
X135795666Y-107798215D01*
X135761246Y-107971256D01*
X135693729Y-108134257D01*
X135595709Y-108280954D01*
X135470954Y-108405709D01*
X135324257Y-108503729D01*
X135161256Y-108571246D01*
X134988215Y-108605666D01*
X134811785Y-108605666D01*
X134638744Y-108571246D01*
X134475743Y-108503729D01*
X134329046Y-108405709D01*
X134204291Y-108280954D01*
X134106271Y-108134257D01*
X134038754Y-107971256D01*
X134004334Y-107798215D01*
X134004334Y-107621785D01*
X134038754Y-107448744D01*
X134106271Y-107285743D01*
X134204291Y-107139046D01*
X134329046Y-107014291D01*
X134475743Y-106916271D01*
X134638744Y-106848754D01*
X134811785Y-106814334D01*
X134988215Y-106814334D01*
X135161256Y-106848754D01*
G37*
G36*
X140241256Y-105578754D02*
G01*
X140404257Y-105646271D01*
X140550954Y-105744291D01*
X140675709Y-105869046D01*
X140773729Y-106015743D01*
X140841246Y-106178744D01*
X140875666Y-106351785D01*
X140875666Y-106528215D01*
X140841246Y-106701256D01*
X140773729Y-106864257D01*
X140675709Y-107010954D01*
X140550954Y-107135709D01*
X140404257Y-107233729D01*
X140241256Y-107301246D01*
X140068215Y-107335666D01*
X139891785Y-107335666D01*
X139718744Y-107301246D01*
X139555743Y-107233729D01*
X139409046Y-107135709D01*
X139284291Y-107010954D01*
X139186271Y-106864257D01*
X139118754Y-106701256D01*
X139084334Y-106528215D01*
X139084334Y-106351785D01*
X139118754Y-106178744D01*
X139186271Y-106015743D01*
X139284291Y-105869046D01*
X139409046Y-105744291D01*
X139555743Y-105646271D01*
X139718744Y-105578754D01*
X139891785Y-105544334D01*
X140068215Y-105544334D01*
X140241256Y-105578754D01*
G37*
G36*
X135161256Y-104308754D02*
G01*
X135324257Y-104376271D01*
X135470954Y-104474291D01*
X135595709Y-104599046D01*
X135693729Y-104745743D01*
X135761246Y-104908744D01*
X135795666Y-105081785D01*
X135795666Y-105258215D01*
X135761246Y-105431256D01*
X135693729Y-105594257D01*
X135595709Y-105740954D01*
X135470954Y-105865709D01*
X135324257Y-105963729D01*
X135161256Y-106031246D01*
X134988215Y-106065666D01*
X134811785Y-106065666D01*
X134638744Y-106031246D01*
X134475743Y-105963729D01*
X134329046Y-105865709D01*
X134204291Y-105740954D01*
X134106271Y-105594257D01*
X134038754Y-105431256D01*
X134004334Y-105258215D01*
X134004334Y-105081785D01*
X134038754Y-104908744D01*
X134106271Y-104745743D01*
X134204291Y-104599046D01*
X134329046Y-104474291D01*
X134475743Y-104376271D01*
X134638744Y-104308754D01*
X134811785Y-104274334D01*
X134988215Y-104274334D01*
X135161256Y-104308754D01*
G37*
G36*
X140241256Y-103038754D02*
G01*
X140404257Y-103106271D01*
X140550954Y-103204291D01*
X140675709Y-103329046D01*
X140773729Y-103475743D01*
X140841246Y-103638744D01*
X140875666Y-103811785D01*
X140875666Y-103988215D01*
X140841246Y-104161256D01*
X140773729Y-104324257D01*
X140675709Y-104470954D01*
X140550954Y-104595709D01*
X140404257Y-104693729D01*
X140241256Y-104761246D01*
X140068215Y-104795666D01*
X139891785Y-104795666D01*
X139718744Y-104761246D01*
X139555743Y-104693729D01*
X139409046Y-104595709D01*
X139284291Y-104470954D01*
X139186271Y-104324257D01*
X139118754Y-104161256D01*
X139084334Y-103988215D01*
X139084334Y-103811785D01*
X139118754Y-103638744D01*
X139186271Y-103475743D01*
X139284291Y-103329046D01*
X139409046Y-103204291D01*
X139555743Y-103106271D01*
X139718744Y-103038754D01*
X139891785Y-103004334D01*
X140068215Y-103004334D01*
X140241256Y-103038754D01*
G37*
G36*
X162653771Y-102021560D02*
G01*
X162673286Y-102030176D01*
X162695045Y-102034505D01*
X162718337Y-102050068D01*
X162741231Y-102060177D01*
X162756867Y-102075813D01*
X162777740Y-102089760D01*
X162791686Y-102110632D01*
X162807322Y-102126268D01*
X162817429Y-102149158D01*
X162832995Y-102172455D01*
X162837323Y-102194217D01*
X162845937Y-102213725D01*
X162847499Y-102227186D01*
X162847499Y-102245370D01*
X162847500Y-102245376D01*
X162847500Y-104394624D01*
X162847499Y-104394629D01*
X162847499Y-104412818D01*
X162845939Y-104426271D01*
X162837323Y-104445782D01*
X162832995Y-104467545D01*
X162817428Y-104490842D01*
X162807322Y-104513731D01*
X162791688Y-104529364D01*
X162777740Y-104550240D01*
X162756864Y-104564188D01*
X162741231Y-104579822D01*
X162718343Y-104589927D01*
X162695045Y-104605495D01*
X162673280Y-104609824D01*
X162653774Y-104618437D01*
X162640313Y-104619999D01*
X162622129Y-104619999D01*
X162622124Y-104620000D01*
X160472876Y-104620000D01*
X160472871Y-104619999D01*
X160454681Y-104619999D01*
X160441228Y-104618439D01*
X160421715Y-104609823D01*
X160399955Y-104605495D01*
X160376659Y-104589929D01*
X160353768Y-104579822D01*
X160338132Y-104564186D01*
X160317260Y-104550240D01*
X160303313Y-104529367D01*
X160287677Y-104513731D01*
X160277569Y-104490838D01*
X160262005Y-104467545D01*
X160257676Y-104445784D01*
X160249062Y-104426274D01*
X160247500Y-104412813D01*
X160247500Y-102227181D01*
X160249060Y-102213728D01*
X160257677Y-102194211D01*
X160262005Y-102172455D01*
X160277567Y-102149164D01*
X160287677Y-102126268D01*
X160303315Y-102110629D01*
X160317260Y-102089760D01*
X160338129Y-102075815D01*
X160353768Y-102060177D01*
X160376663Y-102050068D01*
X160399955Y-102034505D01*
X160421713Y-102030176D01*
X160441225Y-102021562D01*
X160454686Y-102020000D01*
X162640318Y-102020000D01*
X162653771Y-102021560D01*
G37*
G36*
X135161256Y-101768754D02*
G01*
X135324257Y-101836271D01*
X135470954Y-101934291D01*
X135595709Y-102059046D01*
X135693729Y-102205743D01*
X135761246Y-102368744D01*
X135795666Y-102541785D01*
X135795666Y-102718215D01*
X135761246Y-102891256D01*
X135693729Y-103054257D01*
X135595709Y-103200954D01*
X135470954Y-103325709D01*
X135324257Y-103423729D01*
X135161256Y-103491246D01*
X134988215Y-103525666D01*
X134811785Y-103525666D01*
X134638744Y-103491246D01*
X134475743Y-103423729D01*
X134329046Y-103325709D01*
X134204291Y-103200954D01*
X134106271Y-103054257D01*
X134038754Y-102891256D01*
X134004334Y-102718215D01*
X134004334Y-102541785D01*
X134038754Y-102368744D01*
X134106271Y-102205743D01*
X134204291Y-102059046D01*
X134329046Y-101934291D01*
X134475743Y-101836271D01*
X134638744Y-101768754D01*
X134811785Y-101734334D01*
X134988215Y-101734334D01*
X135161256Y-101768754D01*
G37*
G36*
X140241256Y-100498754D02*
G01*
X140404257Y-100566271D01*
X140550954Y-100664291D01*
X140675709Y-100789046D01*
X140773729Y-100935743D01*
X140841246Y-101098744D01*
X140875666Y-101271785D01*
X140875666Y-101448215D01*
X140841246Y-101621256D01*
X140773729Y-101784257D01*
X140675709Y-101930954D01*
X140550954Y-102055709D01*
X140404257Y-102153729D01*
X140241256Y-102221246D01*
X140068215Y-102255666D01*
X139891785Y-102255666D01*
X139718744Y-102221246D01*
X139555743Y-102153729D01*
X139409046Y-102055709D01*
X139284291Y-101930954D01*
X139186271Y-101784257D01*
X139118754Y-101621256D01*
X139084334Y-101448215D01*
X139084334Y-101271785D01*
X139118754Y-101098744D01*
X139186271Y-100935743D01*
X139284291Y-100789046D01*
X139409046Y-100664291D01*
X139555743Y-100566271D01*
X139718744Y-100498754D01*
X139891785Y-100464334D01*
X140068215Y-100464334D01*
X140241256Y-100498754D01*
G37*
G36*
X135161256Y-99228754D02*
G01*
X135324257Y-99296271D01*
X135470954Y-99394291D01*
X135595709Y-99519046D01*
X135693729Y-99665743D01*
X135761246Y-99828744D01*
X135795666Y-100001785D01*
X135795666Y-100178215D01*
X135761246Y-100351256D01*
X135693729Y-100514257D01*
X135595709Y-100660954D01*
X135470954Y-100785709D01*
X135324257Y-100883729D01*
X135161256Y-100951246D01*
X134988215Y-100985666D01*
X134811785Y-100985666D01*
X134638744Y-100951246D01*
X134475743Y-100883729D01*
X134329046Y-100785709D01*
X134204291Y-100660954D01*
X134106271Y-100514257D01*
X134038754Y-100351256D01*
X134004334Y-100178215D01*
X134004334Y-100001785D01*
X134038754Y-99828744D01*
X134106271Y-99665743D01*
X134204291Y-99519046D01*
X134329046Y-99394291D01*
X134475743Y-99296271D01*
X134638744Y-99228754D01*
X134811785Y-99194334D01*
X134988215Y-99194334D01*
X135161256Y-99228754D01*
G37*
G36*
X140241256Y-97958754D02*
G01*
X140404257Y-98026271D01*
X140550954Y-98124291D01*
X140675709Y-98249046D01*
X140773729Y-98395743D01*
X140841246Y-98558744D01*
X140875666Y-98731785D01*
X140875666Y-98908215D01*
X140841246Y-99081256D01*
X140773729Y-99244257D01*
X140675709Y-99390954D01*
X140550954Y-99515709D01*
X140404257Y-99613729D01*
X140241256Y-99681246D01*
X140068215Y-99715666D01*
X139891785Y-99715666D01*
X139718744Y-99681246D01*
X139555743Y-99613729D01*
X139409046Y-99515709D01*
X139284291Y-99390954D01*
X139186271Y-99244257D01*
X139118754Y-99081256D01*
X139084334Y-98908215D01*
X139084334Y-98731785D01*
X139118754Y-98558744D01*
X139186271Y-98395743D01*
X139284291Y-98249046D01*
X139409046Y-98124291D01*
X139555743Y-98026271D01*
X139718744Y-97958754D01*
X139891785Y-97924334D01*
X140068215Y-97924334D01*
X140241256Y-97958754D01*
G37*
G36*
X161851917Y-96972010D02*
G01*
X162046527Y-97035243D01*
X162228849Y-97128140D01*
X162228853Y-97128143D01*
X162394388Y-97248411D01*
X162394389Y-97248412D01*
X162394393Y-97248415D01*
X162539085Y-97393107D01*
X162659360Y-97558651D01*
X162752257Y-97740973D01*
X162815490Y-97935583D01*
X162829853Y-98026271D01*
X162845413Y-98124513D01*
X162847500Y-98137688D01*
X162847500Y-98342312D01*
X162815490Y-98544417D01*
X162752257Y-98739027D01*
X162659360Y-98921349D01*
X162539085Y-99086893D01*
X162394393Y-99231585D01*
X162228849Y-99351860D01*
X162046527Y-99444757D01*
X161851917Y-99507990D01*
X161698432Y-99532299D01*
X161649814Y-99540000D01*
X161649812Y-99540000D01*
X161445188Y-99540000D01*
X161445186Y-99540000D01*
X161389919Y-99531246D01*
X161243083Y-99507990D01*
X161048473Y-99444757D01*
X160866151Y-99351860D01*
X160700607Y-99231585D01*
X160555915Y-99086893D01*
X160435640Y-98921349D01*
X160342743Y-98739027D01*
X160279510Y-98544417D01*
X160255984Y-98395878D01*
X160247500Y-98342313D01*
X160247500Y-98137686D01*
X160279510Y-97935582D01*
X160342741Y-97740978D01*
X160342742Y-97740975D01*
X160342743Y-97740973D01*
X160435640Y-97558651D01*
X160435641Y-97558648D01*
X160435643Y-97558646D01*
X160555911Y-97393111D01*
X160700611Y-97248411D01*
X160866146Y-97128143D01*
X160866148Y-97128141D01*
X160866151Y-97128140D01*
X161048473Y-97035243D01*
X161048475Y-97035242D01*
X161048478Y-97035241D01*
X161243082Y-96972010D01*
X161445186Y-96940000D01*
X161649814Y-96940000D01*
X161851917Y-96972010D01*
G37*
G36*
X135800000Y-98450000D02*
G01*
X134000000Y-98450000D01*
X134000000Y-96650000D01*
X135800000Y-96650000D01*
X135800000Y-98450000D01*
G37*
G36*
X155129850Y-91385964D02*
G01*
X155180041Y-91391787D01*
X155197191Y-91399359D01*
X155220671Y-91404030D01*
X155245806Y-91420825D01*
X155265696Y-91429607D01*
X155279280Y-91443191D01*
X155301777Y-91458223D01*
X155316808Y-91480719D01*
X155330392Y-91494303D01*
X155339173Y-91514190D01*
X155355970Y-91539329D01*
X155360640Y-91562809D01*
X155368212Y-91579958D01*
X155374036Y-91630161D01*
X155374999Y-91635000D01*
X155374999Y-91638456D01*
X155375000Y-91638465D01*
X155375000Y-93256534D01*
X155375000Y-93335001D01*
X155374034Y-93339853D01*
X155368212Y-93390041D01*
X155360641Y-93407187D01*
X155355970Y-93430671D01*
X155339171Y-93455811D01*
X155330392Y-93475696D01*
X155316810Y-93489277D01*
X155301777Y-93511777D01*
X155279277Y-93526810D01*
X155265696Y-93540392D01*
X155245811Y-93549171D01*
X155220671Y-93565970D01*
X155197188Y-93570640D01*
X155180041Y-93578212D01*
X155129838Y-93584036D01*
X155125000Y-93584999D01*
X155121543Y-93584999D01*
X155121535Y-93585000D01*
X153428465Y-93585000D01*
X153428464Y-93584999D01*
X153424999Y-93585000D01*
X153420147Y-93584035D01*
X153369958Y-93578212D01*
X153352810Y-93570640D01*
X153329329Y-93565970D01*
X153304190Y-93549173D01*
X153284303Y-93540392D01*
X153270719Y-93526808D01*
X153248223Y-93511777D01*
X153233191Y-93489280D01*
X153219607Y-93475696D01*
X153210825Y-93455806D01*
X153194030Y-93430671D01*
X153189360Y-93407192D01*
X153181787Y-93390041D01*
X153175963Y-93339838D01*
X153175001Y-93335000D01*
X153175000Y-93331542D01*
X153175000Y-93331534D01*
X153175000Y-91638465D01*
X153175000Y-91638464D01*
X153175000Y-91634999D01*
X153175964Y-91630149D01*
X153181787Y-91579958D01*
X153189359Y-91562806D01*
X153194030Y-91539329D01*
X153210823Y-91514194D01*
X153219607Y-91494303D01*
X153233193Y-91480716D01*
X153248223Y-91458223D01*
X153270716Y-91443193D01*
X153284303Y-91429607D01*
X153304194Y-91420823D01*
X153329329Y-91404030D01*
X153352805Y-91399360D01*
X153369958Y-91391787D01*
X153420163Y-91385963D01*
X153425000Y-91385001D01*
X153428456Y-91385000D01*
X153428465Y-91385000D01*
X155121535Y-91385000D01*
X155125001Y-91385000D01*
X155129850Y-91385964D01*
G37*
G36*
X163604850Y-91385964D02*
G01*
X163655041Y-91391787D01*
X163672191Y-91399359D01*
X163695671Y-91404030D01*
X163720806Y-91420825D01*
X163740696Y-91429607D01*
X163754280Y-91443191D01*
X163776777Y-91458223D01*
X163791808Y-91480719D01*
X163805392Y-91494303D01*
X163814173Y-91514190D01*
X163830970Y-91539329D01*
X163835640Y-91562809D01*
X163843212Y-91579958D01*
X163849036Y-91630161D01*
X163849999Y-91635000D01*
X163849999Y-91638456D01*
X163850000Y-91638465D01*
X163850000Y-93256534D01*
X163850000Y-93335001D01*
X163849034Y-93339853D01*
X163843212Y-93390041D01*
X163835641Y-93407187D01*
X163830970Y-93430671D01*
X163814171Y-93455811D01*
X163805392Y-93475696D01*
X163791810Y-93489277D01*
X163776777Y-93511777D01*
X163754277Y-93526810D01*
X163740696Y-93540392D01*
X163720811Y-93549171D01*
X163695671Y-93565970D01*
X163672188Y-93570640D01*
X163655041Y-93578212D01*
X163604838Y-93584036D01*
X163600000Y-93584999D01*
X163596543Y-93584999D01*
X163596535Y-93585000D01*
X161903465Y-93585000D01*
X161903464Y-93584999D01*
X161899999Y-93585000D01*
X161895147Y-93584035D01*
X161844958Y-93578212D01*
X161827810Y-93570640D01*
X161804329Y-93565970D01*
X161779190Y-93549173D01*
X161759303Y-93540392D01*
X161745719Y-93526808D01*
X161723223Y-93511777D01*
X161708191Y-93489280D01*
X161694607Y-93475696D01*
X161685825Y-93455806D01*
X161669030Y-93430671D01*
X161664360Y-93407192D01*
X161656787Y-93390041D01*
X161650963Y-93339838D01*
X161650001Y-93335000D01*
X161650000Y-93331542D01*
X161650000Y-93331534D01*
X161650000Y-91638465D01*
X161650000Y-91638464D01*
X161650000Y-91634999D01*
X161650964Y-91630149D01*
X161656787Y-91579958D01*
X161664359Y-91562806D01*
X161669030Y-91539329D01*
X161685823Y-91514194D01*
X161694607Y-91494303D01*
X161708193Y-91480716D01*
X161723223Y-91458223D01*
X161745716Y-91443193D01*
X161759303Y-91429607D01*
X161779194Y-91420823D01*
X161804329Y-91404030D01*
X161827805Y-91399360D01*
X161844958Y-91391787D01*
X161895163Y-91385963D01*
X161900000Y-91385001D01*
X161903456Y-91385000D01*
X161903465Y-91385000D01*
X163596535Y-91385000D01*
X163600001Y-91385000D01*
X163604850Y-91385964D01*
G37*
G36*
X167529850Y-91335964D02*
G01*
X167580041Y-91341787D01*
X167597191Y-91349359D01*
X167620671Y-91354030D01*
X167645806Y-91370825D01*
X167665696Y-91379607D01*
X167679280Y-91393191D01*
X167701777Y-91408223D01*
X167716808Y-91430719D01*
X167730392Y-91444303D01*
X167739173Y-91464190D01*
X167755970Y-91489329D01*
X167760640Y-91512809D01*
X167768212Y-91529958D01*
X167774036Y-91580161D01*
X167774999Y-91585000D01*
X167774999Y-91588456D01*
X167775000Y-91588465D01*
X167775000Y-93256534D01*
X167775000Y-93285001D01*
X167774034Y-93289853D01*
X167768212Y-93340041D01*
X167760641Y-93357187D01*
X167755970Y-93380671D01*
X167739171Y-93405811D01*
X167730392Y-93425696D01*
X167716810Y-93439277D01*
X167701777Y-93461777D01*
X167679277Y-93476810D01*
X167665696Y-93490392D01*
X167645811Y-93499171D01*
X167620671Y-93515970D01*
X167597188Y-93520640D01*
X167580041Y-93528212D01*
X167529838Y-93534036D01*
X167525000Y-93534999D01*
X167521543Y-93534999D01*
X167521535Y-93535000D01*
X165828465Y-93535000D01*
X165828464Y-93534999D01*
X165824999Y-93535000D01*
X165820147Y-93534035D01*
X165769958Y-93528212D01*
X165752810Y-93520640D01*
X165729329Y-93515970D01*
X165704190Y-93499173D01*
X165684303Y-93490392D01*
X165670719Y-93476808D01*
X165648223Y-93461777D01*
X165633191Y-93439280D01*
X165619607Y-93425696D01*
X165610825Y-93405806D01*
X165594030Y-93380671D01*
X165589360Y-93357192D01*
X165581787Y-93340041D01*
X165575963Y-93289838D01*
X165575001Y-93285000D01*
X165575000Y-93281542D01*
X165575000Y-93281534D01*
X165575000Y-91588465D01*
X165575000Y-91588464D01*
X165575000Y-91584999D01*
X165575964Y-91580149D01*
X165581787Y-91529958D01*
X165589359Y-91512806D01*
X165594030Y-91489329D01*
X165610823Y-91464194D01*
X165619607Y-91444303D01*
X165633193Y-91430716D01*
X165648223Y-91408223D01*
X165670716Y-91393193D01*
X165684303Y-91379607D01*
X165704194Y-91370823D01*
X165729329Y-91354030D01*
X165752805Y-91349360D01*
X165769958Y-91341787D01*
X165820163Y-91335963D01*
X165825000Y-91335001D01*
X165828456Y-91335000D01*
X165828465Y-91335000D01*
X167521535Y-91335000D01*
X167525001Y-91335000D01*
X167529850Y-91335964D01*
G37*
G36*
X159579850Y-91310964D02*
G01*
X159630041Y-91316787D01*
X159647191Y-91324359D01*
X159670671Y-91329030D01*
X159695806Y-91345825D01*
X159715696Y-91354607D01*
X159729280Y-91368191D01*
X159751777Y-91383223D01*
X159766808Y-91405719D01*
X159780392Y-91419303D01*
X159789173Y-91439190D01*
X159805970Y-91464329D01*
X159810640Y-91487809D01*
X159818212Y-91504958D01*
X159824036Y-91555161D01*
X159824999Y-91560000D01*
X159824999Y-91563456D01*
X159825000Y-91563465D01*
X159825000Y-93256534D01*
X159825000Y-93260001D01*
X159824034Y-93264853D01*
X159818212Y-93315041D01*
X159810641Y-93332187D01*
X159805970Y-93355671D01*
X159789171Y-93380811D01*
X159780392Y-93400696D01*
X159766810Y-93414277D01*
X159751777Y-93436777D01*
X159729277Y-93451810D01*
X159715696Y-93465392D01*
X159695811Y-93474171D01*
X159670671Y-93490970D01*
X159647188Y-93495640D01*
X159630041Y-93503212D01*
X159579838Y-93509036D01*
X159575000Y-93509999D01*
X159571543Y-93509999D01*
X159571535Y-93510000D01*
X157878465Y-93510000D01*
X157878464Y-93509999D01*
X157874999Y-93510000D01*
X157870147Y-93509035D01*
X157819958Y-93503212D01*
X157802810Y-93495640D01*
X157779329Y-93490970D01*
X157754190Y-93474173D01*
X157734303Y-93465392D01*
X157720719Y-93451808D01*
X157698223Y-93436777D01*
X157683191Y-93414280D01*
X157669607Y-93400696D01*
X157660825Y-93380806D01*
X157644030Y-93355671D01*
X157639360Y-93332192D01*
X157631787Y-93315041D01*
X157625963Y-93264838D01*
X157625001Y-93260000D01*
X157625000Y-93256542D01*
X157625000Y-93256534D01*
X157625000Y-91563465D01*
X157625000Y-91563464D01*
X157625000Y-91559999D01*
X157625964Y-91555149D01*
X157631787Y-91504958D01*
X157639359Y-91487806D01*
X157644030Y-91464329D01*
X157660823Y-91439194D01*
X157669607Y-91419303D01*
X157683193Y-91405716D01*
X157698223Y-91383223D01*
X157720716Y-91368193D01*
X157734303Y-91354607D01*
X157754194Y-91345823D01*
X157779329Y-91329030D01*
X157802805Y-91324360D01*
X157819958Y-91316787D01*
X157870163Y-91310963D01*
X157875000Y-91310001D01*
X157878456Y-91310000D01*
X157878465Y-91310000D01*
X159571535Y-91310000D01*
X159575001Y-91310000D01*
X159579850Y-91310964D01*
G37*
G36*
X132669417Y-84784510D02*
G01*
X132813322Y-84831268D01*
X132864027Y-84847743D01*
X133046349Y-84940640D01*
X133080035Y-84965114D01*
X133211888Y-85060911D01*
X133211889Y-85060912D01*
X133211893Y-85060915D01*
X133356585Y-85205607D01*
X133476860Y-85371151D01*
X133569757Y-85553473D01*
X133632990Y-85748083D01*
X133656246Y-85894919D01*
X133660644Y-85922688D01*
X133665000Y-85950188D01*
X133665000Y-86154812D01*
X133632990Y-86356917D01*
X133569757Y-86551527D01*
X133476860Y-86733849D01*
X133356585Y-86899393D01*
X133211893Y-87044085D01*
X133046349Y-87164360D01*
X132864027Y-87257257D01*
X132669417Y-87320490D01*
X132515932Y-87344799D01*
X132467314Y-87352500D01*
X132467312Y-87352500D01*
X132262688Y-87352500D01*
X132262686Y-87352500D01*
X132207419Y-87343746D01*
X132060583Y-87320490D01*
X131865973Y-87257257D01*
X131683651Y-87164360D01*
X131518107Y-87044085D01*
X131373415Y-86899393D01*
X131253140Y-86733849D01*
X131160243Y-86551527D01*
X131097010Y-86356917D01*
X131065000Y-86154812D01*
X131065000Y-85950188D01*
X131069356Y-85922688D01*
X131097010Y-85748082D01*
X131160241Y-85553478D01*
X131160242Y-85553475D01*
X131160243Y-85553473D01*
X131253140Y-85371151D01*
X131253141Y-85371148D01*
X131253143Y-85371146D01*
X131373411Y-85205611D01*
X131518111Y-85060911D01*
X131683646Y-84940643D01*
X131683648Y-84940641D01*
X131683651Y-84940640D01*
X131865973Y-84847743D01*
X131865975Y-84847742D01*
X131865978Y-84847741D01*
X132060582Y-84784510D01*
X132262686Y-84752500D01*
X132467314Y-84752500D01*
X132669417Y-84784510D01*
G37*
G36*
X138551271Y-84754060D02*
G01*
X138570786Y-84762676D01*
X138592545Y-84767005D01*
X138615837Y-84782568D01*
X138638731Y-84792677D01*
X138654367Y-84808313D01*
X138675240Y-84822260D01*
X138689186Y-84843132D01*
X138704822Y-84858768D01*
X138714929Y-84881658D01*
X138730495Y-84904955D01*
X138734823Y-84926717D01*
X138743437Y-84946225D01*
X138744999Y-84959686D01*
X138744999Y-84977870D01*
X138745000Y-84977876D01*
X138745000Y-87127124D01*
X138744999Y-87127129D01*
X138744999Y-87145318D01*
X138743439Y-87158771D01*
X138734823Y-87178282D01*
X138730495Y-87200045D01*
X138714928Y-87223342D01*
X138704822Y-87246231D01*
X138689188Y-87261864D01*
X138675240Y-87282740D01*
X138654364Y-87296688D01*
X138638731Y-87312322D01*
X138615843Y-87322427D01*
X138592545Y-87337995D01*
X138570780Y-87342324D01*
X138551274Y-87350937D01*
X138537813Y-87352499D01*
X138519629Y-87352499D01*
X138519624Y-87352500D01*
X136370376Y-87352500D01*
X136370371Y-87352499D01*
X136352181Y-87352499D01*
X136338728Y-87350939D01*
X136319215Y-87342323D01*
X136297455Y-87337995D01*
X136274159Y-87322429D01*
X136251268Y-87312322D01*
X136235632Y-87296686D01*
X136214760Y-87282740D01*
X136200813Y-87261867D01*
X136185177Y-87246231D01*
X136175069Y-87223338D01*
X136159505Y-87200045D01*
X136155176Y-87178284D01*
X136146562Y-87158774D01*
X136145000Y-87145313D01*
X136145000Y-84959681D01*
X136146560Y-84946228D01*
X136155177Y-84926711D01*
X136159505Y-84904955D01*
X136175067Y-84881664D01*
X136185177Y-84858768D01*
X136200815Y-84843129D01*
X136214760Y-84822260D01*
X136235629Y-84808315D01*
X136251268Y-84792677D01*
X136274163Y-84782568D01*
X136297455Y-84767005D01*
X136319213Y-84762676D01*
X136338725Y-84754062D01*
X136352186Y-84752500D01*
X138537818Y-84752500D01*
X138551271Y-84754060D01*
G37*
G36*
X144300942Y-84752500D02*
G01*
X144329417Y-84757010D01*
X144524027Y-84820243D01*
X144706349Y-84913140D01*
X144740035Y-84937614D01*
X144871888Y-85033411D01*
X144871889Y-85033412D01*
X144871893Y-85033415D01*
X145016585Y-85178107D01*
X145136860Y-85343651D01*
X145229757Y-85525973D01*
X145292990Y-85720583D01*
X145325000Y-85922688D01*
X145325000Y-86127312D01*
X145292990Y-86329417D01*
X145229757Y-86524027D01*
X145136860Y-86706349D01*
X145016585Y-86871893D01*
X144871893Y-87016585D01*
X144706349Y-87136860D01*
X144524027Y-87229757D01*
X144329417Y-87292990D01*
X144175932Y-87317299D01*
X144127314Y-87325000D01*
X144127312Y-87325000D01*
X143922688Y-87325000D01*
X143922686Y-87325000D01*
X143842642Y-87312322D01*
X143720583Y-87292990D01*
X143525973Y-87229757D01*
X143343651Y-87136860D01*
X143178107Y-87016585D01*
X143033415Y-86871893D01*
X142913140Y-86706349D01*
X142820243Y-86524027D01*
X142757010Y-86329417D01*
X142729356Y-86154813D01*
X142725000Y-86127313D01*
X142725000Y-85922686D01*
X142757010Y-85720582D01*
X142820241Y-85525978D01*
X142820242Y-85525975D01*
X142820243Y-85525973D01*
X142913140Y-85343651D01*
X142913141Y-85343648D01*
X142913143Y-85343646D01*
X143033411Y-85178111D01*
X143178111Y-85033411D01*
X143343646Y-84913143D01*
X143343648Y-84913141D01*
X143343651Y-84913140D01*
X143525973Y-84820243D01*
X143525975Y-84820242D01*
X143525978Y-84820241D01*
X143720582Y-84757010D01*
X143922686Y-84725000D01*
X144127314Y-84725000D01*
X144300942Y-84752500D01*
G37*
G36*
X150211271Y-84726560D02*
G01*
X150230786Y-84735176D01*
X150252545Y-84739505D01*
X150275837Y-84755068D01*
X150298731Y-84765177D01*
X150314367Y-84780813D01*
X150335240Y-84794760D01*
X150349186Y-84815632D01*
X150364822Y-84831268D01*
X150374929Y-84854158D01*
X150390495Y-84877455D01*
X150394823Y-84899217D01*
X150403437Y-84918725D01*
X150404999Y-84932186D01*
X150404999Y-84950370D01*
X150405000Y-84950376D01*
X150405000Y-87099624D01*
X150404999Y-87099629D01*
X150404999Y-87117818D01*
X150403439Y-87131271D01*
X150394823Y-87150782D01*
X150390495Y-87172545D01*
X150374928Y-87195842D01*
X150364822Y-87218731D01*
X150349188Y-87234364D01*
X150335240Y-87255240D01*
X150314364Y-87269188D01*
X150298731Y-87284822D01*
X150275843Y-87294927D01*
X150252545Y-87310495D01*
X150230780Y-87314824D01*
X150211274Y-87323437D01*
X150197813Y-87324999D01*
X150179629Y-87324999D01*
X150179624Y-87325000D01*
X148030376Y-87325000D01*
X148030371Y-87324999D01*
X148012181Y-87324999D01*
X147998728Y-87323439D01*
X147979215Y-87314823D01*
X147957455Y-87310495D01*
X147934159Y-87294929D01*
X147911268Y-87284822D01*
X147895632Y-87269186D01*
X147874760Y-87255240D01*
X147860813Y-87234367D01*
X147845177Y-87218731D01*
X147835069Y-87195838D01*
X147819505Y-87172545D01*
X147815176Y-87150784D01*
X147806562Y-87131274D01*
X147805000Y-87117813D01*
X147805000Y-84932181D01*
X147806560Y-84918728D01*
X147815177Y-84899211D01*
X147819505Y-84877455D01*
X147835067Y-84854164D01*
X147845177Y-84831268D01*
X147860815Y-84815629D01*
X147874760Y-84794760D01*
X147895629Y-84780815D01*
X147911268Y-84765177D01*
X147934163Y-84755068D01*
X147957455Y-84739505D01*
X147979213Y-84735176D01*
X147998725Y-84726562D01*
X148012186Y-84725000D01*
X150197818Y-84725000D01*
X150211271Y-84726560D01*
G37*
G36*
X154531790Y-81255393D02*
G01*
X154695952Y-81308733D01*
X154849748Y-81387096D01*
X154989393Y-81488553D01*
X155111447Y-81610607D01*
X155212904Y-81750252D01*
X155291267Y-81904048D01*
X155344607Y-82068210D01*
X155371609Y-82238695D01*
X155371609Y-82411305D01*
X155344607Y-82581790D01*
X155291267Y-82745952D01*
X155212904Y-82899748D01*
X155111447Y-83039393D01*
X154989393Y-83161447D01*
X154849748Y-83262904D01*
X154695952Y-83341267D01*
X154531790Y-83394607D01*
X154361305Y-83421609D01*
X154188695Y-83421609D01*
X154018210Y-83394607D01*
X153854048Y-83341267D01*
X153700252Y-83262904D01*
X153560607Y-83161447D01*
X153438553Y-83039393D01*
X153337096Y-82899748D01*
X153258733Y-82745952D01*
X153205393Y-82581790D01*
X153178391Y-82411305D01*
X153178391Y-82238695D01*
X153205393Y-82068210D01*
X153258733Y-81904048D01*
X153337096Y-81750252D01*
X153438553Y-81610607D01*
X153560607Y-81488553D01*
X153700252Y-81387096D01*
X153854048Y-81308733D01*
X154018210Y-81255393D01*
X154188695Y-81228391D01*
X154361305Y-81228391D01*
X154531790Y-81255393D01*
G37*
G36*
X163006790Y-81255393D02*
G01*
X163170952Y-81308733D01*
X163324748Y-81387096D01*
X163464393Y-81488553D01*
X163586447Y-81610607D01*
X163687904Y-81750252D01*
X163766267Y-81904048D01*
X163819607Y-82068210D01*
X163846609Y-82238695D01*
X163846609Y-82411305D01*
X163819607Y-82581790D01*
X163766267Y-82745952D01*
X163687904Y-82899748D01*
X163586447Y-83039393D01*
X163464393Y-83161447D01*
X163324748Y-83262904D01*
X163170952Y-83341267D01*
X163006790Y-83394607D01*
X162836305Y-83421609D01*
X162663695Y-83421609D01*
X162493210Y-83394607D01*
X162329048Y-83341267D01*
X162175252Y-83262904D01*
X162035607Y-83161447D01*
X161913553Y-83039393D01*
X161812096Y-82899748D01*
X161733733Y-82745952D01*
X161680393Y-82581790D01*
X161653391Y-82411305D01*
X161653391Y-82238695D01*
X161680393Y-82068210D01*
X161733733Y-81904048D01*
X161812096Y-81750252D01*
X161913553Y-81610607D01*
X162035607Y-81488553D01*
X162175252Y-81387096D01*
X162329048Y-81308733D01*
X162493210Y-81255393D01*
X162663695Y-81228391D01*
X162836305Y-81228391D01*
X163006790Y-81255393D01*
G37*
G36*
X166931790Y-81205393D02*
G01*
X167095952Y-81258733D01*
X167249748Y-81337096D01*
X167389393Y-81438553D01*
X167511447Y-81560607D01*
X167612904Y-81700252D01*
X167691267Y-81854048D01*
X167744607Y-82018210D01*
X167771609Y-82188695D01*
X167771609Y-82361305D01*
X167744607Y-82531790D01*
X167691267Y-82695952D01*
X167612904Y-82849748D01*
X167511447Y-82989393D01*
X167389393Y-83111447D01*
X167249748Y-83212904D01*
X167095952Y-83291267D01*
X166931790Y-83344607D01*
X166761305Y-83371609D01*
X166588695Y-83371609D01*
X166418210Y-83344607D01*
X166254048Y-83291267D01*
X166100252Y-83212904D01*
X165960607Y-83111447D01*
X165838553Y-82989393D01*
X165737096Y-82849748D01*
X165658733Y-82695952D01*
X165605393Y-82531790D01*
X165578391Y-82361305D01*
X165578391Y-82188695D01*
X165605393Y-82018210D01*
X165658733Y-81854048D01*
X165737096Y-81700252D01*
X165838553Y-81560607D01*
X165960607Y-81438553D01*
X166100252Y-81337096D01*
X166254048Y-81258733D01*
X166418210Y-81205393D01*
X166588695Y-81178391D01*
X166761305Y-81178391D01*
X166931790Y-81205393D01*
G37*
G36*
X158981790Y-81180393D02*
G01*
X159145952Y-81233733D01*
X159299748Y-81312096D01*
X159439393Y-81413553D01*
X159561447Y-81535607D01*
X159662904Y-81675252D01*
X159741267Y-81829048D01*
X159794607Y-81993210D01*
X159821609Y-82163695D01*
X159821609Y-82336305D01*
X159794607Y-82506790D01*
X159741267Y-82670952D01*
X159662904Y-82824748D01*
X159561447Y-82964393D01*
X159439393Y-83086447D01*
X159299748Y-83187904D01*
X159145952Y-83266267D01*
X158981790Y-83319607D01*
X158811305Y-83346609D01*
X158638695Y-83346609D01*
X158468210Y-83319607D01*
X158304048Y-83266267D01*
X158150252Y-83187904D01*
X158010607Y-83086447D01*
X157888553Y-82964393D01*
X157787096Y-82824748D01*
X157708733Y-82670952D01*
X157655393Y-82506790D01*
X157628391Y-82336305D01*
X157628391Y-82163695D01*
X157655393Y-81993210D01*
X157708733Y-81829048D01*
X157787096Y-81675252D01*
X157888553Y-81535607D01*
X158010607Y-81413553D01*
X158150252Y-81312096D01*
X158304048Y-81233733D01*
X158468210Y-81180393D01*
X158638695Y-81153391D01*
X158811305Y-81153391D01*
X158981790Y-81180393D01*
G37*
M02*
